<svg width="40" height="40" viewBox="0 0 40 40" fill="none" xmlns="http://www.w3.org/2000/svg">
<g clip-path="url(#clip0_833_1176)">
<path d="M13.0957 11.1832V4.52211C13.0957 3.07313 14.2704 1.89844 15.7194 1.89844H19.5377C20.9867 1.89844 22.1614 3.07305 22.1614 4.52211V11.1832" fill="#82AEB4" fill-opacity="0.42"/>
<path d="M22.1613 12.261C21.567 12.261 21.0852 11.7792 21.0852 11.185V4.52391C21.0852 3.67047 20.3909 2.97625 19.5376 2.97625H15.7192C14.8659 2.97625 14.1716 3.67047 14.1716 4.52391V11.185C14.1716 11.7791 13.6898 12.261 13.0955 12.261C12.5012 12.261 12.0195 11.7792 12.0195 11.185V4.52391C12.0195 2.48398 13.6791 0.824219 15.7192 0.824219H19.5376C21.5775 0.824219 23.2373 2.48391 23.2373 4.52391V11.185C23.2373 11.7793 22.7555 12.261 22.1613 12.261Z" fill="#82AEB4"/>
<path d="M28.2182 29.5076H19.2749C17.627 29.5076 16.291 28.1716 16.291 26.5237V23.7456C16.291 22.0977 17.627 20.7617 19.2749 20.7617H22.9791H28.2182" fill="#82AEB4" fill-opacity="0.42"/>
<path d="M28.2181 30.5852H19.2748C17.0361 30.5852 15.2148 28.7639 15.2148 26.5253V23.7473C15.2148 21.5086 17.036 19.6875 19.2748 19.6875H28.2181C28.8124 19.6875 29.2941 20.1693 29.2941 20.7635C29.2941 21.3577 28.8124 21.8395 28.2181 21.8395H19.2748C18.2228 21.8395 17.3669 22.6954 17.3669 23.7473V26.5254C17.3669 27.5773 18.2228 28.4333 19.2748 28.4333H28.2181C28.8124 28.4333 29.2941 28.9151 29.2941 29.5093C29.2941 30.1034 28.8123 30.5852 28.2181 30.5852Z" fill="#82AEB4"/>
<path d="M24.744 7.13641H19.4559C18.8616 7.13641 18.3799 6.65461 18.3799 6.06039C18.3799 5.46625 18.8616 4.98438 19.4559 4.98438H24.744C25.3383 4.98438 25.82 5.46617 25.82 6.06039C25.82 6.65461 25.3382 7.13641 24.744 7.13641Z" fill="#82AEB4"/>
<path d="M29.0871 4.30403C28.8513 4.30403 28.6141 4.22699 28.4157 4.0684C27.9516 3.69715 27.8763 3.02004 28.2475 2.55598L29.9688 0.403948C30.3399 -0.0601142 31.017 -0.135427 31.4811 0.235745C31.9451 0.606917 32.0204 1.2841 31.6493 1.74817L29.9279 3.9002C29.7155 4.16574 29.4028 4.30403 29.0871 4.30403Z" fill="#82AEB4"/>
<path d="M32.9613 7.16766H30.1639C29.5696 7.16766 29.0879 6.68586 29.0879 6.09164C29.0879 5.49742 29.5696 5.01562 30.1639 5.01562H32.9613C33.5556 5.01562 34.0373 5.49742 34.0373 6.09164C34.0373 6.68586 33.5555 7.16766 32.9613 7.16766Z" fill="#82AEB4"/>
<path d="M30.8098 12.1832C30.4941 12.1832 30.1814 12.045 29.9688 11.7793L28.2474 9.62708C27.8763 9.16302 27.9516 8.48599 28.4156 8.11466C28.8797 7.74341 29.5567 7.81888 29.9281 8.28286L31.6494 10.435C32.0205 10.8991 31.9452 11.5761 31.4812 11.9475C31.2828 12.1063 31.0454 12.1832 30.8098 12.1832Z" fill="#82AEB4"/>
<path d="M24.3166 39.9983H10.9404C8.19578 39.9983 5.96289 37.7654 5.96289 35.0208V15.247C5.96289 12.5024 8.19578 10.2695 10.9404 10.2695H24.3166C27.0612 10.2695 29.2941 12.5024 29.2941 15.247V35.0208C29.294 37.7655 27.0612 39.9983 24.3166 39.9983ZM10.9404 12.4215C9.3825 12.4215 8.11484 13.689 8.11484 15.247V35.0208C8.11484 36.5787 9.38234 37.8464 10.9404 37.8464H24.3166C25.8746 37.8464 27.1421 36.5789 27.1421 35.0208V15.247C27.1421 13.6891 25.8746 12.4215 24.3166 12.4215H10.9404Z" fill="#82AEB4"/>
<path d="M22.3038 3.93661C33.5991 4.92111 37.1045 16.3165 36.1276 26.0232C35.1508 35.7299 25.2023 42.8006 13.907 41.8161C2.61177 40.8316 -0.893657 29.4363 0.0832111 19.7296C1.06008 10.0229 11.0086 2.95211 22.3038 3.93661Z" fill="#82AEB4" fill-opacity="0.11"/>
</g>
<defs>
<clipPath id="clip0_833_1176">
<rect width="40" height="40" fill="white"/>
</clipPath>
</defs>
</svg>
