<svg width="191" height="254" viewBox="0 0 191 254" fill="none" xmlns="http://www.w3.org/2000/svg">
<path fill-rule="evenodd" clip-rule="evenodd" d="M263.363 96.9663C272.728 128.764 251.162 159.739 230.34 185.532C211.092 209.374 186.11 229.651 155.483 230.595C125.232 231.528 99.6379 212.536 79.2265 190.19C57.9993 166.951 38.5839 139.001 43.4094 107.898C48.3587 75.9974 73.5308 51.0637 102.893 37.6463C130.077 25.2245 159.98 31.4576 188.014 41.8206C218.728 53.1746 254.111 65.5547 263.363 96.9663Z" fill="#82AEB4" fill-opacity="0.17"/>
<g opacity="0.5">
<circle cx="180.501" cy="99.5" r="2.5" transform="rotate(90 180.501 99.5)" fill="white"/>
<circle cx="168.501" cy="99.5" r="2.5" transform="rotate(90 168.501 99.5)" fill="white"/>
<circle cx="156.501" cy="99.5" r="2.5" transform="rotate(90 156.501 99.5)" fill="white"/>
<circle cx="144.501" cy="99.5" r="2.5" transform="rotate(90 144.501 99.5)" fill="white"/>
<circle cx="132.501" cy="99.5" r="2.5" transform="rotate(90 132.501 99.5)" fill="white"/>
<circle cx="120.501" cy="99.5" r="2.5" transform="rotate(90 120.501 99.5)" fill="white"/>
<circle cx="108.501" cy="99.5" r="2.5" transform="rotate(90 108.501 99.5)" fill="white"/>
<circle cx="96.501" cy="99.5" r="2.5" transform="rotate(90 96.501 99.5)" fill="white"/>
<circle cx="180.501" cy="133.5" r="2.5" transform="rotate(90 180.501 133.5)" fill="white"/>
<circle cx="168.501" cy="133.5" r="2.5" transform="rotate(90 168.501 133.5)" fill="white"/>
<circle cx="156.501" cy="133.5" r="2.5" transform="rotate(90 156.501 133.5)" fill="white"/>
<circle cx="144.501" cy="133.5" r="2.5" transform="rotate(90 144.501 133.5)" fill="white"/>
<circle cx="132.501" cy="133.5" r="2.5" transform="rotate(90 132.501 133.5)" fill="white"/>
<circle cx="120.501" cy="133.5" r="2.5" transform="rotate(90 120.501 133.5)" fill="white"/>
<circle cx="108.501" cy="133.5" r="2.5" transform="rotate(90 108.501 133.5)" fill="white"/>
<circle cx="96.501" cy="133.5" r="2.5" transform="rotate(90 96.501 133.5)" fill="white"/>
<circle cx="180.501" cy="116.5" r="2.5" transform="rotate(90 180.501 116.5)" fill="white"/>
<circle cx="168.501" cy="116.5" r="2.5" transform="rotate(90 168.501 116.5)" fill="white"/>
<circle cx="156.501" cy="116.5" r="2.5" transform="rotate(90 156.501 116.5)" fill="white"/>
<circle cx="144.501" cy="116.5" r="2.5" transform="rotate(90 144.501 116.5)" fill="white"/>
<circle cx="132.501" cy="116.5" r="2.5" transform="rotate(90 132.501 116.5)" fill="white"/>
<circle cx="120.501" cy="116.5" r="2.5" transform="rotate(90 120.501 116.5)" fill="white"/>
<circle cx="108.501" cy="116.5" r="2.5" transform="rotate(90 108.501 116.5)" fill="white"/>
<circle cx="96.501" cy="116.5" r="2.5" transform="rotate(90 96.501 116.5)" fill="white"/>
<circle cx="180.501" cy="150.5" r="2.5" transform="rotate(90 180.501 150.5)" fill="white"/>
<circle cx="168.501" cy="150.5" r="2.5" transform="rotate(90 168.501 150.5)" fill="white"/>
<circle cx="156.501" cy="150.5" r="2.5" transform="rotate(90 156.501 150.5)" fill="white"/>
<circle cx="144.501" cy="150.5" r="2.5" transform="rotate(90 144.501 150.5)" fill="white"/>
<circle cx="132.501" cy="150.5" r="2.5" transform="rotate(90 132.501 150.5)" fill="white"/>
<circle cx="120.501" cy="150.5" r="2.5" transform="rotate(90 120.501 150.5)" fill="white"/>
<circle cx="108.501" cy="150.5" r="2.5" transform="rotate(90 108.501 150.5)" fill="white"/>
<circle cx="96.501" cy="150.5" r="2.5" transform="rotate(90 96.501 150.5)" fill="white"/>
</g>
</svg>
