<svg width="59" height="58" viewBox="0 0 59 58" fill="none" xmlns="http://www.w3.org/2000/svg">
<path d="M45.001 29.5713C45.001 40.9325 33.7996 45.5713 23.9092 45.5713C14.0188 45.5713 6.001 36.3612 6.001 24.9999C6.001 13.6387 17.2024 8.99998 27.0928 8.99998C36.9832 8.99998 45.001 18.2101 45.001 29.5713Z" fill="#82AEB4" fill-opacity="0.1"/>
<path d="M28.2241 33.0568L31.1292 23.4013L24.3991 16.719L24.5941 11.3245L23.2185 11.3845L23.0104 17.1473L15.4623 19.4767L11.9951 16.0342L10.9847 17.0518L14.5059 20.5481L12.281 27.9406L6.10026 28.2105L6.04978 29.5875L11.8631 29.3348L11.8591 29.3486L18.2691 35.7132L18.0416 42.0269L19.4185 41.9675L19.6447 35.7058L28.2241 33.0568ZM23.8666 18.4946L29.3592 23.9483L26.9882 31.8297L19.2915 34.2029L19.0789 34.2122L13.6303 28.8022L15.9992 20.9187L23.8666 18.4946Z" fill="#82AEB4"/>
<path d="M48.7875 39.3202L45.538 36.0938L48.022 27.8339L53.2199 27.4405L53.2002 26.2069L47.7216 26.6281L41.746 20.6949L42.4938 15.7659L41.2724 15.6527L40.4941 20.7652L31.8665 23.4268L28.9645 33.0847L35.6952 39.7676L44.6336 37.0089L47.8819 40.2341L48.7884 39.3211L48.7875 39.3202ZM36.2265 37.9895L30.7345 32.5365L33.1033 24.6542L40.9685 22.2293L46.4609 27.6827L44.0908 35.5637L36.2265 37.9895Z" fill="#82AEB4"/>
<path d="M26.5583 24.892L27.4651 23.9787L23.6656 20.2062L17.7339 22.2084L18.0452 23.3823L23.2613 21.6185L26.5583 24.892Z" fill="#82AEB4"/>
<path d="M33.9035 31.9874L32.9977 32.8997L36.8112 36.6861L42.5423 34.4459L42.1721 33.2952L37.1858 35.2464L33.9035 31.9874Z" fill="#82AEB4"/>
</svg>
