<svg width="41" height="41" viewBox="0 0 41 41" fill="none" xmlns="http://www.w3.org/2000/svg">
<path d="M28.8281 12.8125H39.7188V11.5312H29.4688C29.4688 11.3608 29.4015 11.1981 29.281 11.0783L25.8351 7.63241C25.4578 7.25444 24.9555 7.04688 24.4213 7.04688C23.3187 7.04688 22.4219 7.94375 22.4219 9.04627C22.4219 9.57286 22.6352 10.0879 23.0074 10.4601L24.0785 11.5312H20.5C19.4468 11.5312 18.4647 11.9579 17.7504 12.701C16.9311 11.9496 15.8676 11.5312 14.7344 11.5312C12.6997 11.5312 10.9528 12.8945 10.4172 14.7984C10.1488 14.7555 9.87844 14.7344 9.60938 14.7344C6.78358 14.7344 4.48438 17.0336 4.48438 19.8594C4.48438 20.5589 4.62403 21.238 4.89373 21.8665C2.83669 22.2739 1.28125 24.0907 1.28125 26.2656C1.28125 28.7378 3.29281 30.75 5.76562 30.75C6.03597 30.75 6.30375 30.7257 6.56769 30.677C7.09748 32.588 8.84255 33.9531 10.8906 33.9531C11.5626 33.9531 12.218 33.8032 12.8125 33.5188V35.2344C12.8125 36.294 13.6748 37.1562 14.7344 37.1562C15.794 37.1562 16.6562 36.294 16.6562 35.2344V33.3125C16.6562 32.9589 16.9439 32.6719 17.2969 32.6719C17.6499 32.6719 17.9375 32.9589 17.9375 33.3125V37.7969C17.9375 38.8565 18.7998 39.7188 19.8594 39.7188C20.919 39.7188 21.7812 38.8565 21.7812 37.7969V33.0876C22.1912 33.2363 22.6224 33.3125 23.0625 33.3125C24.9632 33.3125 26.5417 31.9243 26.8486 30.1094H39.7188V28.8281H11.5312C11.1783 28.8281 10.8906 28.5411 10.8906 28.1875C10.8906 27.8339 11.1783 27.5469 11.5312 27.5469H17.2969V26.2656H11.5312H10.25C9.89702 26.2656 9.60938 25.9786 9.60938 25.625C9.60938 25.2714 9.89702 24.9844 10.25 24.9844H17.2969V23.7031H10.25H8.96875C8.61577 23.7031 8.32812 23.4161 8.32812 23.0625C8.32812 22.7089 8.61577 22.4219 8.96875 22.4219H10.25H17.2969V21.1406H10.25C9.89702 21.1406 9.60938 20.8536 9.60938 20.5C9.60938 20.1464 9.89702 19.8594 10.25 19.8594H19.2188C19.5724 19.8594 19.8594 19.573 19.8594 19.2188V18.5781C19.8594 18.4077 19.7921 18.245 19.6717 18.1252L18.1476 16.6012C18.0144 16.4673 17.9375 16.2821 17.9375 16.0931C17.9375 15.6972 18.2597 15.375 18.6556 15.375C18.8478 15.375 19.0278 15.4493 19.1637 15.5851L22.4219 18.8433V19.2188C22.4219 19.573 22.7089 19.8594 23.0625 19.8594H39.7188V18.5781H23.7031C23.7031 18.4077 23.6359 18.245 23.5154 18.1252L23.3418 17.9516C23.9754 17.2501 24.3438 16.3308 24.3438 15.375C24.3438 14.3897 23.9683 13.4935 23.3572 12.8125H24.9844C25.338 12.8125 25.625 12.5261 25.625 12.1719V11.5312C25.625 11.3608 25.5577 11.1981 25.4373 11.0783L23.9132 9.55428C23.78 9.42039 23.7031 9.23525 23.7031 9.04627C23.7031 8.65036 24.0254 8.32812 24.4213 8.32812C24.6135 8.32812 24.7935 8.40244 24.9293 8.53825L28.1875 11.7965V12.1719C28.1875 12.5261 28.4745 12.8125 28.8281 12.8125ZM18.3129 18.5781H10.25C9.19041 18.5781 8.32812 19.4404 8.32812 20.5C8.32812 20.753 8.38002 20.9933 8.46906 21.2149C7.65227 21.436 7.04688 22.1765 7.04688 23.0625C7.04688 23.9485 7.65227 24.689 8.46906 24.9101C8.38002 25.1317 8.32812 25.372 8.32812 25.625C8.32812 26.511 8.93352 27.2515 9.75031 27.4726C9.66127 27.6942 9.60938 27.9345 9.60938 28.1875C9.60938 29.2471 10.4717 30.1094 11.5312 30.1094H25.534C25.2477 31.2119 24.2528 32.0312 23.0625 32.0312C22.5148 32.0312 21.983 31.85 21.525 31.5066C21.3302 31.3599 21.0708 31.3375 20.8543 31.4457C20.6371 31.5546 20.5 31.7763 20.5 32.0184V37.7969C20.5 38.1505 20.2124 38.4375 19.8594 38.4375C19.5064 38.4375 19.2188 38.1505 19.2188 37.7969V33.3125C19.2188 32.2529 18.3565 31.3906 17.2969 31.3906C16.2373 31.3906 15.375 32.2529 15.375 33.3125V35.2344C15.375 35.588 15.0874 35.875 14.7344 35.875C14.3814 35.875 14.0938 35.588 14.0938 35.2344V32.3259C14.0938 32.0723 13.9445 31.8429 13.7126 31.7404C13.4826 31.6385 13.211 31.6808 13.0226 31.8512C12.439 32.3804 11.6812 32.6719 10.8906 32.6719C9.24678 32.6719 7.87648 31.4419 7.70288 29.8108C7.68173 29.6142 7.57155 29.4386 7.40434 29.3349C7.2365 29.2298 7.03086 29.2099 6.84508 29.2766C6.49786 29.404 6.13462 29.4688 5.76562 29.4688C3.99942 29.4688 2.5625 28.0318 2.5625 26.2656C2.5625 24.5007 3.99686 23.0644 5.81303 23.0644C5.81431 23.0644 5.81559 23.0644 5.81752 23.0651C6.09875 23.0792 6.3787 22.9715 6.50747 22.723C6.61766 22.5103 6.59972 22.254 6.46134 22.058C6.00586 21.4148 5.76562 20.6544 5.76562 19.8594C5.76562 17.7395 7.48955 16.0156 9.60938 16.0156C9.98414 16.0156 10.3628 16.0714 10.7343 16.1815C10.915 16.2354 11.1104 16.2052 11.2686 16.1021C11.4262 15.9983 11.53 15.8292 11.5518 15.6415C11.742 14.0284 13.1097 12.8125 14.7344 12.8125C15.7382 12.8125 16.6665 13.2744 17.2809 14.0797C17.393 14.2257 17.5576 14.3116 17.7428 14.325C17.1008 14.6575 16.6562 15.3212 16.6562 16.0931C16.6562 16.6197 16.8696 17.1348 17.2418 17.507L18.3129 18.5781ZM23.0625 15.375C23.0625 15.9906 22.8319 16.5832 22.4353 17.0451L20.0695 14.6793C19.6922 14.3013 19.1899 14.0938 18.6556 14.0938C18.516 14.0938 18.3795 14.1085 18.2476 14.136C18.2796 14.1027 18.3097 14.0675 18.3347 14.0271C18.8062 13.2667 19.6159 12.8125 20.5 12.8125C21.9132 12.8125 23.0625 13.9618 23.0625 15.375Z" fill="#82AEB4"/>
<path d="M2.5625 10.8906C2.5625 12.3038 3.71178 13.4531 5.125 13.4531C6.53822 13.4531 7.6875 12.3038 7.6875 10.8906C7.6875 9.47741 6.53822 8.32812 5.125 8.32812C3.71178 8.32812 2.5625 9.47741 2.5625 10.8906ZM6.40625 10.8906C6.40625 11.5972 5.83161 12.1719 5.125 12.1719C4.41839 12.1719 3.84375 11.5972 3.84375 10.8906C3.84375 10.184 4.41839 9.60938 5.125 9.60938C5.83161 9.60938 6.40625 10.184 6.40625 10.8906Z" fill="#82AEB4"/>
<path d="M3.20312 7.04688C4.26272 7.04688 5.125 6.18459 5.125 5.125C5.125 4.06541 4.26272 3.20312 3.20312 3.20312C2.14353 3.20312 1.28125 4.06541 1.28125 5.125C1.28125 6.18459 2.14353 7.04688 3.20312 7.04688ZM3.20312 4.48438C3.55611 4.48438 3.84375 4.77138 3.84375 5.125C3.84375 5.47863 3.55611 5.76562 3.20312 5.76562C2.85014 5.76562 2.5625 5.47863 2.5625 5.125C2.5625 4.77138 2.85014 4.48438 3.20312 4.48438Z" fill="#82AEB4"/>
<path d="M10.8906 8.32703C12.4954 8.32703 13.4531 7.3693 13.4531 5.76453C13.4531 4.17258 11.6036 1.78945 11.3929 1.52359C11.1501 1.21609 10.6312 1.21609 10.3884 1.52359C10.1776 1.78945 8.32812 4.17258 8.32812 5.76453C8.32812 7.3693 9.28586 8.32703 10.8906 8.32703ZM10.8906 3.00344C11.5095 3.90544 12.1719 5.08867 12.1719 5.76453C12.1719 6.65052 11.7766 7.04578 10.8906 7.04578C10.0046 7.04578 9.60938 6.65052 9.60938 5.76453C9.60938 5.08995 10.2718 3.90736 10.8906 3.00344Z" fill="#82AEB4"/>
<path d="M16.6562 10.8895C18.261 10.8895 19.2188 9.9318 19.2188 8.32703C19.2188 6.73508 17.3693 4.35195 17.1585 4.08609C16.9157 3.77859 16.3968 3.77859 16.154 4.08609C15.9432 4.35195 14.0938 6.73508 14.0938 8.32703C14.0938 9.9318 15.0515 10.8895 16.6562 10.8895ZM16.6562 5.56594C17.2751 6.46794 17.9375 7.65117 17.9375 8.32703C17.9375 9.21302 17.5422 9.60828 16.6562 9.60828C15.7703 9.60828 15.375 9.21302 15.375 8.32703C15.375 7.65245 16.0374 6.46986 16.6562 5.56594Z" fill="#82AEB4"/>
</svg>
