<svg width="89" height="90" viewBox="0 0 89 90" fill="none" xmlns="http://www.w3.org/2000/svg">
<path d="M54.7689 33.0805C55.3929 33.754 55.9602 34.4779 56.4648 35.245C56.4816 35.2707 56.5041 35.2924 56.5304 35.3084C56.5567 35.3243 56.5863 35.3342 56.617 35.3372H56.6391C56.6665 35.3371 56.6937 35.3316 56.719 35.321C56.7444 35.3104 56.7673 35.2949 56.7866 35.2754L70.1853 22.0777C70.3377 21.9309 70.4593 21.7553 70.5429 21.561C70.6266 21.3667 70.6707 21.1576 70.6726 20.9461C70.6746 20.7345 70.6343 20.5247 70.5543 20.3289C70.4742 20.1331 70.3559 19.9552 70.2063 19.8057C70.0566 19.6561 69.8787 19.5379 69.6829 19.4579C69.487 19.3779 69.2772 19.3377 69.0657 19.3398C68.8541 19.3418 68.6451 19.386 68.4508 19.4697C68.2566 19.5535 68.081 19.6751 67.9342 19.8275L54.7744 32.7882C54.7359 32.8268 54.7139 32.8788 54.7129 32.9333C54.7118 32.9877 54.7319 33.0405 54.7689 33.0805Z" fill="#463B32"/>
<path d="M8.9251 18.6471C8.78273 18.8501 8.6895 19.0834 8.65277 19.3285C8.61604 19.5737 8.63683 19.8241 8.71348 20.0599C8.79013 20.2956 8.92055 20.5104 9.09444 20.6871C9.26833 20.8638 9.48093 20.9976 9.71544 21.0781C9.99594 21.1735 10.2975 21.1891 10.5863 21.1229C10.8752 21.0567 11.1399 20.9115 11.3508 20.7034C11.5618 20.4953 11.7107 20.2326 11.7808 19.9447C11.851 19.6568 11.8396 19.3551 11.748 19.0733C11.6564 18.7915 11.4881 18.5408 11.2621 18.3492C11.0361 18.1576 10.7611 18.0327 10.4682 17.9884C10.1752 17.9442 9.87564 17.9824 9.60311 18.0987C9.33059 18.215 9.09583 18.4049 8.9251 18.6471ZM8.71761 19.0861V19.075L10.2014 19.5813L8.71761 19.0861Z" fill="#463B32"/>
<path d="M5.73336 24.1333C1.97288 30.7704 -0.00250991 38.269 2.39337e-06 45.8974C2.39337e-06 70.2159 19.7841 90 44.1036 90C68.423 90 88.2071 70.2141 88.2071 45.8955C88.2085 38.2684 86.2321 30.7713 82.471 24.1361C82.2616 23.7789 81.92 23.5186 81.5201 23.4113C81.1202 23.3041 80.6942 23.3586 80.3342 23.5631C79.9742 23.7676 79.7092 24.1056 79.5965 24.504C79.4838 24.9024 79.5325 25.3291 79.7321 25.6918C83.2224 31.8532 85.0557 38.8142 85.0532 45.8955C85.0532 68.4766 66.6856 86.8516 44.1073 86.8516C33.9008 86.859 24.0623 83.0404 16.5333 76.1494L18.5031 74.198C21.776 70.9528 21.6386 71.1427 24.8332 68.0294C24.8706 67.9927 24.893 67.9432 24.8959 67.8909C24.8988 67.8385 24.882 67.7869 24.8488 67.7463C24.2603 67.0284 23.7783 66.2296 23.4176 65.3743C23.4044 65.3426 23.3837 65.3147 23.3572 65.2929C23.3306 65.2711 23.2991 65.2563 23.2654 65.2496C23.2318 65.2429 23.197 65.2447 23.1642 65.2547C23.1313 65.2647 23.1015 65.2827 23.0773 65.307C19.1644 69.1351 17.995 70.2547 15.0947 73.1329C14.77 73.4566 14.4962 73.7286 14.2877 73.9343C7.39056 66.6027 3.15671 56.737 3.15671 45.8992C3.15423 38.8171 4.98823 31.8554 8.47968 25.6937C8.67445 25.3312 8.71971 24.9068 8.60576 24.5114C8.49181 24.1159 8.2277 23.7807 7.86988 23.5774C7.51207 23.3741 7.08892 23.3189 6.69089 23.4234C6.29286 23.528 5.95152 23.7841 5.73981 24.137L5.73336 24.1333Z" fill="#463B32"/>
<path d="M77.3712 21.091C77.4384 21.0911 77.5055 21.0871 77.5722 21.079C77.7774 21.0529 77.9755 20.9866 78.1551 20.884C78.3347 20.7814 78.4924 20.6444 78.619 20.4808C78.7457 20.3172 78.8389 20.1303 78.8933 19.9307C78.9477 19.7311 78.9623 19.5228 78.9361 19.3176C78.8504 18.6425 78.2906 17.9149 77.2651 17.9149C76.8793 17.9159 76.5072 18.0585 76.2196 18.3158C75.932 18.5731 75.7489 18.927 75.7051 19.3104C75.6613 19.6937 75.7598 20.0798 75.982 20.3953C76.2041 20.7109 76.5344 20.9338 76.9101 21.0218C77.0594 21.068 77.2149 21.0913 77.3712 21.091Z" fill="#463B32"/>
<path d="M24.9814 15.9625C27.0641 14.8285 27.8116 12.6055 26.7372 10.6324C25.6628 8.65936 23.3899 8.08113 21.3072 9.21521C19.2246 10.3493 18.4648 12.5789 19.5392 14.552C20.6136 16.525 22.8987 17.0966 24.9814 15.9625ZM24.1325 14.4036C23.1825 14.9209 22.0804 14.6368 21.4636 13.5041C20.8468 12.3714 21.2061 11.2915 22.1561 10.7742C23.1061 10.2569 24.1961 10.5476 24.8129 11.6803C25.4297 12.813 25.0825 13.8863 24.1325 14.4036Z" fill="#463B32"/>
<path d="M28.12 5.13336C28.8764 4.85977 29.2057 4.18025 28.9604 3.50211C28.734 2.87614 28.0556 2.59062 27.2992 2.86421C26.5429 3.13779 26.2135 3.81732 26.4446 4.45633C26.6758 5.09534 27.3636 5.40694 28.12 5.13336ZM29.9943 13.4955L32.0287 12.7596L29.491 5.74351L27.4566 6.47936L29.9943 13.4955Z" fill="#463B32"/>
<path d="M34.0637 12.1136L36.1585 11.5734L33.5891 1.60939L31.4942 2.1496L34.0637 12.1136Z" fill="#463B32"/>
<path d="M45.0345 2.81807C45.0067 2.0836 45.34 1.72402 45.9774 1.69986C46.31 1.68726 46.6186 1.77272 46.8605 1.93008L47.3693 0.342602C46.9569 0.0806697 46.3147 -0.0198974 45.705 0.00320726C43.848 0.0735714 42.864 1.20721 42.9275 2.88403L42.9401 3.21662L41.7899 3.2602L41.8529 4.92316L43.0032 4.87958L43.2164 10.5059L45.3782 10.424L45.165 4.79766L47.022 4.7273L46.959 3.06434L45.0466 3.1368L45.0345 2.81807Z" fill="#463B32"/>
<path d="M51.0665 4.09819L51.1548 3.11753L49.0968 2.93231L48.428 10.3632L50.5827 10.5571L50.8984 7.04887C51.0264 5.62622 51.8722 5.04791 53.06 5.15481C53.2257 5.16973 53.3626 5.19597 53.5409 5.22595L53.7199 3.237C52.5735 3.13383 51.656 3.4272 51.0665 4.09819Z" fill="#463B32"/>
<path d="M62.3737 9.20918C62.9725 6.88595 61.701 5.04021 59.5792 4.49335C57.3768 3.92573 55.3236 5.05779 54.7663 7.21987C54.2125 9.36853 55.4325 11.3585 57.9303 12.0023C59.2329 12.338 60.344 12.1947 61.2127 11.6023L60.4096 10.1064C59.7916 10.4484 59.1821 10.5348 58.4167 10.3375C57.3155 10.0537 56.6919 9.30581 56.7224 8.35415L62.188 9.76281C62.2465 9.5917 62.3322 9.37033 62.3737 9.20918ZM59.1842 6.08145C60.1242 6.32372 60.6568 7.09112 60.5692 8.04237L57.0105 7.12518C57.397 6.23664 58.2307 5.83571 59.1842 6.08145Z" fill="#463B32"/>
<path d="M71.0582 13.2689C72.1058 11.1106 71.2256 9.04937 69.2543 8.09263C67.2083 7.09956 64.9713 7.80197 63.9964 9.81061C63.0275 11.8068 63.8286 13.9992 66.1492 15.1255C67.3594 15.7128 68.4767 15.7927 69.4457 15.3843L68.9552 13.7589C68.2816 13.9715 67.6671 13.9353 66.956 13.5902C65.933 13.0936 65.4701 12.237 65.6887 11.3102L70.7664 13.7748C70.8576 13.6186 70.9855 13.4187 71.0582 13.2689ZM68.5523 9.57086C69.4256 9.99473 69.7954 10.8525 69.5209 11.7675L66.2148 10.1628C66.7698 9.36858 67.6665 9.14093 68.5523 9.57086Z" fill="#463B32"/>
<path d="M60.6995 47.3167C59.6501 45.0213 56.5727 40.4001 53.3136 35.4995L53.2998 35.4783C49.6635 30.0151 45.9046 24.3657 44.4982 21.3224L43.0642 18.2238L40.293 23.8493L40.1851 24.0743C38.3711 27.5787 34.6786 32.72 31.4122 37.2692L31.4002 37.2858C28.3375 41.5602 25.6853 45.2491 24.7409 47.3167C23.7197 49.5497 23.1924 51.9769 23.1953 54.4324C23.2073 56.893 23.7089 59.3267 24.6708 61.5915C26.5651 66.1251 30.0574 69.9079 34.5043 72.2421C36.7296 73.4096 39.6124 74.1068 42.2158 74.1068C42.3735 74.1068 42.5423 74.1068 42.7295 74.0966C42.8346 74.0966 42.9406 74.1021 43.0522 74.1021C45.213 74.1021 48.6177 73.4631 50.9445 72.2421C55.3913 69.9079 58.8846 66.1251 60.7789 61.5915C62.7607 56.8375 62.7358 51.7681 60.6995 47.3167ZM44.2917 70.7702L42.7184 70.8384L41.135 70.773V70.7997C39.3385 70.6429 37.4664 70.1191 36.0149 69.3583C27.9797 65.1401 24.3296 56.0546 27.704 48.6723C28.5174 46.8897 31.2084 43.1391 34.0589 39.1736C37.3862 34.5386 41.1479 29.3004 43.0762 25.5802C44.9686 28.8449 47.8265 33.1423 50.6032 37.3116C53.7867 42.0951 56.794 46.613 57.7347 48.6732C61.109 56.0509 57.458 65.1411 49.4247 69.3574C47.9694 70.121 45.8751 70.5987 44.2917 70.7702Z" fill="#82AEB4"/>
<path d="M31.0875 58.9936C30.3028 57.0699 29.968 55.3491 29.968 53.2363C29.972 53.1046 29.9496 52.9734 29.902 52.8506C29.8543 52.7277 29.7825 52.6157 29.6908 52.5211C29.5991 52.4265 29.4893 52.3513 29.368 52.3C29.2466 52.2486 29.1162 52.2222 28.9845 52.2222C28.8527 52.2222 28.7223 52.2486 28.601 52.3C28.4796 52.3513 28.3698 52.4265 28.2781 52.5211C28.1864 52.6157 28.1146 52.7277 28.067 52.8506C28.0194 52.9734 27.9969 53.1046 28.0009 53.2363C28.0009 55.6193 28.379 57.5633 29.2653 59.7369C29.3393 59.918 29.4656 60.073 29.628 60.182C29.7904 60.2911 29.9817 60.3493 30.1773 60.3493C30.3038 60.3485 30.429 60.3238 30.5462 60.2764C30.666 60.2278 30.7751 60.156 30.8672 60.0652C30.9592 59.9744 31.0325 59.8663 31.0828 59.7472C31.133 59.6281 31.1593 59.5002 31.1602 59.3709C31.161 59.2416 31.1363 59.1134 31.0875 58.9936Z" fill="#82AEB4"/>
<path d="M31.4131 62.735C31.5012 62.7343 31.5888 62.7229 31.6741 62.7009C31.7235 62.6894 31.7719 62.674 31.8189 62.6548C31.8655 62.6365 31.9108 62.6149 31.9544 62.5902C32.0691 62.5163 32.1676 62.42 32.244 62.307C32.3204 62.194 32.3731 62.0667 32.3989 61.9328C32.4248 61.7988 32.4233 61.6611 32.3944 61.5277C32.3656 61.3944 32.31 61.2683 32.2311 61.1571C31.746 60.5033 31.106 60.6729 30.8349 60.8537C30.805 60.8742 30.7764 60.8963 30.7491 60.9201C30.5643 61.0742 30.4423 61.2905 30.4062 61.5284C30.37 61.7663 30.4221 62.0091 30.5527 62.2112C30.8275 62.6252 31.1457 62.735 31.4131 62.735Z" fill="#82AEB4"/>
<path d="M38.2604 65.7091C36.655 65.1267 35.1858 64.2215 33.9436 63.0495C33.7525 62.8762 33.501 62.7848 33.2433 62.7951C32.9855 62.8055 32.7421 62.9166 32.5654 63.1046C32.3888 63.2926 32.2931 63.5424 32.2988 63.8003C32.3046 64.0583 32.4114 64.3036 32.5963 64.4835C34.0329 65.838 35.7313 66.8843 37.5872 67.5581C37.6947 67.5977 37.8084 67.618 37.9229 67.6181C38.1545 67.6185 38.3788 67.5373 38.5564 67.3886C38.734 67.24 38.8534 67.0334 38.8937 66.8054C38.9341 66.5774 38.8927 66.3424 38.7768 66.1419C38.661 65.9413 38.4781 65.7881 38.2604 65.7091Z" fill="#82AEB4"/>
</svg>
