<svg width="46" height="43" viewBox="0 0 46 43" fill="none" xmlns="http://www.w3.org/2000/svg">
<path d="M35.5728 30.2196C35.0008 30.2196 34.5371 29.8438 34.5371 29.3802C34.5371 28.9167 35.0008 28.5409 35.5728 28.5409C37.488 28.5409 39.0461 27.2781 39.0461 25.7261C39.0461 25.2625 39.5098 24.8867 40.0819 24.8867C40.6539 24.8867 41.1176 25.2625 41.1176 25.7261C41.1176 28.2039 38.6302 30.2196 35.5728 30.2196Z" fill="#82AEB4"/>
<path d="M35.574 33.9998C34.1967 33.9998 32.86 33.7811 31.6012 33.3495C31.0744 33.1689 30.8279 32.6764 31.0508 32.2495C31.2736 31.8226 31.8812 31.6228 32.4081 31.8035C33.4103 32.1469 34.4755 32.3211 35.574 32.3211C40.0591 32.3211 43.708 29.364 43.708 25.7292C43.708 22.4226 38.4647 14.4792 35.5764 10.4801C34.7004 11.6962 33.2895 13.7076 31.8928 15.9221C31.6324 16.3348 31.0085 16.4983 30.4991 16.2875C29.9898 16.0765 29.788 15.5708 30.0482 15.1581C32.3383 11.5274 34.6669 8.43252 34.6902 8.40172C34.8783 8.15218 35.2131 8 35.574 8C35.9348 8 36.2695 8.15218 36.4577 8.40172C36.8384 8.90642 45.7795 20.8202 45.7795 25.7292C45.7795 30.2897 41.2013 33.9998 35.574 33.9998Z" fill="#82AEB4"/>
<path d="M22.8912 30.2196C22.3192 30.2196 21.8555 29.8438 21.8555 29.3802C21.8555 28.9167 22.3192 28.5409 22.8912 28.5409C24.8064 28.5409 26.3645 27.2781 26.3645 25.7261C26.3645 25.2625 26.8282 24.8867 27.4003 24.8867C27.9723 24.8867 28.436 25.2625 28.436 25.7261C28.436 28.2039 25.9487 30.2196 22.8912 30.2196Z" fill="#82AEB4"/>
<path d="M22.8874 34C21.4456 34 20.0514 33.761 18.7436 33.2896C18.221 33.1011 17.9858 32.6051 18.2182 32.1815C18.4506 31.7579 19.0629 31.5673 19.5855 31.7557C20.6266 32.131 21.7375 32.3213 22.8874 32.3213C27.3725 32.3213 31.0215 29.3642 31.0215 25.7294C31.0215 22.4228 25.7781 14.4794 22.8899 10.4803C22.0139 11.6964 20.603 13.7077 19.2063 15.9222C18.9459 16.335 18.322 16.4986 17.8126 16.2876C17.3033 16.0766 17.1014 15.5709 17.3618 15.1581C19.6518 11.5275 21.9804 8.43261 22.0036 8.40172C22.1917 8.15218 22.5265 8 22.8874 8C23.2482 8 23.583 8.15218 23.7712 8.40172C24.1518 8.90651 33.0929 20.8203 33.0929 25.7293C33.0929 30.2899 28.5148 34 22.8874 34Z" fill="#82AEB4"/>
<path d="M10.2055 33.9999C4.57822 33.9999 0 30.2898 0 25.7293C0 20.8203 8.94112 8.90651 9.32175 8.40172C9.50984 8.15218 9.84469 8 10.2055 8C10.5664 8 10.9011 8.15218 11.0893 8.40172C11.47 8.90651 20.4112 20.8203 20.4112 25.7293C20.4112 30.2898 15.833 33.9999 10.2055 33.9999ZM10.2056 10.4767C7.31793 14.4745 2.07145 22.4217 2.07145 25.7293C2.07145 29.3641 5.72042 32.3212 10.2055 32.3212C14.6908 32.3212 18.3397 29.3641 18.3397 25.7293C18.3397 22.4204 13.0935 14.4741 10.2056 10.4767Z" fill="#82AEB4"/>
<path d="M10.2047 30.2196C9.63264 30.2196 9.16895 29.8438 9.16895 29.3802C9.16895 28.9167 9.63264 28.5409 10.2047 28.5409C12.1199 28.5409 13.6781 27.2781 13.6781 25.7261C13.6781 25.2625 14.1418 24.8867 14.7138 24.8867C15.2858 24.8867 15.7495 25.2625 15.7495 25.7261C15.7495 28.2039 13.2621 30.2196 10.2047 30.2196Z" fill="#82AEB4"/>
<path d="M43.8513 24.1875C43.8513 37.5458 31.8309 43 21.2174 43C10.604 43 2.00002 32.1709 2.00002 18.8125C2.00002 5.45414 14.0204 -1.84536e-05 24.6339 -1.84536e-05C35.2474 -1.84536e-05 43.8513 10.8291 43.8513 24.1875Z" fill="#82AEB4" fill-opacity="0.1"/>
</svg>
