<svg width="62" height="63" viewBox="0 0 62 63" fill="none" xmlns="http://www.w3.org/2000/svg">
<g filter="url(#filter0_d_960_146)">
<path d="M47.001 29.5713C47.001 40.9325 35.7996 45.5713 25.9092 45.5713C16.0188 45.5713 8.001 36.3612 8.001 24.9999C8.001 13.6387 19.2024 8.99998 29.0928 8.99998C38.9832 8.99998 47.001 18.2101 47.001 29.5713Z" fill="#82AEB4" fill-opacity="0.1"/>
<path d="M30.2241 33.0568L33.1292 23.4013L26.3991 16.719L26.5941 11.3245L25.2185 11.3845L25.0104 17.1473L17.4623 19.4767L13.9951 16.0342L12.9847 17.0518L16.5059 20.5481L14.281 27.9406L8.10026 28.2105L8.04978 29.5875L13.8631 29.3348L13.8591 29.3486L20.2691 35.7132L20.0416 42.0269L21.4185 41.9675L21.6447 35.7058L30.2241 33.0568ZM25.8666 18.4946L31.3592 23.9483L28.9882 31.8297L21.2915 34.2029L21.0789 34.2122L15.6303 28.8022L17.9992 20.9187L25.8666 18.4946Z" fill="#82AEB4"/>
<path d="M50.7875 39.3202L47.538 36.0938L50.022 27.8339L55.2199 27.4405L55.2002 26.2069L49.7216 26.6281L43.746 20.6949L44.4938 15.7659L43.2724 15.6527L42.4941 20.7652L33.8665 23.4268L30.9645 33.0847L37.6952 39.7676L46.6336 37.0089L49.8819 40.2341L50.7884 39.3211L50.7875 39.3202ZM38.2265 37.9895L32.7345 32.5365L35.1033 24.6542L42.9685 22.2293L48.4609 27.6827L46.0908 35.5637L38.2265 37.9895Z" fill="#82AEB4"/>
<path d="M28.5583 24.892L29.4651 23.9787L25.6656 20.2062L19.7339 22.2084L20.0452 23.3823L25.2613 21.6185L28.5583 24.892Z" fill="#82AEB4"/>
<path d="M35.9035 31.9874L34.9977 32.8997L38.8112 36.6861L44.5423 34.4459L44.1721 33.2952L39.1858 35.2464L35.9035 31.9874Z" fill="#82AEB4"/>
</g>
<defs>
<filter id="filter0_d_960_146" x="0" y="1.55469" width="61.0244" height="61.0391" filterUnits="userSpaceOnUse" color-interpolation-filters="sRGB">
<feFlood flood-opacity="0" result="BackgroundImageFix"/>
<feColorMatrix in="SourceAlpha" type="matrix" values="0 0 0 0 0 0 0 0 0 0 0 0 0 0 0 0 0 0 127 0" result="hardAlpha"/>
<feOffset dy="4"/>
<feGaussianBlur stdDeviation="2"/>
<feComposite in2="hardAlpha" operator="out"/>
<feColorMatrix type="matrix" values="0 0 0 0 0 0 0 0 0 0 0 0 0 0 0 0 0 0 0.25 0"/>
<feBlend mode="normal" in2="BackgroundImageFix" result="effect1_dropShadow_960_146"/>
<feBlend mode="normal" in="SourceGraphic" in2="effect1_dropShadow_960_146" result="shape"/>
</filter>
</defs>
</svg>
