<svg width="562" height="837" viewBox="0 0 562 837" fill="none" xmlns="http://www.w3.org/2000/svg">
<path fill-rule="evenodd" clip-rule="evenodd" d="M25.5142 418.511C39.598 418.511 51.0283 406.792 51.0283 392.353V183.091H474.334L391.285 269.255C381.258 279.587 381.258 296.302 391.285 306.634C401.312 316.94 417.565 316.94 427.592 306.634L553.632 175.872C563.659 165.539 563.659 148.824 553.632 138.492L427.592 7.72961C417.565 -2.57654 401.312 -2.57654 391.285 7.72961C381.258 18.0358 381.258 34.7767 391.285 45.0829L473.875 130.776H25.5142C11.4303 130.776 0 142.494 0 156.933V392.353C0 406.792 11.4303 418.511 25.5142 418.511Z" fill="#82AEB4" fill-opacity="0.14"/>
<path fill-rule="evenodd" clip-rule="evenodd" d="M535.747 418.285C521.663 418.285 510.233 430.004 510.233 444.443V654.516H86.0079L169.797 567.411C179.824 557.078 179.824 540.311 169.797 529.979C159.769 519.647 143.517 519.647 133.49 529.979L8.11298 660.349C-2.57748 670.708 -2.65402 688.547 8.11298 698.906L133.515 829.25C143.542 839.582 159.795 839.582 169.822 829.25C179.849 818.918 179.849 802.15 169.822 791.818L88.1 706.858H535.747C549.831 706.858 561.261 695.139 561.261 680.7V444.469C561.261 430.004 549.831 418.285 535.747 418.285Z" fill="#82AEB4" fill-opacity="0.14"/>
</svg>
