<svg width="50" height="50" viewBox="0 0 50 50" fill="none" xmlns="http://www.w3.org/2000/svg">
<path d="M48.0469 21.875L31.25 7.9375C30.2969 7.14687 29.5656 6.25 28.125 6.25C26.1719 6.25 25 7.8625 25 9.375V18.75H3.125C1.40625 18.75 0 20.1562 0 21.875V28.125C0 29.8438 1.40625 31.25 3.125 31.25H25V40.625C25 42.1375 26.1719 43.75 28.125 43.75C29.5656 43.75 30.2969 42.8531 31.25 42.0625L48.0469 28.125C49.2438 27.15 50 26.3906 50 25C50 23.6094 49.2438 22.8531 48.0469 21.875Z" fill="#82AEB4" fill-opacity="0.7"/>
</svg>
