<svg width="156" height="114" viewBox="0 0 156 114" fill="none" xmlns="http://www.w3.org/2000/svg">
<path d="M76.7901 86.0062C65.3324 86.0062 54.5576 81.539 46.457 73.4373C42.4608 69.4633 39.2925 64.7361 37.1356 59.5294C34.9787 54.3227 33.876 48.7399 33.8913 43.1041C33.8902 19.4496 53.1367 0.203125 76.7901 0.203125C88.2479 0.203125 99.0216 4.66597 107.123 12.772C115.225 20.8781 119.692 31.6463 119.692 43.1052C119.691 66.7597 100.445 86.0062 76.7901 86.0062ZM76.7901 2.92558C54.6319 2.92558 36.6105 20.9501 36.6105 43.1041C36.596 48.3824 37.6285 53.6112 39.6484 58.4878C41.6683 63.3644 44.6355 67.7919 48.3781 71.514C55.9667 79.107 66.0574 83.2826 76.7901 83.2826C98.9484 83.2826 116.968 65.2591 116.968 43.1041C116.968 37.8277 115.93 32.6028 113.911 27.7279C111.892 22.8529 108.933 18.4234 105.202 14.6924C101.471 10.9614 97.0412 8.00183 92.1663 5.98286C87.2914 3.96388 82.0666 2.92501 76.7901 2.92558V2.92558Z" fill="#83AEB5"/>
<path d="M76.7901 86.2118C65.2807 86.2118 54.45 81.7296 46.3095 73.5859C38.169 65.4422 33.6836 54.6201 33.6836 43.1054C33.6836 19.339 53.0205 0 76.7901 0C88.3048 0 99.1269 4.48221 107.27 12.6259C115.412 20.7696 119.895 31.5895 119.895 43.1054C119.895 66.8728 100.556 86.2118 76.7901 86.2118ZM76.7901 0.414123C53.2442 0.414123 34.0977 19.5627 34.0977 43.1054C34.0977 54.5072 38.5369 65.2314 46.6021 73.2912C50.5569 77.2685 55.2614 80.4218 60.4432 82.5686C65.625 84.7153 71.1812 85.8129 76.7901 85.7977C100.333 85.7977 119.481 66.6512 119.481 43.1054C119.481 31.7035 115.039 20.9794 106.979 12.9153C103.023 8.9395 98.3182 5.78756 93.1364 3.64178C87.9545 1.496 82.3986 0.398962 76.7901 0.414123V0.414123ZM76.7901 83.4936C66.079 83.4916 55.8073 79.2358 48.2334 71.662C40.6596 64.0881 36.4037 53.8164 36.4017 43.1054C36.4017 20.8395 54.5199 2.71708 76.7901 2.71708C87.5008 2.71964 97.7721 6.97568 105.346 14.5494C112.919 22.1232 117.175 32.3946 117.177 43.1054C117.177 65.3723 99.0559 83.4936 76.7901 83.4936ZM76.7901 3.1312C54.7501 3.1312 36.8148 21.0633 36.8148 43.1054C36.8147 48.355 37.8486 53.5532 39.8575 58.4032C41.8664 63.2533 44.8109 67.6601 48.523 71.3721C52.2351 75.084 56.642 78.0285 61.4921 80.0373C66.3422 82.046 71.5404 83.0798 76.7901 83.0795C98.8322 83.0795 116.764 65.1485 116.764 43.1054C116.764 32.4274 112.603 22.3906 105.056 14.8385C101.352 11.1152 96.9473 8.16338 92.0955 6.15382C87.2437 4.14427 82.0415 3.11691 76.7901 3.1312V3.1312Z" fill="#83AEB5"/>
<path d="M106.919 12.5647C106.664 12.3106 106.318 12.168 105.957 12.168C105.597 12.168 105.251 12.3106 104.995 12.5647L88.7817 28.2498C89.6229 28.67 90.4309 29.1536 91.1987 29.6965L106.919 14.488C107.173 14.2323 107.315 13.8866 107.315 13.5264C107.315 13.1661 107.173 12.8204 106.919 12.5647V12.5647Z" fill="#83AEB5"/>
<path d="M91.1987 29.9021C91.1577 29.9019 91.1176 29.8896 91.0836 29.8666C90.3228 29.3304 89.5228 28.8522 88.6903 28.4359C88.6619 28.4201 88.6375 28.398 88.6189 28.3714C88.6002 28.3447 88.5879 28.3142 88.5827 28.2821C88.5773 28.2494 88.5802 28.2158 88.5911 28.1844C88.602 28.153 88.6206 28.1249 88.6451 28.1025L104.852 12.4153C105.148 12.13 105.545 11.9725 105.956 11.9766C106.367 11.9808 106.76 12.1462 107.051 12.4373C107.342 12.7284 107.506 13.122 107.51 13.5333C107.513 13.9446 107.355 14.3407 107.069 14.6365L91.345 29.8397C91.3261 29.8594 91.3033 29.875 91.2782 29.8858C91.2531 29.8965 91.226 29.902 91.1987 29.9021V29.9021ZM89.1378 28.1972C89.8434 28.5661 90.5259 28.9778 91.1815 29.4298L106.778 14.3386C106.885 14.2318 106.97 14.105 107.028 13.9655C107.085 13.8259 107.115 13.6764 107.115 13.5254C107.115 13.3743 107.085 13.2248 107.028 13.0853C106.97 12.9457 106.885 12.819 106.778 12.7122C106.562 12.4966 106.269 12.3755 105.964 12.3755C105.659 12.3755 105.366 12.4966 105.15 12.7122L89.1378 28.1972Z" fill="#83AEB5"/>
<path d="M55.6561 62.3516C50.8415 67.1694 46.6421 71.3633 46.6206 71.3762C46.3341 71.5891 46.1427 71.9061 46.0879 72.2589C46.0331 72.6116 46.1192 72.9718 46.3277 73.2616C46.5361 73.5514 46.8502 73.7476 47.202 73.8078C47.5539 73.868 47.9153 73.7874 48.2083 73.5835C48.2836 73.5265 51.7278 70.1124 56.0272 65.8238C55.8615 64.6717 55.741 63.5122 55.6561 62.3516Z" fill="#83AEB5"/>
<path d="M47.4175 74.0493C47.0872 74.0495 46.7652 73.9454 46.4976 73.7518C46.23 73.5581 46.0304 73.2849 45.9274 72.971C45.8243 72.6572 45.823 72.3188 45.9237 72.0042C46.0245 71.6896 46.222 71.4149 46.4882 71.2193C46.7119 71.0041 50.8725 66.8457 55.5085 62.2097C55.5371 62.1818 55.5728 62.1624 55.6118 62.1537C55.6507 62.1449 55.6913 62.1472 55.729 62.1602C55.7655 62.1749 55.7972 62.1994 55.8207 62.2309C55.8442 62.2623 55.8586 62.2997 55.8624 62.3388C55.9485 63.522 56.0776 64.6901 56.2325 65.7991C56.236 65.8308 56.2324 65.8629 56.222 65.893C56.2115 65.9231 56.1945 65.9506 56.1722 65.9734C56.0948 66.0454 48.4792 73.6459 48.3308 73.7524C48.0646 73.9438 47.7454 74.0475 47.4175 74.0493V74.0493ZM55.4849 62.8185C49.7151 68.5839 46.7721 71.5312 46.742 71.5463C46.5437 71.6883 46.3957 71.8898 46.3194 72.1216C46.2432 72.3534 46.2426 72.6034 46.3178 72.8355C46.393 73.0676 46.5401 73.2697 46.7378 73.4127C46.9355 73.5557 47.1736 73.6321 47.4175 73.6309C47.6585 73.6327 47.8938 73.5573 48.0887 73.4157C48.2124 73.3082 51.2027 70.3458 55.8087 65.7507C55.6731 64.8106 55.5666 63.8242 55.4849 62.8196V62.8185Z" fill="#83AEB5"/>
<path d="M84.6747 23.843H69.9168C67.8043 23.843 66.2134 22.1617 66.2134 19.9352C66.2134 17.7086 67.8053 16.0273 69.9168 16.0273H84.6747C86.784 16.0273 88.377 17.7086 88.377 19.9395C88.377 22.1703 86.784 23.843 84.6747 23.843ZM69.9168 19.2059C69.4306 19.2059 69.3941 19.7652 69.3941 19.9352C69.3941 20.1051 69.4306 20.6591 69.9168 20.6591H84.6747C85.1544 20.6591 85.1942 20.1062 85.1942 19.9352C85.1942 19.7641 85.1544 19.2059 84.6747 19.2059H69.9168Z" fill="#83AEB5"/>
<path d="M71.3927 29.641C71.1837 29.6413 70.9766 29.6003 70.7834 29.5205C70.5902 29.4407 70.4147 29.3235 70.2668 29.1758C70.1189 29.028 70.0017 28.8525 69.9217 28.6594C69.8417 28.4662 69.8006 28.2592 69.8008 28.0501V22.7795C69.8008 22.3572 69.9685 21.9523 70.2671 21.6538C70.5656 21.3552 70.9705 21.1875 71.3927 21.1875C71.8149 21.1875 72.2199 21.3552 72.5184 21.6538C72.817 21.9523 72.9847 22.3572 72.9847 22.7795V28.0501C72.9848 28.2592 72.9437 28.4662 72.8638 28.6594C72.7838 28.8525 72.6665 29.028 72.5187 29.1758C72.3708 29.3235 72.1952 29.4407 72.002 29.5205C71.8088 29.6003 71.6018 29.6413 71.3927 29.641V29.641Z" fill="#83AEB5"/>
<path d="M83.4098 29.6387C83.2007 29.6393 82.9935 29.5985 82.8002 29.5188C82.6068 29.4391 82.4312 29.3219 82.2833 29.1741C82.1353 29.0263 82.0181 28.8507 81.9382 28.6574C81.8583 28.4641 81.8174 28.257 81.8179 28.0478V22.7771C81.8287 22.3622 82.0011 21.9679 82.2983 21.6783C82.5956 21.3887 82.9942 21.2266 83.4093 21.2266C83.8243 21.2266 84.2229 21.3887 84.5202 21.6783C84.8175 21.9679 84.9899 22.3622 85.0007 22.7771V28.0478C85.0007 28.4698 84.8331 28.8744 84.5347 29.1728C84.2364 29.4711 83.8317 29.6387 83.4098 29.6387Z" fill="#83AEB5"/>
<path d="M79.5323 73.5982C79.1171 73.5899 78.7217 73.4198 78.4302 73.124C78.1388 72.8283 77.9744 72.4304 77.9722 72.0152C77.9699 71.6 78.13 71.2004 78.4182 70.9015C78.7065 70.6026 79.1 70.4282 79.515 70.4154C79.9711 70.4154 90.6243 70.3132 91.9097 70.3455C92.6884 70.3659 93.1241 70.2089 93.2725 70.0615C93.3204 70.0052 93.3494 69.9352 93.3553 69.8615C93.3437 69.7996 93.3437 69.7361 93.3553 69.6743C93.3553 69.6743 93.6275 45.511 93.6511 43.1446C93.6511 38.3117 85.8108 32.2064 82.7872 30.2627C82.4407 30.0309 82.1992 29.6724 82.1145 29.2643C82.0299 28.8562 82.1089 28.4312 82.3345 28.0807C82.5602 27.7303 82.9144 27.4825 83.3209 27.3906C83.7275 27.2988 84.1538 27.3703 84.5082 27.5897C86.6431 29.003 88.6578 30.5899 90.5318 32.3344C94.715 36.2411 96.834 39.8886 96.834 43.1618C96.8103 45.4691 96.5543 68.163 96.5328 69.6323C96.5617 70.0938 96.4988 70.5563 96.3476 70.9932C96.1963 71.4301 95.9599 71.8326 95.6518 72.1773C94.815 73.1067 93.5296 73.5638 91.843 73.523C90.6081 73.4982 79.6613 73.5972 79.5516 73.5982H79.5323Z" fill="#83AEB5"/>
<path d="M72.2908 18.6313C71.9855 18.6318 71.6867 18.5441 71.43 18.3789C71.1734 18.2137 70.9699 17.9779 70.844 17.6998C70.4493 16.8328 69.8243 14.0641 69.6425 13.237C69.6186 13.1245 69.6063 13.0099 69.606 12.8949C69.606 10.5199 70.8795 9.50771 71.9455 9.0796C73.0641 8.62676 74.3818 8.62891 75.7963 8.62891H78.8855C80.2924 8.62891 81.6176 8.62891 82.7384 9.0796C83.8023 9.50986 85.0737 10.5199 85.0737 12.8949C85.075 13.0983 85.0366 13.3 84.9607 13.4887C84.6502 14.3458 84.407 15.2258 84.2336 16.1208C84.149 16.5344 83.9036 16.8975 83.5513 17.1302C83.1989 17.3629 82.7686 17.4461 82.355 17.3615C81.9413 17.2769 81.5782 17.0315 81.3455 16.6792C81.1128 16.3269 81.0296 15.8966 81.1142 15.4829C81.3081 14.5191 81.564 13.5688 81.8801 12.6378C81.8435 12.1484 81.6908 12.0914 81.5434 12.0312C81.0056 11.8096 79.973 11.816 78.8834 11.816H75.7941C74.7077 11.816 73.6783 11.816 73.1341 12.0312C72.9781 12.0957 72.8167 12.1559 72.7909 12.7346C73.1244 14.2405 73.5761 16.0175 73.7418 16.3854C73.9147 16.7708 73.9279 17.209 73.7785 17.6041C73.6291 17.9992 73.3294 18.319 72.9447 18.4936C72.7391 18.5858 72.5161 18.6328 72.2908 18.6313V18.6313Z" fill="#83AEB5"/>
<path d="M79.5515 73.6391H79.5375C74.4647 73.5928 64.6237 73.51 63.6405 73.5315C60.0909 73.6208 58.8743 71.1877 58.728 69.8851C58.7227 69.8323 58.7194 69.7775 58.7184 69.7237C58.7184 69.7237 58.443 45.5809 58.4204 43.2145C58.4204 39.9208 60.5405 36.283 64.7215 32.387C66.5986 30.6497 68.613 29.0669 70.7452 27.6542C71.0029 27.4922 71.3012 27.4064 71.6057 27.4068H75.08C75.2923 27.4013 75.5036 27.4383 75.7014 27.5158C75.8992 27.5932 76.0794 27.7095 76.2316 27.8577C76.3837 28.0059 76.5046 28.1831 76.5872 28.3788C76.6697 28.5745 76.7123 28.7847 76.7123 28.9971C76.7123 29.2095 76.6697 29.4198 76.5872 29.6155C76.5046 29.8112 76.3837 29.9884 76.2316 30.1366C76.0794 30.2848 75.8992 30.4011 75.7014 30.4785C75.5036 30.5559 75.2923 30.593 75.08 30.5875H72.0779C68.8284 32.7549 61.6011 38.5472 61.6011 43.2005C61.6258 45.4453 61.8765 67.5606 61.898 69.5473C61.9873 69.8894 62.3282 70.3809 63.562 70.3551C64.8431 70.3196 78.9652 70.4541 79.5655 70.4627C79.9799 70.4751 80.373 70.649 80.6611 70.9471C80.9491 71.2453 81.1093 71.6442 81.1075 72.0588C81.1057 72.4733 80.942 72.8708 80.6513 73.1664C80.3606 73.462 79.966 73.6324 79.5515 73.6412V73.6391Z" fill="#83AEB5"/>
<path d="M80.3508 30.5875H80.1357C79.9234 30.593 79.7121 30.5559 79.5143 30.4785C79.3165 30.401 79.1362 30.2848 78.9841 30.1366C78.832 29.9883 78.7111 29.8112 78.6285 29.6155C78.546 29.4198 78.5034 29.2095 78.5034 28.9971C78.5034 28.7847 78.546 28.5745 78.6285 28.3788C78.7111 28.1831 78.832 28.0059 78.9841 27.8577C79.1362 27.7095 79.3165 27.5932 79.5143 27.5158C79.7121 27.4383 79.9234 27.4013 80.1357 27.4068H80.3508C80.5632 27.4013 80.7745 27.4383 80.9722 27.5158C81.17 27.5932 81.3503 27.7095 81.5024 27.8577C81.6546 28.0059 81.7755 28.1831 81.858 28.3788C81.9406 28.5745 81.9831 28.7847 81.9831 28.9971C81.9831 29.2095 81.9406 29.4198 81.858 29.6155C81.7755 29.8112 81.6546 29.9883 81.5024 30.1366C81.3503 30.2848 81.17 30.401 80.9722 30.4785C80.7745 30.5559 80.5632 30.593 80.3508 30.5875V30.5875Z" fill="#83AEB5"/>
<path d="M87.7274 41.7359C87.5929 41.5758 87.4912 41.3907 87.4284 41.1912C87.3655 40.9918 87.3426 40.7818 87.361 40.5735C87.3793 40.3652 87.4387 40.1625 87.5355 39.9771C87.6323 39.7917 87.7648 39.6273 87.9253 39.4932V39.4932C88.2493 39.2221 88.6677 39.0908 89.0884 39.1281C89.5092 39.1654 89.898 39.3683 90.1692 39.6922V39.6922C90.4396 40.0165 90.5701 40.4349 90.5322 40.8554C90.4943 41.2759 90.291 41.6642 89.9669 41.9349V41.9349C89.681 42.1746 89.3192 42.305 88.9461 42.3028V42.3028C88.7139 42.3031 88.4844 42.2525 88.2739 42.1546C88.0633 42.0567 87.8768 41.9137 87.7274 41.7359V41.7359ZM85.1178 39.0468C84.9662 38.903 84.8444 38.7307 84.7594 38.5398C84.6744 38.3489 84.6279 38.1431 84.6225 37.9343C84.6171 37.7254 84.6529 37.5174 84.728 37.3224C84.803 37.1274 84.9157 36.949 85.0598 36.7976V36.7976C85.3505 36.4917 85.7508 36.3136 86.1727 36.3025C86.5946 36.2914 87.0036 36.4482 87.31 36.7385V36.7385C87.6158 37.0295 87.7937 37.4299 87.8048 37.8519C87.8159 38.2739 87.6592 38.6831 87.3692 38.9898V38.9898C87.2202 39.1462 87.041 39.2708 86.8424 39.3558C86.6438 39.4409 86.43 39.4847 86.2139 39.4846C85.8059 39.485 85.4133 39.3283 85.1178 39.0468V39.0468ZM82.2598 36.4491C82.1015 36.3126 81.9717 36.1462 81.8777 35.9594C81.7838 35.7727 81.7276 35.5693 81.7123 35.3608C81.697 35.1523 81.7229 34.9428 81.7886 34.7444C81.8544 34.5459 81.9585 34.3624 82.0952 34.2042V34.2042C82.2319 34.0459 82.3984 33.916 82.5852 33.8221C82.772 33.7281 82.9755 33.6719 83.1841 33.6566C83.3927 33.6413 83.6022 33.6673 83.8008 33.733C83.9993 33.7987 84.183 33.9029 84.3412 34.0396V34.0396C84.66 34.3164 84.8563 34.7081 84.8872 35.1292C84.918 35.5503 84.7809 35.9664 84.5058 36.2867C84.3552 36.4592 84.1693 36.5973 83.9607 36.6918C83.7521 36.7862 83.5257 36.8348 83.2967 36.8342C82.9152 36.8338 82.5468 36.6951 82.2598 36.4437V36.4491Z" fill="#83AEB5"/>
<path d="M75.6607 65.774L75.6532 65.6449C74.6916 65.5471 73.6525 65.3599 72.9813 65.1007C70.7601 64.2466 69.5909 63.1075 68.4249 61.5381C66.1994 58.5468 66.0585 54.3507 68.0419 50.3074C69.365 47.6182 71.4743 44.5408 74.2387 40.7546L74.2506 40.7374L77.2699 36.7188L78.5101 38.5957C79.2007 39.6337 79.9375 40.7201 80.727 41.8668C82.7815 44.8786 84.908 47.9979 86.0719 50.2837C88.1016 54.2894 87.965 58.4951 85.7008 61.5381C83.8722 63.9906 81.6843 65.2513 78.5305 65.6138V65.7106H77.2172L75.6607 65.774ZM76.8009 42.6369C74.1387 46.2877 72.1176 49.2231 70.8999 51.7046C69.4521 54.6573 69.479 57.6206 70.9795 59.6375C71.8659 60.8293 72.593 61.5446 74.1236 62.133C74.6615 62.3363 76.0243 62.5331 76.9407 62.5331H77.1559C80.0085 62.4105 81.6908 61.6016 83.1537 59.6375C84.68 57.5852 84.7101 54.6271 83.2397 51.7229C82.1705 49.6168 80.0999 46.5889 78.1046 43.661C77.7679 43.1726 77.4388 42.6929 77.1193 42.2239L76.8009 42.6369Z" fill="#3B2222"/>
<path d="M78.8513 60.5021C78.461 60.5022 78.0842 60.3589 77.7926 60.0993C77.5011 59.8397 77.3152 59.4819 77.2703 59.0942C77.2254 58.7064 77.3247 58.3157 77.5491 57.9963C77.7736 57.677 78.1077 57.4513 78.4877 57.3623C78.8524 57.2762 79.3418 57.0676 79.5978 56.5512C79.8979 55.9467 79.813 55.0647 79.3644 54.0601C79.1922 53.6749 79.1801 53.2372 79.3307 52.8431C79.4813 52.4491 79.7822 52.131 80.1674 51.9588C80.5525 51.7866 80.9903 51.7745 81.3843 51.9251C81.7784 52.0757 82.0965 52.3766 82.2687 52.7618C83.3508 55.1798 82.9646 56.9234 82.4515 57.9582C81.8266 59.2328 80.6767 60.117 79.2246 60.4601C79.102 60.4876 78.9769 60.5016 78.8513 60.5021Z" fill="#3B2222"/>
<path d="M78.8382 51.593C78.5301 51.5927 78.2288 51.5029 77.9708 51.3344C77.7128 51.166 77.5093 50.9263 77.3851 50.6443C77.3283 50.516 77.2871 50.3813 77.2624 50.2431C77.1793 49.8611 77.2399 49.4619 77.4326 49.1218C77.6254 48.7817 77.9368 48.5246 78.3072 48.3997C78.6776 48.2748 79.0811 48.2908 79.4404 48.4448C79.7998 48.5987 80.0897 48.8798 80.2548 49.2341C80.3157 49.3644 80.3615 49.5012 80.3914 49.6418C80.4744 50.0038 80.4284 50.3835 80.2612 50.7152C80.0941 51.0469 79.8164 51.3098 79.4761 51.4586C79.2748 51.5463 79.0578 51.5921 78.8382 51.593V51.593Z" fill="#3B2222"/>
<path d="M49.788 93.448C48.912 93.448 48.156 93.748 47.652 94.3V93.544H45.864V100H47.736V96.808C47.736 95.62 48.384 95.068 49.284 95.068C50.112 95.068 50.592 95.548 50.592 96.592V100H52.464V96.304C52.464 94.336 51.312 93.448 49.788 93.448ZM57.3032 100.096C59.3552 100.096 60.8432 98.716 60.8432 96.772C60.8432 94.828 59.3552 93.448 57.3032 93.448C55.2512 93.448 53.7512 94.828 53.7512 96.772C53.7512 98.716 55.2512 100.096 57.3032 100.096ZM57.3032 98.56C56.3672 98.56 55.6472 97.888 55.6472 96.772C55.6472 95.656 56.3672 94.984 57.3032 94.984C58.2392 94.984 58.9472 95.656 58.9472 96.772C58.9472 97.888 58.2392 98.56 57.3032 98.56ZM68.0969 93.448C67.0649 93.448 66.0209 93.724 65.3129 94.228L65.9849 95.536C66.4529 95.164 67.1609 94.936 67.8449 94.936C68.8529 94.936 69.3329 95.404 69.3329 96.208H67.8449C65.8769 96.208 65.0729 97 65.0729 98.14C65.0729 99.256 65.9729 100.096 67.4849 100.096C68.4329 100.096 69.1049 99.784 69.4529 99.196V100H71.2049V96.316C71.2049 94.36 70.0649 93.448 68.0969 93.448ZM67.9529 98.836C67.2929 98.836 66.8969 98.524 66.8969 98.056C66.8969 97.624 67.1729 97.3 68.0489 97.3H69.3329V97.96C69.1169 98.548 68.5769 98.836 67.9529 98.836ZM72.8992 100H74.7712V91.096H72.8992V100ZM79.6285 100.096C80.9845 100.096 82.0525 99.496 82.5205 98.464L81.0685 97.672C80.7205 98.296 80.2045 98.56 79.6165 98.56C78.6685 98.56 77.9245 97.9 77.9245 96.772C77.9245 95.644 78.6685 94.984 79.6165 94.984C80.2045 94.984 80.7205 95.26 81.0685 95.872L82.5205 95.092C82.0525 94.036 80.9845 93.448 79.6285 93.448C77.5285 93.448 76.0285 94.828 76.0285 96.772C76.0285 98.716 77.5285 100.096 79.6285 100.096ZM86.5883 100.096C88.6403 100.096 90.1283 98.716 90.1283 96.772C90.1283 94.828 88.6403 93.448 86.5883 93.448C84.5363 93.448 83.0363 94.828 83.0363 96.772C83.0363 98.716 84.5363 100.096 86.5883 100.096ZM86.5883 98.56C85.6523 98.56 84.9323 97.888 84.9323 96.772C84.9323 95.656 85.6523 94.984 86.5883 94.984C87.5243 94.984 88.2323 95.656 88.2323 96.772C88.2323 97.888 87.5243 98.56 86.5883 98.56ZM95.3036 93.448C94.4756 93.448 93.7556 93.712 93.2516 94.216V91.096H91.3796V100H93.2516V96.808C93.2516 95.62 93.8996 95.068 94.7996 95.068C95.6276 95.068 96.1076 95.548 96.1076 96.592V100H97.9796V96.304C97.9796 94.336 96.8276 93.448 95.3036 93.448ZM102.819 100.096C104.871 100.096 106.359 98.716 106.359 96.772C106.359 94.828 104.871 93.448 102.819 93.448C100.767 93.448 99.2668 94.828 99.2668 96.772C99.2668 98.716 100.767 100.096 102.819 100.096ZM102.819 98.56C101.883 98.56 101.163 97.888 101.163 96.772C101.163 95.656 101.883 94.984 102.819 94.984C103.755 94.984 104.463 95.656 104.463 96.772C104.463 97.888 103.755 98.56 102.819 98.56ZM107.61 100H109.482V91.096H107.61V100Z" fill="#3B2222"/>
</svg>
