<svg width="115" height="84" viewBox="0 0 115 84" fill="none" xmlns="http://www.w3.org/2000/svg">
<path d="M56.5825 63.3756C48.1399 63.3756 40.2006 60.084 34.2317 54.1143C31.2872 51.1861 28.9527 47.7029 27.3634 43.8664C25.7741 40.0299 24.9615 35.9163 24.9728 31.7636C24.972 14.334 39.1536 0.152344 56.5825 0.152344C65.025 0.152344 72.9635 3.44076 78.9332 9.41364C84.9029 15.3865 88.1945 23.321 88.1945 31.7644C88.1937 49.194 74.0121 63.3756 56.5825 63.3756ZM56.5825 2.15836C40.2553 2.15836 26.9764 15.4396 26.9764 31.7636C26.9657 35.6529 27.7265 39.5057 29.2149 43.099C30.7032 46.6922 32.8895 49.9546 35.6472 52.6972C41.2389 58.292 48.6741 61.3688 56.5825 61.3688C72.9096 61.3688 86.1869 48.0884 86.1869 31.7636C86.1874 27.8757 85.4221 24.0258 83.9345 20.4337C82.4469 16.8417 80.2663 13.5778 77.5172 10.8287C74.7681 8.07946 71.5043 5.89876 67.9123 4.41109C64.3202 2.92343 60.4704 2.15795 56.5825 2.15836Z" fill="#83AEB5"/>
<path d="M56.582 63.5245C48.1014 63.5245 40.1209 60.2218 34.1226 54.2212C28.1244 48.2206 24.8193 40.2464 24.8193 31.7618C24.8193 14.2498 39.0676 0 56.582 0C65.0666 0 73.0407 3.30268 79.0406 9.3033C85.0404 15.3039 88.3439 23.2765 88.3439 31.7618C88.3439 49.2747 74.0941 63.5245 56.582 63.5245ZM56.582 0.305143C39.2324 0.305143 25.1245 14.4147 25.1245 31.7618C25.1245 40.1632 28.3955 48.0652 34.3382 54.004C37.2523 56.9347 40.7188 59.2582 44.5369 60.84C48.3551 62.4218 52.4491 63.2306 56.582 63.2193C73.9292 63.2193 88.0387 49.1114 88.0387 31.7618C88.0387 23.3605 84.7654 15.4585 78.8266 9.51651C75.9117 6.587 72.4449 4.26452 68.6266 2.68342C64.8084 1.10232 60.7146 0.293972 56.582 0.305143ZM56.582 61.5216C48.6897 61.5202 41.121 58.3843 35.5403 52.8036C29.9595 47.2228 26.8237 39.6542 26.8222 31.7618C26.8222 15.3554 40.1724 2.00206 56.582 2.00206C64.4741 2.00395 72.0425 5.13998 77.623 10.7206C83.2035 16.3013 86.3393 23.8697 86.341 31.7618C86.341 48.169 72.9884 61.5216 56.582 61.5216ZM56.582 2.3072C40.342 2.3072 27.1265 15.5203 27.1265 31.7618C27.1264 35.63 27.8883 39.4603 29.3685 43.034C30.8488 46.6077 33.0184 49.8548 35.7537 52.5899C38.4889 55.3251 41.7361 57.4947 45.3098 58.9748C48.8836 60.455 52.7139 61.2167 56.582 61.2165C72.8236 61.2165 86.0367 48.0042 86.0367 31.7618C86.0367 23.8939 82.9702 16.4983 77.4094 10.9336C74.6806 8.19016 71.4347 6.01512 67.8597 4.5344C64.2847 3.05367 60.4515 2.29667 56.582 2.3072Z" fill="#83AEB5"/>
<path d="M78.7825 9.2572C78.594 9.06995 78.3392 8.96484 78.0735 8.96484C77.8078 8.96484 77.553 9.06995 77.3645 9.2572L65.418 20.8146C66.0378 21.1242 66.6332 21.4806 67.1989 21.8806L78.7825 10.6743C78.9695 10.4859 79.0744 10.2312 79.0744 9.96577C79.0744 9.70031 78.9695 9.44561 78.7825 9.2572Z" fill="#83AEB5"/>
<path d="M67.199 22.0325C67.1688 22.0324 67.1393 22.0233 67.1142 22.0063C66.5536 21.6113 65.9642 21.2589 65.3508 20.9522C65.3298 20.9405 65.3118 20.9242 65.2981 20.9046C65.2844 20.885 65.2753 20.8625 65.2715 20.8388C65.2675 20.8147 65.2696 20.7899 65.2776 20.7668C65.2857 20.7437 65.2994 20.723 65.3175 20.7065L77.2593 9.1475C77.4776 8.93731 77.7697 8.82125 78.0728 8.82428C78.3759 8.82731 78.6656 8.94919 78.8797 9.16371C79.0938 9.37822 79.2151 9.66821 79.2176 9.97127C79.22 10.2743 79.1034 10.5662 78.8928 10.7842L67.3068 21.9865C67.2929 22.001 67.2761 22.0126 67.2576 22.0205C67.2391 22.0284 67.2192 22.0324 67.199 22.0325ZM65.6805 20.7762C66.2004 21.0481 66.7033 21.3514 67.1864 21.6845L78.6788 10.5646C78.7575 10.486 78.8199 10.3925 78.8625 10.2897C78.9051 10.1869 78.927 10.0767 78.927 9.96544C78.927 9.85416 78.9051 9.74396 78.8625 9.64115C78.8199 9.53834 78.7575 9.44493 78.6788 9.36625C78.5195 9.2074 78.3037 9.1182 78.0788 9.1182C77.8538 9.1182 77.6381 9.2074 77.4788 9.36625L65.6805 20.7762Z" fill="#83AEB5"/>
<path d="M41.0094 45.9453C37.4618 49.4953 34.3675 52.5855 34.3517 52.5951C34.1405 52.7519 33.9995 52.9855 33.9592 53.2454C33.9188 53.5054 33.9822 53.7707 34.1358 53.9843C34.2894 54.1978 34.5208 54.3424 34.7801 54.3867C35.0394 54.4311 35.3057 54.3717 35.5215 54.2214C35.577 54.1794 38.1149 51.6638 41.2828 48.5038C41.1607 47.6549 41.072 46.8005 41.0094 45.9453Z" fill="#83AEB5"/>
<path d="M34.9389 54.562C34.6955 54.5622 34.4582 54.4854 34.261 54.3428C34.0639 54.2001 33.9168 53.9987 33.8408 53.7675C33.7649 53.5362 33.764 53.2869 33.8382 53.0551C33.9124 52.8233 34.058 52.6209 34.2541 52.4767C34.4189 52.3182 37.4846 49.2541 40.9007 45.8381C40.9217 45.8175 40.948 45.8033 40.9767 45.7968C41.0054 45.7904 41.0353 45.792 41.0631 45.8016C41.09 45.8125 41.1133 45.8305 41.1307 45.8537C41.148 45.8769 41.1586 45.9044 41.1614 45.9332C41.2248 46.805 41.3199 47.6658 41.4341 48.4829C41.4367 48.5063 41.434 48.5299 41.4263 48.5521C41.4187 48.5743 41.4061 48.5945 41.3897 48.6113C41.3326 48.6644 35.7212 54.2648 35.6118 54.3432C35.4156 54.4842 35.1804 54.5607 34.9389 54.562ZM40.8832 46.2867C36.6318 50.5349 34.4633 52.7066 34.4411 52.7177C34.295 52.8223 34.1859 52.9708 34.1297 53.1416C34.0736 53.3124 34.0731 53.4966 34.1286 53.6676C34.184 53.8386 34.2924 53.9876 34.438 54.0929C34.5837 54.1983 34.7591 54.2546 34.9389 54.2537C35.1164 54.255 35.2898 54.1995 35.4334 54.0951C35.5246 54.0159 37.728 51.8331 41.1218 48.4473C41.0219 47.7545 40.9435 47.0278 40.8832 46.2875V46.2867Z" fill="#83AEB5"/>
<path d="M62.3921 17.5675H51.5179C49.9613 17.5675 48.7891 16.3287 48.7891 14.688C48.7891 13.0474 49.9621 11.8086 51.5179 11.8086H62.3921C63.9464 11.8086 65.1202 13.0474 65.1202 14.6912C65.1202 16.335 63.9464 17.5675 62.3921 17.5675ZM51.5179 14.1507C51.1597 14.1507 51.1327 14.5628 51.1327 14.688C51.1327 14.8133 51.1597 15.2214 51.5179 15.2214H62.3921C62.7456 15.2214 62.7749 14.8141 62.7749 14.688C62.7749 14.562 62.7456 14.1507 62.3921 14.1507H51.5179Z" fill="#83AEB5"/>
<path d="M52.6047 21.8383C52.4506 21.8385 52.2981 21.8083 52.1557 21.7495C52.0133 21.6907 51.884 21.6043 51.775 21.4955C51.6661 21.3866 51.5797 21.2573 51.5207 21.1149C51.4618 20.9726 51.4315 20.8201 51.4316 20.666V16.7824C51.4316 16.4713 51.5552 16.1729 51.7752 15.9529C51.9952 15.733 52.2936 15.6094 52.6047 15.6094C52.9158 15.6094 53.2141 15.733 53.4341 15.9529C53.6541 16.1729 53.7777 16.4713 53.7777 16.7824V20.666C53.7778 20.8201 53.7475 20.9726 53.6886 21.1149C53.6297 21.2573 53.5433 21.3866 53.4343 21.4955C53.3254 21.6043 53.196 21.6907 53.0536 21.7495C52.9113 21.8083 52.7587 21.8385 52.6047 21.8383Z" fill="#83AEB5"/>
<path d="M61.4601 21.8391C61.306 21.8395 61.1534 21.8095 61.0109 21.7507C60.8685 21.6919 60.739 21.6056 60.63 21.4967C60.521 21.3878 60.4346 21.2584 60.3758 21.116C60.3169 20.9736 60.2868 20.8209 60.2871 20.6668V16.7832C60.2951 16.4774 60.4221 16.1869 60.6411 15.9735C60.8602 15.7601 61.1539 15.6406 61.4597 15.6406C61.7655 15.6406 62.0593 15.7601 62.2783 15.9735C62.4973 16.1869 62.6244 16.4774 62.6323 16.7832V20.6668C62.6323 20.9777 62.5088 21.2759 62.289 21.4957C62.0692 21.7156 61.771 21.8391 61.4601 21.8391Z" fill="#83AEB5"/>
<path d="M58.6027 54.2288C58.2968 54.2227 58.0054 54.0973 57.7907 53.8794C57.5759 53.6615 57.4548 53.3683 57.4531 53.0624C57.4515 52.7565 57.5694 52.462 57.7818 52.2418C57.9942 52.0216 58.2842 51.893 58.59 51.8836C58.926 51.8836 66.7757 51.8083 67.7229 51.8321C68.2967 51.8471 68.6177 51.7314 68.7271 51.6228C68.7623 51.5813 68.7837 51.5297 68.7881 51.4754C68.7795 51.4299 68.7795 51.3831 68.7881 51.3375C68.7881 51.3375 68.9886 33.533 69.006 31.7893C69.006 28.2283 63.2289 23.7296 61.001 22.2974C60.7458 22.1266 60.5678 21.8624 60.5054 21.5617C60.443 21.261 60.5012 20.9478 60.6675 20.6896C60.8337 20.4314 61.0947 20.2488 61.3943 20.1811C61.6939 20.1135 62.008 20.1661 62.2691 20.3278C63.8422 21.3692 65.3267 22.5385 66.7076 23.8239C69.7899 26.7025 71.3513 29.3902 71.3513 31.802C71.3338 33.5021 71.1452 50.2239 71.1294 51.3066C71.1507 51.6466 71.1043 51.9874 70.9929 52.3093C70.8814 52.6312 70.7072 52.9278 70.4802 53.1819C69.8636 53.8666 68.9165 54.2035 67.6737 54.1734C66.7638 54.1551 58.6978 54.2281 58.6169 54.2288H58.6027Z" fill="#83AEB5"/>
<path d="M53.2673 13.7296C53.0424 13.7299 52.8222 13.6653 52.6331 13.5436C52.444 13.4218 52.2941 13.2481 52.2013 13.0432C51.9104 12.4044 51.45 10.3643 51.316 9.75479C51.2984 9.67193 51.2893 9.58747 51.2891 9.50275C51.2891 7.75273 52.2275 7.00691 53.0129 6.69147C53.8372 6.35779 54.8081 6.35938 55.8503 6.35938H58.1266C59.1633 6.35938 60.1398 6.35938 60.9656 6.69147C61.7495 7.0085 62.6863 7.75273 62.6863 9.50275C62.6873 9.65261 62.659 9.80122 62.6031 9.94025C62.3743 10.5718 62.1951 11.2202 62.0673 11.8797C62.005 12.1845 61.8241 12.452 61.5645 12.6235C61.3049 12.795 60.9879 12.8563 60.6831 12.7939C60.3783 12.7316 60.1107 12.5508 59.9393 12.2912C59.7678 12.0316 59.7065 11.7145 59.7688 11.4097C59.9117 10.6995 60.1002 9.99927 60.3331 9.31332C60.3062 8.9527 60.1937 8.91069 60.0851 8.86631C59.6888 8.70303 58.9279 8.70779 58.125 8.70779H55.8488C55.0483 8.70779 54.2898 8.70779 53.8887 8.86631C53.7738 8.91386 53.6549 8.95824 53.6359 9.38465C53.8816 10.4943 54.2145 11.8036 54.3365 12.0747C54.4639 12.3586 54.4736 12.6815 54.3636 12.9726C54.2535 13.2638 54.0326 13.4995 53.7492 13.6281C53.5977 13.6961 53.4334 13.7307 53.2673 13.7296Z" fill="#83AEB5"/>
<path d="M58.6171 54.2577H58.6068C54.869 54.2236 47.6177 54.1626 46.8933 54.1784C44.2778 54.2442 43.3813 52.4514 43.2736 51.4916C43.2696 51.4527 43.2672 51.4123 43.2664 51.3727C43.2664 51.3727 43.0635 33.5832 43.0469 31.8396C43.0469 29.4127 44.6091 26.7322 47.6898 23.8614C49.0729 22.5813 50.5572 21.415 52.1283 20.3741C52.3182 20.2547 52.538 20.1915 52.7623 20.1918H55.3224C55.4788 20.1877 55.6345 20.215 55.7802 20.2721C55.926 20.3292 56.0588 20.4148 56.1709 20.524C56.283 20.6333 56.3721 20.7638 56.4329 20.908C56.4937 21.0522 56.5251 21.2071 56.5251 21.3636C56.5251 21.5201 56.4937 21.6751 56.4329 21.8193C56.3721 21.9635 56.283 22.094 56.1709 22.2032C56.0588 22.3124 55.926 22.3981 55.7802 22.4552C55.6345 22.5122 55.4788 22.5395 55.3224 22.5355H53.1103C50.7159 24.1325 45.3905 28.4006 45.3905 31.8293C45.4088 33.4834 45.5934 49.7788 45.6093 51.2427C45.6751 51.4947 45.9263 51.857 46.8354 51.8379C47.7794 51.8118 58.1852 51.9109 58.6274 51.9172C58.9328 51.9264 59.2225 52.0545 59.4347 52.2742C59.647 52.4939 59.765 52.7878 59.7637 53.0933C59.7623 53.3987 59.6417 53.6916 59.4275 53.9094C59.2133 54.1272 58.9225 54.2528 58.6171 54.2593V54.2577Z" fill="#83AEB5"/>
<path d="M59.206 22.5394H59.0475C58.891 22.5434 58.7353 22.5161 58.5896 22.4591C58.4438 22.402 58.311 22.3163 58.1989 22.2071C58.0868 22.0979 57.9977 21.9673 57.9369 21.8232C57.8761 21.679 57.8447 21.524 57.8447 21.3675C57.8447 21.211 57.8761 21.0561 57.9369 20.9119C57.9977 20.7677 58.0868 20.6372 58.1989 20.5279C58.311 20.4187 58.4438 20.3331 58.5896 20.276C58.7353 20.2189 58.891 20.1916 59.0475 20.1957H59.206C59.3624 20.1916 59.5181 20.2189 59.6639 20.276C59.8096 20.3331 59.9424 20.4187 60.0545 20.5279C60.1666 20.6372 60.2557 20.7677 60.3165 20.9119C60.3774 21.0561 60.4087 21.211 60.4087 21.3675C60.4087 21.524 60.3774 21.679 60.3165 21.8232C60.2557 21.9673 60.1666 22.0979 60.0545 22.2071C59.9424 22.3163 59.8096 22.402 59.6639 22.4591C59.5181 22.5161 59.3624 22.5434 59.206 22.5394Z" fill="#83AEB5"/>
<path d="M64.6414 30.7532C64.5423 30.6352 64.4674 30.4988 64.4211 30.3518C64.3747 30.2048 64.3578 30.0502 64.3714 29.8967C64.3849 29.7431 64.4286 29.5938 64.5 29.4572C64.5714 29.3206 64.669 29.1995 64.7872 29.1007C65.0259 28.9009 65.3342 28.8041 65.6443 28.8316C65.9543 28.8591 66.2408 29.0086 66.4406 29.2473C66.6398 29.4862 66.7361 29.7945 66.7081 30.1044C66.6802 30.4143 66.5304 30.7004 66.2916 30.8998C66.0809 31.0764 65.8143 31.1725 65.5394 31.1709C65.3683 31.1711 65.1992 31.1338 65.0441 31.0617C64.8889 30.9895 64.7515 30.8842 64.6414 30.7532ZM62.7186 28.7717C62.6068 28.6658 62.5171 28.5388 62.4545 28.3982C62.3918 28.2575 62.3576 28.1059 62.3536 27.952C62.3496 27.798 62.376 27.6448 62.4313 27.5011C62.4866 27.3574 62.5697 27.226 62.6758 27.1144C62.89 26.889 63.1849 26.7578 63.4958 26.7496C63.8067 26.7415 64.1081 26.857 64.3339 27.0708C64.5592 27.2853 64.6902 27.5803 64.6984 27.8913C64.7066 28.2022 64.5912 28.5037 64.3775 28.7297C64.2677 28.845 64.1356 28.9368 63.9893 28.9994C63.843 29.0621 63.6854 29.0944 63.5262 29.0943C63.2255 29.0947 62.9363 28.9791 62.7186 28.7717ZM60.6126 26.8576C60.496 26.757 60.4003 26.6344 60.3311 26.4968C60.2619 26.3592 60.2205 26.2093 60.2092 26.0557C60.1979 25.9021 60.2171 25.7478 60.2655 25.6015C60.3139 25.4553 60.3907 25.3201 60.4914 25.2035C60.592 25.0869 60.7147 24.9912 60.8524 24.9219C60.9901 24.8527 61.14 24.8113 61.2937 24.8C61.4474 24.7888 61.6018 24.8079 61.7481 24.8563C61.8944 24.9047 62.0297 24.9815 62.1463 25.0823C62.3812 25.2862 62.5259 25.5748 62.5486 25.8851C62.5713 26.1953 62.4703 26.502 62.2676 26.738C62.1566 26.8651 62.0197 26.9668 61.866 27.0364C61.7123 27.106 61.5454 27.1418 61.3767 27.1414C61.0956 27.1411 60.8241 27.0389 60.6126 26.8537V26.8576Z" fill="#83AEB5"/>
<path d="M55.7496 48.4638L55.7441 48.3687C55.0355 48.2966 54.2699 48.1587 53.7753 47.9677C52.1387 47.3384 51.2771 46.499 50.418 45.3426C48.7781 43.1385 48.6743 40.0466 50.1358 37.0673C51.1107 35.0859 52.6649 32.8183 54.7019 30.0284L54.7106 30.0158L56.9353 27.0547L57.8492 28.4377C58.358 29.2026 58.9009 30.0031 59.4827 30.848C60.9965 33.0672 62.5634 35.3657 63.421 37.0499C64.9166 40.0015 64.8159 43.1004 63.1476 45.3426C61.8002 47.1497 60.1881 48.0786 57.8642 48.3457V48.4171H56.8965L55.7496 48.4638ZM56.5898 31.4155C54.6281 34.1055 53.1389 36.2684 52.2417 38.0969C51.1749 40.2725 51.1947 42.4561 52.3003 43.9422C52.9534 44.8203 53.4892 45.3474 54.617 45.7809C55.0133 45.9307 56.0175 46.0758 56.6928 46.0758H56.8513C58.9532 45.9854 60.1928 45.3894 61.2708 43.9422C62.3954 42.4299 62.4176 40.2503 61.3342 38.1104C60.5463 36.5585 59.0206 34.3274 57.5504 32.17C57.3023 31.8102 57.0598 31.4567 56.8244 31.1111L56.5898 31.4155Z" fill="#3B2222"/>
<path d="M58.1005 44.5807C57.8128 44.5808 57.5352 44.4752 57.3204 44.2839C57.1056 44.0926 56.9686 43.829 56.9355 43.5433C56.9024 43.2576 56.9756 42.9697 57.141 42.7344C57.3064 42.499 57.5525 42.3328 57.8326 42.2671C58.1013 42.2037 58.4619 42.05 58.6505 41.6695C58.8717 41.2241 58.809 40.5742 58.4785 39.8339C58.3517 39.5502 58.3427 39.2276 58.4537 38.9373C58.5647 38.6469 58.7864 38.4125 59.0702 38.2856C59.354 38.1588 59.6765 38.1499 59.9669 38.2608C60.2573 38.3718 60.4917 38.5935 60.6185 38.8773C61.4159 40.659 61.1313 41.9438 60.7533 42.7062C60.2928 43.6454 59.4455 44.2969 58.3755 44.5498C58.2852 44.57 58.193 44.5804 58.1005 44.5807Z" fill="#3B2222"/>
<path d="M58.0912 38.0159C57.8642 38.0157 57.6421 37.9495 57.452 37.8254C57.262 37.7013 57.112 37.5246 57.0205 37.3168C56.9786 37.2223 56.9483 37.123 56.9301 37.0212C56.8688 36.7398 56.9135 36.4456 57.0555 36.195C57.1975 35.9444 57.427 35.755 57.6999 35.6629C57.9729 35.5709 58.2702 35.5827 58.5349 35.6962C58.7997 35.8096 59.0134 36.0167 59.135 36.2778C59.1799 36.3738 59.2136 36.4745 59.2357 36.5782C59.2968 36.8449 59.2629 37.1247 59.1397 37.3691C59.0166 37.6135 58.812 37.8072 58.5612 37.9168C58.4129 37.9815 58.253 38.0152 58.0912 38.0159Z" fill="#3B2222"/>
<path d="M33.99 69.54C33.26 69.54 32.63 69.79 32.21 70.25V69.62H30.72V75H32.28V72.34C32.28 71.35 32.82 70.89 33.57 70.89C34.26 70.89 34.66 71.29 34.66 72.16V75H36.22V71.92C36.22 70.28 35.26 69.54 33.99 69.54ZM40.2527 75.08C41.9627 75.08 43.2027 73.93 43.2027 72.31C43.2027 70.69 41.9627 69.54 40.2527 69.54C38.5427 69.54 37.2927 70.69 37.2927 72.31C37.2927 73.93 38.5427 75.08 40.2527 75.08ZM40.2527 73.8C39.4727 73.8 38.8727 73.24 38.8727 72.31C38.8727 71.38 39.4727 70.82 40.2527 70.82C41.0327 70.82 41.6227 71.38 41.6227 72.31C41.6227 73.24 41.0327 73.8 40.2527 73.8ZM49.2474 69.54C48.3874 69.54 47.5174 69.77 46.9274 70.19L47.4874 71.28C47.8774 70.97 48.4674 70.78 49.0374 70.78C49.8774 70.78 50.2774 71.17 50.2774 71.84H49.0374C47.3974 71.84 46.7274 72.5 46.7274 73.45C46.7274 74.38 47.4774 75.08 48.7374 75.08C49.5274 75.08 50.0874 74.82 50.3774 74.33V75H51.8374V71.93C51.8374 70.3 50.8874 69.54 49.2474 69.54ZM49.1274 74.03C48.5774 74.03 48.2474 73.77 48.2474 73.38C48.2474 73.02 48.4774 72.75 49.2074 72.75H50.2774V73.3C50.0974 73.79 49.6474 74.03 49.1274 74.03ZM53.2493 75H54.8093V67.58H53.2493V75ZM58.8571 75.08C59.9871 75.08 60.8771 74.58 61.2671 73.72L60.0571 73.06C59.7671 73.58 59.3371 73.8 58.8471 73.8C58.0571 73.8 57.4371 73.25 57.4371 72.31C57.4371 71.37 58.0571 70.82 58.8471 70.82C59.3371 70.82 59.7671 71.05 60.0571 71.56L61.2671 70.91C60.8771 70.03 59.9871 69.54 58.8571 69.54C57.1071 69.54 55.8571 70.69 55.8571 72.31C55.8571 73.93 57.1071 75.08 58.8571 75.08ZM64.657 75.08C66.367 75.08 67.607 73.93 67.607 72.31C67.607 70.69 66.367 69.54 64.657 69.54C62.947 69.54 61.697 70.69 61.697 72.31C61.697 73.93 62.947 75.08 64.657 75.08ZM64.657 73.8C63.877 73.8 63.277 73.24 63.277 72.31C63.277 71.38 63.877 70.82 64.657 70.82C65.437 70.82 66.027 71.38 66.027 72.31C66.027 73.24 65.437 73.8 64.657 73.8ZM71.9197 69.54C71.2297 69.54 70.6297 69.76 70.2097 70.18V67.58H68.6497V75H70.2097V72.34C70.2097 71.35 70.7497 70.89 71.4997 70.89C72.1897 70.89 72.5897 71.29 72.5897 72.16V75H74.1497V71.92C74.1497 70.28 73.1897 69.54 71.9197 69.54ZM78.1823 75.08C79.8923 75.08 81.1323 73.93 81.1323 72.31C81.1323 70.69 79.8923 69.54 78.1823 69.54C76.4723 69.54 75.2223 70.69 75.2223 72.31C75.2223 73.93 76.4723 75.08 78.1823 75.08ZM78.1823 73.8C77.4023 73.8 76.8023 73.24 76.8023 72.31C76.8023 71.38 77.4023 70.82 78.1823 70.82C78.9623 70.82 79.5523 71.38 79.5523 72.31C79.5523 73.24 78.9623 73.8 78.1823 73.8ZM82.1751 75H83.7351V67.58H82.1751V75Z" fill="#3B2222"/>
</svg>
