<svg width="131" height="112" viewBox="0 0 131 112" fill="none" xmlns="http://www.w3.org/2000/svg">
<path d="M95.8835 12.8485C87.5981 4.56195 76.5849 0 64.8687 0C40.6835 0 21.0075 19.676 21.0075 43.8612C20.9917 49.6233 22.119 55.3314 24.3241 60.6549C26.5292 65.9784 29.7682 70.8117 33.8538 74.875C42.1392 83.1594 53.1535 87.7224 64.8687 87.7224C89.0538 87.7224 108.729 68.0464 108.729 43.8612C108.729 32.146 104.165 21.1329 95.8835 12.8485ZM64.8687 84.5282C54.6911 84.5563 44.8784 80.7395 37.3946 73.8418C38.3585 73.0188 39.8154 71.7127 41.8675 69.7409C41.9029 69.7069 41.9255 69.6618 41.9315 69.6131C41.9375 69.5644 41.9265 69.5151 41.9005 69.4735C41.3904 68.6721 40.9441 67.8318 40.5658 66.9604C40.5516 66.9291 40.5303 66.9015 40.5035 66.8799C40.4768 66.8583 40.4453 66.8433 40.4117 66.836C40.3777 66.829 40.3424 66.8304 40.309 66.8402C40.2756 66.85 40.2451 66.8678 40.2203 66.8922C37.728 69.3129 36.083 70.7719 35.1225 71.585C28.0809 64.0724 24.1752 54.1536 24.2039 43.8568C24.2017 21.4366 42.4451 3.19095 64.8687 3.19095C75.1068 3.16274 84.9732 7.02501 92.4714 13.9962L76.037 30.4339C75.9998 30.4745 75.9793 30.5275 75.9793 30.5825C75.9793 30.6375 75.9998 30.6905 76.037 30.731C76.6599 31.4058 77.2256 32.1312 77.7282 32.8998C77.7459 32.9261 77.7692 32.9484 77.7963 32.9649C77.8235 32.9814 77.8539 32.9918 77.8855 32.9955H77.9064C77.9345 32.9954 77.9623 32.9897 77.9882 32.9788C78.0141 32.9678 78.0375 32.9518 78.0572 32.9317L94.7293 16.2606C101.701 23.7584 105.564 33.6251 105.536 43.8634C105.536 66.2848 87.2922 84.5282 64.8687 84.5282Z" fill="#83AEB5"/>
<path d="M89.243 59.274C88.997 59.2738 88.7542 59.3305 88.5337 59.4395C88.3132 59.5486 88.1209 59.7072 87.9717 59.9029C87.8226 60.0985 87.7207 60.326 87.674 60.5676C87.6273 60.8091 87.6371 61.0582 87.7025 61.2953C88.0656 62.6157 87.872 63.8965 87.1722 64.8164C86.5923 65.5756 85.7253 66.1115 84.7284 66.1115C82.2097 66.1115 79.69 66.2215 77.1691 66.2215H50.3994L49.8723 66.1115C49.6797 66.1115 49.4707 66.0554 49.2572 66.0554C48.6058 66.0554 47.7905 66.0201 47.2766 65.9739C45.6338 65.8254 45.1695 65.4975 44.5192 64.0957C43.8689 62.6939 44.1308 61.116 45.3005 59.2443C47.5836 55.588 49.7403 51.7786 51.8254 48.1002L51.8595 48.0386C52.8861 46.2286 53.9501 44.2326 55.0053 42.4105C55.6094 41.3695 56.2355 40.4156 56.8495 39.1469H75.0048C75.6551 40.4156 76.3054 41.4906 76.9557 42.5986L77.8447 44.1765C77.9844 44.4206 78.1849 44.6243 78.4267 44.768C78.6685 44.9116 78.9434 44.9903 79.2245 44.9962C79.5041 44.9999 79.7796 44.929 80.0228 44.7909C80.2659 44.6528 80.4679 44.4525 80.6079 44.2104C80.748 43.9684 80.821 43.6935 80.8196 43.4139C80.8182 43.1343 80.7424 42.8601 80.5999 42.6195L79.7109 41.1044L75.3096 33.6001C74.6802 32.524 73.8913 31.3225 73.1904 30.1693C73.2113 30.0659 73.1376 29.9592 73.1376 29.8491V19.275L76.3659 15.754C76.784 15.2852 76.9304 14.7351 76.674 14.1607C76.4176 13.5863 75.8862 13.3398 75.259 13.3398H56.7911C55.9505 13.3398 55.2617 13.8713 55.2012 14.6976C55.1865 14.7398 55.1762 14.7833 55.1704 14.8275C55.1516 15.0297 55.1738 15.2335 55.2356 15.4269C55.2975 15.6203 55.3976 15.7993 55.5302 15.9531L58.6738 19.7327C58.6969 19.7613 58.7673 19.7723 58.7673 19.7999V29.8403C58.7673 29.87 58.7519 29.8997 58.7541 29.9284C57.7 31.7384 56.6052 33.566 55.5522 35.3354C54.585 36.9616 53.3768 38.984 52.2512 40.9195C51.1718 42.7769 50.0935 44.676 49.0482 46.5191C46.9773 50.1732 44.8361 53.9485 42.5937 57.5454C40.8331 60.3645 40.503 63.0151 41.6232 65.4249C42.7752 67.9028 44.1792 68.8711 46.9917 69.1242C47.6353 69.1825 48.5321 69.1891 49.244 69.1891H49.9185H77.1724H83.4641H84.735C85.6972 69.1974 86.6481 68.9816 87.5125 68.5587C88.3769 68.1359 89.131 67.5177 89.715 66.753C91.0266 65.0331 91.415 62.7357 90.7845 60.4481C90.6912 60.1108 90.49 59.8134 90.2116 59.6014C89.9331 59.3893 89.5929 59.2744 89.243 59.274ZM61.8988 30.4862C61.9858 30.2904 62.1475 30.0736 62.1475 29.8447V19.3311C62.1475 18.8525 61.8174 18.4233 61.4873 18.1307C61.4054 17.9717 61.3001 17.8259 61.1748 17.6982L59.9557 16.2931H71.7049L70.5606 17.6036C70.3089 17.897 70.1755 18.2736 70.1865 18.6599V28.9854H68.0497C67.1694 28.9854 66.4531 29.5851 66.4531 30.4664C66.4531 31.3478 67.1694 31.9464 68.0497 31.9464H70.7586C71.3781 32.7936 72.0075 34.147 72.5632 35.0955C72.7753 35.4456 72.9681 35.8071 73.1409 36.1782H58.7475C59.685 34.4859 60.6973 32.9961 61.6304 31.3896C61.7921 31.1123 61.9208 30.8075 61.8988 30.4862Z" fill="#3B2222"/>
<path d="M82.1998 51.6608L83.1901 53.3465C83.5378 53.9407 83.8855 54.5331 84.2332 55.1236L84.3157 55.2633C84.7118 55.9374 85.1083 56.6134 85.5051 57.2912C85.6779 57.5861 85.8682 57.8953 86.0861 58.2342C86.3142 58.5911 86.6747 58.8428 87.0883 58.9339C87.5019 59.025 87.9348 58.9481 88.2917 58.72C88.6486 58.4919 88.9003 58.1314 88.9914 57.7178C89.0825 57.3042 89.0056 56.8713 88.7775 56.5144C88.6213 56.2701 88.4408 55.9851 88.2626 55.6803C87.8958 55.0458 87.525 54.4139 87.1501 53.7845L86.7661 53.1298C86.4932 52.6654 86.2203 52.2004 85.9475 51.7345L84.9572 50.0489C84.7434 49.6832 84.3932 49.4174 83.9834 49.31C83.5737 49.2026 83.1381 49.2624 82.7725 49.4761C82.4068 49.6899 82.1411 50.0402 82.0336 50.4499C81.9262 50.8596 81.986 51.2952 82.1998 51.6608Z" fill="#3B2222"/>
<path d="M79.7437 47.9452C79.7719 48.0139 79.805 48.0805 79.8428 48.1444C80.2829 48.9014 80.8628 49.0598 81.2732 49.0598C81.5592 49.0575 81.8404 48.9861 82.0929 48.8519C82.5408 48.5977 83.2406 47.8132 82.6849 46.6754C82.6564 46.6066 82.6233 46.5397 82.5859 46.4752C82.1458 45.717 81.5648 45.5586 81.1555 45.5586C80.8691 45.5607 80.5874 45.632 80.3346 45.7666C79.8857 46.0207 79.187 46.8064 79.7437 47.9452Z" fill="#3B2222"/>
<path d="M35.788 93.448C34.912 93.448 34.156 93.748 33.652 94.3V93.544H31.864V100H33.736V96.808C33.736 95.62 34.384 95.068 35.284 95.068C36.112 95.068 36.592 95.548 36.592 96.592V100H38.464V96.304C38.464 94.336 37.312 93.448 35.788 93.448ZM43.3032 100.096C45.3552 100.096 46.8432 98.716 46.8432 96.772C46.8432 94.828 45.3552 93.448 43.3032 93.448C41.2512 93.448 39.7512 94.828 39.7512 96.772C39.7512 98.716 41.2512 100.096 43.3032 100.096ZM43.3032 98.56C42.3672 98.56 41.6472 97.888 41.6472 96.772C41.6472 95.656 42.3672 94.984 43.3032 94.984C44.2392 94.984 44.9472 95.656 44.9472 96.772C44.9472 97.888 44.2392 98.56 43.3032 98.56ZM55.3089 93.448C54.4449 93.448 53.7489 93.724 53.2809 94.288V93.544H51.4929V102.328H53.3649V99.316C53.8449 99.844 54.5049 100.096 55.3089 100.096C57.1209 100.096 58.5249 98.8 58.5249 96.772C58.5249 94.744 57.1209 93.448 55.3089 93.448ZM54.9849 98.56C54.0489 98.56 53.3409 97.888 53.3409 96.772C53.3409 95.656 54.0489 94.984 54.9849 94.984C55.9209 94.984 56.6289 95.656 56.6289 96.772C56.6289 97.888 55.9209 98.56 54.9849 98.56ZM62.2766 93.448C61.2446 93.448 60.2006 93.724 59.4926 94.228L60.1646 95.536C60.6326 95.164 61.3406 94.936 62.0246 94.936C63.0326 94.936 63.5126 95.404 63.5126 96.208H62.0246C60.0566 96.208 59.2526 97 59.2526 98.14C59.2526 99.256 60.1526 100.096 61.6646 100.096C62.6126 100.096 63.2846 99.784 63.6326 99.196V100H65.3846V96.316C65.3846 94.36 64.2446 93.448 62.2766 93.448ZM62.1326 98.836C61.4726 98.836 61.0766 98.524 61.0766 98.056C61.0766 97.624 61.3526 97.3 62.2286 97.3H63.5126V97.96C63.2966 98.548 62.7566 98.836 62.1326 98.836ZM68.8668 94.396V93.544H67.0788V100H68.9508V96.952C68.9508 95.716 69.6348 95.152 70.6668 95.152C70.8108 95.152 70.9308 95.164 71.0868 95.176V93.448C70.0908 93.448 69.3228 93.772 68.8668 94.396ZM74.7688 93.448C73.7368 93.448 72.6928 93.724 71.9848 94.228L72.6568 95.536C73.1248 95.164 73.8328 94.936 74.5168 94.936C75.5248 94.936 76.0048 95.404 76.0048 96.208H74.5168C72.5488 96.208 71.7448 97 71.7448 98.14C71.7448 99.256 72.6448 100.096 74.1568 100.096C75.1048 100.096 75.7768 99.784 76.1248 99.196V100H77.8768V96.316C77.8768 94.36 76.7368 93.448 74.7688 93.448ZM74.6248 98.836C73.9648 98.836 73.5688 98.524 73.5688 98.056C73.5688 97.624 73.8448 97.3 74.7208 97.3H76.0048V97.96C75.7888 98.548 75.2488 98.836 74.6248 98.836ZM83.387 93.448C82.583 93.448 81.923 93.7 81.443 94.228V91.096H79.571V100H81.359V99.256C81.827 99.82 82.523 100.096 83.387 100.096C85.199 100.096 86.603 98.8 86.603 96.772C86.603 94.744 85.199 93.448 83.387 93.448ZM83.063 98.56C82.127 98.56 81.419 97.888 81.419 96.772C81.419 95.656 82.127 94.984 83.063 94.984C83.999 94.984 84.707 95.656 84.707 96.772C84.707 97.888 83.999 98.56 83.063 98.56ZM94.1802 96.796C94.1802 94.72 92.7162 93.448 90.8202 93.448C88.8522 93.448 87.3762 94.84 87.3762 96.772C87.3762 98.692 88.8282 100.096 91.0602 100.096C92.2242 100.096 93.1242 99.736 93.7242 99.052L92.7282 97.972C92.2842 98.392 91.7922 98.596 91.1082 98.596C90.1242 98.596 89.4402 98.104 89.2602 97.3H94.1442C94.1562 97.144 94.1802 96.94 94.1802 96.796ZM90.8322 94.864C91.6722 94.864 92.2842 95.392 92.4162 96.208H89.2362C89.3682 95.38 89.9802 94.864 90.8322 94.864ZM99.3505 93.448C98.4745 93.448 97.7185 93.748 97.2145 94.3V93.544H95.4265V100H97.2985V96.808C97.2985 95.62 97.9465 95.068 98.8465 95.068C99.6745 95.068 100.155 95.548 100.155 96.592V100H102.027V96.304C102.027 94.336 100.875 93.448 99.3505 93.448ZM105.895 100.096C107.827 100.096 108.943 99.244 108.943 98.044C108.943 95.5 105.043 96.568 105.043 95.464C105.043 95.128 105.403 94.864 106.243 94.864C106.831 94.864 107.467 94.984 108.103 95.344L108.727 94.012C108.115 93.652 107.131 93.448 106.243 93.448C104.359 93.448 103.255 94.312 103.255 95.536C103.255 98.116 107.155 97.036 107.155 98.092C107.155 98.452 106.831 98.68 105.967 98.68C105.175 98.68 104.299 98.428 103.723 98.056L103.099 99.4C103.699 99.796 104.803 100.096 105.895 100.096Z" fill="#3B2222"/>
</svg>
