<svg width="171" height="100" viewBox="0 0 171 100" fill="none" xmlns="http://www.w3.org/2000/svg">
<g opacity="0.5">
<circle cx="97.4995" cy="36.5" r="3.5" transform="rotate(90 97.4995 36.5)" fill="#CBDDDF"/>
<circle cx="85.4995" cy="36.5" r="3.5" transform="rotate(90 85.4995 36.5)" fill="#CBDDDF"/>
<circle cx="73.4995" cy="36.5" r="3.5" transform="rotate(90 73.4995 36.5)" fill="#CBDDDF"/>
<circle cx="61.4995" cy="36.5" r="3.5" transform="rotate(90 61.4995 36.5)" fill="#CBDDDF"/>
<circle cx="49.4995" cy="36.5" r="3.5" transform="rotate(90 49.4995 36.5)" fill="#CBDDDF"/>
<circle cx="97.4995" cy="70.5" r="3.5" transform="rotate(90 97.4995 70.5)" fill="#CBDDDF"/>
<circle cx="85.4995" cy="70.5" r="3.5" transform="rotate(90 85.4995 70.5)" fill="#CBDDDF"/>
<circle cx="73.4995" cy="70.5" r="3.5" transform="rotate(90 73.4995 70.5)" fill="#CBDDDF"/>
<circle cx="61.4995" cy="70.5" r="3.5" transform="rotate(90 61.4995 70.5)" fill="#CBDDDF"/>
<circle cx="49.4995" cy="70.5" r="3.5" transform="rotate(90 49.4995 70.5)" fill="#CBDDDF"/>
<circle cx="37.4995" cy="70.5" r="3.5" transform="rotate(90 37.4995 70.5)" fill="#CBDDDF"/>
<circle cx="25.4995" cy="70.5" r="3.5" transform="rotate(90 25.4995 70.5)" fill="#CBDDDF"/>
<circle cx="13.4995" cy="70.5" r="3.5" transform="rotate(90 13.4995 70.5)" fill="#CBDDDF"/>
<circle cx="97.4995" cy="53.5" r="3.5" transform="rotate(90 97.4995 53.5)" fill="#CBDDDF"/>
<circle cx="85.4995" cy="53.5" r="3.5" transform="rotate(90 85.4995 53.5)" fill="#CBDDDF"/>
<circle cx="73.4995" cy="53.5" r="3.5" transform="rotate(90 73.4995 53.5)" fill="#CBDDDF"/>
<circle cx="61.4995" cy="53.5" r="3.5" transform="rotate(90 61.4995 53.5)" fill="#CBDDDF"/>
<circle cx="49.4995" cy="53.5" r="3.5" transform="rotate(90 49.4995 53.5)" fill="#CBDDDF"/>
<circle cx="97.4995" cy="87.5" r="3.5" transform="rotate(90 97.4995 87.5)" fill="#CBDDDF"/>
<circle cx="85.4995" cy="87.5" r="3.5" transform="rotate(90 85.4995 87.5)" fill="#CBDDDF"/>
<circle cx="73.4995" cy="87.5" r="3.5" transform="rotate(90 73.4995 87.5)" fill="#CBDDDF"/>
<circle cx="61.4995" cy="87.5" r="3.5" transform="rotate(90 61.4995 87.5)" fill="#CBDDDF"/>
<circle cx="49.4995" cy="87.5" r="3.5" transform="rotate(90 49.4995 87.5)" fill="#CBDDDF"/>
<circle cx="37.4995" cy="87.5" r="3.5" transform="rotate(90 37.4995 87.5)" fill="#CBDDDF"/>
<circle cx="25.4995" cy="87.5" r="3.5" transform="rotate(90 25.4995 87.5)" fill="#CBDDDF"/>
<circle cx="13.4995" cy="87.5" r="3.5" transform="rotate(90 13.4995 87.5)" fill="#CBDDDF"/>
</g>
</svg>
