<svg width="69" height="78" viewBox="0 0 69 78" fill="none" xmlns="http://www.w3.org/2000/svg">
<g clip-path="url(#clip0_831_442)">
<path d="M9.71709 39.1602C10.0213 49.0952 14.3648 53.5715 17.9486 55.5772C20.659 57.0916 23.6405 57.631 26.3299 57.631C28.9935 57.631 31.3699 57.1024 32.9121 56.4635C32.9229 56.4635 32.9351 56.4635 32.9473 56.4635C32.9832 56.4635 33.0191 56.4601 33.0551 56.4567C33.1651 56.641 33.3224 56.7926 33.5106 56.8959C33.6988 56.9992 33.9111 57.0504 34.1257 57.0443C34.3403 57.0381 34.5494 56.9749 34.7314 56.861C34.9134 56.7471 35.0617 56.5867 35.161 56.3964C35.2071 56.412 35.2532 56.4248 35.3 56.4357C36.8388 57.0855 39.2422 57.6283 41.9405 57.6283C44.6387 57.6283 47.6154 57.0862 50.3224 55.5744C53.9089 53.5687 58.2503 49.0925 58.5539 39.1575C58.5353 38.8614 58.434 38.5764 58.2617 38.3348C58.0894 38.0932 57.8528 37.9048 57.5788 37.7908C48.087 34.8466 42.4622 37.492 39.3981 40.2302C37.5401 41.8896 36.3279 43.9244 35.3386 45.9796V42.2393C37.6458 40.7377 41.8964 36.4519 42.5049 30.9328C42.9033 27.3192 41.9032 21.899 34.9259 16.5921C34.6778 16.435 34.3902 16.3516 34.0965 16.3516C33.8029 16.3516 33.5153 16.435 33.2672 16.5921C26.2879 21.899 25.2091 27.3185 25.6069 30.9315C26.2167 36.4512 30.3941 40.7377 32.7014 42.2393V45.7784C31.7127 43.7916 30.6008 41.8368 28.8038 40.2308C25.739 37.4906 20.1393 34.8453 10.6441 37.7915C10.3609 37.8827 10.1237 38.0792 9.98136 38.3403C9.79313 38.5706 9.69875 38.8634 9.71709 39.1602ZM40.9891 42.036C44.6258 38.7835 49.7092 38.0598 56.1044 39.8778C55.7412 46.5183 53.4028 51.088 49.144 53.4691C45.0723 55.7459 40.1882 55.445 37.3483 54.6129C38.8458 52.3003 42.5923 47.3389 47.9867 45.8272C48.1395 45.7844 48.2823 45.7119 48.4071 45.6139C48.5319 45.5159 48.6361 45.3942 48.7139 45.2559C48.7917 45.1176 48.8415 44.9654 48.8604 44.8078C48.8793 44.6503 48.867 44.4906 48.8242 44.3378C48.7814 44.185 48.7089 44.0421 48.6109 43.9174C48.5129 43.7926 48.3913 43.6883 48.253 43.6106C48.1147 43.5328 47.9624 43.483 47.8049 43.4641C47.6474 43.4452 47.4876 43.4575 47.3348 43.5003C41.9648 45.0052 38.1364 49.3012 36.1158 52.1146C36.4146 49.1555 37.7739 44.9083 40.9891 42.036ZM28.0076 30.6713C27.5495 26.5135 29.6115 22.5963 34.0457 19.0213C38.4799 22.597 40.5399 26.5142 40.0811 30.676C39.663 34.4706 37.3172 37.618 35.3379 39.2815V28.3762C35.3379 27.7088 34.6867 27.1681 34.0193 27.1681C33.3519 27.1681 32.7007 27.7101 32.7007 28.3762V39.2788C30.7241 37.614 28.4257 34.4692 28.0076 30.6713ZM27.2839 42.0367C30.367 44.7931 31.7432 48.8127 32.1112 51.7487C30.0323 48.9407 26.3034 44.9415 21.1611 43.5003C20.8525 43.4138 20.5223 43.4535 20.243 43.6106C19.9637 43.7676 19.7582 44.0292 19.6717 44.3378C19.5853 44.6463 19.625 44.9766 19.782 45.2559C19.9391 45.5352 20.2007 45.7407 20.5093 45.8272C25.8433 47.3179 29.583 52.2169 31.1103 54.556C28.301 55.4308 23.2901 55.7967 19.127 53.4718C14.8696 51.0908 12.5298 46.5197 12.1673 39.8805C18.5659 38.0598 23.6479 38.7835 27.2839 42.0367Z" fill="#3B2222"/>
<path d="M10.4072 15.1958C10.4248 15.2134 10.4438 15.2303 10.4628 15.2479C10.6965 15.4549 11.0028 15.5607 11.3145 15.542C11.6261 15.5233 11.9176 15.3817 12.1249 15.1483C12.6297 14.5764 12.4915 13.9104 12.1493 13.5329C12.1337 13.5167 12.1182 13.4991 12.1019 13.4835L12.0585 13.4408C11.9444 13.3365 11.8109 13.2558 11.6655 13.2032C11.5202 13.1505 11.3659 13.127 11.2115 13.134C11.0571 13.141 10.9056 13.1783 10.7656 13.2439C10.6256 13.3094 10.4999 13.4019 10.3957 13.516C9.87732 14.0818 10.0088 14.7533 10.351 15.1368C10.3672 15.1572 10.3876 15.1754 10.4072 15.1958ZM10.3632 13.5858L11.244 14.3677L10.3632 13.5872C10.3632 13.5872 10.3632 13.5865 10.3632 13.5858Z" fill="#83AEB5"/>
<path d="M9.41905 16.361C9.29497 16.2689 9.15394 16.2021 9.00402 16.1646C8.85411 16.127 8.69826 16.1194 8.54539 16.1421C8.39251 16.1648 8.24562 16.2174 8.11312 16.297C7.98061 16.3765 7.86509 16.4814 7.77316 16.6057C3.71046 22.0802 1.47267 28.694 1.37661 35.5107C1.07846 53.5404 15.5093 68.4571 33.5416 68.7539C33.7269 68.757 33.9112 68.7586 34.0946 68.7586C42.6269 68.7586 50.6809 65.5061 56.8281 59.5548C63.1067 53.4794 66.6438 45.3211 66.7888 36.5841C66.9078 29.0451 64.4237 21.6957 59.7553 15.7749C59.5618 15.5302 59.2789 15.3723 58.969 15.3361C58.659 15.2999 58.3474 15.3883 58.1026 15.5818C57.8579 15.7753 57.7 16.0582 57.6638 16.3681C57.6276 16.6781 57.716 16.9897 57.9095 17.2345C62.2416 22.7293 64.5465 29.5498 64.4355 36.5461C64.3 44.6529 61.019 52.2238 55.1917 57.8635C49.4883 63.3839 42.0117 66.406 34.0952 66.4053C33.9252 66.4053 33.7564 66.4053 33.583 66.4012C16.8456 66.1241 3.45617 52.2834 3.72721 35.546C3.8167 29.2215 5.89276 23.0852 9.66164 18.0056C9.8475 17.7553 9.92635 17.4415 9.88086 17.1331C9.83537 16.8247 9.66926 16.547 9.41905 16.361Z" fill="#83AEB5"/>
<path d="M56.3628 14.2458C56.5031 14.1394 56.6186 14.0039 56.7016 13.8487C56.894 13.474 56.9313 12.8675 56.4048 12.3878C56.1958 12.1979 55.9255 12.0895 55.6432 12.0824C55.361 12.0753 55.0855 12.17 54.8673 12.3492C54.7182 12.4568 54.5958 12.5973 54.5095 12.7598C54.3157 13.1298 54.2703 13.7321 54.7806 14.2153C54.9933 14.4166 55.2736 14.5313 55.5665 14.537C55.8593 14.5426 56.1438 14.4388 56.3641 14.2458H56.3628Z" fill="#83AEB5"/>
<path d="M17.6238 6.38642L17.812 10.3527L14.8898 7.69265L13.4371 8.38673L17.7956 12.2668L19.2483 11.5728L18.9772 5.73977L17.6238 6.38642Z" fill="#3B2222"/>
<path d="M27.1947 6.17097C26.7762 4.49236 25.336 3.75899 23.8029 4.14122C22.2117 4.53798 21.2988 5.96108 21.6883 7.52326C22.0754 9.07573 23.5325 9.91825 25.3372 9.46828C26.2784 9.23361 26.9336 8.76108 27.2808 8.08705L26.2578 7.41458C25.9834 7.8437 25.6267 8.10784 25.0737 8.24573C24.278 8.44411 23.6258 8.18418 23.3181 7.57037L27.2672 6.58575C27.2455 6.45719 27.2238 6.2874 27.1947 6.17097ZM24.0981 5.28375C24.7773 5.11441 25.3786 5.41796 25.6499 6.05115L23.0786 6.69224C23.0184 5.99613 23.4092 5.45552 24.0981 5.28375Z" fill="#3B2222"/>
<path d="M33.9739 2.90125L33.99 3.59106C33.568 3.08079 32.9423 2.84536 32.1925 2.8629C30.7029 2.89774 29.5273 3.95552 29.564 5.5251C29.6007 7.09467 30.8245 8.09632 32.3141 8.06148C33.0139 8.04511 33.5986 7.81137 33.998 7.35191L34.0033 7.58184C34.026 8.55158 33.5579 9.06267 32.4582 9.08839C31.7683 9.10453 31.0129 8.88213 30.5444 8.52299L29.9508 9.65718C30.5921 10.1323 31.5876 10.3591 32.6074 10.3352C34.5468 10.2899 35.605 9.34487 35.5582 7.34542L35.4535 2.86664L33.9739 2.90125ZM32.5941 6.77458C31.7743 6.79375 31.1621 6.27793 31.1436 5.48815C31.1251 4.69836 31.7126 4.15448 32.5323 4.1353C33.3521 4.11612 33.9544 4.63218 33.9728 5.42197C33.9913 6.21175 33.4139 6.7554 32.5941 6.77458Z" fill="#3B2222"/>
<path d="M41.3924 3.46081C40.5482 3.29686 39.6503 3.35679 38.991 3.65661L39.333 4.83337C39.7749 4.60341 40.3903 4.52937 40.9499 4.63803C41.7745 4.79817 42.0928 5.25727 41.965 5.91498L40.7478 5.67859C39.1379 5.36595 38.3543 5.88611 38.1732 6.81869C37.9959 7.73164 38.5987 8.56178 39.8356 8.80198C40.6111 8.95258 41.2104 8.80411 41.5885 8.37838L41.4608 9.03609L42.894 9.31442L43.4793 6.30073C43.79 4.70062 43.0023 3.77345 41.3924 3.46081ZM40.4186 7.84559C39.8787 7.74073 39.6043 7.42259 39.6787 7.03975C39.7473 6.68635 40.0246 6.46515 40.7412 6.60431L41.7916 6.80829L41.6867 7.34821C41.4166 7.79491 40.9291 7.94472 40.4186 7.84559Z" fill="#3B2222"/>
<path d="M50.468 6.17239C49.7986 5.88132 49.1211 5.85939 48.5526 6.11377L48.8038 5.53602L47.4373 4.94192L45.2922 9.87576L46.7228 10.4978L47.7834 8.05836C48.1782 7.15046 48.8568 6.94392 49.5446 7.24297C50.1774 7.51809 50.3847 8.04441 50.0378 8.84226L48.9054 11.4467L50.3361 12.0688L51.5641 9.24418C52.218 7.74018 51.6327 6.67877 50.468 6.17239Z" fill="#3B2222"/>
</g>
<defs>
<clipPath id="clip0_831_442">
<rect width="68.3022" height="78" fill="white"/>
</clipPath>
</defs>
</svg>
