<svg width="94" height="80" viewBox="0 0 94 80" fill="none" xmlns="http://www.w3.org/2000/svg">
<g clip-path="url(#clip0_831_505)">
<path d="M68.4879 9.17751C62.5697 3.25854 54.7032 0 46.3344 0C29.0593 0 15.005 14.0543 15.005 31.3294C14.9938 35.4452 15.799 39.5224 17.374 43.3249C18.9491 47.1274 21.2627 50.5798 24.1809 53.4821C30.0991 59.3995 37.9664 62.6589 46.3344 62.6589C63.6095 62.6589 77.663 48.6046 77.663 31.3294C77.663 22.9615 74.4029 15.0949 68.4879 9.17751ZM46.3344 60.3773C39.0647 60.3973 32.0556 57.671 26.7101 52.7441C27.3986 52.1562 28.4392 51.2233 29.905 49.8149C29.9303 49.7906 29.9464 49.7584 29.9507 49.7236C29.955 49.6888 29.9472 49.6536 29.9286 49.6239C29.5642 49.0515 29.2454 48.4513 28.9752 47.8288C28.9651 47.8065 28.9498 47.7868 28.9307 47.7713C28.9116 47.7559 28.8892 47.7452 28.8652 47.74C28.8408 47.735 28.8156 47.736 28.7918 47.743C28.7679 47.75 28.7462 47.7627 28.7284 47.7801C26.9482 49.5092 25.7733 50.5513 25.0871 51.1322C20.0575 45.766 17.2677 38.6811 17.2882 31.3263C17.2866 15.3118 30.3176 2.27925 46.3344 2.27925C53.6473 2.2591 60.6948 5.01787 66.0507 9.99725L54.3118 21.7385C54.2853 21.7675 54.2705 21.8053 54.2705 21.8446C54.2705 21.8839 54.2853 21.9217 54.3118 21.9507C54.7567 22.4327 55.1608 22.9508 55.5198 23.4998C55.5324 23.5187 55.5491 23.5345 55.5685 23.5463C55.5879 23.5581 55.6096 23.5656 55.6322 23.5682H55.6471C55.6672 23.5681 55.687 23.5641 55.7055 23.5563C55.724 23.5484 55.7408 23.537 55.7548 23.5226L67.6634 11.6147C72.6434 16.9703 75.4025 24.0179 75.3822 31.331C75.3822 47.3463 62.3512 60.3773 46.3344 60.3773Z" fill="#83AEB5"/>
<path d="M63.7451 42.3414C63.5694 42.3412 63.396 42.3817 63.2385 42.4596C63.0809 42.5375 62.9436 42.6508 62.8371 42.7905C62.7305 42.9303 62.6578 43.0928 62.6244 43.2653C62.5911 43.4379 62.598 43.6158 62.6448 43.7852C62.9041 44.7283 62.7658 45.6431 62.2659 46.3002C61.8517 46.8425 61.2324 47.2252 60.5204 47.2252C58.7213 47.2252 56.9215 47.3038 55.1209 47.3038H35.9996L35.6231 47.2252C35.4856 47.2252 35.3363 47.1852 35.1838 47.1852C34.7185 47.1852 34.1361 47.16 33.7691 47.127C32.5957 47.0209 32.264 46.7867 31.7995 45.7854C31.335 44.7841 31.5221 43.6571 32.3575 42.3202C33.9884 39.7085 35.5288 36.9875 37.0182 34.3601L37.0426 34.3161C37.7759 33.0232 38.5359 31.5975 39.2896 30.296C39.7211 29.5525 40.1683 28.871 40.6068 27.9648H53.5749C54.0394 28.871 54.5039 29.6389 54.9684 30.4304L55.6035 31.5574C55.7033 31.7318 55.8465 31.8773 56.0192 31.9799C56.1919 32.0825 56.3882 32.1387 56.589 32.1429C56.7888 32.1455 56.9856 32.0949 57.1592 31.9963C57.3329 31.8976 57.4771 31.7545 57.5772 31.5817C57.6772 31.4088 57.7294 31.2124 57.7284 31.0127C57.7274 30.813 57.6732 30.6171 57.5715 30.4453L56.9364 29.363L53.7927 24.0029C53.3431 23.2342 52.7796 22.376 52.2789 21.5523C52.2939 21.4784 52.2412 21.4022 52.2412 21.3236V13.7706L54.5472 11.2556C54.8458 10.9208 54.9504 10.5278 54.7672 10.1176C54.5841 9.7073 54.2045 9.53125 53.7565 9.53125H40.5652C39.9647 9.53125 39.4727 9.91086 39.4295 10.5011C39.419 10.5312 39.4117 10.5623 39.4075 10.5939C39.3941 10.7383 39.4099 10.8839 39.4541 11.022C39.4983 11.1602 39.5698 11.288 39.6645 11.3979L41.9099 14.0976C41.9264 14.118 41.9767 14.1259 41.9767 14.1455V21.3173C41.9767 21.3385 41.9657 21.3597 41.9673 21.3802C41.2144 22.6731 40.4324 23.9785 39.6802 25.2423C38.9894 26.404 38.1264 27.8485 37.3224 29.231C36.5513 30.5577 35.7811 31.9142 35.0345 33.2307C33.5553 35.8408 32.0259 38.5374 30.4241 41.1067C29.1666 43.1203 28.9308 45.0136 29.7309 46.7348C30.5538 48.5048 31.5567 49.1964 33.5655 49.3772C34.0253 49.4188 34.6659 49.4235 35.1744 49.4235H35.6562H55.1233H59.6173H60.5251C61.2124 49.4295 61.8916 49.2753 62.509 48.9733C63.1264 48.6713 63.6651 48.2297 64.0823 47.6835C65.0191 46.455 65.2966 44.814 64.8462 43.18C64.7795 42.9391 64.6358 42.7266 64.4369 42.5752C64.2381 42.4237 63.9951 42.3416 63.7451 42.3414ZM44.2135 21.7787C44.2756 21.6388 44.3912 21.4839 44.3912 21.3204V13.8107C44.3912 13.4688 44.1554 13.1623 43.9196 12.9533C43.8611 12.8397 43.7858 12.7356 43.6964 12.6444L42.8256 11.6407H51.2179L50.4005 12.5768C50.2207 12.7863 50.1255 13.0553 50.1333 13.3313V20.7066H48.607C47.9782 20.7066 47.4666 21.135 47.4666 21.7645C47.4666 22.3941 47.9782 22.8216 48.607 22.8216H50.542C50.9845 23.4268 51.434 24.3935 51.8309 25.071C51.9824 25.3211 52.1202 25.5793 52.2436 25.8444H41.9626C42.6322 24.6356 43.3553 23.5714 44.0218 22.4239C44.1373 22.2259 44.2293 22.0082 44.2135 21.7787Z" fill="#3B2222"/>
<path d="M58.7145 36.9L59.4219 38.1041C59.6702 38.5285 59.9186 38.9516 60.167 39.3734L60.2259 39.4732C60.5089 39.9548 60.7921 40.4376 61.0755 40.9217C61.1989 41.1324 61.3349 41.3532 61.4905 41.5953C61.6534 41.8502 61.9109 42.03 62.2064 42.0951C62.5018 42.1602 62.811 42.1052 63.0659 41.9423C63.3209 41.7794 63.5007 41.5219 63.5657 41.2264C63.6308 40.931 63.5758 40.6218 63.4129 40.3669C63.3013 40.1924 63.1724 39.9888 63.0451 39.7711C62.7831 39.3179 62.5183 38.8665 62.2505 38.4169L61.9762 37.9493C61.7813 37.6176 61.5864 37.2854 61.3915 36.9527L60.6841 35.7486C60.5314 35.4874 60.2812 35.2976 59.9886 35.2209C59.6959 35.1442 59.3848 35.1868 59.1236 35.3395C58.8624 35.4922 58.6726 35.7424 58.5959 36.0351C58.5192 36.3277 58.5618 36.6389 58.7145 36.9Z" fill="#3B2222"/>
<path d="M56.9598 34.2477C56.9798 34.2968 57.0035 34.3443 57.0305 34.3899C57.3449 34.9307 57.7591 35.0439 58.0522 35.0439C58.2565 35.0422 58.4574 34.9912 58.6377 34.8953C58.9576 34.7138 59.4575 34.1534 59.0606 33.3407C59.0402 33.2915 59.0166 33.2437 58.9899 33.1977C58.6755 32.6561 58.2605 32.543 57.9681 32.543C57.7636 32.5445 57.5624 32.5954 57.3818 32.6915C57.0611 32.8731 56.5621 33.4342 56.9598 34.2477Z" fill="#3B2222"/>
<path d="M18.99 70.54C18.26 70.54 17.63 70.79 17.21 71.25V70.62H15.72V76H17.28V73.34C17.28 72.35 17.82 71.89 18.57 71.89C19.26 71.89 19.66 72.29 19.66 73.16V76H21.22V72.92C21.22 71.28 20.26 70.54 18.99 70.54ZM25.2527 76.08C26.9627 76.08 28.2027 74.93 28.2027 73.31C28.2027 71.69 26.9627 70.54 25.2527 70.54C23.5427 70.54 22.2927 71.69 22.2927 73.31C22.2927 74.93 23.5427 76.08 25.2527 76.08ZM25.2527 74.8C24.4727 74.8 23.8727 74.24 23.8727 73.31C23.8727 72.38 24.4727 71.82 25.2527 71.82C26.0327 71.82 26.6227 72.38 26.6227 73.31C26.6227 74.24 26.0327 74.8 25.2527 74.8ZM35.2574 70.54C34.5374 70.54 33.9574 70.77 33.5674 71.24V70.62H32.0774V77.94H33.6374V75.43C34.0374 75.87 34.5874 76.08 35.2574 76.08C36.7674 76.08 37.9374 75 37.9374 73.31C37.9374 71.62 36.7674 70.54 35.2574 70.54ZM34.9874 74.8C34.2074 74.8 33.6174 74.24 33.6174 73.31C33.6174 72.38 34.2074 71.82 34.9874 71.82C35.7674 71.82 36.3574 72.38 36.3574 73.31C36.3574 74.24 35.7674 74.8 34.9874 74.8ZM41.0638 70.54C40.2038 70.54 39.3338 70.77 38.7438 71.19L39.3038 72.28C39.6938 71.97 40.2838 71.78 40.8538 71.78C41.6938 71.78 42.0938 72.17 42.0938 72.84H40.8538C39.2138 72.84 38.5438 73.5 38.5438 74.45C38.5438 75.38 39.2938 76.08 40.5538 76.08C41.3438 76.08 41.9038 75.82 42.1938 75.33V76H43.6538V72.93C43.6538 71.3 42.7038 70.54 41.0638 70.54ZM40.9438 75.03C40.3938 75.03 40.0638 74.77 40.0638 74.38C40.0638 74.02 40.2938 73.75 41.0238 73.75H42.0938V74.3C41.9138 74.79 41.4638 75.03 40.9438 75.03ZM46.5557 71.33V70.62H45.0657V76H46.6257V73.46C46.6257 72.43 47.1957 71.96 48.0557 71.96C48.1757 71.96 48.2757 71.97 48.4057 71.98V70.54C47.5757 70.54 46.9357 70.81 46.5557 71.33ZM51.474 70.54C50.614 70.54 49.744 70.77 49.154 71.19L49.714 72.28C50.104 71.97 50.694 71.78 51.264 71.78C52.104 71.78 52.504 72.17 52.504 72.84H51.264C49.624 72.84 48.954 73.5 48.954 74.45C48.954 75.38 49.704 76.08 50.964 76.08C51.754 76.08 52.314 75.82 52.604 75.33V76H54.064V72.93C54.064 71.3 53.114 70.54 51.474 70.54ZM51.354 75.03C50.804 75.03 50.474 74.77 50.474 74.38C50.474 74.02 50.704 73.75 51.434 73.75H52.504V74.3C52.324 74.79 51.874 75.03 51.354 75.03ZM58.6559 70.54C57.9859 70.54 57.4359 70.75 57.0359 71.19V68.58H55.4759V76H56.9659V75.38C57.3559 75.85 57.9359 76.08 58.6559 76.08C60.1659 76.08 61.3359 75 61.3359 73.31C61.3359 71.62 60.1659 70.54 58.6559 70.54ZM58.3859 74.8C57.6059 74.8 57.0159 74.24 57.0159 73.31C57.0159 72.38 57.6059 71.82 58.3859 71.82C59.1659 71.82 59.7559 72.38 59.7559 73.31C59.7559 74.24 59.1659 74.8 58.3859 74.8ZM67.6502 73.33C67.6502 71.6 66.4302 70.54 64.8502 70.54C63.2102 70.54 61.9802 71.7 61.9802 73.31C61.9802 74.91 63.1902 76.08 65.0502 76.08C66.0202 76.08 66.7702 75.78 67.2702 75.21L66.4402 74.31C66.0702 74.66 65.6602 74.83 65.0902 74.83C64.2702 74.83 63.7002 74.42 63.5502 73.75H67.6202C67.6302 73.62 67.6502 73.45 67.6502 73.33ZM64.8602 71.72C65.5602 71.72 66.0702 72.16 66.1802 72.84H63.5302C63.6402 72.15 64.1502 71.72 64.8602 71.72ZM71.9588 70.54C71.2288 70.54 70.5988 70.79 70.1788 71.25V70.62H68.6888V76H70.2488V73.34C70.2488 72.35 70.7888 71.89 71.5388 71.89C72.2288 71.89 72.6288 72.29 72.6288 73.16V76H74.1888V72.92C74.1888 71.28 73.2288 70.54 71.9588 70.54ZM77.4128 76.08C79.0228 76.08 79.9528 75.37 79.9528 74.37C79.9528 72.25 76.7028 73.14 76.7028 72.22C76.7028 71.94 77.0028 71.72 77.7028 71.72C78.1928 71.72 78.7228 71.82 79.2528 72.12L79.7728 71.01C79.2628 70.71 78.4428 70.54 77.7028 70.54C76.1328 70.54 75.2128 71.26 75.2128 72.28C75.2128 74.43 78.4628 73.53 78.4628 74.41C78.4628 74.71 78.1928 74.9 77.4728 74.9C76.8128 74.9 76.0828 74.69 75.6028 74.38L75.0828 75.5C75.5828 75.83 76.5028 76.08 77.4128 76.08Z" fill="#3B2222"/>
</g>
<defs>
<clipPath id="clip0_831_505">
<rect width="93.1874" height="80" fill="white"/>
</clipPath>
</defs>
</svg>
