<svg width="119" height="100" viewBox="0 0 119 100" fill="none" xmlns="http://www.w3.org/2000/svg">
<g clip-path="url(#clip0_787_1198)">
<path d="M16.8638 66.2715C16.5453 66.2734 16.236 66.1648 15.9886 65.9642C15.7413 65.7635 15.5712 65.4833 15.5074 65.1712C15.4436 64.8592 15.49 64.5346 15.6387 64.253C15.7875 63.9713 16.0293 63.75 16.323 63.6267C16.6167 63.5035 16.944 63.4859 17.2492 63.5771C17.5544 63.6682 17.8185 63.8624 17.9965 64.1265C18.1745 64.3906 18.2554 64.7083 18.2253 65.0254C18.1953 65.3425 18.0561 65.6393 17.8317 65.8653C17.5752 66.123 17.2274 66.269 16.8638 66.2715Z" fill="#83AEB5"/>
<path d="M101.374 63.2212C101.031 63.1016 100.749 62.8505 100.59 62.5231C100.432 62.1957 100.41 61.8188 100.529 61.4753C100.649 61.1313 100.9 60.849 101.228 60.6904C101.556 60.5318 101.933 60.5099 102.277 60.6295C102.621 60.7491 102.903 61.0002 103.061 61.3275C103.22 61.6548 103.242 62.0317 103.123 62.3754C103.029 62.6448 102.854 62.8783 102.622 63.0437C102.389 63.2091 102.111 63.2981 101.826 63.2985C101.672 63.2982 101.519 63.2721 101.374 63.2212ZM13.9574 60.9889C13.8491 60.6421 13.8829 60.2664 14.0516 59.9445C14.2202 59.6227 14.5098 59.3809 14.8566 59.2725C15.2033 59.1644 15.5788 59.1983 15.9006 59.3667C16.2224 59.5351 16.4642 59.8243 16.573 60.1708C16.6809 60.5175 16.6469 60.8929 16.4785 61.2146C16.3102 61.5363 16.0211 61.7782 15.6748 61.8872C15.5417 61.93 15.4027 61.9519 15.2628 61.952C14.9712 61.951 14.6874 61.857 14.4527 61.6839C14.218 61.5107 14.0445 61.2673 13.9574 60.9889ZM102.847 58.6613C102.671 58.6205 102.505 58.5455 102.358 58.4406C102.211 58.3357 102.087 58.2028 101.991 58.0497C101.896 57.8966 101.832 57.7262 101.802 57.5483C101.773 57.3703 101.779 57.1883 101.82 57.0126C101.903 56.6582 102.123 56.3512 102.432 56.1591C102.741 55.9669 103.114 55.9052 103.468 55.9875C103.823 56.0703 104.13 56.2903 104.322 56.5993C104.514 56.9082 104.576 57.2808 104.493 57.6353C104.423 57.9368 104.253 58.2057 104.011 58.3983C103.768 58.591 103.468 58.6961 103.158 58.6966C103.053 58.6966 102.949 58.6848 102.847 58.6613ZM12.7349 56.2145C12.6995 56.0377 12.6992 55.8557 12.7342 55.6788C12.7691 55.502 12.8385 55.3337 12.9385 55.1837C13.0385 55.0337 13.1671 54.9049 13.3169 54.8046C13.4666 54.7043 13.6347 54.6345 13.8115 54.5991C13.9882 54.5636 14.1701 54.5632 14.3469 54.598C14.5237 54.6328 14.6919 54.7022 14.8418 54.8021C14.9918 54.902 15.1205 55.0305 15.2208 55.1803C15.321 55.33 15.3907 55.498 15.4259 55.6747C15.4972 56.032 15.4238 56.4029 15.2217 56.7059C15.0197 57.009 14.7055 57.2195 14.3484 57.291C14.2592 57.3086 14.1685 57.3172 14.0776 57.3168C13.761 57.316 13.4544 57.2058 13.2098 57.0049C12.9651 56.804 12.7974 56.5248 12.7349 56.2145ZM103.825 53.9717C103.465 53.9271 103.137 53.7415 102.913 53.4554C102.689 53.1694 102.588 52.8064 102.632 52.446C102.654 52.2671 102.711 52.0943 102.8 51.9375C102.889 51.7807 103.008 51.643 103.151 51.5322C103.293 51.4214 103.455 51.3398 103.629 51.2919C103.803 51.244 103.984 51.2308 104.163 51.2531C104.524 51.2977 104.852 51.4833 105.076 51.7693C105.299 52.0552 105.401 52.4183 105.357 52.7788C105.316 53.1106 105.155 53.416 104.905 53.6377C104.654 53.8594 104.332 53.9822 103.997 53.9831C103.94 53.9831 103.882 53.9792 103.825 53.9717ZM12.0217 51.336C11.9883 50.9737 12.1 50.6129 12.3325 50.3329C12.5649 50.0529 12.899 49.8766 13.2613 49.8428C13.6237 49.8094 13.9845 49.9211 14.2645 50.1536C14.5445 50.386 14.7207 50.7201 14.7546 51.0824C14.788 51.4448 14.6762 51.8056 14.4438 52.0856C14.2114 52.3656 13.8773 52.5418 13.515 52.5757C13.472 52.5757 13.4301 52.5814 13.3862 52.5814C13.0446 52.5807 12.7155 52.4528 12.4632 52.2225C12.2109 51.9922 12.0535 51.6762 12.0217 51.336ZM104.308 49.2115C104.128 49.208 103.951 49.1691 103.786 49.097C103.621 49.0248 103.471 48.9209 103.346 48.7911C103.222 48.6613 103.124 48.5081 103.058 48.3404C102.992 48.1727 102.96 47.9937 102.964 47.8136C102.967 47.6334 103.006 47.4557 103.078 47.2906C103.15 47.1254 103.254 46.9761 103.384 46.8511C103.514 46.7262 103.667 46.628 103.835 46.5623C104.002 46.4966 104.182 46.4646 104.362 46.4681C104.542 46.4716 104.72 46.5106 104.885 46.5829C105.051 46.6552 105.2 46.7593 105.325 46.8894C105.45 47.0195 105.549 47.173 105.614 47.3411C105.68 47.5091 105.712 47.6885 105.708 47.8689C105.701 48.228 105.553 48.57 105.297 48.8213C105.04 49.0727 104.695 49.2135 104.336 49.2134H104.308V49.2115ZM13.1803 47.8002C12.8167 47.796 12.4696 47.6475 12.2154 47.3876C11.9611 47.1276 11.8205 46.7774 11.8243 46.4138C11.8262 46.2336 11.8636 46.0555 11.9343 45.8898C12.0051 45.7241 12.1079 45.5739 12.2367 45.448C12.3656 45.322 12.5181 45.2227 12.6854 45.1558C12.8527 45.0888 13.0315 45.0555 13.2117 45.0578C13.392 45.0594 13.5701 45.0966 13.7359 45.1672C13.9017 45.2378 14.052 45.3405 14.1781 45.4693C14.3041 45.5981 14.4035 45.7505 14.4706 45.9179C14.5376 46.0852 14.5709 46.2641 14.5686 46.4443C14.5646 46.8055 14.4183 47.1505 14.1613 47.4044C13.9044 47.6583 13.5577 47.8005 13.1965 47.8002H13.1822H13.1803ZM102.815 43.1745C102.8 42.9949 102.82 42.814 102.875 42.6422C102.929 42.4703 103.017 42.311 103.134 42.1732C103.25 42.0354 103.392 41.9219 103.552 41.8391C103.712 41.7563 103.887 41.7059 104.067 41.6908C104.247 41.6754 104.428 41.6955 104.599 41.75C104.771 41.8046 104.931 41.8925 105.068 42.0087C105.206 42.1249 105.32 42.2671 105.403 42.4272C105.485 42.5873 105.536 42.7622 105.551 42.9419C105.581 43.305 105.466 43.6653 105.231 43.9437C104.996 44.222 104.66 44.3957 104.297 44.4265C104.259 44.4265 104.221 44.4313 104.182 44.4313C103.838 44.4314 103.507 44.3023 103.253 44.0696C103 43.8368 102.843 43.5174 102.813 43.1745H102.815ZM13.3395 43.0191C12.9781 42.9768 12.6483 42.7929 12.4222 42.5078C12.1961 42.2228 12.0922 41.8597 12.1332 41.4982C12.1749 41.1366 12.3584 40.8065 12.6434 40.5803C12.9285 40.354 13.2917 40.2503 13.6532 40.2919C13.8324 40.3124 14.0059 40.368 14.1636 40.4555C14.3213 40.5431 14.4602 40.6608 14.5724 40.8021C14.6846 40.9433 14.7679 41.1053 14.8175 41.2787C14.867 41.4521 14.882 41.6336 14.8614 41.8128C14.8222 42.1471 14.6617 42.4554 14.4104 42.6793C14.1591 42.9032 13.8344 43.0272 13.4978 43.0277C13.4443 43.0277 13.3908 43.0248 13.3376 43.0191H13.3395ZM102.184 38.5774C102.115 38.2202 102.191 37.8503 102.395 37.549C102.599 37.2477 102.914 37.0397 103.271 36.9707C103.629 36.9025 103.999 36.9791 104.3 37.1836C104.601 37.3881 104.809 37.7039 104.878 38.0615C104.911 38.2387 104.91 38.4207 104.874 38.5973C104.837 38.774 104.766 38.9417 104.665 39.0909C104.564 39.2401 104.434 39.3679 104.283 39.4669C104.133 39.566 103.964 39.6344 103.787 39.6683C103.701 39.6843 103.614 39.6923 103.526 39.6921C103.208 39.6914 102.899 39.5797 102.654 39.3763C102.409 39.1729 102.242 38.8904 102.182 38.5774H102.184ZM13.9965 38.277C13.8204 38.238 13.6538 38.1646 13.5062 38.061C13.3585 37.9574 13.2328 37.8257 13.1362 37.6734C13.0397 37.5211 12.9741 37.3512 12.9434 37.1735C12.9126 36.9958 12.9173 36.8138 12.9571 36.6379C13.0364 36.2839 13.2528 35.9758 13.5587 35.781C13.8647 35.5862 14.2354 35.5206 14.5896 35.5985C14.9448 35.6784 15.2536 35.896 15.4484 36.2036C15.6431 36.5111 15.7077 36.8834 15.6281 37.2386C15.5605 37.5426 15.3915 37.8145 15.1489 38.0096C14.9062 38.2047 14.6044 38.3115 14.2931 38.3123C14.1926 38.3121 14.0924 38.3003 13.9946 38.277H13.9965ZM101.071 34.0737C101.019 33.9013 101.001 33.7203 101.019 33.5409C101.036 33.3616 101.089 33.1875 101.174 33.0287C101.259 32.8698 101.375 32.7292 101.514 32.615C101.653 32.5008 101.814 32.4152 101.986 32.363C102.159 32.3106 102.34 32.2926 102.519 32.3101C102.698 32.3276 102.872 32.3803 103.031 32.4651C103.19 32.55 103.331 32.6653 103.445 32.8045C103.559 32.9438 103.645 33.1042 103.697 33.2766C103.75 33.4492 103.768 33.6305 103.751 33.8103C103.734 33.99 103.682 34.1646 103.597 34.324C103.512 34.4835 103.397 34.6246 103.257 34.7394C103.118 34.8542 102.957 34.9403 102.785 34.993C102.654 35.0318 102.519 35.0514 102.383 35.0511C102.088 35.0513 101.801 34.9562 101.564 34.7801C101.327 34.6041 101.154 34.3563 101.069 34.0737H101.071ZM15.1475 33.6313C14.8031 33.5141 14.5192 33.265 14.3583 32.9387C14.1974 32.6124 14.1726 32.2356 14.2893 31.891C14.4063 31.5469 14.655 31.2633 14.9809 31.1024C15.3068 30.9415 15.6833 30.9165 16.0276 31.0328C16.3717 31.1505 16.6552 31.3996 16.816 31.7258C16.9768 32.0519 17.0019 32.4285 16.8858 32.7731C16.7939 33.0452 16.6189 33.2816 16.3856 33.449C16.1523 33.6165 15.8723 33.7066 15.5851 33.7066C15.4355 33.7059 15.2869 33.6804 15.1455 33.6313H15.1475ZM99.49 29.7131C99.4196 29.5472 99.3827 29.369 99.3812 29.1888C99.3797 29.0086 99.4138 28.8299 99.4815 28.6629C99.5491 28.4959 99.649 28.3438 99.7755 28.2154C99.902 28.087 100.053 27.9848 100.218 27.9147C100.554 27.7727 100.931 27.7697 101.269 27.9061C101.606 28.0425 101.876 28.3073 102.018 28.6423C102.16 28.9775 102.163 29.3553 102.026 29.6927C101.889 30.0302 101.624 30.2995 101.289 30.4416C101.12 30.5143 100.938 30.5517 100.754 30.5513C100.484 30.5516 100.22 30.4723 99.9948 30.3232C99.7696 30.1741 99.5933 29.9619 99.4881 29.7131H99.49ZM16.7828 29.1333C16.4531 28.98 16.1976 28.7022 16.0725 28.3607C15.9473 28.0193 15.9627 27.6421 16.1153 27.312C16.2676 26.9837 16.5434 26.7287 16.8827 26.6027C17.222 26.4766 17.5973 26.4896 17.9271 26.6388C18.2578 26.7916 18.5144 27.0695 18.6404 27.4113C18.7665 27.7532 18.7517 28.1311 18.5993 28.462C18.4893 28.6996 18.3138 28.9008 18.0934 29.042C17.8729 29.1832 17.6167 29.2586 17.355 29.2592C17.1574 29.2593 16.9621 29.2164 16.7828 29.1333ZM97.4541 25.5451C97.3666 25.3874 97.311 25.2141 97.2904 25.0349C97.2699 24.8558 97.2848 24.6743 97.3344 24.5009C97.384 24.3276 97.4673 24.1657 97.5794 24.0245C97.6916 23.8833 97.8305 23.7655 97.9881 23.678C98.1459 23.5906 98.3193 23.535 98.4986 23.5146C98.6778 23.4942 98.8593 23.5093 99.0327 23.5591C99.2061 23.6089 99.368 23.6923 99.5091 23.8047C99.6502 23.917 99.7678 24.0561 99.8552 24.2139C100.031 24.5325 100.073 24.9076 99.9724 25.2572C99.872 25.6067 99.6371 25.9023 99.3193 26.0791C99.1152 26.1925 98.8853 26.2516 98.6518 26.2507C98.4074 26.2506 98.1674 26.1851 97.9568 26.0611C97.7462 25.937 97.5727 25.7588 97.4541 25.5451ZM18.8807 24.8309C18.7257 24.7387 18.5904 24.617 18.4826 24.4725C18.3747 24.3281 18.2964 24.1638 18.2521 23.989C18.2079 23.8143 18.1985 23.6325 18.2245 23.4542C18.2505 23.2758 18.3115 23.1043 18.4039 22.9495C18.5903 22.6367 18.8933 22.4107 19.2463 22.3213C19.5993 22.2319 19.9734 22.2863 20.2862 22.4727C20.4412 22.5648 20.5764 22.6866 20.6843 22.831C20.7921 22.9755 20.8704 23.1398 20.9147 23.3145C20.959 23.4893 20.9684 23.671 20.9423 23.8494C20.9163 24.0278 20.8554 24.1993 20.763 24.3541C20.6407 24.5581 20.4675 24.7268 20.2604 24.8439C20.0533 24.9609 19.8194 25.0221 19.5815 25.0216C19.3349 25.0229 19.0926 24.957 18.8807 24.8309ZM94.9958 21.6097C94.8921 21.4622 94.8185 21.2956 94.7793 21.1196C94.74 20.9436 94.7359 20.7615 94.7672 20.5839C94.7985 20.4063 94.8645 20.2366 94.9615 20.0845C95.0585 19.9325 95.1846 19.8011 95.3325 19.6978C95.6301 19.4901 95.9981 19.4088 96.3556 19.4719C96.7131 19.535 97.031 19.7373 97.2396 20.0345C97.3433 20.1821 97.417 20.3487 97.4562 20.5248C97.4955 20.7009 97.4996 20.883 97.4683 21.0607C97.437 21.2384 97.371 21.4082 97.274 21.5604C97.177 21.7125 97.0509 21.844 96.903 21.9473C96.6732 22.1091 96.3992 22.196 96.1182 22.1962C95.898 22.1957 95.6813 22.1421 95.4862 22.04C95.2912 21.938 95.1236 21.7904 94.9977 21.6097H94.9958ZM21.4219 20.7754C21.1302 20.5574 20.9371 20.2326 20.8848 19.8723C20.8326 19.512 20.9257 19.1457 21.1434 18.8539C21.2514 18.7095 21.3868 18.5877 21.5419 18.4955C21.6969 18.4034 21.8686 18.3427 22.0472 18.3169C22.2257 18.2912 22.4075 18.3008 22.5823 18.3454C22.7571 18.3899 22.9214 18.4684 23.0658 18.5765C23.211 18.6842 23.3334 18.8196 23.426 18.9749C23.5187 19.1301 23.5797 19.3021 23.6057 19.481C23.6316 19.6599 23.622 19.8422 23.5773 20.0173C23.5326 20.1925 23.4537 20.3571 23.3452 20.5017C23.2178 20.673 23.0519 20.8121 22.861 20.9076C22.67 21.0032 22.4593 21.0526 22.2458 21.0519C21.9491 21.051 21.6607 20.954 21.4238 20.7754H21.4219ZM92.1371 17.9538C91.8983 17.6791 91.7785 17.3209 91.8039 16.9579C91.8293 16.5949 91.9978 16.2568 92.2725 16.0181C92.4084 15.8996 92.5663 15.8092 92.7372 15.7518C92.9081 15.6945 93.0886 15.6715 93.2684 15.6841C93.4482 15.6967 93.6238 15.7446 93.7851 15.8251C93.9463 15.9057 94.0901 16.0173 94.2082 16.1535C94.3266 16.2893 94.417 16.4472 94.4743 16.6181C94.5316 16.7889 94.5547 16.9694 94.5422 17.1492C94.5297 17.329 94.4819 17.5045 94.4016 17.6658C94.3212 17.8271 94.2098 17.971 94.0738 18.0892C93.8242 18.3071 93.5039 18.4268 93.1726 18.4258C92.9766 18.4256 92.7829 18.3833 92.6046 18.3019C92.4263 18.2205 92.2675 18.1018 92.139 17.9538H92.1371ZM24.3732 17.0059C24.241 16.8834 24.1343 16.736 24.0592 16.5721C23.984 16.4083 23.9419 16.2313 23.9351 16.0512C23.9284 15.8711 23.9572 15.6914 24.0199 15.5224C24.0827 15.3535 24.1781 15.1985 24.3007 15.0664C24.4229 14.9341 24.57 14.8272 24.7336 14.7519C24.8971 14.6765 25.0739 14.6341 25.2539 14.6271C25.4339 14.6201 25.6134 14.6486 25.7823 14.7111C25.9513 14.7735 26.1062 14.8687 26.2383 14.9911C26.3708 15.1135 26.4779 15.2608 26.5534 15.4246C26.6288 15.5884 26.6713 15.7655 26.6783 15.9457C26.6853 16.1259 26.6567 16.3058 26.5941 16.4749C26.5316 16.6441 26.4363 16.7993 26.3137 16.9316C26.1855 17.0705 26.0299 17.1814 25.8568 17.2572C25.6836 17.333 25.4967 17.3721 25.3077 17.3721C24.9611 17.3725 24.6272 17.2417 24.3732 17.0059ZM88.9169 14.6163C88.7848 14.4935 88.6783 14.3458 88.6034 14.1817C88.5285 14.0176 88.4867 13.8404 88.4804 13.6601C88.4741 13.4799 88.5035 13.3001 88.5667 13.1312C88.63 12.9623 88.726 12.8076 88.8492 12.6758C89.0975 12.4098 89.4413 12.2533 89.8049 12.2406C90.1686 12.2279 90.5224 12.3601 90.7887 12.6081C91.0545 12.8568 91.2109 13.2006 91.2236 13.5644C91.2363 13.9281 91.1043 14.2821 90.8564 14.5486C90.7277 14.6862 90.5721 14.7959 90.3992 14.8709C90.2263 14.9459 90.0398 14.9845 89.8514 14.9844C89.5043 14.9854 89.1701 14.8537 88.9169 14.6163ZM27.6982 13.5674C27.5795 13.4319 27.4887 13.2743 27.4309 13.1036C27.3731 12.933 27.3495 12.7526 27.3615 12.5729C27.3734 12.3931 27.4207 12.2174 27.5006 12.0559C27.5804 11.8945 27.6913 11.7503 27.827 11.6317C28.1004 11.3918 28.4579 11.2703 28.8209 11.2939C29.1839 11.3175 29.5226 11.4843 29.7627 11.7575C30.0027 12.0315 30.1243 12.3894 30.1007 12.7529C30.0771 13.1163 29.9103 13.4556 29.6368 13.6961C29.3868 13.9155 29.0654 14.0361 28.7328 14.0356C28.5374 14.0355 28.3443 13.9934 28.1665 13.9123C27.9887 13.8312 27.8303 13.713 27.702 13.5655L27.6982 13.5674ZM85.3611 11.6336C85.0708 11.4139 84.8794 11.0881 84.829 10.7275C84.7786 10.367 84.8732 10.0011 85.0921 9.71025C85.312 9.42016 85.6378 9.22899 85.9983 9.17859C86.3588 9.12819 86.7245 9.22267 87.0155 9.44134C87.3056 9.66118 87.4967 9.987 87.5471 10.3475C87.5975 10.7079 87.5031 11.0737 87.2844 11.3647C87.1562 11.5342 86.9905 11.6717 86.8002 11.7663C86.6099 11.861 86.4003 11.9102 86.1878 11.9101C85.8894 11.9105 85.5991 11.8134 85.3611 11.6336ZM31.3723 10.4893C31.1643 10.1925 31.082 9.8256 31.1432 9.46841C31.2045 9.11122 31.4044 8.7927 31.6994 8.58218C31.8464 8.47806 32.0126 8.40396 32.1884 8.36413C32.3641 8.3243 32.546 8.31953 32.7236 8.35009C32.9012 8.38065 33.071 8.44594 33.2233 8.54221C33.3756 8.63849 33.5075 8.76387 33.6113 8.91116C33.7155 9.05819 33.7898 9.22433 33.8297 9.40008C33.8697 9.57583 33.8747 9.75773 33.8443 9.93539C33.8139 10.1131 33.7488 10.283 33.6527 10.4355C33.5566 10.5879 33.4314 10.72 33.2842 10.824C33.053 10.9874 32.7768 11.0753 32.4937 11.0757C32.2735 11.0749 32.0567 11.0211 31.8616 10.9191C31.6665 10.817 31.4987 10.6697 31.3723 10.4893ZM81.5192 9.03131C81.2091 8.84303 80.986 8.53977 80.8987 8.18767C80.8113 7.83558 80.8668 7.46323 81.0529 7.15184C81.2407 6.84047 81.5443 6.6163 81.8972 6.52853C82.2501 6.44075 82.6234 6.49654 82.9352 6.68364C83.2468 6.87128 83.4711 7.17495 83.5589 7.5279C83.6467 7.88086 83.5908 8.25423 83.4034 8.56597C83.2817 8.76968 83.1092 8.93829 82.9028 9.05529C82.6963 9.1723 82.463 9.2337 82.2258 9.23347C81.9756 9.23306 81.7304 9.16449 81.5163 9.03513L81.5192 9.03131ZM35.3391 7.81934C35.162 7.50155 35.1181 7.12652 35.2169 6.77639C35.3157 6.42627 35.5493 6.12958 35.8664 5.95131C36.1842 5.77395 36.5593 5.72986 36.9095 5.82871C37.2597 5.92757 37.5564 6.1613 37.7345 6.47863C37.9121 6.79631 37.9563 7.17151 37.8574 7.52178C37.7586 7.87206 37.5247 8.16875 37.2072 8.34665C37.0034 8.46149 36.7735 8.52192 36.5397 8.52211C36.2951 8.52249 36.0549 8.45755 35.8438 8.334C35.6327 8.21045 35.4585 8.03277 35.3391 7.81934ZM77.4188 6.85719C77.2552 6.78129 77.1081 6.67388 76.986 6.54111C76.8639 6.40834 76.7691 6.25281 76.7071 6.08341C76.6452 5.91401 76.6172 5.73405 76.6247 5.55382C76.6323 5.37359 76.6753 5.19663 76.7514 5.03303C76.8273 4.86939 76.9347 4.72231 77.0674 4.6002C77.2002 4.47808 77.3557 4.38332 77.5251 4.32134C77.6945 4.25935 77.8745 4.23135 78.0547 4.23893C78.2349 4.24652 78.4119 4.28954 78.5755 4.36554C78.9058 4.51904 79.1617 4.7974 79.2868 5.13946C79.412 5.48151 79.3962 5.85927 79.243 6.1897C79.1324 6.4268 78.9563 6.62735 78.7355 6.76773C78.5147 6.90812 78.2583 6.98249 77.9967 6.98211C77.7971 6.98288 77.5998 6.93958 77.4188 6.85529V6.85719ZM39.5624 5.57656C39.4912 5.4111 39.4533 5.23322 39.4509 5.05309C39.4485 4.87297 39.4817 4.69414 39.5484 4.52684C39.6152 4.35954 39.7143 4.20704 39.8401 4.07808C39.9659 3.94912 40.1159 3.84623 40.2814 3.77528C40.6159 3.63209 40.9935 3.62759 41.3313 3.76277C41.6691 3.89796 41.9394 4.16176 42.0827 4.49618C42.2255 4.82956 42.2303 5.20597 42.0961 5.5429C41.9619 5.87983 41.6995 6.1498 41.3666 6.29364C41.1962 6.36723 41.0125 6.40519 40.8269 6.4052C40.5586 6.40518 40.2961 6.32648 40.0721 6.17887C39.848 6.03125 39.6722 5.82118 39.5663 5.57465L39.5624 5.57656ZM73.1116 5.12267C72.9406 5.06465 72.7828 4.97348 72.6471 4.85439C72.5114 4.7353 72.4005 4.59061 72.3208 4.42862C72.2411 4.26662 72.1941 4.0905 72.1825 3.91032C72.171 3.73015 72.195 3.54946 72.2534 3.3786C72.3117 3.20792 72.4031 3.05043 72.5223 2.91514C72.6416 2.77986 72.7864 2.66945 72.9484 2.59025C73.1105 2.51105 73.2865 2.46462 73.4666 2.45361C73.6466 2.44261 73.827 2.46725 73.9975 2.52612C74.1679 2.5844 74.3252 2.67572 74.4603 2.79486C74.5955 2.914 74.7058 3.05861 74.785 3.22042C74.8641 3.38224 74.9106 3.55808 74.9218 3.73788C74.9329 3.91768 74.9085 4.09792 74.8499 4.26828C74.7574 4.53875 74.5826 4.77355 74.3501 4.93989C74.1176 5.10623 73.839 5.1958 73.5531 5.19609C73.4041 5.19446 73.2564 5.16903 73.1154 5.12076L73.1116 5.12267ZM44.0022 3.78768C43.949 3.61538 43.9303 3.43427 43.9471 3.25473C43.964 3.07518 44.016 2.90072 44.1004 2.74131C44.1847 2.5819 44.2996 2.44067 44.4385 2.3257C44.5774 2.21073 44.7377 2.12427 44.91 2.07127C45.2576 1.96423 45.6335 1.99937 45.9553 2.169C46.277 2.33863 46.5184 2.62891 46.6264 2.9762C46.7331 3.32419 46.6974 3.70027 46.5273 4.02202C46.3571 4.34376 46.0663 4.58491 45.7186 4.69261C45.5877 4.73344 45.4515 4.75433 45.3143 4.75459C45.0218 4.75378 44.7372 4.65967 44.5019 4.48594C44.2666 4.3122 44.0929 4.06792 44.006 3.78863L44.0022 3.78768ZM68.6499 3.84775C68.4741 3.8078 68.308 3.73359 68.1609 3.62937C68.0139 3.52515 67.8888 3.39296 67.7929 3.24036C67.697 3.08776 67.6321 2.91775 67.602 2.74006C67.5718 2.56236 67.577 2.38046 67.6172 2.20477C67.6983 1.84987 67.9171 1.54172 68.2254 1.34807C68.5336 1.15441 68.9062 1.09111 69.2611 1.17206C69.4368 1.21223 69.6029 1.28662 69.7498 1.39098C69.8968 1.49534 70.0217 1.62763 70.1176 1.7803C70.2134 1.93296 70.2782 2.103 70.3082 2.28071C70.3383 2.45842 70.3331 2.64031 70.2929 2.816C70.224 3.11862 70.0544 3.38889 69.8119 3.58256C69.5693 3.77623 69.2683 3.88184 68.9579 3.88208C68.8565 3.88233 68.7554 3.87113 68.6566 3.84871L68.6499 3.84775ZM48.6098 2.47939C48.5752 2.30257 48.5757 2.12065 48.6114 1.94404C48.6471 1.76742 48.7173 1.59957 48.8179 1.45008C48.9185 1.30059 49.0475 1.1724 49.1977 1.07283C49.3479 0.973258 49.5162 0.904261 49.6931 0.869783C50.0503 0.800382 50.4205 0.875718 50.7221 1.07922C51.0238 1.28272 51.2323 1.59772 51.3017 1.95494C51.3364 2.13182 51.3359 2.31379 51.3002 2.49047C51.2645 2.66715 51.1944 2.83507 51.0938 2.98463C50.9932 3.1342 50.8641 3.26248 50.7139 3.36214C50.5637 3.46181 50.3954 3.53091 50.2185 3.5655C50.1309 3.58268 50.0417 3.59099 49.9525 3.59029C49.6346 3.58944 49.3269 3.47818 49.082 3.27555C48.8371 3.07291 48.6702 2.79148 48.6098 2.47939ZM64.0823 3.05153C63.7213 3.00762 63.3924 2.82237 63.1677 2.53638C62.9431 2.25039 62.8409 1.887 62.8837 1.52583C62.9051 1.34688 62.9615 1.17389 63.0498 1.01675C63.138 0.859611 63.2564 0.721396 63.3981 0.61C63.5397 0.498605 63.702 0.416211 63.8755 0.367525C64.049 0.318839 64.2305 0.304815 64.4094 0.326253C64.7706 0.369684 65.0998 0.554808 65.3246 0.840917C65.5494 1.12703 65.6513 1.49069 65.608 1.85195C65.5686 2.18522 65.4083 2.49245 65.1575 2.71546C64.9067 2.93848 64.5829 3.06178 64.2473 3.06202C64.1913 3.06298 64.1353 3.06107 64.0795 3.0563L64.0823 3.05153ZM53.3252 1.66696C53.2934 1.30448 53.4069 0.944215 53.6406 0.6653C53.8742 0.386384 54.2091 0.211624 54.5715 0.179405C54.7514 0.163577 54.9326 0.183408 55.1048 0.237762C55.277 0.292115 55.4368 0.379922 55.575 0.496148C55.7132 0.612374 55.8271 0.754734 55.9101 0.915066C55.9932 1.0754 56.0438 1.25055 56.0591 1.43048C56.0753 1.60999 56.0559 1.79093 56.0021 1.96294C55.9482 2.13495 55.861 2.29464 55.7453 2.43284C55.6296 2.57104 55.4877 2.68505 55.3279 2.76831C55.168 2.85157 54.9933 2.90245 54.8137 2.91803C54.7737 2.92185 54.7327 2.92375 54.6907 2.92375C54.3471 2.92308 54.0163 2.79363 53.7635 2.56096C53.5107 2.32829 53.3543 2.0093 53.3252 1.66696ZM59.4518 2.74544C59.0877 2.73916 58.7409 2.58881 58.4875 2.32731C58.234 2.06581 58.0946 1.71451 58.0997 1.35038C58.1062 0.986684 58.2566 0.640393 58.5179 0.387324C58.7792 0.134256 59.1301 -0.00496808 59.4938 0.000135521C59.674 0.00274459 59.852 0.040866 60.0175 0.112319C60.183 0.183771 60.3328 0.287153 60.4583 0.416548C60.5838 0.545944 60.6825 0.698815 60.7489 0.866414C60.8152 1.03401 60.8479 1.21305 60.845 1.39329C60.84 1.75348 60.6934 2.09723 60.437 2.35025C60.1806 2.60326 59.8349 2.74522 59.4747 2.74544H59.4518Z" fill="#83AEB5"/>
<path d="M99.9906 67.7794C99.6726 67.7798 99.3643 67.67 99.1183 67.4685C98.8723 67.2671 98.7037 66.9865 98.6414 66.6747C98.5791 66.3629 98.6268 66.0391 98.7765 65.7586C98.9261 65.478 99.1685 65.258 99.4622 65.1362C99.7559 65.0143 100.083 64.9981 100.387 65.0902C100.691 65.1824 100.954 65.3773 101.131 65.6416C101.308 65.906 101.387 66.2234 101.356 66.5399C101.325 66.8563 101.185 67.1522 100.96 67.377C100.702 67.633 100.354 67.7775 99.9906 67.7794Z" fill="#83AEB5"/>
<path d="M48.6555 28.0735C48.383 28.0725 48.1205 27.9704 47.919 27.787C47.7174 27.6037 47.5911 27.3521 47.5644 27.0809C47.5377 26.8097 47.6125 26.5383 47.7744 26.3191C47.9364 26.1 48.1739 25.9487 48.4409 25.8946C48.972 25.7868 49.5365 25.6915 50.0829 25.5999C51.3006 25.3959 52.5622 25.1842 53.5587 24.818C55.2247 24.2082 56.8525 23.4987 58.4333 22.6935C60.144 21.82 61.4008 20.7863 62.5069 19.356C62.7996 18.9746 63.079 18.5884 63.3651 18.1783C63.5558 17.9152 63.7465 17.651 63.9372 17.3907L64.0393 17.2248C63.2087 17.1714 62.4182 17.1761 61.6554 17.18C61.3903 17.18 61.1261 17.18 60.863 17.18C59.2596 17.1619 57.6595 17.3305 56.0952 17.6825C53.7112 18.2336 50.4091 19.4752 48.213 22.2596C46.8408 23.9998 44.7878 26.0519 42.7777 25.9308C42.499 25.8978 42.2434 25.7596 42.0633 25.5444C41.8831 25.3291 41.792 25.0532 41.8086 24.7731C41.8251 24.4929 41.9481 24.2296 42.1524 24.0372C42.3566 23.8447 42.6267 23.7375 42.9074 23.7376C43.6826 23.7843 45.093 22.6706 46.488 20.9008C48.5363 18.3071 51.6878 16.4476 55.5983 15.5417C57.3283 15.1528 59.0975 14.9653 60.8706 14.983C61.129 14.983 61.3865 14.983 61.6449 14.983C63.0028 14.9753 64.4102 14.9677 66.0723 15.2471C66.2648 15.2794 66.4453 15.3623 66.5953 15.4873C66.7452 15.6124 66.8591 15.7751 66.9254 15.9587C66.9917 16.1424 67.008 16.3403 66.9725 16.5323C66.937 16.7243 66.8511 16.9034 66.7235 17.0512C66.6282 17.2019 66.3612 17.6415 66.1991 17.9094C65.8987 18.412 65.7948 18.5836 65.7223 18.6856C65.5316 18.9421 65.3485 19.2006 65.1626 19.4599C64.8765 19.8671 64.5695 20.2876 64.2529 20.6996C62.937 22.4055 61.4513 23.6241 59.4374 24.653C57.776 25.5014 56.0648 26.2481 54.3129 26.8891C53.1239 27.324 51.7622 27.5566 50.4453 27.774C49.8922 27.8694 49.3697 27.9552 48.8757 28.0553C48.8031 28.0688 48.7293 28.0749 48.6555 28.0735ZM66.406 17.3039C66.3391 17.3398 66.2684 17.3682 66.1953 17.3888C66.2685 17.3685 66.3392 17.34 66.406 17.3039Z" fill="#83AEB5"/>
<path d="M48.6554 28.1646C48.4404 28.1642 48.2295 28.1056 48.0451 27.995C47.8607 27.8845 47.7096 27.7261 47.6079 27.5367C47.5061 27.3473 47.4575 27.1339 47.4672 26.9191C47.4769 26.7043 47.5444 26.4961 47.6628 26.3166C47.7489 26.1858 47.8602 26.0734 47.9902 25.986C48.1202 25.8986 48.2663 25.8379 48.4199 25.8074C48.9501 25.6997 49.5146 25.6043 50.06 25.5128C51.2815 25.3078 52.5393 25.097 53.5243 24.7347C55.1865 24.1276 56.8106 23.4207 58.3875 22.6178C60.0858 21.751 61.3321 20.7297 62.4306 19.306C62.7167 18.9313 62.9932 18.5499 63.2821 18.1455C63.4805 17.8681 63.6702 17.6039 63.8628 17.3426C63.8676 17.335 63.8743 17.3255 63.881 17.3131C63.2955 17.2797 62.7453 17.2759 62.279 17.2759C62.0749 17.2759 61.8728 17.2759 61.6716 17.2759H60.9888H60.7161C59.1669 17.2681 57.6218 17.4357 56.1104 17.7756C53.7417 18.3239 50.4596 19.5568 48.2807 22.3231C46.9457 24.0157 44.9365 26.0334 42.9407 26.0344C42.8826 26.0344 42.8234 26.0344 42.7643 26.0286C42.4485 26.0093 42.1532 25.8653 41.9435 25.6282C41.7339 25.3912 41.6269 25.0806 41.6463 24.7647C41.6656 24.4488 41.8097 24.1536 42.0467 23.9439C42.2837 23.7342 42.5944 23.6273 42.9102 23.6466H42.9541C43.7169 23.6466 45.071 22.5472 46.4146 20.8441C48.4781 18.2247 51.6477 16.3624 55.5792 15.4498C57.276 15.0685 59.0104 14.8804 60.7495 14.8891H60.9983H61.6449C61.868 14.8891 62.0921 14.8891 62.3123 14.8891C63.5751 14.8705 64.8372 14.9601 66.0846 15.1571C66.2933 15.1919 66.489 15.2817 66.6515 15.4172C66.814 15.5527 66.9375 15.729 67.0094 15.928C67.0812 16.1271 67.0988 16.3416 67.0603 16.5497C67.0218 16.7577 66.9286 16.9518 66.7903 17.1119C66.7035 17.2435 66.4689 17.6344 66.2754 17.9606C65.9721 18.4669 65.8682 18.6395 65.7909 18.7444C65.6174 18.979 65.4486 19.2145 65.2789 19.451L65.2312 19.5177C64.9451 19.9239 64.639 20.3445 64.3196 20.7574C62.9951 22.4738 61.5009 23.701 59.4726 24.7366C57.8086 25.5829 56.0951 26.3284 54.3415 26.9689C53.1448 27.4075 51.7774 27.6363 50.4567 27.8585H50.4357C49.8913 27.9539 49.3773 28.0359 48.891 28.1351C48.8136 28.1523 48.7347 28.1622 48.6554 28.1646ZM62.2828 17.089C62.792 17.089 63.4004 17.0947 64.0488 17.1367C64.0644 17.138 64.0794 17.1431 64.0925 17.1516C64.1057 17.1601 64.1165 17.1716 64.1241 17.1853C64.1315 17.1991 64.1353 17.2145 64.1353 17.2301C64.1353 17.2458 64.1315 17.2611 64.1241 17.2749C64.0774 17.3522 64.0393 17.4142 64.0192 17.4437C63.8285 17.7088 63.6378 17.972 63.4471 18.2352C63.1467 18.6547 62.875 19.0381 62.5803 19.4147C61.4656 20.8613 60.1964 21.8988 58.48 22.778C56.8942 23.5844 55.2613 24.2945 53.5901 24.9044C52.5851 25.2725 51.3225 25.4842 50.101 25.6892C49.5489 25.7845 48.9863 25.8799 48.459 25.9838C48.2139 26.0334 47.9959 26.1723 47.8473 26.3735C47.6988 26.5747 47.6303 26.8239 47.6551 27.0728C47.68 27.3217 47.7963 27.5525 47.9817 27.7204C48.1671 27.8883 48.4082 27.9814 48.6583 27.9815C48.7259 27.9815 48.7933 27.9748 48.8595 27.9615C49.3496 27.8614 49.8655 27.7756 50.4109 27.684H50.4329C51.745 27.4628 53.1029 27.2349 54.2843 26.8029C56.0312 26.1651 57.738 25.4226 59.3954 24.5792C61.3979 23.557 62.874 22.345 64.1804 20.6515C64.4979 20.2377 64.7983 19.819 65.0891 19.4119L65.1358 19.3451C65.3056 19.1086 65.4753 18.8683 65.6489 18.6366C65.7213 18.5413 65.8243 18.3677 66.1256 17.8681C66.2134 17.7203 66.3087 17.5601 66.3974 17.4151L66.3802 17.4227C66.331 17.4445 66.2803 17.463 66.2286 17.4781C66.2079 17.4781 66.1877 17.4714 66.1711 17.4589C66.1545 17.4465 66.1424 17.4289 66.1367 17.409C66.1309 17.389 66.1319 17.3677 66.1394 17.3484C66.1468 17.329 66.1604 17.3126 66.1781 17.3016C66.2223 17.2889 66.2656 17.2733 66.3078 17.2549L66.3698 17.2254C66.3909 17.2152 66.415 17.2132 66.4375 17.2197C66.46 17.2262 66.4794 17.2408 66.4918 17.2606C66.5605 17.15 66.6177 17.0575 66.6539 17.0022C66.8281 16.8033 66.9181 16.5444 66.9047 16.2804C66.8935 16.0508 66.8039 15.832 66.6508 15.6605C66.4978 15.4891 66.2905 15.3753 66.0637 15.3383C64.8262 15.1434 63.5744 15.0548 62.3219 15.0732C62.0968 15.0732 61.8737 15.0732 61.6544 15.0732H61.005H60.7561C59.0281 15.0661 57.3048 15.2552 55.6193 15.6367C51.7278 16.5369 48.5944 18.3792 46.5605 20.9662C45.1301 22.778 43.7217 23.8869 42.9026 23.8364H42.8444C42.5823 23.8367 42.3306 23.9389 42.1425 24.1215C41.9545 24.3041 41.8449 24.5527 41.837 24.8147C41.8291 25.0767 41.9234 25.3315 42.1001 25.5252C42.2767 25.7188 42.5218 25.8361 42.7834 25.8522C42.8397 25.8522 42.894 25.858 42.9493 25.858C44.8707 25.858 46.8341 23.8774 48.1443 22.2163C50.3566 19.409 53.675 18.1589 56.077 17.6039C57.6019 17.2611 59.1607 17.0918 60.7237 17.0995H60.9964H61.6639L62.2828 17.089Z" fill="#83AEB5"/>
<path d="M36.8972 37.5188C35.4531 37.5062 34.0269 37.1969 32.7073 36.6101C31.2979 35.9855 30.4006 35.0424 29.7055 33.4576C28.8349 31.4704 30.0116 30.1201 30.8698 29.136C31.0338 28.9453 31.2045 28.7546 31.3618 28.5553C31.7213 28.1252 32.1148 27.7247 32.5385 27.3577C32.8588 27.0783 33.1602 26.7779 33.4406 26.4584C33.664 26.1754 33.8703 25.8793 34.0585 25.5716C34.3178 25.1457 34.6088 24.7399 34.9291 24.3577C35.6664 23.4998 36.652 22.892 37.7497 22.6185C38.3009 22.483 38.8349 22.5164 39.3059 22.546C39.6683 22.5689 40.043 22.5918 40.2376 22.5126C41.6231 21.9491 42.7397 20.493 43.8201 19.0846C44.2587 18.5124 44.6726 17.9737 45.1112 17.4788C46.861 15.5087 49.2382 13.9754 52.1771 12.9217C53.8502 12.3355 55.5849 11.943 57.3473 11.7517C57.6076 11.7221 57.8689 11.6897 58.1321 11.6563C59.5033 11.4866 60.9194 11.3121 62.5528 11.4046C62.7472 11.4155 62.9351 11.4779 63.0975 11.5852C63.2599 11.6925 63.391 11.841 63.4773 12.0155C63.5635 12.19 63.602 12.3843 63.5887 12.5785C63.5754 12.7727 63.5108 12.9599 63.4015 13.121C63.3204 13.2812 63.1154 13.7437 62.9857 14.0288C62.7426 14.5714 62.6577 14.7563 62.5938 14.8689C62.4374 15.1416 62.2839 15.4191 62.1313 15.6975L61.8453 16.2086C61.7747 16.3348 61.68 16.4458 61.5665 16.5354C61.453 16.6249 61.323 16.6912 61.1839 16.7306C61.0448 16.7699 60.8993 16.7814 60.7558 16.7645C60.6122 16.7476 60.4734 16.7026 60.3472 16.632C60.2211 16.5614 60.11 16.4667 60.0205 16.3532C59.9309 16.2398 59.8646 16.1098 59.8253 15.9707C59.786 15.8316 59.7744 15.6861 59.7913 15.5425C59.8083 15.3989 59.8533 15.2601 59.9238 15.134L60.2013 14.6333C60.3577 14.3473 60.5141 14.066 60.6781 13.7847C60.6943 13.7532 60.7248 13.6893 60.762 13.6054C59.9486 13.6502 59.1677 13.7465 58.402 13.8409C58.1321 13.8743 57.8642 13.9077 57.5981 13.9363C56.0044 14.1091 54.4357 14.4639 52.9228 14.9938C50.3358 15.9216 48.2618 17.249 46.7609 18.9396C46.3737 19.3754 45.9828 19.8846 45.5699 20.4234C44.3693 21.9891 43.0086 23.7608 41.0691 24.5513C40.4102 24.8193 39.7522 24.7783 39.1724 24.742C38.8272 24.7211 38.5049 24.701 38.2761 24.7563C37.619 24.9228 37.0298 25.2893 36.5902 25.8053C36.342 26.1065 36.1157 26.4251 35.9132 26.7588C35.6777 27.1419 35.4188 27.51 35.1379 27.8611C34.794 28.2602 34.4221 28.6343 34.0251 28.9806C33.6878 29.2725 33.3728 29.5893 33.083 29.9285C32.897 30.1611 32.7111 30.3738 32.5309 30.5807C31.626 31.6201 31.4419 31.9281 31.7251 32.5727C32.2019 33.6502 32.7063 34.1937 33.6008 34.5961C35.4431 35.4124 38.2923 35.8014 40.2595 34.2147L40.3043 34.1785C40.4423 34.0616 40.5911 33.9582 40.7487 33.8695C41.003 33.7261 41.3038 33.6896 41.585 33.768C41.8662 33.8465 42.1048 34.0334 42.2481 34.2877C42.3915 34.5419 42.428 34.8428 42.3496 35.124C42.2712 35.4052 42.0843 35.6437 41.83 35.7871C41.7803 35.8133 41.7339 35.8453 41.6917 35.8825L41.6422 35.9225C40.2147 37.0782 38.5364 37.5188 36.8972 37.5188ZM63.1202 13.4071C63.0567 13.4509 62.989 13.4883 62.918 13.5186C62.9889 13.4881 63.0566 13.4508 63.1202 13.4071Z" fill="#83AEB5"/>
<path d="M36.897 37.6092C35.4405 37.5948 34.0023 37.2826 32.6709 36.6919C31.2405 36.0577 30.328 35.1013 29.6195 33.4936C28.726 31.453 29.9236 30.078 30.7981 29.0748L30.8248 29.0443C30.9802 28.866 31.1404 28.6819 31.2882 28.4969C31.6507 28.0632 32.0473 27.6591 32.4744 27.2888C32.7918 27.0129 33.09 26.7156 33.367 26.3991C33.5883 26.1197 33.7924 25.827 33.9782 25.5228C34.2405 25.0926 34.5347 24.6827 34.8583 24.2965C35.6074 23.4238 36.6095 22.8059 37.7257 22.5286C38.0307 22.4573 38.3432 22.4234 38.6564 22.4275C38.8852 22.4275 39.1103 22.4409 39.3096 22.4533C39.4783 22.4638 39.6528 22.4752 39.8073 22.4752C39.9404 22.4824 40.0738 22.4659 40.2011 22.4266C41.5628 21.8735 42.6718 20.4241 43.7446 19.03C44.1889 18.4493 44.6028 17.9115 45.0414 17.4166C46.8007 15.4351 49.1904 13.8884 52.1435 12.8347C53.8234 12.2461 55.5652 11.8516 57.3347 11.659C57.5931 11.6303 57.8516 11.5979 58.1128 11.5636C59.2247 11.4263 60.368 11.2852 61.6315 11.2852C61.9414 11.2852 62.2532 11.2937 62.5555 11.3109C62.7658 11.323 62.9692 11.3906 63.145 11.5068C63.3207 11.623 63.4626 11.7837 63.5561 11.9725C63.6496 12.1614 63.6914 12.3716 63.6773 12.5818C63.6631 12.792 63.5936 12.9948 63.4757 13.1694C63.4061 13.3077 63.2201 13.7206 63.0666 14.0638C62.8253 14.6007 62.7386 14.7924 62.6709 14.9116C62.5145 15.1833 62.3619 15.4608 62.2084 15.7383C62.113 15.909 62.0177 16.0797 61.9223 16.2494C61.8467 16.3875 61.7445 16.5092 61.6216 16.6075C61.4987 16.7058 61.3575 16.7789 61.2062 16.8224C61.055 16.8658 60.8966 16.8789 60.7402 16.8609C60.5838 16.8428 60.4326 16.794 60.2952 16.7172C60.1578 16.6404 60.037 16.5371 59.9397 16.4133C59.8425 16.2896 59.7707 16.1478 59.7285 15.9961C59.6864 15.8445 59.6746 15.686 59.6941 15.5298C59.7135 15.3736 59.7636 15.2228 59.8416 15.0861C59.937 14.9201 60.0324 14.7533 60.1191 14.5864C60.2755 14.3003 60.4319 14.0142 60.5959 13.7368C60.602 13.7257 60.6075 13.7142 60.6121 13.7024C59.854 13.7501 59.1217 13.8407 58.4113 13.9284L58.355 13.9361C58.1043 13.9666 57.8554 13.9971 57.6065 14.0257C56.0189 14.1965 54.456 14.5484 52.9484 15.0746C50.3737 15.9967 48.315 17.3164 46.8236 18.9957C46.4422 19.4305 46.0493 19.9378 45.6374 20.4746C44.4359 22.0537 43.0637 23.8388 41.0984 24.635C40.6883 24.794 40.2508 24.8702 39.8111 24.8591C39.5851 24.8591 39.3696 24.8458 39.1618 24.8324C38.7937 24.8105 38.4742 24.799 38.2921 24.8439C37.6539 25.0063 37.0816 25.3624 36.6539 25.8632C36.4094 26.1621 36.1864 26.4779 35.9864 26.8082C35.7492 27.195 35.4877 27.5663 35.2035 27.92C34.8603 28.3188 34.4894 28.6929 34.0936 29.0395C33.7557 29.3308 33.4404 29.6474 33.1505 29.9864C32.9598 30.2267 32.7691 30.447 32.5965 30.6406C31.7078 31.6609 31.5418 31.9364 31.8041 32.5362C32.2666 33.5909 32.7624 34.1258 33.6349 34.513C34.6589 34.9665 35.7648 35.2056 36.8846 35.2157C38.2015 35.2157 39.3162 34.8543 40.1983 34.142L40.2421 34.1067C40.384 33.9863 40.5373 33.8799 40.6998 33.7892C40.975 33.6361 41.2995 33.598 41.6026 33.6834C41.9057 33.7687 42.1627 33.9705 42.3175 34.2447C42.4723 34.5189 42.5123 34.8432 42.4288 35.1468C42.3453 35.4504 42.145 35.7087 41.8718 35.8651C41.8258 35.8912 41.7835 35.9233 41.7459 35.9605L41.6954 36.0005C40.3918 37.0513 38.7317 37.6092 36.897 37.6092ZM38.6592 22.6097C38.3608 22.605 38.063 22.637 37.7724 22.705C36.6917 22.9737 35.7213 23.5719 34.9956 24.4167C34.6804 24.7962 34.3936 25.1984 34.1374 25.62C33.9475 25.9311 33.7389 26.2305 33.5129 26.5164C33.2315 26.8387 32.9282 27.141 32.6051 27.4213C32.1841 27.7861 31.7932 28.184 31.436 28.6114C31.2863 28.8021 31.1242 28.9852 30.9678 29.1644L30.9411 29.195C30.0981 30.1619 28.9443 31.4835 29.7921 33.4192C30.4767 34.9821 31.3607 35.9109 32.7481 36.525C34.0565 37.1053 35.4696 37.4119 36.9009 37.4261C38.6936 37.4261 40.3137 36.8826 41.5857 35.8546L41.6362 35.8146C41.682 35.7721 41.733 35.7356 41.7879 35.7059C42.0212 35.5737 42.1924 35.3543 42.2639 35.0959C42.3355 34.8375 42.3014 34.5613 42.1693 34.328C42.0371 34.0947 41.8177 33.9234 41.5593 33.8519C41.3009 33.7804 41.0247 33.8144 40.7914 33.9466C40.6381 34.0326 40.4935 34.1332 40.3594 34.2469L40.3146 34.2832C39.4125 35.0117 38.2273 35.3969 36.8866 35.3969C35.7422 35.3869 34.6119 35.1428 33.5653 34.6798C32.6451 34.2727 32.1245 33.711 31.642 32.6097C31.3406 31.9221 31.5466 31.5789 32.463 30.5204C32.6308 30.3297 32.8225 30.1094 33.0122 29.872C33.3048 29.5298 33.6236 29.211 33.9658 28.9184C34.3589 28.5742 34.7276 28.203 35.0691 27.8075C35.346 27.4596 35.6007 27.0946 35.8319 26.7147C36.0383 26.3758 36.2687 26.052 36.5213 25.7459C36.9734 25.2167 37.5784 24.8406 38.253 24.6693C38.3864 24.6404 38.5228 24.6276 38.6592 24.6312C38.8185 24.6312 38.9901 24.6417 39.1722 24.6522C39.3839 24.6655 39.5956 24.6789 39.8159 24.6789C40.2321 24.6899 40.6463 24.6183 41.0345 24.4681C42.9503 23.69 44.3024 21.9269 45.4953 20.3678C45.9111 19.8262 46.302 19.3189 46.692 18.8765C48.2034 17.1744 50.2898 15.8384 52.8902 14.9049C54.4111 14.3739 55.9877 14.0184 57.5893 13.8455C57.8373 13.8169 58.0861 13.7854 58.3369 13.7501L58.3922 13.7434C59.1551 13.6481 59.9399 13.5527 60.758 13.5079C60.7738 13.5066 60.7896 13.5095 60.8039 13.5164C60.8181 13.5233 60.8303 13.5338 60.8391 13.547C60.8476 13.5602 60.8528 13.5752 60.8541 13.5909C60.8554 13.6065 60.8529 13.6222 60.8467 13.6366C60.8095 13.7206 60.7771 13.7873 60.7618 13.8197C60.5988 14.1058 60.4424 14.3871 60.2851 14.6703L60.0085 15.1719C59.9438 15.2875 59.9026 15.4148 59.8871 15.5464C59.8716 15.678 59.8821 15.8113 59.9182 15.9388C59.9542 16.0663 60.015 16.1855 60.0971 16.2895C60.1792 16.3935 60.281 16.4803 60.3966 16.545C60.5123 16.6097 60.6395 16.6509 60.7711 16.6664C60.9027 16.6819 61.0361 16.6714 61.1636 16.6353C61.2911 16.5993 61.4102 16.5385 61.5142 16.4564C61.6182 16.3743 61.7051 16.2725 61.7697 16.1569L62.0558 15.6458C62.2084 15.3674 62.3619 15.0899 62.5183 14.8162C62.5803 14.7084 62.6642 14.5254 62.9064 13.9847L63.119 13.5127C63.0672 13.5445 63.013 13.5722 62.9569 13.5956C62.9345 13.6042 62.9096 13.6039 62.8873 13.5949C62.865 13.5859 62.847 13.5688 62.8368 13.547C62.8283 13.5245 62.8285 13.4997 62.8375 13.4774C62.8466 13.4551 62.8637 13.4371 62.8854 13.4269C62.9524 13.3997 63.0164 13.3655 63.0761 13.3248C63.0956 13.3125 63.1189 13.3076 63.1417 13.3111C63.1645 13.3146 63.1852 13.3263 63.2001 13.3439C63.2535 13.2276 63.2954 13.1313 63.3279 13.0731C63.4771 12.8563 63.5363 12.5899 63.4928 12.3303C63.4561 12.1042 63.343 11.8976 63.1725 11.7447C63.0019 11.5919 62.7842 11.502 62.5555 11.4902C62.2561 11.473 61.949 11.4644 61.642 11.4644C60.3899 11.4644 59.2514 11.6046 58.1519 11.741C57.884 11.7734 57.6246 11.8058 57.3652 11.8363C55.61 12.0269 53.8823 12.4179 52.216 13.0016C49.2914 14.0505 46.9276 15.5762 45.1883 17.5329C44.7534 18.023 44.3434 18.5589 43.9076 19.1263C42.8129 20.5566 41.6887 22.0194 40.2841 22.5915C40.1351 22.6406 39.9783 22.6616 39.8216 22.6535C39.6614 22.6535 39.4831 22.6421 39.3124 22.6316C39.096 22.623 38.8824 22.6097 38.6592 22.6097Z" fill="#83AEB5"/>
<path d="M77.2603 54.3832H77.2021C76.9107 54.3677 76.6374 54.2372 76.4422 54.0203C76.2469 53.8035 76.1457 53.518 76.1608 53.2266C76.1913 52.6287 76.3277 51.8019 76.4593 51.0019C76.5546 50.4116 76.65 49.8576 76.6872 49.459C77.1201 45.0727 77.123 41.4625 75.725 38.0802C73.8866 33.6347 70.9077 30.9046 66.8722 29.9635C64.1336 29.3255 60.7589 29.7804 58.4103 30.2753C57.8153 30.4012 57.1993 30.569 56.5471 30.7454C55.3341 31.0753 54.0783 31.4129 52.791 31.5292C49.6195 31.8067 48.6564 29.5201 47.8811 27.6826L47.8048 27.5023C47.6962 27.2346 47.6973 26.9349 47.8078 26.6679C47.9182 26.4009 48.1293 26.1881 48.3954 26.0754C48.6614 25.9627 48.9611 25.9592 49.2298 26.0656C49.4984 26.172 49.7144 26.3798 49.8311 26.6441L49.9084 26.8282C50.7523 28.8307 51.148 29.4657 52.5993 29.3379C53.6902 29.2426 54.8497 28.927 55.9702 28.6228C56.6233 28.4454 57.2994 28.2614 57.9564 28.1231C60.5234 27.5824 64.2404 27.0914 67.3719 27.8208C72.072 28.9165 75.6678 32.1738 77.759 37.2401C79.3324 41.0458 79.3438 44.964 78.8775 49.6765C78.8317 50.1428 78.7335 50.734 78.6305 51.3595C78.5094 52.1004 78.3826 52.8661 78.3588 53.3419C78.3436 53.6231 78.2213 53.8878 78.017 54.0815C77.8126 54.2752 77.5418 54.3832 77.2603 54.3832Z" fill="#83AEB5"/>
<path d="M77.2602 54.4723H77.1983C76.8826 54.4558 76.5864 54.3147 76.3747 54.0799C76.163 53.8452 76.0531 53.536 76.0692 53.2203C76.0998 52.6186 76.2361 51.7899 76.3677 50.9909C76.4631 50.3968 76.5584 49.8466 76.5956 49.449C77.0285 45.0788 77.0314 41.4781 75.6421 38.114C73.816 33.698 70.859 30.9851 66.8531 30.0507C65.8589 29.833 64.8432 29.7287 63.8255 29.7398C62.2102 29.7398 60.3927 29.9496 58.4312 30.3634C57.8438 30.4874 57.2355 30.6495 56.5908 30.8278H56.5727C55.3569 31.1587 54.0935 31.501 52.8014 31.6135C52.624 31.6298 52.4486 31.6374 52.2808 31.6374C49.4544 31.6374 48.5371 29.4623 47.799 27.7135L47.7218 27.5313C47.6535 27.3862 47.6152 27.2287 47.6092 27.0684C47.6032 26.9081 47.6297 26.7483 47.687 26.5984C47.7442 26.4486 47.8312 26.3118 47.9425 26.1964C48.0539 26.081 48.1874 25.9892 48.3351 25.9266C48.4828 25.864 48.6416 25.8318 48.8021 25.832C48.9625 25.8323 49.1212 25.8649 49.2687 25.9279C49.4162 25.9909 49.5495 26.0831 49.6605 26.1989C49.7716 26.3146 49.8581 26.4516 49.915 26.6016L49.9922 26.7847C50.7646 28.6146 51.1365 29.2544 52.2664 29.2544C52.3675 29.2544 52.4743 29.2544 52.5907 29.2392C53.6749 29.1438 54.8287 28.8311 55.9443 28.5269C56.6013 28.3485 57.2793 28.1655 57.9363 28.0262C60.0532 27.58 62.0366 27.3588 63.8255 27.3588C65.0242 27.3468 66.2203 27.4712 67.3909 27.7297C72.1215 28.832 75.7355 32.1075 77.8429 37.2033C79.4229 41.0252 79.4353 44.9567 78.9671 49.6835C78.9223 50.1451 78.826 50.7324 78.7249 51.3437V51.3723C78.6019 52.1189 78.4779 52.8761 78.4531 53.3442C78.437 53.6494 78.3042 53.9367 78.0821 54.1467C77.8601 54.3566 77.5658 54.4732 77.2602 54.4723ZM63.8236 29.5586C64.8554 29.5474 65.8851 29.653 66.8931 29.8733C70.9591 30.8269 73.96 33.5712 75.8099 38.0444C77.2154 41.4448 77.2135 45.0702 76.7787 49.4671C76.7387 49.8666 76.6471 50.4206 76.5498 51.0157C76.4173 51.8166 76.2828 52.6367 76.2514 53.2308C76.2381 53.4976 76.3309 53.7589 76.5096 53.9575C76.6882 54.1562 76.9382 54.2761 77.2049 54.2911H77.2583C77.5163 54.291 77.7644 54.1922 77.9516 54.0148C78.1389 53.8375 78.2512 53.5951 78.2653 53.3376C78.2901 52.8608 78.415 52.0979 78.5361 51.3589L78.5437 51.317C78.6391 50.7038 78.7344 50.1241 78.784 49.6683C79.2494 44.9682 79.2379 41.0633 77.6731 37.272C75.5896 32.2334 72.0185 28.9951 67.3489 27.907C66.1906 27.6514 65.0069 27.5285 63.8207 27.5409C62.0424 27.5409 60.0733 27.7659 57.9697 28.2084C57.3156 28.3466 56.6423 28.5297 55.9901 28.7071C54.8639 29.0132 53.7016 29.3288 52.6021 29.4251C52.4791 29.4366 52.3685 29.4413 52.2617 29.4413C51.0221 29.4413 50.6092 28.7338 49.8187 26.86L49.7414 26.677C49.6644 26.4941 49.535 26.3381 49.3696 26.2285C49.2042 26.1189 49.0101 26.0606 48.8117 26.061C48.646 26.0623 48.4832 26.1045 48.3377 26.1836C48.1921 26.2628 48.0683 26.3765 47.9771 26.5148C47.8859 26.6532 47.8301 26.8118 47.8147 26.9768C47.7992 27.1417 47.8247 27.308 47.8886 27.4608L47.9659 27.642C48.682 29.3422 49.5745 31.4562 52.2779 31.4562C52.4409 31.4562 52.6107 31.4486 52.7823 31.4333C54.0639 31.3218 55.3131 30.9813 56.5222 30.6533L56.5403 30.6476C57.1868 30.4721 57.7981 30.3062 58.3902 30.1813C60.3679 29.7665 62.1959 29.5586 63.8236 29.5586Z" fill="#83AEB5"/>
<path d="M83.3602 53.7041C83.2056 53.7032 83.0528 53.6699 82.9118 53.6064C82.7707 53.5429 82.6446 53.4505 82.5415 53.3352C82.4383 53.22 82.3605 53.0844 82.313 52.9372C82.2654 52.79 82.2493 52.6345 82.2655 52.4807C82.4114 51.1705 82.2188 49.6934 81.8174 49.0478C81.6662 48.7921 81.4573 48.5754 81.2072 48.4151C80.9571 48.2548 80.6729 48.1554 80.3775 48.1248C80.0916 48.1013 79.8042 48.146 79.5389 48.2552C79.2737 48.3645 79.0382 48.5351 78.8518 48.7532C78.7549 48.8604 78.6378 48.9474 78.5072 49.0094C78.3766 49.0713 78.2351 49.1069 78.0908 49.1142C77.9465 49.1215 77.8021 49.1002 77.666 49.0517C77.5299 49.0032 77.4046 48.9283 77.2975 48.8314C77.1903 48.7345 77.1032 48.6174 77.0413 48.4868C76.9793 48.3562 76.9437 48.2148 76.9364 48.0704C76.9292 47.9261 76.9504 47.7817 76.999 47.6456C77.0475 47.5095 77.1223 47.3843 77.2193 47.2771C77.6352 46.8065 78.1554 46.4398 78.7385 46.2064C79.3215 45.9729 79.951 45.8791 80.5768 45.9326C81.2125 45.9929 81.8252 46.2013 82.3659 46.5411C82.9066 46.8809 83.3601 47.3426 83.6902 47.8893C84.5045 49.2061 84.6104 51.3221 84.453 52.7276C84.4222 52.996 84.2938 53.2438 84.0924 53.4238C83.8909 53.6038 83.6304 53.7035 83.3602 53.7041Z" fill="#83AEB5"/>
<path d="M83.3604 53.797C83.3158 53.7968 83.2712 53.7942 83.2269 53.7894C82.9135 53.753 82.6273 53.594 82.4308 53.3473C82.2342 53.1005 82.1433 52.786 82.1779 52.4725C82.3219 51.1794 82.136 49.7281 81.7441 49.0949C81.6002 48.8512 81.4012 48.6445 81.1631 48.4915C80.925 48.3385 80.6543 48.2434 80.3728 48.2139C80.1009 48.1925 79.8278 48.2357 79.5757 48.3399C79.3237 48.4441 79.0998 48.6065 78.9224 48.8136C78.7097 49.0453 78.4139 49.1835 78.0997 49.1981C77.7855 49.2127 77.4782 49.1024 77.2449 48.8914C77.0116 48.6804 76.8712 48.3857 76.8543 48.0716C76.8373 47.7575 76.9453 47.4494 77.1545 47.2145C77.5385 46.7786 78.0107 46.4292 78.5399 46.1895C79.0691 45.9498 79.6431 45.8253 80.2241 45.8242C80.3452 45.8242 80.4672 45.829 80.5874 45.8404C81.2376 45.9018 81.8644 46.115 82.4172 46.4628C82.9701 46.8106 83.4336 47.2833 83.7704 47.8429C84.5981 49.1779 84.7059 51.3158 84.5476 52.7395C84.5145 53.0309 84.3751 53.3 84.156 53.4951C83.937 53.6902 83.6537 53.7977 83.3604 53.797ZM80.2136 48.0241C80.2689 48.0241 80.3251 48.0241 80.3814 48.0317C80.6912 48.0637 80.9892 48.1679 81.2515 48.3358C81.5138 48.5037 81.7331 48.7307 81.8919 48.9986C82.3029 49.6661 82.5012 51.1642 82.3524 52.4925C82.3372 52.7505 82.4215 53.0045 82.588 53.2022C82.7545 53.3998 82.9905 53.526 83.2474 53.5548C83.5042 53.5835 83.7623 53.5126 83.9684 53.3566C84.1744 53.2007 84.3128 52.9716 84.3549 52.7166C84.5104 51.3215 84.4074 49.2323 83.6045 47.9364C83.2822 47.4015 82.839 46.9496 82.3103 46.6173C81.7817 46.2849 81.1824 46.0812 80.5607 46.0226C80.4453 46.0121 80.329 46.0063 80.2136 46.0063C79.6579 46.0085 79.1089 46.1286 78.6031 46.3587C78.0973 46.5889 77.6461 46.9238 77.2794 47.3413C77.1906 47.4396 77.122 47.5545 77.0775 47.6793C77.033 47.8041 77.0136 47.9365 77.0203 48.0688C77.027 48.2011 77.0597 48.3309 77.1165 48.4506C77.1733 48.5703 77.2531 48.6776 77.3514 48.7664C77.4497 48.8553 77.5646 48.9239 77.6894 48.9684C77.8142 49.0128 77.9466 49.0323 78.0789 49.0256C78.2112 49.0189 78.3409 48.9862 78.4606 48.9294C78.5804 48.8726 78.6877 48.7928 78.7765 48.6944C78.9552 48.4866 79.1761 48.3193 79.4246 48.2037C79.673 48.0881 79.9433 48.0268 80.2174 48.0241H80.2136Z" fill="#83AEB5"/>
<path d="M57.0753 53.6938C56.9063 53.6939 56.7395 53.6551 56.5878 53.5803C56.4362 53.5056 56.3038 53.397 56.2009 53.2628C55.3809 52.191 54.7 50.7178 54.4673 49.5087C54.0373 47.2802 53.8809 44.903 55.6307 42.6211C58.3169 39.1186 63.3145 36.873 67.2832 39.6116C67.5234 39.7774 67.688 40.0318 67.7407 40.3189C67.7933 40.6061 67.7298 40.9023 67.564 41.1426C67.3982 41.3828 67.1438 41.5474 66.8567 41.6001C66.5696 41.6527 66.2733 41.5892 66.0331 41.4234C63.1829 39.4562 59.4459 41.2623 57.3767 43.9599C56.22 45.4684 56.2324 47.0418 56.6281 49.0929C56.7702 49.83 57.2336 50.9905 57.9488 51.924C58.0733 52.0871 58.1498 52.2817 58.1697 52.486C58.1895 52.6902 58.1519 52.8959 58.0611 53.0799C57.9703 53.2639 57.8299 53.4189 57.6557 53.5274C57.4815 53.6358 57.2805 53.6935 57.0753 53.6938Z" fill="#83AEB5"/>
<path d="M57.0752 53.7818C56.892 53.7823 56.7111 53.7404 56.5469 53.6593C56.3826 53.5783 56.2393 53.4603 56.1283 53.3146C55.2996 52.2332 54.6131 50.7399 54.3775 49.5232C53.9427 47.2718 53.7863 44.8717 55.558 42.5622C57.5758 39.9313 60.5748 38.2969 63.384 38.2969C64.7976 38.2919 66.1781 38.7249 67.3355 39.5365C67.5958 39.7161 67.774 39.9917 67.8311 40.3027C67.8881 40.6137 67.8193 40.9346 67.6397 41.1948C67.4602 41.455 67.1846 41.6333 66.8736 41.6903C66.5626 41.7474 66.2417 41.6785 65.9815 41.499C65.2121 40.9633 64.2957 40.6792 63.3582 40.6856C61.3204 40.6856 59.0014 41.9929 57.4461 44.0164C56.3104 45.4973 56.3247 47.0497 56.7147 49.0703C56.8549 49.7969 57.3116 50.9421 58.0182 51.8642C58.1534 52.0407 58.2365 52.2515 58.2582 52.4728C58.2798 52.6941 58.2392 52.917 58.1408 53.1164C58.0424 53.3158 57.8902 53.4837 57.7013 53.6011C57.5125 53.7185 57.2946 53.7808 57.0723 53.7808L57.0752 53.7818ZM63.384 38.4781C60.631 38.4781 57.6874 40.0858 55.702 42.6738C53.9751 44.9261 54.1315 47.2804 54.5577 49.4889C54.7885 50.6856 55.4617 52.1436 56.2742 53.2078C56.3538 53.3154 56.454 53.4062 56.569 53.4747C56.6841 53.5433 56.8116 53.5882 56.9442 53.607C57.0768 53.6257 57.2118 53.6179 57.3413 53.5839C57.4709 53.55 57.5923 53.4906 57.6987 53.4092C57.805 53.3278 57.8941 53.226 57.9607 53.1098C58.0273 52.9937 58.0701 52.8654 58.0866 52.7325C58.1031 52.5996 58.093 52.4648 58.0569 52.3358C58.0208 52.2069 57.9593 52.0864 57.8762 51.9815C57.1524 51.0355 56.6832 49.8579 56.5412 49.1113C56.1407 47.0354 56.1292 45.441 57.304 43.9058C58.8888 41.8384 61.2661 40.5035 63.3582 40.5035C64.3329 40.4965 65.2857 40.792 66.0854 41.3493C66.3058 41.493 66.5737 41.5449 66.8318 41.4939C67.09 41.443 67.318 41.2932 67.4673 41.0765C67.6165 40.8598 67.6752 40.5934 67.6308 40.334C67.5865 40.0747 67.4425 39.8429 67.2297 39.6882C66.1033 38.8981 64.7598 38.4764 63.384 38.481V38.4781Z" fill="#83AEB5"/>
<path d="M46.7348 52.5741C46.4586 52.5738 46.1927 52.4695 45.9898 52.282C45.787 52.0946 45.6621 51.8377 45.6401 51.5623C45.6166 51.2283 45.5416 50.8999 45.4179 50.5888C45.0584 49.7658 44.1926 49.1584 43.2762 48.5224C42.9377 48.2869 42.5878 48.0456 42.255 47.7805C40.6397 46.5324 39.3545 44.9079 38.5113 43.0489C38.045 42.0439 37.5711 40.9606 37.3384 39.7477C37.2182 39.1212 37.2936 38.5825 37.3603 38.1076C37.4137 37.7214 37.4557 37.4172 37.3956 37.1102C37.3392 36.8238 37.3989 36.5267 37.5615 36.2843C37.7242 36.0419 37.9765 35.874 38.2629 35.8176C38.5493 35.7612 38.8464 35.8209 39.0888 35.9835C39.3312 36.1462 39.499 36.3985 39.5554 36.6849C39.687 37.3524 39.606 37.9407 39.5402 38.4118C39.4896 38.777 39.4448 39.065 39.5001 39.3329C39.6851 40.3008 40.0999 41.24 40.509 42.123C41.2035 43.6698 42.2714 45.0197 43.6166 46.0517C43.9027 46.2739 44.2088 46.4894 44.5359 46.7192C45.6086 47.4687 46.8244 48.3174 47.4357 49.7096C47.6556 50.244 47.7898 50.8097 47.8333 51.3859C47.857 51.6768 47.7643 51.9651 47.5754 52.1876C47.3866 52.41 47.1172 52.5484 46.8263 52.5722C46.7958 52.5731 46.7653 52.5741 46.7348 52.5741Z" fill="#83AEB5"/>
<path d="M46.735 52.6652C46.4362 52.6634 46.1489 52.5501 45.9294 52.3474C45.71 52.1447 45.5742 51.8672 45.5487 51.5696C45.5264 51.2454 45.4541 50.9266 45.3342 50.6246C44.9852 49.8255 44.1298 49.2286 43.2239 48.5973C42.8826 48.3589 42.5326 48.1148 42.1989 47.8526C40.5718 46.5951 39.2776 44.9581 38.4294 43.0848C37.9603 42.075 37.4825 40.987 37.2489 39.7626C37.1259 39.1218 37.2022 38.5744 37.2699 38.0919C37.3223 37.7105 37.3652 37.4168 37.3061 37.126C37.2449 36.8158 37.3094 36.494 37.4855 36.2314C37.6616 35.9688 37.9347 35.7869 38.2449 35.7257C38.5551 35.6645 38.8769 35.729 39.1395 35.9051C39.4021 36.0811 39.584 36.3543 39.6452 36.6645C39.7806 37.352 39.6977 37.9451 39.6309 38.4219C39.5804 38.7795 39.5413 39.0608 39.5899 39.3134C39.773 40.267 40.1849 41.2063 40.5921 42.0788C41.2794 43.6144 42.3382 44.9548 43.6731 45.9788C43.9506 46.1982 44.2557 46.4108 44.579 46.6358C45.6708 47.3987 46.899 48.2569 47.5178 49.6701C47.7424 50.2137 47.8795 50.7895 47.9241 51.376C47.9491 51.6911 47.8483 52.0033 47.6436 52.2442C47.439 52.4851 47.1472 52.6351 46.8322 52.6614C46.8008 52.6633 46.7683 52.6652 46.735 52.6652ZM38.4781 35.8873C38.4118 35.8877 38.3457 35.8944 38.2807 35.9073C38.0178 35.9594 37.7864 36.1137 37.6373 36.3363C37.4882 36.5589 37.4335 36.8316 37.4854 37.0945C37.5493 37.4149 37.5064 37.7248 37.4511 38.1177C37.3853 38.5945 37.3109 39.1208 37.4291 39.7321C37.6589 40.9355 38.131 42.012 38.5944 43.0114C39.4321 44.8577 40.7088 46.471 42.3133 47.7105C42.6432 47.9699 42.9913 48.2121 43.3279 48.4476C44.2567 49.096 45.133 49.7073 45.503 50.5531C45.6301 50.8741 45.7073 51.2127 45.7318 51.5572C45.7536 51.824 45.8804 52.0712 46.0845 52.2445C46.2885 52.4178 46.553 52.5029 46.8198 52.4812C47.0866 52.4594 47.3339 52.3326 47.5072 52.1285C47.6805 51.9245 47.7656 51.66 47.7438 51.3932C47.7007 50.8267 47.5685 50.2706 47.3519 49.7454C46.754 48.378 45.5487 47.536 44.4846 46.7941C44.1508 46.5615 43.8428 46.3469 43.5615 46.1266C42.2053 45.0847 41.1295 43.7219 40.431 42.1608C40.019 41.2749 39.6023 40.328 39.4154 39.3497C39.3611 39.0636 39.4021 38.7776 39.4536 38.4009C39.5193 37.9356 39.5994 37.3587 39.4707 36.7026C39.4252 36.4728 39.3014 36.2659 39.1204 36.1172C38.9393 35.9685 38.7123 35.8873 38.4781 35.8873Z" fill="#83AEB5"/>
<path d="M52.4704 53.0164C52.2859 53.0161 52.1044 52.9695 51.9426 52.8808C51.7808 52.7922 51.6439 52.6642 51.5444 52.5089C51.4449 52.3535 51.3861 52.1756 51.3733 51.9915C51.3605 51.8074 51.3941 51.6231 51.4711 51.4554C51.7545 50.8399 51.9975 50.2067 52.1987 49.5597C52.3407 49.103 52.4266 48.0636 52.315 47.1758C52.2875 46.8905 52.3723 46.6058 52.5513 46.382C52.7304 46.1583 52.9896 46.0131 53.2739 45.9774C53.5583 45.9416 53.8453 46.0181 54.0742 46.1906C54.3031 46.3631 54.4557 46.618 54.4996 46.9012C54.6398 48.0226 54.5578 49.3804 54.3003 50.21C54.0702 50.9474 53.7927 51.6691 53.4698 52.3708C53.3827 52.563 53.2422 52.726 53.065 52.8405C52.8878 52.9549 52.6814 53.016 52.4704 53.0164Z" fill="#83AEB5"/>
<path d="M52.4709 53.1128C52.2711 53.1124 52.0745 53.0619 51.8993 52.9659C51.724 52.8698 51.5757 52.7313 51.468 52.563C51.3603 52.3947 51.2965 52.202 51.2827 52.0027C51.2688 51.8033 51.3052 51.6037 51.3886 51.4221C51.6696 50.8101 51.9111 50.1808 52.1114 49.5379C52.2516 49.0897 52.3345 48.0675 52.2249 47.1959C52.2054 47.0406 52.2167 46.8829 52.2582 46.7319C52.2996 46.581 52.3704 46.4397 52.4665 46.316C52.6605 46.0664 52.9458 45.9041 53.2595 45.8647C53.5732 45.8254 53.8897 45.9123 54.1393 46.1063C54.2629 46.2024 54.3664 46.3219 54.4438 46.458C54.5213 46.594 54.5712 46.744 54.5906 46.8993C54.7327 48.0331 54.6488 49.4091 54.3875 50.2463C54.157 50.9877 53.8786 51.7133 53.5541 52.4186C53.4585 52.6255 53.3057 52.8008 53.1138 52.9238C52.9219 53.0468 52.6988 53.1123 52.4709 53.1128ZM53.4111 46.0383C53.368 46.0383 53.325 46.0412 53.2824 46.0469C53.0169 46.0804 52.7756 46.218 52.6115 46.4293C52.4473 46.6406 52.3738 46.9085 52.407 47.174C52.5186 48.0694 52.4318 49.1259 52.2868 49.5922C52.0844 50.2431 51.8398 50.8802 51.5545 51.4993C51.4991 51.6197 51.468 51.7499 51.4628 51.8823C51.4577 52.0147 51.4787 52.1469 51.5247 52.2712C51.5706 52.3955 51.6406 52.5096 51.7307 52.6069C51.8207 52.7041 51.929 52.7827 52.0494 52.8381C52.1698 52.8935 52.2999 52.9247 52.4324 52.9298C52.5648 52.9349 52.697 52.9139 52.8213 52.868C52.9456 52.822 53.0597 52.752 53.1569 52.662C53.2542 52.5719 53.3328 52.4636 53.3882 52.3432C53.709 51.6449 53.9845 50.9267 54.213 50.1929C54.4667 49.3777 54.5477 48.0331 54.4085 46.9232C54.3794 46.6788 54.2619 46.4536 54.0782 46.2898C53.8944 46.1261 53.6572 46.0353 53.4111 46.0345V46.0383Z" fill="#83AEB5"/>
<path d="M62.2894 75.4281C61.3042 75.4203 60.3237 75.2922 59.3696 75.0467C58.8823 74.9246 57.6112 74.5003 55.2187 73.6974C50.674 72.1717 40.0333 68.5977 38.4761 68.8142C37.4815 68.9525 36.2572 69.3396 34.8383 69.9642C34.5706 70.0824 34.2669 70.0895 33.994 69.9838C33.7211 69.8781 33.5014 69.6683 33.3831 69.4006C33.2649 69.1329 33.2578 68.8292 33.3635 68.5563C33.4692 68.2835 33.679 68.0637 33.9467 67.9455C35.5534 67.2389 36.9742 66.8012 38.171 66.6305C39.8931 66.3921 45.9816 68.2745 55.9158 71.6072C57.8229 72.248 59.4745 72.801 59.8997 72.9078C61.8069 73.3846 62.9654 73.1939 63.1361 73.1643C65.9711 72.2709 69.0616 69.5837 73.3316 65.8705C75.4104 64.0588 77.7666 62.0134 80.5491 59.7677C81.928 58.6549 83.1447 57.6823 84.1479 56.8813C85.438 55.8496 86.5718 54.9437 86.958 54.6061C86.976 54.43 86.93 54.2533 86.8283 54.1083C86.5422 53.7107 85.7794 53.4952 84.7419 53.5124C82.5554 53.5515 75.1624 58.1743 68.9891 62.7209C66.9866 64.1989 65.8814 65.2765 65.8719 65.287C65.769 65.3885 65.6472 65.4688 65.5133 65.5233C65.3794 65.5777 65.236 65.6053 65.0915 65.6044C64.9469 65.6034 64.804 65.574 64.6708 65.5179C64.5376 65.4617 64.4168 65.3798 64.3152 65.2769C64.2137 65.1741 64.1334 65.0522 64.0789 64.9183C64.0244 64.7844 63.9969 64.6411 63.9978 64.4965C63.9988 64.352 64.0281 64.209 64.0843 64.0758C64.1405 63.9426 64.2224 63.8218 64.3252 63.7203C64.3739 63.6726 65.5353 62.5312 67.6837 60.9492C70.7351 58.7055 80.962 51.3792 84.7019 51.3125H84.8659C87.6312 51.3125 88.5981 52.6046 88.93 53.3846C89.3333 54.3382 89.2017 55.4824 88.6229 56.0641C88.3368 56.3502 87.4672 57.0472 85.5219 58.6025C84.5207 59.4025 83.3078 60.3713 81.9308 61.4822C79.1808 63.7021 76.8398 65.738 74.7791 67.5326C70.285 71.4422 67.0372 74.2657 63.7464 75.2832L63.6949 75.2975C63.2332 75.3962 62.7614 75.44 62.2894 75.4281Z" fill="#3B2222"/>
<path d="M62.2895 75.5239C61.2966 75.5131 60.3088 75.3815 59.3477 75.132C58.8547 75.009 57.5836 74.5837 55.1902 73.7808L55.0948 73.7484C50.7657 72.2961 40.6264 68.8938 38.6402 68.8938C38.5908 68.8931 38.5414 68.8956 38.4924 68.9014C37.5054 69.0387 36.2897 69.423 34.8784 70.0457C34.5906 70.1634 34.2683 70.1641 33.98 70.0477C33.6918 69.9312 33.4603 69.7069 33.3351 69.4223C33.2098 69.1378 33.2005 68.8156 33.3092 68.5244C33.418 68.2331 33.6361 67.9958 33.9172 67.863C35.5306 67.1535 36.96 66.7082 38.1644 66.5414C39.9132 66.2972 45.9311 68.1624 55.9511 71.5218C57.8668 72.1645 59.5079 72.7147 59.9284 72.8206C60.7006 73.0219 61.4944 73.1285 62.2923 73.1381C62.5714 73.143 62.8504 73.1222 63.1257 73.0761C65.933 72.1903 69.014 69.5108 73.2773 65.8023C75.3618 63.9906 77.7171 61.9423 80.4977 59.6995C81.8775 58.5867 83.0943 57.6151 84.0974 56.8131C85.3666 55.7985 86.467 54.9193 86.8761 54.5646C86.8835 54.4223 86.8429 54.2815 86.7607 54.1651C86.4975 53.796 85.7642 53.5929 84.7496 53.6072C82.5832 53.6463 75.214 58.2606 69.0493 62.7977C67.0515 64.27 65.953 65.3446 65.9416 65.3551C65.7155 65.5712 65.4134 65.6898 65.1007 65.6853C64.7879 65.6807 64.4895 65.5534 64.2697 65.3308C64.05 65.1082 63.9266 64.8081 63.9261 64.4953C63.9256 64.1825 64.0481 63.882 64.2671 63.6587C64.3158 63.6101 65.4858 62.462 67.6361 60.8781C70.6875 58.6306 80.9392 51.292 84.7048 51.2243C87.6523 51.169 88.6755 52.5402 89.0187 53.3507C89.4364 54.3319 89.2962 55.5277 88.6926 56.1304C88.4065 56.4164 87.5331 57.1173 85.5831 58.6745C84.5818 59.4755 83.3698 60.4443 81.9938 61.5552C79.2476 63.7713 76.9095 65.8043 74.8479 67.597C70.3375 71.519 67.0849 74.3482 63.7751 75.3714L63.7179 75.3876C63.2488 75.489 62.7693 75.5348 62.2895 75.5239ZM38.6411 68.7107C40.657 68.7107 50.4491 71.9957 55.154 73.5739L55.2493 73.6063C57.638 74.4083 58.9072 74.8326 59.3925 74.9537C60.3393 75.1993 61.3124 75.3289 62.2904 75.3399C62.755 75.3503 63.2191 75.3055 63.6731 75.2064L63.7207 75.193C66.9934 74.1813 70.2345 71.3626 74.7201 67.4615C76.7903 65.6612 79.1294 63.6273 81.8785 61.4083C83.2545 60.2984 84.4683 59.3286 85.4696 58.5286C87.4139 56.9743 88.2845 56.2763 88.5639 55.9969C89.117 55.4438 89.24 54.3348 88.85 53.4222C88.5229 52.6537 87.555 51.354 84.7077 51.4064C80.9945 51.4732 70.7857 58.786 67.7419 61.026C65.6021 62.6022 64.4416 63.7407 64.393 63.7913C64.2124 63.9813 64.1128 64.2341 64.1153 64.4963C64.1179 64.7585 64.2224 65.0093 64.4067 65.1958C64.591 65.3822 64.8407 65.4896 65.1028 65.4951C65.3649 65.5006 65.6189 65.4039 65.811 65.2254C65.8205 65.2159 66.9257 64.1336 68.9377 62.6508C75.1234 58.0957 82.5383 53.4642 84.7439 53.4241C85.831 53.406 86.6034 53.633 86.9066 54.0583C87.0218 54.2212 87.0737 54.4205 87.0525 54.619C87.0498 54.6417 87.0389 54.6627 87.022 54.6781C86.6329 55.0185 85.5096 55.9177 84.209 56.9561C83.2049 57.7571 81.9891 58.7288 80.6102 59.8426C77.8316 62.0844 75.4782 64.1336 73.4004 65.9378C69.1093 69.6662 66.0207 72.3552 63.1677 73.2554C62.8777 73.3054 62.5837 73.3281 62.2895 73.3231C61.4773 73.3119 60.6695 73.2024 59.8836 72.997C59.4555 72.8902 57.8106 72.3381 55.9073 71.6992C46.7073 68.6125 40.595 66.7025 38.5124 66.7025C38.4043 66.7018 38.2964 66.7082 38.1891 66.7216C37.0001 66.8865 35.5878 67.3271 33.9935 68.0299C33.7821 68.1237 33.6093 68.2872 33.504 68.4931C33.3987 68.699 33.3672 68.9348 33.4149 69.1611C33.4625 69.3874 33.5864 69.5905 33.7659 69.7364C33.9453 69.8823 34.1694 69.9622 34.4006 69.9627C34.5406 69.9629 34.679 69.9337 34.8069 69.8769C36.2372 69.2485 37.4663 68.8595 38.4695 68.7203C38.5252 68.7135 38.5812 68.7103 38.6373 68.7107H38.6411Z" fill="#3B2222"/>
<path d="M31.721 71.5926C31.1489 71.5926 30.8304 71.1158 30.8133 71.0853C30.7541 70.99 30.265 70.1613 31.2633 69.4795C31.3881 69.4009 31.5273 69.348 31.6728 69.3237C31.8182 69.2995 31.9671 69.3044 32.1106 69.3383C32.2541 69.3722 32.3895 69.4343 32.5088 69.521C32.6281 69.6077 32.7289 69.7174 32.8053 69.8435C32.8818 69.9696 32.9324 70.1096 32.9542 70.2555C32.976 70.4013 32.9685 70.5501 32.9322 70.693C32.8958 70.8359 32.8314 70.9702 32.7427 71.088C32.6539 71.2058 32.5426 71.3047 32.4152 71.379C32.2076 71.512 31.9676 71.5859 31.721 71.5926Z" fill="#3B2222"/>
<path d="M31.721 71.6831C31.1069 71.6831 30.7722 71.1901 30.736 71.1338C30.6721 71.0327 30.1438 70.1326 31.2127 69.4021C31.4439 69.2448 31.723 69.1736 32.0013 69.2011C32.2796 69.2286 32.5394 69.3529 32.7353 69.5525C32.9312 69.752 33.0508 70.0141 33.0731 70.2928C33.0955 70.5716 33.0192 70.8493 32.8576 71.0776C32.7584 71.2341 32.6234 71.3648 32.4638 71.459C32.2411 71.5996 31.9843 71.6771 31.721 71.6831ZM31.8831 69.3773C31.6788 69.3764 31.4792 69.438 31.3109 69.5538C30.4089 70.1736 30.7998 70.8964 30.8952 71.0394C30.9066 71.0575 31.1994 71.5038 31.7258 71.5038C31.9556 71.4963 32.1792 71.4271 32.3732 71.3035C32.5091 71.2231 32.6241 71.1117 32.7089 70.9784C32.8168 70.8274 32.8811 70.6497 32.8946 70.4646C32.9081 70.2796 32.8704 70.0944 32.7856 69.9293C32.7008 69.7643 32.5721 69.6258 32.4137 69.5291C32.2554 69.4324 32.0734 69.3812 31.8879 69.3812L31.8831 69.3773Z" fill="#3B2222"/>
<path d="M62.5232 62.2226C58.3857 62.2226 53.6551 62.0319 52.2343 61.9756C52.0899 61.9694 51.9481 61.9347 51.8171 61.8737C51.6861 61.8126 51.5684 61.7264 51.4708 61.6199C51.3731 61.5134 51.2974 61.3886 51.2479 61.2529C51.1985 61.1171 51.1762 60.9729 51.1825 60.8285C51.1887 60.6841 51.2234 60.5424 51.2844 60.4114C51.3454 60.2804 51.4317 60.1627 51.5382 60.065C51.6447 59.9673 51.7694 59.8916 51.9052 59.8421C52.041 59.7927 52.1852 59.7704 52.3296 59.7767C58.2102 60.0265 67.0669 60.1791 68.3494 59.7347C69.0856 59.4801 69.5252 58.7011 69.5252 57.6512C69.5252 56.7682 68.4762 56.2466 68.0128 56.0588C66.6149 55.6001 48.1311 52.4238 44.477 53.282C42.7072 53.6968 37.5589 55.8728 33.5244 57.7199C33.3929 57.78 33.2509 57.8136 33.1064 57.8188C32.962 57.824 32.8179 57.8007 32.6824 57.7503C32.5469 57.6998 32.4227 57.6231 32.3169 57.5247C32.211 57.4262 32.1256 57.3078 32.0655 57.1763C32.0054 57.0449 31.9718 56.9028 31.9665 56.7583C31.9613 56.6139 31.9846 56.4698 32.0351 56.3343C32.0856 56.1988 32.1622 56.0746 32.2607 55.9688C32.3592 55.8629 32.4775 55.7775 32.609 55.7174C33.4863 55.3159 41.2626 51.7744 43.9745 51.1403C48.339 50.1171 67.5713 53.5128 68.8167 54.0105C70.6656 54.7505 71.726 56.0778 71.726 57.6522C71.726 59.6546 70.7085 61.248 69.0703 61.8154C68.1682 62.1253 65.5011 62.2226 62.5232 62.2226Z" fill="#3B2222"/>
<path d="M62.5232 62.3134C58.3666 62.3134 53.5931 62.1227 52.2305 62.0655C51.9143 62.0529 51.6162 61.9152 51.4016 61.6827C51.187 61.4502 51.0735 61.142 51.0862 60.8259C51.0988 60.5098 51.2365 60.2116 51.469 59.997C51.7015 59.7824 52.0097 59.669 52.3258 59.6816C55.8273 59.8304 59.8313 59.9229 62.7759 59.9229C65.8731 59.9229 67.7869 59.8275 68.3066 59.6454C69.0036 59.4032 69.4194 58.6565 69.4194 57.6477C69.4194 56.8171 68.4029 56.3127 67.9652 56.1391C66.7113 55.7291 52.1456 53.2232 46.3241 53.2232C45.5107 53.2232 44.8938 53.2718 44.4847 53.3671C42.7196 53.781 37.579 55.9551 33.5492 57.7993C33.3939 57.8713 33.2246 57.9084 33.0534 57.908C32.7811 57.9084 32.517 57.8155 32.3048 57.6449C32.0927 57.4743 31.9453 57.2362 31.8873 56.9702C31.8292 56.7043 31.864 56.4264 31.9857 56.1829C32.1075 55.9394 32.3089 55.745 32.5566 55.6319C33.4358 55.2294 41.2178 51.6851 43.9402 51.0462C44.4875 50.9175 45.2943 50.8555 46.3375 50.8555C53.1125 50.8555 67.7516 53.4902 68.8415 53.924C70.7267 54.6783 71.808 56.0371 71.808 57.6505C71.808 59.6912 70.7677 61.3198 69.0923 61.9006C68.3056 62.1723 66.0943 62.3134 62.5232 62.3134ZM52.2829 59.8666C52.0191 59.8664 51.7656 59.9695 51.5769 60.1539C51.3881 60.3383 51.2792 60.5893 51.2733 60.8531C51.2675 61.1169 51.3652 61.3724 51.5455 61.565C51.7259 61.7576 51.9745 61.8719 52.2381 61.8834C53.6007 61.9406 58.3695 62.1304 62.5232 62.1304C66.0733 62.1304 68.2646 61.995 69.0351 61.727C70.6352 61.173 71.6278 59.6111 71.6278 57.6505C71.6278 56.1153 70.5894 54.8185 68.7767 54.0938C67.6953 53.6618 53.1039 51.0424 46.3451 51.0424C45.3162 51.0424 44.5238 51.1063 43.9898 51.2331C41.2845 51.8672 33.5178 55.4059 32.6424 55.8102C32.4333 55.9064 32.2634 56.0711 32.1608 56.2771C32.0581 56.4831 32.0289 56.7179 32.078 56.9428C32.1271 57.1676 32.2514 57.369 32.4306 57.5135C32.6097 57.658 32.8328 57.7369 33.0629 57.7373C33.2081 57.7365 33.3513 57.7039 33.4825 57.642C37.5208 55.793 42.6758 53.6141 44.4484 53.1974C44.869 53.1021 45.5021 53.0487 46.3298 53.0487C52.1647 53.0487 66.7694 55.5622 68.0329 55.9761C68.5097 56.1668 69.6082 56.7151 69.6082 57.6563C69.6082 58.7471 69.1457 59.5586 68.3685 59.8266C67.8183 60.0173 65.937 60.1126 62.775 60.1126C59.8284 60.1126 55.8206 60.0173 52.3182 59.8704L52.2829 59.8666Z" fill="#3B2222"/>
<path d="M30.1982 59.1714C29.9685 59.1744 29.7437 59.1057 29.5548 58.975C29.366 58.8443 29.2226 58.6579 29.1445 58.4419C29.1092 58.3466 28.8289 57.4683 29.8416 57.0001C29.9727 56.9395 30.1146 56.9052 30.259 56.8993C30.4034 56.8935 30.5475 56.9161 30.6832 56.966C30.8188 57.0158 30.9434 57.0919 31.0496 57.1899C31.1559 57.2879 31.2418 57.4058 31.3024 57.537C31.3446 57.6303 31.3744 57.7287 31.3911 57.8297C31.4484 58.1057 31.3976 58.3932 31.2491 58.6328C31.1005 58.8723 30.8657 59.0457 30.593 59.1171C30.4642 59.1519 30.3316 59.1702 30.1982 59.1714Z" fill="#3B2222"/>
<path d="M30.1981 59.265C29.9489 59.2692 29.7045 59.1953 29.4994 59.0538C29.2942 58.9122 29.1384 58.71 29.0539 58.4754C29.0157 58.3686 28.7125 57.4208 29.7986 56.9192C29.9551 56.8463 30.1256 56.8085 30.2983 56.8086C30.5911 56.8143 30.8722 56.9248 31.0905 57.1202C31.3088 57.3155 31.4497 57.5827 31.4877 57.8732C31.5257 58.1636 31.4582 58.458 31.2975 58.703C31.1368 58.9479 30.8936 59.127 30.612 59.2078C30.477 59.2443 30.338 59.2636 30.1981 59.265ZM30.3021 56.9907C30.156 56.9909 30.0117 57.0235 29.8797 57.0861C28.9413 57.52 29.1979 58.3257 29.2303 58.4144C29.3021 58.6125 29.4339 58.7833 29.6074 58.903C29.7809 59.0226 29.9874 59.0852 30.1981 59.0819C30.3238 59.0808 30.4488 59.0635 30.57 59.0304C30.8202 58.9651 31.0356 58.8062 31.1718 58.5864C31.3079 58.3666 31.3544 58.1029 31.3014 57.8499C31.2866 57.7557 31.259 57.6639 31.2194 57.5772C31.138 57.4024 31.0084 57.2545 30.846 57.1506C30.6835 57.0468 30.4949 56.9913 30.3021 56.9907Z" fill="#3B2222"/>
<path d="M64.9497 65.4506C64.7185 65.4508 64.4931 65.3777 64.3061 65.2418C63.2247 64.4599 60.3087 62.8922 58.6324 62.1904C58.499 62.1347 58.3779 62.0532 58.276 61.9507C58.1741 61.8482 58.0934 61.7266 58.0385 61.5929C57.9277 61.3229 57.9286 61.0198 58.0411 60.7505C58.1537 60.4812 58.3686 60.2676 58.6386 60.1567C58.9087 60.0458 59.2117 60.0468 59.481 60.1593C61.1393 60.8525 64.287 62.5108 65.5953 63.4577C65.7838 63.594 65.9242 63.7866 65.9964 64.0077C66.0686 64.2289 66.0688 64.4672 65.9971 64.6885C65.9254 64.9098 65.7854 65.1027 65.5972 65.2394C65.409 65.3762 65.1823 65.4498 64.9497 65.4497V65.4506Z" fill="#3B2222"/>
<path d="M64.9497 65.5412C64.6993 65.5415 64.4552 65.4623 64.2527 65.3152C63.1751 64.5352 60.2677 62.9732 58.5971 62.2752C58.4525 62.2149 58.3211 62.1266 58.2106 62.0155C58.1001 61.9044 58.0125 61.7726 57.9529 61.6277C57.8933 61.4827 57.8629 61.3274 57.8633 61.1707C57.8637 61.014 57.895 60.8589 57.9553 60.7143C58.0157 60.5696 58.104 60.4383 58.2151 60.3278C58.3262 60.2173 58.458 60.1297 58.6029 60.0701C58.7479 60.0105 58.9031 59.9801 59.0599 59.9805C59.2166 59.9809 59.3717 60.0122 59.5163 60.0725C61.1793 60.7677 64.3366 62.4307 65.6496 63.3804C65.8539 63.5281 66.0061 63.7368 66.0844 63.9764C66.1626 64.216 66.1629 64.4743 66.0851 64.7141C66.0073 64.9539 65.8555 65.1628 65.6515 65.3109C65.4475 65.459 65.2018 65.5386 64.9497 65.5383V65.5412ZM59.0567 60.1679C58.8232 60.1674 58.5968 60.248 58.4161 60.3958C58.2354 60.5436 58.1115 60.7495 58.0656 60.9784C58.0197 61.2073 58.0546 61.4451 58.1644 61.6511C58.2742 61.8572 58.4521 62.0188 58.6676 62.1084C60.3469 62.8102 63.2733 64.3835 64.3594 65.1683C64.4668 65.246 64.5885 65.3017 64.7174 65.3323C64.8463 65.363 64.98 65.3679 65.1108 65.3469C65.2416 65.3258 65.367 65.2793 65.4798 65.2098C65.5927 65.1403 65.6907 65.0492 65.7683 64.9418C65.846 64.8345 65.9017 64.7129 65.9323 64.5839C65.963 64.455 65.9679 64.3213 65.9469 64.1905C65.9259 64.0597 65.8793 63.9343 65.8098 63.8215C65.7403 63.7086 65.6492 63.6106 65.5419 63.533C64.2383 62.5909 61.1002 60.9374 59.4458 60.2461C59.3226 60.1942 59.1903 60.1676 59.0567 60.1679Z" fill="#3B2222"/>
<path d="M78.931 29.1146C78.692 29.1149 78.4594 29.0374 78.2684 28.8938C78.0774 28.7503 77.9383 28.5484 77.8722 28.3188C77.806 28.0891 77.8165 27.8442 77.9018 27.621C77.9872 27.3978 78.143 27.2085 78.3455 27.0816C80.1353 25.9603 84.3243 23.3341 84.4959 20.1903C84.5779 18.6951 83.2811 17.1312 81.8784 17.033C81.4627 17.0044 81.106 17.0378 80.8982 17.1284C80.2307 17.4144 79.6786 17.8798 79.6109 18.0629C79.5731 18.2043 79.5075 18.3368 79.4179 18.4525C79.3284 18.5683 79.2166 18.665 79.0891 18.737C78.9617 18.8091 78.8212 18.855 78.6758 18.872C78.5304 18.8891 78.3831 18.8769 78.2425 18.8363C78.1018 18.7957 77.9707 18.7275 77.8568 18.6356C77.7429 18.5437 77.6484 18.43 77.579 18.3011C77.5095 18.1722 77.4665 18.0308 77.4524 17.8851C77.4383 17.7394 77.4534 17.5924 77.4968 17.4526C77.8916 16.0756 79.6833 15.2537 80.039 15.102C80.5787 14.8732 81.2481 14.7855 82.0319 14.8398C84.6189 15.021 86.8407 17.6299 86.6929 20.3123C86.4879 24.0875 82.9483 26.7965 79.5136 28.9487C79.3391 29.0583 79.137 29.1159 78.931 29.1146Z" fill="#3B2222"/>
<path d="M78.9308 29.2074C78.6721 29.2076 78.4203 29.1236 78.2135 28.9681C78.0067 28.8126 77.8562 28.594 77.7845 28.3453C77.7129 28.0967 77.7242 27.8315 77.8166 27.5898C77.909 27.3482 78.0775 27.1431 78.2967 27.0056C80.0741 25.8919 84.2355 23.2868 84.4043 20.1858C84.4834 18.7364 83.2295 17.2202 81.8716 17.1258C81.4721 17.0972 81.125 17.1306 80.9343 17.2116C80.2734 17.492 79.7509 17.9478 79.6946 18.0927C79.6224 18.3403 79.4718 18.5578 79.2655 18.7125C79.0592 18.8673 78.8082 18.9509 78.5503 18.9509C78.4391 18.9508 78.3284 18.9354 78.2214 18.9051C77.9177 18.8171 77.6612 18.6124 77.508 18.3358C77.3549 18.0592 77.3175 17.7331 77.4042 17.429C77.8113 16.012 79.6374 15.1729 79.9988 15.0194C80.5509 14.7858 81.2384 14.6942 82.0337 14.7505C84.6675 14.9345 86.9303 17.5883 86.7806 20.3193C86.5727 24.1335 83.013 26.8626 79.5592 29.0282C79.3707 29.1456 79.1529 29.2077 78.9308 29.2074ZM81.6008 16.9322C81.6962 16.9322 81.7915 16.9322 81.8869 16.9427C83.3353 17.0438 84.6732 18.6591 84.5883 20.1963C84.4148 23.3888 80.2019 26.0311 78.3959 27.1573C78.1691 27.2994 78.0082 27.5258 77.9483 27.7866C77.8885 28.0474 77.9348 28.3213 78.0769 28.548C78.219 28.7748 78.4454 28.9357 78.7062 28.9956C78.967 29.0554 79.2409 29.0091 79.4677 28.867C82.8824 26.7272 86.4001 24.0353 86.6042 20.3031C86.7481 17.6674 84.5673 15.1042 82.027 14.9269C81.2642 14.8735 80.5967 14.9603 80.076 15.1824C79.728 15.3302 77.9696 16.136 77.5863 17.471C77.5495 17.5985 77.5383 17.732 77.5532 17.8639C77.5681 17.9958 77.6088 18.1234 77.6731 18.2396C77.7608 18.3969 77.8889 18.528 78.044 18.6195C78.1992 18.711 78.3759 18.7595 78.5561 18.7602C78.7746 18.7595 78.9871 18.688 79.1617 18.5565C79.3364 18.425 79.4638 18.2406 79.5249 18.0307C79.6117 17.7942 80.2143 17.3136 80.8599 17.0371C81.0967 16.9556 81.3468 16.92 81.597 16.9322H81.6008Z" fill="#3B2222"/>
<path d="M78.503 29.1174C78.2967 29.1175 78.0946 29.059 77.9204 28.9486C75.217 27.2542 70.6914 24.4192 70.4654 20.3132C70.3185 17.6289 72.5413 15.0209 75.1283 14.8397C75.9112 14.7854 76.5806 14.8741 77.1203 15.102C77.476 15.2536 79.2687 16.0756 79.6635 17.4525C79.7359 17.7302 79.697 18.0252 79.555 18.2746C79.413 18.524 79.1792 18.7081 78.9034 18.7876C78.6277 18.8671 78.3318 18.8357 78.0788 18.7001C77.8259 18.5645 77.6359 18.3355 77.5494 18.0618C77.4798 17.8778 76.9325 17.4134 76.2602 17.1283C76.0533 17.0406 75.6976 17.0072 75.2818 17.0329C73.8791 17.1283 72.5813 18.695 72.6634 20.1902C72.8264 23.1567 76.7465 25.6131 79.0885 27.0816C79.291 27.2084 79.4467 27.3977 79.5321 27.6209C79.6175 27.8441 79.6279 28.089 79.5618 28.3187C79.4957 28.5483 79.3566 28.7502 79.1656 28.8938C78.9745 29.0374 78.742 29.1149 78.503 29.1146V29.1174Z" fill="#3B2222"/>
<path d="M78.5028 29.2064C78.2794 29.2064 78.0606 29.1432 77.8715 29.0242C75.1529 27.3202 70.6025 24.4681 70.3736 20.3154C70.2249 17.5844 72.4877 14.9306 75.1214 14.7466C75.9167 14.6903 76.6042 14.7819 77.1554 15.0155C77.5177 15.169 79.3486 16.0091 79.7519 17.4251C79.8385 17.729 79.8011 18.0548 79.6479 18.3311C79.4948 18.6074 79.2383 18.8117 78.9347 18.8993C78.8277 18.9299 78.717 18.9456 78.6057 18.9461C78.3481 18.9451 78.0976 18.8611 77.8914 18.7065C77.6853 18.5519 77.5345 18.335 77.4615 18.0878C77.4071 17.9448 76.8941 17.4966 76.2218 17.2125C76.0311 17.1324 75.6859 17.099 75.2854 17.1276C73.9276 17.223 72.6727 18.7382 72.7509 20.1876C72.912 23.1074 76.8064 25.5476 79.1331 27.0065C79.3527 27.1438 79.5216 27.3488 79.6143 27.5905C79.707 27.8323 79.7184 28.0977 79.6469 28.3466C79.5754 28.5954 79.4247 28.8142 79.2178 28.9699C79.0109 29.1255 78.7588 29.2095 78.4999 29.2092L78.5028 29.2064ZM75.5667 14.9134C75.4275 14.9134 75.2807 14.9182 75.1348 14.9287C72.5945 15.1061 70.4127 17.6692 70.5577 20.3049C70.7808 24.3642 75.2807 27.1839 77.9688 28.8688C78.1955 29.0111 78.4694 29.0574 78.7304 28.9977C78.9913 28.938 79.2178 28.7771 79.36 28.5503C79.5023 28.3236 79.5486 28.0497 79.4889 27.7887C79.4292 27.5278 79.2683 27.3013 79.0415 27.1591C76.6824 25.6811 72.7385 23.2085 72.5726 20.1981C72.4886 18.6571 73.8275 17.0456 75.2769 16.9445C75.7126 16.915 76.0769 16.9512 76.2972 17.0399C76.9456 17.3145 77.5492 17.7951 77.6322 18.0249C77.6923 18.2362 77.8196 18.4221 77.9947 18.5547C78.1698 18.6873 78.3833 18.7594 78.6029 18.7601C78.697 18.7602 78.7907 18.7474 78.8813 18.722C79.0087 18.6854 79.1276 18.6241 79.2313 18.5416C79.3349 18.4591 79.4214 18.357 79.4855 18.2411C79.5497 18.1251 79.5905 17.9977 79.6054 17.8661C79.6204 17.7344 79.6092 17.6011 79.5727 17.4738C79.1912 16.1388 77.43 15.3301 77.081 15.1852C76.5993 14.9948 76.0845 14.9024 75.5667 14.9134Z" fill="#3B2222"/>
<path d="M26.984 90.221C28.34 90.221 29.408 89.621 29.876 88.589L28.424 87.797C28.076 88.421 27.56 88.685 26.972 88.685C26.024 88.685 25.28 88.025 25.28 86.897C25.28 85.769 26.024 85.109 26.972 85.109C27.56 85.109 28.076 85.385 28.424 85.997L29.876 85.217C29.408 84.161 28.34 83.573 26.984 83.573C24.884 83.573 23.384 84.953 23.384 86.897C23.384 88.841 24.884 90.221 26.984 90.221ZM32.7418 84.521V83.669H30.9538V90.125H32.8258V87.077C32.8258 85.841 33.5098 85.277 34.5418 85.277C34.6858 85.277 34.8058 85.289 34.9618 85.301V83.573C33.9658 83.573 33.1978 83.897 32.7418 84.521ZM40.7538 83.669V86.861C40.7538 88.049 40.1298 88.601 39.2658 88.601C38.4378 88.601 37.9578 88.121 37.9578 87.041V83.669H36.0858V87.317C36.0858 89.309 37.2258 90.221 38.8458 90.221C39.6378 90.221 40.3578 89.921 40.8498 89.357V90.125H42.6258V83.669H40.7538ZM50.6841 86.921C50.6841 84.845 49.2201 83.573 47.3241 83.573C45.3561 83.573 43.8801 84.965 43.8801 86.897C43.8801 88.817 45.3321 90.221 47.5641 90.221C48.7281 90.221 49.6281 89.861 50.2281 89.177L49.2321 88.097C48.7881 88.517 48.2961 88.721 47.6121 88.721C46.6281 88.721 45.9441 88.229 45.7641 87.425H50.6481C50.6601 87.269 50.6841 87.065 50.6841 86.921ZM47.3361 84.989C48.1761 84.989 48.7881 85.517 48.9201 86.333H45.7401C45.8721 85.505 46.4841 84.989 47.3361 84.989ZM51.9304 90.125H53.8024V81.221H51.9304V90.125ZM59.6685 88.493C59.4645 88.649 59.1885 88.733 58.9125 88.733C58.4085 88.733 58.1085 88.433 58.1085 87.881V85.253H59.7165V83.813H58.1085V82.241H56.2365V83.813H55.2405V85.253H56.2365V87.905C56.2365 89.441 57.1245 90.221 58.6485 90.221C59.2245 90.221 59.7885 90.089 60.1725 89.813L59.6685 88.493ZM65.7142 83.669L63.8902 88.049L62.0782 83.669H60.1462L62.9422 90.173L62.9182 90.233C62.6662 90.809 62.3782 91.037 61.8622 91.037C61.4902 91.037 61.0942 90.881 60.8062 90.629L60.1222 91.961C60.5422 92.333 61.2622 92.549 61.9222 92.549C63.0862 92.549 63.9742 92.081 64.5982 90.521L67.5142 83.669H65.7142ZM73.7285 83.537C73.7285 82.901 74.0285 82.601 74.5805 82.601C74.8685 82.601 75.1325 82.685 75.3365 82.829L75.8285 81.473C75.4805 81.233 74.9285 81.125 74.4005 81.125C72.7925 81.125 71.9045 82.073 71.9045 83.525V83.813H70.9085V85.253H71.9045V90.125H73.7765V85.253H75.3845V83.813H73.7285V83.537ZM79.0661 84.521V83.669H77.2781V90.125H79.1501V87.077C79.1501 85.841 79.8341 85.277 80.8661 85.277C81.0101 85.277 81.1301 85.289 81.2861 85.301V83.573C80.2901 83.573 79.5221 83.897 79.0661 84.521ZM88.6646 86.921C88.6646 84.845 87.2006 83.573 85.3046 83.573C83.3366 83.573 81.8606 84.965 81.8606 86.897C81.8606 88.817 83.3126 90.221 85.5446 90.221C86.7086 90.221 87.6086 89.861 88.2086 89.177L87.2126 88.097C86.7686 88.517 86.2766 88.721 85.5926 88.721C84.6086 88.721 83.9246 88.229 83.7446 87.425H88.6286C88.6406 87.269 88.6646 87.065 88.6646 86.921ZM85.3166 84.989C86.1566 84.989 86.7686 85.517 86.9006 86.333H83.7206C83.8526 85.505 84.4646 84.989 85.3166 84.989ZM96.2349 86.921C96.2349 84.845 94.7709 83.573 92.8749 83.573C90.9069 83.573 89.4309 84.965 89.4309 86.897C89.4309 88.817 90.8829 90.221 93.1149 90.221C94.2789 90.221 95.1789 89.861 95.7789 89.177L94.7829 88.097C94.3389 88.517 93.8469 88.721 93.1629 88.721C92.1789 88.721 91.4949 88.229 91.3149 87.425H96.1989C96.2109 87.269 96.2349 87.065 96.2349 86.921ZM92.8869 84.989C93.7269 84.989 94.3389 85.517 94.4709 86.333H91.2909C91.4229 85.505 92.0349 84.989 92.8869 84.989Z" fill="#3B2222"/>
</g>
<defs>
<clipPath id="clip0_787_1198">
<rect width="118.536" height="100" fill="white"/>
</clipPath>
</defs>
</svg>
