<svg width="73" height="68" viewBox="0 0 73 68" fill="none" xmlns="http://www.w3.org/2000/svg">
<g clip-path="url(#clip0_831_511)">
<path d="M66.917 36.8795C66.6152 36.8601 66.3181 36.9614 66.0909 37.161C65.8638 37.3607 65.7252 37.6423 65.7056 37.9441C65.2618 44.826 62.5363 51.0362 58.2537 55.8306C58.1981 55.7963 58.1446 55.762 58.0918 55.727C55.4206 53.9867 53.39 52.4157 51.7121 50.7879C50.6303 47.8834 49.3797 44.8706 47.9844 41.8316L47.7519 41.3233C46.4808 38.5389 45.1664 35.6591 43.0186 33.2897C42.4856 32.7011 41.921 32.1386 41.3722 31.5946L41.3482 31.5706C40.7493 30.9759 40.1299 30.3605 39.5591 29.715C39.0789 29.1724 38.5905 28.5907 38.1583 28.0775C37.5924 27.4053 36.951 26.6431 36.3021 25.9311L36.1779 25.7939C35.778 25.348 35.1729 24.675 34.4725 24.3046C33.9148 24.0096 33.364 23.9479 32.8694 24.1228C32.6789 24.1871 32.5036 24.2894 32.3538 24.4235C32.2041 24.5576 32.0831 24.7206 31.9982 24.9028C31.7759 25.3754 31.8013 25.9386 31.9049 26.449L31.4693 26.0635C31.0776 25.7184 30.6769 25.335 30.2475 24.9234C29.1122 23.834 27.9378 22.7076 26.5432 21.9736C25.5512 21.4495 24.5847 21.195 23.5879 21.195C23.4892 21.195 23.3911 21.195 23.2936 21.2019C22.933 20.9411 22.5556 20.7043 22.1638 20.4933C21.4374 20.1091 20.7644 19.9143 20.1642 19.9143C19.5663 19.9062 18.9875 20.1245 18.5439 20.5255C18.0575 20.4295 17.6116 20.4926 17.2274 20.7073C16.0304 21.3768 16.5078 22.9518 16.6649 23.4691C16.9688 24.4775 17.4621 25.4111 17.8064 26.0251C18.4924 27.2516 19.116 28.5488 19.7176 29.8042L19.9707 30.329C20.7651 31.9822 21.6486 33.5854 22.5027 35.1371C23.0199 36.0769 23.5481 37.0366 24.0571 38.0059C23.2765 37.1285 21.6171 35.3689 20.2842 34.6651C19.66 34.3358 19.1414 34.2535 18.692 34.4072C18.5171 34.4688 18.3568 34.5662 18.2216 34.6931C18.0864 34.8201 17.9791 34.9739 17.9066 35.1446C17.6239 35.7702 17.7852 36.448 17.9018 36.9378L17.932 37.0667C18.1085 37.8265 18.3556 38.5681 18.6701 39.2818C18.8985 39.8066 19.1167 40.3458 19.2964 40.7978C19.3072 40.8268 19.32 40.855 19.3348 40.8822C20.1017 42.3022 20.8179 43.9541 21.5883 46.0806C21.5968 46.1041 21.6069 46.1271 21.6185 46.1492L21.626 46.1643L21.6692 46.2494C21.6761 46.3053 21.6889 46.3602 21.7076 46.4133C22.2674 47.9801 23.0179 49.2506 24.0695 50.4106C24.2471 50.6218 24.4027 50.8505 24.5339 51.0932C24.6787 51.3545 24.8458 51.6028 25.0333 51.8354C25.2062 52.0412 25.3873 52.234 25.5636 52.4226C25.7783 52.6538 26.0012 52.8932 26.1995 53.1395C27.713 55.0028 29.4528 56.6702 31.3787 58.1033C33.2213 59.4684 35.3142 60.7491 38.1652 62.257C38.5768 62.476 38.992 62.6923 39.411 62.9059C40.5771 63.5068 41.8181 64.068 42.9095 64.5626L43.4158 64.7937C41.8756 65.1817 40.3074 65.4485 38.7257 65.5915C22.4025 67.076 7.91858 54.9999 6.43684 38.6775C6.41557 38.4442 6.39705 38.211 6.38128 37.9791C6.37354 37.828 6.33582 37.68 6.2703 37.5436C6.20478 37.4073 6.11278 37.2853 5.99965 37.1848C5.88652 37.0844 5.75453 37.0075 5.61138 36.9585C5.46822 36.9096 5.31675 36.8897 5.16581 36.8999C5.01487 36.91 4.86746 36.9502 4.73218 37.0179C4.59691 37.0857 4.47647 37.1796 4.37788 37.2944C4.27929 37.4091 4.20452 37.5424 4.15793 37.6863C4.11135 37.8302 4.09388 37.982 4.10654 38.1328C4.12369 38.3825 4.14289 38.6329 4.16553 38.8832C5.67608 55.4842 19.6655 68.0035 36.0167 68.0035C36.9805 68.0035 37.9553 67.9596 38.9335 67.8704C46.5289 67.1814 53.6287 63.8033 58.9546 58.3443C64.2804 52.8854 67.4823 45.7044 67.9838 38.0944C67.9938 37.9445 67.9742 37.7941 67.9259 37.6518C67.8777 37.5096 67.8019 37.3782 67.7028 37.2653C67.6037 37.1525 67.4832 37.0603 67.3484 36.994C67.2136 36.9278 67.067 36.8889 66.917 36.8795ZM46.7099 63.762C45.7564 63.2921 44.7891 62.8572 43.8466 62.4339L43.8157 62.4202C42.7112 61.9236 41.5691 61.4098 40.4873 60.8541C40.0514 60.6305 39.617 60.4039 39.1839 60.1743C36.3947 58.7008 34.3518 57.4427 32.5566 56.0981C30.4574 54.5204 28.4777 52.4219 26.5027 49.6732C25.0054 47.5925 23.7272 45.3627 22.6886 43.0191C22.4382 42.4531 22.2201 41.8604 22.0026 41.2794C21.7927 40.7142 21.5766 40.1304 21.3283 39.5603C21.2748 39.4368 21.2208 39.3138 21.1664 39.1913L21.1232 39.0932C20.9222 38.639 20.726 38.2014 20.5572 37.7555L20.6101 37.8021C21.578 38.6432 22.4341 39.6378 23.1379 40.4987C23.5955 41.0565 24.0407 41.6498 24.4742 42.2288C24.7486 42.589 25.0518 42.9978 25.3592 43.395L25.565 43.6577C26.2029 44.4706 26.8628 45.3123 27.2408 46.2158C27.3005 46.3597 27.3879 46.4904 27.4981 46.6006C27.7631 47.6472 27.9624 48.7094 28.0949 49.7809C28.1161 49.9703 28.1835 50.1517 28.2912 50.3091C28.3988 50.4665 28.5434 50.5951 28.7123 50.6836C28.8903 50.7767 29.0883 50.8252 29.2892 50.8249C29.5256 50.8274 29.757 50.7575 29.9525 50.6246C30.1168 50.511 30.2461 50.3538 30.326 50.1707C30.4059 49.9876 30.4331 49.7858 30.4046 49.5881C29.6219 43.1172 26.4609 37.4406 23.673 32.4329C22.8423 30.9395 22.0952 29.407 21.4092 27.9657C21.0402 27.1947 20.6409 26.4408 20.2554 25.7123L20.2266 25.6581C19.994 25.2183 19.7533 24.7628 19.5173 24.3012C19.3609 23.9911 19.1921 23.6605 19.0542 23.3278C19.26 23.4759 19.4658 23.6358 19.6579 23.7853L19.7491 23.8539C21.5327 25.2533 22.8567 27.183 24.1395 29.0489L24.1552 29.0722C24.4852 29.5524 24.8255 30.047 25.1705 30.5272C25.4742 30.9521 25.7817 31.3749 26.0932 31.7956C27.5159 33.7363 28.9887 35.7442 29.8812 37.9853C29.9824 38.2469 30.1749 38.4631 30.4231 38.5938C30.6418 38.7079 30.8899 38.7532 31.1347 38.7237C31.3796 38.6942 31.6098 38.5913 31.7951 38.4284C31.9629 38.2797 32.0796 38.0819 32.1288 37.8632C32.1781 37.6444 32.1573 37.4157 32.0695 37.2094C31.0515 34.6507 29.4442 32.45 27.8891 30.3221L27.8452 30.2611C27.52 29.8158 27.1949 29.3693 26.8759 28.9227C26.5836 28.5111 26.2955 28.0954 26.0067 27.6776C25.2782 26.6253 24.5373 25.5552 23.7087 24.5488L23.9289 24.7478C26.478 27.0712 28.7774 29.774 30.8827 32.3492L31.1702 32.7018C32.2993 34.0813 33.4662 35.5068 34.4773 36.9906C34.5849 37.1485 34.7292 37.278 34.8978 37.3679C35.0637 37.4551 35.2483 37.5005 35.4357 37.5003C35.6064 37.5 35.7751 37.4638 35.9309 37.3939C36.0867 37.3241 36.226 37.2222 36.3398 37.0949C36.5078 36.9098 36.6075 36.673 36.6226 36.4235C36.6377 36.174 36.5672 35.9269 36.4228 35.7229C35.2724 34.0354 33.9601 32.4418 32.6903 30.9011L32.3549 30.4929C31.7684 29.7781 31.1647 29.0523 30.5404 28.3231C33.5361 30.9584 36.3687 33.7734 39.0227 36.7526C39.1142 36.8554 39.2231 36.9413 39.3444 37.0064C39.4984 37.0874 39.6698 37.1298 39.8438 37.1299C40.0191 37.1283 40.1916 37.0864 40.3481 37.0075C40.5047 36.9287 40.641 36.8149 40.7466 36.675C40.9222 36.4587 41.0146 36.1865 41.0069 35.9079C40.9993 35.6293 40.892 35.3627 40.7047 35.1563C39.4782 33.7843 38.1625 32.3952 36.7946 31.0307C36.7772 30.8734 36.7274 30.7214 36.6485 30.5842C36.3796 30.1094 36.0832 29.6498 35.7965 29.2053L35.4377 29.4358L35.7855 29.1882C35.4988 28.7436 35.2065 28.2916 34.9465 27.8272C35.4501 28.376 35.9296 28.9666 36.3981 29.5421L36.4578 29.6155C36.7466 29.9688 37.0443 30.3345 37.3448 30.6864C38.1913 31.6769 39.1283 32.6222 39.9597 33.4571C40.2556 33.7543 40.5508 34.0534 40.8454 34.3543C42.0362 35.5727 42.9397 36.793 43.6085 38.0848C44.2568 39.3353 44.9201 40.7018 45.7598 42.5176C46.5199 44.1551 47.2559 45.8371 47.9481 47.5157C48.2986 48.3664 48.6444 49.2307 48.9771 50.0896C49.0539 50.2878 49.1143 50.4922 49.1829 50.707C49.2741 51.0282 49.3871 51.3429 49.5211 51.6488C49.7783 52.2065 50.207 52.5818 50.6186 52.9446C50.6959 53.0128 50.773 53.0814 50.8498 53.1504C51.9025 54.1008 53.0056 54.9939 54.1542 55.8258C54.9294 56.3904 55.7567 56.9625 56.6162 57.5298C53.7628 60.2471 50.3946 62.3661 46.7099 63.762Z" fill="#83AEB5"/>
<path d="M43.363 27.4489C45.0492 27.4489 46.3285 26.5454 46.8705 24.9711C47.3006 23.726 46.8067 22.4624 46.4095 21.4471C46.3574 21.3141 46.2531 21.0609 46.1351 20.7762C45.9602 20.353 45.7427 19.8268 45.6549 19.5771C45.5938 19.4132 45.528 19.2403 45.4567 19.051C45.2282 18.4494 44.9442 17.7016 44.5587 16.5416C44.5354 16.471 44.493 16.4083 44.4362 16.3604C44.3794 16.3125 44.3104 16.2812 44.2369 16.2701C44.1634 16.259 44.0883 16.2685 44.0199 16.2976C43.9515 16.3266 43.8925 16.374 43.8494 16.4346C43.4515 16.9971 42.95 17.6639 42.5083 18.2525C41.9759 18.9604 41.5554 19.5209 41.3908 19.7898C41.3222 19.905 41.1473 20.1451 40.9792 20.3777C40.7343 20.7207 40.4805 21.0705 40.3577 21.2846C39.8631 22.1434 38.7038 24.1541 40.5697 26.1962C40.9232 26.587 41.3541 26.9001 41.8349 27.1157C42.3157 27.3313 42.8361 27.4448 43.363 27.4489ZM43.3431 20.9848C43.4584 20.7982 43.5764 20.5979 43.7019 20.3482C43.7856 20.6027 43.8754 20.8586 43.9646 21.1117C44.0963 21.4849 44.2205 21.8368 44.3172 22.1661C44.3666 22.3328 44.4215 22.4926 44.4743 22.6462C44.665 23.2033 44.829 23.6842 44.6801 24.2563C44.4825 24.9978 43.8569 25.1535 43.3658 25.1535C43.1562 25.1508 42.9496 25.1044 42.7589 25.0173C42.5683 24.9303 42.3979 24.8045 42.2586 24.648C41.7832 24.128 41.9259 23.4036 42.8032 21.8827C42.9926 21.561 43.1668 21.2736 43.3431 20.9848Z" fill="#3B2222"/>
<path d="M3.01922 29.4966C2.55094 29.4058 2.37288 29.1421 2.45168 28.7357C2.49279 28.5237 2.59233 28.3413 2.72747 28.2116L1.7993 27.6558C1.57291 27.8778 1.41459 28.2688 1.33922 28.6575C1.10968 29.8415 1.68092 30.6306 2.75001 30.8379L2.96206 30.879L2.81988 31.6124L3.88014 31.8179L4.02232 31.0846L7.60952 31.7801L7.87675 30.4017L4.28955 29.7063L4.51909 28.5223L3.45883 28.3167L3.22244 29.536L3.01922 29.4966Z" fill="#3B2222"/>
<path d="M9.16673 26.1955C9.71901 24.759 9.15343 23.3459 7.79254 22.8227C6.43166 22.2995 5.06511 22.9697 4.51283 24.4062C3.96055 25.8427 4.5229 27.2642 5.88379 27.7874C7.24467 28.3106 8.61445 27.632 9.16673 26.1955ZM8.09146 25.7821C7.83954 26.4373 7.17533 26.7605 6.39408 26.4601C5.61283 26.1598 5.33618 25.4749 5.5881 24.8196C5.84002 24.1644 6.501 23.8496 7.28225 24.15C8.0635 24.4503 8.34338 25.1268 8.09146 25.7821Z" fill="#3B2222"/>
<path d="M7.82822 19.3106L7.28313 18.9771L6.58332 20.121L10.7137 22.6478L11.4464 21.4502L9.49636 20.2572C8.7056 19.7735 8.61248 19.1151 9.0164 18.4549C9.07276 18.3627 9.1274 18.2907 9.19614 18.1955L8.0906 17.5192C7.70078 18.1564 7.60748 18.7746 7.82822 19.3106Z" fill="#3B2222"/>
<path d="M12.9111 11.8286C12.3427 12.354 11.9083 13.0375 11.7749 13.6755L12.8109 14.0538C12.8793 13.6107 13.1531 13.1247 13.5298 12.7764C14.085 12.2633 14.5876 12.2766 14.9969 12.7194L14.1774 13.477C13.0936 14.4789 13.054 15.3244 13.6343 15.9522C14.2025 16.5669 15.1258 16.5713 15.9585 15.8015C16.4806 15.3189 16.6919 14.805 16.5842 14.304L16.9935 14.7468L17.9584 13.8548L16.0829 11.8259C15.0871 10.7486 13.995 10.8267 12.9111 11.8286ZM15.5748 14.8693C15.2113 15.2053 14.8344 15.2351 14.5961 14.9774C14.3762 14.7395 14.3633 14.4205 14.8457 13.9745L15.5529 13.3208L15.8889 13.6843C16.0693 14.1181 15.9185 14.5517 15.5748 14.8693Z" fill="#3B2222"/>
<path d="M19.2078 12.975L20.3686 12.1852L16.6121 6.66395L15.4513 7.45372L19.2078 12.975Z" fill="#3B2222"/>
<path d="M21.5709 11.415L22.8035 10.7427L19.6057 4.88009L18.3732 5.5524L21.5709 11.415Z" fill="#3B2222"/>
<path d="M28.6007 8.6051C30.0039 8.24402 30.6553 7.4166 30.431 6.54499C29.9556 4.69718 27.3224 6.20181 27.1161 5.39993C27.0533 5.15588 27.2654 4.89685 27.8756 4.73985C28.3027 4.62996 28.787 4.59825 29.3163 4.74087L29.5206 3.65676C29.0088 3.50966 28.2559 3.54539 27.6109 3.71136C26.2425 4.06347 25.6021 4.89736 25.8309 5.7864C26.3131 7.66036 28.9439 6.14701 29.1413 6.91403C29.2086 7.17551 29.0159 7.40167 28.3883 7.56315C27.813 7.71117 27.1297 7.69185 26.6418 7.52931L26.4397 8.62213C26.9495 8.79763 27.8075 8.80919 28.6007 8.6051Z" fill="#3B2222"/>
<path d="M35.4949 7.55302L37.1933 7.45807L34.845 4.79501L36.7433 2.63367L35.0719 2.72711L33.1316 4.78263L32.9206 1.00852L31.5188 1.08689L31.8916 7.75448L33.2934 7.67611L33.2246 6.44503L33.8613 5.74239L35.4949 7.55302Z" fill="#3B2222"/>
<path d="M39.4129 2.21826C39.9323 2.27074 40.3159 1.96576 40.3629 1.50013C40.4064 1.07032 40.0897 0.712675 39.5704 0.660196C39.051 0.607717 38.6674 0.912697 38.6231 1.35146C38.5787 1.79023 38.8936 2.16578 39.4129 2.21826ZM38.1598 7.63673L39.5567 7.77789L40.0435 2.96042L38.6466 2.81927L38.1598 7.63673Z" fill="#3B2222"/>
<path d="M45.063 3.84124C44.4284 3.67115 43.8225 3.74168 43.3502 4.0437L43.497 3.49603L42.2017 3.14884L40.9481 7.82575L42.3043 8.18924L42.9241 5.87687C43.1548 5.01625 43.7314 4.74219 44.3834 4.91695C44.9832 5.07773 45.2377 5.51866 45.035 6.27496L44.3732 8.74381L45.7294 9.10731L46.447 6.42983C46.8292 5.00415 46.1671 4.13717 45.063 3.84124Z" fill="#3B2222"/>
<path d="M52.9612 11.5382C52.7694 11.5565 52.5604 11.5004 52.3848 11.3909C52.064 11.1909 51.9922 10.8809 52.2112 10.5296L53.2541 8.85713L54.2774 9.49522L54.8489 8.57878L53.8255 7.94068L54.4493 6.94023L53.2579 6.19737L52.6341 7.19782L52.0002 6.80258L51.4288 7.71903L52.0627 8.11427L51.0103 9.80205C50.4008 10.7796 50.6564 11.6284 51.6263 12.2331C51.9929 12.4617 52.4042 12.6015 52.7581 12.5783L52.9612 11.5382Z" fill="#3B2222"/>
<path d="M59.3456 12.1125L56.1359 13.6491L57.313 10.2946L56.233 9.32856L54.544 14.3624L54.5006 14.384C54.0717 14.58 53.7967 14.5634 53.5083 14.3054C53.3003 14.1194 53.1569 13.8342 53.1219 13.5493L52.0736 13.952C52.1224 14.3699 52.4169 14.8507 52.7858 15.1807C53.4365 15.7627 54.1669 15.945 55.2957 15.385L60.3518 13.0125L59.3456 12.1125Z" fill="#3B2222"/>
<path d="M63.3661 16.6775C62.9841 16.1541 62.5092 15.8544 61.9606 15.8203L62.4114 15.4913L61.6209 14.4081L56.2992 18.2916L57.1268 19.4257L58.9516 18.0941C58.8439 18.6183 58.9831 19.1296 59.3385 19.6167C60.1396 20.7144 61.5455 20.9921 62.7741 20.0955C64.0028 19.1989 64.1672 17.7753 63.3661 16.6775ZM60.1258 18.7413C59.712 18.1742 59.8061 17.4482 60.4822 16.9548C61.1584 16.4614 61.8785 16.5932 62.2923 17.1603C62.7061 17.7274 62.612 18.4534 61.9359 18.9468C61.2598 19.4402 60.5396 19.3084 60.1258 18.7413Z" fill="#3B2222"/>
<path d="M65.5295 26.0117C66.9555 25.3866 67.3885 23.998 66.8176 22.6956C66.225 21.3438 64.8244 20.7491 63.4973 21.3308C62.1785 21.9089 61.6512 23.329 62.3233 24.8622C62.6738 25.6618 63.1921 26.1716 63.8426 26.3778L64.2845 25.3684C63.8623 25.1899 63.5741 24.9134 63.3681 24.4435C63.0718 23.7676 63.2038 23.1496 63.7019 22.7839L65.1725 26.1388C65.2833 26.1 65.4306 26.0551 65.5295 26.0117ZM65.8485 23.1302C66.1015 23.7072 65.9231 24.2866 65.4023 24.623L64.4448 22.4386C65.0533 22.28 65.592 22.545 65.8485 23.1302Z" fill="#3B2222"/>
<path d="M64.0045 29.7908C64.3219 31.2047 65.1287 31.8814 66.0068 31.6842C67.8685 31.2663 66.4463 28.5878 67.2541 28.4064C67.5 28.3512 67.7524 28.5713 67.8904 29.186C67.987 29.6163 68.0036 30.1014 67.8447 30.626L68.9219 30.8638C69.0848 30.3568 69.0724 29.6032 68.9266 28.9534C68.6171 27.5747 67.8034 26.9087 66.9077 27.1098C65.0197 27.5337 66.4507 30.2102 65.678 30.3837C65.4145 30.4428 65.1945 30.2432 65.0525 29.6109C64.9224 29.0313 64.9629 28.3489 65.1405 27.8663L64.0545 27.6304C63.8633 28.1346 63.8251 28.9917 64.0045 29.7908Z" fill="#3B2222"/>
</g>
<defs>
<clipPath id="clip0_831_511">
<rect width="72.07" height="68" fill="white"/>
</clipPath>
</defs>
</svg>
