<svg width="68" height="75" viewBox="0 0 68 75" fill="none" xmlns="http://www.w3.org/2000/svg">
<g clip-path="url(#clip0_831_468)">
<path d="M66.065 46.8561C66.3493 46.703 66.5612 46.4432 66.654 46.1339C66.7468 45.8246 66.7129 45.4911 66.5598 45.2068C66.4067 44.9224 66.1469 44.7106 65.8376 44.6178C65.5283 44.525 65.1947 44.5588 64.9104 44.7119C64.8657 44.7251 64.6524 44.7706 64.0909 44.7119C63.7781 44.6946 63.4706 44.7986 63.2326 45.0022C62.9945 45.2058 62.8441 45.4934 62.8128 45.8051C62.7814 46.1168 62.8715 46.4286 63.0642 46.6756C63.2569 46.9226 63.5375 47.0857 63.8475 47.131C64.1121 47.1574 64.3548 47.1706 64.5805 47.1706C65.1992 47.1764 65.6728 47.0724 66.065 46.8561Z" fill="#83AEB5"/>
<path d="M9.95834 57.1233C9.63361 57.3301 9.4804 57.3762 9.44521 57.385C9.12715 57.3895 8.82389 57.5202 8.60215 57.7482C8.38041 57.9763 8.25834 58.2831 8.26281 58.6012C8.26729 58.9192 8.39793 59.2225 8.62599 59.4442C8.85406 59.666 9.16087 59.788 9.47894 59.7835H9.48554C10.0199 59.7835 10.5851 59.5937 11.2727 59.1561C11.4102 59.0717 11.5295 58.9608 11.6235 58.8297C11.7176 58.6986 11.7844 58.55 11.8202 58.3927C11.856 58.2354 11.86 58.0726 11.8319 57.9137C11.8038 57.7549 11.7443 57.6032 11.6567 57.4677C11.5692 57.3322 11.4555 57.2155 11.3222 57.1246C11.189 57.0337 11.0389 56.9703 10.8808 56.9382C10.7227 56.9062 10.5598 56.906 10.4016 56.9378C10.2434 56.9696 10.0932 57.0327 9.95981 57.1233H9.95834Z" fill="#83AEB5"/>
<path d="M22.5171 66.4098C18.9874 65.1001 15.7282 63.1534 12.9017 60.6664C12.6642 60.4701 12.3597 60.3739 12.0525 60.3982C11.7454 60.4225 11.4597 60.5654 11.256 60.7966C11.0524 61.0278 10.9467 61.3292 10.9613 61.6369C10.9759 61.9447 11.1098 62.2347 11.3345 62.4455C14.379 65.124 17.8896 67.2204 21.6917 68.6302C21.8241 68.6787 21.9641 68.7035 22.1051 68.7035C22.3829 68.7029 22.6517 68.6049 22.8646 68.4264C23.0775 68.2479 23.221 68.0003 23.2701 67.7268C23.3191 67.4533 23.2706 67.1713 23.133 66.93C22.9954 66.6886 22.7774 66.5033 22.5171 66.4062V66.4098Z" fill="#83AEB5"/>
<path d="M63.2148 49.0535C62.926 48.9294 62.5999 48.9249 62.3077 49.0408C62.0156 49.1568 61.7814 49.3838 61.6563 49.6722C59.9894 53.5431 57.5441 57.0299 54.4725 59.9158C54.3591 60.0225 54.2679 60.1505 54.204 60.2924C54.1402 60.4344 54.1048 60.5875 54.1001 60.7432C54.0955 60.8988 54.1215 61.0538 54.1767 61.1993C54.2319 61.3449 54.3152 61.4782 54.4219 61.5915C54.5286 61.7049 54.6566 61.7961 54.7986 61.86C54.9405 61.9239 55.0937 61.9592 55.2493 61.9638C55.4049 61.9685 55.5599 61.9425 55.7055 61.8873C55.8511 61.8321 55.9843 61.7488 56.0977 61.6421C59.4061 58.5346 62.0404 54.7802 63.8372 50.612C63.8989 50.4688 63.9318 50.3149 63.9339 50.159C63.936 50.0031 63.9073 49.8483 63.8495 49.7035C63.7917 49.5588 63.7059 49.4268 63.597 49.3153C63.488 49.2037 63.3582 49.1148 63.2148 49.0535Z" fill="#83AEB5"/>
<path d="M9.34596 17.874C9.52788 17.6294 9.60861 17.3241 9.57138 17.0215C9.53416 16.7189 9.38184 16.4422 9.14604 16.249C8.91024 16.0557 8.60907 15.9607 8.30505 15.9836C8.00103 16.0065 7.71751 16.1456 7.51335 16.372C2.85924 22.0524 0.270859 28.943 0.0194245 36.2977C-0.0560074 38.5095 0.0883782 40.7234 0.450455 42.9068C0.482737 43.1026 0.563973 43.287 0.686619 43.443C0.809266 43.5989 0.969344 43.7214 1.15198 43.7989L0.366887 46.3206C0.316294 46.474 0.296764 46.636 0.309435 46.7971C0.322105 46.9581 0.366721 47.1151 0.440684 47.2587C0.514647 47.4023 0.616473 47.5298 0.740224 47.6337C0.863975 47.7375 1.00717 47.8157 1.16146 47.8637C1.31575 47.9116 1.47804 47.9284 1.63887 47.9129C1.79969 47.8975 1.95583 47.8501 2.09817 47.7737C2.24052 47.6973 2.36622 47.5933 2.46794 47.4678C2.56966 47.3422 2.64537 47.1977 2.69064 47.0426L7.25751 32.3678C7.95684 31.7081 8.7236 31.3181 9.61059 30.8687C10.5547 30.3922 11.625 29.8505 12.6798 28.9034C13.5287 28.1462 14.2383 27.474 14.8636 26.881C15.8451 25.9515 16.9557 24.9017 17.3318 24.8387C18.9276 24.6532 25.4246 25.2785 26.3577 25.8071C26.7748 26.0556 28.1171 27.3303 30.5192 30.0895C27.6604 30.6334 25.3146 27.7943 25.2926 27.7672C25.1443 27.5821 24.9451 27.4444 24.7195 27.3709C24.494 27.2975 24.2519 27.2915 24.023 27.3538C22.2087 27.8471 20.1247 28.0692 19.654 27.8207C19.4825 27.7179 19.2882 27.6589 19.0884 27.6492C18.8886 27.6394 18.6895 27.6791 18.5087 27.7647C18.3279 27.8504 18.1711 27.9793 18.0521 28.1401C17.9331 28.3009 17.8556 28.4885 17.8266 28.6865C17.4293 31.3577 14.9838 33.8749 14.9611 33.8991C14.7727 34.0893 14.6533 34.337 14.6217 34.6029L14.1584 38.2923C14.136 38.4711 14.1538 38.6528 14.2103 38.8239C14.2669 38.9951 14.3608 39.1515 14.4853 39.2819C14.6649 39.4732 18.965 43.9734 22.2937 45.2254C22.4513 45.283 22.6189 45.308 22.7863 45.2987C25.3696 45.1646 31.4861 46.3829 32.4919 46.5881C32.8459 46.7707 34.1185 47.536 34.2358 49.0526C33.4544 49.1758 32.4765 49.0233 31.5968 48.8862C31.0896 48.8085 30.6123 48.7338 30.1491 48.7015C28.4132 48.5776 22.4191 49.2374 20.5806 49.9565C18.9232 50.6067 16.1911 52.5148 12.512 55.1413C12.3763 55.2318 12.2602 55.3486 12.1706 55.4849C12.081 55.6211 12.0196 55.774 11.9903 55.9344C11.9609 56.0949 11.9641 56.2596 11.9996 56.4187C12.0351 56.5779 12.1023 56.7283 12.1971 56.861C12.2919 56.9937 12.4124 57.106 12.5515 57.1912C12.6905 57.2764 12.8453 57.3328 13.0066 57.357C13.1679 57.3812 13.3324 57.3727 13.4903 57.3321C13.6483 57.2915 13.7964 57.2195 13.926 57.1205C17.2247 54.7623 20.0755 52.7662 21.4683 52.2216C22.8333 51.6865 28.4323 51.0165 29.9717 51.1264C30.3345 51.1528 30.7641 51.2188 31.2178 51.2899C32.6106 51.5098 34.1918 51.7524 35.6381 51.1792C36.0813 50.825 36.4257 50.3624 36.638 49.8363C36.6893 49.9235 36.7406 50.0114 36.7978 50.0994C37.2085 50.508 37.7206 50.8 38.2815 50.9454C38.3359 50.9452 38.3902 50.9416 38.4442 50.9344C39.9836 50.7284 41.2444 49.7424 42.3543 48.8723C42.7208 48.5893 43.0602 48.321 43.3651 48.1217C44.6553 47.2735 49.8687 45.122 51.3223 44.9212C52.0099 44.8266 53.4108 45.1 55.0323 45.4167C56.5365 45.7099 58.4043 46.0765 60.4935 46.3052C60.6523 46.3227 60.813 46.3088 60.9665 46.2642C61.1199 46.2196 61.2631 46.1452 61.3878 46.0453C61.5125 45.9453 61.6163 45.8218 61.6933 45.6818C61.7702 45.5417 61.8189 45.3879 61.8364 45.2291C61.8539 45.0702 61.84 44.9095 61.7954 44.756C61.7508 44.6026 61.6764 44.4594 61.5765 44.3347C61.4765 44.21 61.353 44.1062 61.213 44.0293C61.073 43.9523 60.9191 43.9036 60.7603 43.8861C58.7745 43.6662 57.0342 43.3268 55.4985 43.027C53.5134 42.6407 52.0796 42.3599 50.991 42.5102C49.033 42.78 43.4802 45.1316 42.0295 46.0867C41.6395 46.3411 41.2576 46.6394 40.8566 46.9561C40.1537 47.5066 39.373 48.1173 38.6311 48.3914C37.9934 47.0133 38.7323 45.7209 38.9529 45.3859C39.7329 44.7123 44.4691 40.6666 46.7965 39.5216C46.9464 39.4471 47.0796 39.3428 47.188 39.2152C49.4164 36.5762 51.5269 31.7586 51.6148 31.5549C51.7002 31.3595 51.7327 31.1451 51.709 30.9331C51.6854 30.7212 51.6064 30.5193 51.4799 30.3475L49.2757 27.353C49.1162 27.137 48.89 26.9796 48.6321 26.9052C47.6974 26.6347 44.9668 25.5402 43.5887 23.7531C43.467 23.5944 43.3079 23.4682 43.1257 23.3858C42.9434 23.3034 42.7436 23.2673 42.5441 23.2807C42.3445 23.2941 42.1514 23.3567 41.9818 23.4627C41.8122 23.5688 41.6715 23.7151 41.5721 23.8887C41.2789 24.3351 39.3561 25.1605 37.5279 25.6172C37.3195 25.6695 37.1286 25.7757 36.9742 25.9251C36.8198 26.0744 36.7074 26.2618 36.6482 26.4683C36.635 26.5196 35.2862 31.0315 33.0395 31.6201C33.6501 28.8448 34.3831 26.0145 34.7306 25.4083C35.2906 24.4934 40.6536 20.7725 42.1343 20.1553C42.4921 20.0241 43.9794 20.4001 45.2864 20.7322C46.1228 20.9433 47.0692 21.1845 48.1798 21.4315C49.5726 21.7438 50.7755 21.6719 51.8333 21.6082C52.7862 21.5525 53.6212 21.5041 54.5155 21.7174C54.5353 21.7387 54.5551 21.7614 54.5771 21.7826L65.7545 32.3883C65.9903 32.6019 66.3002 32.7149 66.6181 32.703C66.936 32.6911 67.2367 32.5554 67.4558 32.3247C67.675 32.0941 67.7952 31.7869 67.7908 31.4688C67.7865 31.1507 67.6579 30.8469 67.4325 30.6224L64.2027 27.5598C64.4071 27.4084 64.5575 27.1952 64.6315 26.9518C64.7056 26.7084 64.6994 26.4476 64.6139 26.208C61.604 17.8081 55.2221 10.8632 47.1066 7.14886C46.9649 7.08323 46.8117 7.04623 46.6556 7.04001C46.4996 7.03378 46.3439 7.05844 46.1974 7.11257C46.051 7.1667 45.9166 7.24924 45.8022 7.35544C45.6877 7.46164 45.5953 7.58941 45.5304 7.73142C45.4654 7.87342 45.4292 8.02686 45.4237 8.18291C45.4183 8.33896 45.4437 8.49455 45.4985 8.64075C45.5534 8.78695 45.6366 8.92087 45.7433 9.03482C45.8501 9.14877 45.9783 9.2405 46.1206 9.30475C53.0399 12.4693 58.6015 18.1658 61.6304 25.1143L56.2565 20.0175C56.1418 19.9079 56.0065 19.8221 55.8584 19.7653C55.698 19.582 55.4863 19.451 55.2507 19.3892C53.9378 19.0462 52.7958 19.1144 51.6933 19.1811C50.7073 19.2382 49.7771 19.2947 48.7142 19.0579C47.6381 18.8175 46.71 18.5822 45.889 18.3747C43.6408 17.8037 42.2809 17.4591 41.2026 17.9092C39.8604 18.4678 33.6076 22.4864 32.626 24.1966C32.2939 24.7742 31.893 26.1025 31.5154 27.5297C29.6301 25.4244 28.3164 24.143 27.6068 23.7171C25.9142 22.7055 18.4966 22.251 17.051 22.4204C15.8899 22.5545 14.8731 23.52 13.1893 25.1136C12.5765 25.6949 11.8786 26.3539 11.0576 27.0928C10.2366 27.8317 9.40094 28.251 8.51102 28.7004C7.52434 29.1996 6.50321 29.7164 5.53266 30.6517C5.39094 30.787 5.28448 30.9548 5.22258 31.1407C5.09438 31.2749 4.99903 31.437 4.94402 31.6142L2.45167 39.6286C2.3742 38.548 2.35389 37.464 2.39082 36.3812C2.62173 29.5463 5.02759 23.1461 9.34596 17.874ZM25.1995 30.9736C24.833 30.9266 24.5068 30.8101 24.3536 30.6525C24.1513 30.4421 23.935 30.1973 23.7217 29.94L23.9365 29.8901C24.3296 30.2815 24.7518 30.6424 25.1995 30.9699V30.9736ZM19.9319 30.3285C20.276 30.3546 20.6215 30.3583 20.9662 30.3395C21.093 30.5227 21.2286 30.706 21.3701 30.8936C21.0417 30.8753 20.6004 30.9281 20.2419 31.3247C20.1066 31.4838 19.984 31.6534 19.8754 31.8319C19.5719 32.2967 19.1123 32.9997 18.4049 33.4938C18.3822 33.5099 18.3602 33.5311 18.336 33.5487C18.9291 32.6625 19.5485 31.5512 19.9319 30.3285ZM16.985 35.2934C17.117 35.1468 17.2863 34.9496 17.4747 34.7135C17.0796 35.5697 16.9278 36.5374 16.9476 36.8738C16.9726 37.2557 16.8626 37.6465 16.7028 38.0694C16.6823 38.0504 16.6632 38.0313 16.6456 38.013L16.985 35.2934ZM49.0924 31.2213C49.0785 31.2521 49.0646 31.2844 49.0477 31.3173C48.7457 31.0542 48.4972 30.7896 48.3476 30.478C48.1981 30.1665 47.5977 29.4048 46.8339 28.8507C47.1161 28.9628 47.3573 29.0522 47.5442 29.1167L49.0924 31.2213ZM42.5478 26.2234C43.478 27.1031 44.5637 27.7694 45.5166 28.2532C45.4858 28.2488 45.458 28.2415 45.4272 28.2378C44.571 28.1521 43.8255 27.7628 43.3336 27.5048C43.1517 27.4017 42.9617 27.3137 42.7655 27.2416C42.5866 27.1808 42.3967 27.1593 42.2087 27.1785C42.0207 27.1977 41.8391 27.2573 41.6762 27.353C41.6762 27.345 41.6762 27.3362 41.6762 27.3274C41.6569 27.1306 41.6508 26.9327 41.6579 26.7351C41.9641 26.5831 42.2606 26.4122 42.5456 26.2234H42.5478ZM39.2586 27.6682C39.2844 27.8711 39.2752 28.0769 39.2315 28.2767C39.1487 28.589 38.6986 29.0024 38.1986 29.2443C38.4508 28.6879 38.6428 28.1858 38.7748 27.8112C38.9251 27.7701 39.0893 27.7196 39.2564 27.6682H39.2586ZM36.5859 31.9316C36.7265 31.9489 36.868 31.9575 37.0096 31.9573C37.9069 31.9573 38.7425 31.6523 38.8833 31.5981C39.5272 31.3466 40.1146 30.9693 40.6111 30.4883C41.2654 30.3897 41.8906 30.1506 42.4437 29.7875C43.047 30.0946 44.0014 30.5337 45.145 30.6561C45.4067 30.7544 45.9872 31.3093 46.1771 31.5827C46.6169 32.4726 47.3008 33.0488 47.9364 33.5531C47.2363 34.8726 46.3574 36.3754 45.477 37.4669C42.6108 38.9857 37.4656 43.4573 37.2427 43.6501C37.1813 43.7023 37.126 43.7614 37.0778 43.826C36.4841 44.6569 36.1039 45.6211 35.9709 46.6336C35.0253 45.0458 33.4588 44.3509 33.3613 44.3084C33.2864 44.2763 33.2086 44.2517 33.1289 44.2351C32.8393 44.1742 26.173 42.788 22.9337 42.8591C21.6083 42.2962 19.9722 41.0361 18.6087 39.8456C18.649 39.7474 18.6886 39.6477 18.7326 39.5465C19.0625 38.7534 19.4363 37.8554 19.3835 36.7771C19.4151 36.4465 19.6511 35.6775 19.8314 35.4656C20.7705 34.8 21.3884 33.9512 21.7637 33.3882C22.437 33.4374 23.1129 33.3372 23.743 33.095C24.3215 33.3208 24.9377 33.4348 25.5587 33.4307C25.7991 33.4312 26.0392 33.4142 26.2771 33.3801C26.4552 33.3552 27.6699 33.1566 28.5268 32.4888C28.9297 32.5653 29.3388 32.6041 29.7488 32.6046C29.9504 32.6046 30.1564 32.5921 30.3638 32.5716C30.3795 32.8784 30.4843 33.174 30.6656 33.4221C30.8469 33.6702 31.0966 33.8599 31.3842 33.968C32.5278 34.2788 34.606 34.3675 36.5837 31.9316H36.5859Z" fill="#83AEB5"/>
<path d="M14.8289 8.11349C14.2384 8.47051 13.8388 8.96922 13.6967 9.54594L12.3514 7.32104L11.0165 8.12821L14.8558 14.4777L16.1907 13.6706L14.8144 11.3943C14.3021 10.5471 14.5262 9.87411 15.168 9.48604C15.7584 9.12902 16.3077 9.26435 16.7579 10.0088L18.2273 12.4391L19.5623 11.6319L17.9686 8.99628C17.1201 7.59288 15.9157 7.45637 14.8289 8.11349Z" fill="#3B2222"/>
<path d="M20.9738 5.26678C20.1651 5.5593 19.4252 6.07151 19.0132 6.66714L19.9106 7.50168C20.1719 7.07751 20.6621 6.69816 21.1981 6.50428C21.988 6.21856 22.4968 6.44926 22.7247 7.07931L21.5587 7.50108C20.0164 8.0589 19.6109 8.90744 19.934 9.8008C20.2503 10.6753 21.1937 11.0785 22.3786 10.6499C23.1215 10.3812 23.5597 9.94626 23.6657 9.38683L23.8936 10.0169L25.2665 9.52029L24.2223 6.63333C23.6679 5.10052 22.516 4.70896 20.9738 5.26678ZM22.3882 9.52989C21.871 9.71696 21.4722 9.58471 21.3396 9.21796C21.2171 8.87943 21.3416 8.5473 22.028 8.299L23.0342 7.93505L23.2213 8.45226C23.2187 8.97427 22.8772 9.35302 22.3882 9.52989Z" fill="#3B2222"/>
<path d="M29.0234 3.32724C28.3006 3.42883 27.7115 3.76408 27.3596 4.27805L27.2719 3.65419L25.7964 3.86155L26.5452 9.1892L28.09 8.97209L27.7198 6.33797C27.582 5.35761 28.0527 4.82693 28.7954 4.72255C29.4787 4.62652 29.9305 4.96696 30.0516 5.82849L30.4468 8.64086L31.9916 8.42375L31.563 5.37372C31.3347 3.74968 30.2811 3.15049 29.0234 3.32724Z" fill="#3B2222"/>
<path d="M37.7766 1.26762L37.5882 3.87081C37.231 3.4038 36.6876 3.15392 36.0293 3.10628C34.5133 2.99654 33.2683 3.98926 33.1463 5.67485C33.0243 7.36044 34.1133 8.52209 35.6293 8.63182C36.3475 8.6838 36.9326 8.49555 37.3555 8.05493L37.3107 8.67331L38.7968 8.78088L39.3325 1.38024L37.7766 1.26762ZM35.991 7.37465C35.2131 7.31834 34.6551 6.71649 34.7222 5.78891C34.7894 4.86134 35.4282 4.34612 36.2062 4.40243C36.9742 4.45802 37.5322 5.05987 37.465 5.98745C37.3979 6.91502 36.759 7.43024 35.991 7.37465Z" fill="#3B2222"/>
<path d="M32.0827 66.9491C31.2804 66.8378 30.5417 67.0684 30.0402 67.5541C29.7449 66.9175 29.1508 66.5423 28.4079 66.4392C27.7245 66.3444 27.0972 66.4996 26.6378 66.9003L26.723 66.2862L25.2471 66.0814L24.5077 71.4103L26.0529 71.6247L26.424 68.9503C26.5559 67.9995 27.1031 67.6211 27.7866 67.7159C28.4304 67.8052 28.7419 68.2523 28.6223 69.1141L28.232 71.9271L29.7772 72.1415L30.1483 69.4671C30.2802 68.5162 30.8274 68.1379 31.5208 68.2341C32.1448 68.3207 32.4761 68.7705 32.3565 69.6322L31.9662 72.4453L33.5114 72.6597L33.9347 69.6089C34.1601 67.9845 33.3506 67.125 32.0827 66.9491Z" fill="#3B2222"/>
<path d="M37.4415 66.572C36.5924 66.7082 35.7697 67.073 35.2537 67.5812L35.9792 68.5687C36.3152 68.2009 36.8677 67.9199 37.4305 67.8296C38.2599 67.6966 38.7166 68.0184 38.8227 68.6799L37.5983 68.8763C35.979 69.1359 35.422 69.8937 35.5724 70.8317C35.7196 71.75 36.571 72.3224 37.8151 72.1229C38.5951 71.9978 39.1069 71.6524 39.3157 71.1227L39.4217 71.7842L40.8633 71.5531L40.3772 68.5218C40.1192 66.9124 39.0608 66.3124 37.4415 66.572ZM38.0339 71.0244C37.4909 71.1115 37.1239 70.907 37.0621 70.5219C37.0051 70.1665 37.1895 69.8635 37.9103 69.7479L38.9668 69.5785L39.0538 70.1215C38.9537 70.6338 38.5474 70.9421 38.0339 71.0244Z" fill="#3B2222"/>
<path d="M43.8942 62.58L44.9129 64.9831C44.3821 64.7302 43.7845 64.7554 43.1769 65.013C41.7774 65.6062 41.1217 67.0572 41.7813 68.6132C42.4409 70.1691 43.9396 70.7068 45.3391 70.1136C46.002 69.8326 46.437 69.3984 46.6126 68.8134L46.8546 69.3843L48.2265 68.8027L45.3305 61.9712L43.8942 62.58ZM45.0881 68.8297C44.37 69.1342 43.599 68.8528 43.236 67.9965C42.873 67.1403 43.2069 66.3905 43.925 66.0861C44.634 65.7856 45.4049 66.067 45.7679 66.9232C46.1309 67.7794 45.797 68.5292 45.0881 68.8297Z" fill="#3B2222"/>
<path d="M53.0084 62.3007C51.9815 60.9084 50.3705 60.7795 49.0989 61.7173C47.7791 62.6908 47.4777 64.3544 48.4334 65.6501C49.3831 66.9378 51.0513 67.1612 52.5482 66.0572C53.3289 65.4814 53.7544 64.7948 53.8185 64.0393L52.6163 63.8076C52.5263 64.3089 52.2972 64.6891 51.8385 65.0274C51.1785 65.5141 50.4764 65.5225 49.958 65.0723L53.2335 62.6565C53.1644 62.546 53.0796 62.3973 53.0084 62.3007ZM49.8074 62.661C50.3707 62.2455 51.0424 62.2969 51.5345 62.7789L49.4018 64.3518C49.0808 63.7312 49.236 63.0825 49.8074 62.661Z" fill="#3B2222"/>
<path d="M10.0208 14.7017C10.5155 14.7017 10.9166 14.3007 10.9166 13.8059C10.9166 13.3112 10.5155 12.9102 10.0208 12.9102C9.52605 12.9102 9.125 13.3112 9.125 13.8059C9.125 14.3007 9.52605 14.7017 10.0208 14.7017Z" fill="#3B2222"/>
<path d="M42.5716 7.90875C43.0663 7.90875 43.4673 7.5077 43.4673 7.01297C43.4673 6.51824 43.0663 6.11719 42.5716 6.11719C42.0768 6.11719 41.6758 6.51824 41.6758 7.01297C41.6758 7.5077 42.0768 7.90875 42.5716 7.90875Z" fill="#3B2222"/>
</g>
<defs>
<clipPath id="clip0_831_468">
<rect width="67.8066" height="75" fill="white"/>
</clipPath>
</defs>
</svg>
