<svg width="40" height="42" viewBox="0 0 40 42" fill="none" xmlns="http://www.w3.org/2000/svg">
<path d="M39.3392 23.625C39.3392 36.6727 28.0403 42 18.0639 42C8.0875 42 2.01076e-05 31.4227 2.01076e-05 18.375C2.01076e-05 5.3273 11.2989 -1.80244e-05 21.2753 -1.80244e-05C31.2517 -1.80244e-05 39.3392 10.5772 39.3392 23.625Z" fill="#82AEB4" fill-opacity="0.1"/>
<g clip-path="url(#clip0_787_1151)">
<path d="M17.1125 19.6525C19.0689 19.6525 19.9468 20.6647 20.2922 21.2593C20.3356 21.334 20.4533 21.3339 20.4967 21.2591C20.8409 20.6645 21.7139 19.6523 23.6703 19.6523C25.8989 19.6523 27.8593 21.0566 27.8593 23.6211C27.8593 24.6588 27.6301 25.5478 26.9944 26.5399C25.6987 28.5618 21.4301 31.1827 20.5532 31.6991C20.4563 31.7562 20.3335 31.7564 20.2365 31.6995C19.3589 31.1855 15.0895 28.5775 13.7837 26.5399C13.1479 25.5478 12.9204 24.6588 12.9204 23.6211C12.9202 21.0568 14.8838 19.6525 17.1125 19.6525Z" fill="#82AEB4" fill-opacity="0.4"/>
<path d="M20.3946 32.7199C20.137 32.7199 19.8858 32.6525 19.668 32.5249C19.1305 32.21 14.3728 29.3809 12.8706 27.0371C12.1713 25.946 11.8594 24.8921 11.8594 23.6197C11.8594 20.3714 14.502 18.6719 17.1126 18.6719C18.6936 18.6719 19.7359 19.2206 20.3935 19.7944C21.05 19.2207 22.0907 18.6719 23.6703 18.6719C25.0776 18.6719 26.3772 19.1303 27.3298 19.9627C28.3703 20.8717 28.9201 22.1363 28.9201 23.6198C28.9201 24.8905 28.6078 25.9444 27.9074 27.0371C26.4164 29.3637 21.6612 32.2067 21.124 32.5232C20.9053 32.6519 20.6532 32.7199 20.3946 32.7199ZM17.1126 20.6303C15.6681 20.6303 13.9812 21.4132 13.9812 23.6197C13.9812 24.5457 14.1884 25.2469 14.6967 26.0398C15.6364 27.5061 18.6278 29.5518 20.3935 30.6255C22.1588 29.5465 25.1489 27.4948 26.0814 26.0398C26.5908 25.2452 26.7985 24.5441 26.7985 23.6197C26.7985 21.4132 25.1134 20.6303 23.6703 20.6303C22.3418 20.6303 21.72 21.2224 21.4325 21.7192C21.227 22.0733 20.8295 22.293 20.3946 22.293C19.9601 22.293 19.5628 22.0737 19.3577 21.7207C19.0685 21.2232 18.4445 20.6303 17.1126 20.6303Z" fill="#82AEB4"/>
<path d="M20.3897 37.8712C16.6202 37.8712 13.1391 36.5641 10.5877 34.1909C7.97225 31.7579 6.53174 28.3538 6.53174 24.6056C6.53174 16.1334 16.1209 6.27099 19.0597 3.45003C19.4104 3.11334 19.8819 2.92715 20.3877 2.92578C20.8914 2.92844 21.3659 3.10774 21.7188 3.44225C22.2127 3.91053 22.9978 4.67551 23.9336 5.66088C24.3199 6.06746 24.2758 6.68624 23.8352 7.04265C23.3948 7.39928 22.7244 7.35873 22.3383 6.95181C21.5483 6.12008 20.8709 5.45202 20.3948 4.99527C18.0241 7.29942 8.65339 16.8978 8.65339 24.6056C8.65339 31.1574 13.5891 35.9127 20.3897 35.9127C27.1902 35.9127 32.1259 31.1573 32.1259 24.6056C32.1259 19.7831 28.5687 14.3564 25.5847 10.6531C25.2349 10.2192 25.3326 9.60582 25.8028 9.28305C26.2728 8.96022 26.9371 9.05031 27.287 9.4844C31.9057 15.2161 34.2475 20.3036 34.2475 24.6057C34.2475 28.3538 32.8071 31.758 30.1915 34.191C27.6401 36.5643 24.159 37.8712 20.3897 37.8712Z" fill="#82AEB4"/>
</g>
<defs>
<clipPath id="clip0_787_1151">
<rect width="37.8576" height="34.9454" fill="white" transform="translate(1.46094 2.92578)"/>
</clipPath>
</defs>
</svg>
