<svg width="92" height="102" viewBox="0 0 92 102" fill="none" xmlns="http://www.w3.org/2000/svg">
<g clip-path="url(#clip0_787_1243)">
<path d="M54.7851 35.0144C55.4093 35.6881 55.9767 36.4122 56.4815 37.1795C56.4983 37.2053 56.5208 37.2269 56.5471 37.2429C56.5735 37.2589 56.603 37.2687 56.6337 37.2717H56.6558C56.6833 37.2716 56.7105 37.2661 56.7358 37.2555C56.7611 37.2449 56.7841 37.2294 56.8034 37.2099L70.2061 24.0083C70.3585 23.8615 70.4801 23.6858 70.5638 23.4914C70.6475 23.2971 70.6916 23.088 70.6935 22.8764C70.6955 22.6648 70.6552 22.4549 70.5751 22.259C70.495 22.0632 70.3767 21.8852 70.227 21.7356C70.0773 21.586 69.8994 21.4678 69.7035 21.3878C69.5076 21.3077 69.2977 21.2676 69.0861 21.2696C68.8745 21.2716 68.6654 21.3158 68.4711 21.3996C68.2768 21.4834 68.1011 21.605 67.9543 21.7575L54.7906 34.722C54.7521 34.7606 54.7301 34.8126 54.729 34.8671C54.728 34.9216 54.7481 34.9744 54.7851 35.0144Z" fill="#83AEB5"/>
<path d="M8.92776 20.5752C8.78534 20.7782 8.69208 21.0116 8.65534 21.2569C8.61861 21.5021 8.6394 21.7525 8.71607 21.9884C8.79275 22.2242 8.92321 22.439 9.09715 22.6158C9.27109 22.7925 9.48374 22.9264 9.71832 23.0069C9.99891 23.1024 10.3005 23.1179 10.5895 23.0517C10.8784 22.9855 11.1432 22.8402 11.3542 22.6321C11.5652 22.424 11.7141 22.1612 11.7843 21.8732C11.8545 21.5852 11.8431 21.2834 11.7515 21.0015C11.6598 20.7197 11.4915 20.4689 11.2654 20.2772C11.0393 20.0855 10.7643 19.9606 10.4713 19.9163C10.1782 19.8721 9.87857 19.9103 9.60597 20.0267C9.33336 20.143 9.09853 20.333 8.92776 20.5752ZM8.7202 21.0143V21.0033L10.2045 21.5097L8.7202 21.0143Z" fill="#83AEB5"/>
<path d="M5.73503 26.065C1.97346 32.704 -0.00251065 40.2049 2.39407e-06 47.8354C2.39407e-06 72.1611 19.7899 91.951 44.1165 91.951C68.443 91.951 88.2329 72.1593 88.2329 47.8336C88.2343 40.2043 86.2574 32.705 82.4951 26.0678C82.2857 25.7105 81.944 25.4501 81.544 25.3428C81.144 25.2356 80.7178 25.2901 80.3577 25.4947C79.9976 25.6992 79.7325 26.0373 79.6198 26.4358C79.5071 26.8343 79.5558 27.2611 79.7554 27.624C83.2467 33.7872 85.0806 40.7502 85.078 47.8336C85.078 70.4213 66.7051 88.8017 44.1201 88.8017C33.9107 88.8091 24.0693 84.9894 16.5381 78.0963L18.5085 76.1444C21.7824 72.8982 21.645 73.0882 24.8404 69.9739C24.8779 69.9372 24.9003 69.8878 24.9032 69.8354C24.9061 69.783 24.8893 69.7314 24.8561 69.6908C24.2674 68.9727 23.7853 68.1736 23.4244 67.3181C23.4113 67.2864 23.3905 67.2584 23.364 67.2367C23.3374 67.2149 23.3059 67.2 23.2722 67.1934C23.2386 67.1867 23.2038 67.1884 23.1709 67.1985C23.1381 67.2085 23.1082 67.2265 23.084 67.2508C19.17 71.08 18.0003 72.1999 15.0991 75.0789C14.7744 75.4027 14.5004 75.6748 14.2919 75.8806C7.39272 68.5469 3.15764 58.6782 3.15764 47.8373C3.15515 40.7531 4.98969 33.7893 8.48216 27.6259C8.67699 27.2632 8.72225 26.8388 8.60827 26.4432C8.49429 26.0476 8.23011 25.7123 7.87219 25.509C7.51426 25.3056 7.091 25.2503 6.69285 25.3549C6.2947 25.4595 5.95326 25.7157 5.74149 26.0687L5.73503 26.065Z" fill="#83AEB5"/>
<path d="M77.394 23.0208C77.4612 23.0209 77.5284 23.0169 77.5951 23.0088C77.8004 22.9827 77.9985 22.9164 78.1782 22.8137C78.3579 22.7111 78.5155 22.574 78.6422 22.4104C78.7689 22.2468 78.8621 22.0598 78.9166 21.8602C78.971 21.6605 78.9856 21.4521 78.9595 21.2468C78.8737 20.5716 78.3137 19.8438 77.2879 19.8438C76.902 19.8447 76.5298 19.9874 76.2421 20.2448C75.9544 20.5021 75.7713 20.8561 75.7275 21.2396C75.6836 21.6231 75.7822 22.0093 76.0044 22.3249C76.2266 22.6405 76.557 22.8635 76.9328 22.9516C77.0822 22.9978 77.2377 23.0211 77.394 23.0208ZM75.8341 21.6444C75.8542 21.7989 75.8967 21.9497 75.9605 22.0918C75.8964 21.9498 75.8538 21.799 75.8341 21.6444Z" fill="#83AEB5"/>
<path d="M23.5471 16.5259C25.3492 15.5446 25.9961 13.621 25.0664 11.9138C24.1367 10.2065 22.1699 9.70612 20.3678 10.6875C18.5657 11.6688 17.9083 13.5981 18.838 15.3054C19.7676 17.0127 21.7449 17.5073 23.5471 16.5259ZM22.8125 15.177C21.9905 15.6246 21.0368 15.3788 20.5031 14.3987C19.9694 13.4185 20.2803 12.484 21.1024 12.0364C21.9244 11.5888 22.8675 11.8404 23.4013 12.8205C23.935 13.8006 23.6345 14.7294 22.8125 15.177Z" fill="#3B2222"/>
<path d="M27.618 6.47361C28.2725 6.23688 28.5575 5.64888 28.3452 5.06209C28.1493 4.52043 27.5623 4.27337 26.9078 4.51011C26.2533 4.74684 25.9683 5.33484 26.1683 5.88778C26.3683 6.44072 26.9635 6.71035 27.618 6.47361ZM29.2398 13.7094L31.0002 13.0727L28.8043 7.00158L27.0439 7.63832L29.2398 13.7094Z" fill="#3B2222"/>
<path d="M33.4757 12.2635L35.2884 11.7961L33.065 3.17411L31.2523 3.64156L33.4757 12.2635Z" fill="#3B2222"/>
<path d="M44.5612 3.91489C44.5371 3.27935 44.8256 2.9682 45.3772 2.9473C45.665 2.9364 45.9319 3.01034 46.1413 3.14651L46.5816 1.77286C46.2247 1.54621 45.669 1.45918 45.1414 1.47918C43.5346 1.54006 42.6831 2.52101 42.7381 3.97197L42.749 4.25976L41.7537 4.29747L41.8082 5.73644L42.8035 5.69873L42.988 10.5672L44.8586 10.4964L44.6742 5.62784L46.281 5.56696L46.2265 4.12799L44.5717 4.19069L44.5612 3.91489Z" fill="#3B2222"/>
<path d="M50.7589 4.99078L50.8353 4.14221L49.0545 3.98194L48.4758 10.412L50.3402 10.5798L50.6135 7.54402C50.7243 6.313 51.4561 5.81258 52.4839 5.90509C52.6273 5.918 52.7458 5.9407 52.9001 5.96664L53.055 4.2456C52.063 4.15632 51.269 4.41017 50.7589 4.99078Z" fill="#3B2222"/>
<path d="M61.6486 9.52644C62.1667 7.51614 61.0665 5.91901 59.2305 5.44582C57.3247 4.95465 55.548 5.93423 55.0659 7.80509C54.5867 9.66433 55.6423 11.3863 57.8037 11.9433C58.9309 12.2338 59.8922 12.1099 60.6439 11.5972L59.949 10.3028C59.4142 10.5987 58.8869 10.6735 58.2245 10.5028C57.2717 10.2572 56.7321 9.61006 56.7585 8.78658L61.4879 10.0055C61.5385 9.85744 61.6126 9.66589 61.6486 9.52644ZM58.8887 6.82C59.7021 7.02965 60.163 7.69368 60.0871 8.5168L57.0078 7.72315C57.3422 6.95429 58.0637 6.60736 58.8887 6.82Z" fill="#3B2222"/>
<path d="M70.6693 13.4736C71.5758 11.606 70.8141 9.82242 69.1084 8.99455C67.3379 8.13523 65.4023 8.74304 64.5587 10.4811C63.7203 12.2084 64.4135 14.1055 66.4215 15.0801C67.4687 15.5884 68.4355 15.6575 69.274 15.3041L68.8495 13.8976C68.2667 14.0816 67.735 14.0503 67.1197 13.7516C66.2344 13.322 65.8339 12.5807 66.023 11.7788L70.4168 13.9113C70.4957 13.7762 70.6064 13.6032 70.6693 13.4736ZM68.5009 10.2737C69.2566 10.6404 69.5766 11.3827 69.3391 12.1744L66.4782 10.7859C66.9585 10.0986 67.7344 9.90165 68.5009 10.2737Z" fill="#3B2222"/>
<path d="M60.7174 49.2537C59.6676 46.9577 56.5893 42.3351 53.3293 37.4331L53.3154 37.4119C49.6781 31.9471 45.9181 26.296 44.5113 23.2519L43.0769 20.1523L40.3049 25.7794L40.1969 26.0045C38.3824 29.5099 34.6888 34.6528 31.4214 39.2033L31.4094 39.2199C28.3459 43.4956 25.6928 47.1855 24.7482 49.2537C23.7267 51.4874 23.1993 53.9153 23.2022 56.3715C23.2141 58.8329 23.7159 61.2672 24.6781 63.5327C26.5729 68.0676 30.0663 71.8516 34.5145 74.1864C36.7404 75.3543 39.6241 76.0517 42.2282 76.0517C42.386 76.0517 42.5548 76.0517 42.742 76.0415C42.8472 76.0415 42.9533 76.047 43.0649 76.047C45.2263 76.047 48.632 75.4078 50.9594 74.1864C55.4076 71.8516 58.902 68.0676 60.7967 63.5327C62.7791 58.7774 62.7542 53.7065 60.7174 49.2537ZM44.3047 72.7141L42.731 72.7824L41.1471 72.7169V72.7436C39.3501 72.5868 37.4775 72.0629 36.0255 71.3018C27.988 67.0824 24.3368 57.9942 27.7121 50.6097C28.5258 48.8266 31.2175 45.0749 34.0689 41.1082C37.3972 36.4719 41.16 31.2322 43.0889 27.5109C44.9818 30.7765 47.8405 35.0752 50.6181 39.2458C53.8025 44.0306 56.8107 48.5499 57.7516 50.6107C61.127 57.9905 57.4749 67.0833 49.4392 71.3009C47.9835 72.0647 45.8886 72.5425 44.3047 72.7141Z" fill="#3B2222"/>
<path d="M31.0968 60.9336C30.3117 59.0093 29.9769 57.288 29.9769 55.1746C29.9809 55.0428 29.9585 54.9116 29.9108 54.7887C29.8632 54.6659 29.7914 54.5538 29.6996 54.4592C29.6079 54.3646 29.4981 54.2894 29.3767 54.238C29.2553 54.1866 29.1249 54.1602 28.9931 54.1602C28.8613 54.1602 28.7308 54.1866 28.6095 54.238C28.4881 54.2894 28.3783 54.3646 28.2865 54.4592C28.1948 54.5538 28.1229 54.6659 28.0753 54.7887C28.0277 54.9116 28.0052 55.0428 28.0093 55.1746C28.0093 57.5582 28.3875 59.5028 29.274 61.6771C29.348 61.8583 29.4743 62.0133 29.6368 62.1224C29.7993 62.2315 29.9906 62.2897 30.1863 62.2896C30.3128 62.2888 30.438 62.2641 30.5553 62.2167C30.6751 62.1681 30.7842 62.0963 30.8763 62.0055C30.9684 61.9147 31.0417 61.8066 31.092 61.6874C31.1423 61.5682 31.1686 61.4403 31.1694 61.311C31.1702 61.1816 31.1455 61.0534 31.0968 60.9336Z" fill="#3B2222"/>
<path d="M31.4223 64.6781C31.5103 64.6774 31.598 64.6659 31.6833 64.6439C31.7328 64.6325 31.7812 64.6171 31.8281 64.5978C31.8748 64.5795 31.9201 64.5579 31.9637 64.5332C32.0784 64.4593 32.177 64.363 32.2534 64.2499C32.3298 64.1369 32.3825 64.0096 32.4084 63.8756C32.4343 63.7416 32.4327 63.6038 32.4039 63.4705C32.375 63.3371 32.3194 63.211 32.2405 63.0997C31.7553 62.4457 31.1151 62.6154 30.8439 62.7962C30.814 62.8167 30.7854 62.8389 30.7581 62.8626C30.5733 63.0167 30.4512 63.2332 30.415 63.4711C30.3788 63.709 30.431 63.952 30.5616 64.1541C30.8365 64.5683 31.1547 64.6781 31.4223 64.6781Z" fill="#3B2222"/>
<path d="M38.2717 67.6539C36.6658 67.0713 35.1962 66.1659 33.9536 64.9935C33.7625 64.8201 33.5109 64.7288 33.2531 64.7391C32.9952 64.7494 32.7517 64.8605 32.5751 65.0486C32.3984 65.2367 32.3026 65.4866 32.3084 65.7446C32.3141 66.0026 32.421 66.248 32.6059 66.4279C34.0429 67.7828 35.7419 68.8294 37.5983 69.5035C37.7058 69.543 37.8195 69.5633 37.9341 69.5634C38.1657 69.5639 38.3901 69.4826 38.5678 69.3339C38.7454 69.1852 38.8649 68.9786 38.9052 68.7505C38.9455 68.5224 38.9041 68.2874 38.7883 68.0868C38.6724 67.8862 38.4895 67.7329 38.2717 67.6539Z" fill="#3B2222"/>
</g>
<defs>
<clipPath id="clip0_787_1243">
<rect width="91.1674" height="102" fill="white"/>
</clipPath>
</defs>
</svg>
