<svg width="103" height="97" viewBox="0 0 103 97" fill="none" xmlns="http://www.w3.org/2000/svg">
<g clip-path="url(#clip0_787_1303)">
<path d="M95.4551 52.6069C95.0246 52.5793 94.6007 52.7237 94.2767 53.0085C93.9526 53.2933 93.7549 53.6951 93.727 54.1256C93.0939 63.9423 89.2062 72.8011 83.0971 79.6401C83.0178 79.5912 82.9415 79.5423 82.8662 79.4924C79.0557 77.0098 76.1592 74.7689 73.7657 72.4469C72.2226 68.3037 70.4387 64.006 68.4483 59.671L68.1166 58.9459C66.3033 54.974 64.4285 50.8661 61.3646 47.4862C60.6043 46.6466 59.799 45.8442 59.0161 45.0682L58.9819 45.034C58.1276 44.1856 57.244 43.3078 56.4298 42.387C55.7449 41.613 55.0481 40.7832 54.4317 40.0512C53.6244 39.0922 52.7094 38.0051 51.7837 36.9894L51.6066 36.7936C51.0361 36.1576 50.173 35.1976 49.1739 34.6692C48.3784 34.2485 47.5926 34.1604 46.8871 34.4099C46.6155 34.5017 46.3653 34.6476 46.1517 34.8388C45.9381 35.0301 45.7655 35.2627 45.6443 35.5225C45.3273 36.1967 45.3635 37.0001 45.5113 37.7282L44.8899 37.1782C44.3311 36.686 43.7597 36.139 43.1471 35.5519C41.5276 33.998 39.8523 32.3912 37.863 31.3441C36.448 30.5965 35.0692 30.2335 33.6474 30.2335C33.5065 30.2335 33.3666 30.2335 33.2276 30.2433C32.7132 29.8712 32.1748 29.5336 31.6159 29.2324C30.5797 28.6845 29.6197 28.4066 28.7635 28.4066C27.9106 28.395 27.0849 28.7065 26.4522 29.2784C25.7584 29.1414 25.1223 29.2315 24.5743 29.5378C22.8668 30.4928 23.5479 32.7395 23.7719 33.4774C24.2054 34.9158 24.909 36.2476 25.4002 37.1234C26.3788 38.8731 27.2683 40.7235 28.1265 42.5142L28.4875 43.2628C29.6207 45.6211 30.8811 47.9079 32.0993 50.1214C32.8372 51.462 33.5906 52.831 34.3167 54.2137C33.2031 52.9621 30.836 50.4522 28.9347 49.4482C28.0443 48.9785 27.3045 48.861 26.6635 49.0802C26.4139 49.1681 26.1854 49.307 25.9925 49.4881C25.7996 49.6693 25.6465 49.8886 25.5431 50.1322C25.1399 51.0246 25.3699 51.9914 25.5363 52.6901L25.5793 52.874C25.8311 53.9578 26.1836 55.0156 26.6322 56.0338C26.9581 56.7823 27.2693 57.5515 27.5256 58.1963C27.541 58.2377 27.5594 58.2779 27.5804 58.3167C28.6744 60.3423 29.696 62.6986 30.7949 65.7321C30.8072 65.7656 30.8215 65.7983 30.838 65.83L30.8488 65.8515L30.9104 65.9728C30.9202 66.0525 30.9385 66.131 30.9652 66.2067C31.7637 68.4417 32.8342 70.2539 34.3343 71.9087C34.5876 72.2099 34.8096 72.5361 34.9968 72.8823C35.2034 73.2551 35.4417 73.6093 35.7092 73.9411C35.9558 74.2347 36.2141 74.5096 36.4656 74.7787C36.7719 75.1085 37.0899 75.45 37.3727 75.8013C39.5317 78.4593 42.0135 80.8379 44.7607 82.882C47.3891 84.8293 50.3746 86.6563 54.4414 88.8071C55.0286 89.1196 55.6209 89.4282 56.2185 89.7328C57.882 90.59 59.6522 91.3905 61.209 92.096L61.9312 92.4258C59.7342 92.9792 57.4973 93.3597 55.2409 93.5638C31.9565 95.6814 11.2955 78.4551 9.18186 55.1717C9.15153 54.839 9.12511 54.5063 9.1026 54.1755C9.09157 53.96 9.03776 53.7488 8.9443 53.5543C8.85084 53.3598 8.71959 53.1858 8.55822 53.0425C8.39685 52.8992 8.20857 52.7895 8.00436 52.7197C7.80015 52.6499 7.58409 52.6214 7.36878 52.636C7.15346 52.6505 6.94319 52.7078 6.75022 52.8044C6.55725 52.901 6.38545 53.0351 6.24481 53.1988C6.10418 53.3625 5.99752 53.5525 5.93107 53.7578C5.86462 53.9632 5.8397 54.1797 5.85775 54.3947C5.88222 54.7509 5.90962 55.1081 5.94191 55.4652C8.09666 79.146 28.0521 97.0044 51.3766 97.0044C52.7515 97.0044 54.142 96.9418 55.5374 96.8145C66.372 95.8317 76.4997 91.0129 84.0969 83.2259C91.694 75.4389 96.2615 65.1954 96.9768 54.3399C96.9911 54.1261 96.9631 53.9116 96.8943 53.7086C96.8255 53.5057 96.7173 53.3183 96.5759 53.1573C96.4346 52.9963 96.2628 52.8648 96.0704 52.7703C95.8781 52.6759 95.669 52.6203 95.4551 52.6069ZM66.6302 90.954C65.27 90.2837 63.8903 89.6633 62.5457 89.0596L62.5017 89.04C60.9262 88.3316 59.297 87.5986 57.7538 86.806C57.1321 86.487 56.5124 86.1638 55.8946 85.8363C51.9158 83.7344 49.0017 81.9397 46.4409 80.0218C43.4465 77.7711 40.6225 74.7778 37.8052 70.8567C35.6693 67.8888 33.846 64.7079 32.3645 61.3649C32.0074 60.5576 31.6962 59.7121 31.386 58.8833C31.0866 58.077 30.7783 57.2442 30.4241 56.431C30.3478 56.2549 30.2708 56.0794 30.1931 55.9046L30.1315 55.7647C29.8448 55.1169 29.5649 54.4926 29.3242 53.8565L29.3995 53.923C30.7803 55.1227 32.0015 56.5416 33.0055 57.7697C33.6582 58.5653 34.2932 59.4117 34.9117 60.2376C35.3031 60.7513 35.7356 61.3345 36.174 61.9011L36.4676 62.2759C37.3776 63.4355 38.319 64.6361 38.8581 65.9249C38.9433 66.1301 39.068 66.3167 39.2251 66.4738C39.6032 67.9668 39.8875 69.4819 40.0764 71.0104C40.1068 71.2807 40.2029 71.5394 40.3564 71.7639C40.51 71.9884 40.7162 72.1718 40.9571 72.2981C41.2111 72.4309 41.4935 72.5001 41.7801 72.4997C42.1173 72.5032 42.4474 72.4035 42.7263 72.214C42.9607 72.0518 43.1451 71.8276 43.2591 71.5664C43.373 71.3052 43.4118 71.0174 43.3712 70.7354C42.2547 61.5048 37.7455 53.4073 33.7687 46.264C32.5837 44.1337 31.5181 41.9476 30.5395 39.8917C30.0131 38.7918 29.4436 37.7164 28.8936 36.6772L28.8525 36.5999C28.5208 35.9727 28.1773 35.3229 27.8407 34.6643C27.6176 34.222 27.3769 33.7504 27.1802 33.2758C27.4738 33.4872 27.7673 33.7152 28.0413 33.9285L28.1715 34.0263C30.7157 36.0226 32.6043 38.7752 34.4341 41.4368L34.4567 41.4701C34.9273 42.1551 35.4127 42.8606 35.9049 43.5456C36.3381 44.1516 36.7768 44.7547 37.221 45.3549C39.2505 48.1232 41.3515 50.9874 42.6246 54.1843C42.7689 54.5575 43.0435 54.8659 43.3976 55.0523C43.7095 55.2151 44.0634 55.2797 44.4127 55.2377C44.762 55.1956 45.0904 55.0487 45.3547 54.8165C45.594 54.6042 45.7605 54.3222 45.8308 54.0101C45.901 53.6981 45.8714 53.3719 45.7461 53.0776C44.294 49.4276 42.0012 46.2885 39.7829 43.253L39.7202 43.1659C39.2564 42.5308 38.7926 41.8938 38.3376 41.2568C37.9207 40.6697 37.5097 40.0767 37.0977 39.4807C36.0585 37.9796 35.0017 36.4531 33.8196 35.0176L34.1337 35.3014C37.77 38.6157 41.0501 42.4712 44.0532 46.1446L44.4632 46.6476C46.0739 48.6154 47.7384 50.6488 49.1808 52.7654C49.3343 52.9907 49.5401 53.1754 49.7806 53.3036C50.0172 53.428 50.2806 53.4928 50.5478 53.4925C50.7914 53.4921 51.0321 53.4404 51.2543 53.3408C51.4765 53.2411 51.6753 53.0958 51.8375 52.9142C52.0772 52.6502 52.2195 52.3123 52.241 51.9565C52.2626 51.6006 52.162 51.248 51.9559 50.9571C50.3149 48.5499 48.443 46.2767 46.6317 44.0789L46.1532 43.4967C45.3165 42.477 44.4554 41.4417 43.5649 40.4015C47.8382 44.1607 51.8788 48.1762 55.6646 52.4259C55.7952 52.5725 55.9505 52.6951 56.1236 52.7879C56.3433 52.9035 56.5877 52.9639 56.8359 52.9641C57.0859 52.9618 57.3321 52.9021 57.5554 52.7896C57.7786 52.6771 57.9731 52.5148 58.1237 52.3153C58.3743 52.0066 58.506 51.6184 58.4951 51.221C58.4841 50.8236 58.3312 50.4432 58.064 50.1488C56.3144 48.1917 54.4375 46.2102 52.4863 44.2638C52.4614 44.0394 52.3905 43.8225 52.2779 43.6268C51.8943 42.9497 51.4716 42.294 51.0625 41.6599L50.5508 41.9887L51.0469 41.6355C50.6378 41.0014 50.221 40.3565 49.8501 39.694C50.5684 40.4769 51.2524 41.3194 51.9207 42.1404L52.0059 42.2451C52.4178 42.7491 52.8425 43.2706 53.2711 43.7726C54.4786 45.1856 55.8153 46.5341 57.0013 47.725C57.4234 48.149 57.8445 48.5756 58.2646 49.0049C59.9634 50.7428 61.2521 52.4836 62.2062 54.3262C63.1309 56.1101 64.0772 58.0593 65.2749 60.6495C66.3591 62.9853 67.4091 65.3847 68.3965 67.7792C68.8965 68.9926 69.3897 70.2256 69.8643 71.4507C69.9739 71.7335 70.06 72.0251 70.1578 72.3314C70.288 72.7897 70.4492 73.2385 70.6403 73.6749C71.0072 74.4705 71.6188 75.0058 72.2059 75.5234C72.3162 75.6206 72.4261 75.7185 72.5357 75.817C74.0374 77.1726 75.6108 78.4466 77.2493 79.6333C78.3551 80.4386 79.5352 81.2547 80.7613 82.064C76.691 85.9402 71.8863 88.9628 66.6302 90.954Z" fill="#83AEB5"/>
<path d="M61.8566 39.1557C64.2619 39.1557 66.0868 37.8669 66.8599 35.6212C67.4734 33.8451 66.7689 32.0427 66.2023 30.5944C66.1279 30.4046 65.9792 30.0435 65.8109 29.6374C65.5614 29.0336 65.2512 28.2831 65.1259 27.9269C65.0388 27.693 64.9449 27.4464 64.8431 27.1763C64.5173 26.3182 64.1121 25.2516 63.5622 23.5968C63.529 23.4962 63.4685 23.4067 63.3875 23.3383C63.3064 23.2699 63.208 23.2254 63.1032 23.2095C62.9984 23.1937 62.8912 23.2073 62.7936 23.2487C62.696 23.2901 62.6118 23.3578 62.5504 23.4442C61.9828 24.2466 61.2675 25.1977 60.6373 26.0373C59.878 27.0472 59.2781 27.8467 59.0433 28.2302C58.9454 28.3946 58.6959 28.7371 58.4562 29.0689C58.1068 29.5581 57.7448 30.0572 57.5696 30.3625C56.8641 31.5876 55.2103 34.4557 57.872 37.3689C58.3763 37.9262 58.9909 38.3728 59.6768 38.6804C60.3627 38.988 61.1049 39.1498 61.8566 39.1557ZM61.8282 29.9349C61.9926 29.6687 62.1609 29.383 62.34 29.0268C62.4594 29.3898 62.5876 29.7548 62.7148 30.1159C62.9027 30.6482 63.0798 31.1502 63.2178 31.6199C63.2882 31.8577 63.3665 32.0857 63.4418 32.3049C63.7139 33.0995 63.9478 33.7854 63.7354 34.6015C63.4536 35.6594 62.5612 35.8815 61.8605 35.8815C61.5616 35.8775 61.2668 35.8113 60.9949 35.6872C60.723 35.563 60.4799 35.3836 60.2812 35.1603C59.603 34.4186 59.8066 33.3852 61.0581 31.2158C61.3282 30.7568 61.5767 30.3468 61.8282 29.9349Z" fill="#3B2222"/>
<path d="M3.8964 42.2025C3.27203 42.0815 3.03461 41.7299 3.13967 41.188C3.19449 40.9052 3.3272 40.662 3.5074 40.4892L2.26983 39.7481C1.96798 40.044 1.75689 40.5654 1.6564 41.0837C1.35034 42.6624 2.11199 43.7146 3.53745 43.9909L3.82019 44.0457L3.63061 45.0235L5.04429 45.2976L5.23386 44.3198L10.0168 45.2471L10.3731 43.4093L5.59017 42.482L5.89622 40.9034L4.48255 40.6293L4.16735 42.2551L3.8964 42.2025Z" fill="#3B2222"/>
<path d="M12.1891 37.3232C12.9255 35.4078 12.1714 33.5237 10.3569 32.8261C8.54234 32.1285 6.72028 33.0221 5.98391 34.9375C5.24754 36.8528 5.99733 38.7481 7.81185 39.4457C9.62636 40.1433 11.4527 39.2385 12.1891 37.3232ZM10.7554 36.7719C10.4195 37.6456 9.5339 38.0765 8.49224 37.676C7.45057 37.2755 7.08171 36.3623 7.4176 35.4887C7.75349 34.615 8.6348 34.1953 9.67646 34.5958C10.7181 34.9963 11.0913 35.8983 10.7554 36.7719Z" fill="#3B2222"/>
<path d="M10.6886 27.4701L9.96182 27.0255L9.02874 28.5507L14.5359 31.9198L15.5128 30.3229L12.9128 28.7323C11.8584 28.0873 11.7343 27.2095 12.2728 26.3291C12.348 26.2063 12.4209 26.1102 12.5125 25.9834L11.0385 25.0816C10.5187 25.9312 10.3943 26.7555 10.6886 27.4701Z" fill="#3B2222"/>
<path d="M17.9811 16.7598C17.2232 17.4603 16.644 18.3717 16.4662 19.2223L17.8475 19.7267C17.9387 19.1358 18.3038 18.4878 18.8061 18.0235C19.5463 17.3393 20.2164 17.3571 20.7622 17.9475L19.6695 18.9576C18.2244 20.2935 18.1716 21.4208 18.9454 22.2579C19.7029 23.0774 20.934 23.0833 22.0443 22.057C22.7405 21.4135 23.0221 20.7282 22.8785 20.0602L23.4243 20.6506L24.7108 19.4614L22.2101 16.7561C20.8824 15.3198 19.4262 15.4239 17.9811 16.7598ZM21.5327 20.8141C21.048 21.2621 20.5455 21.3018 20.2278 20.9581C19.9345 20.6409 19.9173 20.2156 20.5606 19.621L21.5034 18.7494L21.9514 19.2341C22.192 19.8125 21.9909 20.3905 21.5327 20.8141Z" fill="#3B2222"/>
<path d="M26.8781 17.8495L28.4259 16.7965L23.4172 9.43475L21.8695 10.4878L26.8781 17.8495Z" fill="#3B2222"/>
<path d="M30.3167 15.5741L31.9602 14.6777L27.6965 6.86095L26.053 7.75736L30.3167 15.5741Z" fill="#3B2222"/>
<path d="M40.3818 11.5125C42.2528 11.0311 43.1213 9.92786 42.8222 8.76571C42.1883 6.30197 38.6775 8.30814 38.4024 7.23897C38.3186 6.91357 38.6015 6.56819 39.415 6.35886C39.9844 6.21234 40.6303 6.17006 41.3359 6.36021L41.6083 4.91474C40.9259 4.7186 39.9221 4.76625 39.0621 4.98754C37.2376 5.45702 36.3837 6.56888 36.6887 7.75426C37.3316 10.2529 40.8395 8.23508 41.1026 9.25776C41.1923 9.6064 40.9354 9.90795 40.0986 10.1233C39.3316 10.3206 38.4204 10.2949 37.7699 10.0781L37.5005 11.5352C38.1803 11.7692 39.3242 11.7847 40.3818 11.5125Z" fill="#3B2222"/>
<path d="M50.1896 9.95742L52.454 9.83081L49.3229 6.28006L51.854 3.39828L49.6255 3.52287L47.0384 6.26356L46.7571 1.23141L44.888 1.33591L45.3851 10.226L47.2541 10.1215L47.1624 8.48009L48.0114 7.54324L50.1896 9.95742Z" fill="#3B2222"/>
<path d="M56.1287 2.82878C56.8212 2.89875 57.3326 2.49211 57.3954 1.87127C57.4533 1.29819 57.0311 0.821327 56.3386 0.751355C55.6461 0.681383 55.1346 1.08802 55.0755 1.67304C55.0164 2.25806 55.4362 2.7588 56.1287 2.82878ZM54.4579 10.0534L56.3204 10.2416L56.9695 3.81832L55.1069 3.63012L54.4579 10.0534Z" fill="#3B2222"/>
<path d="M64.057 5.0214C63.2109 4.7946 62.403 4.88864 61.7733 5.29134L61.969 4.56111L60.242 4.09819L58.5705 10.3341L60.3787 10.8187L61.2051 7.73557C61.5127 6.58808 62.2815 6.22267 63.1508 6.45568C63.9506 6.67005 64.2899 7.25796 64.0196 8.26636L63.1373 11.5582L64.9455 12.0428L65.9024 8.47285C66.4119 6.57195 65.5291 5.41597 64.057 5.0214Z" fill="#3B2222"/>
<path d="M75.6618 15.6759C75.4061 15.7003 75.1275 15.6256 74.8933 15.4796C74.4656 15.2129 74.3698 14.7996 74.6618 14.3312L76.0523 12.1012L77.4168 12.952L78.1787 11.73L76.8142 10.8792L77.6459 9.54531L76.0574 8.55483L75.2257 9.88876L74.3805 9.36178L73.6186 10.5837L74.4638 11.1107L73.0606 13.3611C72.2479 14.6645 72.5887 15.7962 73.8819 16.6025C74.3707 16.9073 74.9191 17.0937 75.391 17.0627L75.6618 15.6759Z" fill="#3B2222"/>
<path d="M84.6277 16.7334L80.3482 18.7821L81.9176 14.3094L80.4776 13.0214L78.2256 19.7332L78.1677 19.7619C77.5959 20.0233 77.2293 20.0012 76.8446 19.6572C76.5674 19.4092 76.3762 19.0289 76.3295 18.6491L74.9317 19.1859C74.9968 19.7432 75.3894 20.3842 75.8814 20.8242C76.749 21.6002 77.7229 21.8433 79.228 21.0966L85.9694 17.9334L84.6277 16.7334Z" fill="#3B2222"/>
<path d="M90.5044 23.3005C89.9951 22.6026 89.3619 22.2031 88.6304 22.1575L89.2314 21.7189L88.1774 20.2746L81.0819 25.4526L82.1854 26.9647L84.6184 25.1892C84.4749 25.8882 84.6603 26.5699 85.1343 27.2194C86.2024 28.6831 88.0769 29.0532 89.7151 27.8578C91.3533 26.6623 91.5726 24.7642 90.5044 23.3005ZM86.1841 26.0522C85.6323 25.2961 85.7578 24.3281 86.6593 23.6702C87.5608 23.0123 88.5209 23.1881 89.0727 23.9442C89.6244 24.7003 89.499 25.6683 88.5975 26.3262C87.696 26.9841 86.7358 26.8083 86.1841 26.0522Z" fill="#3B2222"/>
<path d="M93.8375 36.3998C95.7389 35.5663 96.3161 33.7148 95.555 31.9783C94.7649 30.1759 92.8974 29.3829 91.1279 30.1585C89.3695 30.9294 88.6665 32.8229 89.5626 34.8671C90.0299 35.9332 90.7209 36.6129 91.5883 36.8878L92.1775 35.542C91.6146 35.304 91.2303 34.9353 90.9557 34.3088C90.5606 33.4076 90.7366 32.5836 91.4007 32.096L93.3615 36.5691C93.5092 36.5175 93.7057 36.4576 93.8375 36.3998ZM94.2629 32.5578C94.6001 33.3271 94.3622 34.0996 93.6679 34.5481L92.3912 31.6356C93.2026 31.4241 93.9208 31.7775 94.2629 32.5578Z" fill="#3B2222"/>
<path d="M92.0786 42.1039C92.5017 43.989 93.5775 44.8913 94.7484 44.6284C97.2306 44.0712 95.3343 40.4999 96.4115 40.258C96.7393 40.1844 97.0757 40.4779 97.2597 41.2975C97.3885 41.8712 97.4108 42.518 97.1988 43.2174L98.6351 43.5345C98.8523 42.8585 98.8359 41.8538 98.6413 40.9873C98.2287 39.1491 97.1438 38.2611 95.9496 38.5292C93.4322 39.0943 95.3402 42.6631 94.3099 42.8944C93.9586 42.9732 93.6652 42.707 93.4759 41.864C93.3025 41.0913 93.3565 40.1813 93.5933 39.5378L92.1452 39.2234C91.8903 39.8955 91.8394 41.0384 92.0786 42.1039Z" fill="#3B2222"/>
</g>
<defs>
<clipPath id="clip0_787_1303">
<rect width="102.806" height="97" fill="white"/>
</clipPath>
</defs>
</svg>
