<svg width="39" height="44" viewBox="0 0 39 44" fill="none" xmlns="http://www.w3.org/2000/svg">
<path d="M17.5543 43.3855L7.16445 36.5062C3.34023 33.9753 1.05859 29.7257 1.05859 25.141V2.16562L2.13711 3.55351C3.74414 5.6246 6.16757 6.81054 8.78437 6.81054C10.6234 6.81054 12.368 6.22616 13.8332 5.12616C15.2512 4.06054 16.3125 2.54374 16.8281 0.855076L16.957 0.429688H17.9969L18.1258 0.855076C18.6414 2.54374 19.7027 4.06054 21.1207 5.12616C22.5859 6.23046 24.3305 6.81054 26.1695 6.81054C28.7863 6.81054 31.2097 5.6246 32.8168 3.55351L33.8953 2.16562V25.1796C33.8953 29.7386 31.6308 33.9753 27.841 36.5105L17.5543 43.3855ZM2.25742 5.46562V25.141C2.25742 29.3218 4.33711 33.1976 7.82617 35.505L17.55 41.9417L27.1664 35.5136C30.6211 33.2019 32.6836 29.339 32.6836 25.1839V5.46562C30.9219 7.09843 28.6187 8.01366 26.1609 8.01366C24.0598 8.01366 22.0617 7.34764 20.3859 6.08436C19.1398 5.14765 18.1301 3.90156 17.4641 2.49648C16.798 3.90156 15.7926 5.14335 14.5422 6.08436C12.8664 7.34335 10.8727 8.01366 8.76718 8.01366C6.32656 8.01366 4.02344 7.09843 2.25742 5.46562Z" fill="#82AEB4"/>
<path d="M9.28693 33.4949C6.24044 31.4796 4.42285 28.0937 4.42285 24.4414V12.9688H5.62598V24.4414C5.62598 27.6898 7.24161 30.6976 9.95295 32.4937L9.28693 33.4949Z" fill="#82AEB4"/>
<path d="M19.922 28.3387H15.0235V23.2125H9.89307V18.3141H15.0235V13.1836H19.922V18.3098H25.0481V23.2082H19.922V28.3387ZM16.2267 27.1355H18.7188V22.0094H23.845V19.5172H18.7188V14.3867H16.2267V19.5129H11.0962V22.0051H16.2267V27.1355Z" fill="#82AEB4"/>
<path d="M38.7875 23.7132C38.7875 34.8508 27.7503 39.3982 18.0049 39.3982C8.25957 39.3982 0.359395 30.3694 0.359395 19.2319C0.359395 8.09428 11.3966 3.54686 21.1419 3.54686C30.8873 3.54686 38.7875 12.5757 38.7875 23.7132Z" fill="#82AEB4" fill-opacity="0.1"/>
</svg>
