<svg width="100" height="171" viewBox="0 0 100 171"
                fill="none" xmlns="http://www.w3.org/2000/svg">
                <g opacity="0.5">
                    <circle cx="35.5" cy="72.5" r="2.5" fill="#BD967A" />
                    <circle cx="35.5" cy="84.5" r="2.5" fill="#BD967A" />
                    <circle cx="35.5" cy="96.5" r="2.5" fill="#BD967A" />
                    <circle cx="35.5" cy="108.5" r="2.5" fill="#BD967A" />
                    <circle cx="35.5" cy="120.5" r="2.5" fill="#BD967A" />
                    <circle cx="69.5" cy="72.5" r="2.5" fill="#BD967A" />
                    <circle cx="69.5" cy="84.5" r="2.5" fill="#BD967A" />
                    <circle cx="69.5" cy="96.5" r="2.5" fill="#BD967A" />
                    <circle cx="69.5" cy="108.5" r="2.5" fill="#BD967A" />
                    <circle cx="69.5" cy="120.5" r="2.5" fill="#BD967A" />
                    <circle cx="86.5" cy="72.5" r="2.5" fill="#BD967A" />
                    <circle cx="86.5" cy="84.5" r="2.5" fill="#BD967A" />
                    <circle cx="86.5" cy="96.5" r="2.5" fill="#BD967A" />
                    <circle cx="86.5" cy="108.5" r="2.5" fill="#BD967A" />
                    <circle cx="86.5" cy="120.5" r="2.5" fill="#BD967A" />
                    <circle cx="52.5" cy="72.5" r="2.5" fill="#BD967A" />
                    <circle cx="52.5" cy="84.5" r="2.5" fill="#BD967A" />
                    <circle cx="52.5" cy="96.5" r="2.5" fill="#BD967A" />
                    <circle cx="52.5" cy="108.5" r="2.5" fill="#BD967A" />
                    <circle cx="52.5" cy="120.5" r="2.5" fill="#BD967A" />
                </g>
            </svg>