<svg width="94" height="105" viewBox="0 0 94 105" fill="none" xmlns="http://www.w3.org/2000/svg">
<g clip-path="url(#clip0_787_1324)">
<path d="M64.5426 34.7896C64.5478 34.8237 64.5612 34.8561 64.5817 34.8839C64.6021 34.9117 64.6289 34.9341 64.6599 34.9493C65.4286 35.3317 65.5301 36.5587 66.3215 37.2358C66.3628 37.2722 66.4165 37.2914 66.4715 37.2894C66.5265 37.2873 66.5787 37.2643 66.6172 37.2249L75.0416 28.7433C75.2501 28.5281 75.3906 28.2562 75.4455 27.9616C75.5005 27.667 75.4674 27.3627 75.3505 27.0868C75.2337 26.8109 75.0381 26.5755 74.7882 26.41C74.5384 26.2445 74.2454 26.1563 73.9457 26.1563C73.7417 26.1553 73.5397 26.1958 73.3518 26.2753C73.1639 26.3547 72.9941 26.4715 72.8527 26.6185C72.8527 26.6185 69.2348 30.1152 64.6057 34.6014C64.5809 34.6254 64.5622 34.6551 64.5512 34.6878C64.5402 34.7206 64.5373 34.7555 64.5426 34.7896Z" fill="#83AEB5"/>
<path d="M28.1028 94.6502C28.4701 94.6496 28.8262 94.5241 29.1127 94.2942C29.3992 94.0644 29.599 93.744 29.6792 93.3856C29.7595 93.0272 29.7154 92.6521 29.5543 92.3221C29.3932 91.992 29.1246 91.7266 28.7927 91.5694C24.9873 89.764 21.4696 87.4061 18.3538 84.572C18.3853 84.572 18.4159 84.5779 18.4474 84.5779H18.5213C18.8395 84.5626 19.1449 84.4478 19.3945 84.2498C19.4595 84.1975 24.5351 78.6952 24.7519 78.4607C24.813 78.3946 27.8121 75.0802 27.7717 74.9994C27.5351 74.5431 27.2789 74.0592 27.0079 73.5802C26.8265 73.2649 24.7825 74.7461 24.5489 74.4101C24.5304 74.3836 24.5062 74.3616 24.478 74.3458C24.4499 74.3299 24.4185 74.3206 24.3863 74.3184C24.3203 74.3184 23.1051 75.7179 23.0637 75.7662C19.772 79.3743 17.6491 81.6913 17.4855 81.8677C17.2884 82.0289 17.1348 82.2369 17.0387 82.4728C16.9426 82.7087 16.9072 82.9648 16.9356 83.2179C8.95263 75.2665 4.20526 64.324 4.20526 52.7645C4.20526 43.8759 5.99205 37.4078 11.11 30.1502C11.2365 29.9768 11.3273 29.7799 11.377 29.5711C11.4267 29.3622 11.4343 29.1456 11.3995 28.9338C11.3647 28.7219 11.288 28.5191 11.1741 28.3372C11.0601 28.1553 10.911 27.9979 10.7356 27.8741C10.5602 27.7504 10.3619 27.6627 10.1523 27.6163C9.94273 27.57 9.72599 27.5658 9.51474 27.604C9.30349 27.6421 9.10196 27.722 8.92187 27.8388C8.74178 27.9557 8.58674 28.1072 8.46577 28.2846C2.96248 36.0891 0.97168 43.2047 0.97168 52.7645C0.979856 61.5089 3.46831 70.0716 8.14811 77.4583C12.8279 84.845 19.507 90.7528 27.41 94.4955C27.6267 94.5974 27.8633 94.6503 28.1028 94.6502Z" fill="#83AEB5"/>
<path d="M85.7544 27.3076C85.5061 26.9573 85.1288 26.7201 84.7056 26.648C84.2823 26.5759 83.8478 26.6749 83.4975 26.9232C83.1473 27.1715 82.91 27.5488 82.8379 27.9721C82.7658 28.3953 82.8648 28.8299 83.1132 29.1801C88.2577 36.4485 90.0583 43.8539 90.0583 52.7682C90.0583 68.5231 81.4259 82.9919 67.5307 90.5293C67.3358 90.626 67.1624 90.7609 67.0208 90.9262C66.8792 91.0914 66.7724 91.2834 66.7068 91.4909C66.6411 91.6983 66.618 91.9168 66.6387 92.1334C66.6595 92.35 66.7237 92.5602 66.8275 92.7514C66.9313 92.9426 67.0726 93.1108 67.243 93.2462C67.4133 93.3815 67.6092 93.4811 67.8189 93.539C68.0286 93.5969 68.2479 93.612 68.4635 93.5832C68.6792 93.5544 68.8868 93.4825 69.0741 93.3716C76.395 89.4137 82.5104 83.5511 86.7735 76.4036C91.0367 69.2562 93.2892 61.0895 93.2929 52.7672C93.2929 43.1778 91.2873 35.1259 85.7544 27.3076Z" fill="#83AEB5"/>
<path d="M66.9601 65.8077C66.8344 65.8078 66.71 65.7823 66.5945 65.7328C66.4651 65.684 66.3472 65.6091 66.248 65.5128C66.1488 65.4165 66.0705 65.3009 66.0179 65.173C65.9902 65.102 65.9714 65.0279 65.9618 64.9523C65.9109 64.7364 65.9375 64.5095 66.0369 64.3112C66.1363 64.1129 66.3022 63.9558 66.5056 63.8674C66.709 63.779 66.9371 63.7649 67.1498 63.8276C67.3626 63.8902 67.5466 64.0256 67.6697 64.2101C67.6929 64.245 67.714 64.2812 67.7328 64.3185C67.832 64.4602 67.8906 64.6263 67.902 64.7988C67.9135 64.9714 67.8775 65.1438 67.7978 65.2973C67.7182 65.4508 67.598 65.5796 67.4503 65.6696C67.3026 65.7596 67.1331 65.8073 66.9601 65.8077Z" fill="#3B2222"/>
<path d="M47.4331 41.5022C46.4832 41.4949 45.5742 41.1142 44.9026 40.4424C44.231 39.7705 43.8507 38.8614 43.8438 37.9114C43.837 36.9615 44.2041 36.047 44.866 35.3655C45.5278 34.684 46.4312 34.2902 47.3809 34.2692L60.0944 34.0859C60.8044 34.0871 61.4984 34.2973 62.0898 34.6903C62.6811 35.0833 63.1437 35.6417 63.4197 36.2958C63.6958 36.9499 63.7733 37.6709 63.6423 38.3687C63.5114 39.0666 63.1779 39.7104 62.6835 40.22C62.3542 40.5621 61.9601 40.8355 61.5243 41.0241C61.0885 41.2128 60.6196 41.3129 60.1447 41.3188L47.4331 41.5022ZM60.0954 35.9772H60.0688L47.4085 36.1595C46.961 36.1775 46.5381 36.3687 46.229 36.6928C45.92 37.0168 45.749 37.4483 45.7522 37.8961C45.7554 38.3439 45.9325 38.773 46.2462 39.0926C46.5598 39.4122 46.9855 39.5973 47.4331 39.6089H47.4578L60.1191 39.4256C60.5754 39.4165 61.0096 39.2275 61.3272 38.8996C61.6447 38.5718 61.8198 38.1317 61.8142 37.6753C61.8057 37.224 61.6213 36.7939 61.3002 36.4767C60.9791 36.1594 60.5468 35.9802 60.0954 35.9772Z" fill="#3B2222"/>
<path d="M49.9742 35.7973C49.7257 35.7969 49.4874 35.6987 49.3106 35.5242C49.1338 35.3496 49.0326 35.1125 49.029 34.864L48.961 30.1709C48.9576 29.92 49.0539 29.678 49.2286 29.4981C49.4034 29.3181 49.6425 29.2148 49.8934 29.211L57.5017 29.1016H57.5146C57.7629 29.1015 58.0012 29.1992 58.178 29.3735C58.3549 29.5478 58.4561 29.7846 58.4597 30.0329L58.5287 34.728C58.5318 34.9786 58.4356 35.2201 58.2611 35.3998C58.0865 35.5796 57.8478 35.6828 57.5973 35.687L49.988 35.7973H49.9742ZM50.8661 31.0884L50.9065 33.8923L56.6226 33.8095L56.5822 31.0056L50.8661 31.0884Z" fill="#3B2222"/>
<path d="M48.6661 46.1783C48.4179 46.1783 48.1798 46.0808 48.0029 45.9067C47.8261 45.7326 47.7248 45.496 47.7209 45.2479L47.6539 40.5528C47.6521 40.4287 47.6748 40.3054 47.7206 40.19C47.7664 40.0747 47.8345 39.9695 47.921 39.8804C48.0075 39.7914 48.1106 39.7202 48.2246 39.6711C48.3386 39.6219 48.4611 39.5957 48.5853 39.5939C48.7094 39.592 48.8326 39.6147 48.948 39.6605C49.0634 39.7063 49.1686 39.7744 49.2576 39.8609C49.3467 39.9474 49.4178 40.0506 49.467 40.1646C49.5162 40.2785 49.5424 40.4011 49.5442 40.5252L49.6122 45.2203C49.614 45.3444 49.5914 45.4676 49.5456 45.5829C49.4997 45.6982 49.4316 45.8034 49.3451 45.8924C49.2586 45.9813 49.1554 46.0524 49.0414 46.1014C48.9275 46.1505 48.8049 46.1766 48.6809 46.1783H48.6661Z" fill="#3B2222"/>
<path d="M59.189 46.0279C58.9405 46.028 58.702 45.9301 58.5251 45.7556C58.3482 45.5812 58.2472 45.344 58.2438 45.0956L58.1758 40.4014C58.1793 40.1553 58.2786 39.9201 58.4527 39.746C58.6267 39.5719 58.8618 39.4724 59.108 39.4689C59.3542 39.4653 59.5921 39.5578 59.7712 39.7268C59.9503 39.8957 60.0564 40.1279 60.0671 40.3738L60.1331 45.068C60.1351 45.1922 60.1125 45.3156 60.0668 45.4311C60.021 45.5465 59.9529 45.6519 59.8664 45.741C59.7799 45.8302 59.6767 45.9014 59.5627 45.9506C59.4486 45.9999 59.326 46.0261 59.2018 46.0279H59.189Z" fill="#3B2222"/>
<path d="M42.2711 73.9767C42.142 73.9771 42.0142 73.951 41.8956 73.9002C41.777 73.8493 41.67 73.7748 41.5812 73.681C39.2552 71.2071 37.6986 68.1102 37.1012 64.7675C36.5038 61.4248 36.8913 57.9805 38.2165 54.854C39.5417 51.7276 41.7474 49.0539 44.565 47.1587C47.3826 45.2635 50.6905 44.2285 54.0858 44.1797H54.3401C56.7927 44.1799 59.2179 44.695 61.4589 45.6917C63.6998 46.6885 65.7066 48.1446 67.3492 49.9658C67.4324 50.058 67.4966 50.1657 67.5381 50.2827C67.5796 50.3998 67.5977 50.5238 67.5913 50.6478C67.5849 50.7718 67.5542 50.8934 67.5008 51.0055C67.4474 51.1176 67.3725 51.2181 67.2803 51.3012C67.188 51.3844 67.0804 51.4486 66.9633 51.4901C66.8463 51.5316 66.7223 51.5497 66.5983 51.5433C66.4743 51.5369 66.3527 51.5061 66.2406 51.4528C66.1285 51.3994 66.028 51.3245 65.9448 51.2323C64.5588 49.7127 62.8863 48.4818 61.0233 47.6104C59.1603 46.7389 57.1435 46.244 55.0887 46.1541C53.0339 46.0642 50.9816 46.381 49.0496 47.0864C47.1176 47.7918 45.3439 48.8718 43.8304 50.2645C42.317 51.6573 41.0935 53.3352 40.2302 55.202C39.367 57.0688 38.881 59.0878 38.8001 61.143C38.7192 63.1981 39.0451 65.249 39.7589 67.1779C40.4728 69.1068 41.5607 70.8757 42.96 72.3831C43.0863 72.5176 43.1705 72.6862 43.2022 72.8681C43.2339 73.0499 43.2117 73.237 43.1384 73.4064C43.0651 73.5758 42.9438 73.7201 42.7895 73.8214C42.6353 73.9227 42.4547 73.9767 42.2701 73.9767H42.2711Z" fill="#3B2222"/>
<path d="M20.1604 75.293C19.9148 75.2859 19.6817 75.1835 19.5102 75.0076C19.3388 74.8317 19.2425 74.5959 19.2417 74.3503C19.2409 74.1046 19.3358 73.8683 19.5061 73.6912C19.6764 73.5142 19.909 73.4104 20.1545 73.4018C32.8621 73.315 57.3342 73.1445 57.3342 73.1445L57.348 75.0368L20.1673 75.293H20.1604Z" fill="#3B2222"/>
<path d="M24.197 74.3775C24.0722 74.3779 23.9486 74.3534 23.8334 74.3056C23.7182 74.2577 23.6136 74.1873 23.5259 74.0986C21.1904 71.7427 19.7623 68.6374 19.4936 65.331C19.2248 62.0246 20.1326 58.7295 22.0569 56.0272C23.9812 53.325 26.7981 51.3894 30.0107 50.562C33.2232 49.7346 36.6247 50.0686 39.6149 51.505C39.7267 51.5589 39.8268 51.6343 39.9095 51.7269C39.9922 51.8195 40.0558 51.9275 40.0968 52.0447C40.1378 52.1619 40.1552 52.286 40.1482 52.4099C40.1412 52.5338 40.1099 52.6552 40.0559 52.767C40.002 52.8788 39.9266 52.9789 39.834 53.0616C39.7414 53.1443 39.6335 53.2079 39.5163 53.2489C39.3991 53.2898 39.275 53.3073 39.1511 53.3003C39.0271 53.2933 38.9058 53.2619 38.794 53.208C36.2054 51.9642 33.2605 51.6749 30.4794 52.3912C27.6982 53.1075 25.2596 54.7833 23.5939 57.1229C21.9282 59.4624 21.1425 62.3152 21.3757 65.1776C21.6089 68.04 22.8458 70.7281 24.8682 72.7672C25 72.8995 25.0895 73.0679 25.1256 73.2512C25.1616 73.4344 25.1425 73.6242 25.0707 73.7966C24.9988 73.969 24.8775 74.1162 24.722 74.2196C24.5665 74.323 24.3838 74.378 24.197 74.3775Z" fill="#3B2222"/>
<path d="M29.9657 51.793C29.7174 51.7927 29.4792 51.6948 29.3025 51.5203C29.1259 51.3459 29.0249 51.1089 29.0216 50.8606L28.9693 47.2989C28.9675 47.1748 28.9902 47.0515 29.036 46.9361C29.0818 46.8208 29.1499 46.7156 29.2364 46.6265C29.3229 46.5375 29.4261 46.4663 29.54 46.4172C29.654 46.368 29.7766 46.3418 29.9007 46.3399C30.0248 46.3381 30.1481 46.3608 30.2634 46.4066C30.3788 46.4524 30.484 46.5205 30.5731 46.607C30.6621 46.6935 30.7332 46.7967 30.7824 46.9106C30.8316 47.0246 30.8578 47.1472 30.8596 47.2713L30.9119 50.833C30.9137 50.9573 30.891 51.0807 30.8452 51.1962C30.7993 51.3117 30.7311 51.417 30.6445 51.5061C30.558 51.5953 30.4547 51.6665 30.3406 51.7157C30.2265 51.7649 30.1038 51.7912 29.9795 51.793H29.9657Z" fill="#3B2222"/>
<path d="M37.5729 51.6831C37.3246 51.6829 37.0864 51.5849 36.9098 51.4105C36.7331 51.236 36.6322 50.999 36.6288 50.7508L36.5766 47.19C36.5711 47.0636 36.5911 46.9373 36.6353 46.8187C36.6795 46.7002 36.747 46.5916 36.8339 46.4996C36.9208 46.4076 37.0253 46.334 37.1412 46.2831C37.257 46.2322 37.3819 46.205 37.5085 46.2032C37.635 46.2014 37.7606 46.2251 37.8779 46.2727C37.9951 46.3203 38.1016 46.391 38.1911 46.4805C38.2805 46.5701 38.3511 46.6766 38.3986 46.7939C38.4462 46.9112 38.4697 47.0369 38.4678 47.1634L38.519 50.7232C38.5211 50.8472 38.4988 50.9704 38.4532 51.0857C38.4077 51.2011 38.3399 51.3063 38.2537 51.3954C38.1675 51.4846 38.0646 51.5559 37.9508 51.6052C37.837 51.6546 37.7147 51.681 37.5907 51.6831H37.5729Z" fill="#3B2222"/>
<path d="M28.2201 47.2816C27.5142 47.2787 26.8375 46.9995 26.3348 46.5038C25.8321 46.0081 25.5435 45.3353 25.5306 44.6295V44.5576C25.5198 43.8438 25.7929 43.1549 26.2898 42.6424C26.7868 42.1299 27.4669 41.8358 28.1807 41.8246L38.8128 41.6719C39.5189 41.6746 40.1959 41.9537 40.6988 42.4494C41.2016 42.9451 41.4904 43.618 41.5033 44.324V44.3949C41.5088 44.7484 41.4445 45.0994 41.3142 45.4279C41.1839 45.7565 40.9901 46.0561 40.7438 46.3097C40.4976 46.5632 40.2038 46.7657 39.8792 46.9056C39.5546 47.0455 39.2056 47.12 38.8522 47.1249L28.2201 47.2816ZM38.8128 43.5671L28.2083 43.7198C28.1032 43.721 27.9993 43.7429 27.9027 43.7844C27.8061 43.8258 27.7186 43.886 27.6453 43.9614C27.5721 44.0368 27.5144 44.1259 27.4757 44.2236C27.437 44.3214 27.418 44.4258 27.4199 44.531V44.6039C27.4237 44.8137 27.5095 45.0136 27.6589 45.1609C27.8082 45.3083 28.0093 45.3913 28.2191 45.3923H28.232L38.8246 45.2396C39.0366 45.2362 39.2386 45.1489 39.3864 44.9969C39.5342 44.8449 39.6157 44.6405 39.613 44.4285V44.3575C39.6104 44.147 39.525 43.9459 39.3752 43.798C39.2254 43.65 39.0233 43.5671 38.8128 43.5671Z" fill="#3B2222"/>
<path d="M34.9837 63.4451C33.6128 63.4451 32.2606 63.0213 31.009 62.6311C30.0717 62.3354 29.1867 62.0604 28.3717 61.9737C26.0182 61.7224 23.3858 61.6337 21.7202 62.8735C21.6206 62.9477 21.5074 63.0015 21.387 63.0319C21.2666 63.0623 21.1414 63.0687 21.0186 63.0507C20.8957 63.0327 20.7776 62.9907 20.671 62.9271C20.5643 62.8635 20.4713 62.7794 20.3971 62.6799C20.323 62.5803 20.2691 62.467 20.2387 62.3466C20.2083 62.2263 20.2019 62.1011 20.2199 61.9782C20.2379 61.8553 20.2799 61.7372 20.3435 61.6306C20.4072 61.524 20.4912 61.4309 20.5908 61.3568C22.7787 59.7277 25.8536 59.8035 28.5737 60.0933C29.573 60.1997 30.5911 60.5181 31.5757 60.8256C33.4255 61.4041 35.1729 61.951 36.6916 61.1557C36.9138 61.0393 37.1731 61.0158 37.4126 61.0906C37.652 61.1654 37.852 61.3322 37.9684 61.5544C38.0849 61.7765 38.1083 62.0359 38.0335 62.2753C37.9587 62.5148 37.7919 62.7147 37.5697 62.8311C36.7716 63.2461 35.8832 63.457 34.9837 63.4451Z" fill="#3B2222"/>
<path d="M65.7771 64.0315C65.6092 64.0317 65.4443 63.9871 65.2993 63.9024C65.1543 63.8177 65.0345 63.6959 64.9522 63.5495C61.0968 56.7099 54.9814 60.0489 54.7222 60.1987C54.6033 60.2658 54.4712 60.3064 54.3351 60.3176C54.199 60.3288 54.0621 60.3104 53.9338 60.2637C53.036 59.9336 48.4147 58.2828 45.5064 58.0956C42.5981 57.9083 40.1785 58.0611 39.0323 58.5065C38.7987 58.598 38.5382 58.5929 38.3083 58.4924C38.0784 58.3918 37.8978 58.2041 37.8063 57.9704C37.7148 57.7367 37.7199 57.4763 37.8205 57.2463C37.921 57.0164 38.1088 56.8359 38.3425 56.7444C40.2741 55.9924 43.7334 56.085 45.6247 56.2082C48.4581 56.3915 52.5235 57.7526 54.193 58.3488C55.1894 57.8817 57.8642 56.8597 60.7962 57.6698C63.1615 58.3222 65.1099 59.9907 66.5961 62.6261C66.6757 62.7695 66.7167 62.9312 66.715 63.0952C66.7133 63.2592 66.669 63.42 66.5864 63.5618C66.5038 63.7035 66.3858 63.8213 66.2439 63.9037C66.102 63.986 65.9412 64.0301 65.7771 64.0315Z" fill="#3B2222"/>
<path d="M62.4638 66.4836C59.1524 66.4836 57.0048 65.2556 55.7246 64.1124C54.0314 62.6005 53.449 60.9044 53.4253 60.8334C53.354 60.5978 53.3774 60.3437 53.4904 60.125C53.6034 59.9063 53.7972 59.7403 54.0307 59.6622C54.2641 59.5841 54.5188 59.6 54.7407 59.7066C54.9626 59.8132 55.1341 60.0021 55.219 60.2332C55.2919 60.4441 57.1339 65.5069 64.3679 64.4474C64.4908 64.4295 64.6161 64.4359 64.7366 64.4663C64.8571 64.4967 64.9704 64.5506 65.0701 64.6248C65.1697 64.699 65.2538 64.7922 65.3175 64.8989C65.3811 65.0056 65.4232 65.1238 65.4412 65.2467C65.4591 65.3697 65.4527 65.495 65.4223 65.6155C65.3919 65.7359 65.338 65.8492 65.2638 65.9489C65.1896 66.0486 65.0964 66.1326 64.9897 66.1963C64.883 66.26 64.7648 66.302 64.6419 66.32C63.9207 66.4267 63.1928 66.4814 62.4638 66.4836Z" fill="#3B2222"/>
<path d="M58.0025 75.997C57.8084 75.9961 57.6192 75.9356 57.4606 75.8237C57.3019 75.7117 57.1815 75.5538 57.1155 75.3712C57.0633 75.2244 55.8264 71.7099 57.4526 68.5907C58.4381 66.6935 60.2426 65.3827 62.8051 64.6928C63.0471 64.6275 63.3052 64.661 63.5225 64.7859C63.7399 64.9109 63.8987 65.117 63.9641 65.3591C64.0294 65.6011 63.9959 65.8592 63.871 66.0765C63.746 66.2939 63.5399 66.4527 63.2978 66.5181C61.2676 67.066 59.8652 68.0565 59.1309 69.4648C58.2617 71.1304 58.4844 73.0128 58.7032 74.0171C60.4555 73.7214 64.715 72.4688 65.2896 67.3154C65.3034 67.192 65.3414 67.0725 65.4013 66.9637C65.4613 66.855 65.5421 66.7591 65.6391 66.6816C65.7361 66.6041 65.8474 66.5465 65.9667 66.512C66.086 66.4775 66.2109 66.4668 66.3343 66.4806C66.4577 66.4944 66.5772 66.5323 66.6859 66.5923C66.7947 66.6523 66.8905 66.7331 66.968 66.8301C67.0455 66.9271 67.1032 67.0384 67.1377 67.1577C67.1722 67.277 67.1828 67.4019 67.169 67.5253C66.7049 71.704 64.2341 73.7914 62.2413 74.8065C60.9333 75.4685 59.509 75.8702 58.0478 75.9892C58.0329 75.9929 58.0178 75.9955 58.0025 75.997Z" fill="#3B2222"/>
<path d="M63.7884 55.7367C63.5766 55.7365 63.3711 55.6652 63.2047 55.5342C63.0383 55.4032 62.9208 55.2201 62.8708 55.0143C62.1721 52.1375 58.6764 50.8435 58.6419 50.8307C58.4075 50.7449 58.2164 50.5699 58.1105 50.3438C58.0045 50.1178 57.9922 49.859 58.0762 49.6239C58.1602 49.3888 58.3337 49.1964 58.5589 49.0887C58.7841 48.981 59.0428 48.9666 59.2786 49.0488C59.4609 49.1158 63.7667 50.6898 64.7069 54.5679C64.7368 54.6882 64.7427 54.8133 64.7242 54.936C64.7057 55.0586 64.6632 55.1764 64.5991 55.2826C64.535 55.3888 64.4506 55.4813 64.3507 55.5548C64.2509 55.6284 64.1375 55.6815 64.017 55.7111C63.9421 55.7287 63.8653 55.7373 63.7884 55.7367Z" fill="#3B2222"/>
<path d="M74.2597 68.3493C71.1473 68.3493 68.5563 66.7537 68.4252 66.6739C68.2203 66.5378 68.0764 66.3273 68.0241 66.0869C67.9718 65.8465 68.0151 65.5952 68.145 65.3863C68.2748 65.1773 68.481 65.0272 68.7197 64.9677C68.9584 64.9081 69.2108 64.9439 69.4236 65.0674C69.4551 65.0871 72.7133 67.077 75.8671 66.26C77.5563 65.8224 78.9479 64.6367 80.0064 62.7376C80.1314 62.5241 80.335 62.3681 80.5737 62.3029C80.8124 62.2378 81.0671 62.2687 81.2832 62.3891C81.4993 62.5095 81.6597 62.7097 81.73 62.9469C81.8003 63.1841 81.7748 63.4394 81.6591 63.6581C80.3356 66.0323 78.5429 67.5244 76.3273 68.0931C75.6515 68.2645 74.9569 68.3506 74.2597 68.3493Z" fill="#3B2222"/>
<path d="M80.8352 64.1433C80.6198 64.1428 80.411 64.0684 80.2439 63.9324C77.6923 61.8696 75.3527 60.9905 73.2929 61.3177C70.966 61.6883 69.7449 63.5372 69.7321 63.5549C69.5975 63.7665 69.3844 63.916 69.1396 63.9704C68.8948 64.0248 68.6384 63.9798 68.4268 63.8452C68.2152 63.7106 68.0657 63.4974 68.0113 63.2526C67.9569 63.0078 68.0019 62.7514 68.1365 62.5398C68.2026 62.4353 69.7923 59.9774 72.9588 59.456C75.5803 59.0253 78.4325 60.0355 81.4344 62.4619C81.5861 62.5848 81.6961 62.7516 81.7493 62.9394C81.8025 63.1273 81.7963 63.3269 81.7315 63.5111C81.6667 63.6952 81.5466 63.8549 81.3875 63.968C81.2285 64.0812 81.0383 64.1424 80.8431 64.1433H80.8352Z" fill="#3B2222"/>
<path d="M65.8049 63.9523C65.6758 63.9528 65.548 63.9268 65.4293 63.876C65.3107 63.8251 65.2037 63.7505 65.115 63.6566C65.0165 63.5581 62.7044 61.0775 62.8424 57.4023C62.9409 54.6625 64.3631 52.0351 67.0585 49.5958C67.2445 49.4276 67.4897 49.3402 67.7401 49.3528C67.9906 49.3653 68.2258 49.4769 68.394 49.6628C68.5622 49.8488 68.6496 50.094 68.637 50.3444C68.6245 50.5949 68.5129 50.8301 68.3269 50.9983C66.0326 53.0748 64.8233 55.245 64.7327 57.4477C64.6134 60.3196 66.4692 62.335 66.4879 62.3557C66.6142 62.4903 66.6984 62.6589 66.7301 62.8407C66.7618 63.0226 66.7397 63.2097 66.6663 63.3791C66.593 63.5485 66.4717 63.6927 66.3174 63.794C66.1632 63.8954 65.9826 63.9493 65.798 63.9493L65.8049 63.9523Z" fill="#3B2222"/>
<path d="M74.0865 77.6027C74.0487 77.6027 74.0108 77.6007 73.9732 77.5968C70.5977 77.1957 68.1447 75.7824 66.6801 73.3964C65.4364 71.3642 65.2274 69.1181 65.2708 67.5915C65.2743 67.4674 65.3022 67.3452 65.3529 67.2319C65.4037 67.1185 65.4762 67.0163 65.5664 66.931C65.6567 66.8457 65.7628 66.779 65.8788 66.7348C65.9948 66.6905 66.1184 66.6695 66.2425 66.673C66.3667 66.6765 66.4889 66.7044 66.6022 66.7551C66.7155 66.8058 66.8178 66.8784 66.9031 66.9686C66.9884 67.0589 67.055 67.165 67.0993 67.281C67.1436 67.397 67.1646 67.5206 67.1611 67.6447C67.0872 70.22 67.8243 74.5652 73.3878 75.5971C74.0047 72.9263 73.4735 70.6694 71.801 68.8708C70.9408 67.9571 69.895 67.238 68.734 66.7617C68.4979 66.6774 68.3049 66.5027 68.1975 66.2761C68.0901 66.0495 68.0771 65.7896 68.1614 65.5534C68.2457 65.3172 68.4204 65.1243 68.647 65.0169C68.8736 64.9095 69.1335 64.8965 69.3697 64.9808C70.8159 65.5601 72.1182 66.448 73.1857 67.5827C74.7853 69.3005 76.3947 72.3133 74.9844 76.9325C74.9261 77.1256 74.8075 77.2949 74.6459 77.4156C74.4843 77.5362 74.2882 77.6018 74.0865 77.6027Z" fill="#3B2222"/>
<path d="M68.9725 63.7529C68.7986 63.7532 68.6279 63.7055 68.4794 63.6149C68.3309 63.5244 68.2102 63.3946 68.1308 63.2398C68.0514 63.0851 68.0163 62.9114 68.0293 62.7379C68.0424 62.5645 68.1031 62.398 68.2048 62.2568C68.3822 62.0055 72.5313 56.0331 67.4351 50.9674C67.2661 50.7888 67.1733 50.5514 67.1763 50.3055C67.1794 50.0596 67.2781 49.8246 67.4514 49.6502C67.6248 49.4758 67.8592 49.3757 68.1051 49.3713C68.3509 49.3668 68.5889 49.4582 68.7685 49.6261C72.0395 52.8784 72.1243 56.4579 71.6197 58.8902C71.2838 60.4865 70.6459 62.0039 69.7402 63.3607C69.6528 63.4825 69.5376 63.5817 69.404 63.65C69.2704 63.7182 69.1225 63.7535 68.9725 63.7529Z" fill="#3B2222"/>
<path d="M16.4693 59.0681C16.468 58.9447 16.4911 58.8222 16.5373 58.7077C16.5836 58.5932 16.652 58.489 16.7386 58.4011C16.8253 58.3132 16.9285 58.2432 17.0422 58.1953C17.156 58.1474 17.2782 58.1225 17.4016 58.122C17.9249 58.1161 18.3537 58.4374 18.3586 59.0681C18.3536 59.3153 18.2539 59.5511 18.08 59.7268C17.9061 59.9026 17.6714 60.0047 17.4243 60.0123H17.4105C17.1614 60.009 16.9235 59.9083 16.7476 59.7319C16.5717 59.5555 16.4718 59.3172 16.4693 59.0681ZM17.8491 56.7215C17.7382 56.6654 17.6395 56.588 17.5586 56.4938C17.4777 56.3995 17.4161 56.2902 17.3775 56.1721C17.3389 56.054 17.3239 55.9295 17.3335 55.8056C17.343 55.6817 17.3769 55.5609 17.4332 55.4502C17.5468 55.2272 17.7442 55.0583 17.982 54.9803C18.2199 54.9024 18.4789 54.9218 18.7025 55.0343C18.8133 55.0906 18.912 55.1681 18.9928 55.2625C19.0736 55.3569 19.1351 55.4663 19.1736 55.5845C19.2121 55.7026 19.227 55.8272 19.2174 55.9511C19.2077 56.075 19.1738 56.1958 19.1175 56.3066C19.039 56.4627 18.9186 56.5938 18.7697 56.6852C18.6209 56.7766 18.4495 56.8247 18.2748 56.824C18.1265 56.8237 17.9804 56.7886 17.8481 56.7215H17.8491ZM19.5797 53.8575C19.4614 53.6361 19.4359 53.3768 19.5087 53.1366C19.5815 52.8963 19.7467 52.6948 19.968 52.5763C20.0779 52.5176 20.1983 52.4812 20.3224 52.4692C20.4464 52.4572 20.5716 52.47 20.6907 52.5066C20.8098 52.5432 20.9205 52.6031 21.0163 52.6827C21.1122 52.7624 21.1913 52.8602 21.2492 52.9705C21.3676 53.1918 21.3933 53.4511 21.3206 53.6913C21.248 53.9315 21.083 54.1331 20.8619 54.2517C20.725 54.3247 20.5725 54.3633 20.4174 54.3641C20.2447 54.3644 20.0751 54.3173 19.9273 54.228C19.7794 54.1387 19.6589 54.0105 19.5787 53.8575H19.5797Z" fill="#3B2222"/>
<path d="M73.437 55.2816C73.4346 55.0305 73.5316 54.7886 73.7068 54.6086C73.8819 54.4286 74.1211 54.3251 74.3723 54.3207C74.6239 54.3199 74.8657 54.4186 75.0449 54.5953C75.2242 54.7719 75.3264 55.0122 75.3292 55.2639C75.3313 55.3886 75.3088 55.5124 75.2629 55.6284C75.2171 55.7443 75.1488 55.8501 75.062 55.9396C74.9752 56.0292 74.8716 56.1007 74.7572 56.1502C74.6427 56.1996 74.5196 56.226 74.3949 56.2278H74.3821C74.132 56.2254 73.8928 56.125 73.716 55.948C73.5393 55.7711 73.439 55.5318 73.437 55.2816ZM72.684 52.5152C72.6282 52.4043 72.5947 52.2835 72.5856 52.1597C72.5765 52.0359 72.592 51.9115 72.6311 51.7936C72.6702 51.6758 72.7321 51.5668 72.8134 51.473C72.8948 51.3791 72.9938 51.3023 73.1049 51.2468C73.2157 51.1907 73.3365 51.157 73.4603 51.1477C73.5842 51.1384 73.7086 51.1536 73.8266 51.1925C73.9445 51.2315 74.0536 51.2933 74.1476 51.3745C74.2416 51.4557 74.3186 51.5546 74.3742 51.6657C74.4865 51.8898 74.5055 52.1492 74.427 52.3873C74.3485 52.6254 74.179 52.8227 73.9554 52.936C73.8232 53.001 73.6779 53.0347 73.5306 53.0346C73.3552 53.0352 73.1831 52.987 73.0335 52.8952C72.884 52.8035 72.763 52.6719 72.684 52.5152ZM70.9879 50.1736C70.9879 49.8286 70.5632 49.2314 70.9091 48.8391C71.256 48.4449 71.7754 48.4124 72.2475 48.7583C72.5628 49.1052 72.6358 49.7025 72.2918 50.0947C72.2064 50.1942 72.1006 50.2741 71.9815 50.329C71.8625 50.3839 71.733 50.4126 71.6019 50.413C71.3737 50.4172 71.1531 50.3312 70.9879 50.1736Z" fill="#3B2222"/>
<path d="M9.54891 17.8438C9.12204 17.3724 9.14308 16.9486 9.55228 16.5781C9.76577 16.3848 10.0179 16.2699 10.2657 16.2397L9.72033 14.9043C9.30128 14.96 8.81959 15.2504 8.42819 15.6048C7.23618 16.684 7.21418 17.9828 8.18873 19.0592L8.38203 19.2726L7.64369 19.9411L8.61019 21.0086L9.34852 20.3401L12.6185 23.9517L14.0062 22.6953L10.7362 19.0837L11.9282 18.0044L10.9617 16.937L9.73416 18.0484L9.54891 17.8438Z" fill="#3B2222"/>
<path d="M14.9465 14.5419L14.4545 13.8463L12.9947 14.8788L16.7229 20.1496L18.2512 19.0686L16.4911 16.5802C15.7773 15.5711 16.0101 14.7156 16.8526 14.1197C16.9702 14.0365 17.0751 13.977 17.2094 13.8968L16.2115 12.486C15.3983 13.0611 14.9584 13.7692 14.9465 14.5419Z" fill="#3B2222"/>
<path d="M21.5712 9.38327C20.644 9.83648 19.8273 10.5429 19.4126 11.3066L20.5907 12.1867C20.8478 11.6469 21.3837 11.1312 21.9983 10.8308C22.9039 10.3881 23.5406 10.5978 23.8937 11.3201L22.5569 11.9736C20.7888 12.8378 20.4143 13.9024 20.9149 14.9266C21.405 15.9293 22.5825 16.2887 23.9409 15.6247C24.7926 15.2084 25.2593 14.6329 25.3137 13.9518L25.6668 14.6742L27.2408 13.9048L25.623 10.595C24.764 8.83773 23.3393 8.51902 21.5712 9.38327ZM23.808 14.2872C23.215 14.577 22.7223 14.4706 22.5167 14.0501C22.327 13.662 22.4327 13.2497 23.2197 12.865L24.3733 12.3012L24.6631 12.8941C24.7273 13.5172 24.3686 14.0131 23.808 14.2872Z" fill="#3B2222"/>
<path d="M33.9624 4.80386L34.1647 5.60678C33.5351 5.12188 32.7404 5.01272 31.8676 5.23258C30.1338 5.66938 29.0394 7.21971 29.4996 9.04663C29.9599 10.8735 31.6582 11.7203 33.392 11.2835C34.2066 11.0783 34.8286 10.6494 35.1738 10.0055L35.2412 10.2732C35.5256 11.4019 35.1136 12.1244 33.8336 12.4469C33.0307 12.6492 32.0876 12.5898 31.4439 12.2941L31.0507 13.7791C31.9275 14.1646 33.1528 14.1653 34.3397 13.8663C36.5971 13.2976 37.5842 11.9104 36.9979 9.58312L35.6846 4.37L33.9624 4.80386ZM33.3775 9.70318C32.4233 9.94357 31.5698 9.50273 31.3382 8.58345C31.1066 7.66417 31.6494 6.87155 32.6036 6.63117C33.5578 6.39078 34.3997 6.83456 34.6313 7.75383C34.8629 8.67311 34.3317 9.4628 33.3775 9.70318Z" fill="#3B2222"/>
<path d="M42.797 4.19555L42.7366 3.3457L40.9531 3.4726L41.4113 9.91232L43.2786 9.77945L43.0622 6.73914C42.9745 5.50626 43.6167 4.89513 44.6461 4.82189C44.7898 4.81167 44.9103 4.81512 45.0668 4.81602L44.9441 3.09237C43.9507 3.16307 43.2076 3.54076 42.797 4.19555Z" fill="#3B2222"/>
<path d="M51.1214 3.14332C50.0934 3.05212 49.0291 3.23477 48.2794 3.67423L48.8332 5.0365C49.3322 4.70732 50.0576 4.54278 50.7389 4.60322C51.743 4.6923 52.1797 5.20089 52.1087 6.00174L50.6265 5.87025C48.6662 5.69633 47.7953 6.41418 47.6946 7.54972C47.596 8.66135 48.4182 9.5776 49.9243 9.71122C50.8686 9.795 51.5655 9.5436 51.9641 8.98866L51.8931 9.78951L53.6382 9.94434L53.9638 6.27475C54.1367 4.32641 53.0817 3.31723 51.1214 3.14332ZM50.5018 8.49751C49.8444 8.43918 49.4775 8.09341 49.5189 7.62724C49.5571 7.19693 49.8606 6.89859 50.7332 6.976L52.0122 7.08947L51.9538 7.74689C51.6867 8.3135 51.1234 8.55265 50.5018 8.49751Z" fill="#3B2222"/>
<path d="M63.1657 5.19356C62.3271 4.94024 61.5167 5.00881 60.8746 5.39148L61.0932 4.66778L59.3816 4.15073L57.5147 10.3309L59.3067 10.8722L60.2297 7.81662C60.5733 6.67938 61.3532 6.33835 62.2148 6.5986C63.0074 6.83804 63.3281 7.43634 63.0262 8.43573L62.0407 11.6981L63.8327 12.2395L64.9015 8.70138C65.4706 6.81746 64.6246 5.63427 63.1657 5.19356Z" fill="#3B2222"/>
<path d="M70.4929 15.2807C71.6834 15.93 72.9083 15.9147 73.8133 15.2328L72.9178 13.8422C72.3135 14.2234 71.7341 14.208 71.2179 13.9265C70.3857 13.4725 70.0486 12.5368 70.5887 11.5466C71.1288 10.5563 72.098 10.3332 72.9303 10.7871C73.4465 11.0687 73.7673 11.5581 73.7798 12.262L75.428 12.2725C75.5228 11.1214 74.8668 10.0937 73.6763 9.44442C71.8328 8.43883 69.8551 8.93205 68.9242 10.6387C67.9933 12.3453 68.6493 14.2751 70.4929 15.2807Z" fill="#3B2222"/>
<path d="M82.7346 19.7383C84.0512 18.1332 83.726 16.2213 82.26 15.0188C80.7384 13.7708 78.7144 13.911 77.4891 15.4047C76.2715 16.8892 76.5037 18.8956 78.2295 20.3111C79.1294 21.0493 80.0536 21.3417 80.9513 21.1934L80.8662 19.7267C80.2565 19.7699 79.7467 19.6156 79.2179 19.1818C78.4571 18.5578 78.2402 17.7436 78.6109 17.0078L82.3871 20.1052C82.4954 19.9922 82.6433 19.8496 82.7346 19.7383ZM81.3713 16.1213C82.0207 16.654 82.1591 17.4503 81.7436 18.165L79.2849 16.1482C79.9121 15.5918 80.7125 15.5809 81.3713 16.1213Z" fill="#3B2222"/>
<path d="M36.3536 88.1334C36.5194 87.5194 36.8873 87.308 37.4202 87.4519C37.6982 87.527 37.9312 87.6769 38.0906 87.8691L38.9191 86.6882C38.6457 86.3658 38.1409 86.1176 37.6312 85.98C36.0787 85.5608 34.9743 86.2446 34.5958 87.6464L34.5208 87.9244L33.5592 87.6648L33.1838 89.055L34.1454 89.3147L32.8754 94.0182L34.6827 94.5062L35.9527 89.8026L37.5051 90.2218L37.8804 88.8316L36.2817 88.3999L36.3536 88.1334Z" fill="#3B2222"/>
<path d="M41.1566 90.0999L41.2443 89.2524L39.4658 89.0683L38.8011 95.49L40.6631 95.6828L40.9769 92.651C41.1042 91.4215 41.8427 90.931 42.8692 91.0372C43.0124 91.0521 43.1305 91.0764 43.2845 91.1044L43.4624 89.3855C42.4717 89.283 41.6744 89.5262 41.1566 90.0999Z" fill="#3B2222"/>
<path d="M51.8884 92.3476C51.6743 90.2826 50.0869 89.1684 48.201 89.364C46.2435 89.5669 44.919 91.1038 45.1182 93.0255C45.3163 94.9352 46.9053 96.182 49.1254 95.9518C50.2832 95.8317 51.1413 95.3808 51.6675 94.6386L50.5655 93.6671C50.1671 94.1306 49.6988 94.3843 49.0185 94.4548C48.0397 94.5563 47.3086 94.1375 47.0466 93.3563L51.9046 92.8526C51.9004 92.6962 51.9033 92.4908 51.8884 92.3476ZM48.359 90.7712C49.1945 90.6845 49.8577 91.1466 50.0732 91.9446L46.9101 92.2726C46.956 91.4354 47.5116 90.8591 48.359 90.7712Z" fill="#3B2222"/>
<path d="M61.3072 89.5627C60.5757 87.6198 58.7574 86.9452 56.983 87.6132C55.1412 88.3066 54.2503 90.1294 54.931 91.9375C55.6075 93.7344 57.461 94.5367 59.5499 93.7503C60.6393 93.3402 61.3547 92.6862 61.6753 91.8347L60.3626 91.1749C60.0951 91.7244 59.7065 92.0886 59.0663 92.3296C58.1454 92.6763 57.332 92.4569 56.8802 91.7678L61.451 90.047C61.4073 89.8968 61.3579 89.6974 61.3072 89.5627ZM57.4931 88.9342C58.2793 88.6382 59.0381 88.9167 59.4491 89.6339L56.473 90.7543C56.3048 89.9329 56.6958 89.2344 57.4931 88.9342Z" fill="#3B2222"/>
</g>
<defs>
<clipPath id="clip0_787_1324">
<rect width="93.2928" height="105" fill="white"/>
</clipPath>
</defs>
</svg>
