<svg width="104" height="179" viewBox="0 0 104 179" fill="none" xmlns="http://www.w3.org/2000/svg">
<path fill-rule="evenodd" clip-rule="evenodd" d="M82.4149 159.858C62.6782 152.65 74.3649 120.127 63.1325 102.369C51.8949 84.6034 20.3527 81.2917 19.4341 60.2902C18.4978 38.8866 39.3754 21.0367 59.222 12.9682C76.8755 5.79129 95.6444 15.2963 113.458 22.0652C127.868 27.5405 139.658 36.0112 149.984 47.4558C163.447 62.3774 185.255 77.047 180.736 96.6299C176.217 116.213 148.45 116.485 131.546 127.356C114.376 138.397 101.589 166.861 82.4149 159.858Z" fill="#82AEB4" fill-opacity="0.7" stroke="white" stroke-width="6"/>
<g opacity="0.5">
<circle cx="98.5" cy="40.5391" r="2.5" transform="rotate(90 98.5 40.5391)" fill="#ECF2F2"/>
<circle cx="86.5" cy="40.5391" r="2.5" transform="rotate(90 86.5 40.5391)" fill="#ECF2F2"/>
<circle cx="74.5" cy="40.5391" r="2.5" transform="rotate(90 74.5 40.5391)" fill="#ECF2F2"/>
<circle cx="98.5" cy="74.5391" r="2.5" transform="rotate(90 98.5 74.5391)" fill="#ECF2F2"/>
<circle cx="86.5" cy="74.5391" r="2.5" transform="rotate(90 86.5 74.5391)" fill="#ECF2F2"/>
<circle cx="74.5" cy="74.5391" r="2.5" transform="rotate(90 74.5 74.5391)" fill="#ECF2F2"/>
<circle cx="98.5" cy="57.5391" r="2.5" transform="rotate(90 98.5 57.5391)" fill="#ECF2F2"/>
<circle cx="86.5" cy="57.5391" r="2.5" transform="rotate(90 86.5 57.5391)" fill="#ECF2F2"/>
<circle cx="74.5" cy="57.5391" r="2.5" transform="rotate(90 74.5 57.5391)" fill="#ECF2F2"/>
<circle cx="98.5" cy="91.5391" r="2.5" transform="rotate(90 98.5 91.5391)" fill="#ECF2F2"/>
<circle cx="86.5" cy="91.5391" r="2.5" transform="rotate(90 86.5 91.5391)" fill="#ECF2F2"/>
<circle cx="74.5" cy="91.5391" r="2.5" transform="rotate(90 74.5 91.5391)" fill="#ECF2F2"/>
</g>
</svg>
