<svg width="102" height="80" viewBox="0 0 102 80" fill="none" xmlns="http://www.w3.org/2000/svg">
<circle cx="7.4464" cy="6.44811" r="4.66887" transform="rotate(57.4261 7.4464 6.44811)" fill="#82AEB4"/>
<circle cx="29.4542" cy="6.75279" r="4.66887" transform="rotate(57.4261 29.4542 6.75279)" fill="#82AEB4"/>
<circle cx="51.4151" cy="6.75279" r="4.66887" transform="rotate(57.4261 51.4151 6.75279)" fill="#82AEB4"/>
<circle cx="73.4386" cy="6.75279" r="4.66887" transform="rotate(57.4261 73.4386 6.75279)" fill="#82AEB4"/>
<circle cx="95.4191" cy="6.75279" r="4.66887" transform="rotate(57.4261 95.4191 6.75279)" fill="#82AEB4"/>
<circle r="4.66887" transform="matrix(0.538377 0.842704 -0.842691 0.538397 7.44638 23.0263)" fill="#82AEB4"/>
<circle cx="29.4542" cy="23.3309" r="4.66887" transform="rotate(57.4261 29.4542 23.3309)" fill="#82AEB4"/>
<circle cx="51.4151" cy="23.3309" r="4.66887" transform="rotate(57.4261 51.4151 23.3309)" fill="#82AEB4"/>
<circle cx="73.4386" cy="23.3309" r="4.66887" transform="rotate(57.4261 73.4386 23.3309)" fill="#82AEB4"/>
<circle cx="95.4191" cy="23.3309" r="4.66887" transform="rotate(57.4261 95.4191 23.3309)" fill="#82AEB4"/>
<circle cx="7.4464" cy="40.1512" r="4.66887" transform="rotate(57.4261 7.4464 40.1512)" fill="#82AEB4"/>
<circle cx="29.4542" cy="40.4559" r="4.66887" transform="rotate(57.4261 29.4542 40.4559)" fill="#82AEB4"/>
<circle cx="51.4151" cy="40.4559" r="4.66887" transform="rotate(57.4261 51.4151 40.4559)" fill="#82AEB4"/>
<circle cx="73.4386" cy="40.4559" r="4.66887" transform="rotate(57.4261 73.4386 40.4559)" fill="#82AEB4"/>
<circle cx="95.4191" cy="40.4559" r="4.66887" transform="rotate(57.4261 95.4191 40.4559)" fill="#82AEB4"/>
<circle cx="7.4464" cy="57.2645" r="4.66887" transform="rotate(57.4261 7.4464 57.2645)" fill="#82AEB4"/>
<circle cx="29.4542" cy="57.5575" r="4.66887" transform="rotate(57.4261 29.4542 57.5575)" fill="#82AEB4"/>
<circle cx="7.4464" cy="73.2528" r="4.66887" transform="rotate(57.4261 7.4464 73.2528)" fill="#82AEB4"/>
<circle cx="29.4542" cy="73.5536" r="4.66887" transform="rotate(57.4261 29.4542 73.5536)" fill="#82AEB4"/>
<circle cx="51.4151" cy="73.5536" r="4.66887" transform="rotate(57.4261 51.4151 73.5536)" fill="#82AEB4"/>
<circle cx="73.4386" cy="73.5536" r="4.66887" transform="rotate(57.4261 73.4386 73.5536)" fill="#82AEB4"/>
<circle cx="95.4191" cy="73.5536" r="4.66887" transform="rotate(57.4261 95.4191 73.5536)" fill="#82AEB4"/>
<circle cx="51.4151" cy="57.5575" r="4.66887" transform="rotate(57.4261 51.4151 57.5575)" fill="#82AEB4"/>
<circle cx="73.4386" cy="57.5575" r="4.66887" transform="rotate(57.4261 73.4386 57.5575)" fill="#82AEB4"/>
<circle cx="95.4191" cy="57.5575" r="4.66887" transform="rotate(57.4261 95.4191 57.5575)" fill="#82AEB4"/>
</svg>
