<svg width="91" height="100" viewBox="0 0 91 100" fill="none" xmlns="http://www.w3.org/2000/svg">
<g clip-path="url(#clip0_787_1260)">
<path d="M88.0866 62.4748C88.4657 62.2707 88.7482 61.9243 88.8719 61.5119C88.9957 61.0995 88.9505 60.6548 88.7463 60.2757C88.5422 59.8966 88.1958 59.6141 87.7834 59.4903C87.371 59.3666 86.9263 59.4118 86.5472 59.6159C86.4876 59.6335 86.2032 59.6941 85.4545 59.6159C85.0374 59.5928 84.6275 59.7314 84.3101 60.0029C83.9926 60.2744 83.7922 60.6579 83.7503 61.0735C83.7085 61.4891 83.8286 61.9048 84.0856 62.2341C84.3426 62.5634 84.7167 62.7809 85.13 62.8413C85.4828 62.8765 85.8064 62.8941 86.1074 62.8941C86.9323 62.9019 87.5637 62.7631 88.0866 62.4748Z" fill="#83AEB5"/>
<path d="M13.278 76.1658C12.845 76.4414 12.6407 76.503 12.5938 76.5147C12.1697 76.5207 11.7654 76.6948 11.4697 76.9989C11.174 77.303 11.0113 77.7121 11.0172 78.1362C11.0232 78.5603 11.1974 78.9646 11.5015 79.2603C11.8056 79.5559 12.2147 79.7187 12.6387 79.7127H12.6475C13.3601 79.7127 14.1136 79.4596 15.0304 78.8761C15.2138 78.7636 15.3728 78.6157 15.4982 78.4409C15.6236 78.2661 15.7127 78.068 15.7604 77.8583C15.8081 77.6486 15.8134 77.4314 15.776 77.2196C15.7386 77.0078 15.6592 76.8056 15.5425 76.6249C15.4258 76.4442 15.2741 76.2887 15.0965 76.1674C14.9188 76.0462 14.7187 75.9617 14.5079 75.919C14.2971 75.8762 14.0798 75.876 13.869 75.9184C13.6581 75.9607 13.4578 76.0449 13.2799 76.1658H13.278Z" fill="#83AEB5"/>
<path d="M30.0228 88.5438C25.3165 86.7976 20.9709 84.2019 17.2023 80.886C16.8856 80.6242 16.4796 80.496 16.07 80.5284C15.6605 80.5608 15.2796 80.7512 15.0081 81.0595C14.7365 81.3678 14.5956 81.7696 14.6151 82.18C14.6346 82.5903 14.813 82.977 15.1126 83.2581C19.1719 86.8294 23.8528 89.6245 28.9222 91.5044C29.0988 91.569 29.2854 91.602 29.4735 91.6021C29.8439 91.6013 30.2023 91.4705 30.4862 91.2325C30.7701 90.9945 30.9614 90.6644 31.0268 90.2998C31.0921 89.9352 31.0275 89.5592 30.844 89.2374C30.6605 88.9156 30.3698 88.6684 30.0228 88.539V88.5438Z" fill="#83AEB5"/>
<path d="M84.2864 65.406C83.9014 65.2405 83.4665 65.2344 83.077 65.3891C82.6875 65.5437 82.3752 65.8464 82.2085 66.2309C79.9858 71.3922 76.7255 76.0412 72.63 79.889C72.4789 80.0313 72.3572 80.2019 72.2721 80.3912C72.1869 80.5805 72.1398 80.7847 72.1335 80.9922C72.1273 81.1997 72.1619 81.4064 72.2356 81.6004C72.3092 81.7945 72.4203 81.9722 72.5626 82.1233C72.7048 82.2745 72.8755 82.3961 73.0648 82.4813C73.2541 82.5665 73.4583 82.6135 73.6658 82.6198C73.8732 82.6261 74.0799 82.5914 74.274 82.5178C74.4681 82.4442 74.6457 82.333 74.7969 82.1908C79.2081 78.0474 82.7206 73.0416 85.1162 67.4839C85.1985 67.2931 85.2424 67.0878 85.2452 66.88C85.248 66.6721 85.2098 66.4657 85.1327 66.2727C85.0556 66.0797 84.9412 65.9037 84.796 65.755C84.6507 65.6063 84.4776 65.4877 84.2864 65.406Z" fill="#83AEB5"/>
<path d="M12.4608 23.8334C12.7034 23.5071 12.811 23.1001 12.7614 22.6966C12.7117 22.2931 12.5086 21.9243 12.1942 21.6666C11.8798 21.4089 11.4783 21.2822 11.0729 21.3128C10.6676 21.3433 10.2895 21.5288 10.0173 21.8307C3.81183 29.4045 0.360657 38.592 0.025411 48.3982C-0.0751648 51.3473 0.117349 54.2992 0.600119 57.2103C0.643161 57.4714 0.751476 57.7173 0.915004 57.9252C1.07853 58.1332 1.29197 58.2964 1.53549 58.3998L0.488695 61.7621C0.421237 61.9666 0.395198 62.1826 0.412091 62.3974C0.428985 62.6121 0.488473 62.8214 0.58709 63.0129C0.685708 63.2044 0.821476 63.3744 0.986477 63.5129C1.15148 63.6514 1.34241 63.7556 1.54813 63.8195C1.75384 63.8834 1.97023 63.9058 2.18467 63.8852C2.3991 63.8646 2.60729 63.8015 2.79708 63.6996C2.98687 63.5977 3.15447 63.459 3.2901 63.2916C3.42573 63.1243 3.52667 62.9316 3.58703 62.7248L9.6762 43.1584C10.6086 42.2787 11.631 41.7587 12.8136 41.1596C14.0725 40.5243 15.4995 39.802 16.906 38.5392C18.0378 37.5296 18.9839 36.6333 19.8176 35.8426C21.1264 34.6032 22.6071 33.2036 23.1085 33.1196C25.2363 32.8723 33.899 33.706 35.1432 34.4107C35.6993 34.742 37.4889 36.4417 40.6918 40.1206C36.88 40.8459 33.7523 37.0604 33.723 37.0242C33.5252 36.7774 33.2596 36.5938 32.9589 36.4959C32.6582 36.3979 32.3354 36.39 32.0302 36.473C29.6111 37.1308 26.8324 37.4269 26.2049 37.0956C25.9762 36.9584 25.7171 36.8799 25.4507 36.8668C25.1843 36.8538 24.9188 36.9067 24.6778 37.0209C24.4368 37.1351 24.2276 37.307 24.069 37.5214C23.9103 37.7358 23.807 37.986 23.7683 38.2499C23.2385 41.8115 19.9779 45.1679 19.9476 45.2001C19.6965 45.4538 19.5372 45.784 19.4951 46.1384L18.8774 51.0576C18.8476 51.2962 18.8712 51.5383 18.9466 51.7665C19.022 51.9947 19.1473 52.2033 19.3133 52.3771C19.5528 52.6322 25.2862 58.6324 29.7245 60.3018C29.9345 60.3787 30.158 60.4119 30.3813 60.3996C33.8256 60.2207 41.981 61.8451 43.322 62.1188C43.7941 62.3622 45.4908 63.3826 45.6472 65.4048C44.6053 65.569 43.3015 65.3657 42.1286 65.1829C41.4523 65.0793 40.816 64.9796 40.1983 64.9366C37.8838 64.7714 29.8916 65.6511 27.4403 66.6099C25.2304 67.4769 21.5877 70.021 16.6822 73.523C16.5013 73.6437 16.3465 73.7995 16.227 73.9811C16.1075 74.1628 16.0257 74.3667 15.9865 74.5806C15.9474 74.7944 15.9516 75.014 15.999 75.2263C16.0464 75.4385 16.1359 75.639 16.2623 75.816C16.3887 75.9929 16.5494 76.1426 16.7348 76.2562C16.9202 76.3698 17.1266 76.445 17.3416 76.4773C17.5567 76.5096 17.776 76.4983 17.9866 76.4441C18.1972 76.3899 18.3948 76.294 18.5675 76.162C22.9658 73.0177 26.7669 70.3563 28.624 69.6301C30.4439 68.9166 37.9092 68.0232 39.9617 68.1698C40.4455 68.205 41.0183 68.293 41.6233 68.3878C43.4803 68.681 45.5886 69.0045 47.517 68.2402C48.108 67.7679 48.5671 67.1512 48.8501 66.4496C48.9186 66.5659 48.987 66.6832 49.0632 66.8005C49.6109 67.3453 50.2937 67.7346 51.0415 67.9284C51.114 67.9283 51.1865 67.9234 51.2584 67.9138C53.311 67.6391 54.9921 66.3245 56.4719 65.1644C56.9606 64.7871 57.4131 64.4294 57.8197 64.1635C59.5399 63.0327 66.4911 60.164 68.4293 59.8962C69.3461 59.7701 71.2139 60.1347 73.3759 60.5569C75.3815 60.9479 77.8719 61.4366 80.6575 61.7415C80.8693 61.7649 81.0836 61.7463 81.2882 61.6868C81.4928 61.6274 81.6837 61.5282 81.8499 61.395C82.0162 61.2617 82.1546 61.0971 82.2572 60.9103C82.3599 60.7236 82.4247 60.5185 82.4481 60.3067C82.4714 60.0949 82.4528 59.8806 82.3934 59.676C82.3339 59.4714 82.2347 59.2805 82.1015 59.1143C81.9683 58.948 81.8036 58.8096 81.6169 58.707C81.4301 58.6043 81.225 58.5395 81.0132 58.5161C78.3655 58.2229 76.0452 57.7704 73.9975 57.3706C71.3507 56.8555 69.4389 56.4812 67.9875 56.6816C65.3769 57.0413 57.9731 60.1767 56.0389 61.4503C55.5189 61.7894 55.0097 62.1872 54.475 62.6095C53.5377 63.3435 52.4968 64.1576 51.5077 64.5232C50.6573 62.6857 51.6426 60.9625 51.9368 60.5159C52.9767 59.6177 59.2916 54.2234 62.3949 52.6967C62.5948 52.5974 62.7723 52.4584 62.9168 52.2882C65.8881 48.7696 68.702 42.3461 68.8193 42.0744C68.9332 41.8139 68.9765 41.528 68.9449 41.2455C68.9133 40.9629 68.808 40.6936 68.6394 40.4647L65.7004 36.472C65.4878 36.184 65.1862 35.9741 64.8423 35.8748C63.5961 35.5142 59.9553 34.0549 58.1178 31.672C57.9555 31.4604 57.7434 31.2922 57.5004 31.1824C57.2574 31.0725 56.991 31.0244 56.725 31.0423C56.4589 31.0602 56.2013 31.1435 55.9752 31.2849C55.7491 31.4263 55.5615 31.6214 55.429 31.8529C55.038 32.4481 52.4743 33.5486 50.0367 34.1576C49.7589 34.2273 49.5043 34.3689 49.2985 34.568C49.0926 34.7672 48.9427 35.017 48.8638 35.2923C48.8462 35.3607 47.0478 41.3766 44.0521 42.1614C44.8663 38.461 45.8437 34.6873 46.307 33.879C47.0537 32.6592 54.2043 27.698 56.1786 26.875C56.6556 26.7 58.6387 27.2014 60.3814 27.6442C61.4966 27.9257 62.7585 28.2473 64.2392 28.5766C66.0963 28.993 67.7002 28.8972 69.1105 28.8122C70.3811 28.7379 71.4944 28.6734 72.6868 28.9578C72.7132 28.9862 72.7396 29.0165 72.7689 29.0448L87.6722 43.1857C87.9865 43.4706 88.3998 43.6211 88.8237 43.6053C89.2476 43.5895 89.6484 43.4084 89.9406 43.1009C90.2328 42.7934 90.3931 42.3839 90.3873 41.9597C90.3815 41.5356 90.21 41.1306 89.9095 40.8312L85.6031 36.7476C85.8757 36.5458 86.0762 36.2616 86.1749 35.937C86.2736 35.6125 86.2654 35.2648 86.1514 34.9453C82.1382 23.7454 73.629 14.4856 62.8083 9.53312C62.6194 9.44561 62.4151 9.39628 62.207 9.38798C61.999 9.37967 61.7914 9.41255 61.5961 9.48473C61.4008 9.55691 61.2217 9.66696 61.0691 9.80856C60.9164 9.95016 60.7933 10.1205 60.7067 10.3099C60.6201 10.4992 60.5718 10.7038 60.5645 10.9118C60.5572 11.1199 60.5911 11.3274 60.6642 11.5223C60.7374 11.7172 60.8483 11.8958 60.9906 12.0477C61.133 12.1997 61.304 12.322 61.4937 12.4076C70.7193 16.627 78.1348 24.2224 82.1734 33.4871L75.0081 26.6912C74.8553 26.5451 74.6749 26.4308 74.4774 26.355C74.2635 26.1107 73.9813 25.936 73.6671 25.8536C71.9166 25.3962 70.3939 25.4871 68.9239 25.576C67.6093 25.6523 66.369 25.7275 64.9517 25.4118C63.5169 25.0913 62.2795 24.7775 61.1849 24.5009C58.1872 23.7395 56.3741 23.2801 54.9364 23.8803C53.1468 24.625 44.8096 29.9831 43.5009 32.2634C43.0581 33.0336 42.5235 34.8046 42.0201 36.7076C39.5063 33.9005 37.7548 32.192 36.8087 31.6241C34.5518 30.2753 24.6616 29.6694 22.7342 29.8951C21.186 30.074 19.8303 31.3612 17.5853 33.4861C16.7682 34.2612 15.8377 35.1398 14.743 36.125C13.6483 37.1103 12.5341 37.6693 11.3475 38.2685C10.032 38.9341 8.67046 39.6231 7.37639 40.8703C7.18743 41.0506 7.04549 41.2744 6.96295 41.5222C6.79201 41.7011 6.66489 41.9173 6.59154 42.1536L3.2684 52.8394C3.16511 51.3986 3.13803 49.9533 3.18728 48.5096C3.49516 39.3964 6.70296 30.8628 12.4608 23.8334ZM33.5989 41.2994C33.1102 41.2368 32.6753 41.0814 32.471 40.8713C32.2012 40.5908 31.9129 40.2643 31.6285 39.9212L31.9148 39.8548C32.439 40.3766 33.0019 40.8579 33.5989 41.2945V41.2994ZM26.5753 40.4393C27.0342 40.4741 27.4949 40.479 27.9544 40.4539C28.1235 40.6983 28.3043 40.9426 28.493 41.1928C28.0551 41.1684 27.4667 41.2388 26.9888 41.7675C26.8083 41.9797 26.6449 42.2059 26.5001 42.4439C26.0954 43.0636 25.4826 44.0009 24.5394 44.6596C24.5091 44.6811 24.4798 44.7095 24.4476 44.7329C25.2383 43.5513 26.0642 42.0695 26.5753 40.4393ZM22.6462 47.0591C22.8221 46.8637 23.0479 46.6007 23.2991 46.286C22.7723 47.4276 22.57 48.7178 22.5964 49.1664C22.6296 49.6756 22.483 50.1966 22.2699 50.7605C22.2425 50.7351 22.2171 50.7097 22.1937 50.6853L22.6462 47.0591ZM65.4561 41.6297C65.4375 41.6708 65.4189 41.7138 65.3964 41.7578C64.9938 41.4069 64.6624 41.054 64.463 40.6386C64.2636 40.2233 63.4632 39.2077 62.4447 38.4688C62.821 38.6184 63.1426 38.7376 63.3918 38.8236L65.4561 41.6297ZM56.7299 34.9659C57.9702 36.1387 59.4177 37.0272 60.6883 37.6723C60.6473 37.6664 60.6101 37.6566 60.5691 37.6517C59.4275 37.5374 58.4335 37.0184 57.7777 36.6743C57.5352 36.5369 57.2818 36.4195 57.0202 36.3235C56.7816 36.2424 56.5284 36.2136 56.2778 36.2393C56.0271 36.2649 55.785 36.3443 55.5678 36.472C55.5678 36.4613 55.5678 36.4495 55.5678 36.4378C55.542 36.1754 55.5339 35.9116 55.5433 35.6481C55.9517 35.4455 56.347 35.2176 56.727 34.9659H56.7299ZM52.3443 36.8923C52.3787 37.1628 52.3665 37.4372 52.3082 37.7035C52.1977 38.1199 51.5976 38.6712 50.931 38.9937C51.2672 38.2519 51.5233 37.5823 51.6992 37.0829C51.8996 37.0282 52.1185 36.9607 52.3414 36.8923H52.3443ZM48.7808 42.5768C48.9682 42.5999 49.1568 42.6113 49.3457 42.611C50.542 42.611 51.6562 42.2044 51.8439 42.1321C52.7025 41.7967 53.4856 41.2937 54.1476 40.6523C55.02 40.5209 55.8536 40.2021 56.5911 39.7179C57.3955 40.1275 58.6681 40.7129 60.1928 40.8762C60.5417 41.0071 61.3158 41.747 61.569 42.1116C62.1554 43.2981 63.0673 44.0664 63.9147 44.7388C62.9813 46.4981 61.8094 48.5018 60.6356 49.9571C56.8139 51.9823 49.9536 57.9444 49.6565 58.2014C49.5746 58.2711 49.5008 58.3498 49.4366 58.436C48.645 59.5438 48.1381 60.8294 47.9607 62.1794C46.6999 60.0624 44.6112 59.1358 44.4812 59.0791C44.3814 59.0363 44.2776 59.0036 44.1714 58.9814C43.7853 58.9002 34.8969 57.052 30.5778 57.1468C28.8106 56.3962 26.6291 54.716 24.8111 53.1287C24.8649 52.9978 24.9177 52.8649 24.9763 52.73C25.4161 51.6724 25.9146 50.4751 25.8442 49.0374C25.8863 48.5966 26.201 47.5713 26.4414 47.2888C27.6935 46.4014 28.5174 45.2695 29.0178 44.5189C29.9156 44.5844 30.8167 44.4509 31.6568 44.1279C32.4282 44.4291 33.2497 44.581 34.0778 44.5756C34.3983 44.5762 34.7184 44.5536 35.0357 44.5081C35.2732 44.4749 36.8927 44.21 38.0353 43.3196C38.5724 43.4218 39.1179 43.4735 39.6646 43.4741C39.9334 43.4741 40.208 43.4574 40.4846 43.4301C40.5055 43.8392 40.6453 44.2334 40.887 44.5641C41.1287 44.8949 41.4617 45.1479 41.8452 45.292C43.3699 45.7064 46.1408 45.8247 48.7778 42.5768H48.7808Z" fill="#83AEB5"/>
<path d="M19.0035 10.5752C18.295 11.0037 17.8155 11.6021 17.645 12.2942L16.0306 9.62431L14.4287 10.5929L19.0358 18.2124L20.6377 17.2437L18.9861 14.5123C18.3714 13.4956 18.6403 12.688 19.4105 12.2223C20.119 11.7939 20.7781 11.9563 21.3183 12.8497L23.0817 15.766L24.6836 14.7974L22.7712 11.6346C21.753 9.95052 20.3077 9.7867 19.0035 10.5752Z" fill="#3B2222"/>
<path d="M27.3975 6.5842C26.427 6.93522 25.5391 7.54987 25.0448 8.26464L26.1216 9.26608C26.4352 8.75707 27.0234 8.30185 27.6666 8.0692C28.6145 7.72634 29.2251 8.00317 29.4986 8.75923L28.0993 9.26536C26.2486 9.93474 25.762 10.953 26.1497 12.025C26.5293 13.0745 27.6614 13.5583 29.0832 13.044C29.9747 12.7215 30.5005 12.1996 30.6277 11.5283L30.9012 12.2843L32.5488 11.6884L31.2957 8.22406C30.6304 6.38468 29.2481 5.91482 27.3975 6.5842ZM29.0947 11.6999C28.4741 11.9244 27.9956 11.7657 27.8364 11.3256C27.6894 10.9194 27.8388 10.5208 28.6626 10.2229L29.87 9.78612L30.0945 10.4068C30.0914 11.0332 29.6815 11.4877 29.0947 11.6999Z" fill="#3B2222"/>
<path d="M38.0865 3.91222C37.2191 4.03413 36.5122 4.43643 36.0899 5.0532L35.9847 4.30455L34.2141 4.55339L35.1126 10.9466L36.9664 10.686L36.5221 7.5251C36.3568 6.34866 36.9217 5.71185 37.8129 5.58659C38.6328 5.47136 39.175 5.87989 39.3203 6.91373L39.7946 10.2886L41.6484 10.028L41.134 6.368C40.8601 4.41915 39.5957 3.70012 38.0865 3.91222Z" fill="#3B2222"/>
<path d="M49.7772 1.3024L49.5511 4.42622C49.1225 3.86581 48.4704 3.56596 47.6805 3.50878C45.8612 3.3771 44.3673 4.56836 44.2209 6.59107C44.0745 8.61377 45.3813 10.0078 47.2005 10.1394C48.0623 10.2018 48.7644 9.97591 49.2719 9.44717L49.2182 10.1892L51.0015 10.3183L51.6443 1.43754L49.7772 1.3024ZM47.6346 8.63083C46.701 8.56326 46.0314 7.84103 46.112 6.72794C46.1925 5.61486 46.9592 4.99659 47.8927 5.06416C48.8143 5.13087 49.4839 5.8531 49.4034 6.96618C49.3228 8.07927 48.5562 8.69754 47.6346 8.63083Z" fill="#3B2222"/>
<path d="M41.8551 88.5264C40.8924 88.3928 40.0059 88.6696 39.4041 89.2524C39.0497 88.4885 38.3368 88.0382 37.4454 87.9145C36.6252 87.8007 35.8725 87.987 35.3212 88.4678L35.4234 87.7309L33.6524 87.4851L32.7651 93.8799L34.6193 94.1372L35.0646 90.9279C35.223 89.7868 35.8796 89.3328 36.6997 89.4466C37.4723 89.5538 37.8461 90.0903 37.7027 91.1244L37.2342 94.5L39.0885 94.7573L39.5338 91.5481C39.6921 90.407 40.3488 89.9529 41.1808 90.0684C41.9296 90.1723 42.3272 90.7121 42.1837 91.7462L41.7153 95.1218L43.5695 95.3791L44.0775 91.7182C44.348 89.7689 43.3766 88.7376 41.8551 88.5264Z" fill="#3B2222"/>
<path d="M49.4455 88.2286C48.4266 88.392 47.4394 88.8298 46.8202 89.4396L47.6908 90.6247C48.094 90.1833 48.7569 89.8461 49.4323 89.7378C50.4276 89.5782 50.9756 89.9643 51.1029 90.7581L49.6337 90.9937C47.6905 91.3053 47.0221 92.2146 47.2026 93.3402C47.3793 94.4422 48.4009 95.1291 49.8938 94.8897C50.8299 94.7396 51.444 94.3251 51.6945 93.6894L51.8218 94.4833L53.5517 94.2059L52.9684 90.5684C52.6587 88.637 51.3887 87.917 49.4455 88.2286ZM50.1564 93.5715C49.5048 93.676 49.0644 93.4306 48.9903 92.9685C48.9219 92.542 49.1431 92.1783 50.008 92.0396L51.2758 91.8363L51.3803 92.488C51.2602 93.1028 50.7726 93.4727 50.1564 93.5715Z" fill="#3B2222"/>
<path d="M57.8221 83.3648L59.0445 86.2484C58.4075 85.9449 57.6904 85.9752 56.9613 86.2843C55.2819 86.9962 54.4951 88.7374 55.2866 90.6046C56.0781 92.4717 57.8766 93.117 59.5559 92.4051C60.3514 92.0679 60.8734 91.5468 61.0842 90.8449L61.3746 91.5299L63.0208 90.832L59.5456 82.6342L57.8221 83.3648ZM59.2547 90.8644C58.393 91.2297 57.4678 90.8921 57.0322 89.8646C56.5967 88.8371 56.9973 87.9374 57.8591 87.572C58.7098 87.2114 59.6349 87.5491 60.0705 88.5766C60.5061 89.6041 60.1055 90.5038 59.2547 90.8644Z" fill="#3B2222"/>
<path d="M69.455 82.7538C68.2228 81.0831 66.2895 80.9284 64.7637 82.0538C63.1798 83.2219 62.8182 85.2182 63.965 86.7731C65.1046 88.3183 67.1065 88.5864 68.9028 87.2615C69.8396 86.5706 70.3502 85.7467 70.4271 84.8401L68.9845 84.5621C68.8764 85.1637 68.6016 85.6199 68.0511 86.0259C67.2592 86.6099 66.4167 86.62 65.7946 86.0798L69.7252 83.1808C69.6422 83.0481 69.5405 82.8697 69.455 82.7538ZM65.6138 83.1862C66.2898 82.6876 67.0958 82.7493 67.6863 83.3277L65.1271 85.2152C64.7419 84.4705 64.9281 83.6919 65.6138 83.1862Z" fill="#3B2222"/>
<path d="M13.3609 19.6036C14.0205 19.6036 14.5553 19.0688 14.5553 18.4092C14.5553 17.7496 14.0205 17.2148 13.3609 17.2148C12.7012 17.2148 12.1665 17.7496 12.1665 18.4092C12.1665 19.0688 12.7012 19.6036 13.3609 19.6036Z" fill="#3B2222"/>
<path d="M56.7622 10.545C57.4219 10.545 57.9566 10.0103 57.9566 9.35063C57.9566 8.69099 57.4219 8.15625 56.7622 8.15625C56.1026 8.15625 55.5679 8.69099 55.5679 9.35063C55.5679 10.0103 56.1026 10.545 56.7622 10.545Z" fill="#3B2222"/>
</g>
<defs>
<clipPath id="clip0_787_1260">
<rect width="90.4089" height="100" fill="white"/>
</clipPath>
</defs>
</svg>
