<svg width="73" height="82" viewBox="0 0 73 82" fill="none" xmlns="http://www.w3.org/2000/svg">
<g clip-path="url(#clip0_831_484)">
<path d="M26.4237 42.5706L25.5484 41.25L23.6204 43.8178L23.6108 43.8295C21.985 46.0591 20.7415 47.8698 19.9616 49.4582C18.7657 51.8939 18.8567 54.4287 20.2037 56.2401C20.9066 57.1858 21.6131 57.8761 22.9571 58.3934C23.2191 58.4893 23.4892 58.5615 23.7642 58.6091C23.8977 58.634 24.0314 58.6558 24.1655 58.6744C24.2227 58.6824 24.2909 58.692 24.3481 58.6978C24.7927 58.7531 25.2409 58.7725 25.6885 58.7558C26.1441 58.7103 26.6012 58.6656 27.0502 58.5753C27.7673 58.4365 28.4508 58.16 29.0626 57.761C29.6695 57.3467 30.2012 56.8318 30.6349 56.2386C32.0039 54.3964 32.0912 51.8572 30.8689 49.445C30.1815 48.0906 28.9291 46.2579 27.7193 44.4869C27.2556 43.8112 26.8213 43.1751 26.4237 42.5706ZM28.8389 54.9034C28.0047 56.0222 27.084 56.4624 25.4435 56.5262L25.2043 56.5358L24.7817 56.4939C24.4334 56.4687 24.0889 56.405 23.7546 56.3039C22.8955 55.9738 22.5015 55.5893 21.9938 54.9034C21.1567 53.7787 21.1457 52.1111 21.9652 50.4427C22.6732 49.0004 23.8544 47.288 25.409 45.1531L25.4369 45.1164C25.5778 45.3233 25.7215 45.5333 25.8683 45.7466C27.0377 47.4597 28.2483 49.2307 28.8697 50.4552C29.7016 52.0942 29.6884 53.7574 28.8359 54.9034H28.8389Z" fill="#83AEB5"/>
<path d="M48.1068 25.0151C48.1107 25.04 48.1205 25.0636 48.1355 25.0839C48.1504 25.1042 48.17 25.1207 48.1926 25.1318C48.8096 25.4489 49.3854 25.8404 49.9072 26.2976C49.9361 26.3216 49.9724 26.3348 50.0099 26.335C50.0306 26.3351 50.0512 26.331 50.0703 26.3231C50.0895 26.3151 50.1068 26.3035 50.1214 26.2888L56.2717 20.1004C56.4236 19.9433 56.5259 19.745 56.5658 19.5302C56.6057 19.3154 56.5814 19.0936 56.4961 18.8925C56.4107 18.6914 56.268 18.5199 56.0857 18.3994C55.9035 18.2788 55.6898 18.2147 55.4713 18.2149C55.3219 18.2137 55.1738 18.2429 55.036 18.3008C54.8983 18.3587 54.7738 18.4441 54.6701 18.5516C54.6701 18.5516 51.5279 21.6058 48.1501 24.8779C48.1324 24.8957 48.1193 24.9174 48.1117 24.9413C48.1042 24.9651 48.1025 24.9905 48.1068 25.0151Z" fill="#83AEB5"/>
<path d="M34.5673 38.0335C34.472 37.814 34.3625 37.6011 34.2394 37.3959L34.2144 37.3578C34.2016 37.3378 34.1844 37.321 34.1642 37.3086C34.144 37.2962 34.1213 37.2885 34.0977 37.286C34.0741 37.2835 34.0503 37.2864 34.0279 37.2944C34.0056 37.3024 33.9854 37.3152 33.9687 37.3321C33.1198 38.2037 31.2336 40.2242 28.3628 43.3378C28.342 43.3606 28.3283 43.389 28.3233 43.4195C28.3184 43.45 28.3224 43.4812 28.3349 43.5095C28.365 43.5748 28.5213 43.8029 28.8984 44.3392C29.1324 44.6716 29.3738 45.0164 29.4912 45.1969C29.5039 45.2173 29.5212 45.2346 29.5417 45.2473C29.5622 45.26 29.5853 45.2678 29.6093 45.2702H29.6232C29.6449 45.2703 29.6663 45.2659 29.6862 45.2572C29.706 45.2484 29.7238 45.2356 29.7384 45.2196C31.9577 42.8191 33.7119 40.927 34.9474 39.5969C34.9655 39.5776 34.9785 39.554 34.985 39.5284C34.9916 39.5027 34.9915 39.4758 34.9848 39.4502L34.9723 39.401C34.954 39.3276 34.9349 39.2601 34.9136 39.1853C34.8439 38.9337 34.7713 38.6717 34.6862 38.4208C34.6781 38.3959 34.6502 38.324 34.6179 38.2404L34.5761 38.1296C34.5831 38.0974 34.58 38.0639 34.5673 38.0335Z" fill="#83AEB5"/>
<path d="M42.4339 56.1112C42.161 58.1779 41.7957 59.3584 41.7898 59.376C41.7014 59.6797 41.7353 60.0059 41.8842 60.285C42.033 60.5641 42.2851 60.774 42.5866 60.8697C42.8881 60.9655 43.215 60.9396 43.4977 60.7976C43.7803 60.6556 43.9963 60.4087 44.0993 60.1096C44.139 59.9857 45.0736 57.0055 45.1485 52.0952C45.2167 47.6382 44.5542 40.6553 41.04 32.6306L43.0825 33.1441C43.2855 33.1951 43.4982 33.1928 43.7 33.1374C43.9018 33.082 44.0859 32.9754 44.2343 32.8279L44.9027 32.1617L45.3766 33.0326C45.4553 33.1757 45.5621 33.3015 45.6905 33.4024C45.819 33.5032 45.9665 33.5771 46.1242 33.6195L53.3265 35.5681C53.5211 35.6208 53.7257 35.6242 53.9218 35.5778C54.118 35.5315 54.2995 35.4369 54.4499 35.3027C54.6002 35.1685 54.7147 34.9989 54.783 34.8093C54.8513 34.6196 54.8711 34.416 54.8408 34.2167C54.6207 32.7494 53.937 31.1948 52.9223 29.839C52.8264 29.7115 52.7062 29.6043 52.5688 29.5233C52.4313 29.4424 52.2792 29.3894 52.1212 29.3674C51.9632 29.3454 51.8024 29.3548 51.648 29.3951C51.4937 29.4353 51.3488 29.5056 51.2217 29.602C51.1892 29.6259 51.1581 29.6516 51.1285 29.6791C51.1545 29.6505 51.179 29.6206 51.2019 29.5896C51.3879 29.3283 51.4627 29.0039 51.4098 28.6876C51.357 28.3713 51.1809 28.0888 50.9202 27.9021C50.779 27.8037 50.6197 27.7345 50.4515 27.6985C50.2832 27.6624 50.1095 27.6603 49.9404 27.6923C49.7714 27.7243 49.6104 27.7897 49.467 27.8847C49.3236 27.9797 49.2005 28.1023 49.1051 28.2455C48.9299 28.515 48.8689 28.8431 48.9355 29.1576C49.0021 29.472 49.1908 29.7472 49.4602 29.9226C49.6673 30.0633 49.9112 30.1398 50.1616 30.1427C50.4132 30.1427 50.659 30.0659 50.8659 29.9226C50.893 29.9036 50.9187 29.883 50.9444 29.8625C50.97 29.8419 51.0038 29.8111 51.0324 29.7847C50.8507 29.9938 50.7461 30.2588 50.736 30.5357C50.7258 30.8125 50.8108 31.0845 50.9766 31.3063C51.2957 31.7322 51.575 32.1865 51.8108 32.6636L47.2519 31.4303L46.2512 29.5962C46.1611 29.4309 46.0338 29.2888 45.8793 29.1813C45.7248 29.0738 45.5474 29.0038 45.3611 28.9768C45.1749 28.9498 44.9849 28.9666 44.8062 29.0258C44.6275 29.0851 44.4652 29.1852 44.3319 29.3181L43.0047 30.6387L37.2037 29.1692C39.7634 27.6021 44.0414 27.4135 47.3795 28.7209C47.6766 28.8279 48.0036 28.8147 48.2911 28.684C48.5785 28.5534 48.8036 28.3158 48.9184 28.0216C49.0331 27.7275 49.0285 27.4002 48.9056 27.1094C48.7826 26.8187 48.5509 26.5874 48.2599 26.4649C46.823 25.9115 45.3113 25.5769 43.7751 25.4723L43.8184 25.2522L45.1433 25.4473C45.3445 25.4768 45.5498 25.4552 45.7405 25.3846C45.9311 25.3139 46.1009 25.1965 46.2343 25.0431L50.108 20.5891C50.2443 20.4324 50.338 20.2434 50.3802 20.0401C50.4225 19.8368 50.4118 19.6261 50.3492 19.4282C50.2866 19.2302 50.1742 19.0516 50.0227 18.9096C49.8713 18.7676 49.6859 18.6668 49.4844 18.617C45.7383 17.6904 42.3606 18.1673 39.715 19.9948C37.6843 21.3975 36.3673 23.3792 35.6139 25.2463C33.8436 22.8553 31.0535 21.173 27.7982 20.6103C23.5658 19.8767 19.3993 21.1408 16.6569 23.9888C16.5071 24.1445 16.4017 24.3375 16.3515 24.5476C16.3013 24.7578 16.3082 24.9776 16.3715 25.1842C16.4348 25.3908 16.5522 25.5767 16.7115 25.7227C16.8708 25.8686 17.0663 25.9694 17.2776 26.0144L24.868 27.6505C25.0501 27.69 25.2389 27.687 25.4197 27.6419C25.6004 27.5967 25.7684 27.5105 25.9105 27.39L26.4204 26.9572L26.4505 27.2125C26.4802 27.4655 26.5889 27.7028 26.7612 27.8905C26.9335 28.0782 27.1606 28.2068 27.4101 28.258L29.0799 28.6013C26.879 29.3973 24.7807 30.6908 23.1967 32.343C20.7023 34.9379 19.7354 38.166 20.4675 41.4337C20.5117 41.6305 20.6043 41.8131 20.7369 41.9651C20.8695 42.1171 21.0378 42.2336 21.2268 42.3041C21.4157 42.3746 21.6193 42.3969 21.819 42.3689C22.0187 42.3409 22.2083 42.2636 22.3706 42.1439L29.4732 36.8916C29.8253 36.6319 30.0065 36.4727 29.9574 35.775C30.3528 36.1235 30.7864 35.8227 31.1048 35.5549L36.1084 31.3643C36.1753 31.3953 36.2451 31.4199 36.3167 31.4376L38.9726 32.1089C38.8077 32.2824 38.6978 32.5008 38.657 32.7366C38.6161 32.9724 38.646 33.2151 38.7429 33.4339C39.3196 34.7376 39.8155 36.0105 40.244 37.2489L37.7752 37.6546C37.6402 36.8153 37.4774 35.9538 37.2866 35.07C37.2121 34.7625 37.0203 34.4964 36.7522 34.3284C36.4842 34.1605 36.161 34.104 35.8519 34.171C35.5427 34.2381 35.272 34.4233 35.0976 34.6872C34.9232 34.9512 34.8589 35.2728 34.9184 35.5835C36.5038 42.8834 35.8721 48.5458 35.0651 52.0115C34.1921 55.7605 32.9272 57.8192 32.9111 57.8456C32.7399 58.118 32.6839 58.4473 32.7554 58.761C32.8269 59.0747 33.0202 59.3471 33.2926 59.5183C33.565 59.6895 33.8943 59.7455 34.208 59.674C34.5217 59.6025 34.7941 59.4092 34.9653 59.1368C35.0453 59.0099 35.7489 57.8661 36.4921 55.7972L42.4339 56.1112ZM41.0972 21.9859C42.7113 20.8722 44.6481 20.4144 46.8733 20.6177L44.8447 22.9507L43.0385 22.6844C42.7312 22.639 42.4182 22.7133 42.1641 22.892C41.9101 23.0708 41.7343 23.3402 41.6731 23.6447L41.3063 25.4789C40.1256 25.5696 38.9614 25.8123 37.8427 26.2008C38.4561 24.6572 39.5426 23.06 41.0972 21.9859ZM28.5612 24.4275C28.5357 24.2095 28.4515 24.0024 28.3176 23.8284C28.1836 23.6545 28.0049 23.5202 27.8006 23.4398C27.5962 23.3594 27.3739 23.336 27.1573 23.3721C26.9408 23.4082 26.7381 23.5025 26.5708 23.6447L24.7924 25.1553L20.2922 24.1803C22.312 22.991 24.8277 22.5501 27.3896 22.9932C30.2281 23.4841 32.614 24.9998 33.98 27.1311L28.7535 26.057L28.5612 24.4275ZM30.0601 33.271L28.5928 32.8008C28.3855 32.7343 28.1642 32.725 27.952 32.7736C27.7399 32.8223 27.5447 32.9272 27.3871 33.0773C27.2295 33.2274 27.1152 33.4172 27.0563 33.6267C26.9973 33.8363 26.9959 34.0578 27.0521 34.2681L27.3654 35.4346L22.6582 38.9114C22.7771 36.761 23.893 35.1088 24.9421 34.0179C27.1504 31.7179 30.7842 30.1765 33.8054 30.1332L30.0601 33.271ZM37.2309 53.4121C37.473 52.4914 37.6967 51.4642 37.8787 50.3351L42.7017 50.0373C42.7267 50.7196 42.734 51.3579 42.7267 51.9514C42.7193 52.5662 42.6966 53.1472 42.6636 53.696L37.2309 53.4121ZM42.1361 44.6082C42.3151 45.6654 42.445 46.6705 42.5374 47.6162L38.1853 47.8847C38.2675 46.9684 38.3203 46.0007 38.3321 44.9817L42.1361 44.6082ZM40.9872 39.5871C41.2474 40.4895 41.4731 41.3674 41.6643 42.2209L38.2895 42.554C38.2514 41.7499 38.1871 40.9184 38.0966 40.0596L40.9872 39.5871Z" fill="#3B2222"/>
<path d="M22.0221 68.1924C22.2903 68.1927 22.5506 68.1017 22.7601 67.9344C22.9697 67.767 23.116 67.5333 23.175 67.2717C23.2341 67.0101 23.2022 66.7362 23.0848 66.4951C22.9674 66.254 22.7714 66.06 22.529 65.9452C19.7526 64.6268 17.1861 62.9054 14.913 60.8368C14.9357 60.8368 14.9584 60.8412 14.9812 60.8412H15.0355C15.2678 60.8305 15.4907 60.7465 15.6723 60.6012C15.7192 60.5638 19.4235 56.5485 19.5812 56.3776C19.6028 56.3538 19.6167 56.3241 19.6211 56.2922C19.6254 56.2604 19.6199 56.228 19.6054 56.1993C19.433 55.8662 19.2489 55.5126 19.0478 55.1634C18.9158 54.933 18.7654 54.6726 18.5952 54.4297C18.5816 54.4105 18.5639 54.3945 18.5433 54.3829C18.5227 54.3714 18.4999 54.3646 18.4763 54.363C18.4528 54.3617 18.4292 54.3656 18.4073 54.3743C18.3854 54.3831 18.3656 54.3965 18.3494 54.4136C15.9437 57.0467 14.395 58.7422 14.2769 58.8684C14.1342 58.986 14.023 59.1374 13.9535 59.3088C13.8839 59.4801 13.8582 59.6661 13.8785 59.85C8.05253 54.0482 4.59041 46.0646 4.59041 37.629C4.57866 31.1789 6.5737 24.8848 10.299 19.6192C10.4752 19.3632 10.5433 19.0481 10.4886 18.7422C10.4339 18.4362 10.2607 18.1642 10.0067 17.9852C9.75272 17.8061 9.43835 17.7344 9.13183 17.7857C8.82531 17.837 8.55137 18.0071 8.36947 18.259C4.50865 23.737 2.37294 30.2437 2.23647 36.9441C2.09999 43.6444 3.96897 50.2327 7.60353 55.8633C11.0161 61.1501 15.8356 65.3804 21.5203 68.0787C21.6771 68.153 21.8485 68.1918 22.0221 68.1924Z" fill="#83AEB5"/>
<path d="M10.5967 15.4287C10.4332 15.6072 10.3222 15.8273 10.276 16.0648C10.2178 16.3228 10.2479 16.5928 10.3615 16.8317C10.475 17.0705 10.6655 17.2643 10.9023 17.3819C11.1392 17.4996 11.4087 17.5343 11.6676 17.4805C11.9265 17.4268 12.1599 17.2876 12.3303 17.0853C12.4765 16.9198 12.5789 16.7203 12.6281 16.505C12.695 16.2479 12.6732 15.9758 12.5663 15.7326C12.4594 15.4894 12.2735 15.2894 12.0388 15.1649C11.8041 15.0405 11.5343 14.9988 11.273 15.0467C11.0117 15.0945 10.7742 15.2292 10.5988 15.4287H10.5967ZM10.5292 15.5564L11.4286 16.3223L10.5292 15.5564Z" fill="#3B2222"/>
<path d="M63.4159 18.2162C63.2282 17.9796 62.9568 17.824 62.6578 17.7813C62.3587 17.7387 62.0547 17.8124 61.8083 17.9871C61.5619 18.1619 61.3919 18.4245 61.3333 18.7208C61.2746 19.0171 61.3318 19.3247 61.493 19.5801C64.048 23.1955 65.8067 27.3118 66.6531 31.6571C67.4994 36.0025 67.4142 40.478 66.4029 44.7879C65.3916 49.0979 63.4774 53.1442 60.7866 56.6597C58.0958 60.1751 54.6897 63.0795 50.7934 65.1812C50.5182 65.3306 50.3135 65.5831 50.2245 65.8833C50.1355 66.1835 50.1694 66.5068 50.3187 66.7821C50.468 67.0573 50.7206 67.2619 51.0208 67.3509C51.321 67.44 51.6443 67.4061 51.9195 67.2567C56.1089 64.9956 59.7708 61.8713 62.6634 58.0903C65.556 54.3093 67.6136 49.9577 68.7001 45.3228C69.7867 40.6878 69.8775 35.8751 68.9666 31.2025C68.0557 26.5299 66.1639 22.1037 63.4159 18.2162Z" fill="#83AEB5"/>
<path d="M58.9087 13.9325C58.6659 14.0404 58.4659 14.2259 58.3401 14.46C58.1913 14.6838 58.1233 14.9517 58.1473 15.2194C58.1713 15.4872 58.2859 15.7387 58.4722 15.9325C58.5863 16.0558 58.7246 16.1543 58.8784 16.2219C59.0323 16.2894 59.1984 16.3245 59.3665 16.325C59.5822 16.3265 59.7943 16.269 59.9797 16.1587C60.1651 16.0484 60.3169 15.8895 60.4185 15.6991C60.5654 15.4782 60.6337 15.2142 60.6122 14.9498C60.5908 14.6853 60.481 14.4358 60.3004 14.2414C60.1308 14.0495 59.9047 13.9163 59.6547 13.8608C59.4047 13.8054 59.1436 13.8304 58.9087 13.9325Z" fill="#3B2222"/>
<path d="M14.6784 8.79162C14.0588 9.15835 13.6768 9.6517 13.5806 10.2548L13.2648 9.72125L11.9825 10.4802L15.7109 16.7795L17.0534 15.9849L15.7749 13.8249C16.3433 13.9998 16.9236 13.9004 17.5001 13.5591C18.7996 12.79 19.2564 11.2647 18.3956 9.81035C17.5348 8.356 15.9778 8.02252 14.6784 8.79162ZM16.6158 12.5951C15.9446 12.9924 15.1516 12.811 14.6779 12.0107C14.2042 11.2104 14.4267 10.428 15.098 10.0307C15.7692 9.63338 16.5622 9.81478 17.0359 10.6151C17.5096 11.4154 17.2871 12.1979 16.6158 12.5951Z" fill="#3B2222"/>
<path d="M21.6086 5.55687C20.7972 5.84174 20.0525 6.34693 19.6349 6.93866L20.5244 7.78163C20.7896 7.35994 21.2834 6.98523 21.8212 6.79642C22.6138 6.51818 23.1204 6.75366 23.3423 7.38584L22.1723 7.79658C20.6249 8.33982 20.2114 9.1845 20.5261 10.0809C20.8341 10.9584 21.7736 11.3704 22.9625 10.953C23.7079 10.6914 24.1502 10.2605 24.2615 9.70214L24.4834 10.3343L25.861 9.8507L24.8441 6.95402C24.3042 5.41604 23.156 5.01363 21.6086 5.55687ZM22.9827 9.83313C22.4637 10.0153 22.0662 9.87931 21.9371 9.51132C21.8178 9.17165 21.9454 8.8407 22.6342 8.5989L23.6438 8.24446L23.826 8.76341C23.8184 9.28538 23.4733 9.66089 22.9827 9.83313Z" fill="#3B2222"/>
<path d="M27.8206 9.31427L29.3477 8.99579L27.8329 1.73206L26.3058 2.05055L27.8206 9.31427Z" fill="#3B2222"/>
<path d="M37.7305 2.84167C36.9206 2.85481 36.2261 3.19613 35.8051 3.75304C35.4156 3.16928 34.7709 2.88971 34.021 2.90188C33.3311 2.91308 32.7351 3.16279 32.3426 3.62922L32.3325 3.0093L30.8427 3.03349L30.9301 8.41278L32.4899 8.38746L32.446 5.68781C32.4305 4.72794 32.9131 4.27005 33.603 4.25885C34.2529 4.2483 34.6294 4.64224 34.6435 5.51212L34.6896 8.35175L36.2494 8.32643L36.2055 5.62679C36.19 4.66691 36.6726 4.20902 37.3725 4.19766C38.0024 4.18743 38.3989 4.58105 38.413 5.45093L38.4591 8.29056L40.0189 8.26524L39.9689 5.18564C39.9423 3.54586 39.0104 2.82089 37.7305 2.84167Z" fill="#3B2222"/>
<path d="M47.4509 10.061C49.0798 10.5815 50.611 9.86346 51.104 8.32032C51.5971 6.77718 50.766 5.30432 49.1371 4.78386C47.5082 4.26339 45.9675 4.97838 45.4744 6.52152C44.9814 8.06466 45.822 9.54055 47.4509 10.061ZM47.8405 8.84175C47.0975 8.60434 46.6964 7.88829 46.9795 7.00241C47.2625 6.11654 48.0045 5.76573 48.7475 6.00313C49.4905 6.24054 49.8821 6.95354 49.599 7.83942C49.3159 8.7253 48.5835 9.07915 47.8405 8.84175Z" fill="#3B2222"/>
<path d="M55.2125 6.44946C55.7346 6.70207 56.2512 6.52987 56.4777 6.06179C56.6868 5.62971 56.4925 5.13578 55.9704 4.88317C55.4483 4.63055 54.9317 4.80276 54.7183 5.24384C54.5049 5.68492 54.6904 6.19684 55.2125 6.44946ZM51.8405 11.6278L53.2448 12.3072L55.588 7.46431L54.1837 6.78486L51.8405 11.6278Z" fill="#3B2222"/>
<path d="M54.7867 13.1231L56.1254 13.9239L59.9348 7.55644L58.5961 6.75555L54.7867 13.1231Z" fill="#3B2222"/>
<path d="M28.0213 65.2556C28.1733 64.7479 28.4845 64.58 28.9252 64.7119C29.1551 64.7807 29.3458 64.9109 29.4742 65.0746L30.191 64.1095C29.9705 63.8348 29.5556 63.6167 29.1341 63.4905C27.8503 63.1064 26.9149 63.6511 26.568 64.8103L26.4992 65.0402L25.7041 64.8022L25.36 65.9519L26.1552 66.1898L24.9912 70.0794L26.4857 70.5266L27.6497 66.6371L28.9335 67.0212L29.2775 65.8716L27.9554 65.476L28.0213 65.2556Z" fill="#3B2222"/>
<path d="M31.684 66.892L31.7855 66.1893L30.3109 65.9763L29.5417 71.301L31.0856 71.524L31.4488 69.0101C31.596 67.9907 32.2274 67.607 33.0785 67.73C33.1973 67.7471 33.2949 67.7713 33.4221 67.7998L33.628 66.3746C32.8065 66.2559 32.1345 66.4317 31.684 66.892Z" fill="#3B2222"/>
<path d="M40.1825 69.1043C40.1133 67.3756 38.8519 66.3653 37.2732 66.4284C35.6345 66.494 34.4519 67.7022 34.5162 69.3109C34.5802 70.9096 35.836 72.0303 37.6945 71.956C38.6637 71.9172 39.4011 71.5875 39.8779 70.998L39.0126 70.1318C38.6569 70.4964 38.254 70.6826 37.6845 70.7054C36.8651 70.7382 36.2792 70.3513 36.1025 69.6878L40.1693 69.5251C40.1741 69.3948 40.1873 69.2242 40.1825 69.1043ZM37.3304 67.6071C38.0298 67.5791 38.557 67.9984 38.6941 68.6734L36.0462 68.7793C36.1285 68.0855 36.6209 67.6354 37.3304 67.6071Z" fill="#3B2222"/>
<path d="M47.3739 67.3993C46.9055 65.7339 45.4441 65.0438 43.9231 65.4716C42.3443 65.9156 41.4744 67.3653 41.9103 68.9152C42.3434 70.4554 43.825 71.2541 45.6156 70.7505C46.5493 70.4879 47.1901 69.9961 47.5171 69.312L46.4744 68.6703C46.213 69.1074 45.8643 69.3821 45.3156 69.5364C44.5263 69.7584 43.8665 69.518 43.5407 68.9137L47.4587 67.8117C47.4332 67.6839 47.4064 67.5148 47.3739 67.3993ZM44.2522 66.6048C44.9261 66.4153 45.5361 66.7008 45.8261 67.3256L43.2751 68.0431C43.1942 67.3491 43.5687 66.7971 44.2522 66.6048Z" fill="#3B2222"/>
</g>
<defs>
<clipPath id="clip0_831_484">
<rect width="72.7017" height="82" fill="white"/>
</clipPath>
</defs>
</svg>
