<svg width="96" height="108" viewBox="0 0 96 108" fill="none" xmlns="http://www.w3.org/2000/svg">
<g clip-path="url(#clip0_787_1276)">
<path d="M34.8023 56.0674L33.6495 54.3281L31.1102 57.7101L31.0976 57.7256C28.9563 60.6621 27.3185 63.0469 26.2913 65.1389C24.7163 68.3469 24.8361 71.6854 26.6102 74.0712C27.5359 75.3167 28.4664 76.226 30.2366 76.9072C30.5817 77.0335 30.9375 77.1286 31.2996 77.1913C31.4754 77.2242 31.6516 77.2528 31.8281 77.2773C31.9035 77.2879 31.9933 77.3005 32.0687 77.3082C32.6542 77.381 33.2445 77.4066 33.8341 77.3846C34.4342 77.3247 35.0362 77.2657 35.6275 77.1469C36.5721 76.9641 37.4722 76.5998 38.278 76.0743C39.0773 75.5287 39.7776 74.8506 40.3488 74.0693C42.1518 71.6429 42.2668 68.2986 40.657 65.1215C39.7516 63.3377 38.1022 60.924 36.5088 58.5914C35.8981 57.7014 35.326 56.8636 34.8023 56.0674ZM37.9833 72.3106C36.8846 73.7842 35.672 74.364 33.5114 74.448L33.1964 74.4606L32.6398 74.4055C32.181 74.3723 31.7273 74.2884 31.287 74.1553C30.1555 73.7204 29.6366 73.2141 28.9679 72.3106C27.8654 70.8293 27.8509 68.633 28.9302 66.4356C29.8627 64.5359 31.4184 62.2806 33.466 59.4687L33.5027 59.4204C33.6882 59.6929 33.8776 59.9696 34.0708 60.2505C35.6111 62.5067 37.2055 64.8393 38.0239 66.4521C39.1197 68.6107 39.1023 70.8013 37.9794 72.3106H37.9833Z" fill="#83AEB5"/>
<path d="M63.36 32.9487C63.3651 32.9815 63.3781 33.0126 63.3977 33.0393C63.4174 33.066 63.4432 33.0876 63.473 33.1023C64.2856 33.52 65.044 34.0356 65.7312 34.6377C65.7692 34.6694 65.8171 34.6868 65.8665 34.687C65.8938 34.6871 65.9209 34.6818 65.9461 34.6713C65.9713 34.6609 65.9942 34.6455 66.0134 34.6261L74.1137 26.4756C74.3138 26.2687 74.4485 26.0076 74.5011 25.7246C74.5536 25.4417 74.5217 25.1496 74.4092 24.8847C74.2968 24.6198 74.1088 24.3939 73.8688 24.2352C73.6287 24.0765 73.3473 23.992 73.0595 23.9922C72.8627 23.9907 72.6677 24.0292 72.4863 24.1054C72.3049 24.1817 72.1409 24.2941 72.0043 24.4358C72.0043 24.4358 67.8658 28.4584 63.417 32.768C63.3937 32.7913 63.3764 32.8199 63.3665 32.8514C63.3565 32.8828 63.3543 32.9162 63.36 32.9487Z" fill="#83AEB5"/>
<path d="M45.5283 50.0911C45.4027 49.802 45.2585 49.5215 45.0963 49.2514L45.0635 49.2011C45.0466 49.1749 45.024 49.1527 44.9974 49.1364C44.9707 49.12 44.9408 49.1098 44.9097 49.1066C44.8787 49.1034 44.8473 49.1071 44.8179 49.1176C44.7884 49.1281 44.7618 49.1451 44.7398 49.1673C43.6218 50.3152 41.1375 52.9764 37.3564 57.0772C37.329 57.1073 37.311 57.1447 37.3045 57.1848C37.2979 57.225 37.3032 57.2662 37.3197 57.3033C37.3593 57.3893 37.5651 57.6899 38.0618 58.3962C38.3701 58.8339 38.688 59.2881 38.8426 59.5258C38.8594 59.5527 38.8822 59.5754 38.9091 59.5922C38.9361 59.6089 38.9666 59.6193 38.9981 59.6224H39.0165C39.045 59.6225 39.0733 59.6167 39.0994 59.6052C39.1256 59.5937 39.149 59.5768 39.1682 59.5557C42.0912 56.3941 44.4016 53.902 46.0288 52.1502C46.0527 52.1248 46.0698 52.0937 46.0784 52.0599C46.087 52.0261 46.0869 51.9907 46.0781 51.9569L46.0617 51.8922C46.0375 51.7956 46.0124 51.7067 45.9843 51.6081C45.8926 51.2767 45.7969 50.9317 45.6848 50.6012C45.6742 50.5684 45.6375 50.4737 45.5949 50.3635L45.5399 50.2176C45.549 50.1752 45.545 50.1311 45.5283 50.0911Z" fill="#83AEB5"/>
<path d="M55.8888 73.9035C55.5293 76.6255 55.0481 78.1802 55.0404 78.2034C54.924 78.6035 54.9686 79.0331 55.1647 79.4007C55.3608 79.7683 55.6928 80.0447 56.0898 80.1708C56.4869 80.2969 56.9175 80.2628 57.2898 80.0758C57.6621 79.8887 57.9465 79.5636 58.0823 79.1697C58.1344 79.0064 59.3655 75.0814 59.464 68.6141C59.5539 62.7439 58.6813 53.5469 54.0529 42.9778L56.743 43.6542C57.0103 43.7214 57.2905 43.7183 57.5563 43.6454C57.8221 43.5724 58.0645 43.432 58.26 43.2377L59.1403 42.3603L59.7645 43.5073C59.8682 43.6958 60.0088 43.8614 60.178 43.9943C60.3472 44.1271 60.5415 44.2244 60.7492 44.2803L70.2351 46.8467C70.4914 46.9162 70.7608 46.9206 71.0192 46.8595C71.2775 46.7985 71.5166 46.674 71.7146 46.4972C71.9127 46.3205 72.0635 46.0971 72.1534 45.8473C72.2433 45.5975 72.2695 45.3293 72.2295 45.0669C71.9397 43.1343 71.0391 41.0868 69.7027 39.3011C69.5764 39.1332 69.4181 38.9919 69.2371 38.8854C69.056 38.7788 68.8557 38.709 68.6476 38.68C68.4395 38.651 68.2277 38.6634 68.0244 38.7164C67.8211 38.7694 67.6303 38.862 67.4629 38.989C67.4201 39.0204 67.3791 39.0543 67.3402 39.0904C67.3744 39.0528 67.4066 39.0135 67.4368 38.9725C67.6818 38.6284 67.7803 38.2012 67.7107 37.7846C67.6412 37.368 67.4092 36.996 67.0657 36.7501C66.8799 36.6205 66.67 36.5293 66.4484 36.4818C66.2269 36.4344 65.9981 36.4316 65.7754 36.4737C65.5528 36.5159 65.3408 36.602 65.1518 36.7271C64.9629 36.8522 64.8009 37.0138 64.6752 37.2023C64.4445 37.5573 64.3641 37.9894 64.4518 38.4036C64.5395 38.8178 64.7881 39.1802 65.1428 39.4112C65.4156 39.5965 65.7369 39.6973 66.0666 39.7011C66.3981 39.7011 66.7217 39.6 66.9942 39.4112C67.03 39.3861 67.0638 39.3591 67.0976 39.332C67.1315 39.3049 67.1759 39.2644 67.2136 39.2296C66.9743 39.505 66.8365 39.854 66.8232 40.2186C66.8098 40.5833 66.9217 40.9414 67.1402 41.2336C67.5604 41.7945 67.9282 42.3929 68.2388 43.0213L62.2344 41.3969L60.9163 38.9812C60.7978 38.7635 60.6301 38.5765 60.4266 38.4349C60.2231 38.2933 59.9894 38.201 59.7441 38.1655C59.4988 38.13 59.2485 38.1521 59.0132 38.2301C58.7779 38.3081 58.564 38.4399 58.3886 38.615L56.6406 40.3543L49.0002 38.4189C52.3715 36.3549 58.0059 36.1066 62.4025 37.8285C62.7937 37.9694 63.2245 37.952 63.6031 37.7799C63.9816 37.6079 64.2781 37.2949 64.4292 36.9075C64.5804 36.5201 64.5744 36.089 64.4124 35.7061C64.2504 35.3231 63.9453 35.0185 63.562 34.8572C61.6696 34.1283 59.6784 33.6876 57.6552 33.5498L57.7122 33.2599L59.4573 33.5169C59.7222 33.5557 59.9926 33.5273 60.2437 33.4343C60.4948 33.3412 60.7184 33.1866 60.8941 32.9845L65.9961 27.1182C66.1755 26.9119 66.299 26.663 66.3546 26.3953C66.4103 26.1275 66.3962 25.85 66.3137 25.5893C66.2313 25.3285 66.0832 25.0934 65.8838 24.9063C65.6844 24.7192 65.4402 24.5865 65.1747 24.5209C60.2409 23.3005 55.7922 23.9286 52.3078 26.3356C49.6331 28.1831 47.8986 30.793 46.9063 33.2522C44.5746 30.1031 40.8999 27.8874 36.6125 27.1463C31.038 26.18 25.5505 27.8449 21.9386 31.596C21.7413 31.8011 21.6024 32.0552 21.5363 32.332C21.4702 32.6088 21.4793 32.8982 21.5627 33.1703C21.6461 33.4424 21.8007 33.6873 22.0105 33.8796C22.2203 34.0718 22.4777 34.2045 22.7561 34.2639L32.7532 36.4187C32.993 36.4707 33.2416 36.4668 33.4797 36.4073C33.7178 36.3478 33.9391 36.2343 34.1263 36.0756L34.7978 35.5055L34.8374 35.8418C34.8765 36.1751 35.0197 36.4875 35.2466 36.7347C35.4735 36.982 35.7726 37.1513 36.1013 37.2188L38.3006 37.671C35.4018 38.7194 32.6382 40.4229 30.552 42.599C27.2667 46.0167 25.9931 50.2683 26.9574 54.5721C27.0157 54.8313 27.1376 55.0719 27.3122 55.272C27.4868 55.4722 27.7086 55.6257 27.9574 55.7185C28.2063 55.8114 28.4744 55.8407 28.7374 55.8039C29.0005 55.767 29.2502 55.6652 29.464 55.5075L38.8185 48.5899C39.2823 48.2479 39.521 48.0382 39.4563 47.1192C39.9771 47.5782 40.5482 47.182 40.9675 46.8294L47.5575 41.31C47.6457 41.3509 47.7376 41.3832 47.832 41.4066L51.3299 42.2907C51.1127 42.5192 50.9681 42.8069 50.9143 43.1175C50.8604 43.4281 50.8998 43.7476 51.0274 44.0358C51.7869 45.7529 52.4401 47.4294 53.0045 49.0605L49.7529 49.5948C49.5751 48.4894 49.3606 47.3547 49.1094 46.1906C49.0112 45.7857 48.7586 45.4352 48.4056 45.214C48.0525 44.9928 47.6269 44.9184 47.2197 45.0067C46.8125 45.095 46.456 45.339 46.2263 45.6866C45.9966 46.0342 45.9119 46.4578 45.9902 46.867C48.0784 56.4815 47.2464 63.9392 46.1835 68.5039C45.0336 73.4416 43.3678 76.153 43.3465 76.1878C43.121 76.5466 43.0472 76.9802 43.1415 77.3934C43.2357 77.8066 43.4902 78.1654 43.849 78.3909C44.2077 78.6164 44.6414 78.6902 45.0546 78.5959C45.4678 78.5017 45.8266 78.2472 46.0521 77.8884C46.1574 77.7213 47.0841 76.2148 48.0629 73.4899L55.8888 73.9035ZM54.1282 28.958C56.2541 27.4912 58.805 26.8883 61.7358 27.1559L59.064 30.2287L56.685 29.8779C56.2803 29.8182 55.8681 29.9161 55.5334 30.1514C55.1988 30.3868 54.9673 30.7417 54.8868 31.1428L54.4036 33.5585C52.8485 33.678 51.3152 33.9976 49.8418 34.5093C50.6496 32.4763 52.0807 30.3727 54.1282 28.958ZM37.6174 32.1738C37.5839 31.8866 37.4729 31.6139 37.2965 31.3847C37.12 31.1556 36.8847 30.9787 36.6156 30.8729C36.3465 30.767 36.0537 30.7362 35.7684 30.7838C35.4832 30.8313 35.2162 30.9554 34.9959 31.1428L32.6537 33.1324L26.7265 31.8482C29.3867 30.2818 32.7 29.7011 36.0743 30.2847C39.8128 30.9312 42.9552 32.9275 44.7544 35.7345L37.8706 34.3199L37.6174 32.1738ZM39.5915 43.8213L37.659 43.2019C37.386 43.1145 37.0945 43.1021 36.815 43.1662C36.5356 43.2303 36.2786 43.3685 36.071 43.5662C35.8634 43.7639 35.7129 44.0138 35.6353 44.2898C35.5576 44.5658 35.5557 44.8576 35.6298 45.1345L36.0424 46.6709L29.8428 51.2501C29.9993 48.4179 31.469 46.2419 32.8508 44.805C35.7593 41.7757 40.5453 39.7456 44.5244 39.6886L39.5915 43.8213ZM49.0359 70.3486C49.3548 69.1359 49.6495 67.7831 49.8892 66.296L56.2415 65.9037C56.2743 66.8023 56.284 67.643 56.2743 68.4247C56.2647 69.2344 56.2347 69.9997 56.1912 70.7225L49.0359 70.3486ZM55.4965 58.7532C55.7323 60.1456 55.9033 61.4694 56.025 62.715L50.2931 63.0686C50.4013 61.8617 50.4709 60.5872 50.4863 59.2451L55.4965 58.7532ZM53.9833 52.14C54.326 53.3285 54.6233 54.4849 54.8752 55.609L50.4303 56.0476C50.38 54.9886 50.2953 53.8935 50.1762 52.7623L53.9833 52.14Z" fill="#3B2222"/>
<path d="M29.0048 89.813C29.358 89.8134 29.7009 89.6935 29.9769 89.4731C30.2529 89.2527 30.4456 88.9449 30.5233 88.6004C30.6011 88.2558 30.5592 87.8951 30.4045 87.5775C30.2499 87.2599 29.9917 87.0045 29.6725 86.8532C26.0157 85.1169 22.6355 82.8497 19.6416 80.125C19.6715 80.125 19.7015 80.1308 19.7314 80.1308H19.8029C20.1089 80.1168 20.4025 80.0062 20.6417 79.8149C20.7035 79.7656 25.5823 74.4771 25.79 74.252C25.8185 74.2207 25.8368 74.1815 25.8425 74.1396C25.8482 74.0976 25.841 74.055 25.8219 74.0172C25.5948 73.5785 25.3523 73.1128 25.0875 72.6528C24.9136 72.3494 24.7155 72.0064 24.4913 71.6865C24.4734 71.6611 24.4501 71.6401 24.423 71.6249C24.3959 71.6097 24.3658 71.6007 24.3348 71.5986C24.3038 71.5969 24.2727 71.602 24.2439 71.6136C24.215 71.6251 24.189 71.6427 24.1676 71.6653C20.9992 75.1332 18.9594 77.3663 18.8038 77.5325C18.6159 77.6875 18.4695 77.8869 18.3779 78.1126C18.2863 78.3383 18.2523 78.5833 18.2791 78.8254C10.6059 71.1841 6.04602 60.669 6.04602 49.5588C6.03055 41.0635 8.65816 32.7737 13.5646 25.8386C13.7967 25.5014 13.8864 25.0863 13.8144 24.6834C13.7423 24.2804 13.5143 23.9222 13.1797 23.6864C12.8452 23.4505 12.4311 23.3561 12.0274 23.4237C11.6237 23.4912 11.2629 23.7152 11.0233 24.0471C5.93834 31.2619 3.12546 39.8317 2.94571 48.6566C2.76596 57.4815 5.22755 66.1587 10.0145 73.5746C14.5091 80.5378 20.8567 86.1094 28.3439 89.6632C28.5505 89.7611 28.7762 89.8122 29.0048 89.813Z" fill="#83AEB5"/>
<path d="M13.956 20.3216C13.7407 20.5566 13.5946 20.8466 13.5338 21.1594C13.4571 21.4992 13.4967 21.8548 13.6463 22.1694C13.7958 22.484 14.0467 22.7392 14.3586 22.8941C14.6706 23.0491 15.0255 23.0948 15.3665 23.024C15.7076 22.9532 16.0149 22.7699 16.2393 22.5035C16.432 22.2855 16.5669 22.0227 16.6317 21.7392C16.7197 21.4006 16.691 21.0421 16.5502 20.7218C16.4093 20.4015 16.1646 20.1381 15.8555 19.9742C15.5464 19.8103 15.191 19.7554 14.8468 19.8184C14.5027 19.8815 14.1898 20.0588 13.9589 20.3216H13.956ZM13.8671 20.4898L15.0518 21.4986L13.8671 20.4898Z" fill="#3B2222"/>
<path d="M83.5232 23.9907C83.2759 23.679 82.9186 23.474 82.5247 23.4179C82.1308 23.3618 81.7304 23.4588 81.4059 23.6889C81.0814 23.9191 80.8574 24.2649 80.7802 24.6552C80.703 25.0455 80.7783 25.4506 80.9906 25.787C84.3557 30.5487 86.672 35.9702 87.7868 41.6933C88.9015 47.4165 88.7892 53.311 87.4573 58.9875C86.1253 64.6641 83.6041 69.9934 80.0602 74.6235C76.5162 79.2535 72.0302 83.0789 66.8984 85.847C66.5359 86.0437 66.2664 86.3763 66.1491 86.7717C66.0319 87.1671 66.0765 87.5929 66.2732 87.9554C66.4699 88.3179 66.8025 88.5874 67.1979 88.7047C67.5933 88.8219 68.0191 88.7773 68.3816 88.5806C73.8993 85.6025 78.7223 81.4876 82.5321 76.5078C86.3419 71.5279 89.0518 65.7965 90.4829 59.6919C91.914 53.5874 92.0336 47.2487 90.8339 41.0945C89.6342 34.9403 87.1424 29.1107 83.5232 23.9907Z" fill="#83AEB5"/>
<path d="M77.5872 18.3472C77.2674 18.4892 77.0039 18.7337 76.8383 19.0419C76.6423 19.3367 76.5527 19.6896 76.5843 20.0422C76.616 20.3948 76.7669 20.726 77.0122 20.9813C77.1625 21.1437 77.3447 21.2735 77.5473 21.3624C77.75 21.4514 77.9688 21.4976 78.1901 21.4982C78.4743 21.5002 78.7536 21.4245 78.9978 21.2792C79.2421 21.1339 79.4419 20.9246 79.5758 20.674C79.7693 20.383 79.8592 20.0353 79.8309 19.687C79.8027 19.3387 79.658 19.01 79.4202 18.754C79.1968 18.5013 78.8991 18.3259 78.5698 18.2528C78.2405 18.1797 77.8965 18.2127 77.5872 18.3472Z" fill="#3B2222"/>
<path d="M18.6685 11.3554C17.925 11.7955 17.4666 12.3875 17.3512 13.1112L16.9722 12.471L15.4335 13.3817L19.9076 20.9409L21.5186 19.9874L19.9844 17.3954C20.6664 17.6053 21.3628 17.486 22.0546 17.0764C23.614 16.1535 24.1621 14.3231 23.1292 12.5779C22.0962 10.8327 20.2279 10.4325 18.6685 11.3554ZM20.9935 15.9196C20.188 16.3964 19.2364 16.1787 18.668 15.2183C18.0996 14.2579 18.3666 13.319 19.1721 12.8423C19.9776 12.3655 20.9291 12.5832 21.4975 13.5436C22.066 14.504 21.799 15.4429 20.9935 15.9196Z" fill="#3B2222"/>
<path d="M27.965 6.92918C26.9913 7.27102 26.0976 7.87726 25.5966 8.58733L26.6639 9.59889C26.9822 9.09287 27.5748 8.64322 28.2201 8.41665C29.1712 8.08275 29.7792 8.36533 30.0455 9.12394L28.6415 9.61683C26.7846 10.2687 26.2883 11.2823 26.6659 12.358C27.0356 13.411 28.163 13.9054 29.5897 13.4046C30.4842 13.0906 31.0149 12.5736 31.1485 11.9035L31.4148 12.6621L33.0679 12.0818L31.8476 8.60576C31.1996 6.76018 29.8219 6.27729 27.965 6.92918ZM29.6139 12.0607C28.9912 12.2793 28.5142 12.1161 28.3591 11.6745C28.216 11.2669 28.3691 10.8698 29.1957 10.5796L30.4072 10.1543L30.6258 10.777C30.6168 11.4034 30.2027 11.854 29.6139 12.0607Z" fill="#3B2222"/>
<path d="M36.3201 11.1373L38.1526 10.7551L36.3349 2.03863L34.5023 2.42081L36.3201 11.1373Z" fill="#3B2222"/>
<path d="M48.7939 3.22875C47.8221 3.24453 46.9886 3.65411 46.4834 4.3224C46.0159 3.62189 45.2424 3.2864 44.3425 3.30101C43.5146 3.31445 42.7994 3.6141 42.3284 4.17381L42.3163 3.42991L40.5286 3.45893L40.6334 9.91408L42.5051 9.8837L42.4525 6.64413C42.4338 5.49228 43.013 4.9428 43.8409 4.92937C44.6208 4.91671 45.0725 5.38944 45.0895 6.4333L45.1448 9.84085L47.0165 9.81047L46.9639 6.57089C46.9452 5.41904 47.5244 4.86957 48.3643 4.85594C49.1202 4.84367 49.5959 5.31601 49.6129 6.35987L49.6682 9.76742L51.5399 9.73704L51.4799 6.04152C51.448 4.07378 50.3297 3.20382 48.7939 3.22875Z" fill="#3B2222"/>
<path d="M62.4895 12.0092C64.4442 12.6337 66.2816 11.7721 66.8733 9.92032C67.465 8.06855 66.4676 6.30113 64.5129 5.67657C62.5583 5.05201 60.7094 5.90999 60.1178 7.76176C59.5261 9.61353 60.5349 11.3846 62.4895 12.0092ZM62.957 10.546C62.0654 10.2611 61.5841 9.40189 61.9238 8.33884C62.2635 7.27578 63.1539 6.85481 64.0454 7.1397C64.937 7.42458 65.4069 8.28019 65.0672 9.34324C64.7276 10.4063 63.8486 10.8309 62.957 10.546Z" fill="#3B2222"/>
<path d="M72.7588 8.01123C73.3853 8.31437 74.0052 8.10773 74.2769 7.54602C74.5278 7.02753 74.2947 6.43482 73.6682 6.13168C73.0417 5.82854 72.4218 6.03518 72.1657 6.56448C71.9096 7.09378 72.1322 7.70809 72.7588 8.01123ZM68.7123 14.2252L70.3974 15.0405L73.2093 9.22905L71.5242 8.41371L68.7123 14.2252Z" fill="#3B2222"/>
<path d="M72.6872 16.2336L74.2937 17.1947L78.8649 9.55367L77.2584 8.5926L72.6872 16.2336Z" fill="#3B2222"/>
<path d="M36.785 85.3568C36.9673 84.7474 37.3407 84.5461 37.8696 84.7043C38.1455 84.7869 38.3743 84.943 38.5285 85.1395L39.3886 83.9814C39.124 83.6518 38.6261 83.39 38.1203 83.2387C36.5798 82.7777 35.4573 83.4313 35.041 84.8223L34.9584 85.0982L34.0042 84.8127L33.5914 86.1922L34.5456 86.4778L33.1488 91.1453L34.9423 91.682L36.339 87.0145L37.8795 87.4755L38.2923 86.0959L36.7059 85.6212L36.785 85.3568Z" fill="#3B2222"/>
<path d="M41.5633 87.4477L41.6851 86.6045L39.9155 86.3489L38.9925 92.7385L40.8452 93.0062L41.281 89.9895C41.4577 88.7662 42.2153 88.3058 43.2367 88.4533C43.3793 88.4739 43.4963 88.5029 43.649 88.5371L43.8961 86.8269C42.9103 86.6845 42.1038 86.8953 41.5633 87.4477Z" fill="#3B2222"/>
<path d="M52.1886 90.1853C52.1056 88.1109 50.592 86.8985 48.6975 86.9742C46.731 87.0529 45.3119 88.5028 45.3891 90.4332C45.4658 92.3517 46.9728 93.6965 49.203 93.6073C50.3661 93.5608 51.251 93.1651 51.8231 92.4577L50.7848 91.4184C50.3579 91.8558 49.8745 92.0793 49.191 92.1066C48.2078 92.1459 47.5047 91.6817 47.2927 90.8855L52.1728 90.6903C52.1785 90.534 52.1944 90.3292 52.1886 90.1853ZM48.7661 88.3886C49.6054 88.3551 50.238 88.8582 50.4025 89.6682L47.2251 89.7953C47.3239 88.9627 47.9147 88.4227 48.7661 88.3886Z" fill="#3B2222"/>
<path d="M61.4871 88.1346C60.925 86.1362 59.1713 85.3081 57.3461 85.8214C55.4516 86.3542 54.4076 88.0938 54.9307 89.9537C55.4505 91.802 57.2284 92.7604 59.3771 92.1561C60.4976 91.841 61.2665 91.2507 61.6589 90.4298L60.4077 89.6598C60.094 90.1844 59.6756 90.514 59.0171 90.6991C58.0699 90.9656 57.2782 90.6771 56.8873 89.9519L61.5889 88.6296C61.5582 88.4761 61.526 88.2733 61.4871 88.1346ZM57.741 87.1813C58.5496 86.9538 59.2817 87.2964 59.6297 88.0462L56.5685 88.9072C56.4714 88.0744 56.9208 87.4119 57.741 87.1813Z" fill="#3B2222"/>
</g>
<defs>
<clipPath id="clip0_787_1276">
<rect width="95.7535" height="108" fill="white"/>
</clipPath>
</defs>
</svg>
