<svg width="33" height="35" viewBox="0 0 33 35" fill="none" xmlns="http://www.w3.org/2000/svg">
<path d="M32.3593 25L27.4868 22.3841L31.7547 20.0662C32.217 19.8013 32.3948 19.2384 32.1103 18.8079C31.8258 18.3775 31.2212 18.2119 30.7588 18.4768L25.4951 21.3245L18.4176 17.5166L25.4951 13.7086L30.7588 16.5563C30.9011 16.6556 31.0789 16.6887 31.2567 16.6887C31.6124 16.6887 31.9325 16.5232 32.1103 16.2252C32.3948 15.7947 32.217 15.2318 31.7547 14.9669L27.4868 12.649L32.3593 10.0331C32.8216 9.76821 32.9994 9.2053 32.7149 8.77483C32.4304 8.34437 31.8258 8.17881 31.3634 8.44371L26.491 11.0596V6.42384C26.491 5.92715 26.0642 5.49669 25.4951 5.49669C24.9617 5.49669 24.4993 5.89404 24.4993 6.42384V12.0861L17.4218 15.894V8.27815L22.6855 5.43046C23.1478 5.16556 23.3257 4.60265 23.0411 4.17219C22.7566 3.74172 22.152 3.57616 21.6896 3.84106L17.4218 6.15894V0.927152C17.4218 0.397351 16.995 0 16.426 0C15.8925 0 15.4301 0.397351 15.4301 0.927152V6.15894L11.1623 3.84106C10.6999 3.57616 10.0953 3.74172 9.81081 4.17219C9.52628 4.60265 9.70411 5.16556 10.1665 5.43046L15.4657 8.27815V15.894L8.35263 12.0861V6.42384C8.35263 5.92715 7.92584 5.49669 7.3568 5.49669C6.82332 5.49669 6.36096 5.89404 6.36096 6.42384V11.0265L1.48851 8.4106C1.02616 8.1457 0.421545 8.31126 0.137022 8.74172C-0.147501 9.17219 0.0303255 9.7351 0.492676 10L5.36513 12.6159L1.09729 14.9338C0.634937 15.1987 0.45711 15.7616 0.741633 16.1921C0.91946 16.4901 1.27511 16.6556 1.5952 16.6556C1.77303 16.6556 1.95086 16.6225 2.09312 16.5232L7.3568 13.6755L14.4343 17.4834L7.3568 21.3245L2.09312 18.4768C1.63077 18.2119 1.02616 18.3775 0.741633 18.8079C0.45711 19.2384 0.634937 19.8013 1.09729 20.0662L5.36513 22.3841L0.492676 25C0.0303255 25.2649 -0.147501 25.8278 0.137022 26.2583C0.314849 26.5563 0.670502 26.7219 0.990591 26.7219C1.16842 26.7219 1.34625 26.6887 1.48851 26.5894L6.36096 23.9735V28.5762C6.36096 29.0728 6.78775 29.5033 7.3568 29.5033C7.89028 29.5033 8.35263 29.106 8.35263 28.5762V22.9139L15.4301 19.106V26.7219L10.1665 29.5695C9.70411 29.8344 9.52628 30.3974 9.81081 30.8278C9.98863 31.1258 10.3443 31.2914 10.6644 31.2914C10.8422 31.2914 11.02 31.2583 11.1623 31.1589L15.4301 28.8411V34.0728C15.4301 34.5695 15.8569 35 16.426 35C16.9595 35 17.4218 34.6026 17.4218 34.0728V28.8742L21.6896 31.1921C21.8319 31.2914 22.0097 31.3245 22.1876 31.3245C22.5432 31.3245 22.8633 31.1589 23.0411 30.8609C23.3257 30.4305 23.1478 29.8675 22.6855 29.6026L17.4218 26.7219V19.106L24.5349 22.9139V28.5762C24.5349 29.0728 24.9617 29.5033 25.5307 29.5033C26.0642 29.5033 26.5265 29.106 26.5265 28.5762V23.9735L31.399 26.5894C31.5413 26.6887 31.7191 26.7219 31.8969 26.7219C32.2526 26.7219 32.5727 26.5563 32.7505 26.2583C32.9994 25.8278 32.8216 25.2649 32.3593 25Z" fill="#82AEB4"/>
</svg>
