<svg width="156" height="114" viewBox="0 0 156 114" fill="none" xmlns="http://www.w3.org/2000/svg">
<path d="M76.7906 86.0062C65.3329 86.0062 54.5581 81.539 46.4574 73.4373C42.4613 69.4633 39.293 64.7361 37.1361 59.5294C34.9792 54.3227 33.8765 48.7399 33.8918 43.1041C33.8907 19.4496 53.1372 0.203125 76.7906 0.203125C88.2484 0.203125 99.0221 4.66597 107.124 12.772C115.226 20.8781 119.693 31.6463 119.693 43.1052C119.692 66.7597 100.445 86.0062 76.7906 86.0062ZM76.7906 2.92558C54.6323 2.92558 36.611 20.9501 36.611 43.1041C36.5964 48.3824 37.629 53.6112 39.6489 58.4878C41.6688 63.3644 44.636 67.7919 48.3785 71.514C55.9672 79.107 66.0578 83.2826 76.7906 83.2826C98.9489 83.2826 116.968 65.2591 116.968 43.1041C116.969 37.8277 115.93 32.6028 113.911 27.7279C111.892 22.8529 108.933 18.4234 105.202 14.6924C101.471 10.9614 97.0417 8.00183 92.1668 5.98286C87.2919 3.96388 82.0671 2.92501 76.7906 2.92558V2.92558Z" fill="#463B32"/>
<path d="M76.7901 86.2118C65.2807 86.2118 54.45 81.7296 46.3095 73.5859C38.169 65.4422 33.6836 54.6201 33.6836 43.1054C33.6836 19.339 53.0205 0 76.7901 0C88.3048 0 99.1269 4.48221 107.27 12.6259C115.412 20.7696 119.895 31.5895 119.895 43.1054C119.895 66.8728 100.556 86.2118 76.7901 86.2118ZM76.7901 0.414123C53.2442 0.414123 34.0977 19.5627 34.0977 43.1054C34.0977 54.5072 38.5369 65.2314 46.6021 73.2912C50.5569 77.2685 55.2614 80.4218 60.4432 82.5686C65.625 84.7153 71.1812 85.8129 76.7901 85.7977C100.333 85.7977 119.481 66.6512 119.481 43.1054C119.481 31.7035 115.039 20.9794 106.979 12.9153C103.023 8.9395 98.3182 5.78756 93.1364 3.64178C87.9545 1.496 82.3986 0.398962 76.7901 0.414123V0.414123ZM76.7901 83.4936C66.079 83.4916 55.8073 79.2358 48.2334 71.662C40.6596 64.0881 36.4037 53.8164 36.4017 43.1054C36.4017 20.8395 54.5199 2.71708 76.7901 2.71708C87.5008 2.71964 97.7721 6.97568 105.346 14.5494C112.919 22.1232 117.175 32.3946 117.177 43.1054C117.177 65.3723 99.0559 83.4936 76.7901 83.4936ZM76.7901 3.1312C54.7501 3.1312 36.8148 21.0633 36.8148 43.1054C36.8147 48.355 37.8486 53.5532 39.8575 58.4032C41.8664 63.2533 44.8109 67.6601 48.523 71.3721C52.2351 75.084 56.642 78.0285 61.4921 80.0373C66.3422 82.046 71.5404 83.0798 76.7901 83.0795C98.8322 83.0795 116.764 65.1485 116.764 43.1054C116.764 32.4274 112.603 22.3906 105.056 14.8385C101.352 11.1152 96.9473 8.16338 92.0955 6.15382C87.2437 4.14427 82.0415 3.11691 76.7901 3.1312V3.1312Z" fill="#463B32"/>
<path d="M106.919 12.5647C106.663 12.3106 106.317 12.168 105.957 12.168C105.596 12.168 105.25 12.3106 104.994 12.5647L88.7812 28.2498C89.6225 28.67 90.4304 29.1536 91.1982 29.6965L106.919 14.488C107.173 14.2323 107.315 13.8866 107.315 13.5264C107.315 13.1661 107.173 12.8204 106.919 12.5647V12.5647Z" fill="#463B32"/>
<path d="M91.1987 29.9021C91.1577 29.9019 91.1176 29.8896 91.0836 29.8666C90.3228 29.3304 89.5228 28.8522 88.6903 28.4359C88.6619 28.4201 88.6375 28.398 88.6189 28.3714C88.6002 28.3447 88.5879 28.3142 88.5827 28.2821C88.5773 28.2494 88.5802 28.2158 88.5911 28.1844C88.602 28.153 88.6206 28.1249 88.6451 28.1025L104.852 12.4153C105.148 12.13 105.545 11.9725 105.956 11.9766C106.367 11.9808 106.76 12.1462 107.051 12.4373C107.342 12.7284 107.506 13.122 107.51 13.5333C107.513 13.9446 107.355 14.3407 107.069 14.6365L91.345 29.8397C91.3261 29.8594 91.3033 29.875 91.2782 29.8858C91.2531 29.8965 91.226 29.902 91.1987 29.9021V29.9021ZM89.1378 28.1972C89.8434 28.5661 90.5259 28.9778 91.1815 29.4298L106.778 14.3386C106.885 14.2318 106.97 14.105 107.028 13.9655C107.085 13.8259 107.115 13.6764 107.115 13.5254C107.115 13.3743 107.085 13.2248 107.028 13.0853C106.97 12.9457 106.885 12.819 106.778 12.7122C106.562 12.4966 106.269 12.3755 105.964 12.3755C105.659 12.3755 105.366 12.4966 105.15 12.7122L89.1378 28.1972Z" fill="#463B32"/>
<path d="M55.6556 62.3516C50.841 67.1694 46.6417 71.3633 46.6201 71.3762C46.3336 71.5891 46.1422 71.9061 46.0874 72.2589C46.0326 72.6116 46.1187 72.9718 46.3272 73.2616C46.5356 73.5514 46.8497 73.7476 47.2015 73.8078C47.5534 73.868 47.9148 73.7874 48.2078 73.5835C48.2831 73.5265 51.7273 70.1124 56.0267 65.8238C55.861 64.6717 55.7405 63.5122 55.6556 62.3516Z" fill="#463B32"/>
<path d="M47.418 74.0493C47.0877 74.0495 46.7657 73.9454 46.4981 73.7518C46.2305 73.5581 46.0309 73.2849 45.9278 72.971C45.8248 72.6572 45.8235 72.3188 45.9242 72.0042C46.025 71.6896 46.2225 71.4149 46.4887 71.2193C46.7124 71.0041 50.873 66.8457 55.509 62.2097C55.5376 62.1818 55.5733 62.1624 55.6123 62.1537C55.6512 62.1449 55.6918 62.1472 55.7295 62.1602C55.766 62.1749 55.7976 62.1994 55.8212 62.2309C55.8447 62.2623 55.8591 62.2997 55.8629 62.3388C55.949 63.522 56.0781 64.6901 56.2329 65.7991C56.2364 65.8308 56.2329 65.8629 56.2224 65.893C56.212 65.9231 56.195 65.9506 56.1727 65.9734C56.0953 66.0454 48.4797 73.6459 48.3312 73.7524C48.065 73.9438 47.7459 74.0475 47.418 74.0493V74.0493ZM55.4854 62.8185C49.7156 68.5839 46.7726 71.5312 46.7425 71.5463C46.5442 71.6883 46.3962 71.8898 46.3199 72.1216C46.2437 72.3534 46.2431 72.6034 46.3183 72.8355C46.3935 73.0676 46.5406 73.2697 46.7383 73.4127C46.936 73.5557 47.174 73.6321 47.418 73.6309C47.659 73.6327 47.8942 73.5573 48.0892 73.4157C48.2129 73.3082 51.2032 70.3458 55.8091 65.7507C55.6736 64.8106 55.5671 63.8242 55.4854 62.8196V62.8185Z" fill="#463B32"/>
<path d="M84.6752 23.843H69.9173C67.8047 23.843 66.2139 22.1617 66.2139 19.9352C66.2139 17.7086 67.8058 16.0273 69.9173 16.0273H84.6752C86.7845 16.0273 88.3775 17.7086 88.3775 19.9395C88.3775 22.1703 86.7845 23.843 84.6752 23.843ZM69.9173 19.2059C69.4311 19.2059 69.3945 19.7652 69.3945 19.9352C69.3945 20.1051 69.4311 20.6591 69.9173 20.6591H84.6752C85.1549 20.6591 85.1947 20.1062 85.1947 19.9352C85.1947 19.7641 85.1549 19.2059 84.6752 19.2059H69.9173Z" fill="#463B32"/>
<path d="M71.3927 29.641C71.1837 29.6413 70.9766 29.6003 70.7834 29.5205C70.5902 29.4407 70.4147 29.3235 70.2668 29.1758C70.1189 29.028 70.0017 28.8525 69.9217 28.6594C69.8417 28.4662 69.8006 28.2592 69.8008 28.0501V22.7795C69.8008 22.3572 69.9685 21.9523 70.2671 21.6538C70.5656 21.3552 70.9705 21.1875 71.3927 21.1875C71.8149 21.1875 72.2199 21.3552 72.5184 21.6538C72.817 21.9523 72.9847 22.3572 72.9847 22.7795V28.0501C72.9848 28.2592 72.9437 28.4662 72.8638 28.6594C72.7838 28.8525 72.6665 29.028 72.5187 29.1758C72.3708 29.3235 72.1952 29.4407 72.002 29.5205C71.8088 29.6003 71.6018 29.6413 71.3927 29.641V29.641Z" fill="#463B32"/>
<path d="M83.4093 29.6387C83.2002 29.6393 82.993 29.5985 82.7997 29.5188C82.6064 29.4391 82.4307 29.3219 82.2828 29.1741C82.1348 29.0263 82.0176 28.8507 81.9377 28.6574C81.8578 28.4641 81.817 28.257 81.8174 28.0478V22.7771C81.8282 22.3622 82.0006 21.9679 82.2978 21.6783C82.5951 21.3887 82.9937 21.2266 83.4088 21.2266C83.8238 21.2266 84.2225 21.3887 84.5197 21.6783C84.817 21.9679 84.9894 22.3622 85.0002 22.7771V28.0478C85.0002 28.4698 84.8326 28.8744 84.5342 29.1728C84.2359 29.4711 83.8312 29.6387 83.4093 29.6387Z" fill="#463B32"/>
<path d="M79.5318 73.5982C79.1166 73.5899 78.7212 73.4198 78.4298 73.124C78.1383 72.8283 77.9739 72.4304 77.9717 72.0152C77.9695 71.6 78.1295 71.2004 78.4177 70.9015C78.706 70.6026 79.0995 70.4282 79.5146 70.4154C79.9706 70.4154 90.6238 70.3132 91.9092 70.3455C92.6879 70.3659 93.1236 70.2089 93.272 70.0615C93.3199 70.0052 93.3489 69.9352 93.3549 69.8615C93.3432 69.7996 93.3432 69.7361 93.3549 69.6743C93.3549 69.6743 93.627 45.511 93.6507 43.1446C93.6507 38.3117 85.8103 32.2064 82.7867 30.2627C82.4403 30.0309 82.1987 29.6724 82.1141 29.2643C82.0294 28.8562 82.1084 28.4312 82.334 28.0807C82.5597 27.7303 82.9139 27.4825 83.3204 27.3906C83.727 27.2988 84.1533 27.3703 84.5077 27.5897C86.6426 29.003 88.6573 30.5899 90.5313 32.3344C94.7145 36.2411 96.8335 39.8886 96.8335 43.1618C96.8098 45.4691 96.5538 68.163 96.5323 69.6323C96.5613 70.0938 96.4983 70.5563 96.3471 70.9932C96.1959 71.4301 95.9594 71.8326 95.6514 72.1773C94.8145 73.1067 93.5291 73.5638 91.8425 73.523C90.6077 73.4982 79.6608 73.5972 79.5511 73.5982H79.5318Z" fill="#463B32"/>
<path d="M72.2912 18.6313C71.986 18.6318 71.6871 18.5441 71.4305 18.3789C71.1739 18.2137 70.9704 17.9779 70.8445 17.6998C70.4497 16.8328 69.8248 14.0641 69.643 13.237C69.6191 13.1245 69.6068 13.0099 69.6064 12.8949C69.6064 10.5199 70.88 9.50771 71.946 9.0796C73.0646 8.62676 74.3823 8.62891 75.7968 8.62891H78.886C80.2929 8.62891 81.6181 8.62891 82.7389 9.0796C83.8027 9.50986 85.0742 10.5199 85.0742 12.8949C85.0755 13.0983 85.0371 13.3 84.9612 13.4887C84.6506 14.3458 84.4075 15.2258 84.2341 16.1208C84.1495 16.5344 83.904 16.8975 83.5517 17.1302C83.1994 17.3629 82.7691 17.4461 82.3555 17.3615C81.9418 17.2769 81.5787 17.0315 81.346 16.6792C81.1133 16.3269 81.0301 15.8966 81.1147 15.4829C81.3086 14.5191 81.5644 13.5688 81.8806 12.6378C81.844 12.1484 81.6913 12.0914 81.5439 12.0312C81.0061 11.8096 79.9735 11.816 78.8838 11.816H75.7946C74.7082 11.816 73.6788 11.816 73.1345 12.0312C72.9786 12.0957 72.8172 12.1559 72.7914 12.7346C73.1249 14.2405 73.5766 16.0175 73.7423 16.3854C73.9152 16.7708 73.9284 17.209 73.779 17.6041C73.6296 17.9992 73.3298 18.319 72.9452 18.4936C72.7396 18.5858 72.5166 18.6328 72.2912 18.6313V18.6313Z" fill="#463B32"/>
<path d="M79.552 73.6391H79.538C74.4652 73.5928 64.6242 73.51 63.641 73.5315C60.0914 73.6208 58.8748 71.1877 58.7285 69.8851C58.7232 69.8323 58.7199 69.7775 58.7189 69.7237C58.7189 69.7237 58.4435 45.5809 58.4209 43.2145C58.4209 39.9208 60.541 36.283 64.722 32.387C66.5991 30.6497 68.6135 29.0669 70.7456 27.6542C71.0034 27.4922 71.3017 27.4064 71.6062 27.4068H75.0805C75.2928 27.4013 75.5041 27.4383 75.7019 27.5158C75.8997 27.5932 76.0799 27.7095 76.2321 27.8577C76.3842 28.0059 76.5051 28.1831 76.5877 28.3788C76.6702 28.5745 76.7127 28.7847 76.7127 28.9971C76.7127 29.2095 76.6702 29.4198 76.5877 29.6155C76.5051 29.8112 76.3842 29.9884 76.2321 30.1366C76.0799 30.2848 75.8997 30.4011 75.7019 30.4785C75.5041 30.5559 75.2928 30.593 75.0805 30.5875H72.0784C68.8289 32.7549 61.6016 38.5472 61.6016 43.2005C61.6263 45.4453 61.877 67.5606 61.8985 69.5473C61.9877 69.8894 62.3287 70.3809 63.5625 70.3551C64.8436 70.3196 78.9657 70.4541 79.5659 70.4627C79.9803 70.4751 80.3735 70.649 80.6615 70.9471C80.9496 71.2453 81.1098 71.6442 81.108 72.0588C81.1062 72.4733 80.9425 72.8708 80.6518 73.1664C80.3611 73.462 79.9665 73.6324 79.552 73.6412V73.6391Z" fill="#463B32"/>
<path d="M80.3503 30.5875H80.1352C79.9229 30.593 79.7116 30.5559 79.5138 30.4785C79.316 30.401 79.1358 30.2848 78.9836 30.1366C78.8315 29.9883 78.7106 29.8112 78.628 29.6155C78.5455 29.4198 78.5029 29.2095 78.5029 28.9971C78.5029 28.7847 78.5455 28.5745 78.628 28.3788C78.7106 28.1831 78.8315 28.0059 78.9836 27.8577C79.1358 27.7095 79.316 27.5932 79.5138 27.5158C79.7116 27.4383 79.9229 27.4013 80.1352 27.4068H80.3503C80.5627 27.4013 80.774 27.4383 80.9718 27.5158C81.1695 27.5932 81.3498 27.7095 81.5019 27.8577C81.6541 28.0059 81.775 28.1831 81.8575 28.3788C81.9401 28.5745 81.9826 28.7847 81.9826 28.9971C81.9826 29.2095 81.9401 29.4198 81.8575 29.6155C81.775 29.8112 81.6541 29.9883 81.5019 30.1366C81.3498 30.2848 81.1695 30.401 80.9718 30.4785C80.774 30.5559 80.5627 30.593 80.3503 30.5875V30.5875Z" fill="#463B32"/>
<path d="M87.7274 41.7359C87.5929 41.5758 87.4912 41.3907 87.4284 41.1912C87.3655 40.9918 87.3426 40.7818 87.361 40.5735C87.3793 40.3652 87.4387 40.1625 87.5355 39.9771C87.6323 39.7917 87.7648 39.6273 87.9253 39.4932V39.4932C88.2493 39.2221 88.6677 39.0908 89.0884 39.1281C89.5092 39.1654 89.898 39.3683 90.1692 39.6922V39.6922C90.4396 40.0165 90.5701 40.4349 90.5322 40.8554C90.4943 41.2759 90.291 41.6642 89.9669 41.9349V41.9349C89.681 42.1746 89.3192 42.305 88.9461 42.3028V42.3028C88.7139 42.3031 88.4844 42.2525 88.2739 42.1546C88.0633 42.0567 87.8768 41.9137 87.7274 41.7359V41.7359ZM85.1178 39.0468C84.9662 38.903 84.8444 38.7307 84.7594 38.5398C84.6744 38.3489 84.6279 38.1431 84.6225 37.9343C84.6171 37.7254 84.6529 37.5174 84.728 37.3224C84.803 37.1274 84.9157 36.949 85.0598 36.7976V36.7976C85.3505 36.4917 85.7508 36.3136 86.1727 36.3025C86.5946 36.2914 87.0036 36.4482 87.31 36.7385V36.7385C87.6158 37.0295 87.7937 37.4299 87.8048 37.8519C87.8159 38.2739 87.6592 38.6831 87.3692 38.9898V38.9898C87.2202 39.1462 87.041 39.2708 86.8424 39.3558C86.6438 39.4409 86.43 39.4847 86.2139 39.4846C85.8059 39.485 85.4133 39.3283 85.1178 39.0468V39.0468ZM82.2598 36.4491C82.1015 36.3126 81.9717 36.1462 81.8777 35.9594C81.7838 35.7727 81.7276 35.5693 81.7123 35.3608C81.697 35.1523 81.7229 34.9428 81.7886 34.7444C81.8544 34.5459 81.9585 34.3624 82.0952 34.2042V34.2042C82.2319 34.0459 82.3984 33.916 82.5852 33.8221C82.772 33.7281 82.9755 33.6719 83.1841 33.6566C83.3927 33.6413 83.6022 33.6673 83.8008 33.733C83.9993 33.7987 84.183 33.9029 84.3412 34.0396V34.0396C84.66 34.3164 84.8563 34.7081 84.8872 35.1292C84.918 35.5503 84.7809 35.9664 84.5058 36.2867C84.3552 36.4592 84.1693 36.5973 83.9607 36.6918C83.7521 36.7862 83.5257 36.8348 83.2967 36.8342C82.9152 36.8338 82.5468 36.6951 82.2598 36.4437V36.4491Z" fill="#463B32"/>
<path d="M75.6612 65.774L75.6537 65.6449C74.6921 65.5471 73.653 65.3599 72.9818 65.1007C70.7606 64.2466 69.5914 63.1075 68.4254 61.5381C66.1999 58.5468 66.0589 54.3507 68.0424 50.3074C69.3655 47.6182 71.4748 44.5408 74.2392 40.7546L74.251 40.7374L77.2704 36.7188L78.5106 38.5957C79.2012 39.6337 79.938 40.7201 80.7275 41.8668C82.782 44.8786 84.9085 47.9979 86.0724 50.2837C88.1021 54.2894 87.9655 58.4951 85.7013 61.5381C83.8727 63.9906 81.6848 65.2513 78.531 65.6138V65.7106H77.2177L75.6612 65.774ZM76.8014 42.6369C74.1392 46.2877 72.118 49.2231 70.9004 51.7046C69.4526 54.6573 69.4795 57.6206 70.98 59.6375C71.8663 60.8293 72.5935 61.5446 74.1241 62.133C74.6619 62.3363 76.0248 62.5331 76.9412 62.5331H77.1564C80.009 62.4105 81.6913 61.6016 83.1542 59.6375C84.6805 57.5852 84.7106 54.6271 83.2402 51.7229C82.171 49.6168 80.1004 46.5889 78.1051 43.661C77.7684 43.1726 77.4393 42.6929 77.1198 42.2239L76.8014 42.6369Z" fill="#82AEB4"/>
<path d="M78.8513 60.5021C78.461 60.5022 78.0842 60.3589 77.7926 60.0993C77.5011 59.8397 77.3152 59.4819 77.2703 59.0942C77.2254 58.7064 77.3247 58.3157 77.5491 57.9963C77.7736 57.677 78.1077 57.4513 78.4877 57.3623C78.8524 57.2762 79.3418 57.0676 79.5978 56.5512C79.8979 55.9467 79.813 55.0647 79.3644 54.0601C79.1922 53.6749 79.1801 53.2372 79.3307 52.8431C79.4813 52.4491 79.7822 52.131 80.1674 51.9588C80.5525 51.7866 80.9903 51.7745 81.3843 51.9251C81.7784 52.0757 82.0965 52.3766 82.2687 52.7618C83.3508 55.1798 82.9646 56.9234 82.4515 57.9582C81.8266 59.2328 80.6767 60.117 79.2246 60.4601C79.102 60.4876 78.9769 60.5016 78.8513 60.5021Z" fill="#82AEB4"/>
<path d="M78.8387 51.593C78.5306 51.5927 78.2293 51.5029 77.9713 51.3344C77.7133 51.166 77.5098 50.9263 77.3856 50.6443C77.3287 50.516 77.2876 50.3813 77.2629 50.2431C77.1798 49.8611 77.2404 49.4619 77.4331 49.1218C77.6259 48.7817 77.9373 48.5246 78.3077 48.3997C78.6781 48.2748 79.0816 48.2908 79.4409 48.4448C79.8003 48.5987 80.0902 48.8798 80.2553 49.2341C80.3162 49.3644 80.362 49.5012 80.3919 49.6418C80.4749 50.0038 80.4288 50.3835 80.2617 50.7152C80.0946 51.0469 79.8169 51.3098 79.4766 51.4586C79.2753 51.5463 79.0583 51.5921 78.8387 51.593V51.593Z" fill="#82AEB4"/>
</svg>
