<svg width="62" height="65" viewBox="0 0 62 65" fill="none" xmlns="http://www.w3.org/2000/svg">
<path d="M38.4945 25.4491C38.9331 25.917 39.3318 26.4199 39.6865 26.9529C39.6983 26.9708 39.7141 26.9858 39.7326 26.9969C39.7511 27.008 39.7719 27.0148 39.7934 27.0169H39.809C39.8283 27.0169 39.8474 27.0131 39.8652 27.0057C39.883 26.9983 39.8991 26.9876 39.9127 26.974L49.3303 17.8046C49.4374 17.7027 49.5228 17.5806 49.5816 17.4456C49.6404 17.3106 49.6714 17.1654 49.6728 17.0184C49.6742 16.8714 49.6459 16.7257 49.5896 16.5896C49.5333 16.4536 49.4501 16.33 49.345 16.2261C49.2398 16.1222 49.1148 16.04 48.9771 15.9845C48.8395 15.9289 48.692 15.901 48.5433 15.9024C48.3946 15.9038 48.2477 15.9345 48.1112 15.9927C47.9746 16.0509 47.8512 16.1354 47.748 16.2413L38.4984 25.246C38.4713 25.2728 38.4558 25.3089 38.4551 25.3468C38.4544 25.3846 38.4685 25.4213 38.4945 25.4491Z" fill="#83AEB5"/>
<path d="M6.28487 15.4192C6.1848 15.5602 6.11927 15.7223 6.09346 15.8926C6.06764 16.0629 6.08225 16.2368 6.13613 16.4006C6.19 16.5644 6.28167 16.7135 6.4039 16.8363C6.52612 16.959 6.67554 17.052 6.84037 17.1079C7.03753 17.1742 7.24948 17.185 7.45249 17.139C7.65551 17.0931 7.84156 16.9922 7.98984 16.8476C8.13812 16.7031 8.24277 16.5206 8.29207 16.3206C8.34137 16.1206 8.33338 15.911 8.26898 15.7153C8.20459 15.5195 8.08634 15.3453 7.92747 15.2122C7.7686 15.0791 7.57537 14.9924 7.36944 14.9616C7.1635 14.9309 6.95297 14.9574 6.76143 15.0383C6.56988 15.1191 6.40487 15.251 6.28487 15.4192ZM6.13903 15.7242V15.7165L7.18197 16.0682L6.13903 15.7242Z" fill="#83AEB5"/>
<path d="M4.02992 19.2265C1.38672 23.8379 -0.0017642 29.0479 1.68228e-06 34.348C1.68228e-06 51.2444 13.9061 64.9903 31 64.9903C48.094 64.9903 62 51.2431 62 34.3467C62.001 29.0475 60.6118 23.8385 57.9681 19.2284C57.821 18.9802 57.5809 18.7993 57.2998 18.7248C57.0187 18.6503 56.7193 18.6882 56.4662 18.8303C56.2132 18.9724 56.0269 19.2072 55.9477 19.484C55.8685 19.7608 55.9027 20.0573 56.043 20.3093C58.4963 24.5902 59.7849 29.4267 59.7831 34.3467C59.7831 50.036 46.8727 62.8028 31.0026 62.8028C23.8286 62.8079 16.9132 60.1548 11.6211 55.367L13.0057 54.0111C15.3062 51.7564 15.2096 51.8884 17.455 49.7252C17.4813 49.6997 17.4971 49.6654 17.4991 49.629C17.5011 49.5926 17.4893 49.5567 17.466 49.5285C17.0524 49.0298 16.7136 48.4747 16.46 47.8805C16.4508 47.8585 16.4362 47.839 16.4175 47.8239C16.3989 47.8088 16.3767 47.7985 16.3531 47.7938C16.3294 47.7892 16.305 47.7904 16.2819 47.7974C16.2588 47.8043 16.2378 47.8168 16.2208 47.8337C13.4705 50.4935 12.6485 51.2713 10.6099 53.2711C10.3817 53.496 10.1892 53.685 10.0427 53.8279C5.19476 48.734 2.21883 41.8793 2.21883 34.3493C2.21708 29.4287 3.50618 24.5917 5.96029 20.3106C6.0972 20.0587 6.129 19.7639 6.04891 19.4892C5.96882 19.2144 5.78318 18.9815 5.53167 18.8403C5.28017 18.699 4.98274 18.6606 4.70297 18.7333C4.4232 18.8059 4.18327 18.9838 4.03446 19.229L4.02992 19.2265Z" fill="#83AEB5"/>
<path d="M17.8017 13.8056C19.3075 12.9951 19.8444 11.4001 19.0628 9.98119C18.2811 8.56225 16.6343 8.14269 15.1286 8.95318C13.6229 9.76366 13.0771 11.3634 13.8588 12.7823C14.6404 14.2013 16.296 14.6161 17.8017 13.8056ZM17.1841 12.6845C16.4973 13.0542 15.6988 12.848 15.25 12.0335C14.8013 11.2189 15.0594 10.444 15.7462 10.0743C16.433 9.70462 17.2228 9.91548 17.6715 10.7301C18.1202 11.5446 17.8709 12.3148 17.1841 12.6845Z" fill="#3B2222"/>
<path d="M19.8517 6.14496C20.3978 5.94969 20.6345 5.46153 20.4558 4.9732C20.2908 4.52243 19.7999 4.31565 19.2537 4.51092C18.7076 4.70618 18.4709 5.19434 18.6393 5.6545C18.8077 6.11467 19.3055 6.34023 19.8517 6.14496ZM21.2237 12.1643L22.6926 11.6391L20.8439 6.58669L19.3749 7.11189L21.2237 12.1643Z" fill="#3B2222"/>
<path d="M24.0501 11.2288L25.5617 10.8435L23.6887 3.66374L22.1771 4.04907L24.0501 11.2288Z" fill="#3B2222"/>
<path d="M31.7231 4.58761C31.7028 4.058 31.9431 3.79883 32.4027 3.78161C32.6426 3.77262 32.8651 3.83434 33.0396 3.94789L33.406 2.80337C33.1086 2.61437 32.6454 2.54166 32.2057 2.55812C30.8667 2.60828 30.1575 3.4254 30.2038 4.63451L30.213 4.87433L29.3836 4.9054L29.4295 6.10452L30.259 6.07345L30.4145 10.1305L31.9734 10.0721L31.8179 6.01506L33.1569 5.96491L33.111 4.76579L31.7319 4.81744L31.7231 4.58761Z" fill="#3B2222"/>
<path d="M35.927 5.50388L35.9914 4.7968L34.5072 4.66477L34.0194 10.0226L35.5733 10.1608L35.8036 7.63131C35.897 6.60555 36.5074 6.188 37.364 6.2642C37.4835 6.27484 37.5822 6.29366 37.7108 6.31514L37.8414 4.88107C37.0146 4.80752 36.3527 5.01969 35.927 5.50388Z" fill="#3B2222"/>
<path d="M43.924 9.1459C44.3605 7.47187 43.4457 6.14497 41.9146 5.75489C40.3253 5.35001 38.8407 6.16882 38.4346 7.72674C38.0309 9.27498 38.9082 10.7059 40.7107 11.165C41.6506 11.4045 42.4531 11.2994 43.0814 10.8713L42.5042 9.79547C42.0573 10.0428 41.6171 10.1061 41.0648 9.96536C40.2702 9.76292 39.8213 9.22546 39.8449 8.54011L43.789 9.54491C43.8315 9.42158 43.8937 9.26202 43.924 9.1459ZM41.6266 6.89919C42.3049 7.07201 42.6881 7.62368 42.6231 8.30884L40.0552 7.65461C40.3358 7.01409 40.9385 6.7239 41.6266 6.89919Z" fill="#3B2222"/>
<path d="M49.9824 11.9714C50.7449 10.4185 50.1121 8.9393 48.6876 8.25587C47.209 7.54647 45.5887 8.05568 44.8791 9.50086C44.1739 10.9371 44.7492 12.5107 46.4261 13.3152C47.3007 13.7348 48.1091 13.7899 48.8112 13.4946L48.4595 12.3277C47.9717 12.4818 47.5271 12.4571 47.0132 12.2105C46.2738 11.8558 45.9406 11.2412 46.1007 10.5749L49.7702 12.3354C49.8365 12.2231 49.9295 12.0791 49.9824 11.9714ZM48.1765 9.31939C48.8077 9.62218 49.0735 10.2377 48.873 10.8957L46.4837 9.74944C46.887 9.17765 47.5364 9.01228 48.1765 9.31939Z" fill="#3B2222"/>
<path d="M42.6628 35.339C41.9251 33.7441 39.762 30.5333 37.4711 27.1283L37.4614 27.1136C34.9055 23.3177 32.2633 19.3924 31.2748 17.2779L30.2668 15.125L28.3189 19.0336L28.243 19.19C26.968 21.6248 24.3725 25.1971 22.0765 28.3579L22.068 28.3695C19.9153 31.3394 18.051 33.9024 17.3872 35.339C16.6694 36.8905 16.2988 38.5769 16.3008 40.2831C16.3092 41.9927 16.6618 43.6836 17.3379 45.2573C18.6694 48.4072 21.1242 51.0356 24.25 52.6574C25.8141 53.4686 27.8405 53.953 29.6704 53.953C29.7813 53.953 29.8999 53.953 30.0315 53.9459C30.1054 53.9459 30.1799 53.9498 30.2584 53.9498C31.7771 53.9498 34.1704 53.5057 35.8059 52.6574C38.9316 51.0356 41.3871 48.4072 42.7185 45.2573C44.1116 41.9541 44.0941 38.4319 42.6628 35.339ZM31.1296 51.6347L30.0237 51.6821L28.9107 51.6366V51.6552C27.648 51.5463 26.3321 51.1823 25.3118 50.6537C19.6638 47.7229 17.0981 41.4101 19.47 36.2809C20.0417 35.0423 21.9332 32.4363 23.9369 29.6811C26.2757 26.4606 28.9198 22.8211 30.2752 20.2363C31.6054 22.5046 33.6142 25.4905 35.566 28.3874C37.8037 31.711 39.9175 34.8501 40.5787 36.2815C42.9506 41.4076 40.3843 47.7235 34.7376 50.6531C33.7147 51.1836 32.2426 51.5155 31.1296 51.6347Z" fill="#3B2222"/>
<path d="M21.8603 43.439C21.3086 42.1025 21.0734 40.9069 21.0734 39.439C21.0762 39.3475 21.0604 39.2563 21.0269 39.171C20.9935 39.0856 20.943 39.0078 20.8785 38.9421C20.8141 38.8764 20.7369 38.8241 20.6516 38.7884C20.5663 38.7528 20.4747 38.7344 20.3821 38.7344C20.2894 38.7344 20.1978 38.7528 20.1125 38.7884C20.0272 38.8241 19.95 38.8764 19.8856 38.9421C19.8211 39.0078 19.7706 39.0856 19.7372 39.171C19.7037 39.2563 19.6879 39.3475 19.6908 39.439C19.6908 41.0946 19.9565 42.4453 20.5794 43.9555C20.6314 44.0813 20.7202 44.189 20.8344 44.2648C20.9486 44.3405 21.083 44.381 21.2205 44.3809C21.3094 44.3804 21.3974 44.3632 21.4798 44.3303C21.564 44.2965 21.6406 44.2467 21.7054 44.1836C21.7701 44.1205 21.8216 44.0454 21.8569 43.9626C21.8922 43.8799 21.9107 43.791 21.9113 43.7012C21.9119 43.6113 21.8945 43.5223 21.8603 43.439Z" fill="#3B2222"/>
<path d="M22.076 46.0401C22.1379 46.0396 22.1995 46.0316 22.2594 46.0164C22.2941 46.0084 22.3282 45.9977 22.3612 45.9844C22.394 45.9717 22.4258 45.9567 22.4565 45.9396C22.537 45.8883 22.6063 45.8214 22.66 45.743C22.7137 45.6646 22.7507 45.5763 22.7689 45.4833C22.7871 45.3904 22.786 45.2948 22.7657 45.2022C22.7454 45.1097 22.7064 45.0222 22.6509 44.945C22.31 44.4912 21.8601 44.609 21.6696 44.7344C21.6486 44.7487 21.6285 44.764 21.6093 44.7805C21.4794 44.8875 21.3937 45.0376 21.3682 45.2027C21.3428 45.3678 21.3794 45.5363 21.4712 45.6765C21.6644 45.9639 21.888 46.0401 22.076 46.0401Z" fill="#3B2222"/>
<path d="M26.8887 48.111C25.7602 47.7064 24.7276 47.0775 23.8545 46.2632C23.7202 46.1428 23.5434 46.0793 23.3622 46.0865C23.1811 46.0936 23.01 46.1708 22.8858 46.3015C22.7617 46.4321 22.6944 46.6057 22.6984 46.7849C22.7025 46.9641 22.7776 47.1345 22.9075 47.2595C23.9172 48.2005 25.111 48.9275 26.4155 49.3957C26.491 49.4232 26.5709 49.4373 26.6514 49.4373C26.8142 49.4376 26.9719 49.3812 27.0967 49.2779C27.2215 49.1746 27.3054 49.0311 27.3338 48.8727C27.3621 48.7143 27.333 48.551 27.2516 48.4117C27.1702 48.2724 27.0417 48.1659 26.8887 48.111Z" fill="#3B2222"/>
</svg>
