<svg width="86" height="90" viewBox="0 0 86 90" fill="none" xmlns="http://www.w3.org/2000/svg">
<path d="M83.2783 57.8785C83.6367 57.6855 83.9038 57.3581 84.0207 56.9681C84.1377 56.5782 84.095 56.1578 83.902 55.7994C83.709 55.441 83.3815 55.1739 82.9916 55.057C82.6017 54.94 82.1813 54.9827 81.8229 55.1757C81.7666 55.1923 81.4977 55.2496 80.7899 55.1757C80.3956 55.1538 80.008 55.2849 79.7079 55.5416C79.4078 55.7983 79.2183 56.1608 79.1787 56.5537C79.1392 56.9466 79.2527 57.3397 79.4957 57.651C79.7387 57.9623 80.0923 58.1679 80.4831 58.225C80.8167 58.2583 81.1225 58.2749 81.4071 58.2749C82.187 58.2823 82.7839 58.1511 83.2783 57.8785Z" fill="#82AEB4"/>
<path d="M12.5535 70.8206C12.1441 71.0811 11.951 71.1394 11.9067 71.1504C11.5057 71.1561 11.1235 71.3207 10.8439 71.6082C10.5644 71.8957 10.4106 72.2825 10.4162 72.6834C10.4218 73.0844 10.5865 73.4666 10.874 73.7461C11.1615 74.0257 11.5482 74.1795 11.9492 74.1739H11.9575C12.6311 74.1739 13.3435 73.9346 14.2103 73.3829C14.3836 73.2766 14.534 73.1367 14.6525 72.9715C14.7711 72.8063 14.8553 72.619 14.9004 72.4207C14.9455 72.2224 14.9505 72.0171 14.9152 71.8168C14.8798 71.6166 14.8047 71.4254 14.6944 71.2546C14.5841 71.0838 14.4407 70.9368 14.2727 70.8221C14.1047 70.7075 13.9155 70.6277 13.7162 70.5872C13.517 70.5468 13.3116 70.5466 13.1122 70.5867C12.9129 70.6267 12.7235 70.7063 12.5553 70.8206H12.5535Z" fill="#82AEB4"/>
<path d="M28.3841 82.5235C23.9347 80.8726 19.8264 78.4186 16.2635 75.2837C15.9641 75.0362 15.5802 74.9149 15.193 74.9456C14.8059 74.9762 14.4458 75.1563 14.1891 75.4477C13.9323 75.7392 13.7991 76.1191 13.8175 76.507C13.836 76.895 14.0047 77.2605 14.2879 77.5263C18.1256 80.9026 22.551 83.5452 27.3436 85.3224C27.5106 85.3835 27.687 85.4147 27.8648 85.4148C28.215 85.4141 28.5538 85.2904 28.8222 85.0654C29.0906 84.8404 29.2714 84.5283 29.3333 84.1836C29.3951 83.8389 29.3339 83.4834 29.1604 83.1792C28.987 82.8749 28.7122 82.6412 28.3841 82.5189V82.5235Z" fill="#82AEB4"/>
<path d="M79.6856 60.6497C79.3216 60.4933 78.9105 60.4875 78.5422 60.6337C78.174 60.7799 77.8787 61.0661 77.7211 61.4296C75.6198 66.3091 72.5375 70.7043 68.6656 74.3421C68.5227 74.4766 68.4077 74.6379 68.3272 74.8169C68.2466 74.9958 68.2021 75.1889 68.1962 75.385C68.1903 75.5812 68.2231 75.7766 68.2927 75.9601C68.3623 76.1435 68.4673 76.3115 68.6018 76.4544C68.7363 76.5973 68.8977 76.7123 69.0766 76.7928C69.2556 76.8734 69.4486 76.9179 69.6448 76.9238C69.8409 76.9297 70.0363 76.8969 70.2198 76.8273C70.4033 76.7577 70.5713 76.6527 70.7142 76.5182C74.8846 72.601 78.2053 67.8684 80.4701 62.6142C80.548 62.4337 80.5894 62.2397 80.5921 62.0432C80.5947 61.8467 80.5586 61.6516 80.4857 61.4691C80.4128 61.2866 80.3046 61.1202 80.1674 60.9796C80.0301 60.839 79.8663 60.7269 79.6856 60.6497Z" fill="#82AEB4"/>
<path d="M11.781 21.3449C12.0103 21.0365 12.1121 20.6516 12.0652 20.2702C12.0182 19.8888 11.8262 19.54 11.529 19.2964C11.2317 19.0528 10.8521 18.933 10.4689 18.9619C10.0857 18.9908 9.72827 19.1661 9.4709 19.4515C3.6042 26.6119 0.34143 35.2978 0.0244854 44.5687C-0.0705998 47.3569 0.111405 50.1476 0.567819 52.8998C0.608511 53.1466 0.710913 53.3791 0.865514 53.5757C1.02012 53.7723 1.2219 53.9266 1.45212 54.0244L0.462478 57.203C0.398702 57.3965 0.374085 57.6006 0.390056 57.8037C0.406027 58.0067 0.462267 58.2045 0.555502 58.3856C0.648736 58.5666 0.777092 58.7273 0.933085 58.8583C1.08908 58.9892 1.26959 59.0878 1.46407 59.1482C1.65856 59.2086 1.86314 59.2297 2.06586 59.2103C2.26859 59.1908 2.46541 59.1311 2.64484 59.0348C2.82427 58.9385 2.98272 58.8073 3.11095 58.6491C3.23917 58.4909 3.3346 58.3087 3.39167 58.1132L9.14842 39.6149C10.0299 38.7833 10.9965 38.2917 12.1146 37.7253C13.3047 37.1247 14.6538 36.4418 15.9835 35.2479C17.0535 34.2934 17.948 33.4461 18.7362 32.6985C19.9735 31.5268 21.3734 30.2036 21.8474 30.1242C23.8591 29.8904 32.0488 30.6786 33.2251 31.3448C33.7509 31.6581 35.4428 33.265 38.4709 36.743C34.8671 37.4287 31.9102 33.8499 31.8825 33.8157C31.6955 33.5824 31.4444 33.4087 31.1601 33.3162C30.8757 33.2236 30.5706 33.2161 30.282 33.2945C27.9951 33.9164 25.368 34.1964 24.7748 33.8831C24.5585 33.7535 24.3136 33.6792 24.0618 33.6669C23.8099 33.6546 23.5589 33.7046 23.3311 33.8126C23.1032 33.9205 22.9055 34.083 22.7555 34.2857C22.6055 34.4884 22.5078 34.725 22.4712 34.9744C21.9703 38.3416 18.8878 41.5148 18.8591 41.5452C18.6217 41.785 18.4711 42.0972 18.4313 42.4323L17.8473 47.083C17.8191 47.3085 17.8415 47.5374 17.9128 47.7532C17.984 47.9689 18.1025 48.1661 18.2594 48.3304C18.4858 48.5716 23.9062 54.2443 28.1022 55.8225C28.3008 55.8952 28.5121 55.9266 28.7232 55.9149C31.9795 55.7458 39.6897 57.2816 40.9574 57.5403C41.4037 57.7704 43.0079 58.7351 43.1557 60.6469C42.1707 60.8022 40.938 60.61 39.8292 60.4372C39.1898 60.3392 38.5882 60.245 38.0042 60.2043C35.8161 60.0481 28.2603 60.8798 25.9428 61.7863C23.8535 62.6059 20.4096 65.0111 15.7719 68.322C15.6009 68.436 15.4545 68.5833 15.3416 68.7551C15.2286 68.9268 15.1513 69.1196 15.1143 69.3218C15.0772 69.524 15.0812 69.7316 15.126 69.9322C15.1708 70.1329 15.2555 70.3225 15.375 70.4897C15.4945 70.657 15.6464 70.7985 15.8217 70.906C15.997 71.0134 16.1921 71.0844 16.3954 71.1149C16.5987 71.1455 16.806 71.1348 17.0051 71.0836C17.2042 71.0324 17.391 70.9417 17.5544 70.8169C21.7125 67.8442 25.3061 65.3281 27.0618 64.6415C28.7823 63.967 35.8401 63.1224 37.7806 63.261C38.238 63.2943 38.7795 63.3774 39.3515 63.4671C41.1071 63.7443 43.1003 64.0501 44.9234 63.3276C45.4821 62.8811 45.9162 62.298 46.1838 61.6347C46.2485 61.7447 46.3131 61.8556 46.3852 61.9664C46.903 62.4815 47.5485 62.8495 48.2555 63.0328C48.3241 63.0326 48.3926 63.028 48.4606 63.0189C50.4011 62.7593 51.9904 61.5164 53.3894 60.4196C53.8514 60.0629 54.2792 59.7247 54.6636 59.4734C56.29 58.4043 62.8617 55.6922 64.6941 55.439C65.5608 55.3198 67.3266 55.6645 69.3706 56.0637C71.2667 56.4333 73.6212 56.8953 76.2547 57.1836C76.4549 57.2057 76.6575 57.1881 76.8509 57.1319C77.0444 57.0757 77.2248 56.9819 77.382 56.856C77.5392 56.73 77.6701 56.5743 77.7671 56.3978C77.8641 56.2213 77.9254 56.0274 77.9475 55.8271C77.9696 55.6269 77.952 55.4243 77.8958 55.2309C77.8396 55.0374 77.7458 54.857 77.6199 54.6998C77.4939 54.5426 77.3382 54.4118 77.1617 54.3147C76.9852 54.2177 76.7912 54.1564 76.591 54.1343C74.0878 53.8571 71.8941 53.4293 69.9583 53.0513C67.456 52.5644 65.6486 52.2105 64.2764 52.3999C61.8083 52.74 54.8087 55.7043 52.9801 56.9083C52.4885 57.2289 52.007 57.605 51.5016 58.0042C50.6154 58.6981 49.6314 59.4678 48.6962 59.8134C47.8923 58.0763 48.8237 56.4472 49.1019 56.0249C50.0851 55.1757 56.0553 50.076 58.9891 48.6326C59.1781 48.5387 59.3459 48.4073 59.4825 48.2464C62.2916 44.9198 64.9519 38.8471 65.0628 38.5902C65.1704 38.3439 65.2114 38.0736 65.1815 37.8065C65.1517 37.5393 65.0521 37.2848 64.8927 37.0683L62.1142 33.2936C61.9132 33.0213 61.628 32.8229 61.3029 32.729C60.1247 32.3881 56.6827 31.0085 54.9455 28.7557C54.792 28.5556 54.5915 28.3966 54.3618 28.2927C54.1321 28.1888 53.8802 28.1433 53.6287 28.1603C53.3771 28.1772 53.1337 28.256 52.9199 28.3897C52.7062 28.5234 52.5287 28.7078 52.4035 28.9266C52.0338 29.4894 49.6101 30.5298 47.3056 31.1055C47.0429 31.1715 46.8022 31.3053 46.6076 31.4936C46.413 31.6819 46.2713 31.918 46.1967 32.1783C46.1801 32.243 44.4799 37.9304 41.6477 38.6724C42.4174 35.174 43.3414 31.6063 43.7794 30.8421C44.4854 29.6889 51.2456 24.9985 53.1122 24.2205C53.5631 24.0551 55.438 24.5291 57.0856 24.9477C58.1399 25.2138 59.3328 25.5178 60.7327 25.8292C62.4884 26.2229 64.0047 26.1323 65.3381 26.0519C66.5394 25.9817 67.5918 25.9207 68.7192 26.1896C68.7441 26.2164 68.7691 26.2451 68.7968 26.2719L82.8865 39.6408C83.1836 39.9101 83.5743 40.0525 83.9751 40.0375C84.3758 40.0225 84.7548 39.8514 85.031 39.5607C85.3073 39.2699 85.4588 38.8827 85.4533 38.4817C85.4478 38.0808 85.2857 37.6978 85.0016 37.4148L80.9303 33.5542C81.188 33.3633 81.3776 33.0947 81.4709 32.7878C81.5642 32.481 81.5564 32.1523 81.4487 31.8503C77.6546 21.2617 69.6099 12.5074 59.3799 7.82533C59.2013 7.74259 59.0082 7.69596 58.8115 7.6881C58.6148 7.68025 58.4185 7.71134 58.2339 7.77957C58.0493 7.84781 57.8799 7.95185 57.7356 8.08572C57.5913 8.2196 57.4749 8.38066 57.3931 8.55966C57.3112 8.73866 57.2655 8.93207 57.2586 9.12878C57.2517 9.32549 57.2838 9.52163 57.3529 9.70592C57.4221 9.89021 57.5269 10.059 57.6615 10.2027C57.7961 10.3463 57.9577 10.4619 58.1371 10.5429C66.8591 14.532 73.8697 21.7127 77.6879 30.4716L70.9138 24.0468C70.7692 23.9086 70.5987 23.8006 70.412 23.7289C70.2098 23.4979 69.943 23.3328 69.646 23.2549C67.991 22.8224 66.5514 22.9084 65.1616 22.9925C63.9188 23.0645 62.7462 23.1357 61.4063 22.8372C60.0499 22.5341 58.88 22.2375 57.8451 21.976C55.0111 21.2562 53.297 20.8219 51.9377 21.3892C50.2458 22.0934 42.3638 27.1589 41.1265 29.3147C40.7079 30.0428 40.2025 31.7172 39.7266 33.5163C37.35 30.8625 35.6941 29.2473 34.7997 28.7104C32.6661 27.4352 23.3157 26.8623 21.4935 27.0758C20.0299 27.2449 18.7482 28.4618 16.6257 30.4707C15.8532 31.2034 14.9735 32.0341 13.9386 32.9656C12.9037 33.897 11.8503 34.4256 10.7285 34.992C9.48476 35.6213 8.19758 36.2727 6.97416 37.4518C6.79552 37.6222 6.66132 37.8338 6.58329 38.0681C6.42169 38.2373 6.3015 38.4416 6.23216 38.665L3.09044 48.7675C2.99278 47.4053 2.96718 46.0389 3.01374 44.674C3.30481 36.0583 6.3375 27.9906 11.781 21.3449ZM31.7651 37.8574C31.3031 37.7983 30.8919 37.6514 30.6988 37.4527C30.4437 37.1875 30.1712 36.8789 29.9023 36.5545L30.173 36.4917C30.6685 36.985 31.2007 37.44 31.7651 37.8528V37.8574ZM25.125 37.0443C25.5588 37.0772 25.9944 37.0818 26.4288 37.0581C26.5887 37.2891 26.7596 37.5201 26.938 37.7567C26.524 37.7336 25.9677 37.8001 25.5159 38.3C25.3452 38.5007 25.1907 38.7145 25.0538 38.9395C24.6713 39.5253 24.0919 40.4115 23.2002 41.0343C23.1716 41.0546 23.1439 41.0814 23.1134 41.1036C23.8609 39.9864 24.6417 38.5856 25.125 37.0443ZM21.4104 43.3028C21.5767 43.118 21.7902 42.8694 22.0276 42.5718C21.5296 43.6511 21.3383 44.8709 21.3632 45.295C21.3947 45.7764 21.2561 46.2689 21.0546 46.8021C21.0287 46.7781 21.0047 46.754 20.9825 46.7309L21.4104 43.3028ZM61.8831 38.1697C61.8656 38.2086 61.848 38.2492 61.8268 38.2908C61.4461 37.9591 61.1328 37.6255 60.9443 37.2328C60.7558 36.8401 59.999 35.88 59.0362 35.1814C59.3919 35.3228 59.6959 35.4355 59.9316 35.5168L61.8831 38.1697ZM53.6334 31.8697C54.806 32.9785 56.1745 33.8185 57.3757 34.4283C57.3369 34.4228 57.3018 34.4135 57.263 34.4089C56.1837 34.3008 55.2439 33.8101 54.6239 33.4849C54.3947 33.3549 54.1552 33.244 53.9078 33.1532C53.6823 33.0765 53.4429 33.0493 53.2059 33.0736C52.969 33.0978 52.74 33.1729 52.5347 33.2936C52.5347 33.2834 52.5347 33.2724 52.5347 33.2613C52.5103 33.0132 52.5026 32.7638 52.5116 32.5146C52.8976 32.3231 53.2713 32.1077 53.6306 31.8697H53.6334ZM49.4872 33.6909C49.5197 33.9467 49.5082 34.2061 49.453 34.4579C49.3486 34.8515 48.7812 35.3727 48.151 35.6776C48.4689 34.9763 48.711 34.3433 48.8773 33.8711C49.0668 33.8194 49.2738 33.7556 49.4844 33.6909H49.4872ZM46.1182 39.0651C46.2954 39.087 46.4737 39.0978 46.6523 39.0975C47.7833 39.0975 48.8367 38.7131 49.0141 38.6447C49.8258 38.3276 50.5662 37.8521 51.1921 37.2457C52.0168 37.1214 52.8049 36.8201 53.5021 36.3623C54.2626 36.7495 55.4657 37.303 56.9072 37.4573C57.2371 37.5811 57.9689 38.2806 58.2083 38.6253C58.7627 39.7471 59.6248 40.4734 60.4259 41.1091C59.5435 42.7724 58.4356 44.6666 57.3258 46.0425C53.7128 47.9571 47.227 53.5938 46.9461 53.8368C46.8687 53.9026 46.7989 53.977 46.7382 54.0586C45.9898 55.1059 45.5106 56.3213 45.3429 57.5976C44.1509 55.5961 42.1762 54.7202 42.0533 54.6666C41.959 54.6261 41.8609 54.5951 41.7604 54.5742C41.3954 54.4975 32.9922 52.7501 28.9089 52.8397C27.2383 52.1301 25.1758 50.5417 23.4571 49.041C23.5079 48.9172 23.5578 48.7915 23.6133 48.664C24.0291 47.6642 24.5003 46.5323 24.4338 45.173C24.4736 44.7563 24.7711 43.787 24.9984 43.5199C26.1821 42.6809 26.9611 41.6109 27.4342 40.9012C28.2829 40.9632 29.1348 40.8369 29.9291 40.5316C30.6583 40.8163 31.435 40.9599 32.2179 40.9548C32.5209 40.9553 32.8235 40.934 33.1235 40.891C33.348 40.8596 34.8791 40.6092 35.9593 39.7674C36.4671 39.864 36.9828 39.9128 37.4997 39.9134C37.7538 39.9134 38.0135 39.8977 38.275 39.8718C38.2946 40.2586 38.4268 40.6312 38.6553 40.944C38.8838 41.2567 39.1987 41.4958 39.5612 41.6321C41.0027 42.0239 43.6223 42.1357 46.1154 39.0651H46.1182Z" fill="#82AEB4"/>
<path d="M18.5337 8.72514C17.7855 9.17756 17.2791 9.80955 17.099 10.5404L15.3942 7.72093L13.7026 8.7438L18.5678 16.7901L20.2595 15.7672L18.5153 12.8827C17.8662 11.8091 18.1502 10.9562 18.9635 10.4645C19.7117 10.0121 20.4077 10.1835 20.9782 11.127L22.8403 14.2067L24.532 13.1838L22.5125 9.84384C21.4372 8.06542 19.9109 7.89241 18.5337 8.72514Z" fill="#463B32"/>
<path d="M26.3004 5.06726C25.281 5.43596 24.3484 6.08156 23.8292 6.83232L24.9602 7.8842C25.2896 7.34956 25.9074 6.87141 26.5831 6.62704C27.5787 6.26692 28.22 6.55769 28.5073 7.35183L27.0375 7.88344C25.0936 8.58654 24.5825 9.65607 24.9897 10.7821C25.3884 11.8844 26.5775 12.3926 28.071 11.8524C29.0073 11.5137 29.5596 10.9654 29.6933 10.2603L29.9805 11.0545L31.7111 10.4285L30.3949 6.7897C29.6961 4.85769 28.2442 4.36416 26.3004 5.06726ZM28.0831 10.4406C27.4312 10.6764 26.9286 10.5097 26.7614 10.0475C26.607 9.62076 26.7639 9.20213 27.6291 8.88917L28.8974 8.43044L29.1332 9.08234C29.1299 9.7403 28.6994 10.2177 28.0831 10.4406Z" fill="#463B32"/>
<path d="M36.5302 2.60209C35.6186 2.7302 34.8758 3.15292 34.4321 3.80102L34.3216 3.01435L32.461 3.27583L33.4052 9.99367L35.3531 9.71991L34.8863 6.39845C34.7126 5.16227 35.3061 4.49312 36.2426 4.3615C37.1042 4.24041 37.6739 4.66968 37.8265 5.75602L38.3249 9.30224L40.2729 9.02848L39.7323 5.18258C39.4445 3.13477 38.116 2.37922 36.5302 2.60209Z" fill="#463B32"/>
<path d="M47.6515 0L47.4139 3.28247C46.9635 2.6936 46.2783 2.37851 45.4483 2.31843C43.5367 2.18006 41.9669 3.43182 41.813 5.55724C41.6592 7.68267 43.0323 9.14744 44.944 9.28581C45.8495 9.35135 46.5873 9.11398 47.1205 8.55839L47.0641 9.33813L48.938 9.47377L49.6135 0.14201L47.6515 0ZM45.4001 7.7006C44.4191 7.62959 43.7155 6.87069 43.8001 5.70107C43.8848 4.53146 44.6904 3.8818 45.6713 3.9528C46.6397 4.0229 47.3433 4.7818 47.2587 5.95141C47.174 7.12103 46.3684 7.77069 45.4001 7.7006Z" fill="#463B32"/>
<path d="M40.5013 82.7993C39.4897 82.659 38.5582 82.9498 37.9258 83.5622C37.5535 82.7595 36.8044 82.2863 35.8676 82.1564C35.0059 82.0368 34.2149 82.2325 33.6356 82.7377L33.743 81.9634L31.882 81.7051L30.9496 88.4246L32.898 88.695L33.366 85.3228C33.5324 84.1237 34.2223 83.6466 35.0841 83.7662C35.896 83.8789 36.2888 84.4426 36.138 85.5292L35.6458 89.0763L37.5942 89.3466L38.0621 85.9744C38.2285 84.7754 38.9185 84.2983 39.7928 84.4196C40.5796 84.5288 40.9974 85.0959 40.8466 86.1826L40.3544 89.7296L42.3028 90L42.8366 86.1532C43.1208 84.1049 42.1 83.0212 40.5013 82.7993Z" fill="#463B32"/>
<path d="M47.1334 82.3262C46.0626 82.4979 45.0254 82.9579 44.3747 83.5986L45.2895 84.8439C45.7132 84.3801 46.4098 84.0257 47.1195 83.9119C48.1653 83.7442 48.7412 84.15 48.8749 84.9841L47.3311 85.2317C45.2892 85.5591 44.5868 86.5146 44.7765 87.6974C44.9622 88.8553 46.0357 89.577 47.6044 89.3255C48.588 89.1678 49.2333 88.7323 49.4966 88.0643L49.6303 88.8985L51.4481 88.607L50.8352 84.7847C50.5097 82.7553 49.1752 81.9988 47.1334 82.3262ZM47.8804 87.9403C47.1956 88.0501 46.7328 87.7923 46.655 87.3068C46.5831 86.8586 46.8156 86.4765 47.7244 86.3307L49.0566 86.1171L49.1664 86.8019C49.0401 87.4479 48.5278 87.8365 47.8804 87.9403Z" fill="#463B32"/>
<path d="M55.1712 77.3268L56.4547 80.3546C55.7859 80.0359 55.033 80.0677 54.2673 80.3923C52.504 81.1398 51.6779 82.968 52.509 84.9285C53.34 86.889 55.2284 87.5665 56.9917 86.819C57.827 86.465 58.3751 85.9178 58.5964 85.1808L58.9013 85.9001L60.6298 85.1673L56.9809 76.5596L55.1712 77.3268ZM56.6755 85.2014C55.7706 85.5849 54.7992 85.2304 54.3419 84.1515C53.8845 83.0727 54.3052 82.128 55.21 81.7444C56.1033 81.3657 57.0747 81.7203 57.532 82.7991C57.9894 83.878 57.5687 84.8227 56.6755 85.2014Z" fill="#463B32"/>
<path d="M66.5791 77.0154C65.2843 75.2598 63.2529 75.0972 61.6495 76.2798C59.9852 77.5072 59.6052 79.6049 60.8102 81.2388C62.0077 82.8624 64.1113 83.1441 65.9988 81.752C66.9832 81.026 67.5197 80.1603 67.6005 79.2076L66.0846 78.9155C65.9711 79.5476 65.6823 80.027 65.1039 80.4536C64.2717 81.0673 63.3864 81.0779 62.7328 80.5102L66.863 77.4641C66.7758 77.3246 66.6689 77.1372 66.5791 77.0154ZM62.5428 77.4697C63.2532 76.9458 64.1 77.0106 64.7206 77.6184L62.0314 79.6017C61.6266 78.8192 61.8223 78.0011 62.5428 77.4697Z" fill="#463B32"/>
<path d="M12.632 17.3475C13.2557 17.3475 13.7612 16.842 13.7612 16.2183C13.7612 15.5947 13.2557 15.0892 12.632 15.0892C12.0084 15.0892 11.5029 15.5947 11.5029 16.2183C11.5029 16.842 12.0084 17.3475 12.632 17.3475Z" fill="#82AEB4"/>
<path d="M53.6639 8.78355C54.2875 8.78355 54.793 8.278 54.793 7.65438C54.793 7.03075 54.2875 6.52521 53.6639 6.52521C53.0402 6.52521 52.5347 7.03075 52.5347 7.65438C52.5347 8.278 53.0402 8.78355 53.6639 8.78355Z" fill="#82AEB4"/>
</svg>
