<svg width="69" height="77" viewBox="0 0 69 77" fill="none" xmlns="http://www.w3.org/2000/svg">
<g clip-path="url(#clip0_831_532)">
<path d="M47.331 25.5108C47.3348 25.5359 47.3446 25.5596 47.3596 25.5799C47.3746 25.6003 47.3943 25.6168 47.417 25.6279C47.9807 25.9083 48.0552 26.8082 48.6355 27.3047C48.6658 27.3314 48.7052 27.3454 48.7455 27.344C48.7859 27.3425 48.8241 27.3256 48.8523 27.2967L55.0303 21.0769C55.1832 20.919 55.2862 20.7196 55.3265 20.5036C55.3668 20.2876 55.3425 20.0644 55.2568 19.8621C55.1711 19.6597 55.0277 19.4871 54.8445 19.3658C54.6613 19.2444 54.4464 19.1797 54.2266 19.1797C54.077 19.179 53.9288 19.2087 53.7911 19.267C53.6533 19.3252 53.5288 19.4109 53.4251 19.5187C53.4251 19.5187 50.7719 22.0829 47.3772 25.3728C47.359 25.3904 47.3454 25.4122 47.3373 25.4362C47.3293 25.4602 47.3271 25.4858 47.331 25.5108Z" fill="#83AEB5"/>
<path d="M20.609 69.4128C20.8784 69.4123 21.1395 69.3202 21.3496 69.1517C21.5597 68.9832 21.7062 68.7482 21.7651 68.4853C21.8239 68.2225 21.7916 67.9475 21.6735 67.7054C21.5553 67.4634 21.3584 67.2688 21.1149 67.1535C18.3243 65.8296 15.7447 64.1004 13.4597 62.0221C13.4829 62.0221 13.5053 62.0264 13.5284 62.0264H13.5826C13.816 62.0152 14.0399 61.931 14.223 61.7857C14.2707 61.7474 17.9927 57.7124 18.1517 57.5404C18.1965 57.492 20.3958 55.0614 20.3662 55.0022C20.1927 54.6675 20.0048 54.3127 19.8061 53.9614C19.6731 53.7302 18.1741 54.8164 18.0029 54.57C17.9893 54.5506 17.9715 54.5344 17.9509 54.5228C17.9302 54.5112 17.9072 54.5043 17.8836 54.5028C17.8352 54.5028 16.944 55.529 16.9137 55.5645C14.4998 58.2104 12.943 59.9095 12.823 60.0389C12.6785 60.1571 12.5658 60.3097 12.4954 60.4826C12.4249 60.6556 12.3989 60.8435 12.4197 61.029C6.56559 55.198 3.08418 47.1735 3.08418 38.6966C3.08418 32.1783 4.3945 27.435 8.14765 22.1128C8.24044 21.9856 8.307 21.8412 8.34345 21.6881C8.3799 21.5349 8.38551 21.376 8.35996 21.2207C8.33441 21.0653 8.27821 20.9166 8.19463 20.7832C8.11105 20.6498 8.00176 20.5344 7.87312 20.4436C7.74449 20.3529 7.59908 20.2886 7.44537 20.2546C7.29166 20.2206 7.13272 20.2175 6.9778 20.2455C6.82288 20.2735 6.67509 20.3321 6.54303 20.4178C6.41096 20.5034 6.29726 20.6146 6.20856 20.7446C2.17281 26.4679 0.712891 31.6861 0.712891 38.6966C0.718887 45.1091 2.54375 51.3884 5.9756 56.8054C9.40745 62.2223 14.3055 66.5546 20.101 69.2993C20.2599 69.374 20.4334 69.4128 20.609 69.4128Z" fill="#83AEB5"/>
<path d="M62.8869 20.024C62.7048 19.7671 62.4281 19.5932 62.1177 19.5403C61.8073 19.4874 61.4887 19.56 61.2318 19.7421C60.975 19.9242 60.801 20.2009 60.7481 20.5113C60.6952 20.8217 60.7678 21.1403 60.9499 21.3972C64.7226 26.7274 66.043 32.158 66.043 38.6951C66.043 50.2487 59.7126 60.8592 49.5228 66.3866C49.3799 66.4575 49.2527 66.5565 49.1489 66.6776C49.0451 66.7988 48.9667 66.9396 48.9186 67.0917C48.8705 67.2439 48.8535 67.4041 48.8687 67.5629C48.8839 67.7218 48.931 67.8759 49.0071 68.0161C49.0832 68.1563 49.1869 68.2797 49.3118 68.379C49.4367 68.4782 49.5804 68.5513 49.7342 68.5937C49.888 68.6362 50.0487 68.6472 50.2069 68.6261C50.365 68.605 50.5173 68.5523 50.6546 68.471C56.0233 65.5685 60.5079 61.2693 63.6342 56.0278C66.7605 50.7863 68.4124 44.7974 68.415 38.6944C68.415 31.6622 66.9443 25.7574 62.8869 20.024Z" fill="#83AEB5"/>
<path d="M49.1041 48.2577C49.012 48.2578 48.9207 48.2391 48.836 48.2028C48.7412 48.167 48.6547 48.1121 48.582 48.0414C48.5092 47.9708 48.4518 47.886 48.4132 47.7922C48.3929 47.7402 48.3791 47.6858 48.372 47.6304C48.3347 47.472 48.3542 47.3056 48.4271 47.1602C48.5 47.0148 48.6217 46.8996 48.7708 46.8348C48.92 46.77 49.0872 46.7597 49.2433 46.8056C49.3993 46.8515 49.5342 46.9508 49.6245 47.0861C49.6415 47.1117 49.657 47.1382 49.6708 47.1656C49.7436 47.2695 49.7865 47.3913 49.7949 47.5179C49.8033 47.6444 49.7769 47.7708 49.7185 47.8834C49.6601 47.996 49.5719 48.0904 49.4636 48.1564C49.3553 48.2224 49.231 48.2574 49.1041 48.2577Z" fill="#3B2222"/>
<path d="M34.7846 30.4347C34.0879 30.4293 33.4214 30.1502 32.9288 29.6575C32.4363 29.1648 32.1574 28.4981 32.1524 27.8015C32.1474 27.1048 32.4166 26.4342 32.902 25.9344C33.3873 25.4347 34.0498 25.1459 34.7463 25.1305L44.0695 24.9961C44.5902 24.997 45.0991 25.1511 45.5328 25.4393C45.9664 25.7275 46.3056 26.137 46.5081 26.6167C46.7105 27.0964 46.7673 27.6251 46.6713 28.1368C46.5753 28.6486 46.3307 29.1207 45.9681 29.4944C45.7266 29.7453 45.4377 29.9458 45.1181 30.0841C44.7985 30.2224 44.4546 30.2959 44.1064 30.3002L34.7846 30.4347ZM44.0702 26.383H44.0507L34.7665 26.5167C34.4384 26.5299 34.1282 26.6701 33.9016 26.9078C33.6749 27.1454 33.5495 27.4619 33.5518 27.7902C33.5542 28.1186 33.6841 28.4333 33.9141 28.6676C34.1441 28.902 34.4563 29.0378 34.7846 29.0463H34.8026L44.0876 28.9119C44.4222 28.9052 44.7407 28.7666 44.9735 28.5261C45.2064 28.2857 45.3348 27.963 45.3307 27.6283C45.3245 27.2973 45.1892 26.9819 44.9537 26.7493C44.7183 26.5167 44.4012 26.3852 44.0702 26.383Z" fill="#3B2222"/>
<path d="M36.6473 26.2501C36.4651 26.2497 36.2903 26.1778 36.1607 26.0497C36.031 25.9217 35.9569 25.7479 35.9542 25.5657L35.9044 22.124C35.9019 21.94 35.9724 21.7626 36.1006 21.6306C36.2288 21.4986 36.4041 21.4229 36.5881 21.4201L42.1676 21.3398H42.177C42.359 21.3398 42.5338 21.4115 42.6635 21.5393C42.7932 21.6671 42.8674 21.8408 42.87 22.0228L42.9206 25.4659C42.923 25.6496 42.8524 25.8268 42.7244 25.9586C42.5964 26.0904 42.4214 26.1661 42.2377 26.1691L36.6574 26.2501H36.6473ZM37.3014 22.7969L37.331 24.853L41.5229 24.7923L41.4932 22.7362L37.3014 22.7969Z" fill="#3B2222"/>
<path d="M35.6886 33.8638C35.5067 33.8639 35.332 33.7923 35.2023 33.6647C35.0726 33.537 34.9984 33.3635 34.9955 33.1816L34.9464 29.7385C34.945 29.6474 34.9616 29.557 34.9953 29.4724C35.0289 29.3878 35.0788 29.3107 35.1422 29.2454C35.2056 29.1801 35.2813 29.1279 35.3649 29.0919C35.4485 29.0558 35.5383 29.0366 35.6294 29.0352C35.7204 29.0339 35.8108 29.0505 35.8954 29.0841C35.98 29.1177 36.0571 29.1677 36.1224 29.2311C36.1877 29.2945 36.2399 29.3702 36.276 29.4537C36.312 29.5373 36.3313 29.6272 36.3326 29.7182L36.3825 33.1613C36.3838 33.2523 36.3672 33.3427 36.3336 33.4272C36.3 33.5118 36.25 33.5889 36.1866 33.6542C36.1231 33.7194 36.0475 33.7715 35.9639 33.8075C35.8803 33.8435 35.7905 33.8626 35.6995 33.8638H35.6886Z" fill="#3B2222"/>
<path d="M43.4051 33.7515C43.2229 33.7515 43.048 33.6798 42.9183 33.5518C42.7886 33.4238 42.7145 33.25 42.712 33.0678L42.6621 29.6254C42.6647 29.4448 42.7375 29.2724 42.8652 29.1447C42.9928 29.017 43.1652 28.9441 43.3458 28.9415C43.5263 28.9388 43.7008 29.0067 43.8321 29.1306C43.9634 29.2545 44.0412 29.4248 44.0491 29.6051L44.0975 33.0475C44.0989 33.1386 44.0824 33.2291 44.0488 33.3138C44.0153 33.3985 43.9654 33.4757 43.9019 33.5411C43.8385 33.6065 43.7628 33.6587 43.6792 33.6948C43.5955 33.7309 43.5056 33.7502 43.4145 33.7515H43.4051Z" fill="#3B2222"/>
<path d="M30.9984 54.2496C30.9037 54.2498 30.81 54.2307 30.723 54.1935C30.636 54.1562 30.5575 54.1015 30.4924 54.0327C28.7867 52.2185 27.6452 49.9475 27.2071 47.4962C26.769 45.0448 27.0532 42.519 28.025 40.2263C28.9968 37.9336 30.6143 35.9729 32.6805 34.5831C34.7468 33.1932 37.1726 32.4342 39.6625 32.3984H39.8489C41.6475 32.3986 43.426 32.7764 45.0694 33.5073C46.7128 34.2382 48.1844 35.306 49.389 36.6416C49.45 36.7092 49.497 36.7882 49.5275 36.874C49.558 36.9598 49.5712 37.0508 49.5665 37.1417C49.5618 37.2327 49.5393 37.3218 49.5001 37.404C49.461 37.4862 49.406 37.5599 49.3384 37.6209C49.2708 37.6819 49.1918 37.729 49.106 37.7594C49.0202 37.7899 48.9292 37.8031 48.8383 37.7984C48.7473 37.7937 48.6582 37.7712 48.576 37.732C48.4938 37.6929 48.4201 37.6379 48.3591 37.5703C47.3427 36.456 46.1162 35.5533 44.75 34.9143C43.3837 34.2752 41.9048 33.9123 40.3979 33.8463C38.8911 33.7804 37.386 34.0127 35.9692 34.53C34.5524 35.0473 33.2517 35.8393 32.1419 36.8607C31.032 37.882 30.1348 39.1125 29.5017 40.4815C28.8687 41.8505 28.5123 43.331 28.4529 44.8382C28.3936 46.3453 28.6326 47.8493 29.1561 49.2638C29.6796 50.6783 30.4774 51.9755 31.5035 53.0809C31.5962 53.1796 31.6579 53.3032 31.6812 53.4366C31.7044 53.5699 31.6882 53.7071 31.6344 53.8314C31.5806 53.9556 31.4917 54.0614 31.3785 54.1357C31.2654 54.21 31.133 54.2496 30.9976 54.2496H30.9984Z" fill="#3B2222"/>
<path d="M14.7841 55.2162C14.604 55.211 14.433 55.1359 14.3073 55.0069C14.1815 54.8778 14.1109 54.705 14.1104 54.5248C14.1098 54.3447 14.1793 54.1714 14.3042 54.0415C14.4292 53.9117 14.5997 53.8356 14.7797 53.8293C24.0987 53.7657 42.0449 53.6406 42.0449 53.6406L42.055 55.0283L14.7891 55.2162H14.7841Z" fill="#3B2222"/>
<path d="M17.7449 54.5409C17.6534 54.5412 17.5627 54.5233 17.4782 54.4881C17.3937 54.453 17.317 54.4014 17.2527 54.3364C15.54 52.6087 14.4928 50.3315 14.2957 47.9068C14.0986 45.4821 14.7643 43.0657 16.1755 41.084C17.5866 39.1024 19.6524 37.683 22.0082 37.0762C24.364 36.4694 26.8585 36.7143 29.0513 37.7677C29.1333 37.8073 29.2067 37.8626 29.2674 37.9305C29.328 37.9984 29.3747 38.0775 29.4047 38.1635C29.4347 38.2494 29.4475 38.3404 29.4424 38.4313C29.4373 38.5222 29.4143 38.6112 29.3747 38.6932C29.3352 38.7752 29.2799 38.8486 29.212 38.9092C29.1441 38.9699 29.0649 39.0165 28.979 39.0466C28.8931 39.0766 28.8021 39.0894 28.7112 39.0843C28.6203 39.0791 28.5313 39.0561 28.4493 39.0166C26.551 38.1045 24.3915 37.8923 22.3519 38.4176C20.3124 38.9429 18.5241 40.1718 17.3026 41.8875C16.081 43.6031 15.5049 45.6952 15.6759 47.7943C15.8469 49.8934 16.754 51.8646 18.2371 53.36C18.3337 53.457 18.3994 53.5805 18.4258 53.7149C18.4522 53.8493 18.4382 53.9885 18.3856 54.1149C18.3329 54.2413 18.2439 54.3493 18.1298 54.4251C18.0158 54.5009 17.8818 54.5412 17.7449 54.5409Z" fill="#3B2222"/>
<path d="M21.9749 37.9794C21.7928 37.9792 21.6181 37.9074 21.4886 37.7795C21.359 37.6515 21.285 37.4778 21.2825 37.2957L21.2442 34.6838C21.2429 34.5927 21.2595 34.5024 21.2931 34.4178C21.3267 34.3332 21.3766 34.256 21.4401 34.1907C21.5035 34.1254 21.5791 34.0732 21.6627 34.0372C21.7463 34.0011 21.8362 33.9819 21.9272 33.9805C22.0182 33.9792 22.1086 33.9958 22.1932 34.0294C22.2778 34.063 22.355 34.113 22.4203 34.1764C22.4856 34.2398 22.5377 34.3155 22.5738 34.3991C22.6099 34.4826 22.6291 34.5725 22.6304 34.6635L22.6687 37.2755C22.6701 37.3666 22.6534 37.4571 22.6198 37.5418C22.5862 37.6265 22.5362 37.7037 22.4727 37.7691C22.4092 37.8344 22.3335 37.8866 22.2498 37.9227C22.1661 37.9588 22.0761 37.9781 21.985 37.9794H21.9749Z" fill="#3B2222"/>
<path d="M27.5536 37.9015C27.3715 37.9013 27.1968 37.8295 27.0673 37.7015C26.9377 37.5736 26.8637 37.3998 26.8612 37.2177L26.8229 34.6065C26.8189 34.5138 26.8336 34.4212 26.866 34.3343C26.8984 34.2473 26.9479 34.1677 27.0117 34.1003C27.0754 34.0328 27.152 33.9788 27.237 33.9414C27.3219 33.9041 27.4135 33.8842 27.5063 33.8829C27.5991 33.8816 27.6912 33.8989 27.7772 33.9338C27.8632 33.9688 27.9413 34.0206 28.0069 34.0862C28.0725 34.1519 28.1243 34.2301 28.1591 34.3161C28.194 34.4021 28.2112 34.4942 28.2098 34.587L28.2474 37.1975C28.2489 37.2884 28.2325 37.3788 28.1992 37.4634C28.1658 37.548 28.116 37.6251 28.0528 37.6905C27.9896 37.7559 27.9141 37.8082 27.8307 37.8443C27.7473 37.8805 27.6575 37.8999 27.5666 37.9015H27.5536Z" fill="#3B2222"/>
<path d="M20.6952 34.6763C20.1775 34.6741 19.6813 34.4694 19.3126 34.1059C18.944 33.7424 18.7323 33.249 18.7229 32.7314V32.6787C18.715 32.1552 18.9152 31.6501 19.2797 31.2742C19.6441 30.8984 20.1429 30.6827 20.6663 30.6745L28.4632 30.5625C28.981 30.5645 29.4774 30.7692 29.8462 31.1327C30.215 31.4962 30.4268 31.9896 30.4362 32.5074V32.5594C30.4402 32.8186 30.3931 33.076 30.2975 33.3169C30.202 33.5579 30.0598 33.7776 29.8793 33.9635C29.6987 34.1495 29.4832 34.298 29.2452 34.4006C29.0072 34.5032 28.7512 34.5578 28.4921 34.5614L20.6952 34.6763ZM28.4632 31.9523L20.6865 32.0643C20.6095 32.0652 20.5333 32.0813 20.4624 32.1117C20.3916 32.1421 20.3274 32.1862 20.2737 32.2415C20.22 32.2967 20.1777 32.3621 20.1493 32.4338C20.1209 32.5055 20.107 32.5821 20.1084 32.6592V32.7126C20.1112 32.8665 20.1741 33.0131 20.2836 33.1211C20.3932 33.2292 20.5406 33.2901 20.6945 33.2908H20.7039L28.4718 33.1788C28.6273 33.1763 28.7754 33.1123 28.8838 33.0008C28.9922 32.8894 29.052 32.7395 29.05 32.584V32.532C29.0481 32.3776 28.9854 32.2301 28.8756 32.1216C28.7657 32.0131 28.6176 31.9523 28.4632 31.9523Z" fill="#3B2222"/>
<path d="M25.6544 46.5272C24.649 46.5272 23.6575 46.2164 22.7396 45.9302C22.0523 45.7134 21.4033 45.5118 20.8056 45.4482C19.0797 45.2639 17.1492 45.1988 15.9278 46.108C15.8548 46.1624 15.7718 46.2019 15.6835 46.2242C15.5952 46.2465 15.5034 46.2512 15.4133 46.238C15.3232 46.2248 15.2366 46.194 15.1584 46.1473C15.0802 46.1007 15.0119 46.039 14.9576 45.966C14.9032 45.893 14.8637 45.8099 14.8414 45.7217C14.8191 45.6334 14.8144 45.5416 14.8276 45.4515C14.8408 45.3614 14.8716 45.2747 14.9183 45.1966C14.9649 45.1184 15.0265 45.0501 15.0996 44.9957C16.704 43.8011 18.959 43.8567 20.9537 44.0692C21.6866 44.1472 22.4331 44.3807 23.1552 44.6062C24.5117 45.0304 25.7931 45.4315 26.9069 44.8483C27.0698 44.7629 27.26 44.7457 27.4356 44.8006C27.6111 44.8554 27.7578 44.9777 27.8432 45.1406C27.9286 45.3036 27.9457 45.4938 27.8909 45.6693C27.8361 45.8449 27.7137 45.9916 27.5508 46.077C26.9655 46.3812 26.314 46.5359 25.6544 46.5272Z" fill="#3B2222"/>
<path d="M48.2364 46.9543C48.1133 46.9545 47.9923 46.9218 47.886 46.8597C47.7797 46.7976 47.6918 46.7083 47.6315 46.6009C44.8041 41.5852 40.3196 44.0338 40.1295 44.1436C40.0423 44.1928 39.9454 44.2226 39.8456 44.2308C39.7458 44.239 39.6454 44.2256 39.5513 44.1913C38.8929 43.9492 35.504 42.7386 33.3712 42.6013C31.2384 42.464 29.4641 42.576 28.6236 42.9027C28.4522 42.9698 28.2612 42.9661 28.0926 42.8923C27.924 42.8186 27.7916 42.6809 27.7245 42.5095C27.6574 42.3382 27.6612 42.1472 27.7349 41.9786C27.8086 41.81 27.9463 41.6775 28.1177 41.6105C29.5342 41.059 32.071 41.1269 33.458 41.2173C35.5358 41.3517 38.5171 42.3498 39.7414 42.7871C40.4721 42.4445 42.4336 41.695 44.5837 42.2891C46.3183 42.7675 47.7471 43.9911 48.837 45.9237C48.8954 46.0289 48.9254 46.1474 48.9242 46.2677C48.923 46.388 48.8904 46.5059 48.8299 46.6099C48.7693 46.7138 48.6828 46.8002 48.5787 46.8606C48.4747 46.921 48.3567 46.9533 48.2364 46.9543Z" fill="#3B2222"/>
<path d="M45.8064 48.7531C43.378 48.7531 41.8032 47.8525 40.8643 47.0142C39.6227 45.9055 39.1955 44.6616 39.1782 44.6096C39.1259 44.4368 39.143 44.2505 39.2259 44.0901C39.3088 43.9297 39.4509 43.808 39.6221 43.7507C39.7933 43.6934 39.9801 43.7051 40.1428 43.7833C40.3055 43.8615 40.4313 44 40.4936 44.1695C40.547 44.3241 41.8978 48.0368 47.2027 47.2599C47.2929 47.2467 47.3848 47.2514 47.4731 47.2737C47.5615 47.296 47.6446 47.3355 47.7177 47.39C47.7907 47.4444 47.8524 47.5127 47.8991 47.5909C47.9458 47.6692 47.9766 47.7559 47.9898 47.846C48.003 47.9362 47.9983 48.0281 47.976 48.1164C47.9537 48.2048 47.9142 48.2879 47.8597 48.361C47.8053 48.4341 47.737 48.4957 47.6588 48.5424C47.5805 48.5891 47.4938 48.6199 47.4036 48.6331C46.8748 48.7113 46.341 48.7514 45.8064 48.7531Z" fill="#3B2222"/>
<path d="M42.5352 55.7317C42.3928 55.731 42.2541 55.6866 42.1377 55.6045C42.0214 55.5225 41.9331 55.4067 41.8847 55.2728C41.8464 55.1651 40.9394 52.5878 42.1319 50.3004C42.8546 48.9091 44.1779 47.9478 46.057 47.4419C46.2345 47.394 46.4238 47.4186 46.5832 47.5102C46.7426 47.6018 46.8591 47.753 46.907 47.9305C46.9549 48.108 46.9303 48.2973 46.8387 48.4567C46.7471 48.6161 46.5959 48.7325 46.4184 48.7804C44.9296 49.1823 43.9011 49.9086 43.3627 50.9414C42.7252 52.1628 42.8886 53.5433 43.049 54.2797C44.334 54.0629 47.4577 53.1443 47.8791 49.3651C47.8892 49.2746 47.917 49.187 47.961 49.1073C48.0049 49.0275 48.0642 48.9572 48.1353 48.9004C48.2065 48.8435 48.2881 48.8013 48.3756 48.776C48.4631 48.7507 48.5547 48.7429 48.6452 48.753C48.7357 48.7631 48.8233 48.7909 48.903 48.8349C48.9828 48.8789 49.0531 48.9381 49.1099 49.0092C49.1667 49.0804 49.209 49.162 49.2343 49.2495C49.2596 49.337 49.2674 49.4286 49.2573 49.5191C48.9169 52.5835 47.105 54.1142 45.6436 54.8586C44.6844 55.3441 43.64 55.6387 42.5684 55.7259C42.5575 55.7286 42.5464 55.7306 42.5352 55.7317Z" fill="#3B2222"/>
<path d="M46.7782 40.8767C46.6229 40.8766 46.4722 40.8243 46.3502 40.7282C46.2282 40.6321 46.142 40.4979 46.1054 40.347C45.593 38.2373 43.0295 37.2884 43.0042 37.279C42.8322 37.216 42.6921 37.0877 42.6144 36.9219C42.5367 36.7561 42.5277 36.5664 42.5893 36.394C42.6509 36.2216 42.7781 36.0805 42.9433 36.0015C43.1085 35.9225 43.2982 35.912 43.471 35.9723C43.6047 36.0214 46.7623 37.1756 47.4518 40.0196C47.4738 40.1078 47.4781 40.1996 47.4645 40.2895C47.4509 40.3794 47.4197 40.4658 47.3728 40.5437C47.3258 40.6216 47.2639 40.6894 47.1906 40.7433C47.1174 40.7972 47.0342 40.8362 46.9459 40.8579C46.891 40.8708 46.8347 40.8771 46.7782 40.8767Z" fill="#3B2222"/>
<path d="M54.4568 50.1226C52.1744 50.1226 50.2743 48.9525 50.1782 48.8939C50.0279 48.7941 49.9224 48.6397 49.884 48.4635C49.8457 48.2872 49.8775 48.1029 49.9727 47.9497C50.0679 47.7964 50.2191 47.6863 50.3941 47.6427C50.5692 47.599 50.7543 47.6253 50.9103 47.7159C50.9335 47.7303 53.3228 49.1895 55.6356 48.5904C56.8743 48.2695 57.8948 47.4 58.6711 46.0073C58.7627 45.8507 58.9121 45.7363 59.0871 45.6885C59.2621 45.6408 59.4489 45.6635 59.6074 45.7517C59.7659 45.84 59.8835 45.9869 59.935 46.1608C59.9866 46.3348 59.9679 46.522 59.8831 46.6823C58.9125 48.4234 57.5978 49.5177 55.9731 49.9347C55.4775 50.0604 54.9681 50.1235 54.4568 50.1226Z" fill="#3B2222"/>
<path d="M59.2791 47.0395C59.1212 47.0391 58.9681 46.9845 58.8455 46.8848C56.9744 45.3721 55.2586 44.7274 53.7481 44.9674C52.0417 45.2391 51.1463 46.595 51.1369 46.608C51.0382 46.7632 50.8818 46.8727 50.7023 46.9127C50.5228 46.9526 50.3348 46.9195 50.1796 46.8208C50.0244 46.7221 49.9148 46.5658 49.8749 46.3863C49.835 46.2068 49.868 46.0187 49.9668 45.8636C50.0152 45.787 51.181 43.9844 53.5031 43.6021C55.4255 43.2863 57.5171 44.0271 59.7186 45.8065C59.8298 45.8966 59.9105 46.0189 59.9495 46.1566C59.9885 46.2944 59.9839 46.4408 59.9364 46.5758C59.8889 46.7109 59.8008 46.8279 59.6842 46.9109C59.5675 46.9939 59.4281 47.0388 59.2849 47.0395H59.2791Z" fill="#3B2222"/>
<path d="M48.257 46.8986C48.1623 46.899 48.0686 46.8799 47.9816 46.8426C47.8945 46.8053 47.8161 46.7506 47.7511 46.6818C47.6788 46.6095 45.9832 44.7904 46.0844 42.0953C46.1567 40.0861 47.1996 38.1593 49.1763 36.3705C49.3127 36.2472 49.4925 36.1831 49.6761 36.1923C49.8598 36.2015 50.0323 36.2833 50.1556 36.4197C50.279 36.5561 50.3431 36.7358 50.3339 36.9195C50.3247 37.1032 50.2429 37.2756 50.1065 37.399C48.4239 38.9218 47.5371 40.5132 47.4706 42.1286C47.3832 44.2346 48.7441 45.7126 48.7578 45.7278C48.8505 45.8265 48.9122 45.9501 48.9355 46.0835C48.9587 46.2168 48.9425 46.354 48.8887 46.4783C48.8349 46.6025 48.746 46.7083 48.6328 46.7826C48.5197 46.8569 48.3873 46.8964 48.2519 46.8964L48.257 46.8986Z" fill="#3B2222"/>
<path d="M54.33 56.9097C54.3022 56.9097 54.2745 56.9083 54.2469 56.9054C51.7715 56.6112 49.9726 55.5748 48.8986 53.8251C47.9865 52.3348 47.8333 50.6877 47.8651 49.5682C47.8677 49.4771 47.8882 49.3875 47.9254 49.3044C47.9626 49.2213 48.0158 49.1463 48.0819 49.0838C48.1481 49.0212 48.2259 48.9723 48.311 48.9399C48.3961 48.9074 48.4867 48.892 48.5777 48.8946C48.6688 48.8971 48.7584 48.9176 48.8415 48.9548C48.9246 48.992 48.9996 49.0452 49.0621 49.1114C49.1247 49.1775 49.1736 49.2554 49.206 49.3405C49.2385 49.4255 49.2539 49.5162 49.2513 49.6072C49.1971 51.4957 49.7377 54.6822 53.8176 55.4389C54.27 53.4803 53.8804 51.8253 52.654 50.5063C52.0231 49.8362 51.2562 49.3089 50.4048 48.9596C50.2316 48.8978 50.0901 48.7697 50.0113 48.6035C49.9326 48.4374 49.9231 48.2467 49.9849 48.0735C50.0467 47.9004 50.1748 47.7588 50.341 47.6801C50.5071 47.6013 50.6978 47.5918 50.871 47.6536C51.9315 48.0784 52.8866 48.7296 53.6694 49.5617C54.8424 50.8214 56.0226 53.0308 54.9884 56.4183C54.9457 56.5598 54.8587 56.684 54.7402 56.7725C54.6216 56.8609 54.4779 56.909 54.33 56.9097Z" fill="#3B2222"/>
<path d="M50.58 46.7498C50.4524 46.75 50.3272 46.715 50.2183 46.6486C50.1094 46.5822 50.0209 46.487 49.9627 46.3735C49.9045 46.26 49.8787 46.1327 49.8883 46.0055C49.8978 45.8783 49.9424 45.7562 50.0169 45.6527C50.147 45.4684 53.1897 41.0886 49.4525 37.3738C49.3286 37.2428 49.2605 37.0687 49.2627 36.8884C49.265 36.708 49.3373 36.5357 49.4645 36.4078C49.5916 36.2799 49.7635 36.2065 49.9438 36.2032C50.1241 36.1999 50.2986 36.267 50.4303 36.3901C52.8291 38.7751 52.8912 41.4001 52.5212 43.1838C52.2749 44.3544 51.8071 45.4672 51.1429 46.4621C51.0788 46.5515 50.9943 46.6243 50.8964 46.6743C50.7984 46.7243 50.6899 46.7502 50.58 46.7498Z" fill="#3B2222"/>
<path d="M12.0772 43.3151C12.0762 43.2245 12.0932 43.1347 12.1271 43.0507C12.161 42.9668 12.2111 42.8904 12.2747 42.8259C12.3382 42.7614 12.4139 42.7101 12.4974 42.675C12.5808 42.6399 12.6704 42.6216 12.7609 42.6212C13.1447 42.6169 13.4591 42.8525 13.4627 43.3151C13.459 43.4963 13.3859 43.6692 13.2584 43.7981C13.1309 43.927 12.9587 44.0019 12.7775 44.0074H12.7674C12.5847 44.005 12.4103 43.9312 12.2813 43.8018C12.1523 43.6724 12.0791 43.4977 12.0772 43.3151ZM13.089 41.5942C13.0077 41.5531 12.9353 41.4963 12.876 41.4272C12.8167 41.358 12.7715 41.2779 12.7432 41.1913C12.7149 41.1047 12.7039 41.0134 12.7109 40.9225C12.7179 40.8317 12.7428 40.7431 12.784 40.6619C12.8674 40.4984 13.0121 40.3745 13.1865 40.3173C13.361 40.2602 13.5509 40.2744 13.7149 40.3569C13.7962 40.3982 13.8685 40.455 13.9278 40.5243C13.987 40.5935 14.0321 40.6737 14.0603 40.7604C14.0886 40.847 14.0995 40.9384 14.0924 41.0293C14.0854 41.1201 14.0605 41.2087 14.0192 41.2899C13.9616 41.4044 13.8733 41.5005 13.7642 41.5676C13.655 41.6346 13.5293 41.6699 13.4012 41.6694C13.2925 41.6691 13.1853 41.6434 13.0883 41.5942H13.089ZM14.3581 39.494C14.2714 39.3316 14.2527 39.1414 14.3061 38.9652C14.3595 38.7891 14.4806 38.6413 14.6429 38.5544C14.7235 38.5113 14.8118 38.4846 14.9028 38.4759C14.9937 38.4671 15.0855 38.4764 15.1729 38.5033C15.2602 38.5302 15.3414 38.574 15.4117 38.6324C15.482 38.6908 15.54 38.7626 15.5825 38.8435C15.6692 39.0058 15.6881 39.1959 15.6348 39.372C15.5816 39.5482 15.4606 39.696 15.2984 39.783C15.1981 39.8365 15.0862 39.8648 14.9725 39.8654C14.8458 39.8656 14.7215 39.8311 14.613 39.7656C14.5046 39.7001 14.4162 39.6062 14.3574 39.494H14.3581Z" fill="#3B2222"/>
<path d="M53.8537 40.5409C53.8519 40.3567 53.923 40.1793 54.0515 40.0473C54.18 39.9154 54.3554 39.8395 54.5395 39.8363C54.7241 39.8357 54.9014 39.908 55.0328 40.0376C55.1643 40.1671 55.2392 40.3434 55.2413 40.5279C55.2428 40.6193 55.2263 40.7102 55.1927 40.7952C55.1591 40.8802 55.109 40.9578 55.0454 41.0235C54.9817 41.0891 54.9058 41.1416 54.8218 41.1778C54.7379 41.2141 54.6476 41.2334 54.5562 41.2347H54.5468C54.3634 41.233 54.1879 41.1594 54.0583 41.0296C53.9287 40.8998 53.8552 40.7243 53.8537 40.5409ZM53.3015 38.5122C53.2605 38.4309 53.236 38.3423 53.2293 38.2515C53.2227 38.1607 53.234 38.0695 53.2627 37.983C53.2913 37.8966 53.3368 37.8167 53.3964 37.7479C53.456 37.6791 53.5287 37.6227 53.6101 37.582C53.6914 37.5409 53.7799 37.5162 53.8708 37.5094C53.9616 37.5025 54.0529 37.5137 54.1394 37.5422C54.2258 37.5708 54.3058 37.6161 54.3748 37.6757C54.4437 37.7352 54.5002 37.8078 54.541 37.8892C54.6233 38.0535 54.6373 38.2438 54.5797 38.4184C54.5221 38.593 54.3978 38.7377 54.2338 38.8208C54.1369 38.8684 54.0303 38.8932 53.9223 38.8931C53.7937 38.8935 53.6675 38.8582 53.5578 38.7909C53.4481 38.7236 53.3594 38.6271 53.3015 38.5122ZM52.0577 36.795C52.0577 36.542 51.7462 36.104 51.9999 35.8164C52.2543 35.5273 52.6352 35.5035 52.9813 35.7571C53.2126 36.0115 53.2661 36.4495 53.0139 36.7372C52.9512 36.8101 52.8736 36.8687 52.7863 36.909C52.699 36.9493 52.6041 36.9703 52.508 36.9706C52.3406 36.9737 52.1788 36.9106 52.0577 36.795Z" fill="#3B2222"/>
<path d="M7.58226 13.2904C7.22654 12.8975 7.24407 12.5444 7.58506 12.2357C7.76298 12.0746 7.97304 11.9788 8.17961 11.9537L7.72511 10.8408C7.3759 10.8872 6.9745 11.1292 6.64832 11.4246C5.65499 12.3239 5.63665 13.4062 6.44878 14.3032L6.60986 14.4811L5.99458 15.0382L6.79999 15.9277L7.41527 15.3707L10.1402 18.3803L11.2967 17.3333L8.57169 14.3236L9.56503 13.4243L8.75962 12.5347L7.73663 13.4609L7.58226 13.2904Z" fill="#3B2222"/>
<path d="M11.5462 11.0323L11.1362 10.4527L9.91977 11.3131L13.0265 15.7054L14.3001 14.8046L12.8334 12.7309C12.2386 11.89 12.4325 11.1771 13.1347 10.6805C13.2326 10.6112 13.32 10.5616 13.4319 10.4947L12.6004 9.31905C11.9228 9.79835 11.5562 10.3884 11.5462 11.0323Z" fill="#3B2222"/>
<path d="M16.3695 7.21588C15.5968 7.59355 14.9162 8.18225 14.5706 8.81869L15.5524 9.55203C15.7666 9.10225 16.2133 8.67245 16.7254 8.42213C17.48 8.05324 18.0107 8.22796 18.3049 8.82989L17.1909 9.37445C15.7175 10.0947 15.4054 10.9818 15.8226 11.8353C16.231 12.6709 17.2122 12.9704 18.3442 12.417C19.0539 12.0701 19.4429 11.5906 19.4882 11.023L19.7825 11.625L21.0941 10.9838L19.7459 8.22567C19.0301 6.76126 17.8429 6.49566 16.3695 7.21588ZM18.2335 11.3024C17.7393 11.544 17.3287 11.4553 17.1574 11.1049C16.9993 10.7815 17.0874 10.4379 17.7432 10.1173L18.7045 9.64745L18.9461 10.1416C18.9995 10.6608 18.7006 11.0741 18.2335 11.3024Z" fill="#3B2222"/>
<path d="M25.5987 3.91924L25.7673 4.58833C25.2426 4.18425 24.5804 4.09328 23.8531 4.2765C22.4082 4.6405 21.4962 5.93244 21.8797 7.45487C22.2633 8.9773 23.6785 9.68295 25.1234 9.31895C25.8022 9.14795 26.3206 8.79048 26.6082 8.25395L26.6644 8.47698C26.9014 9.4176 26.5581 10.0197 25.4914 10.2884C24.8223 10.457 24.0364 10.4075 23.4999 10.1611L23.1723 11.3986C23.9029 11.7198 24.924 11.7204 25.9131 11.4712C27.7943 10.9973 28.6169 9.84135 28.1283 7.90195L27.0339 3.55768L25.5987 3.91924ZM25.1113 8.002C24.3162 8.20232 23.6049 7.83495 23.4119 7.06889C23.2189 6.30283 23.6712 5.64231 24.4664 5.44199C25.2615 5.24167 25.9631 5.61148 26.1561 6.37754C26.3491 7.14361 25.9065 7.80168 25.1113 8.002Z" fill="#3B2222"/>
<path d="M31.695 3.69486L31.6446 2.98665L30.1584 3.0924L30.5402 8.45883L32.0963 8.34811L31.916 5.81452C31.8429 4.78712 32.3781 4.27785 33.236 4.21681C33.3557 4.20829 33.4561 4.21117 33.5865 4.21191L33.4843 2.77555C32.6564 2.83446 32.0372 3.1492 31.695 3.69486Z" fill="#3B2222"/>
<path d="M37.7861 2.8792C36.9294 2.8032 36.0425 2.95541 35.4177 3.32163L35.8792 4.45685C36.2951 4.18253 36.8995 4.04541 37.4673 4.09579C38.304 4.17002 38.668 4.59384 38.6088 5.26122L37.3736 5.15164C35.7401 5.00671 35.0143 5.60492 34.9304 6.5512C34.8482 7.47756 35.5334 8.2411 36.7885 8.35245C37.5754 8.42226 38.1562 8.21277 38.4883 7.75031L38.4291 8.41769L39.8834 8.54672L40.1547 5.48873C40.2988 3.86511 39.4197 3.02413 37.7861 2.8792ZM37.2697 7.34102C36.7219 7.29242 36.4162 7.00427 36.4506 6.6158C36.4824 6.25721 36.7354 6.00859 37.4626 6.0731L38.5284 6.16766L38.4798 6.71551C38.2572 7.18768 37.7877 7.38698 37.2697 7.34102Z" fill="#3B2222"/>
<path d="M46.6219 4.4686C45.9231 4.2575 45.2477 4.31463 44.7126 4.63353L44.8948 4.03044L43.4685 3.59957L41.9127 8.74971L43.406 9.20083L44.1753 6.65447C44.4615 5.70677 45.1115 5.42258 45.8295 5.63946C46.49 5.83899 46.7572 6.33758 46.5056 7.17041L45.6844 9.88907L47.1777 10.3402L48.0684 7.39177C48.5426 5.82184 47.8376 4.83585 46.6219 4.4686Z" fill="#3B2222"/>
<path d="M51.4657 12.4585C52.4577 12.9996 53.4785 12.9868 54.2327 12.4186L53.4865 11.2598C52.9829 11.5774 52.5 11.5646 52.0699 11.33C51.3763 10.9517 51.0954 10.172 51.5455 9.34676C51.9956 8.52154 52.8033 8.33559 53.4968 8.71388C53.927 8.94852 54.1944 9.35634 54.2047 9.94293L55.5783 9.95171C55.6573 8.99241 55.1106 8.13607 54.1186 7.59496C52.5822 6.75697 50.9342 7.16799 50.1584 8.59018C49.3827 10.0124 49.9294 11.6205 51.4657 12.4585Z" fill="#3B2222"/>
<path d="M60.6702 15.6107C61.7674 14.2731 61.4963 12.6798 60.2747 11.6778C59.0067 10.6377 57.32 10.7546 56.299 11.9994C55.2843 13.2365 55.4778 14.9084 56.9159 16.088C57.6659 16.7032 58.436 16.9469 59.1841 16.8233L59.1132 15.601C58.6051 15.637 58.1803 15.5084 57.7396 15.1469C57.1056 14.6269 56.9249 13.9484 57.2338 13.3353L60.3806 15.9164C60.4708 15.8222 60.5941 15.7035 60.6702 15.6107ZM59.5341 12.5965C60.0753 13.0404 60.1906 13.7041 59.8444 14.2996L57.7955 12.619C58.3181 12.1553 58.9851 12.1462 59.5341 12.5965Z" fill="#3B2222"/>
<path d="M26.8002 65.2297C26.9384 64.718 27.2449 64.5418 27.689 64.6617C27.9207 64.7243 28.1149 64.8492 28.2477 65.0094L28.9381 64.0253C28.7103 63.7567 28.2896 63.5499 27.8648 63.4352C26.5712 63.0859 25.6508 63.6557 25.3354 64.8238L25.2728 65.0555L24.4715 64.8392L24.1587 65.9977L24.96 66.214L23.9017 70.1337L25.4078 70.5403L26.4661 66.6207L27.7598 66.97L28.0726 65.8115L26.7403 65.4517L26.8002 65.2297Z" fill="#3B2222"/>
<path d="M30.3799 66.7363L30.453 66.03L28.9709 65.8766L28.417 71.228L29.9687 71.3886L30.2302 68.8621C30.3363 67.8376 30.9516 67.4288 31.8071 67.5174C31.9264 67.5297 32.0249 67.55 32.1532 67.5733L32.3014 66.1409C31.4758 66.0555 30.8114 66.2581 30.3799 66.7363Z" fill="#3B2222"/>
<path d="M38.8566 68.5208C38.6782 66.8 37.3554 65.8715 35.7838 66.0344C34.1526 66.2036 33.0488 67.4843 33.2148 69.0857C33.3798 70.6771 34.7041 71.7161 36.5542 71.5243C37.519 71.4242 38.234 71.0485 38.6726 70.4299L37.7542 69.6203C37.4223 70.0066 37.032 70.218 36.465 70.2768C35.6494 70.3614 35.0401 70.0123 34.8218 69.3614L38.8701 68.9416C38.8667 68.8113 38.869 68.6401 38.8566 68.5208ZM35.9155 67.2071C36.6117 67.1349 37.1644 67.52 37.344 68.185L34.7081 68.4583C34.7463 67.7606 35.2093 67.2803 35.9155 67.2071Z" fill="#3B2222"/>
<path d="M45.9414 66.2495C45.3319 64.6304 43.8166 64.0683 42.338 64.6249C40.8031 65.2028 40.0607 66.7217 40.628 68.2285C41.1917 69.7259 42.7363 70.3946 44.4771 69.7392C45.3849 69.3975 45.9811 68.8524 46.2482 68.1428L45.1543 67.593C44.9313 68.0509 44.6075 68.3545 44.0741 68.5553C43.3067 68.8442 42.6288 68.6613 42.2523 68.0871L46.0613 66.6531C46.0249 66.528 45.9837 66.3618 45.9414 66.2495ZM42.7631 65.7257C43.4182 65.4791 44.0505 65.7112 44.393 66.3088L41.913 67.2425C41.7728 66.558 42.0986 65.9759 42.7631 65.7257Z" fill="#3B2222"/>
</g>
<defs>
<clipPath id="clip0_831_532">
<rect width="68.4147" height="77" fill="white"/>
</clipPath>
</defs>
</svg>
