<svg width="93" height="78" viewBox="0 0 93 78" fill="none" xmlns="http://www.w3.org/2000/svg">
<g clip-path="url(#clip0_831_409)">
<path d="M13.154 51.6934C12.9056 51.6949 12.6643 51.6102 12.4714 51.4537C12.2784 51.2972 12.1458 51.0786 12.096 50.8352C12.0462 50.5918 12.0824 50.3387 12.1984 50.119C12.3144 49.8993 12.5031 49.7267 12.7321 49.6305C12.9612 49.5344 13.2165 49.5207 13.4546 49.5918C13.6926 49.6628 13.8987 49.8143 14.0375 50.0203C14.1763 50.2263 14.2394 50.4741 14.216 50.7215C14.1925 50.9688 14.084 51.2003 13.9089 51.3766C13.7089 51.5776 13.4376 51.6915 13.154 51.6934Z" fill="#83AEB5"/>
<path d="M79.0716 49.3126C78.8037 49.2192 78.5838 49.0234 78.4603 48.768C78.3367 48.5127 78.3196 48.2187 78.4126 47.9507C78.506 47.6824 78.702 47.4622 78.9577 47.3385C79.2134 47.2148 79.5077 47.1977 79.776 47.291C80.0439 47.3843 80.2638 47.5801 80.3875 47.8355C80.5112 48.0908 80.5285 48.3847 80.4357 48.6528C80.3626 48.8629 80.2259 49.0451 80.0447 49.1741C79.8635 49.3031 79.6466 49.3725 79.4242 49.3728C79.3041 49.3726 79.1849 49.3523 79.0716 49.3126ZM10.8865 47.5714C10.802 47.3008 10.8285 47.0078 10.96 46.7567C11.0915 46.5057 11.3174 46.3171 11.5879 46.2326C11.8584 46.1483 12.1512 46.1747 12.4022 46.306C12.6532 46.4374 12.8419 46.6629 12.9267 46.9332C13.0108 47.2037 12.9843 47.4964 12.853 47.7474C12.7217 47.9983 12.4963 48.187 12.2261 48.272C12.1223 48.3054 12.0139 48.3225 11.9048 48.3226C11.6773 48.3218 11.4559 48.2485 11.2729 48.1134C11.0898 47.9784 10.9545 47.7885 10.8865 47.5714ZM80.22 45.7558C80.083 45.724 79.9535 45.6655 79.8391 45.5837C79.7246 45.5018 79.6274 45.3982 79.553 45.2788C79.4787 45.1594 79.4285 45.0265 79.4055 44.8876C79.3825 44.7488 79.3871 44.6069 79.419 44.4698C79.4837 44.1934 79.6555 43.954 79.8966 43.8041C80.1377 43.6542 80.4284 43.606 80.705 43.6703C80.9813 43.7348 81.2207 43.9065 81.3707 44.1475C81.5206 44.3884 81.5687 44.6791 81.5045 44.9555C81.4497 45.1907 81.317 45.4004 81.128 45.5507C80.939 45.701 80.7047 45.7829 80.4632 45.7833C80.3814 45.7834 80.2998 45.7742 80.22 45.7558ZM9.93302 43.8473C9.90538 43.7094 9.90518 43.5674 9.93242 43.4295C9.95967 43.2915 10.0138 43.1603 10.0918 43.0433C10.1698 42.9263 10.2701 42.8258 10.3869 42.7476C10.5037 42.6693 10.6349 42.6149 10.7727 42.5873C10.9105 42.5596 11.0524 42.5593 11.1903 42.5864C11.3282 42.6136 11.4594 42.6677 11.5764 42.7456C11.6933 42.8236 11.7938 42.9238 11.872 43.0406C11.9501 43.1574 12.0045 43.2885 12.032 43.4263C12.0876 43.7049 12.0303 43.9942 11.8727 44.2306C11.7151 44.467 11.4701 44.6312 11.1915 44.687C11.1219 44.7007 11.0512 44.7074 10.9803 44.7071C10.7333 44.7065 10.4942 44.6205 10.3034 44.4638C10.1126 44.3072 9.98172 44.0894 9.93302 43.8473ZM80.9831 42.0979C80.7021 42.0631 80.4463 41.9183 80.2719 41.6953C80.0975 41.4722 80.0186 41.189 80.0527 40.9079C80.07 40.7683 80.1146 40.6336 80.184 40.5113C80.2534 40.389 80.3462 40.2815 80.4571 40.1951C80.5681 40.1087 80.6949 40.045 80.8305 40.0077C80.966 39.9703 81.1076 39.96 81.2472 39.9774C81.5283 40.0122 81.7841 40.157 81.9586 40.38C82.1332 40.6031 82.2122 40.8862 82.1784 41.1675C82.1462 41.4263 82.0207 41.6645 81.8254 41.8374C81.6302 42.0103 81.3786 42.1061 81.1178 42.1068C81.0727 42.1068 81.0278 42.1038 80.9831 42.0979ZM9.37668 40.0421C9.35061 39.7595 9.4378 39.4781 9.6191 39.2597C9.8004 39.0413 10.061 38.9038 10.3436 38.8774C10.6262 38.8513 10.9077 38.9385 11.1261 39.1198C11.3445 39.3011 11.4819 39.5617 11.5083 39.8443C11.5344 40.1269 11.4472 40.4083 11.2659 40.6267C11.0846 40.8451 10.824 40.9826 10.5414 41.009C10.508 41.009 10.4752 41.0135 10.441 41.0135C10.1746 41.013 9.91788 40.9132 9.72107 40.7336C9.52426 40.5539 9.40147 40.3074 9.37668 40.0421ZM81.3602 38.385C81.2198 38.3823 81.0812 38.3519 80.9525 38.2957C80.8238 38.2394 80.7074 38.1583 80.61 38.057C80.5126 37.9558 80.4361 37.8363 80.3849 37.7055C80.3337 37.5747 80.3087 37.4351 80.3115 37.2946C80.3141 37.1541 80.3444 37.0154 80.4006 36.8866C80.4568 36.7578 80.5379 36.6413 80.6392 36.5439C80.7404 36.4464 80.8599 36.3699 80.9908 36.3186C81.1217 36.2673 81.2613 36.2424 81.4019 36.2451C81.5426 36.2478 81.6814 36.2783 81.8104 36.3346C81.9393 36.391 82.0559 36.4723 82.1534 36.5738C82.251 36.6752 82.3276 36.7949 82.3788 36.926C82.4301 37.0571 82.455 37.197 82.4521 37.3377C82.4464 37.6179 82.3312 37.8846 82.1311 38.0807C81.931 38.2767 81.662 38.3865 81.3818 38.3865H81.3602V38.385ZM10.2804 37.2842C9.99676 37.2809 9.72607 37.1651 9.52776 36.9623C9.32945 36.7595 9.21974 36.4864 9.22272 36.2027C9.22417 36.0622 9.25334 35.9233 9.30854 35.794C9.36374 35.6648 9.4439 35.5477 9.54442 35.4494C9.64495 35.3512 9.76386 35.2737 9.89436 35.2215C10.0249 35.1693 10.1644 35.1433 10.3049 35.1451C10.4455 35.1464 10.5844 35.1754 10.7138 35.2304C10.8431 35.2855 10.9603 35.3656 11.0587 35.4661C11.157 35.5665 11.2345 35.6854 11.2868 35.8159C11.3391 35.9464 11.3651 36.086 11.3633 36.2265C11.3602 36.5083 11.246 36.7774 11.0456 36.9754C10.8452 37.1734 10.5748 37.2844 10.293 37.2842H10.2819H10.2804ZM80.1955 33.6761C80.1835 33.536 80.1993 33.3949 80.242 33.2609C80.2846 33.1269 80.3532 33.0026 80.4439 32.8951C80.5346 32.7876 80.6456 32.6991 80.7705 32.6345C80.8955 32.5699 81.0319 32.5306 81.1721 32.5188C81.3121 32.5068 81.4532 32.5225 81.5872 32.565C81.7212 32.6076 81.8456 32.6761 81.953 32.7668C82.0605 32.8574 82.1491 32.9683 82.2137 33.0932C82.2783 33.2181 82.3176 33.3545 82.3294 33.4946C82.3531 33.7779 82.2634 34.0589 82.08 34.2761C81.8966 34.4932 81.6345 34.6287 81.3513 34.6527C81.3215 34.6527 81.2918 34.6564 81.262 34.6564C80.9936 34.6565 80.7349 34.5558 80.5371 34.3743C80.3393 34.1927 80.2169 33.9436 80.194 33.6761H80.1955ZM10.4046 33.5549C10.1227 33.5219 9.8654 33.3785 9.68905 33.1561C9.51269 32.9338 9.43166 32.6506 9.4637 32.3686C9.49616 32.0866 9.6393 31.829 9.86164 31.6526C10.084 31.4762 10.3673 31.3953 10.6493 31.4277C10.7891 31.4437 10.9243 31.487 11.0474 31.5553C11.1704 31.6236 11.2787 31.7154 11.3662 31.8256C11.4538 31.9358 11.5187 32.0621 11.5574 32.1974C11.5961 32.3327 11.6077 32.4742 11.5916 32.614C11.5611 32.8748 11.4359 33.1152 11.2399 33.2899C11.0438 33.4645 10.7906 33.5612 10.528 33.5616C10.4863 33.5616 10.4446 33.5593 10.4031 33.5549H10.4046ZM79.7031 30.0904C79.6494 29.8118 79.7086 29.5232 79.8676 29.2882C80.0266 29.0532 80.2724 28.8909 80.551 28.8371C80.83 28.7839 81.1187 28.8437 81.3537 29.0032C81.5887 29.1628 81.7507 29.409 81.8043 29.688C81.8307 29.8262 81.8297 29.9682 81.8012 30.1059C81.7727 30.2437 81.7174 30.3745 81.6384 30.4909C81.5594 30.6073 81.4582 30.7069 81.3407 30.7842C81.2232 30.8615 81.0915 30.9148 80.9534 30.9413C80.8864 30.9537 80.8184 30.96 80.7503 30.9599C80.5018 30.9593 80.2611 30.8722 80.0698 30.7135C79.8784 30.5549 79.7482 30.3345 79.7016 30.0904H79.7031ZM10.917 29.8561C10.7797 29.8257 10.6497 29.7684 10.5346 29.6876C10.4194 29.6068 10.3214 29.5041 10.246 29.3853C10.1707 29.2665 10.1196 29.1339 10.0956 28.9953C10.0716 28.8567 10.0753 28.7147 10.1063 28.5775C10.1682 28.3015 10.3369 28.0611 10.5756 27.9092C10.8142 27.7573 11.1034 27.7061 11.3797 27.7668C11.6567 27.8291 11.8976 27.9989 12.0495 28.2388C12.2014 28.4787 12.2518 28.7691 12.1896 29.0461C12.137 29.2832 12.0051 29.4953 11.8159 29.6475C11.6266 29.7997 11.3912 29.883 11.1484 29.8836C11.07 29.8834 10.9918 29.8742 10.9156 29.8561H10.917ZM78.8351 26.5775C78.7943 26.443 78.7804 26.3018 78.7942 26.1619C78.808 26.0221 78.8492 25.8863 78.9156 25.7624C78.9819 25.6384 79.072 25.5288 79.1807 25.4397C79.2894 25.3506 79.4146 25.2838 79.5491 25.2432C79.6835 25.2022 79.8247 25.1882 79.9645 25.2019C80.1043 25.2155 80.2401 25.2566 80.364 25.3228C80.488 25.389 80.5976 25.4789 80.6868 25.5875C80.7759 25.6961 80.8427 25.8213 80.8835 25.9557C80.9248 26.0904 80.9391 26.2318 80.9257 26.372C80.9123 26.5122 80.8714 26.6484 80.8053 26.7728C80.7391 26.8971 80.6491 27.0072 80.5404 27.0967C80.4317 27.1863 80.3064 27.2535 80.1717 27.2945C80.0701 27.3248 79.9646 27.3401 79.8585 27.3399C79.6284 27.34 79.4044 27.2659 79.2198 27.1285C79.0351 26.9912 78.8997 26.7979 78.8336 26.5775H78.8351ZM11.8148 26.2324C11.5461 26.141 11.3248 25.9467 11.1993 25.6922C11.0738 25.4377 11.0544 25.1438 11.1454 24.875C11.2367 24.6066 11.4307 24.3854 11.6849 24.2599C11.9391 24.1344 12.2327 24.1149 12.5013 24.2056C12.7697 24.2974 12.9908 24.4917 13.1162 24.7461C13.2417 25.0005 13.2613 25.2942 13.1707 25.563C13.099 25.7752 12.9625 25.9596 12.7805 26.0902C12.5985 26.2209 12.3802 26.2911 12.1562 26.2912C12.0394 26.2906 11.9236 26.2707 11.8133 26.2324H11.8148ZM77.6019 23.1762C77.547 23.0468 77.5182 22.9079 77.5171 22.7673C77.5159 22.6267 77.5425 22.4873 77.5953 22.357C77.648 22.2268 77.726 22.1082 77.8246 22.008C77.9233 21.9079 78.0407 21.8282 78.1702 21.7735C78.4315 21.6627 78.7262 21.6603 78.9894 21.7667C79.2525 21.8732 79.4627 22.0797 79.5737 22.341C79.6843 22.6024 79.6866 22.8972 79.5801 23.1603C79.4735 23.4235 79.2668 23.6336 79.0054 23.7445C78.8736 23.8012 78.7316 23.8303 78.5882 23.83C78.3775 23.8303 78.1714 23.7684 77.9957 23.6521C77.82 23.5358 77.6825 23.3703 77.6004 23.1762H77.6019ZM13.0904 22.724C12.8331 22.6044 12.6339 22.3877 12.5363 22.1214C12.4387 21.855 12.4507 21.5609 12.5697 21.3034C12.6885 21.0473 12.9036 20.8484 13.1683 20.7501C13.4329 20.6518 13.7257 20.6619 13.9829 20.7783C14.2409 20.8975 14.441 21.1142 14.5393 21.3808C14.6376 21.6475 14.6261 21.9422 14.5073 22.2004C14.4214 22.3857 14.2845 22.5426 14.1126 22.6528C13.9406 22.7629 13.7408 22.8217 13.5366 22.8222C13.3825 22.8223 13.2302 22.7888 13.0904 22.724ZM76.014 19.9252C75.9457 19.8022 75.9023 19.667 75.8863 19.5272C75.8702 19.3875 75.8819 19.246 75.9206 19.1107C75.9593 18.9755 76.0242 18.8492 76.1117 18.7391C76.1992 18.6289 76.3075 18.5371 76.4305 18.4688C76.5535 18.4006 76.6888 18.3573 76.8286 18.3414C76.9684 18.3255 77.11 18.3373 77.2452 18.3761C77.3805 18.4149 77.5067 18.48 77.6168 18.5677C77.7269 18.6553 77.8186 18.7638 77.8868 18.8869C78.0237 19.1353 78.0566 19.4279 77.9782 19.7006C77.8999 19.9733 77.7167 20.2038 77.4688 20.3417C77.3096 20.4302 77.1303 20.4763 76.9481 20.4756C76.7575 20.4755 76.5703 20.4244 76.4061 20.3276C76.2418 20.2308 76.1064 20.0919 76.014 19.9252ZM14.7267 19.3681C14.6058 19.2962 14.5003 19.2012 14.4162 19.0886C14.3321 18.9759 14.271 18.8478 14.2364 18.7115C14.2019 18.5752 14.1946 18.4334 14.2149 18.2942C14.2352 18.1551 14.2827 18.0213 14.3548 17.9006C14.5002 17.6566 14.7365 17.4804 15.0119 17.4106C15.2872 17.3409 15.579 17.3834 15.823 17.5287C15.9439 17.6006 16.0494 17.6955 16.1335 17.8082C16.2176 17.9209 16.2787 18.049 16.3132 18.1853C16.3478 18.3216 16.3551 18.4634 16.3348 18.6025C16.3145 18.7417 16.2669 18.8754 16.1949 18.9962C16.0995 19.1553 15.9644 19.2869 15.8029 19.3782C15.6413 19.4695 15.4589 19.5172 15.2733 19.5168C15.081 19.5179 14.892 19.4665 14.7267 19.3681ZM74.0965 16.8556C74.0156 16.7405 73.9582 16.6106 73.9276 16.4733C73.8969 16.336 73.8937 16.194 73.9181 16.0554C73.9425 15.9169 73.994 15.7845 74.0697 15.6659C74.1454 15.5473 74.2437 15.4448 74.359 15.3643C74.5912 15.2023 74.8782 15.1389 75.1571 15.1881C75.436 15.2373 75.6839 15.3951 75.8466 15.6269C75.9275 15.742 75.985 15.872 76.0156 16.0093C76.0462 16.1467 76.0494 16.2888 76.025 16.4274C76.0006 16.566 75.9491 16.6984 75.8735 16.8171C75.7978 16.9357 75.6994 17.0383 75.584 17.1189C75.4049 17.2451 75.1911 17.3129 74.9719 17.313C74.8002 17.3126 74.6311 17.2709 74.479 17.1912C74.3269 17.1116 74.1962 16.9965 74.098 16.8556H74.0965ZM16.7088 16.2048C16.4813 16.0348 16.3307 15.7814 16.2899 15.5004C16.2492 15.2194 16.3218 14.9336 16.4917 14.7061C16.5759 14.5934 16.6815 14.4984 16.8024 14.4265C16.9234 14.3547 17.0573 14.3073 17.1965 14.2872C17.3358 14.2671 17.4776 14.2747 17.614 14.3094C17.7503 14.3441 17.8785 14.4054 17.9911 14.4896C18.1043 14.5737 18.1998 14.6793 18.272 14.8004C18.3443 14.9215 18.3919 15.0556 18.4122 15.1952C18.4324 15.3347 18.4249 15.4769 18.3901 15.6135C18.3552 15.7502 18.2937 15.8785 18.209 15.9913C18.1096 16.125 17.9803 16.2334 17.8313 16.308C17.6824 16.3825 17.518 16.421 17.3515 16.4205C17.12 16.4198 16.8951 16.3441 16.7103 16.2048H16.7088ZM71.8666 14.004C71.6804 13.7897 71.587 13.5103 71.6068 13.2271C71.6266 12.944 71.758 12.6803 71.9723 12.4941C72.0783 12.4017 72.2014 12.3311 72.3347 12.2864C72.468 12.2417 72.6089 12.2238 72.7491 12.2336C72.8894 12.2434 73.0263 12.2808 73.1521 12.3436C73.2779 12.4064 73.39 12.4935 73.4821 12.5997C73.5745 12.7057 73.645 12.8288 73.6897 12.9621C73.7344 13.0954 73.7524 13.2361 73.7427 13.3764C73.7329 13.5166 73.6956 13.6535 73.6329 13.7793C73.5702 13.9051 73.4834 14.0174 73.3773 14.1096C73.1826 14.2796 72.9328 14.3729 72.6744 14.3721C72.5215 14.3719 72.3704 14.339 72.2313 14.2755C72.0922 14.212 71.9684 14.1194 71.8681 14.004H71.8666ZM19.0108 13.2646C18.9078 13.169 18.8245 13.054 18.7659 12.9263C18.7073 12.7985 18.6744 12.6604 18.6692 12.5199C18.6639 12.3794 18.6864 12.2393 18.7353 12.1075C18.7842 11.9757 18.8587 11.8548 18.9543 11.7518C19.0496 11.6486 19.1644 11.5652 19.2919 11.5064C19.4195 11.4476 19.5574 11.4146 19.6978 11.4091C19.8382 11.4037 19.9782 11.4259 20.11 11.4746C20.2417 11.5234 20.3626 11.5976 20.4657 11.693C20.569 11.7885 20.6525 11.9034 20.7114 12.0312C20.7703 12.1589 20.8034 12.2971 20.8088 12.4376C20.8143 12.5782 20.792 12.7185 20.7432 12.8504C20.6944 12.9824 20.62 13.1034 20.5244 13.2066C20.4244 13.315 20.3031 13.4015 20.1681 13.4606C20.033 13.5198 19.8872 13.5503 19.7397 13.5502C19.4694 13.5506 19.209 13.4485 19.0108 13.2646ZM69.3549 11.4007C69.2519 11.3049 69.1688 11.1897 69.1104 11.0617C69.052 10.9337 69.0194 10.7955 69.0145 10.6549C69.0096 10.5143 69.0324 10.3741 69.0818 10.2424C69.1312 10.1106 69.206 9.98991 69.3021 9.88714C69.4958 9.67968 69.7639 9.55759 70.0476 9.54769C70.3313 9.53778 70.6072 9.64088 70.8149 9.83433C71.0223 10.0283 71.1443 10.2965 71.1542 10.5802C71.1641 10.8639 71.0611 11.14 70.8678 11.3479C70.7674 11.4553 70.646 11.5408 70.5111 11.5993C70.3762 11.6578 70.2308 11.6879 70.0838 11.6878C69.8131 11.6886 69.5524 11.5859 69.3549 11.4007ZM21.6044 10.5826C21.5118 10.4769 21.4409 10.3539 21.3958 10.2208C21.3508 10.0877 21.3324 9.94705 21.3417 9.80683C21.351 9.66661 21.3879 9.5296 21.4502 9.40364C21.5125 9.27767 21.599 9.16522 21.7048 9.07271C21.9181 8.88561 22.1969 8.79085 22.48 8.80926C22.7632 8.82767 23.0274 8.95774 23.2147 9.17088C23.4019 9.38454 23.4967 9.66375 23.4783 9.94724C23.4599 10.2307 23.3298 10.4953 23.1165 10.683C22.9215 10.8541 22.6708 10.9482 22.4114 10.9478C22.2589 10.9477 22.1083 10.9149 21.9696 10.8516C21.8309 10.7884 21.7074 10.6961 21.6074 10.5811L21.6044 10.5826ZM66.5814 9.07419C66.3549 8.90284 66.2057 8.64868 66.1664 8.36745C66.127 8.08622 66.2009 7.80088 66.3716 7.57399C66.5431 7.34772 66.7972 7.19861 67.0784 7.1593C67.3596 7.11999 67.6449 7.19368 67.8718 7.36425C68.0981 7.53572 68.2472 7.78986 68.2865 8.07103C68.3258 8.3522 68.2521 8.63749 68.0816 8.86445C67.9816 8.99668 67.8523 9.10392 67.7039 9.17774C67.5555 9.25156 67.392 9.28995 67.2262 9.28989C66.9935 9.29021 66.7671 9.21447 66.5814 9.07419ZM24.4702 8.18166C24.3079 7.95018 24.2437 7.66397 24.2915 7.38536C24.3393 7.10675 24.4952 6.8583 24.7253 6.6941C24.84 6.61288 24.9696 6.55509 25.1067 6.52402C25.2438 6.49296 25.3856 6.48924 25.5241 6.51307C25.6627 6.53691 25.7951 6.58783 25.9139 6.66293C26.0327 6.73802 26.1356 6.83582 26.2165 6.95071C26.2979 7.06539 26.3558 7.19498 26.387 7.33206C26.4181 7.46915 26.422 7.61103 26.3983 7.74961C26.3746 7.88818 26.3238 8.02073 26.2489 8.13966C26.1739 8.25859 26.0762 8.36158 25.9614 8.44273C25.7811 8.57019 25.5657 8.63877 25.3448 8.63908C25.1731 8.63839 25.004 8.59649 24.8518 8.51689C24.6996 8.43729 24.5687 8.32233 24.4702 8.18166ZM63.5847 7.04442C63.3428 6.89756 63.1688 6.66102 63.1007 6.38639C63.0326 6.11175 63.0758 5.82132 63.221 5.57844C63.3675 5.33556 63.6043 5.16072 63.8796 5.09225C64.1548 5.02379 64.446 5.0673 64.6892 5.21324C64.9322 5.3596 65.1072 5.59646 65.1757 5.87176C65.2442 6.14707 65.2005 6.4383 65.0544 6.68146C64.9595 6.84035 64.8249 6.97186 64.6639 7.06313C64.5029 7.1544 64.3209 7.20228 64.1358 7.20211C63.9407 7.20179 63.7494 7.1483 63.5825 7.0474L63.5847 7.04442ZM27.5643 6.09908C27.4261 5.85121 27.3919 5.55869 27.4689 5.28559C27.546 5.01249 27.7282 4.78107 27.9756 4.64202C28.2234 4.50368 28.516 4.46929 28.7892 4.5464C29.0623 4.6235 29.2937 4.80581 29.4326 5.05333C29.5712 5.30112 29.6057 5.59378 29.5286 5.86699C29.4514 6.14021 29.269 6.37162 29.0213 6.51039C28.8624 6.59996 28.6831 6.6471 28.5007 6.64725C28.3099 6.64755 28.1226 6.59689 27.9579 6.50052C27.7933 6.40415 27.6574 6.26556 27.5643 6.09908ZM60.3864 5.34861C60.2588 5.2894 60.1441 5.20563 60.0488 5.10207C59.9536 4.99851 59.8797 4.87719 59.8313 4.74506C59.783 4.61293 59.7611 4.47256 59.767 4.33198C59.773 4.1914 59.8065 4.05337 59.8658 3.92576C59.925 3.79813 60.0088 3.6834 60.1123 3.58815C60.2159 3.4929 60.3372 3.41899 60.4693 3.37064C60.6015 3.32229 60.7418 3.30045 60.8824 3.30637C61.023 3.31228 61.161 3.34584 61.2886 3.40512C61.5463 3.52485 61.7458 3.74197 61.8435 4.00878C61.9411 4.27558 61.9288 4.57023 61.8093 4.82797C61.723 5.0129 61.5856 5.16933 61.4134 5.27883C61.2412 5.38833 61.0412 5.44635 60.8372 5.44605C60.6815 5.44665 60.5276 5.41287 60.3864 5.34712V5.34861ZM30.8585 4.34972C30.8029 4.22066 30.7734 4.08191 30.7715 3.94141C30.7696 3.80092 30.7955 3.66143 30.8475 3.53094C30.8996 3.40044 30.9769 3.28149 31.075 3.1809C31.1731 3.08031 31.2901 3.00006 31.4193 2.94472C31.6802 2.83303 31.9747 2.82952 32.2382 2.93496C32.5017 3.04041 32.7125 3.24618 32.8243 3.50702C32.9357 3.76706 32.9394 4.06066 32.8347 4.32346C32.73 4.58627 32.5254 4.79684 32.2657 4.90904C32.1328 4.96644 31.9895 4.99605 31.8447 4.99606C31.6354 4.99604 31.4307 4.93466 31.256 4.81952C31.0812 4.70437 30.944 4.54052 30.8614 4.34823L30.8585 4.34972ZM57.0268 3.99568C56.8934 3.95043 56.7703 3.87932 56.6645 3.78643C56.5586 3.69353 56.4721 3.58068 56.41 3.45432C56.3478 3.32797 56.3111 3.19059 56.3021 3.05005C56.2931 2.90951 56.3119 2.76858 56.3574 2.63531C56.4028 2.50218 56.4741 2.37933 56.5672 2.27381C56.6602 2.16829 56.7731 2.08217 56.8995 2.0204C57.0259 1.95862 57.1632 1.9224 57.3037 1.91382C57.4441 1.90523 57.5848 1.92445 57.7178 1.97037C57.8507 2.01583 57.9734 2.08706 58.0788 2.17999C58.1842 2.27292 58.2703 2.38572 58.332 2.51193C58.3938 2.63815 58.43 2.7753 58.4387 2.91555C58.4474 3.05579 58.4284 3.19638 58.3827 3.32925C58.3105 3.54022 58.1742 3.72337 57.9928 3.85311C57.8115 3.98286 57.5941 4.05272 57.3712 4.05295C57.255 4.05168 57.1397 4.03185 57.0298 3.99419L57.0268 3.99568ZM34.3215 2.95439C34.28 2.81999 34.2654 2.67873 34.2785 2.53869C34.2917 2.39864 34.3323 2.26256 34.398 2.13822C34.4638 2.01388 34.5534 1.90372 34.6618 1.81405C34.7701 1.72437 34.8951 1.65693 35.0296 1.61559C35.3007 1.5321 35.5939 1.55951 35.8448 1.69182C36.0958 1.82413 36.2841 2.05055 36.3684 2.32144C36.4516 2.59287 36.4237 2.88621 36.291 3.13717C36.1583 3.38813 35.9315 3.57623 35.6603 3.66024C35.5582 3.69208 35.4519 3.70838 35.3449 3.70858C35.1168 3.70795 34.8948 3.63454 34.7113 3.49903C34.5277 3.36352 34.3922 3.17298 34.3245 2.95513L34.3215 2.95439ZM53.5467 3.00125C53.4096 2.97008 53.28 2.9122 53.1653 2.83091C53.0506 2.74961 52.953 2.64651 52.8782 2.52748C52.8034 2.40846 52.7528 2.27585 52.7293 2.13725C52.7057 1.99864 52.7098 1.85676 52.7411 1.71972C52.8044 1.4429 52.9751 1.20254 53.2155 1.05149C53.456 0.900443 53.7466 0.851062 54.0234 0.914209C54.1605 0.945539 54.29 1.00356 54.4046 1.08497C54.5192 1.16637 54.6167 1.26955 54.6914 1.38863C54.7662 1.50771 54.8167 1.64034 54.8402 1.77895C54.8636 1.91757 54.8596 2.05944 54.8282 2.19648C54.7744 2.43253 54.6422 2.64333 54.453 2.7944C54.2638 2.94546 54.029 3.02783 53.7869 3.02802C53.7078 3.02822 53.629 3.01948 53.5519 3.00199L53.5467 3.00125ZM37.9154 1.93393C37.8884 1.79601 37.8888 1.65411 37.9167 1.51635C37.9445 1.37859 37.9992 1.24766 38.0777 1.13106C38.1562 1.01446 38.2568 0.914473 38.374 0.836807C38.4911 0.759141 38.6224 0.705324 38.7604 0.678431C39.039 0.624298 39.3277 0.68306 39.563 0.841792C39.7983 1.00052 39.9609 1.24622 40.0151 1.52485C40.0421 1.66282 40.0417 1.80476 40.0139 1.94257C39.9861 2.08038 39.9314 2.21135 39.8529 2.32801C39.7744 2.44467 39.6738 2.54473 39.5566 2.62247C39.4395 2.70021 39.3082 2.75411 39.1702 2.78109C39.1018 2.79449 39.0323 2.80097 38.9627 2.80043C38.7147 2.79977 38.4747 2.71298 38.2837 2.55493C38.0927 2.39687 37.9625 2.17736 37.9154 1.93393ZM49.984 2.38019C49.7024 2.34594 49.4458 2.20145 49.2706 1.97838C49.0953 1.75531 49.0157 1.47186 49.049 1.19015C49.0657 1.05057 49.1097 0.915636 49.1786 0.793066C49.2474 0.670496 49.3397 0.562689 49.4502 0.4758C49.5607 0.388912 49.6873 0.324645 49.8226 0.28667C49.958 0.248695 50.0995 0.237756 50.2391 0.254478C50.5209 0.288354 50.7776 0.43275 50.9529 0.655916C51.1283 0.879081 51.2078 1.16274 51.174 1.44452C51.1432 1.70447 51.0182 1.94411 50.8226 2.11806C50.627 2.29201 50.3744 2.38819 50.1126 2.38838C50.069 2.38912 50.0253 2.38763 49.9817 2.38391L49.984 2.38019ZM41.5934 1.30023C41.5686 1.01749 41.6571 0.736488 41.8394 0.518934C42.0217 0.30138 42.2828 0.165067 42.5655 0.139936C42.7058 0.12759 42.8472 0.143058 42.9815 0.185454C43.1158 0.22785 43.2404 0.296339 43.3482 0.386995C43.456 0.477652 43.5449 0.588692 43.6097 0.713751C43.6745 0.83881 43.7139 0.975428 43.7258 1.11577C43.7385 1.25579 43.7234 1.39693 43.6814 1.5311C43.6394 1.66526 43.5713 1.78982 43.4811 1.89762C43.3908 2.00541 43.2802 2.09434 43.1555 2.15928C43.0308 2.22422 42.8945 2.26391 42.7544 2.27607C42.7232 2.27904 42.6912 2.28053 42.6585 2.28053C42.3905 2.28 42.1325 2.17903 41.9353 1.99755C41.7381 1.81606 41.6161 1.56725 41.5934 1.30023ZM46.3722 2.14144C46.0882 2.13655 45.8177 2.01927 45.62 1.8153C45.4223 1.61134 45.3135 1.33732 45.3175 1.0533C45.3226 0.769614 45.4399 0.499506 45.6437 0.302113C45.8475 0.10472 46.1212 -0.0038751 46.4049 0.000105706C46.5455 0.00214078 46.6843 0.0318755 46.8134 0.0876085C46.9425 0.143341 47.0593 0.223979 47.1572 0.324908C47.2551 0.425837 47.3321 0.545076 47.3839 0.675803C47.4356 0.806531 47.4611 0.946181 47.4588 1.08676C47.4549 1.36771 47.3406 1.63584 47.1406 1.83319C46.9406 2.03055 46.671 2.14127 46.39 2.14144H46.3722Z" fill="#83AEB5"/>
<path d="M77.9921 52.8662C77.7441 52.8665 77.5036 52.7808 77.3117 52.6237C77.1198 52.4666 76.9884 52.2478 76.9397 52.0045C76.8911 51.7613 76.9284 51.5088 77.0451 51.29C77.1618 51.0711 77.3509 50.8996 77.5799 50.8045C77.809 50.7094 78.064 50.6968 78.3013 50.7687C78.5387 50.8406 78.7438 50.9925 78.8817 51.1987C79.0195 51.4049 79.0816 51.6525 79.0573 51.8994C79.033 52.1462 78.9239 52.377 78.7485 52.5523C78.5472 52.752 78.2756 52.8647 77.9921 52.8662Z" fill="#83AEB5"/>
<path d="M37.9514 21.9C37.7389 21.8993 37.5342 21.8196 37.377 21.6766C37.2198 21.5336 37.1212 21.3373 37.1004 21.1258C37.0796 20.9143 37.138 20.7026 37.2643 20.5316C37.3906 20.3607 37.5758 20.2427 37.7841 20.2005C38.1984 20.1164 38.6387 20.0421 39.0649 19.9707C40.0147 19.8115 40.9987 19.6464 41.776 19.3608C43.0754 18.8851 44.3451 18.3318 45.5781 17.7036C46.9125 17.0223 47.8928 16.2161 48.7556 15.1004C48.9839 14.8029 49.2018 14.5017 49.425 14.1818C49.5737 13.9766 49.7225 13.7705 49.8712 13.5675L49.9508 13.4381C49.303 13.3964 48.6864 13.4001 48.0914 13.4031C47.8846 13.4031 47.6786 13.4031 47.4733 13.4031C46.2227 13.389 44.9746 13.5206 43.7544 13.7951C41.895 14.225 39.3193 15.1934 37.6063 17.3652C36.536 18.7226 34.9347 20.3232 33.3668 20.2288C33.1494 20.203 32.9501 20.0952 32.8095 19.9273C32.669 19.7595 32.598 19.5443 32.6109 19.3257C32.6238 19.1072 32.7197 18.9019 32.8791 18.7517C33.0384 18.6016 33.249 18.518 33.468 18.5181C34.0726 18.5545 35.1727 17.6858 36.2608 16.3053C37.8585 14.2823 40.3167 12.8319 43.3669 12.1253C44.7163 11.8219 46.0962 11.6757 47.4792 11.6894C47.6808 11.6894 47.8816 11.6894 48.0832 11.6894C49.1423 11.6835 50.2401 11.6775 51.5366 11.8955C51.6867 11.9206 51.8275 11.9853 51.9445 12.0829C52.0614 12.1804 52.1503 12.3073 52.202 12.4505C52.2537 12.5938 52.2664 12.7482 52.2387 12.898C52.211 13.0477 52.144 13.1874 52.0445 13.3027C51.9702 13.4202 51.7619 13.7631 51.6355 13.9721C51.4012 14.3641 51.3201 14.4979 51.2636 14.5775C51.1148 14.7776 50.972 14.9792 50.827 15.1815C50.6039 15.4991 50.3644 15.8271 50.1174 16.1484C49.091 17.479 47.9322 18.4296 46.3613 19.2321C45.0655 19.8938 43.7307 20.4763 42.3643 20.9763C41.4368 21.3154 40.3747 21.4969 39.3475 21.6665C38.9161 21.7409 38.5085 21.8078 38.1233 21.8859C38.0666 21.8964 38.0091 21.9011 37.9514 21.9ZM51.7969 13.4998C51.7446 13.5277 51.6895 13.5499 51.6325 13.566C51.6896 13.5502 51.7447 13.528 51.7969 13.4998Z" fill="#83AEB5"/>
<path d="M37.9513 21.97C37.7836 21.9697 37.6191 21.924 37.4753 21.8378C37.3314 21.7515 37.2136 21.628 37.1342 21.4803C37.0549 21.3325 37.0169 21.1661 37.0245 20.9985C37.032 20.831 37.0847 20.6686 37.177 20.5286C37.2442 20.4266 37.331 20.3389 37.4324 20.2707C37.5338 20.2025 37.6477 20.1552 37.7676 20.1314C38.1811 20.0474 38.6214 19.973 39.0469 19.9016C39.9997 19.7417 40.9807 19.5773 41.749 19.2947C43.0456 18.8212 44.3123 18.2698 45.5423 17.6435C46.867 16.9674 47.8391 16.1708 48.6959 15.0603C48.9191 14.768 49.1347 14.4705 49.3601 14.1552C49.5148 13.9387 49.6628 13.7327 49.8131 13.5289C49.8168 13.523 49.822 13.5155 49.8272 13.5058C49.3705 13.4798 48.9414 13.4768 48.5777 13.4768C48.4185 13.4768 48.2608 13.4768 48.1039 13.4768H47.5713H47.3586C46.1502 13.4708 44.9451 13.6015 43.7662 13.8666C41.9186 14.2943 39.3585 15.256 37.659 17.4137C36.6177 18.7339 35.0506 20.3077 33.4938 20.3084C33.4485 20.3084 33.4024 20.3084 33.3562 20.304C33.1099 20.2889 32.8796 20.1765 32.716 19.9917C32.5525 19.8068 32.4691 19.5645 32.4842 19.3181C32.4993 19.0717 32.6116 18.8414 32.7965 18.6779C32.9814 18.5143 33.2237 18.4309 33.47 18.446H33.5043C34.0993 18.446 35.1554 17.5884 36.2034 16.2601C37.813 14.2169 40.2853 12.7643 43.3519 12.0525C44.6753 11.7551 46.0282 11.6084 47.3846 11.6152H47.5788H48.083C48.2571 11.6152 48.4319 11.6152 48.6037 11.6152C49.5887 11.6006 50.5731 11.6705 51.5461 11.8242C51.7089 11.8514 51.8615 11.9214 51.9882 12.0271C52.115 12.1328 52.2113 12.2703 52.2674 12.4255C52.3234 12.5807 52.3371 12.7481 52.3071 12.9104C52.277 13.0727 52.2044 13.224 52.0965 13.3489C52.0288 13.4516 51.8458 13.7565 51.6948 14.0109C51.4583 14.4058 51.3772 14.5404 51.317 14.6223C51.1816 14.8052 51.05 14.9889 50.9176 15.1734L50.8804 15.2255C50.6573 15.5423 50.4185 15.8703 50.1693 16.1924C49.1362 17.5312 47.9707 18.4884 46.3887 19.2962C45.0908 19.9563 43.7543 20.5378 42.3864 21.0373C41.453 21.3795 40.3864 21.558 39.3563 21.7313H39.3399C38.9152 21.8057 38.5143 21.8696 38.135 21.947C38.0746 21.9604 38.0131 21.9681 37.9513 21.97ZM48.5806 13.3311C48.9778 13.3311 49.4523 13.3355 49.9581 13.3682C49.9703 13.3693 49.982 13.3733 49.9922 13.3799C50.0025 13.3865 50.0109 13.3955 50.0169 13.4062C50.0226 13.4169 50.0256 13.4289 50.0256 13.4411C50.0256 13.4533 50.0226 13.4653 50.0169 13.4761C49.9804 13.5363 49.9507 13.5847 49.935 13.6077C49.7863 13.8145 49.6375 14.0198 49.4888 14.2251C49.2545 14.5523 49.0425 14.8513 48.8127 15.1451C47.9432 16.2734 46.9532 17.0827 45.6144 17.7684C44.3776 18.3974 43.1039 18.9513 41.8004 19.4271C41.0164 19.7142 40.0316 19.8793 39.0789 20.0392C38.6482 20.1136 38.2094 20.188 37.7981 20.269C37.6069 20.3077 37.4368 20.416 37.321 20.573C37.2051 20.7299 37.1517 20.9243 37.1711 21.1184C37.1904 21.3126 37.2812 21.4926 37.4258 21.6235C37.5704 21.7545 37.7585 21.8271 37.9535 21.8272C38.0062 21.8272 38.0588 21.822 38.1105 21.8116C38.4928 21.7335 38.8952 21.6666 39.3206 21.5952H39.3377C40.3611 21.4226 41.4203 21.2449 42.3418 20.9079C43.7044 20.4104 45.0357 19.8312 46.3285 19.1734C47.8904 18.3761 49.0418 17.4308 50.0607 16.1098C50.3084 15.787 50.5427 15.4605 50.7696 15.1429L50.806 15.0908C50.9384 14.9064 51.0708 14.719 51.2062 14.5382C51.2627 14.4638 51.343 14.3285 51.5781 13.9387C51.6465 13.8234 51.7209 13.6985 51.79 13.5854L51.7766 13.5914C51.7382 13.6083 51.6987 13.6228 51.6584 13.6345C51.6422 13.6346 51.6264 13.6293 51.6135 13.6196C51.6005 13.6099 51.5911 13.5962 51.5866 13.5806C51.5822 13.5651 51.5829 13.5485 51.5888 13.5334C51.5946 13.5182 51.6052 13.5055 51.619 13.4969C51.6534 13.487 51.6872 13.4748 51.7201 13.4605L51.7685 13.4374C51.7849 13.4295 51.8038 13.4279 51.8213 13.433C51.8389 13.4381 51.854 13.4495 51.8637 13.4649C51.9172 13.3787 51.9618 13.3065 51.9901 13.2634C52.126 13.1082 52.1962 12.9063 52.1857 12.7003C52.177 12.5213 52.1071 12.3506 51.9877 12.2169C51.8683 12.0831 51.7067 11.9944 51.5297 11.9655C50.5645 11.8135 49.5881 11.7443 48.6111 11.7587C48.4356 11.7587 48.2616 11.7587 48.0905 11.7587H47.584H47.3898C46.0419 11.7532 44.6978 11.9007 43.3831 12.1983C40.3478 12.9004 37.9037 14.3374 36.3172 16.3553C35.2016 17.7684 34.103 18.6335 33.4641 18.594H33.4187C33.2143 18.5942 33.0179 18.674 32.8713 18.8164C32.7246 18.9589 32.6391 19.1528 32.6329 19.3571C32.6267 19.5615 32.7003 19.7602 32.8381 19.9113C32.9759 20.0623 33.1671 20.1538 33.3711 20.1664C33.415 20.1664 33.4574 20.1708 33.5005 20.1708C34.9992 20.1708 36.5307 18.626 37.5526 17.3304C39.2782 15.1407 41.8666 14.1656 43.7401 13.7327C44.9296 13.4653 46.1454 13.3333 47.3646 13.3392H47.5773H48.0979L48.5806 13.3311Z" fill="#83AEB5"/>
<path d="M28.7799 29.2641C27.6535 29.2543 26.5411 29.013 25.5118 28.5553C24.4125 28.0681 23.7126 27.3325 23.1704 26.0964C22.4913 24.5463 23.4091 23.4932 24.0785 22.7256C24.2064 22.5768 24.3396 22.4281 24.4623 22.2726C24.7427 21.9371 25.0497 21.6247 25.3801 21.3384C25.63 21.1205 25.8651 20.8862 26.0837 20.637C26.258 20.4163 26.419 20.1853 26.5657 19.9453C26.7679 19.6131 26.9949 19.2966 27.2448 18.9985C27.8199 18.3293 28.5887 17.8552 29.4449 17.6419C29.8748 17.5362 30.2913 17.5623 30.6587 17.5853C30.9414 17.6032 31.2337 17.621 31.3854 17.5593C32.4661 17.1197 33.3371 15.984 34.1798 14.8854C34.5219 14.4391 34.8447 14.0189 35.1869 13.6329C36.5517 12.0962 38.4059 10.9003 40.6982 10.0784C42.0032 9.62117 43.3563 9.31497 44.731 9.16576C44.9341 9.1427 45.1379 9.11741 45.3431 9.09138C46.4127 8.95899 47.5172 8.82288 48.7913 8.89503C48.9429 8.90358 49.0895 8.95219 49.2162 9.03591C49.3429 9.11962 49.4451 9.23544 49.5124 9.37155C49.5797 9.50766 49.6096 9.65919 49.5993 9.81067C49.5889 9.96215 49.5385 10.1082 49.4533 10.2338C49.39 10.3588 49.2301 10.7195 49.129 10.9419C48.9393 11.3651 48.8731 11.5094 48.8233 11.5972C48.7013 11.8099 48.5816 12.0263 48.4625 12.2435L48.2394 12.6422C48.1844 12.7406 48.1105 12.8272 48.022 12.897C47.9335 12.9669 47.8321 13.0186 47.7236 13.0493C47.6151 13.08 47.5016 13.089 47.3896 13.0758C47.2776 13.0626 47.1693 13.0275 47.0709 12.9724C46.9725 12.9174 46.8859 12.8435 46.8161 12.755C46.7462 12.6665 46.6945 12.5651 46.6638 12.4566C46.6332 12.3481 46.6242 12.2346 46.6374 12.1226C46.6505 12.0106 46.6857 11.9023 46.7407 11.8039L46.9571 11.4135C47.0791 11.1903 47.2011 10.9709 47.329 10.7515C47.3417 10.727 47.3655 10.6771 47.3945 10.6117C46.76 10.6466 46.1509 10.7217 45.5536 10.7954C45.3431 10.8214 45.1341 10.8474 44.9266 10.8698C43.6835 11.0046 42.46 11.2813 41.2799 11.6946C39.262 12.4183 37.6443 13.4536 36.4736 14.7724C36.1716 15.1123 35.8667 15.5094 35.5446 15.9297C34.6082 17.151 33.5468 18.5329 32.034 19.1495C31.52 19.3585 31.0068 19.3265 30.5546 19.2982C30.2853 19.2819 30.034 19.2663 29.8554 19.3094C29.3429 19.4392 28.8834 19.7251 28.5404 20.1276C28.3468 20.3625 28.1703 20.6111 28.0124 20.8713C27.8287 21.1701 27.6268 21.4573 27.4077 21.7311C27.1394 22.0424 26.8493 22.3342 26.5397 22.6043C26.2765 22.832 26.0309 23.0791 25.8048 23.3437C25.6598 23.5251 25.5148 23.691 25.3742 23.8524C24.6683 24.6631 24.5248 24.9034 24.7457 25.4061C25.1176 26.2466 25.511 26.6706 26.2087 26.9844C27.6457 27.6211 29.8681 27.9246 31.4025 26.6869L31.4375 26.6587C31.5451 26.5675 31.6612 26.4868 31.7841 26.4177C31.9824 26.3058 32.2171 26.2774 32.4364 26.3385C32.6557 26.3997 32.8418 26.5455 32.9537 26.7438C33.0655 26.9422 33.094 27.1768 33.0328 27.3962C32.9716 27.6155 32.8259 27.8016 32.6275 27.9134C32.5887 27.9339 32.5525 27.9588 32.5197 27.9878L32.481 28.019C31.3675 28.9205 30.0585 29.2641 28.7799 29.2641ZM49.2338 10.457C49.1843 10.4912 49.1315 10.5203 49.0762 10.544C49.1314 10.5202 49.1843 10.491 49.2338 10.457Z" fill="#83AEB5"/>
<path d="M28.7792 29.3335C27.6431 29.3223 26.5213 29.0788 25.4828 28.618C24.3672 28.1234 23.6554 27.3774 23.1027 26.1234C22.4058 24.5317 23.34 23.4592 24.022 22.6767L24.0429 22.6529C24.1641 22.5138 24.2891 22.3703 24.4043 22.226C24.6871 21.8876 24.9965 21.5725 25.3296 21.2836C25.5772 21.0684 25.8098 20.8365 26.0258 20.5897C26.1984 20.3717 26.3576 20.1434 26.5025 19.9061C26.7071 19.5706 26.9366 19.2508 27.189 18.9496C27.7733 18.2689 28.555 17.7869 29.4256 17.5707C29.6635 17.5151 29.9072 17.4886 30.1515 17.4918C30.33 17.4918 30.5055 17.5022 30.661 17.5119C30.7926 17.5201 30.9288 17.529 31.0493 17.529C31.1531 17.5346 31.2571 17.5218 31.3564 17.4911C32.4185 17.0597 33.2836 15.9291 34.1203 14.8417C34.4669 14.3888 34.7897 13.9693 35.1318 13.5833C36.5041 12.0377 38.368 10.8313 40.6715 10.0094C41.9818 9.55028 43.3404 9.24259 44.7206 9.09234C44.9222 9.07003 45.1238 9.04474 45.3276 9.01796C46.1948 8.91086 47.0866 8.80078 48.0721 8.80078C48.3138 8.80078 48.557 8.80747 48.7928 8.82086C48.9569 8.83029 49.1155 8.88301 49.2526 8.97366C49.3897 9.06431 49.5004 9.18965 49.5733 9.33693C49.6462 9.48422 49.6788 9.64819 49.6678 9.81217C49.6568 9.97615 49.6025 10.1343 49.5106 10.2705C49.4563 10.3783 49.3112 10.7004 49.1915 10.9681C49.0033 11.3869 48.9356 11.5364 48.8828 11.6294C48.7608 11.8413 48.6418 12.0578 48.5221 12.2742C48.4477 12.4074 48.3733 12.5405 48.2989 12.6729C48.24 12.7806 48.1602 12.8755 48.0644 12.9522C47.9685 13.0289 47.8584 13.0859 47.7404 13.1198C47.6224 13.1537 47.4989 13.1639 47.3769 13.1499C47.2549 13.1358 47.137 13.0977 47.0298 13.0378C46.9226 12.9778 46.8284 12.8973 46.7525 12.8008C46.6767 12.7042 46.6207 12.5936 46.5878 12.4753C46.5549 12.3571 46.5458 12.2334 46.5609 12.1116C46.576 11.9897 46.6152 11.8721 46.676 11.7655C46.7504 11.6361 46.8248 11.5059 46.8925 11.3757C47.0144 11.1526 47.1364 10.9295 47.2643 10.713C47.2691 10.7044 47.2734 10.6954 47.277 10.6863C46.6857 10.7234 46.1145 10.7941 45.5604 10.8625L45.5165 10.8685C45.3209 10.8923 45.1267 10.9161 44.9326 10.9384C43.6942 11.0716 42.4752 11.3461 41.2993 11.7566C39.2911 12.4758 37.6852 13.5052 36.522 14.815C36.2245 15.1541 35.918 15.5498 35.5967 15.9686C34.6595 17.2003 33.5893 18.5926 32.0563 19.2137C31.7365 19.3377 31.3952 19.3971 31.0522 19.3885C30.876 19.3885 30.7079 19.378 30.5457 19.3676C30.2586 19.3505 30.0095 19.3416 29.8674 19.3766C29.3696 19.5033 28.9232 19.781 28.5896 20.1717C28.3989 20.4048 28.2249 20.6511 28.0689 20.9087C27.8839 21.2104 27.6799 21.5001 27.4583 21.776C27.1906 22.087 26.9013 22.3788 26.5925 22.6492C26.329 22.8764 26.0831 23.1233 25.8569 23.3878C25.7082 23.5752 25.5594 23.747 25.4248 23.898C24.7316 24.6938 24.6022 24.9088 24.8067 25.3766C25.1675 26.1992 25.5542 26.6165 26.2348 26.9185C27.0335 27.2722 27.8961 27.4587 28.7696 27.4666C29.7967 27.4666 30.6662 27.1847 31.3542 26.6291L31.3884 26.6016C31.4991 26.5076 31.6186 26.4247 31.7454 26.3539C31.96 26.2345 32.2132 26.2048 32.4496 26.2714C32.686 26.338 32.8864 26.4954 33.0072 26.7093C33.1279 26.9231 33.1591 27.1761 33.094 27.4129C33.0289 27.6497 32.8727 27.8511 32.6595 27.9731C32.6237 27.9935 32.5907 28.0185 32.5614 28.0475L32.5219 28.0788C31.5052 28.8984 30.2103 29.3335 28.7792 29.3335ZM30.1537 17.6339C29.921 17.6302 29.6887 17.6552 29.462 17.7083C28.6191 17.9179 27.8622 18.3844 27.2961 19.0433C27.0503 19.3394 26.8266 19.6531 26.6267 19.982C26.4786 20.2246 26.3159 20.4581 26.1396 20.6811C25.9202 20.9325 25.6836 21.1684 25.4315 21.387C25.1032 21.6715 24.7982 21.9819 24.5196 22.3152C24.4029 22.464 24.2764 22.6068 24.1544 22.7466L24.1336 22.7704C23.4761 23.5246 22.5761 24.5555 23.2374 26.0654C23.7714 27.2844 24.4609 28.0088 25.5431 28.4878C26.5636 28.9405 27.6659 29.1797 28.7822 29.1907C30.1805 29.1907 31.4442 28.7668 32.4364 27.965L32.4758 27.9337C32.5115 27.9006 32.5513 27.8721 32.5941 27.8489C32.7761 27.7459 32.9096 27.5747 32.9654 27.3732C33.0212 27.1716 32.9947 26.9561 32.8916 26.7742C32.7885 26.5922 32.6174 26.4586 32.4158 26.4028C32.2143 26.347 31.9988 26.3736 31.8168 26.4767C31.6973 26.5438 31.5845 26.6223 31.4799 26.711L31.4449 26.7392C30.7413 27.3075 29.8168 27.6079 28.7711 27.6079C27.8784 27.6001 26.9968 27.4098 26.1805 27.0486C25.4627 26.731 25.0566 26.2929 24.6803 25.4339C24.4453 24.8976 24.6059 24.6299 25.3207 23.8043C25.4516 23.6555 25.6011 23.4837 25.7491 23.2985C25.9773 23.0316 26.226 22.7829 26.4929 22.5547C26.7995 22.2862 27.087 21.9967 27.3534 21.6882C27.5694 21.4168 27.7681 21.1321 27.9484 20.8359C28.1094 20.5714 28.2891 20.3189 28.4862 20.0802C28.8388 19.6674 29.3107 19.374 29.8369 19.2404C29.9409 19.2178 30.0473 19.2079 30.1537 19.2107C30.278 19.2107 30.4118 19.2189 30.5539 19.2271C30.719 19.2375 30.8841 19.2479 31.0559 19.2479C31.3805 19.2565 31.7036 19.2006 32.0065 19.0835C33.5007 18.4766 34.5554 17.1013 35.4859 15.8853C35.8102 15.4628 36.1151 15.0671 36.4193 14.722C37.5982 13.3944 39.2256 12.3523 41.2539 11.6242C42.4402 11.21 43.6699 10.9327 44.9192 10.7978C45.1126 10.7755 45.3067 10.751 45.5023 10.7234L45.5455 10.7182C46.1405 10.6439 46.7526 10.5695 47.3908 10.5345C47.4031 10.5335 47.4154 10.5358 47.4266 10.5412C47.4377 10.5465 47.4472 10.5548 47.454 10.565C47.4607 10.5753 47.4647 10.587 47.4658 10.5992C47.4668 10.6114 47.4648 10.6237 47.46 10.6349C47.431 10.7004 47.4057 10.7525 47.3938 10.7777C47.2666 11.0009 47.1446 11.2203 47.0219 11.4412L46.8062 11.8324C46.7557 11.9226 46.7235 12.0219 46.7115 12.1245C46.6994 12.2272 46.7076 12.3312 46.7357 12.4306C46.7638 12.5301 46.8113 12.623 46.8753 12.7042C46.9393 12.7853 47.0187 12.853 47.1089 12.9035C47.1991 12.9539 47.2984 12.9861 47.401 12.9982C47.5036 13.0103 47.6077 13.002 47.7071 12.9739C47.8066 12.9458 47.8995 12.8984 47.9806 12.8344C48.0618 12.7703 48.1295 12.6909 48.1799 12.6007L48.4031 12.2021C48.5221 11.9849 48.6418 11.7685 48.7638 11.555C48.8122 11.4709 48.8776 11.3281 49.0665 10.9064L49.2324 10.5382C49.192 10.563 49.1497 10.5847 49.1059 10.603C49.0884 10.6096 49.069 10.6094 49.0516 10.6024C49.0343 10.5953 49.0202 10.582 49.0122 10.565C49.0056 10.5475 49.0058 10.5281 49.0128 10.5107C49.0199 10.4934 49.0332 10.4793 49.0502 10.4713C49.1024 10.4501 49.1523 10.4235 49.1989 10.3917C49.2141 10.3821 49.2323 10.3783 49.2501 10.381C49.2678 10.3838 49.284 10.3928 49.2956 10.4066C49.3373 10.3159 49.37 10.2407 49.3953 10.1954C49.5117 10.0262 49.5578 9.81847 49.5239 9.61596C49.4953 9.43964 49.4071 9.27845 49.2741 9.15923C49.1411 9.04 48.9712 8.96994 48.7928 8.96069C48.5593 8.94731 48.3198 8.94061 48.0803 8.94061C47.1037 8.94061 46.2156 9.04995 45.3581 9.15631C45.149 9.1816 44.9467 9.20688 44.7444 9.23068C43.3753 9.37936 42.0278 9.68431 40.728 10.1396C38.4469 10.9577 36.603 12.1478 35.2464 13.674C34.9072 14.0563 34.5874 14.4743 34.2475 14.9169C33.3936 16.0325 32.5167 17.1735 31.4211 17.6198C31.3049 17.658 31.1826 17.6744 31.0604 17.6681C30.9355 17.6681 30.7964 17.6592 30.6632 17.651C30.4944 17.6443 30.3278 17.6339 30.1537 17.6339Z" fill="#83AEB5"/>
<path d="M60.2628 42.4176H60.2174C59.9902 42.4055 59.777 42.3037 59.6247 42.1345C59.4724 41.9654 59.3935 41.7427 59.4052 41.5154C59.429 41.049 59.5354 40.4042 59.638 39.7802C59.7124 39.3198 59.7868 38.8876 59.8158 38.5767C60.1535 35.1553 60.1557 32.3394 59.0653 29.7012C57.6313 26.2337 55.3078 24.1043 52.1601 23.3702C50.024 22.8726 47.3918 23.2274 45.5598 23.6134C45.0957 23.7116 44.6152 23.8425 44.1065 23.9801C43.1604 24.2374 42.1809 24.5007 41.1768 24.5915C38.703 24.8079 37.9518 23.0243 37.3471 21.5911L37.2876 21.4505C37.2028 21.2417 37.2037 21.0079 37.2898 20.7996C37.376 20.5914 37.5407 20.4254 37.7482 20.3375C37.9557 20.2496 38.1895 20.2469 38.399 20.3299C38.6086 20.4129 38.777 20.5749 38.8681 20.7811L38.9283 20.9246C39.5866 22.4866 39.8952 22.9819 41.0273 22.8823C41.8781 22.8079 42.7826 22.5617 43.6565 22.3244C44.166 22.1861 44.6933 22.0425 45.2058 21.9347C47.208 21.513 50.1073 21.1299 52.5499 21.6989C56.2159 22.5535 59.0207 25.0943 60.6518 29.046C61.879 32.0144 61.888 35.0706 61.5243 38.7463C61.4886 39.11 61.4119 39.5712 61.3316 40.0591C61.2372 40.637 61.1382 41.2342 61.1196 41.6054C61.1078 41.8247 61.0124 42.0311 60.853 42.1822C60.6937 42.3333 60.4824 42.4175 60.2628 42.4176Z" fill="#83AEB5"/>
<path d="M60.2632 42.4879H60.2148C59.9686 42.475 59.7376 42.3649 59.5725 42.1818C59.4073 41.9987 59.3217 41.7575 59.3342 41.5113C59.358 41.042 59.4644 40.3956 59.567 39.7723C59.6414 39.309 59.7158 38.8798 59.7448 38.5696C60.0825 35.1609 60.0847 32.3524 59.001 29.7284C57.5767 26.2839 55.2702 24.1679 52.1456 23.439C51.3701 23.2692 50.5779 23.1879 49.7841 23.1965C48.5242 23.1965 47.1065 23.3601 45.5766 23.6829C45.1184 23.7796 44.6439 23.9061 44.1411 24.0451H44.1269C43.1786 24.3032 42.1931 24.5703 41.1853 24.658C41.047 24.6707 40.9101 24.6766 40.7792 24.6766C38.5746 24.6766 37.8591 22.9801 37.2834 21.616L37.2232 21.4739C37.1699 21.3607 37.1401 21.2379 37.1354 21.1128C37.1307 20.9878 37.1514 20.8631 37.196 20.7462C37.2407 20.6293 37.3085 20.5227 37.3954 20.4326C37.4823 20.3426 37.5864 20.271 37.7016 20.2222C37.8168 20.1733 37.9407 20.1483 38.0658 20.1484C38.1909 20.1486 38.3147 20.1741 38.4298 20.2232C38.5449 20.2724 38.6488 20.3443 38.7354 20.4346C38.8221 20.5249 38.8896 20.6317 38.9339 20.7487L38.9941 20.8915C39.5966 22.3188 39.8867 22.8179 40.768 22.8179C40.8469 22.8179 40.9302 22.8179 41.0209 22.806C41.8666 22.7316 42.7666 22.4877 43.6368 22.2504C44.1493 22.1113 44.6781 21.9685 45.1905 21.8599C46.8417 21.5118 48.3888 21.3393 49.7841 21.3393C50.7191 21.33 51.6521 21.427 52.5651 21.6286C56.255 22.4884 59.0739 25.0433 60.7176 29.018C61.9501 31.9991 61.9597 35.0657 61.5945 38.7526C61.5596 39.1126 61.4845 39.5708 61.4056 40.0475V40.0698C61.3097 40.6522 61.213 41.2428 61.1937 41.608C61.1811 41.846 61.0774 42.0701 60.9043 42.2339C60.7311 42.3976 60.5016 42.4886 60.2632 42.4879ZM49.7826 23.0552C50.5874 23.0465 51.3906 23.1288 52.1768 23.3006C55.3483 24.0444 57.689 26.185 59.1319 29.6741C60.2282 32.3264 60.2267 35.1542 59.8876 38.5838C59.8563 38.8954 59.7849 39.3275 59.7091 39.7917C59.6057 40.4164 59.5008 41.0561 59.4763 41.5195C59.4659 41.7276 59.5383 41.9314 59.6777 42.0863C59.817 42.2413 60.012 42.3348 60.2201 42.3465H60.2617C60.4629 42.3465 60.6564 42.2693 60.8025 42.131C60.9485 41.9927 61.0361 41.8036 61.0471 41.6028C61.0665 41.2309 61.1639 40.6359 61.2584 40.0594L61.2643 40.0267C61.3387 39.5484 61.4131 39.0962 61.4517 38.7407C61.8147 35.0746 61.8058 32.0289 60.5852 29.0716C58.9601 25.1415 56.1746 22.6156 52.5324 21.767C51.6289 21.5675 50.7056 21.4717 49.7804 21.4813C48.3932 21.4813 46.8573 21.6569 45.2166 22.002C44.7063 22.1098 44.1812 22.2526 43.6725 22.391C42.7941 22.6297 41.8874 22.8759 41.0299 22.951C40.9339 22.96 40.8476 22.9637 40.7643 22.9637C39.7974 22.9637 39.4754 22.4118 38.8588 20.9503L38.7985 20.8075C38.7384 20.6649 38.6375 20.5432 38.5085 20.4577C38.3795 20.3722 38.2281 20.3267 38.0733 20.327C37.9441 20.3281 37.8171 20.3609 37.7036 20.4227C37.5901 20.4844 37.4935 20.5731 37.4223 20.681C37.3512 20.7889 37.3077 20.9127 37.2957 21.0413C37.2836 21.17 37.3034 21.2997 37.3534 21.4189L37.4136 21.5602C37.9722 22.8863 38.6684 24.5353 40.777 24.5353C40.9042 24.5353 41.0365 24.5293 41.1704 24.5174C42.1701 24.4304 43.1444 24.1649 44.0875 23.909L44.1017 23.9046C44.6059 23.7677 45.0827 23.6383 45.5446 23.5409C47.0872 23.2173 48.513 23.0552 49.7826 23.0552Z" fill="#83AEB5"/>
<path d="M65.0214 41.8896C64.9008 41.8889 64.7816 41.8629 64.6716 41.8134C64.5616 41.7638 64.4632 41.6918 64.3828 41.6019C64.3023 41.512 64.2416 41.4062 64.2045 41.2914C64.1675 41.1766 64.1549 41.0553 64.1675 40.9353C64.2813 39.9134 64.1311 38.7613 63.818 38.2577C63.7001 38.0582 63.5371 37.8892 63.342 37.7642C63.147 37.6391 62.9253 37.5616 62.6949 37.5377C62.4719 37.5194 62.2477 37.5543 62.0408 37.6395C61.8339 37.7247 61.6502 37.8578 61.5048 38.0279C61.4292 38.1115 61.3379 38.1794 61.236 38.2277C61.1342 38.276 61.0238 38.3038 60.9113 38.3095C60.7987 38.3151 60.6861 38.2986 60.5799 38.2607C60.4737 38.2229 60.376 38.1645 60.2924 38.0889C60.2088 38.0133 60.1409 37.9219 60.0926 37.8201C60.0443 37.7183 60.0165 37.6079 60.0108 37.4953C60.0052 37.3827 60.0218 37.2702 60.0596 37.164C60.0975 37.0578 60.1559 36.9601 60.2315 36.8765C60.5559 36.5095 60.9617 36.2235 61.4164 36.0414C61.8712 35.8593 62.3622 35.7861 62.8503 35.8278C63.3462 35.8748 63.8241 36.0374 64.2458 36.3024C64.6676 36.5675 65.0213 36.9276 65.2788 37.354C65.914 38.3812 65.9965 40.0316 65.8738 41.128C65.8497 41.3373 65.7496 41.5305 65.5925 41.6709C65.4354 41.8113 65.2321 41.8891 65.0214 41.8896Z" fill="#83AEB5"/>
<path d="M65.0214 41.9609C64.9866 41.9608 64.9518 41.9588 64.9173 41.955C64.6729 41.9266 64.4496 41.8026 64.2963 41.6102C64.143 41.4177 64.0721 41.1724 64.0991 40.9278C64.2114 39.9193 64.0664 38.7872 63.7607 38.2934C63.6485 38.1032 63.4933 37.942 63.3075 37.8227C63.1218 37.7033 62.9107 37.6291 62.6911 37.6061C62.479 37.5894 62.266 37.6231 62.0694 37.7044C61.8728 37.7857 61.6982 37.9123 61.5598 38.0739C61.3939 38.2547 61.1632 38.3625 60.9181 38.3738C60.673 38.3852 60.4333 38.2992 60.2514 38.1346C60.0694 37.97 59.9599 37.7401 59.9467 37.4951C59.9335 37.2501 60.0176 37.0098 60.1809 36.8266C60.4803 36.4866 60.8487 36.214 61.2614 36.0271C61.6742 35.8401 62.122 35.743 62.5751 35.7422C62.6696 35.7422 62.7648 35.7459 62.8585 35.7548C63.3657 35.8027 63.8545 35.969 64.2858 36.2403C64.717 36.5116 65.0785 36.8803 65.3412 37.3168C65.9868 38.3581 66.0709 40.0256 65.9474 41.1361C65.9216 41.3634 65.8129 41.5733 65.642 41.7255C65.4712 41.8776 65.2502 41.9615 65.0214 41.9609ZM62.5669 37.4581C62.61 37.4581 62.6539 37.4581 62.6978 37.464C62.9394 37.489 63.1719 37.5702 63.3765 37.7012C63.5811 37.8322 63.7521 38.0092 63.876 38.2182C64.1965 38.7389 64.3512 39.9074 64.2352 40.9434C64.2233 41.1447 64.2891 41.3428 64.4189 41.497C64.5488 41.6511 64.7329 41.7496 64.9332 41.772C65.1336 41.7944 65.3349 41.7391 65.4956 41.6175C65.6564 41.4958 65.7643 41.3171 65.7972 41.1182C65.9184 40.0301 65.8381 38.4005 65.2118 37.3897C64.9605 36.9724 64.6147 36.62 64.2024 36.3608C63.79 36.1015 63.3226 35.9426 62.8376 35.8969C62.7476 35.8887 62.6569 35.8842 62.5669 35.8842C62.1335 35.8859 61.7053 35.9796 61.3108 36.1591C60.9162 36.3386 60.5643 36.5998 60.2783 36.9255C60.209 37.0022 60.1555 37.0918 60.1208 37.1892C60.0861 37.2865 60.0709 37.3897 60.0762 37.493C60.0814 37.5962 60.1069 37.6974 60.1512 37.7907C60.1955 37.8841 60.2578 37.9678 60.3345 38.0371C60.4111 38.1064 60.5007 38.1599 60.5981 38.1946C60.6954 38.2293 60.7986 38.2445 60.9019 38.2393C61.0051 38.234 61.1063 38.2086 61.1996 38.1642C61.293 38.1199 61.3767 38.0576 61.446 37.981C61.5854 37.8188 61.7577 37.6883 61.9515 37.5982C62.1453 37.508 62.3561 37.4602 62.5699 37.4581H62.5669Z" fill="#83AEB5"/>
<path d="M44.5191 41.8818C44.3872 41.8819 44.2571 41.8516 44.1388 41.7933C44.0205 41.735 43.9173 41.6503 43.837 41.5456C43.1974 40.7096 42.6663 39.5605 42.4848 38.6174C42.1494 36.8792 42.0274 35.0249 43.3922 33.2451C45.4875 30.5132 49.3856 28.7616 52.4812 30.8977C52.6686 31.027 52.7969 31.2255 52.838 31.4494C52.8791 31.6733 52.8295 31.9044 52.7002 32.0918C52.5709 32.2792 52.3725 32.4076 52.1485 32.4487C51.9246 32.4898 51.6935 32.4402 51.5061 32.3109C49.2829 30.7765 46.3681 32.1852 44.7541 34.2893C43.8519 35.466 43.8616 36.6932 44.1702 38.2931C44.281 38.868 44.6425 39.7732 45.2004 40.5014C45.2975 40.6286 45.3572 40.7804 45.3726 40.9397C45.3881 41.099 45.3588 41.2594 45.288 41.403C45.2171 41.5465 45.1076 41.6673 44.9718 41.752C44.8359 41.8366 44.6791 41.8815 44.5191 41.8818Z" fill="#83AEB5"/>
<path d="M44.5186 41.9493C44.3757 41.9497 44.2347 41.917 44.1066 41.8538C43.9784 41.7906 43.8667 41.6985 43.7801 41.5849C43.1337 40.7414 42.5982 39.5767 42.4145 38.6276C42.0753 36.8716 41.9533 34.9995 43.3353 33.198C44.9091 31.146 47.2483 29.8711 49.4395 29.8711C50.5421 29.8672 51.6189 30.205 52.5217 30.838C52.7247 30.9781 52.8637 31.193 52.9082 31.4356C52.9527 31.6782 52.899 31.9285 52.759 32.1315C52.6189 32.3345 52.4039 32.4735 52.1614 32.518C51.9188 32.5625 51.6685 32.5088 51.4655 32.3687C50.8654 31.9509 50.1506 31.7293 49.4194 31.7343C47.8299 31.7343 46.0211 32.754 44.808 34.3323C43.9221 35.4874 43.9333 36.6983 44.2375 38.2743C44.3468 38.8411 44.7031 39.7344 45.2542 40.4536C45.3597 40.5913 45.4245 40.7557 45.4414 40.9283C45.4583 41.1009 45.4266 41.2748 45.3498 41.4303C45.2731 41.5859 45.1543 41.7168 45.0071 41.8084C44.8598 41.9 44.6898 41.9485 44.5164 41.9486L44.5186 41.9493ZM49.4395 30.0124C47.2922 30.0124 44.9961 31.2665 43.4476 33.2851C42.1006 35.0419 42.2226 36.8783 42.5551 38.6008C42.7351 39.5343 43.2602 40.6715 43.8939 41.5016C43.956 41.5856 44.0341 41.6564 44.1239 41.7098C44.2136 41.7633 44.3131 41.7984 44.4165 41.813C44.5199 41.8276 44.6252 41.8215 44.7263 41.795C44.8273 41.7685 44.922 41.7222 45.005 41.6587C45.0879 41.5952 45.1574 41.5158 45.2093 41.4252C45.2613 41.3346 45.2947 41.2345 45.3076 41.1309C45.3204 41.0272 45.3126 40.9221 45.2844 40.8215C45.2562 40.7209 45.2083 40.6269 45.1434 40.5451C44.5789 39.8073 44.2129 38.8887 44.1021 38.3063C43.7897 36.6871 43.7808 35.4435 44.6971 34.246C45.9333 32.6335 47.7875 31.5922 49.4194 31.5922C50.1796 31.5868 50.9228 31.8173 51.5466 32.252C51.7185 32.3641 51.9274 32.4046 52.1288 32.3648C52.3301 32.3251 52.508 32.2082 52.6244 32.0392C52.7409 31.8702 52.7867 31.6624 52.752 31.4601C52.7174 31.2578 52.6051 31.077 52.4391 30.9563C51.5605 30.3401 50.5126 30.0111 49.4395 30.0147V30.0124Z" fill="#83AEB5"/>
<path d="M36.4529 41.0081C36.2375 41.0078 36.0301 40.9265 35.8719 40.7803C35.7137 40.6341 35.6163 40.4337 35.5991 40.2189C35.5807 39.9584 35.5223 39.7023 35.4258 39.4595C35.1454 38.8177 34.47 38.3439 33.7553 37.8478C33.4912 37.6641 33.2182 37.4759 32.9587 37.2691C31.6988 36.2956 30.6963 35.0285 30.0386 33.5785C29.6749 32.7946 29.3052 31.9496 29.1237 31.0035C29.03 30.5149 29.0888 30.0946 29.1408 29.7242C29.1825 29.423 29.2152 29.1857 29.1684 28.9462C29.1244 28.7228 29.1709 28.4911 29.2978 28.302C29.4247 28.113 29.6214 27.982 29.8448 27.9381C30.0682 27.8941 30.3 27.9406 30.489 28.0675C30.6781 28.1943 30.809 28.3911 30.853 28.6145C30.9557 29.1352 30.8924 29.5941 30.8411 29.9615C30.8017 30.2464 30.7668 30.471 30.8099 30.68C30.9542 31.4349 31.2777 32.1675 31.5968 32.8563C32.1386 34.0627 32.9715 35.1157 34.0208 35.9206C34.2439 36.0939 34.4827 36.262 34.7378 36.4413C35.5745 37.0259 36.5229 37.6879 36.9996 38.7738C37.1711 39.1906 37.2758 39.6319 37.3098 40.0813C37.3283 40.3082 37.2559 40.5331 37.1087 40.7066C36.9614 40.8801 36.7512 40.988 36.5243 41.0066C36.5005 41.0073 36.4767 41.0081 36.4529 41.0081Z" fill="#83AEB5"/>
<path d="M36.453 41.0781C36.22 41.0767 35.9959 40.9883 35.8247 40.8302C35.6535 40.672 35.5476 40.4557 35.5277 40.2235C35.5103 39.9706 35.4539 39.722 35.3604 39.4864C35.0882 38.8631 34.421 38.3975 33.7144 37.9051C33.4481 37.7192 33.1752 37.5288 32.9148 37.3242C31.6457 36.3434 30.6362 35.0665 29.9747 33.6053C29.6087 32.8177 29.2361 31.969 29.0539 31.014C28.9579 30.5142 29.0174 30.0873 29.0702 29.7109C29.1111 29.4134 29.1446 29.1843 29.0985 28.9575C29.0508 28.7155 29.1011 28.4645 29.2384 28.2597C29.3757 28.0549 29.5888 27.913 29.8308 27.8652C30.0727 27.8175 30.3237 27.8678 30.5285 28.0052C30.7334 28.1425 30.8753 28.3556 30.923 28.5975C31.0286 29.1338 30.9639 29.5964 30.9118 29.9683C30.8724 30.2472 30.8419 30.4666 30.8799 30.6637C31.0227 31.4075 31.344 32.1401 31.6616 32.8207C32.1976 34.0185 33.0235 35.0639 34.0647 35.8627C34.2812 36.0338 34.5192 36.1996 34.7713 36.3752C35.6229 36.9702 36.5809 37.6396 37.0636 38.7419C37.2388 39.1659 37.3457 39.615 37.3805 40.0725C37.4 40.3183 37.3214 40.5618 37.1618 40.7497C37.0022 40.9376 36.7746 41.0546 36.5289 41.0751C36.5043 41.0766 36.479 41.0781 36.453 41.0781ZM30.0126 27.9913C29.9609 27.9916 29.9094 27.9969 29.8586 28.0069C29.6536 28.0475 29.4731 28.1679 29.3568 28.3415C29.2405 28.5152 29.1979 28.7279 29.2383 28.9329C29.2882 29.1828 29.2547 29.4246 29.2116 29.731C29.1602 30.1029 29.1022 30.5135 29.1945 30.9902C29.3737 31.9289 29.7419 32.7686 30.1034 33.5481C30.7568 34.9882 31.7526 36.2466 33.0041 37.2134C33.2614 37.4157 33.5329 37.6046 33.7955 37.7883C34.5199 38.2941 35.2034 38.7709 35.492 39.4306C35.5912 39.681 35.6514 39.9452 35.6705 40.2138C35.6875 40.4219 35.7864 40.6148 35.9456 40.7499C36.1048 40.8851 36.3111 40.9515 36.5192 40.9345C36.7273 40.9176 36.9202 40.8186 37.0553 40.6595C37.1905 40.5003 37.2569 40.294 37.2399 40.0859C37.2063 39.644 37.1031 39.2103 36.9342 38.8006C36.4679 37.7341 35.5277 37.0773 34.6977 36.4986C34.4374 36.3172 34.1971 36.1498 33.9777 35.978C32.9198 35.1653 32.0807 34.1023 31.5359 32.8846C31.2146 32.1937 30.8895 31.4551 30.7437 30.692C30.7013 30.4688 30.7333 30.2457 30.7735 29.9519C30.8248 29.589 30.8873 29.139 30.7869 28.6272C30.7514 28.448 30.6548 28.2866 30.5136 28.1706C30.3724 28.0547 30.1953 27.9913 30.0126 27.9913Z" fill="#83AEB5"/>
<path d="M40.9272 41.3526C40.7833 41.3524 40.6417 41.3161 40.5155 41.2469C40.3893 41.1777 40.2825 41.078 40.2049 40.9567C40.1273 40.8355 40.0814 40.6968 40.0714 40.5532C40.0614 40.4096 40.0877 40.2658 40.1477 40.1351C40.3687 39.655 40.5583 39.1611 40.7152 38.6564C40.826 38.3001 40.893 37.4894 40.806 36.797C40.7845 36.5745 40.8506 36.3524 40.9903 36.1778C41.1299 36.0033 41.3321 35.8901 41.5539 35.8622C41.7757 35.8343 41.9996 35.894 42.1781 36.0285C42.3566 36.163 42.4757 36.3619 42.51 36.5828C42.6193 37.4574 42.5553 38.5166 42.3545 39.1637C42.175 39.7388 41.9586 40.3018 41.7067 40.8491C41.6388 40.999 41.5291 41.1261 41.3909 41.2154C41.2527 41.3047 41.0917 41.3523 40.9272 41.3526Z" fill="#83AEB5"/>
<path d="M40.9271 41.4302C40.7712 41.43 40.6179 41.3906 40.4812 41.3157C40.3446 41.2407 40.2289 41.1327 40.1449 41.0014C40.0608 40.8701 40.0111 40.7198 40.0003 40.5644C39.9895 40.4089 40.0179 40.2531 40.0829 40.1115C40.3021 39.6342 40.4905 39.1433 40.6467 38.6418C40.756 38.2922 40.8207 37.4949 40.7352 36.8151C40.72 36.6939 40.7288 36.5709 40.7612 36.4532C40.7935 36.3354 40.8487 36.2252 40.9237 36.1288C41.075 35.9341 41.2975 35.8074 41.5422 35.7768C41.7869 35.7461 42.0338 35.8139 42.2285 35.9652C42.3249 36.0402 42.4056 36.1333 42.466 36.2395C42.5264 36.3456 42.5653 36.4626 42.5805 36.5838C42.6913 37.4681 42.6259 38.5414 42.4221 39.1944C42.2423 39.7727 42.0251 40.3386 41.772 40.8887C41.6975 41.0501 41.5783 41.1869 41.4286 41.2828C41.2789 41.3787 41.1049 41.4299 40.9271 41.4302ZM41.6605 35.9121C41.6269 35.9121 41.5933 35.9144 41.5601 35.9188C41.353 35.945 41.1648 36.0523 41.0368 36.2171C40.9087 36.382 40.8514 36.5909 40.8773 36.798C40.9643 37.4964 40.8966 38.3205 40.7836 38.6842C40.6256 39.1919 40.4348 39.6888 40.2123 40.1717C40.1691 40.2657 40.1448 40.3672 40.1408 40.4705C40.1368 40.5738 40.1532 40.6768 40.1891 40.7738C40.2249 40.8708 40.2795 40.9597 40.3497 41.0356C40.42 41.1115 40.5044 41.1728 40.5984 41.216C40.6923 41.2592 40.7938 41.2835 40.8971 41.2875C41.0004 41.2915 41.1035 41.2751 41.2004 41.2393C41.2974 41.2034 41.3864 41.1488 41.4622 41.0786C41.5381 41.0084 41.5994 40.9239 41.6426 40.83C41.8928 40.2853 42.1077 39.7251 42.286 39.1528C42.4838 38.5168 42.547 37.4681 42.4385 36.6024C42.4158 36.4118 42.3241 36.236 42.1808 36.1083C42.0375 35.9807 41.8524 35.9098 41.6605 35.9091V35.9121Z" fill="#83AEB5"/>
<path d="M48.5861 58.8336C47.8176 58.8275 47.0528 58.7276 46.3086 58.5361C45.9285 58.4409 44.9371 58.1099 43.0709 57.4836C39.5261 56.2936 31.2263 53.5059 30.0117 53.6747C29.2359 53.7826 28.2809 54.0846 27.1742 54.5717C26.9654 54.664 26.7285 54.6695 26.5157 54.587C26.3028 54.5046 26.1314 54.341 26.0392 54.1322C25.947 53.9234 25.9415 53.6865 26.0239 53.4736C26.1063 53.2608 26.27 53.0894 26.4788 52.9972C27.732 52.446 28.8403 52.1046 29.7737 51.9715C31.117 51.7855 35.866 53.2538 43.6147 55.8533C45.1022 56.3531 46.3904 56.7845 46.7222 56.8678C48.2097 57.2397 49.1134 57.0909 49.2465 57.0679C51.4578 56.3709 53.8684 54.275 57.199 51.3787C58.8204 49.9655 60.6583 48.3701 62.8287 46.6185C63.9042 45.7505 64.8532 44.9919 65.6357 44.3671C66.642 43.5623 67.5264 42.8557 67.8276 42.5925C67.8416 42.4551 67.8057 42.3172 67.7264 42.2042C67.5033 41.894 66.9083 41.7259 66.099 41.7393C64.3936 41.7698 58.6271 45.3757 53.8118 48.922C52.2499 50.0749 51.3879 50.9153 51.3804 50.9235C51.3002 51.0027 51.2051 51.0654 51.1007 51.1078C50.9962 51.1503 50.8845 51.1718 50.7717 51.1711C50.659 51.1704 50.5474 51.1474 50.4436 51.1036C50.3397 51.0598 50.2454 50.9959 50.1662 50.9157C50.087 50.8355 50.0244 50.7404 49.9819 50.636C49.9394 50.5315 49.9179 50.4197 49.9186 50.307C49.9194 50.1942 49.9423 50.0827 49.9861 49.9788C50.0299 49.8749 50.0938 49.7807 50.174 49.7015C50.212 49.6643 51.1179 48.774 52.7936 47.5401C55.1737 45.79 63.1507 40.0755 66.0678 40.0234H66.1957C68.3527 40.0234 69.1069 41.0313 69.3657 41.6397C69.6803 42.3834 69.5777 43.276 69.1262 43.7297C68.9031 43.9528 68.2248 44.4965 66.7075 45.7096C65.9265 46.3337 64.9804 47.0893 63.9064 47.9558C61.7613 49.6874 59.9354 51.2753 58.3281 52.6751C54.8226 55.7246 52.2893 57.9269 49.7226 58.7205L49.6824 58.7317C49.3222 58.8087 48.9542 58.8429 48.5861 58.8336Z" fill="#3B2222"/>
<path d="M48.5862 58.9081C47.8118 58.8997 47.0413 58.797 46.2916 58.6024C45.9071 58.5065 44.9156 58.1747 43.0488 57.5485L42.9744 57.5232C39.5976 56.3904 31.689 53.7366 30.1398 53.7366C30.1012 53.736 30.0627 53.738 30.0245 53.7426C29.2547 53.8497 28.3063 54.1494 27.2056 54.6351C26.9811 54.7269 26.7297 54.7274 26.5048 54.6366C26.28 54.5458 26.0995 54.3708 26.0018 54.1489C25.904 53.9269 25.8968 53.6756 25.9816 53.4485C26.0664 53.2213 26.2366 53.0362 26.4558 52.9326C27.7143 52.3792 28.8292 52.0319 29.7686 51.9017C31.1327 51.7113 35.8267 53.1661 43.6423 55.7865C45.1365 56.2878 46.4166 56.7169 46.7446 56.7995C47.3469 56.9565 47.966 57.0397 48.5884 57.0472C48.8061 57.051 49.0237 57.0348 49.2385 56.9988C51.4282 56.3079 53.8313 54.2178 57.1567 51.3253C58.7826 49.9121 60.6198 48.3145 62.7886 46.5651C63.8649 45.6971 64.8139 44.9392 65.5964 44.3137C66.5864 43.5223 67.4447 42.8365 67.7638 42.5599C67.7696 42.4488 67.7379 42.339 67.6738 42.2482C67.4685 41.9604 66.8965 41.8019 66.1051 41.8131C64.4153 41.8436 58.6674 45.4427 53.8588 48.9816C52.3006 50.13 51.4438 50.9683 51.4349 50.9764C51.2585 51.145 51.0229 51.2375 50.7789 51.234C50.535 51.2304 50.3022 51.1311 50.1308 50.9575C49.9594 50.7838 49.8631 50.5498 49.8628 50.3058C49.8624 50.0618 49.9579 49.8274 50.1288 49.6533C50.1667 49.6153 51.0793 48.7198 52.7566 47.4844C55.1366 45.7313 63.133 40.0072 66.0702 39.9544C68.3692 39.9113 69.1673 40.9808 69.435 41.613C69.7608 42.3784 69.6515 43.3111 69.1807 43.7811C68.9575 44.0043 68.2762 44.5509 66.7552 45.7655C65.9742 46.3903 65.0289 47.146 63.9556 48.0125C61.8135 49.741 59.9898 51.3268 58.3817 52.7251C54.8637 55.7842 52.3266 57.991 49.745 58.7891L49.7004 58.8017C49.3345 58.8809 48.9605 58.9166 48.5862 58.9081ZM30.1405 53.5938C31.7128 53.5938 39.3507 56.1561 43.0205 57.3871L43.0949 57.4124C44.958 58.0379 45.948 58.3689 46.3266 58.4633C47.0651 58.6549 47.8241 58.756 48.5869 58.7646C48.9493 58.7727 49.3113 58.7377 49.6654 58.6604L49.7026 58.65C52.2552 57.8609 54.7833 55.6623 58.2821 52.6195C59.8968 51.2152 61.7213 49.6287 63.8656 47.8979C64.9389 47.0322 65.8857 46.2758 66.6667 45.6517C68.1832 44.4394 68.8623 43.8949 69.0802 43.677C69.5116 43.2456 69.6076 42.3806 69.3034 41.6688C69.0483 41.0693 68.2933 40.0555 66.0724 40.0965C63.1761 40.1485 55.2133 45.8526 52.8391 47.5997C51.1701 48.8292 50.2649 49.7172 50.227 49.7567C50.0861 49.9049 50.0084 50.1021 50.0104 50.3066C50.0124 50.5111 50.0939 50.7067 50.2377 50.8521C50.3814 50.9976 50.5762 51.0813 50.7806 51.0856C50.9851 51.0899 51.1832 51.0145 51.333 50.8753C51.3404 50.8679 52.2024 50.0237 53.7718 48.8671C58.5967 45.3141 64.3803 41.7015 66.1007 41.6703C66.9486 41.6562 67.551 41.8332 67.7876 42.1649C67.8774 42.292 67.9179 42.4475 67.9014 42.6022C67.8992 42.62 67.8908 42.6363 67.8776 42.6484C67.5741 42.9139 66.6979 43.6153 65.6834 44.4252C64.9002 45.05 63.9519 45.8079 62.8764 46.6767C60.709 48.4253 58.8734 50.0237 57.2527 51.4309C53.9057 54.3391 51.4966 56.4365 49.2712 57.1387C49.045 57.1777 48.8157 57.1954 48.5862 57.1915C47.9527 57.1828 47.3226 57.0974 46.7096 56.9371C46.3757 56.8538 45.0927 56.4231 43.6081 55.9248C36.4321 53.5172 31.6645 52.0274 30.0401 52.0274C29.9558 52.0268 29.8716 52.0318 29.788 52.0423C28.8605 52.171 27.7589 52.5146 26.5153 53.0627C26.3504 53.1359 26.2157 53.2634 26.1335 53.424C26.0514 53.5846 26.0268 53.7686 26.064 53.9451C26.1012 54.1216 26.1978 54.28 26.3378 54.3938C26.4778 54.5076 26.6525 54.57 26.8329 54.5704C26.9421 54.5705 27.05 54.5477 27.1498 54.5035C28.2654 54.0133 29.2242 53.7098 30.0066 53.6012C30.0501 53.596 30.0938 53.5935 30.1375 53.5938H30.1405Z" fill="#3B2222"/>
<path d="M24.7424 55.844C24.2961 55.844 24.0477 55.4722 24.0343 55.4484C23.9882 55.374 23.6066 54.7276 24.3853 54.1958C24.4827 54.1345 24.5912 54.0932 24.7047 54.0743C24.8182 54.0554 24.9343 54.0592 25.0462 54.0857C25.1582 54.1121 25.2638 54.1605 25.3568 54.2282C25.4498 54.2958 25.5285 54.3813 25.5881 54.4797C25.6478 54.5781 25.6872 54.6873 25.7042 54.8011C25.7212 54.9148 25.7153 55.0309 25.687 55.1423C25.6587 55.2538 25.6085 55.3586 25.5392 55.4504C25.47 55.5423 25.3832 55.6195 25.2838 55.6774C25.1218 55.7812 24.9346 55.8388 24.7424 55.844Z" fill="#3B2222"/>
<path d="M24.742 55.9131C24.263 55.9131 24.002 55.5286 23.9737 55.4847C23.9239 55.4059 23.5118 54.7037 24.3456 54.134C24.5259 54.0112 24.7436 53.9557 24.9607 53.9772C25.1777 53.9986 25.3804 54.0956 25.5332 54.2513C25.686 54.4069 25.7793 54.6113 25.7967 54.8287C25.8141 55.0461 25.7546 55.2628 25.6286 55.4408C25.5512 55.5629 25.4459 55.6649 25.3214 55.7383C25.1477 55.848 24.9474 55.9084 24.742 55.9131ZM24.8685 54.1146C24.7092 54.1139 24.5534 54.1619 24.4222 54.2522C23.7186 54.7357 24.0235 55.2995 24.0979 55.4111C24.1068 55.4252 24.3352 55.7733 24.7457 55.7733C24.925 55.7674 25.0995 55.7135 25.2508 55.6171C25.3568 55.5543 25.4465 55.4674 25.5126 55.3635C25.5968 55.2457 25.6469 55.1071 25.6574 54.9627C25.668 54.8184 25.6386 54.6739 25.5724 54.5452C25.5062 54.4165 25.4059 54.3085 25.2824 54.233C25.1588 54.1576 25.0169 54.1177 24.8722 54.1176L24.8685 54.1146Z" fill="#3B2222"/>
<path d="M48.7683 48.5315C45.5411 48.5315 41.8512 48.3828 40.743 48.3389C40.6304 48.334 40.5198 48.307 40.4176 48.2594C40.3154 48.2117 40.2236 48.1445 40.1475 48.0614C40.0713 47.9783 40.0122 47.881 39.9736 47.7751C39.9351 47.6692 39.9177 47.5567 39.9226 47.4441C39.9275 47.3315 39.9545 47.2209 40.0021 47.1188C40.0497 47.0166 40.117 46.9248 40.2001 46.8486C40.2831 46.7724 40.3804 46.7134 40.4863 46.6748C40.5923 46.6362 40.7047 46.6188 40.8174 46.6237C45.4042 46.8186 52.3124 46.9376 53.3128 46.591C53.887 46.3924 54.2299 45.7847 54.2299 44.9658C54.2299 44.2771 53.4117 43.8703 53.0503 43.7237C51.9599 43.366 37.5425 40.8884 34.6923 41.5578C33.3119 41.8814 29.2962 43.5787 26.1493 45.0194C26.0468 45.0663 25.936 45.0925 25.8233 45.0966C25.7106 45.1006 25.5982 45.0825 25.4925 45.0431C25.3868 45.0037 25.29 44.9439 25.2074 44.8671C25.1248 44.7903 25.0582 44.698 25.0113 44.5954C24.9644 44.4929 24.9382 44.3821 24.9342 44.2694C24.9301 44.1567 24.9483 44.0443 24.9876 43.9386C25.027 43.833 25.0868 43.7361 25.1636 43.6535C25.2404 43.571 25.3327 43.5043 25.4353 43.4575C26.1196 43.1443 32.1851 40.3819 34.3004 39.8873C37.7046 39.0892 52.7059 41.7378 53.6773 42.1261C55.1195 42.7033 55.9465 43.7386 55.9465 44.9666C55.9465 46.5285 55.1529 47.7714 53.8751 48.2139C53.1715 48.4556 51.0912 48.5315 48.7683 48.5315Z" fill="#3B2222"/>
<path d="M48.768 48.6052C45.5259 48.6052 41.8025 48.4564 40.7396 48.4118C40.4931 48.4019 40.2605 48.2945 40.0931 48.1132C39.9257 47.9319 39.8372 47.6915 39.8471 47.4449C39.857 47.1983 39.9644 46.9658 40.1457 46.7984C40.327 46.631 40.5674 46.5425 40.814 46.5524C43.5452 46.6684 46.6683 46.7405 48.9651 46.7405C51.3809 46.7405 52.8736 46.6662 53.279 46.5241C53.8227 46.3352 54.147 45.7528 54.147 44.9659C54.147 44.3181 53.3541 43.9246 53.0127 43.7892C52.0347 43.4694 40.6734 41.5148 36.1327 41.5148C35.4982 41.5148 35.017 41.5527 34.6979 41.6271C33.3212 41.9499 29.3115 43.6457 26.1683 45.0842C26.0471 45.1403 25.9151 45.1692 25.7815 45.1689C25.5692 45.1692 25.3631 45.0968 25.1977 44.9637C25.0322 44.8307 24.9173 44.6449 24.872 44.4375C24.8267 44.23 24.8538 44.0133 24.9488 43.8234C25.0437 43.6335 25.2009 43.4818 25.394 43.3935C26.0798 43.0797 32.1498 40.3151 34.2732 39.8167C34.7002 39.7163 35.3294 39.668 36.1431 39.668C41.4276 39.668 52.8461 41.723 53.6962 42.0614C55.1667 42.6498 56.0101 43.7097 56.0101 44.9681C56.0101 46.5598 55.1987 47.8302 53.8919 48.2831C53.2782 48.4951 51.5534 48.6052 48.768 48.6052ZM40.7806 46.6967C40.5747 46.6965 40.3771 46.7769 40.2298 46.9207C40.0826 47.0646 39.9976 47.2603 39.9931 47.4661C39.9885 47.6718 40.0647 47.8712 40.2054 48.0214C40.3461 48.1717 40.54 48.2608 40.7456 48.2697C41.8085 48.3144 45.5281 48.4624 48.768 48.4624C51.5371 48.4624 53.2463 48.3568 53.8472 48.1478C55.0953 47.7156 55.8696 46.4973 55.8696 44.9681C55.8696 43.7706 55.0596 42.7591 53.6457 42.1938C52.8022 41.8569 41.4209 39.8138 36.1491 39.8138C35.3465 39.8138 34.7284 39.8636 34.3119 39.9625C32.2018 40.4571 26.1438 43.2173 25.461 43.5326C25.2979 43.6077 25.1654 43.7362 25.0853 43.8968C25.0052 44.0575 24.9825 44.2407 25.0207 44.4161C25.059 44.5914 25.156 44.7485 25.2957 44.8612C25.4354 44.9739 25.6095 45.0355 25.789 45.0358C25.9022 45.0352 26.0139 45.0098 26.1162 44.9614C29.2661 43.5192 33.287 41.8197 34.6697 41.4947C34.9977 41.4203 35.4915 41.3787 36.1371 41.3787C40.6883 41.3787 52.08 43.3393 53.0655 43.6621C53.4374 43.8108 54.2942 44.2385 54.2942 44.9726C54.2942 45.8235 53.9335 46.4564 53.3273 46.6654C52.8982 46.8142 51.4307 46.8886 48.9643 46.8886C46.6661 46.8886 43.54 46.8142 40.8081 46.6996L40.7806 46.6967Z" fill="#3B2222"/>
<path d="M23.5548 46.1557C23.3757 46.158 23.2003 46.1045 23.053 46.0025C22.9057 45.9006 22.7938 45.7552 22.7329 45.5867C22.7054 45.5124 22.4867 44.8273 23.2766 44.4621C23.3789 44.4148 23.4896 44.3881 23.6022 44.3835C23.7148 44.3789 23.8273 44.3966 23.9331 44.4355C24.0389 44.4744 24.136 44.5337 24.2189 44.6101C24.3018 44.6866 24.3688 44.7786 24.4161 44.8809C24.449 44.9537 24.4722 45.0304 24.4853 45.1092C24.53 45.3245 24.4903 45.5487 24.3745 45.7356C24.2586 45.9224 24.0754 46.0577 23.8627 46.1133C23.7623 46.1405 23.6588 46.1548 23.5548 46.1557Z" fill="#3B2222"/>
<path d="M23.5546 46.2246C23.3602 46.2279 23.1696 46.1703 23.0095 46.0598C22.8495 45.9494 22.728 45.7917 22.6621 45.6087C22.6323 45.5254 22.3958 44.7861 23.2429 44.3949C23.365 44.338 23.498 44.3085 23.6327 44.3086C23.8611 44.313 24.0804 44.3993 24.2506 44.5516C24.4209 44.704 24.5308 44.9124 24.5604 45.139C24.5901 45.3655 24.5374 45.5952 24.4121 45.7862C24.2867 45.9772 24.097 46.1169 23.8774 46.18C23.7721 46.2085 23.6637 46.2235 23.5546 46.2246ZM23.6357 44.4507C23.5217 44.4508 23.4092 44.4762 23.3062 44.525C22.5743 44.8635 22.7744 45.492 22.7997 45.5611C22.8557 45.7157 22.9585 45.8489 23.0938 45.9422C23.2292 46.0356 23.3902 46.0843 23.5546 46.0818C23.6526 46.0809 23.7501 46.0674 23.8447 46.0416C24.0398 45.9907 24.2078 45.8667 24.314 45.6953C24.4202 45.5239 24.4564 45.3182 24.4152 45.1208C24.4036 45.0473 24.3821 44.9758 24.3512 44.9081C24.2876 44.7718 24.1866 44.6564 24.0599 44.5754C23.9332 44.4944 23.7861 44.4511 23.6357 44.4507Z" fill="#3B2222"/>
<path d="M50.6611 51.053C50.4807 51.0531 50.305 50.9961 50.1591 50.8901C49.3156 50.2802 47.0411 49.0574 45.7336 48.51C45.6295 48.4665 45.5351 48.403 45.4556 48.323C45.3762 48.2431 45.3132 48.1482 45.2704 48.0439C45.1839 47.8333 45.1846 47.597 45.2724 47.3869C45.3602 47.1768 45.5278 47.0102 45.7385 46.9237C45.9491 46.8372 46.1854 46.838 46.3955 46.9257C47.689 47.4665 50.1442 48.7599 51.1646 49.4985C51.3117 49.6048 51.4212 49.755 51.4775 49.9275C51.5338 50.1 51.534 50.2859 51.4781 50.4585C51.4221 50.6311 51.3129 50.7816 51.1662 50.8882C51.0194 50.9949 50.8426 51.0523 50.6611 51.0522V51.053Z" fill="#3B2222"/>
<path d="M50.6612 51.1225C50.4659 51.1227 50.2755 51.061 50.1175 50.9462C49.277 50.3378 47.0093 49.1195 45.7062 48.5751C45.5933 48.528 45.4909 48.4592 45.4047 48.3725C45.3185 48.2858 45.2502 48.183 45.2037 48.07C45.1572 47.9569 45.1335 47.8358 45.1338 47.7136C45.1341 47.5913 45.1585 47.4703 45.2056 47.3575C45.2527 47.2447 45.3215 47.1423 45.4082 47.0561C45.4948 46.9698 45.5976 46.9016 45.7107 46.8551C45.8238 46.8086 45.9449 46.7848 46.0671 46.7852C46.1894 46.7855 46.3103 46.8099 46.4232 46.857C47.7203 47.3992 50.1829 48.6963 51.2071 49.4371C51.3665 49.5523 51.4852 49.7151 51.5462 49.902C51.6073 50.0889 51.6075 50.2904 51.5468 50.4774C51.4861 50.6644 51.3677 50.8274 51.2086 50.9429C51.0495 51.0584 50.8578 51.1205 50.6612 51.1203V51.1225ZM46.0647 46.9313C45.8825 46.931 45.706 46.9938 45.565 47.1091C45.424 47.2244 45.3274 47.385 45.2916 47.5636C45.2558 47.7421 45.283 47.9276 45.3687 48.0883C45.4543 48.249 45.593 48.375 45.7612 48.4449C47.071 48.9923 49.3536 50.2196 50.2008 50.8317C50.2845 50.8922 50.3794 50.9357 50.48 50.9596C50.5805 50.9835 50.6848 50.9874 50.7868 50.971C50.8889 50.9546 50.9867 50.9182 51.0747 50.864C51.1627 50.8098 51.2392 50.7388 51.2997 50.655C51.3603 50.5713 51.4037 50.4764 51.4276 50.3759C51.4515 50.2753 51.4554 50.171 51.439 50.069C51.4226 49.9669 51.3862 49.8691 51.332 49.7811C51.2778 49.6931 51.2068 49.6167 51.1231 49.5561C50.1063 48.8213 47.6586 47.5316 46.3681 46.9923C46.2721 46.9519 46.1689 46.9312 46.0647 46.9313Z" fill="#3B2222"/>
<path d="M61.5665 22.709C61.3801 22.7093 61.1987 22.6488 61.0497 22.5368C60.9007 22.4248 60.7922 22.2674 60.7406 22.0882C60.689 21.9091 60.6971 21.7181 60.7638 21.544C60.8304 21.3699 60.9518 21.2222 61.1098 21.1233C62.5059 20.2486 65.7733 18.2002 65.9071 15.748C65.9711 14.5818 64.9596 13.362 63.8655 13.2854C63.5412 13.263 63.263 13.2891 63.1009 13.3597C62.5802 13.5829 62.1496 13.9458 62.0968 14.0886C62.0673 14.199 62.0162 14.3023 61.9463 14.3926C61.8764 14.4829 61.7892 14.5583 61.6898 14.6145C61.5905 14.6707 61.4808 14.7065 61.3674 14.7198C61.254 14.7331 61.1391 14.7236 61.0294 14.6919C60.9197 14.6603 60.8175 14.607 60.7286 14.5354C60.6397 14.4637 60.5661 14.375 60.5119 14.2745C60.4577 14.1739 60.4242 14.0636 60.4132 13.95C60.4022 13.8364 60.414 13.7217 60.4478 13.6126C60.7558 12.5386 62.1533 11.8975 62.4307 11.7792C62.8517 11.6007 63.3738 11.5323 63.9852 11.5747C66.0031 11.716 67.7361 13.751 67.6208 15.8432C67.4609 18.7878 64.7 20.9009 62.0209 22.5796C61.8848 22.6651 61.7272 22.71 61.5665 22.709Z" fill="#3B2222"/>
<path d="M61.5663 22.7812C61.3645 22.7813 61.1681 22.7158 61.0068 22.5945C60.8455 22.4732 60.7281 22.3027 60.6722 22.1087C60.6164 21.9148 60.6251 21.708 60.6972 21.5195C60.7693 21.3309 60.9007 21.171 61.0717 21.0638C62.4581 20.195 65.7039 18.163 65.8356 15.7443C65.8973 14.6137 64.9193 13.4311 63.8601 13.3575C63.5485 13.3352 63.2777 13.3612 63.129 13.4244C62.6136 13.6431 62.206 13.9986 62.1621 14.1117C62.1058 14.3048 61.9883 14.4744 61.8274 14.5951C61.6665 14.7158 61.4707 14.7811 61.2696 14.7811C61.1828 14.781 61.0964 14.769 61.013 14.7454C60.7761 14.6767 60.576 14.5171 60.4565 14.3013C60.3371 14.0855 60.308 13.8312 60.3755 13.594C60.6931 12.4888 62.1175 11.8342 62.3993 11.7145C62.83 11.5323 63.3663 11.4609 63.9866 11.5047C66.0409 11.6483 67.8059 13.7182 67.6891 15.8484C67.5269 18.8235 64.7504 20.9522 62.0565 22.6413C61.9094 22.7329 61.7396 22.7814 61.5663 22.7812ZM63.6489 13.2065C63.7233 13.2065 63.7976 13.2065 63.872 13.2147C65.0018 13.2935 66.0453 14.5535 65.9791 15.7525C65.8438 18.2426 62.5578 20.3036 61.1491 21.182C60.9722 21.2929 60.8467 21.4695 60.8 21.6729C60.7533 21.8764 60.7894 22.09 60.9003 22.2668C61.0111 22.4437 61.1877 22.5692 61.3911 22.6159C61.5946 22.6626 61.8082 22.6265 61.9851 22.5156C64.6485 20.8466 67.3923 18.7469 67.5515 15.8358C67.6638 13.78 65.9628 11.7807 63.9814 11.6423C63.3863 11.6007 62.8657 11.6684 62.4596 11.8417C62.1881 11.957 60.8166 12.5855 60.5176 13.6267C60.4889 13.7262 60.4802 13.8304 60.4918 13.9332C60.5034 14.0361 60.5352 14.1357 60.5853 14.2262C60.6538 14.3489 60.7536 14.4512 60.8746 14.5226C60.9957 14.5939 61.1335 14.6318 61.274 14.6323C61.4445 14.6318 61.6102 14.576 61.7464 14.4735C61.8826 14.3709 61.982 14.227 62.0297 14.0633C62.0974 13.8789 62.5674 13.504 63.071 13.2883C63.2557 13.2248 63.4508 13.197 63.6459 13.2065H63.6489Z" fill="#3B2222"/>
<path d="M61.2327 22.7112C61.0718 22.7113 60.9142 22.6656 60.7783 22.5795C58.6696 21.2579 55.1397 19.0466 54.9634 15.8439C54.8488 13.7502 56.5826 11.7159 58.6005 11.5746C59.2111 11.5322 59.7332 11.6014 60.1542 11.7791C60.4317 11.8974 61.83 12.5385 62.1379 13.6126C62.1944 13.8292 62.164 14.0593 62.0533 14.2538C61.9425 14.4484 61.7602 14.5919 61.5451 14.6539C61.33 14.7159 61.0992 14.6914 60.9019 14.5857C60.7046 14.4799 60.5564 14.3013 60.4889 14.0878C60.4346 13.9443 60.0077 13.5821 59.4833 13.3597C59.3219 13.2912 59.0445 13.2652 58.7202 13.2853C57.6261 13.3597 56.6138 14.5817 56.6778 15.7479C56.805 18.0618 59.8627 19.9778 61.6894 21.1232C61.8474 21.2222 61.9688 21.3698 62.0354 21.5439C62.102 21.718 62.1102 21.9091 62.0586 22.0882C62.007 22.2673 61.8985 22.4247 61.7495 22.5367C61.6005 22.6487 61.4191 22.7092 61.2327 22.709V22.7112Z" fill="#3B2222"/>
<path d="M61.2319 22.7834C61.0576 22.7834 60.8869 22.7341 60.7395 22.6413C58.619 21.3122 55.0697 19.0876 54.8912 15.8484C54.7751 13.7182 56.5401 11.6483 58.5944 11.5047C59.2147 11.4609 59.751 11.5323 60.1809 11.7145C60.4635 11.8342 61.8916 12.4895 62.2062 13.594C62.2737 13.831 62.2446 14.0851 62.1251 14.3007C62.0056 14.5162 61.8056 14.6756 61.5688 14.7439C61.4853 14.7678 61.399 14.78 61.3122 14.7803C61.1112 14.7796 60.9158 14.7141 60.755 14.5935C60.5942 14.4729 60.4766 14.3037 60.4197 14.1109C60.3773 13.9994 59.9771 13.6498 59.4527 13.4282C59.304 13.3657 59.0347 13.3396 58.7224 13.362C57.6632 13.4363 56.6844 14.6182 56.7454 15.7487C56.8711 18.0262 59.9087 19.9295 61.7235 21.0675C61.8948 21.1745 62.0265 21.3345 62.0988 21.523C62.1712 21.7116 62.1801 21.9186 62.1243 22.1128C62.0685 22.3069 61.951 22.4775 61.7896 22.5989C61.6282 22.7203 61.4316 22.7859 61.2296 22.7856L61.2319 22.7834ZM58.9418 11.6349C58.8332 11.6349 58.7186 11.6386 58.6048 11.6468C56.6234 11.7852 54.9216 13.7844 55.0347 15.8402C55.2087 19.0065 58.7186 21.2058 60.8153 22.5201C60.9922 22.6311 61.2059 22.6672 61.4094 22.6206C61.6129 22.574 61.7896 22.4485 61.9005 22.2717C62.0115 22.0948 62.0476 21.8812 62.001 21.6776C61.9545 21.4741 61.8289 21.2975 61.6521 21.1865C59.812 20.0336 56.7357 18.105 56.6063 15.7569C56.5409 14.555 57.5851 13.298 58.7157 13.2192C59.0556 13.1961 59.3397 13.2244 59.5115 13.2935C60.0173 13.5077 60.4881 13.8826 60.5528 14.0619C60.5997 14.2266 60.699 14.3717 60.8356 14.4751C60.9721 14.5785 61.1386 14.6348 61.31 14.6353C61.3834 14.6354 61.4564 14.6254 61.5271 14.6056C61.6265 14.577 61.7192 14.5292 61.8001 14.4649C61.881 14.4005 61.9484 14.3209 61.9984 14.2304C62.0485 14.14 62.0803 14.0407 62.0919 13.938C62.1036 13.8353 62.0949 13.7313 62.0664 13.632C61.7689 12.5907 60.3951 11.9599 60.1229 11.8469C59.7472 11.6984 59.3457 11.6263 58.9418 11.6349Z" fill="#3B2222"/>
<path d="M18.32 73.955C19.45 73.955 20.34 73.455 20.73 72.595L19.52 71.935C19.23 72.455 18.8 72.675 18.31 72.675C17.52 72.675 16.9 72.125 16.9 71.185C16.9 70.245 17.52 69.695 18.31 69.695C18.8 69.695 19.23 69.925 19.52 70.435L20.73 69.785C20.34 68.905 19.45 68.415 18.32 68.415C16.57 68.415 15.32 69.565 15.32 71.185C15.32 72.805 16.57 73.955 18.32 73.955ZM23.1182 69.205V68.495H21.6282V73.875H23.1882V71.335C23.1882 70.305 23.7582 69.835 24.6182 69.835C24.7382 69.835 24.8382 69.845 24.9682 69.855V68.415C24.1382 68.415 23.4982 68.685 23.1182 69.205ZM29.7948 68.495V71.155C29.7948 72.145 29.2748 72.605 28.5548 72.605C27.8648 72.605 27.4648 72.205 27.4648 71.305V68.495H25.9048V71.535C25.9048 73.195 26.8548 73.955 28.2048 73.955C28.8648 73.955 29.4648 73.705 29.8748 73.235V73.875H31.3548V68.495H29.7948ZM38.0701 71.205C38.0701 69.475 36.8501 68.415 35.2701 68.415C33.6301 68.415 32.4001 69.575 32.4001 71.185C32.4001 72.785 33.6101 73.955 35.4701 73.955C36.4401 73.955 37.1901 73.655 37.6901 73.085L36.8601 72.185C36.4901 72.535 36.0801 72.705 35.5101 72.705C34.6901 72.705 34.1201 72.295 33.9701 71.625H38.0401C38.0501 71.495 38.0701 71.325 38.0701 71.205ZM35.2801 69.595C35.9801 69.595 36.4901 70.035 36.6001 70.715H33.9501C34.0601 70.025 34.5701 69.595 35.2801 69.595ZM39.1087 73.875H40.6687V66.455H39.1087V73.875ZM45.5571 72.515C45.3871 72.645 45.1571 72.715 44.9271 72.715C44.5071 72.715 44.2571 72.465 44.2571 72.005V69.815H45.5971V68.615H44.2571V67.305H42.6971V68.615H41.8671V69.815H42.6971V72.025C42.6971 73.305 43.4371 73.955 44.7071 73.955C45.1871 73.955 45.6571 73.845 45.9771 73.615L45.5571 72.515ZM50.5952 68.495L49.0752 72.145L47.5652 68.495H45.9552L48.2852 73.915L48.2652 73.965C48.0552 74.445 47.8152 74.635 47.3852 74.635C47.0752 74.635 46.7452 74.505 46.5052 74.295L45.9352 75.405C46.2852 75.715 46.8852 75.895 47.4352 75.895C48.4052 75.895 49.1452 75.505 49.6652 74.205L52.0952 68.495H50.5952ZM57.2738 68.385C57.2738 67.855 57.5238 67.605 57.9838 67.605C58.2238 67.605 58.4438 67.675 58.6138 67.795L59.0238 66.665C58.7338 66.465 58.2738 66.375 57.8338 66.375C56.4938 66.375 55.7538 67.165 55.7538 68.375V68.615H54.9238V69.815H55.7538V73.875H57.3138V69.815H58.6538V68.615H57.2738V68.385ZM61.7217 69.205V68.495H60.2317V73.875H61.7917V71.335C61.7917 70.305 62.3617 69.835 63.2217 69.835C63.3417 69.835 63.4417 69.845 63.5717 69.855V68.415C62.7417 68.415 62.1017 68.685 61.7217 69.205ZM69.7205 71.205C69.7205 69.475 68.5005 68.415 66.9205 68.415C65.2805 68.415 64.0505 69.575 64.0505 71.185C64.0505 72.785 65.2605 73.955 67.1205 73.955C68.0905 73.955 68.8405 73.655 69.3405 73.085L68.5105 72.185C68.1405 72.535 67.7305 72.705 67.1605 72.705C66.3405 72.705 65.7705 72.295 65.6205 71.625H69.6905C69.7005 71.495 69.7205 71.325 69.7205 71.205ZM66.9305 69.595C67.6305 69.595 68.1405 70.035 68.2505 70.715H65.6005C65.7105 70.025 66.2205 69.595 66.9305 69.595ZM76.0291 71.205C76.0291 69.475 74.8091 68.415 73.2291 68.415C71.5891 68.415 70.3591 69.575 70.3591 71.185C70.3591 72.785 71.5691 73.955 73.4291 73.955C74.3991 73.955 75.1491 73.655 75.6491 73.085L74.8191 72.185C74.4491 72.535 74.0391 72.705 73.4691 72.705C72.6491 72.705 72.0791 72.295 71.9291 71.625H75.9991C76.0091 71.495 76.0291 71.325 76.0291 71.205ZM73.2391 69.595C73.9391 69.595 74.4491 70.035 74.5591 70.715H71.9091C72.0191 70.025 72.5291 69.595 73.2391 69.595Z" fill="#3B2222"/>
</g>
<defs>
<clipPath id="clip0_831_409">
<rect width="92.4583" height="78" fill="white"/>
</clipPath>
</defs>
</svg>
