<svg width="47" height="41" viewBox="0 0 47 41" fill="none" xmlns="http://www.w3.org/2000/svg">
<path d="M41.0586 25.2042C41.0586 36.421 29.2659 41.0007 18.8534 41.0007C8.44098 41.0007 2.09864e-05 31.9077 2.09864e-05 20.691C2.09864e-05 9.47425 11.7927 4.89452 22.2052 4.89452C32.6176 4.89452 41.0586 13.9875 41.0586 25.2042Z" fill="#82AEB4" fill-opacity="0.1"/>
<g clip-path="url(#clip0_787_1175)">
<path d="M36.3472 29.4831C35.7631 29.4831 35.2896 29.0844 35.2896 28.5924C35.2896 28.1005 35.7631 27.7018 36.3472 27.7018C38.303 27.7018 39.8941 26.3618 39.8941 24.7149C39.8941 24.223 40.3677 23.8242 40.9518 23.8242C41.536 23.8242 42.0095 24.223 42.0095 24.7149C42.0095 27.3442 39.4694 29.4831 36.3472 29.4831Z" fill="#82AEB4"/>
<path d="M36.3476 33.4955C34.9404 33.4955 33.5746 33.2633 32.2884 32.805C31.7501 32.6133 31.4983 32.0904 31.726 31.6371C31.9536 31.1839 32.5744 30.9718 33.1129 31.1636C34.1368 31.5282 35.2252 31.7131 36.3476 31.7131C40.9303 31.7131 44.6587 28.5735 44.6587 24.7143C44.6587 21.2036 39.3012 12.7698 36.3501 8.52387C35.455 9.815 34.0134 11.9506 32.5863 14.3018C32.3202 14.74 31.6827 14.9136 31.1623 14.6897C30.6419 14.4657 30.4356 13.9288 30.7016 13.4906C33.0415 9.63579 35.4207 6.34985 35.4445 6.31714C35.6367 6.05219 35.9789 5.89062 36.3476 5.89062C36.7163 5.89062 37.0583 6.05219 37.2506 6.31714C37.6395 6.853 46.7752 19.5023 46.7752 24.7143C46.7752 29.5563 42.0974 33.4955 36.3476 33.4955Z" fill="#82AEB4"/>
<path d="M23.3873 29.4831C22.8031 29.4831 22.3296 29.0844 22.3296 28.5924C22.3296 28.1005 22.8031 27.7018 23.3873 27.7018C25.343 27.7018 26.9342 26.3618 26.9342 24.7149C26.9342 24.223 27.4077 23.8242 27.9919 23.8242C28.576 23.8242 29.0495 24.223 29.0495 24.7149C29.0495 27.3442 26.5095 29.4831 23.3873 29.4831Z" fill="#82AEB4"/>
<path d="M23.3876 33.4957C21.9143 33.4957 20.4898 33.2419 19.1536 32.7414C18.6196 32.5413 18.3793 32.0146 18.6168 31.565C18.8543 31.1152 19.4798 30.9128 20.0138 31.1129C21.0776 31.5113 22.2127 31.7133 23.3876 31.7133C27.9703 31.7133 31.6987 28.5737 31.6987 24.7145C31.6987 21.2038 26.3412 12.77 23.3901 8.52405C22.495 9.81519 21.0534 11.9507 19.6264 14.3019C19.3603 14.7402 18.7228 14.9139 18.2024 14.6898C17.6819 14.4658 17.4756 13.9289 17.7417 13.4907C20.0815 9.63588 22.4608 6.34994 22.4845 6.31714C22.6767 6.05219 23.0189 5.89062 23.3876 5.89062C23.7563 5.89062 24.0983 6.05219 24.2906 6.31714C24.6795 6.85309 33.8152 19.5024 33.8152 24.7144C33.8152 29.5565 29.1375 33.4957 23.3876 33.4957Z" fill="#82AEB4"/>
<path d="M10.4277 33.4956C4.67787 33.4956 0 29.5564 0 24.7144C0 19.5023 9.13573 6.85309 9.52464 6.31714C9.71683 6.05219 10.059 5.89062 10.4277 5.89062C10.7964 5.89062 11.1384 6.05219 11.3307 6.31714C11.7196 6.85309 20.8554 19.5023 20.8554 24.7144C20.8554 29.5564 16.1776 33.4956 10.4277 33.4956ZM10.4278 8.52022C7.47721 12.7648 2.11654 21.2026 2.11654 24.7144C2.11654 28.5736 5.84493 31.7132 10.4277 31.7132C15.0105 31.7132 18.7389 28.5736 18.7389 24.7144C18.7389 21.2012 13.3784 12.7644 10.4278 8.52022Z" fill="#82AEB4"/>
<path d="M10.4268 29.4831C9.84266 29.4831 9.36914 29.0844 9.36914 28.5924C9.36914 28.1005 9.84266 27.7018 10.4268 27.7018C12.3827 27.7018 13.9738 26.3618 13.9738 24.7149C13.9738 24.223 14.4474 23.8242 15.0315 23.8242C15.6157 23.8242 16.0892 24.223 16.0892 24.7149C16.0892 27.3442 13.5491 29.4831 10.4268 29.4831Z" fill="#82AEB4"/>
</g>
<defs>
<clipPath id="clip0_787_1175">
<rect width="46.7753" height="39.3897" fill="white"/>
</clipPath>
</defs>
</svg>
