<svg width="93" height="106" viewBox="0 0 93 106" fill="none" xmlns="http://www.w3.org/2000/svg">
<g clip-path="url(#clip0_787_1233)">
<path d="M13.2057 53.219C13.6192 66.7204 19.5218 72.8035 24.3921 75.5292C28.0755 77.5873 32.1272 78.3203 35.782 78.3203C39.4019 78.3203 42.6313 77.602 44.7271 76.7337C44.7419 76.7337 44.7584 76.7337 44.775 76.7337C44.8238 76.7337 44.8726 76.7291 44.9214 76.7245C45.071 76.9749 45.2847 77.181 45.5405 77.3214C45.7962 77.4617 46.0848 77.5313 46.3765 77.523C46.6681 77.5146 46.9522 77.4286 47.1995 77.2739C47.4469 77.1191 47.6484 76.9011 47.7834 76.6425C47.846 76.6637 47.9086 76.6812 47.9722 76.6959C50.0634 77.579 53.3297 78.3166 56.9965 78.3166C60.6633 78.3166 64.7085 77.5799 68.3873 75.5255C73.2613 72.7998 79.1612 66.7167 79.5737 53.2154C79.5484 52.8129 79.4109 52.4256 79.1767 52.0973C78.9424 51.769 78.621 51.5129 78.2486 51.358C65.3494 47.357 57.7055 50.9519 53.5415 54.6731C51.0165 56.9282 49.3691 59.6935 48.0247 62.4864V57.4034C51.1602 55.3628 56.9366 49.5384 57.7635 42.0382C58.305 37.1273 56.9458 29.7615 47.4639 22.5495C47.1267 22.336 46.7358 22.2227 46.3368 22.2227C45.9377 22.2227 45.5468 22.336 45.2097 22.5495C35.725 29.7615 34.259 37.1264 34.7995 42.0363C35.6283 49.5375 41.3053 55.3628 44.4407 57.4034V62.2129C43.0972 59.513 41.5861 56.8564 39.144 54.674C34.9791 50.9501 27.3692 47.3551 14.4654 51.3589C14.0807 51.4828 13.7582 51.7499 13.5648 52.1048C13.309 52.4177 13.1808 52.8157 13.2057 53.219V53.219ZM55.7036 57.1271C60.6458 52.7071 67.5539 51.7236 76.2449 54.1942C75.7513 63.2185 72.5735 69.4286 66.786 72.6645C61.2526 75.7585 54.6152 75.3496 50.7559 74.2188C52.791 71.076 57.8823 64.3336 65.2132 62.2792C65.4208 62.221 65.6149 62.1225 65.7845 61.9894C65.9541 61.8562 66.0957 61.6909 66.2014 61.5029C66.3071 61.315 66.3748 61.1081 66.4005 60.894C66.4262 60.6799 66.4095 60.4628 66.3513 60.2552C66.2932 60.0476 66.1947 59.8534 66.0615 59.6839C65.9283 59.5143 65.763 59.3726 65.575 59.2669C65.3871 59.1612 65.1802 59.0936 64.9661 59.0679C64.752 59.0422 64.5349 59.0589 64.3273 59.117C57.0296 61.1622 51.8268 67.0004 49.0809 70.8237C49.487 66.8024 51.3342 61.0305 55.7036 57.1271ZM38.0621 41.6827C37.4396 36.0325 40.2417 30.7091 46.2677 25.8507C52.2937 30.71 55.0931 36.0334 54.4697 41.6892C53.9015 46.8459 50.7135 51.1232 48.0238 53.3839V38.5638C48.0238 37.6568 47.1388 36.922 46.2318 36.922C45.3248 36.922 44.4398 37.6587 44.4398 38.5638V53.3802C41.7537 51.1177 38.6302 46.8441 38.0621 41.6827ZM37.0786 57.128C41.2684 60.874 43.1387 66.3364 43.6387 70.3264C40.8135 66.5105 35.7461 61.0757 28.7578 59.117C28.3385 58.9996 27.8897 59.0535 27.5101 59.2669C27.1305 59.4804 26.8513 59.8359 26.7338 60.2552C26.6164 60.6745 26.6703 61.1233 26.8837 61.5029C27.0972 61.8825 27.4527 62.1617 27.872 62.2792C35.1209 64.3051 40.203 70.9627 42.2786 74.1415C38.4608 75.3303 31.6511 75.8276 25.9935 72.6681C20.2078 69.4323 17.0281 63.2203 16.5355 54.1979C25.231 51.7236 32.1373 52.7071 37.0786 57.128Z" fill="#3B2222"/>
<path d="M14.1434 20.6512C14.1674 20.6751 14.1931 20.6981 14.2189 20.7221C14.5366 21.0033 14.9528 21.1471 15.3763 21.1217C15.7999 21.0963 16.196 20.9039 16.4778 20.5867C17.1638 19.8095 16.9759 18.9043 16.5109 18.3914C16.4897 18.3693 16.4685 18.3454 16.4464 18.3242L16.3875 18.2662C16.2324 18.1245 16.051 18.0148 15.8535 17.9433C15.656 17.8717 15.4463 17.8398 15.2365 17.8493C15.0266 17.8588 14.8207 17.9095 14.6305 17.9986C14.4403 18.0877 14.2694 18.2133 14.1278 18.3684C13.4233 19.1373 13.602 20.0499 14.067 20.5711C14.0891 20.5987 14.1167 20.6235 14.1434 20.6512ZM14.0836 18.4633L15.2807 19.5259L14.0836 18.4651C14.0836 18.4651 14.0836 18.4642 14.0836 18.4633V18.4633Z" fill="#83AEB5"/>
<path d="M12.7999 22.2318C12.6313 22.1066 12.4396 22.0159 12.2359 21.9648C12.0322 21.9138 11.8204 21.9034 11.6126 21.9343C11.4049 21.9651 11.2053 22.0367 11.0252 22.1448C10.8451 22.2529 10.6881 22.3954 10.5632 22.5643C5.04207 30.0041 2.00097 38.9921 1.87042 48.2558C1.46525 72.7576 21.0765 93.029 45.5819 93.4324C45.8336 93.4367 46.0841 93.4388 46.3333 93.4388C57.9286 93.4388 68.8737 89.0188 77.2276 80.931C85.7602 72.6747 90.567 61.5878 90.764 49.7144C90.9257 39.4692 87.5499 29.4815 81.2057 21.4353C80.9426 21.1027 80.5583 20.8882 80.1371 20.8389C79.7159 20.7897 79.2924 20.9098 78.9597 21.1729C78.6271 21.4359 78.4126 21.8203 78.3634 22.2415C78.3142 22.6627 78.4343 23.0862 78.6973 23.4188C84.5845 30.8861 87.7168 40.1551 87.5659 49.6628C87.3818 60.6798 82.923 70.9684 75.0038 78.6326C67.2531 86.1347 57.0925 90.2416 46.3343 90.2407C46.1031 90.2407 45.8738 90.2407 45.6381 90.2352C22.8924 89.8586 4.69649 71.0494 5.06483 48.3037C5.18645 39.7088 8.00777 31.3699 13.1296 24.4667C13.3822 24.1266 13.4893 23.7001 13.4275 23.281C13.3657 22.8619 13.1399 22.4845 12.7999 22.2318V22.2318Z" fill="#83AEB5"/>
<path d="M76.5958 19.3623C76.7864 19.2178 76.9435 19.0337 77.0562 18.8227C77.3177 18.3135 77.3684 17.4893 76.6529 16.8374C76.3689 16.5793 76.0015 16.432 75.6179 16.4224C75.2343 16.4127 74.86 16.5414 74.5634 16.7849C74.3608 16.9312 74.1944 17.1221 74.0772 17.3429C73.8138 17.8457 73.7521 18.6643 74.4455 19.3209C74.7347 19.5945 75.1155 19.7504 75.5136 19.7581C75.9116 19.7657 76.2981 19.6246 76.5976 19.3623H76.5958Z" fill="#83AEB5"/>
<path d="M22.9798 8.33089L23.2057 13.0905L19.699 9.89837L17.9557 10.7313L23.186 15.3874L24.9292 14.5545L24.6039 7.55491L22.9798 8.33089Z" fill="#3B2222"/>
<path d="M35.7509 7.48719C35.2486 5.47286 33.5204 4.59282 31.6807 5.0515C29.7712 5.5276 28.6758 7.23533 29.1432 9.10994C29.6077 10.9729 31.3562 11.9839 33.5219 11.444C34.6513 11.1624 35.4375 10.5953 35.8542 9.7865L34.6265 8.97953C34.2973 9.49447 33.8693 9.81143 33.2056 9.97691C32.2508 10.215 31.4681 9.90305 31.0989 9.16648L35.8379 7.98493C35.8118 7.83066 35.7857 7.62691 35.7509 7.48719ZM32.0349 6.42254C32.85 6.21932 33.5715 6.58358 33.897 7.34341L30.8115 8.11272C30.7392 7.27738 31.2082 6.62865 32.0349 6.42254Z" fill="#3B2222"/>
<path d="M45.3917 3.22447L45.4111 4.05224C44.9046 3.43992 44.1538 3.1574 43.254 3.17845C41.4665 3.22026 40.0558 4.4896 40.0999 6.37308C40.1439 8.25657 41.6125 9.45856 43.4 9.41674C44.2397 9.3971 44.9414 9.11661 45.4206 8.56526L45.4271 8.84118C45.4543 10.0049 44.8925 10.6182 43.5728 10.649C42.7451 10.6684 41.8386 10.4015 41.2763 9.97056L40.564 11.3316C41.3335 11.9017 42.5282 12.1739 43.7519 12.1453C46.0792 12.0908 47.3491 10.9568 47.2929 8.55747L47.1672 3.18294L45.3917 3.22447ZM43.7359 7.87246C42.7522 7.89547 42.0175 7.27649 41.9954 6.32874C41.9732 5.381 42.6781 4.72834 43.6619 4.70533C44.6456 4.68232 45.3683 5.30159 45.3904 6.24933C45.4126 7.19707 44.7197 7.84945 43.7359 7.87246Z" fill="#3B2222"/>
<path d="M55.9381 3.90766C54.925 3.71092 53.8475 3.78283 53.0564 4.14261L53.4668 5.55474C53.9971 5.27878 54.7356 5.18993 55.407 5.32033C56.3965 5.51249 56.7785 6.06341 56.6252 6.85267L55.1645 6.569C53.2326 6.19382 52.2924 6.81803 52.0751 7.93712C51.8623 9.03265 52.5857 10.0288 54.0699 10.3171C55.0006 10.4978 55.7197 10.3196 56.1734 9.80875L56.0201 10.598L57.74 10.932L58.4423 7.31556C58.8152 5.39543 57.87 4.28283 55.9381 3.90766ZM54.7696 9.16939C54.1217 9.04357 53.7924 8.6618 53.8816 8.20238C53.964 7.7783 54.2967 7.51286 55.1566 7.67986L56.4171 7.92464L56.2912 8.57254C55.9671 9.10858 55.3821 9.28835 54.7696 9.16939Z" fill="#3B2222"/>
<path d="M68.2909 7.47561C67.4876 7.12633 66.6747 7.10001 65.9924 7.40528L66.2938 6.71197L64.6541 5.99905L62.0799 11.9197L63.7967 12.6661L65.0694 9.73878C65.5431 8.6493 66.3574 8.40146 67.1828 8.76031C67.9421 9.09046 68.1909 9.72204 67.7747 10.6795L66.4158 13.8048L68.1326 14.5513L69.6063 11.1618C70.3909 9.35696 69.6886 8.08327 68.2909 7.47561Z" fill="#3B2222"/>
</g>
<defs>
<clipPath id="clip0_787_1233">
<rect width="92.821" height="106" fill="white"/>
</clipPath>
</defs>
</svg>
