<svg width="32" height="32" viewBox="0 0 32 32" fill="none" xmlns="http://www.w3.org/2000/svg">
<g clip-path="url(#clip0_105_6)">
<path d="M15.9232 32.1799C15.2463 32.1799 14.697 31.6306 14.697 30.9537V16.2397C14.697 15.5628 15.2463 15.0135 15.9232 15.0135C16.6 15.0135 17.1494 15.5628 17.1494 16.2397V30.9537C17.1494 31.6306 16.6 32.1799 15.9232 32.1799Z" fill="#463B32"/>
<path d="M4.88767 30.9537C4.21082 30.9537 3.6615 30.4044 3.6615 29.7276V23.5967C3.6615 22.9199 4.21082 22.3705 4.88767 22.3705C5.56452 22.3705 6.11385 22.9199 6.11385 23.5967V29.7276C6.11385 30.4044 5.56452 30.9537 4.88767 30.9537Z" fill="#463B32"/>
<path d="M26.9588 28.5014C26.282 28.5014 25.7327 27.9521 25.7327 27.2752V23.5967C25.7327 22.9199 26.282 22.3705 26.9588 22.3705C27.6357 22.3705 28.185 22.9199 28.185 23.5967V27.2752C28.185 27.9521 27.6357 28.5014 26.9588 28.5014Z" fill="#463B32"/>
<path d="M22.6931 4.83258C22.5815 4.48925 22.2627 4.25995 21.9022 4.25995C21.901 4.25995 21.901 4.25995 21.8998 4.25995L17.9306 4.26854L16.7155 0.489469C16.6051 0.146141 16.2851 -0.0880585 15.9234 -0.0880585C15.5617 -0.0880585 15.2416 0.144915 15.1313 0.489469L13.9149 4.26976L9.94703 4.25995C9.94703 4.25995 9.9458 4.25995 9.94457 4.25995C9.58408 4.25995 9.26528 4.48925 9.15369 4.83258C9.04211 5.17591 9.16473 5.55112 9.45778 5.76324L12.6753 8.08684L11.4381 11.8573C11.3252 12.2007 11.4479 12.5771 11.7397 12.7892C11.8856 12.8947 12.0573 12.9486 12.2289 12.9486C12.4018 12.9486 12.5735 12.8947 12.7206 12.788L15.9234 10.446L19.1274 12.788C19.2733 12.8947 19.4462 12.9486 19.6179 12.9486C19.7895 12.9486 19.9612 12.8959 20.1071 12.7892C20.3989 12.5771 20.5215 12.2007 20.4087 11.8561L19.1728 8.08562L22.3902 5.76202C22.6821 5.55112 22.8047 5.17591 22.6931 4.83258Z" fill="#463B32"/>
<path d="M9.98248 13.8315C9.90033 13.5776 9.66368 13.4072 9.39637 13.4072H9.39514L6.45723 13.4133L5.55722 10.6164C5.47507 10.3614 5.23842 10.1885 4.97111 10.1885C4.7038 10.1885 4.46715 10.3614 4.385 10.6152L3.48499 13.4133L0.548302 13.4072H0.547076C0.280997 13.4072 0.0443453 13.5776 -0.0390345 13.8315C-0.121188 14.0853 -0.0304516 14.3636 0.186581 14.5206L2.56658 16.2397L1.65063 19.0304C1.56725 19.2842 1.65799 19.5638 1.8738 19.7208C1.9817 19.7992 2.10922 19.8385 2.23552 19.8385C2.36304 19.8385 2.49056 19.7992 2.59846 19.7195L4.96988 17.9857L7.3413 19.7183C7.44921 19.798 7.57673 19.8373 7.70425 19.8373C7.83177 19.8373 7.95807 19.798 8.06597 19.7195C8.28178 19.5626 8.37252 19.283 8.28914 19.0292L7.37319 16.2384L9.75441 14.5181C9.9739 14.3624 10.0646 14.0853 9.98248 13.8315Z" fill="#463B32"/>
<path d="M31.9702 13.8315C31.888 13.5776 31.6514 13.4072 31.3841 13.4072C31.3828 13.4072 31.3828 13.4072 31.3828 13.4072L28.4449 13.4133L27.5449 10.6164C27.4628 10.3614 27.2261 10.1885 26.9588 10.1885C26.6915 10.1885 26.4548 10.3614 26.3727 10.6152L25.4727 13.4133L22.5348 13.4072H22.5335C22.2674 13.4072 22.0308 13.5776 21.9474 13.8315C21.8653 14.0853 21.956 14.3636 22.173 14.5206L24.5543 16.2397L23.6383 19.0304C23.5549 19.2842 23.6457 19.5638 23.8615 19.7208C23.9694 19.7992 24.0969 19.8385 24.2232 19.8385C24.3507 19.8385 24.4782 19.7992 24.5861 19.7195L26.9588 17.9857L29.3302 19.7183C29.4381 19.798 29.5656 19.8373 29.6932 19.8373C29.8207 19.8373 29.947 19.798 30.0549 19.7195C30.2707 19.5626 30.3614 19.283 30.278 19.0292L29.3621 16.2384L31.7433 14.5181C31.9616 14.3624 32.0523 14.0853 31.9702 13.8315Z" fill="#463B32"/>
</g>
<defs>
<clipPath id="clip0_105_6">
<rect width="32" height="32" fill="white"/>
</clipPath>
</defs>
</svg>
