<svg width="48" height="48" viewBox="0 0 48 48" fill="none" xmlns="http://www.w3.org/2000/svg">
<path d="M24 4.17391C24.2768 4.17391 24.5422 4.06397 24.7379 3.86828C24.9335 3.67259 25.0435 3.40718 25.0435 3.13043V1.04348C25.0435 0.766726 24.9335 0.501318 24.7379 0.305624C24.5422 0.109941 24.2768 0 24 0C23.7233 0 23.4578 0.109941 23.2622 0.305624C23.0665 0.501318 22.9565 0.766726 22.9565 1.04348V3.13043C22.9565 3.40718 23.0665 3.67259 23.2622 3.86828C23.4578 4.06397 23.7233 4.17391 24 4.17391Z" fill="#463B32"/>
<path d="M43.8261 19.826H41.7392C41.4624 19.826 41.197 19.936 41.0013 20.1317C40.8057 20.3273 40.6957 20.5928 40.6957 20.8695C40.6957 21.1463 40.8057 21.4117 41.0013 21.6074C41.197 21.803 41.4624 21.913 41.7392 21.913H43.8261C44.1029 21.913 44.3683 21.803 44.564 21.6074C44.7596 21.4117 44.8696 21.1463 44.8696 20.8695C44.8696 20.5928 44.7596 20.3273 44.564 20.1317C44.3683 19.936 44.1029 19.826 43.8261 19.826Z" fill="#463B32"/>
<path d="M6.26093 19.826H4.17397C3.89722 19.826 3.63181 19.936 3.43612 20.1317C3.24043 20.3273 3.13049 20.5928 3.13049 20.8695C3.13049 21.1463 3.24043 21.4117 3.43612 21.6074C3.63181 21.803 3.89722 21.913 4.17397 21.913H6.26093C6.53768 21.913 6.80309 21.803 6.99878 21.6074C7.19446 21.4117 7.3044 21.1463 7.3044 20.8695C7.3044 20.5928 7.19446 20.3273 6.99878 20.1317C6.80309 19.936 6.53768 19.826 6.26093 19.826Z" fill="#463B32"/>
<path d="M10.7186 9.06357C10.9154 9.25365 11.179 9.35883 11.4526 9.35646C11.7262 9.35408 11.9879 9.24433 12.1813 9.05086C12.3748 8.85739 12.4846 8.59568 12.487 8.32208C12.4894 8.04849 12.3842 7.7849 12.1941 7.58809L10.7186 6.11261C10.5218 5.92253 10.2582 5.81736 9.98459 5.81974C9.71099 5.82212 9.44929 5.93186 9.25582 6.12532C9.06236 6.3188 8.95261 6.58051 8.95023 6.85411C8.94786 7.12771 9.05303 7.39129 9.24311 7.58809L10.7186 9.06357Z" fill="#463B32"/>
<path d="M37.2814 32.6744C37.1845 32.5776 37.0694 32.5007 36.9428 32.4483C36.8161 32.3959 36.6804 32.3689 36.5434 32.369C36.4063 32.369 36.2706 32.3961 36.1439 32.4486C36.0174 32.5011 35.9024 32.578 35.8054 32.675C35.7086 32.7719 35.6317 32.887 35.5793 33.0137C35.5269 33.1403 35.5 33.276 35.5 33.4131C35.5001 33.5501 35.5271 33.6859 35.5796 33.8125C35.6321 33.939 35.709 34.0541 35.8059 34.151L37.2814 35.6264C37.4782 35.8166 37.7418 35.9216 38.0154 35.9193C38.289 35.9169 38.5507 35.8072 38.7442 35.6137C38.9376 35.4202 39.0474 35.1585 39.0498 34.8849C39.0522 34.6113 38.947 34.3478 38.7569 34.151L37.2814 32.6744Z" fill="#463B32"/>
<path d="M37.2814 6.11275L35.8059 7.58823C35.7063 7.68449 35.6268 7.79962 35.5721 7.92694C35.5174 8.05424 35.4886 8.19117 35.4875 8.32972C35.4862 8.46827 35.5126 8.60568 35.5651 8.73392C35.6176 8.86216 35.695 8.97866 35.793 9.07664C35.891 9.17461 36.0075 9.25209 36.1358 9.30456C36.264 9.35702 36.4013 9.38343 36.5399 9.38222C36.6785 9.38102 36.8154 9.35224 36.9427 9.29755C37.07 9.24286 37.1852 9.16337 37.2814 9.0637L38.7569 7.58823C38.8565 7.49198 38.9361 7.37683 38.9907 7.24952C39.0454 7.12221 39.0742 6.98528 39.0755 6.84673C39.0766 6.70818 39.0502 6.57077 38.9977 6.44254C38.9453 6.3143 38.8678 6.19779 38.7698 6.09982C38.6719 6.00184 38.5554 5.92436 38.4272 5.87189C38.2989 5.81943 38.1615 5.79303 38.0229 5.79423C37.8843 5.79544 37.7474 5.82422 37.6201 5.87891C37.4928 5.9336 37.3777 6.01309 37.2814 6.11275Z" fill="#463B32"/>
<path d="M10.7187 32.6744L9.24324 34.151C9.14358 34.2472 9.06409 34.3624 9.0094 34.4897C8.95471 34.617 8.92593 34.7539 8.92472 34.8925C8.92352 35.031 8.94992 35.1685 9.00239 35.2967C9.05485 35.4248 9.13233 35.5414 9.23031 35.6394C9.32829 35.7374 9.44475 35.8148 9.57299 35.8673C9.70124 35.9198 9.83866 35.9462 9.97724 35.9449C10.1158 35.9438 10.2527 35.915 10.38 35.8603C10.5073 35.8056 10.6224 35.7261 10.7187 35.6264L12.1942 34.151C12.2911 34.0541 12.3681 33.939 12.4205 33.8125C12.473 33.6859 12.5001 33.5501 12.5002 33.4131C12.5002 33.276 12.4732 33.1403 12.4209 33.0137C12.3685 32.887 12.2916 32.7719 12.1947 32.675C12.0978 32.578 11.9828 32.5011 11.8562 32.4486C11.7295 32.3961 11.5939 32.369 11.4568 32.369C11.3198 32.3689 11.184 32.3959 11.0574 32.4483C10.9308 32.5007 10.8157 32.5776 10.7187 32.6744Z" fill="#463B32"/>
<path d="M24 6.26086C20.1268 6.26501 16.4134 7.80546 13.6747 10.5442C10.9359 13.283 9.3955 16.9964 9.39133 20.8696C9.33482 22.9077 9.69842 24.9357 10.4593 26.8272C11.2203 28.7188 12.3624 30.4336 13.8146 31.8647C14.7138 32.7121 15.4324 33.7324 15.9276 34.8644C16.4226 35.9963 16.6839 37.2167 16.6957 38.4522V40.6956C16.6984 41.3408 16.9003 41.9693 17.2739 42.4953C17.6474 43.0213 18.1744 43.419 18.7826 43.6341V43.8261C18.7826 44.9331 19.2223 45.9947 20.0052 46.7775C20.7879 47.5603 21.8495 48 22.9565 48H25.0435C26.1505 48 27.2121 47.5603 27.9949 46.7775C28.7777 45.9947 29.2174 44.9331 29.2174 43.8261V43.6341C29.8256 43.419 30.3526 43.0213 30.7262 42.4953C31.0997 41.9693 31.3016 41.3408 31.3044 40.6956V38.4522C31.3161 37.2167 31.5774 35.9963 32.0725 34.8644C32.5676 33.7324 33.2862 32.7121 34.1854 31.8647C35.6376 30.4336 36.7797 28.7188 37.5407 26.8272C38.3017 24.9357 38.6653 22.9077 38.6087 20.8696C38.6045 16.9964 37.0641 13.283 34.3253 10.5442C31.5866 7.80546 27.8732 6.26501 24 6.26086ZM25.0435 45.913H22.9565C22.4031 45.913 21.8723 45.6932 21.4808 45.3018C21.0894 44.9104 20.8696 44.3795 20.8696 43.8261H27.1304C27.1304 44.3795 26.9106 44.9104 26.5192 45.3018C26.1278 45.6932 25.597 45.913 25.0435 45.913ZM28.1739 41.7391H19.8261C19.5494 41.7391 19.2839 41.6291 19.0883 41.4335C18.8926 41.2378 18.7826 40.9724 18.7826 40.6956V39.6522H29.2174V40.6956C29.2174 40.9724 29.1075 41.2378 28.9118 41.4335C28.7161 41.6291 28.4507 41.7391 28.1739 41.7391ZM20.8696 28.1739H19.8261C19.6197 28.1739 19.418 28.1128 19.2463 27.9981C19.0748 27.8834 18.941 27.7204 18.862 27.5298C18.783 27.3391 18.7624 27.1293 18.8027 26.9268C18.8429 26.7244 18.9423 26.5385 19.0883 26.3926C19.2342 26.2466 19.4201 26.1473 19.6225 26.107C19.825 26.0667 20.0348 26.0874 20.2254 26.1664C20.4161 26.2453 20.5791 26.3791 20.6938 26.5507C20.8084 26.7223 20.8696 26.924 20.8696 27.1304V28.1739ZM22.9565 30.2609H25.0435V37.5652H22.9565V30.2609ZM32.7297 30.3652C30.7339 32.2625 29.4981 34.8223 29.2539 37.5652H27.1304V30.2609H28.1739C28.7931 30.2609 29.3983 30.0773 29.9131 29.7333C30.4279 29.3893 30.8292 28.9004 31.066 28.3284C31.303 27.7564 31.365 27.127 31.2443 26.5197C31.1234 25.9125 30.8253 25.3546 30.3875 24.9169C29.9497 24.4791 29.3919 24.1809 28.7847 24.0601C28.1774 23.9394 27.5479 24.0013 26.976 24.2383C26.404 24.4752 25.915 24.8764 25.5711 25.3913C25.2271 25.906 25.0435 26.5113 25.0435 27.1304V28.1739H22.9565V27.1304C22.9565 26.5113 22.773 25.906 22.429 25.3913C22.085 24.8764 21.596 24.4752 21.0241 24.2383C20.4521 24.0013 19.8227 23.9394 19.2154 24.0601C18.6082 24.1809 18.0503 24.4791 17.6126 24.9169C17.1747 25.3546 16.8766 25.9125 16.7559 26.5197C16.635 27.127 16.697 27.7564 16.934 28.3284C17.1709 28.9004 17.5722 29.3893 18.0869 29.7333C18.6017 30.0773 19.207 30.2609 19.8261 30.2609H20.8696V37.5652H18.7461C18.5019 34.8223 17.2661 32.2625 15.2703 30.3652C14.0205 29.1273 13.0389 27.6454 12.3865 26.0118C11.7342 24.3783 11.4251 22.6278 11.4783 20.8696C11.4783 17.5486 12.7976 14.3637 15.1458 12.0153C17.4941 9.66709 20.679 8.34782 24 8.34782C27.321 8.34782 30.506 9.66709 32.8542 12.0153C35.2025 14.3637 36.5217 17.5486 36.5217 20.8696C36.575 22.6278 36.2659 24.3783 35.6135 26.0118C34.9611 27.6454 33.9795 29.1273 32.7297 30.3652ZM27.1304 28.1739V27.1304C27.1304 26.924 27.1917 26.7223 27.3063 26.5507C27.4209 26.3791 27.5839 26.2453 27.7746 26.1664C27.9653 26.0874 28.1751 26.0667 28.3775 26.107C28.5799 26.1473 28.7659 26.2466 28.9118 26.3926C29.0577 26.5385 29.1571 26.7244 29.1974 26.9268C29.2376 27.1293 29.217 27.3391 29.138 27.5298C29.059 27.7204 28.9252 27.8834 28.7537 27.9981C28.582 28.1128 28.3803 28.1739 28.1739 28.1739H27.1304Z" fill="#463B32"/>
</svg>
