<svg width="48" height="48" viewBox="0 0 48 48" fill="none" xmlns="http://www.w3.org/2000/svg">
<g clip-path="url(#clip0_67_45)">
<path d="M47.9824 31.3739C47.9824 43.4787 34.4883 48.4211 22.5736 48.4211C10.6588 48.4211 1.00002 38.6081 1.00002 26.5033C1.00002 14.3984 14.4941 9.45604 26.4089 9.45604C38.3236 9.45604 47.9824 19.269 47.9824 31.3739Z" fill="#82AEB4" fill-opacity="0.1"/>
<g clip-path="url(#clip1_67_45)">
<path d="M18.4362 21.4143C18.4212 21.3665 18.4025 21.3039 18.395 21.2487C18.3052 20.4945 18.2191 19.6629 18.1442 18.9454C18.0394 17.8931 17.9197 16.6789 17.8373 15.8253C17.7812 15.2476 17.5941 14.6994 17.3209 14.2873C17.1375 14.026 16.9354 13.8273 16.7071 13.7317C16.5237 13.6617 16.3029 13.6507 16.0709 13.739C15.7565 13.8568 15.401 14.1106 15.008 14.5485C14.6599 14.9385 14.3867 15.461 14.1622 16.0129C13.8403 16.8224 13.6532 17.6834 13.5746 18.2721C13.5671 18.3126 13.5671 18.342 13.5521 18.3751L11.3702 30.5467C11.3366 30.7049 11.2729 30.8484 11.1756 30.9588C10.4421 31.886 9.98176 32.6844 9.84703 33.3283C9.74973 33.803 9.84703 34.1856 10.1689 34.4837L18.1929 42.3724C18.7019 42.8544 19.2969 43.1561 20.0043 43.2849C20.779 43.4284 21.6809 43.3474 22.7214 43.0715C22.7363 43.0715 22.7625 43.0641 22.7775 43.0641C23.1705 42.9611 23.6869 42.836 24.1809 42.7146C26.3329 42.1995 28.2079 41.7469 29.9482 40.1942L32.1862 37.8982C32.2087 37.8577 32.2424 37.8283 32.2761 37.7952C32.3097 37.7621 32.5268 37.5487 32.8225 37.2727C34.3532 35.8009 36.2469 33.987 35.0942 32.3938L34.1997 31.5144C33.7656 31.9265 33.3053 32.3312 32.8636 32.7176C32.4594 33.0671 32.0814 33.3909 31.7371 33.7331C31.3666 34.0973 30.7716 34.0973 30.401 33.7331C30.0305 33.3688 30.0305 32.7838 30.401 32.4195C30.7491 32.0773 31.1758 31.7057 31.6174 31.3194C33.1331 30.0058 34.8734 28.5009 33.9377 27.1837L33.0508 26.3117C33.0021 26.2638 32.9609 26.2086 32.9235 26.1534C32.4145 26.6686 31.8532 27.1579 31.303 27.6363C30.8988 27.9858 30.5208 28.3096 30.1765 28.6518C29.806 29.016 29.2109 29.016 28.8404 28.6518C28.4699 28.2875 28.4699 27.7025 28.8404 27.3382C29.1885 26.996 29.6151 26.6244 30.0567 26.2381C31.5725 24.9245 33.3127 23.4196 32.3771 22.1024L31.4901 21.2304C31.4265 21.1678 31.3778 21.1053 31.3367 21.0317L28.7356 23.5889C28.3651 23.9531 27.77 23.9531 27.3995 23.5889C27.029 23.2246 27.029 22.6396 27.3995 22.2753L34.3794 15.4021C35.547 14.2541 35.8128 13.0583 35.5059 12.1532C35.3936 11.822 35.2065 11.5277 34.9744 11.2996C34.7424 11.0714 34.443 10.8875 34.1062 10.7771C33.1967 10.4827 31.9879 10.755 30.7865 11.9324L18.5484 23.9642C18.1779 24.3284 17.5829 24.3284 17.2123 23.9642C16.8418 23.5999 16.8418 23.0149 17.2123 22.6506L18.4549 21.429L18.4362 21.4143ZM23.2004 0L23.889 7.3368L21.7895 7.52445L21.1046 0.187651L23.2004 0ZM33.0133 3.30046L28.1555 9.04774L26.535 7.72314L31.3928 1.97586L33.0133 3.30046ZM13.9451 4.35645L19.7198 9.07349L18.3725 10.6667L12.5978 5.94965L13.9451 4.35645ZM32.6316 19.7512C32.7027 19.7917 32.7701 19.8395 32.8337 19.9021L33.7618 20.8146C33.8105 20.8624 33.8592 20.925 33.9003 20.9802C34.9407 22.382 34.7798 23.633 34.0687 24.7737C34.196 24.8215 34.3195 24.8914 34.4168 24.9871L35.3449 25.8996C35.3936 25.9474 35.4422 26.0099 35.4834 26.0651C36.6024 27.5774 36.3217 28.902 35.4834 30.1052C35.5246 30.1272 35.5545 30.1603 35.5957 30.2008L36.5238 31.1133C36.5725 31.1612 36.6211 31.2237 36.6623 31.2789C38.8143 34.1709 36.2506 36.6251 34.1885 38.6047L33.6571 39.1271L31.3591 41.4967L31.288 41.5666C29.1847 43.4431 27.1001 43.9435 24.6899 44.5212C24.2857 44.6169 23.8778 44.7199 23.3127 44.8634C23.2977 44.8634 23.2902 44.8707 23.2715 44.8707C21.9654 45.2203 20.7827 45.3049 19.7198 45.1173C18.642 44.9259 17.7064 44.4513 16.9242 43.7007L8.89643 35.8156C8.0843 35.0466 7.80735 34.0973 8.03564 32.9714C8.21154 32.07 8.74298 31.0692 9.58131 29.9948L11.7258 18.066V18.0182C11.8231 17.3375 12.0402 16.3293 12.4182 15.358C12.7063 14.6294 13.0956 13.9156 13.6008 13.338C14.2146 12.6573 14.8171 12.2378 15.4122 12.0134C16.1457 11.7374 16.8456 11.7742 17.4668 12.0354C18.0469 12.2746 18.5372 12.7088 18.9077 13.2644C19.3606 13.9303 19.6562 14.7766 19.7386 15.6634C19.8022 16.3919 19.9332 17.5951 20.0529 18.7762L20.1502 19.7586L29.4392 10.6262C31.2207 8.8748 33.1518 8.52526 34.6937 9.02566C35.315 9.22435 35.8614 9.5555 36.3143 10.0007C36.7671 10.4459 37.1039 10.9831 37.306 11.5939C37.815 13.1062 37.467 15.0305 35.7192 16.7525L32.6428 19.777L32.6316 19.7512Z" fill="#82AEB4"/>
</g>
</g>
<defs>
<clipPath id="clip0_67_45">
<rect width="48" height="48" fill="white"/>
</clipPath>
<clipPath id="clip1_67_45">
<rect width="29.5623" height="45.2129" fill="white" transform="translate(7.95581)"/>
</clipPath>
</defs>
</svg>
