<svg width="12" height="12" viewBox="0 0 12 12" fill="none" xmlns="http://www.w3.org/2000/svg">
<path d="M6.55389 8.76929H5.40004C5.21543 8.76929 5.07697 8.63083 5.07697 8.44621V8.10006C5.07697 7.13083 5.70004 6.2539 6.62312 5.93083C6.90004 5.83852 7.15389 5.67698 7.36158 5.44621C8.51543 4.0616 7.45389 2.40006 6.06927 2.3539C5.56158 2.33083 5.07697 2.51544 4.70773 2.8616C4.40773 3.13852 4.22312 3.48467 4.17697 3.87698C4.15389 4.01544 4.01543 4.13083 3.83081 4.13083H2.67697C2.46927 4.13083 2.30773 3.96929 2.33081 3.7616C2.42312 2.88467 2.81543 2.10006 3.4385 1.47698C4.17697 0.784674 5.12312 0.415443 6.1385 0.43852C8.05389 0.507751 9.62312 2.07698 9.69235 3.99237C9.76158 5.60775 8.76927 7.0616 7.26927 7.61544C7.06158 7.70775 6.92312 7.86929 6.92312 8.07698V8.42313C6.92312 8.63083 6.7385 8.76929 6.55389 8.76929Z" fill="#463B32"/>
<path d="M6.92318 11.1924C6.92318 11.377 6.76164 11.5385 6.57703 11.5385H5.42318C5.23856 11.5385 5.07703 11.377 5.07703 11.1924V10.0385C5.07703 9.85392 5.23856 9.69238 5.42318 9.69238H6.57703C6.76164 9.69238 6.92318 9.85392 6.92318 10.0385V11.1924Z" fill="#463B32"/>
</svg>
