<svg width="117" height="179" viewBox="0 0 117 179"
                fill="none" xmlns="http://www.w3.org/2000/svg">
                <path fill-rule="evenodd" clip-rule="evenodd"
                    d="M82.4149 160.819C62.6782 153.611 74.3649 121.088 63.1325 103.33C51.8949 85.5643 20.3527 82.2527 19.4341 61.2511C18.4978 39.8475 39.3754 21.9977 59.222 13.9292C76.8755 6.75223 95.6444 16.2572 113.458 23.0261C127.868 28.5014 139.658 36.9721 149.984 48.4168C163.447 63.3383 185.255 78.0079 180.736 97.5908C176.217 117.174 148.45 117.446 131.546 128.317C114.376 139.358 101.589 167.822 82.4149 160.819Z"
                    fill="#E6D6C8" stroke="white" stroke-width="6" />
                <g opacity="0.5">
                    <circle cx="110.5" cy="41.5" r="2.5" transform="rotate(90 110.5 41.5)" fill="#C7A58D" />
                    <circle cx="98.5" cy="41.5" r="2.5" transform="rotate(90 98.5 41.5)" fill="#C7A58D" />
                    <circle cx="86.5" cy="41.5" r="2.5" transform="rotate(90 86.5 41.5)" fill="#C7A58D" />
                    <circle cx="74.5" cy="41.5" r="2.5" transform="rotate(90 74.5 41.5)" fill="#C7A58D" />
                    <circle cx="110.5" cy="75.5" r="2.5" transform="rotate(90 110.5 75.5)" fill="#C7A58D" />
                    <circle cx="98.5" cy="75.5" r="2.5" transform="rotate(90 98.5 75.5)" fill="#C7A58D" />
                    <circle cx="86.5" cy="75.5" r="2.5" transform="rotate(90 86.5 75.5)" fill="#C7A58D" />
                    <circle cx="74.5" cy="75.5" r="2.5" transform="rotate(90 74.5 75.5)" fill="#C7A58D" />
                    <circle cx="110.5" cy="58.5" r="2.5" transform="rotate(90 110.5 58.5)" fill="#C7A58D" />
                    <circle cx="98.5" cy="58.5" r="2.5" transform="rotate(90 98.5 58.5)" fill="#C7A58D" />
                    <circle cx="86.5" cy="58.5" r="2.5" transform="rotate(90 86.5 58.5)" fill="#C7A58D" />
                    <circle cx="74.5" cy="58.5" r="2.5" transform="rotate(90 74.5 58.5)" fill="#C7A58D" />
                    <circle cx="110.5" cy="92.5" r="2.5" transform="rotate(90 110.5 92.5)" fill="#C7A58D" />
                    <circle cx="98.5" cy="92.5" r="2.5" transform="rotate(90 98.5 92.5)" fill="#C7A58D" />
                    <circle cx="86.5" cy="92.5" r="2.5" transform="rotate(90 86.5 92.5)" fill="#C7A58D" />
                    <circle cx="74.5" cy="92.5" r="2.5" transform="rotate(90 74.5 92.5)" fill="#C7A58D" />
                </g>
            </svg>