
                    <svg viewBox="0 0 12 12" fill="none" xmlns="http://www.w3.org/2000/svg">
                        <path
                            d="M11.7188 2.65083C11.6625 2.47505 11.5102 2.34614 11.325 2.32036L10.0313 2.1352L9.45471 0.989111C9.37267 0.825049 9.20392 0.721924 9.02111 0.721924C8.8383 0.721924 8.66955 0.825049 8.58752 0.989111L8.01095 2.1352L6.7172 2.32036C6.53439 2.34614 6.38205 2.47505 6.32345 2.65083C6.2672 2.82661 6.31642 3.02114 6.45002 3.15005L7.38049 4.03833L7.16017 5.28989C7.12736 5.47036 7.20236 5.65552 7.35002 5.76333C7.49767 5.87349 7.69455 5.88755 7.85861 5.80317L9.01877 5.20552L10.1789 5.80317C10.2492 5.83833 10.3242 5.85708 10.4016 5.85708C10.5024 5.85708 10.6031 5.82427 10.6875 5.76333C10.8352 5.65552 10.9102 5.47036 10.8774 5.28989L10.6571 4.03833L11.5875 3.15005C11.7258 3.02114 11.775 2.82661 11.7188 2.65083V2.65083ZM9.80627 3.51567C9.68908 3.62817 9.63517 3.78989 9.6633 3.94927L9.75939 4.49536L9.24377 4.23052C9.10549 4.1602 8.93908 4.1602 8.8008 4.23052L8.28517 4.49536L8.38127 3.94927C8.40939 3.78989 8.35549 3.62817 8.2383 3.51567L7.84221 3.13599L8.40002 3.0563C8.55705 3.03286 8.69299 2.93677 8.7633 2.7938L9.02111 2.28052L9.27892 2.7938C9.34924 2.93442 9.48517 3.03286 9.64221 3.0563L10.2 3.13599L9.80627 3.51567V3.51567Z"
                            fill="#CEAD92" />
                        <path
                            d="M10.3594 8.46093C10.0102 8.54061 9.64922 8.58046 9.28828 8.58046C6.62109 8.58046 4.45078 6.41015 4.45078 3.7453C4.45078 2.76562 4.74141 1.82343 5.29219 1.01952C5.40469 0.85546 5.40469 0.637491 5.29219 0.471085C5.17969 0.304679 4.97812 0.224991 4.78125 0.269522C3.51562 0.55546 2.36719 1.2703 1.54687 2.28515C0.717187 3.31171 0.257812 4.61015 0.257812 5.93436C0.257812 7.48593 0.8625 8.94374 1.95937 10.0406C3.05625 11.1375 4.51641 11.7422 6.06797 11.7422C7.9875 11.7422 9.78047 10.7953 10.868 9.20858C10.9805 9.04452 10.9805 8.82655 10.868 8.66014C10.7555 8.49608 10.5539 8.41639 10.3594 8.46093ZM6.06797 10.7695C3.40078 10.7695 1.23047 8.59921 1.23047 5.93436C1.23047 4.10155 2.29219 2.43983 3.87422 1.62655C3.61172 2.29687 3.47578 3.01171 3.47578 3.7453C3.47578 5.29686 4.08047 6.75468 5.17734 7.85155C6.27187 8.94608 7.72734 9.55077 9.27656 9.55311C8.40234 10.3289 7.26562 10.7695 6.06797 10.7695Z"
                            fill="#CEAD92" />
                    </svg>