<svg width="61" height="49" fill="none" xmlns="http://www.w3.org/2000/svg">
  <circle cx="3.898" cy="3.898" r="2.823" transform="rotate(57.426 3.898 3.898)" fill="#82AEB4"/>
  <circle cx="17.2" cy="4.077" r="2.823" transform="rotate(57.426 17.2 4.077)" fill="#82AEB4"/>
  <circle cx="30.5" cy="4.077" r="2.823" transform="rotate(57.426 30.5 4.077)" fill="#82AEB4"/>
  <circle cx="43.801" cy="4.077" r="2.823" transform="rotate(57.426 43.801 4.077)" fill="#82AEB4"/>
  <circle cx="57.102" cy="4.077" r="2.823" transform="rotate(57.426 57.102 4.077)" fill="#82AEB4"/>
  <circle cx="3.898" cy="13.929" r="2.823" transform="rotate(57.426 3.898 13.93)" fill="#82AEB4"/>
  <circle cx="17.2" cy="14.108" r="2.823" transform="rotate(57.426 17.2 14.108)" fill="#82AEB4"/>
  <circle cx="30.5" cy="14.108" r="2.823" transform="rotate(57.426 30.5 14.108)" fill="#82AEB4"/>
  <circle cx="43.801" cy="14.108" r="2.823" transform="rotate(57.426 43.801 14.108)" fill="#82AEB4"/>
  <circle cx="57.102" cy="14.108" r="2.823" transform="rotate(57.426 57.102 14.108)" fill="#82AEB4"/>
  <circle cx="3.898" cy="24.275" r="2.823" transform="rotate(57.426 3.898 24.275)" fill="#82AEB4"/>
  <circle cx="17.2" cy="24.453" r="2.823" transform="rotate(57.426 17.2 24.453)" fill="#82AEB4"/>
  <circle cx="30.5" cy="24.453" r="2.823" transform="rotate(57.426 30.5 24.453)" fill="#82AEB4"/>
  <circle cx="43.801" cy="24.453" r="2.823" transform="rotate(57.426 43.801 24.453)" fill="#82AEB4"/>
  <circle cx="57.102" cy="24.453" r="2.823" transform="rotate(57.426 57.102 24.453)" fill="#82AEB4"/>
  <circle cx="3.898" cy="34.62" r="2.823" transform="rotate(57.426 3.898 34.62)" fill="#82AEB4"/>
  <circle cx="17.2" cy="34.798" r="2.823" transform="rotate(57.426 17.2 34.798)" fill="#82AEB4"/>
  <circle cx="3.898" cy="44.294" r="2.823" transform="rotate(57.426 3.898 44.294)" fill="#82AEB4"/>
  <circle cx="17.2" cy="44.472" r="2.823" transform="rotate(57.426 17.2 44.472)" fill="#82AEB4"/>
  <circle cx="30.5" cy="44.472" r="2.823" transform="rotate(57.426 30.5 44.472)" fill="#82AEB4"/>
  <circle cx="43.801" cy="44.472" r="2.823" transform="rotate(57.426 43.801 44.472)" fill="#82AEB4"/>
  <circle cx="57.102" cy="44.472" r="2.823" transform="rotate(57.426 57.102 44.472)" fill="#82AEB4"/>
  <circle cx="30.5" cy="34.798" r="2.823" transform="rotate(57.426 30.5 34.798)" fill="#82AEB4"/>
  <circle cx="43.801" cy="34.798" r="2.823" transform="rotate(57.426 43.801 34.798)" fill="#82AEB4"/>
  <circle cx="57.102" cy="34.798" r="2.823" transform="rotate(57.426 57.102 34.798)" fill="#82AEB4"/>
</svg>