<svg width="135" height="125" viewBox="0 0 135 125" fill="none" xmlns="http://www.w3.org/2000/svg">
<path fill-rule="evenodd" clip-rule="evenodd" d="M53.3632 121.785C37.71 116.068 46.9788 90.2742 38.0703 76.1905C29.1577 62.1004 4.14145 59.4739 3.41289 42.8175C2.67038 25.8423 19.2284 11.6855 34.9689 5.28633C48.9699 -0.405715 63.8556 7.13274 77.9839 12.5012C89.4121 16.8437 98.7628 23.5618 106.953 32.6386C117.63 44.4729 134.926 56.1074 131.342 71.6387C127.758 87.17 105.736 87.3862 92.329 96.0077C78.7119 104.765 68.5704 127.34 53.3632 121.785Z" fill="#82AEB4" stroke="#82AEB4" stroke-width="6"/>
<g opacity="0.5">
<circle cx="125.5" cy="8.5" r="2.5" transform="rotate(90 125.5 8.5)" fill="white"/>
<circle cx="113.5" cy="8.5" r="2.5" transform="rotate(90 113.5 8.5)" fill="white"/>
<circle cx="101.5" cy="8.5" r="2.5" transform="rotate(90 101.5 8.5)" fill="white"/>
<circle cx="89.5" cy="8.5" r="2.5" transform="rotate(90 89.5 8.5)" fill="white"/>
<circle cx="77.5" cy="8.5" r="2.5" transform="rotate(90 77.5 8.5)" fill="white"/>
<circle cx="125.5" cy="42.5" r="2.5" transform="rotate(90 125.5 42.5)" fill="white"/>
<circle cx="113.5" cy="42.5" r="2.5" transform="rotate(90 113.5 42.5)" fill="white"/>
<circle cx="101.5" cy="42.5" r="2.5" transform="rotate(90 101.5 42.5)" fill="white"/>
<circle cx="89.5" cy="42.5" r="2.5" transform="rotate(90 89.5 42.5)" fill="white"/>
<circle cx="77.5" cy="42.5" r="2.5" transform="rotate(90 77.5 42.5)" fill="white"/>
<circle cx="125.5" cy="25.5" r="2.5" transform="rotate(90 125.5 25.5)" fill="white"/>
<circle cx="113.5" cy="25.5" r="2.5" transform="rotate(90 113.5 25.5)" fill="white"/>
<circle cx="101.5" cy="25.5" r="2.5" transform="rotate(90 101.5 25.5)" fill="white"/>
<circle cx="89.5" cy="25.5" r="2.5" transform="rotate(90 89.5 25.5)" fill="white"/>
<circle cx="77.5" cy="25.5" r="2.5" transform="rotate(90 77.5 25.5)" fill="white"/>
<circle cx="125.5" cy="59.5" r="2.5" transform="rotate(90 125.5 59.5)" fill="white"/>
<circle cx="113.5" cy="59.5" r="2.5" transform="rotate(90 113.5 59.5)" fill="white"/>
<circle cx="101.5" cy="59.5" r="2.5" transform="rotate(90 101.5 59.5)" fill="white"/>
<circle cx="89.5" cy="59.5" r="2.5" transform="rotate(90 89.5 59.5)" fill="white"/>
<circle cx="77.5" cy="59.5" r="2.5" transform="rotate(90 77.5 59.5)" fill="white"/>
</g>
</svg>
