<svg width="59.43px" height="60px" viewBox="0 0 60 60" fill="none"
                    xmlns="http://www.w3.org/2000/svg">
                    <path
                        d="M3.19009 41.9505C2.98848 41.9518 2.7927 41.883 2.63612 41.756C2.47954 41.629 2.37188 41.4516 2.33148 41.2541C2.29109 41.0565 2.32047 40.8511 2.41462 40.6728C2.50877 40.4945 2.66185 40.3544 2.84775 40.2764C3.03365 40.1984 3.24086 40.1873 3.43405 40.245C3.62723 40.3027 3.79442 40.4256 3.9071 40.5928C4.01978 40.7599 4.07097 40.961 4.05194 41.1618C4.03291 41.3625 3.94484 41.5504 3.80275 41.6934C3.64042 41.8565 3.42022 41.9489 3.19009 41.9505Z"
                        fill="#463B32" />
                    <path
                        d="M56.6851 40.019C56.4677 39.9433 56.2892 39.7843 56.1889 39.5771C56.0887 39.3699 56.0747 39.1313 56.1503 38.9138C56.226 38.6961 56.3851 38.5174 56.5926 38.417C56.8001 38.3166 57.039 38.3027 57.2567 38.3784C57.4741 38.4542 57.6526 38.6131 57.753 38.8203C57.8533 39.0275 57.8674 39.266 57.7921 39.4836C57.7327 39.6541 57.6218 39.8019 57.4748 39.9066C57.3277 40.0113 57.1517 40.0677 56.9712 40.0679C56.8737 40.0677 56.777 40.0512 56.6851 40.019ZM1.35031 38.606C1.28173 38.3864 1.30317 38.1486 1.40992 37.9449C1.51666 37.7411 1.69996 37.5881 1.91951 37.5195C2.13899 37.451 2.37665 37.4725 2.58034 37.5791C2.78404 37.6857 2.93712 37.8687 3.00599 38.0881C3.07426 38.3076 3.05275 38.5451 2.94617 38.7488C2.8396 38.9524 2.65665 39.1055 2.4374 39.1746C2.35313 39.2017 2.26516 39.2155 2.17664 39.2156C1.99201 39.2149 1.8124 39.1555 1.66382 39.0459C1.51525 38.9363 1.40544 38.7822 1.35031 38.606ZM57.617 37.1326C57.5058 37.1068 57.4008 37.0593 57.3079 36.9929C57.215 36.9264 57.1361 36.8424 57.0758 36.7454C57.0154 36.6485 56.9747 36.5407 56.9561 36.428C56.9374 36.3154 56.9411 36.2002 56.967 36.0889C57.0195 35.8646 57.1589 35.6703 57.3546 35.5487C57.5502 35.427 57.7862 35.3879 58.0106 35.4401C58.2349 35.4925 58.4292 35.6318 58.5508 35.8273C58.6725 36.0229 58.7116 36.2587 58.6595 36.4831C58.615 36.6739 58.5073 36.8441 58.3539 36.9661C58.2005 37.088 58.0104 37.1546 57.8144 37.1549C57.748 37.1549 57.6818 37.1474 57.617 37.1326ZM0.576489 35.5837C0.554055 35.4718 0.553891 35.3566 0.576002 35.2447C0.598113 35.1327 0.642067 35.0262 0.705353 34.9313C0.768639 34.8363 0.850018 34.7548 0.944836 34.6913C1.03965 34.6278 1.14605 34.5836 1.25796 34.5612C1.36977 34.5387 1.48493 34.5385 1.59684 34.5605C1.70875 34.5826 1.81521 34.6264 1.91013 34.6897C2.00505 34.7529 2.08657 34.8343 2.15001 34.9291C2.21345 35.0239 2.25758 35.1302 2.27986 35.2421C2.32499 35.4682 2.2785 35.703 2.15061 35.8948C2.02271 36.0867 1.82387 36.2199 1.59779 36.2652C1.54133 36.2763 1.4839 36.2818 1.42636 36.2815C1.22598 36.281 1.03193 36.2112 0.877062 36.0841C0.72219 35.9569 0.616008 35.7802 0.576489 35.5837ZM58.2363 34.164C58.0083 34.1358 57.8007 34.0183 57.6591 33.8373C57.5176 33.6562 57.4536 33.4264 57.4812 33.1983C57.4953 33.085 57.5315 32.9757 57.5878 32.8764C57.6441 32.7772 57.7194 32.69 57.8095 32.6199C57.8995 32.5497 58.0024 32.498 58.1125 32.4677C58.2225 32.4374 58.3374 32.4291 58.4506 32.4432C58.6787 32.4714 58.8864 32.5889 59.028 32.7699C59.1697 32.9509 59.2338 33.1807 59.2063 33.4089C59.1802 33.619 59.0783 33.8123 58.9199 33.9526C58.7614 34.093 58.5572 34.1707 58.3456 34.1713C58.309 34.1712 58.2726 34.1688 58.2363 34.164ZM0.124994 32.4957C0.103841 32.2663 0.1746 32.0379 0.321731 31.8607C0.468862 31.6835 0.68033 31.5719 0.909679 31.5504C1.13905 31.5293 1.36744 31.6001 1.54468 31.7472C1.72192 31.8943 1.8335 32.1058 1.85492 32.3351C1.87608 32.5645 1.80531 32.7929 1.65818 32.9701C1.51105 33.1474 1.29959 33.2589 1.07024 33.2804C1.04308 33.2804 1.01652 33.284 0.988751 33.284C0.772517 33.2836 0.564199 33.2026 0.404482 33.0568C0.244764 32.9111 0.145116 32.711 0.124994 32.4957ZM58.5424 31.1509C58.4284 31.1487 58.3159 31.124 58.2115 31.0784C58.107 31.0327 58.0125 30.9669 57.9335 30.8847C57.8545 30.8026 57.7924 30.7056 57.7508 30.5995C57.7093 30.4933 57.689 30.38 57.6913 30.266C57.6934 30.1519 57.718 30.0394 57.7636 29.9349C57.8092 29.8304 57.875 29.7358 57.9572 29.6567C58.0394 29.5776 58.1363 29.5155 58.2425 29.4739C58.3488 29.4323 58.4621 29.4121 58.5762 29.4143C58.6904 29.4165 58.803 29.4412 58.9077 29.4869C59.0123 29.5327 59.1069 29.5986 59.1861 29.681C59.2652 29.7633 59.3274 29.8605 59.369 29.9669C59.4106 30.0733 59.4308 30.1868 59.4285 30.301C59.4239 30.5283 59.3303 30.7448 59.1679 30.9039C59.0055 31.063 58.7872 31.1521 58.5599 31.1521H58.5424V31.1509ZM0.858372 30.2575C0.628215 30.2548 0.408543 30.1609 0.247607 29.9963C0.086671 29.8318 -0.00236733 29.61 4.7883e-05 29.3799C0.00122954 29.2658 0.0248982 29.1531 0.0696977 29.0482C0.114497 28.9433 0.179548 28.8483 0.261126 28.7686C0.342704 28.6888 0.439207 28.626 0.545109 28.5836C0.651011 28.5412 0.764232 28.5201 0.87829 28.5216C0.992375 28.5226 1.10514 28.5461 1.2101 28.5908C1.31507 28.6355 1.41018 28.7005 1.48998 28.782C1.56978 28.8636 1.6327 28.9601 1.67513 29.066C1.71755 29.1719 1.73865 29.2851 1.73722 29.3992C1.73468 29.6278 1.64202 29.8462 1.47939 30.0069C1.31676 30.1677 1.09728 30.2577 0.868634 30.2575H0.858372ZM57.5971 27.3294C57.5874 27.2157 57.6003 27.1012 57.6349 26.9925C57.6694 26.8837 57.7251 26.7828 57.7987 26.6956C57.8723 26.6084 57.9624 26.5365 58.0638 26.4841C58.1652 26.4317 58.2759 26.3998 58.3896 26.3902C58.5033 26.3805 58.6178 26.3932 58.7266 26.4277C58.8353 26.4623 58.9362 26.5179 59.0235 26.5915C59.1107 26.665 59.1826 26.755 59.235 26.8564C59.2874 26.9578 59.3193 27.0685 59.3289 27.1822C59.3481 27.412 59.2753 27.6401 59.1264 27.8163C58.9776 27.9925 58.7649 28.1025 58.5351 28.122C58.511 28.122 58.4868 28.125 58.4627 28.125C58.2448 28.125 58.0349 28.0433 57.8744 27.896C57.7139 27.7487 57.6145 27.5465 57.5959 27.3294H57.5971ZM0.959175 27.2311C0.730421 27.2043 0.521613 27.0879 0.378494 26.9074C0.235375 26.727 0.169613 26.4972 0.195615 26.2683C0.221959 26.0395 0.338125 25.8305 0.51856 25.6873C0.698994 25.5441 0.928919 25.4784 1.15776 25.5048C1.2712 25.5177 1.38098 25.5529 1.48081 25.6083C1.58065 25.6637 1.66859 25.7383 1.73961 25.8277C1.81063 25.9171 1.86333 26.0196 1.89472 26.1294C1.92611 26.2392 1.93556 26.3541 1.92253 26.4675C1.8977 26.6791 1.79613 26.8743 1.63705 27.016C1.47797 27.1577 1.27243 27.2362 1.05937 27.2365C1.0255 27.2365 0.991648 27.2347 0.957967 27.2311H0.959175ZM57.1975 24.4195C57.154 24.1934 57.202 23.9592 57.331 23.7685C57.4601 23.5778 57.6596 23.4461 57.8856 23.4024C58.1121 23.3592 58.3464 23.4077 58.5371 23.5372C58.7278 23.6667 58.8593 23.8666 58.9027 24.0929C58.9242 24.205 58.9233 24.3203 58.9002 24.4321C58.8771 24.5439 58.8322 24.65 58.7681 24.7445C58.704 24.8389 58.6219 24.9198 58.5265 24.9825C58.4311 25.0453 58.3243 25.0886 58.2122 25.11C58.1578 25.1201 58.1027 25.1252 58.0474 25.1251C57.8457 25.1246 57.6504 25.0539 57.4951 24.9252C57.3398 24.7964 57.2342 24.6176 57.1963 24.4195H57.1975ZM1.37506 24.2293C1.2636 24.2046 1.15812 24.1582 1.06467 24.0926C0.971215 24.027 0.891638 23.9437 0.830504 23.8472C0.76937 23.7508 0.727886 23.6433 0.708429 23.5308C0.688973 23.4183 0.691929 23.3031 0.717129 23.1917C0.767336 22.9677 0.904265 22.7727 1.09794 22.6494C1.29162 22.5261 1.52626 22.4845 1.7505 22.5338C1.9753 22.5844 2.17081 22.7222 2.29407 22.9168C2.41733 23.1115 2.45825 23.3472 2.40782 23.572C2.36506 23.7644 2.25809 23.9365 2.10451 24.0601C1.95092 24.1836 1.75987 24.2512 1.56278 24.2517C1.49915 24.2515 1.43576 24.244 1.37385 24.2293H1.37506ZM56.4931 21.5687C56.46 21.4595 56.4487 21.3449 56.4599 21.2314C56.4711 21.1179 56.5046 21.0077 56.5584 20.9071C56.6122 20.8066 56.6853 20.7176 56.7736 20.6453C56.8618 20.573 56.9634 20.5188 57.0726 20.4858C57.1817 20.4526 57.2962 20.4412 57.4097 20.4523C57.5231 20.4633 57.6333 20.4967 57.7339 20.5504C57.8345 20.6041 57.9235 20.6771 57.9958 20.7653C58.0681 20.8534 58.1224 20.9549 58.1554 21.064C58.189 21.1733 58.2006 21.2881 58.1897 21.4019C58.1789 21.5157 58.1456 21.6262 58.092 21.7271C58.0383 21.828 57.9653 21.9174 57.8771 21.99C57.7888 22.0627 57.6871 22.1172 57.5778 22.1505C57.4953 22.1751 57.4097 22.1875 57.3237 22.1873C57.1369 22.1874 56.9551 22.1273 56.8053 22.0158C56.6555 21.9044 56.5456 21.7475 56.4919 21.5687H56.4931ZM2.10361 21.2886C1.8856 21.2144 1.70595 21.0567 1.6041 20.8502C1.50224 20.6436 1.48651 20.4051 1.56036 20.187C1.63443 19.9692 1.7919 19.7897 1.99819 19.6878C2.20449 19.586 2.44277 19.5701 2.66073 19.6438C2.87854 19.7182 3.05799 19.8759 3.1598 20.0824C3.26161 20.2888 3.27749 20.5272 3.20398 20.7453C3.14578 20.9176 3.03504 21.0672 2.88735 21.1732C2.73966 21.2792 2.56245 21.3362 2.38066 21.3363C2.28591 21.3358 2.19189 21.3197 2.1024 21.2886H2.10361ZM55.4923 18.8084C55.4478 18.7034 55.4244 18.5906 55.4235 18.4765C55.4226 18.3624 55.4441 18.2493 55.487 18.1436C55.5298 18.0379 55.593 17.9416 55.6731 17.8603C55.7531 17.7791 55.8484 17.7144 55.9535 17.67C56.1656 17.5801 56.4047 17.5782 56.6183 17.6645C56.8319 17.7509 57.0024 17.9185 57.0925 18.1305C57.1823 18.3427 57.1842 18.5819 57.0977 18.7955C57.0112 19.0091 56.8435 19.1796 56.6313 19.2695C56.5244 19.3156 56.4092 19.3392 56.2927 19.3389C56.1217 19.3392 55.9545 19.2889 55.8119 19.1946C55.6693 19.1002 55.5578 18.9659 55.4911 18.8084H55.4923ZM3.13879 18.4414C2.93005 18.3443 2.76834 18.1684 2.68913 17.9523C2.60992 17.7362 2.61967 17.4974 2.71626 17.2885C2.81267 17.0807 2.98724 16.9193 3.20201 16.8395C3.41678 16.7597 3.65437 16.7679 3.86311 16.8624C4.07247 16.9591 4.23487 17.135 4.31466 17.3514C4.39445 17.5677 4.38509 17.807 4.28865 18.0164C4.21901 18.1668 4.10789 18.2942 3.96835 18.3836C3.82882 18.473 3.66666 18.5207 3.50095 18.5211C3.37587 18.5211 3.25228 18.494 3.13879 18.4414ZM54.2037 16.17C54.1482 16.0702 54.113 15.9605 54.1 15.8471C54.087 15.7337 54.0965 15.6188 54.1279 15.5091C54.1593 15.3993 54.212 15.2969 54.283 15.2075C54.354 15.1181 54.4419 15.0436 54.5417 14.9882C54.6415 14.9328 54.7513 14.8977 54.8648 14.8848C54.9782 14.8718 55.0931 14.8814 55.2029 14.9129C55.3126 14.9444 55.4151 14.9972 55.5044 15.0683C55.5938 15.1395 55.6682 15.2275 55.7235 15.3274C55.8346 15.529 55.8613 15.7665 55.7977 15.9878C55.7342 16.209 55.5855 16.3961 55.3843 16.508C55.2551 16.5799 55.1096 16.6173 54.9618 16.6167C54.8071 16.6166 54.6552 16.5752 54.5219 16.4966C54.3886 16.4181 54.2787 16.3053 54.2037 16.17ZM4.46671 15.7179C4.36863 15.6596 4.283 15.5825 4.21474 15.4911C4.14647 15.3997 4.0969 15.2957 4.06887 15.185C4.04084 15.0744 4.03489 14.9594 4.05137 14.8465C4.06785 14.7336 4.10644 14.625 4.16491 14.527C4.28291 14.329 4.47472 14.186 4.69817 14.1294C4.92162 14.0728 5.1584 14.1072 5.35643 14.2252C5.45451 14.2835 5.54014 14.3606 5.6084 14.452C5.67667 14.5435 5.72624 14.6475 5.75427 14.7581C5.7823 14.8687 5.78825 14.9838 5.77177 15.0967C5.75529 15.2096 5.7167 15.3181 5.65823 15.4161C5.5808 15.5453 5.47118 15.6521 5.34009 15.7261C5.209 15.8002 5.06093 15.839 4.91036 15.8386C4.75425 15.8395 4.60087 15.7978 4.46671 15.7179ZM52.6476 13.679C52.5819 13.5856 52.5353 13.4801 52.5105 13.3687C52.4856 13.2573 52.483 13.142 52.5028 13.0296C52.5226 12.9172 52.5644 12.8097 52.6258 12.7135C52.6872 12.6172 52.767 12.5341 52.8606 12.4687C53.0491 12.3372 53.282 12.2858 53.5083 12.3257C53.7346 12.3657 53.9358 12.4937 54.0678 12.6818C54.1335 12.7752 54.1801 12.8807 54.205 12.9922C54.2298 13.1037 54.2324 13.219 54.2126 13.3314C54.1928 13.4439 54.151 13.5514 54.0896 13.6477C54.0282 13.744 53.9484 13.8272 53.8548 13.8926C53.7094 13.995 53.5359 14.0501 53.358 14.0502C53.2187 14.0499 53.0814 14.016 52.958 13.9513C52.8345 13.8867 52.7284 13.7933 52.6488 13.679H52.6476ZM6.07532 13.1508C5.8907 13.0129 5.76842 12.8072 5.73537 12.5792C5.70232 12.3511 5.7612 12.1192 5.89907 11.9345C5.96742 11.8431 6.05312 11.766 6.15127 11.7077C6.24942 11.6493 6.35811 11.6109 6.47111 11.5946C6.58411 11.5783 6.69922 11.5844 6.80986 11.6126C6.9205 11.6408 7.02451 11.6905 7.11593 11.7589C7.2078 11.8271 7.28528 11.9128 7.34392 12.0111C7.40257 12.1093 7.44122 12.2182 7.45765 12.3315C7.47409 12.4447 7.46798 12.5601 7.43969 12.671C7.4114 12.7818 7.36147 12.886 7.29279 12.9776C7.21212 13.086 7.10713 13.174 6.98626 13.2345C6.86538 13.295 6.732 13.3263 6.59683 13.3258C6.40903 13.3253 6.22648 13.2639 6.07652 13.1508H6.07532ZM50.838 11.3647C50.6869 11.1909 50.611 10.9641 50.6271 10.7343C50.6431 10.5045 50.7498 10.2905 50.9237 10.1394C51.0097 10.0644 51.1097 10.0072 51.2178 9.97091C51.326 9.93463 51.4403 9.92006 51.5541 9.92802C51.6679 9.93598 51.7791 9.96632 51.8812 10.0173C51.9832 10.0683 52.0742 10.1389 52.149 10.2251C52.2239 10.3111 52.2812 10.4111 52.3174 10.5192C52.3537 10.6274 52.3683 10.7416 52.3604 10.8554C52.3525 10.9692 52.3223 11.0804 52.2714 11.1825C52.2205 11.2846 52.15 11.3756 52.0639 11.4504C51.9059 11.5884 51.7032 11.6641 51.4935 11.6635C51.3694 11.6634 51.2468 11.6366 51.1339 11.5851C51.021 11.5336 50.9205 11.4584 50.8392 11.3647H50.838ZM7.94347 10.7648C7.85983 10.6872 7.79229 10.5939 7.74471 10.4902C7.69714 10.3865 7.67046 10.2744 7.6662 10.1604C7.66194 10.0464 7.68018 9.93265 7.71989 9.82569C7.75959 9.71873 7.81998 9.62064 7.8976 9.53702C7.97496 9.45329 8.06807 9.38563 8.17161 9.33792C8.27514 9.2902 8.38706 9.26336 8.50097 9.25893C8.61489 9.2545 8.72856 9.27257 8.83548 9.3121C8.94241 9.35164 9.04049 9.41187 9.12412 9.48934C9.20798 9.56682 9.27574 9.66007 9.32353 9.76375C9.37132 9.86744 9.39819 9.97953 9.40262 10.0936C9.40705 10.2077 9.38894 10.3215 9.34934 10.4286C9.30973 10.5357 9.2494 10.6339 9.17181 10.7177C9.09068 10.8056 8.99221 10.8758 8.88261 10.9238C8.77301 10.9718 8.65465 10.9966 8.535 10.9965C8.31562 10.9968 8.10427 10.914 7.94347 10.7648ZM48.7996 9.25212C48.716 9.17436 48.6486 9.08087 48.6012 8.97701C48.5537 8.87315 48.5273 8.76095 48.5233 8.64685C48.5193 8.53275 48.5379 8.41898 48.578 8.31206C48.618 8.20515 48.6788 8.10719 48.7567 8.02379C48.9139 7.85542 49.1315 7.75634 49.3617 7.74831C49.5919 7.74027 49.8159 7.82394 49.9845 7.98093C50.1527 8.13832 50.2517 8.35599 50.2597 8.58624C50.2678 8.81649 50.1842 9.04054 50.0273 9.20927C49.9458 9.29639 49.8473 9.36583 49.7379 9.41328C49.6284 9.46073 49.5104 9.48518 49.3911 9.48511C49.1715 9.48572 48.9598 9.40238 48.7996 9.25212ZM10.0482 8.58816C9.97309 8.50237 9.91558 8.40262 9.879 8.2946C9.84243 8.18658 9.82749 8.07241 9.83506 7.95861C9.84263 7.84482 9.87255 7.73363 9.92311 7.63141C9.97367 7.52918 10.0439 7.43792 10.1297 7.36284C10.3028 7.211 10.5291 7.1341 10.7589 7.14904C10.9886 7.16398 11.2031 7.26954 11.355 7.44252C11.507 7.61591 11.5839 7.8425 11.569 8.07256C11.5541 8.30262 11.4485 8.51736 11.2754 8.66964C11.1171 8.80848 10.9137 8.88487 10.7031 8.88453C10.5794 8.88443 10.4572 8.85783 10.3446 8.80649C10.2321 8.75516 10.1318 8.6803 10.0507 8.58695L10.0482 8.58816ZM46.5488 7.36405C46.365 7.22499 46.2439 7.01873 46.212 6.7905C46.1801 6.56227 46.24 6.33071 46.3785 6.14658C46.5177 5.96295 46.7239 5.84194 46.9521 5.81004C47.1803 5.77814 47.4118 5.83794 47.596 5.97636C47.7796 6.11552 47.9006 6.32177 47.9325 6.54995C47.9644 6.77813 47.9046 7.00965 47.7662 7.19383C47.6851 7.30114 47.5802 7.38817 47.4597 7.44808C47.3393 7.50799 47.2066 7.53914 47.0721 7.53909C46.8832 7.53936 46.6995 7.47789 46.5488 7.36405ZM12.3739 6.63973C12.2423 6.45187 12.1901 6.2196 12.2289 5.9935C12.2677 5.7674 12.3942 5.56577 12.581 5.43252C12.6741 5.3666 12.7792 5.3197 12.8905 5.29449C13.0017 5.26928 13.1169 5.26626 13.2293 5.2856C13.3417 5.30495 13.4492 5.34627 13.5456 5.40722C13.642 5.46816 13.7255 5.54752 13.7912 5.64076C13.8572 5.73383 13.9042 5.839 13.9295 5.95025C13.9548 6.06149 13.9579 6.17664 13.9387 6.2891C13.9195 6.40156 13.8783 6.50912 13.8174 6.60564C13.7566 6.70216 13.6773 6.78573 13.5841 6.85159C13.4378 6.95503 13.263 7.01069 13.0838 7.01094C12.9444 7.01038 12.8072 6.97637 12.6836 6.91178C12.5601 6.84718 12.4539 6.75389 12.3739 6.63973ZM44.1168 5.71682C43.9206 5.59763 43.7794 5.40567 43.7241 5.18279C43.6688 4.95992 43.7039 4.72422 43.8217 4.52711C43.9406 4.33001 44.1328 4.18812 44.3561 4.13256C44.5795 4.07699 44.8158 4.11231 45.0132 4.23074C45.2104 4.34952 45.3524 4.54174 45.408 4.76516C45.4636 4.98858 45.4282 5.22493 45.3096 5.42226C45.2325 5.5512 45.1233 5.65793 44.9926 5.732C44.862 5.80606 44.7143 5.84492 44.5641 5.84478C44.4058 5.84452 44.2505 5.80112 44.115 5.71923L44.1168 5.71682ZM14.8849 4.94964C14.7728 4.74847 14.745 4.51108 14.8075 4.28945C14.8701 4.06782 15.018 3.88002 15.2187 3.76718C15.4198 3.6549 15.6573 3.627 15.879 3.68957C16.1006 3.75215 16.2884 3.9001 16.4012 4.10097C16.5136 4.30206 16.5416 4.53956 16.479 4.76129C16.4164 4.98301 16.2684 5.17081 16.0674 5.28343C15.9384 5.35612 15.7929 5.39437 15.6449 5.39449C15.49 5.39473 15.338 5.35363 15.2044 5.27542C15.0708 5.19721 14.9605 5.08474 14.8849 4.94964ZM41.5213 4.3406C41.4178 4.29255 41.3247 4.22456 41.2474 4.14052C41.1701 4.05648 41.1101 3.95803 41.0708 3.8508C41.0316 3.74356 41.0139 3.62965 41.0187 3.51557C41.0235 3.40148 41.0507 3.28946 41.0988 3.18591C41.1469 3.08232 41.2149 2.98922 41.2989 2.91192C41.3829 2.83462 41.4814 2.77464 41.5886 2.7354C41.6959 2.69616 41.8098 2.67844 41.9239 2.68324C42.0379 2.68804 42.15 2.71527 42.2535 2.76338C42.4626 2.86055 42.6245 3.03675 42.7038 3.25327C42.783 3.46979 42.773 3.70891 42.676 3.91808C42.606 4.06816 42.4945 4.19511 42.3548 4.28397C42.215 4.37283 42.0527 4.41991 41.8871 4.41967C41.7608 4.42016 41.6359 4.39275 41.5213 4.33939V4.3406ZM17.5583 3.52996C17.5132 3.42522 17.4892 3.31262 17.4877 3.19861C17.4862 3.08459 17.5071 2.97139 17.5494 2.86549C17.5917 2.75958 17.6544 2.66306 17.734 2.58142C17.8136 2.49979 17.9086 2.43466 18.0134 2.38975C18.2251 2.29911 18.4642 2.29626 18.678 2.38183C18.8918 2.46741 19.0629 2.63439 19.1536 2.84608C19.244 3.05711 19.247 3.29538 19.1621 3.50865C19.0771 3.72193 18.911 3.89282 18.7003 3.98387C18.5924 4.03045 18.4762 4.05448 18.3587 4.05449C18.1888 4.05447 18.0227 4.00466 17.8809 3.91122C17.739 3.81778 17.6277 3.6848 17.5607 3.52875L17.5583 3.52996ZM38.7949 3.24264C38.6866 3.20592 38.5867 3.14821 38.5008 3.07283C38.4149 2.99744 38.3447 2.90586 38.2943 2.80331C38.2438 2.70077 38.2141 2.58928 38.2068 2.47523C38.1994 2.36118 38.2147 2.24681 38.2516 2.13865C38.2885 2.03061 38.3464 1.93092 38.4219 1.84528C38.4973 1.75965 38.589 1.68976 38.6916 1.63963C38.7941 1.5895 38.9056 1.5601 39.0195 1.55314C39.1335 1.54617 39.2477 1.56177 39.3556 1.59903C39.4635 1.63592 39.5631 1.69373 39.6486 1.76914C39.7341 1.84456 39.804 1.9361 39.8541 2.03853C39.9042 2.14095 39.9336 2.25226 39.9407 2.36608C39.9478 2.47989 39.9323 2.59398 39.8952 2.70182C39.8366 2.87302 39.726 3.02165 39.5788 3.12695C39.4317 3.23224 39.2553 3.28894 39.0743 3.28912C38.98 3.28809 38.8865 3.27199 38.7973 3.24144L38.7949 3.24264ZM20.3687 2.3976C20.335 2.28853 20.3231 2.17389 20.3338 2.06024C20.3444 1.94659 20.3774 1.83615 20.4308 1.73525C20.4841 1.63434 20.5569 1.54494 20.6448 1.47217C20.7327 1.39939 20.8342 1.34466 20.9433 1.31111C21.1633 1.24335 21.4013 1.2656 21.6049 1.37298C21.8086 1.48035 21.9614 1.6641 22.0298 1.88393C22.0973 2.10421 22.0747 2.34227 21.967 2.54593C21.8593 2.7496 21.6752 2.90225 21.4551 2.97042C21.3723 2.99626 21.286 3.00949 21.1992 3.00965C21.0141 3.00914 20.8339 2.94957 20.685 2.8396C20.536 2.72962 20.4261 2.57499 20.3711 2.3982L20.3687 2.3976ZM35.9706 2.43563C35.8594 2.41034 35.7542 2.36336 35.6611 2.29739C35.568 2.23141 35.4888 2.14774 35.4281 2.05115C35.3674 1.95455 35.3263 1.84694 35.3073 1.73446C35.2882 1.62197 35.2914 1.50683 35.3169 1.39562C35.3683 1.17097 35.5067 0.97591 35.7019 0.853327C35.897 0.730743 36.1328 0.690669 36.3575 0.741915C36.4687 0.767341 36.5739 0.814429 36.6669 0.88049C36.7599 0.946552 36.839 1.03029 36.8996 1.12693C36.9603 1.22356 37.0013 1.3312 37.0203 1.44369C37.0394 1.55618 37.0361 1.67132 37.0106 1.78253C36.967 1.97409 36.8596 2.14516 36.7061 2.26776C36.5526 2.39035 36.362 2.4572 36.1656 2.45736C36.1014 2.45751 36.0374 2.45043 35.9748 2.43623L35.9706 2.43563ZM23.2853 1.56946C23.2633 1.45753 23.2637 1.34237 23.2863 1.23057C23.3089 1.11878 23.3533 1.01253 23.4169 0.917901C23.4806 0.823276 23.5623 0.742129 23.6574 0.6791C23.7525 0.616071 23.859 0.572397 23.971 0.550572C24.1971 0.506641 24.4314 0.554329 24.6224 0.683146C24.8133 0.811963 24.9453 1.01136 24.9892 1.23747C25.0112 1.34944 25.0108 1.46463 24.9883 1.57647C24.9657 1.68831 24.9213 1.7946 24.8576 1.88927C24.7939 1.98395 24.7122 2.06515 24.6172 2.12823C24.5221 2.19132 24.4155 2.23507 24.3035 2.25696C24.2481 2.26783 24.1917 2.27309 24.1351 2.27265C23.9339 2.27211 23.7392 2.20169 23.5841 2.07342C23.4291 1.94515 23.3235 1.76701 23.2853 1.56946ZM33.0793 1.93162C32.8508 1.90382 32.6426 1.78656 32.5004 1.60553C32.3582 1.4245 32.2935 1.19447 32.3206 0.965852C32.3341 0.852574 32.3699 0.743073 32.4257 0.643603C32.4816 0.544133 32.5565 0.456643 32.6462 0.38613C32.7359 0.315617 32.8386 0.263461 32.9484 0.232643C33.0583 0.201825 33.1731 0.192948 33.2864 0.206518C33.515 0.23401 33.7234 0.351193 33.8657 0.5323C34.008 0.713407 34.0725 0.943609 34.0451 1.17228C34.0201 1.38324 33.9187 1.57772 33.7599 1.71889C33.6012 1.86005 33.3962 1.9381 33.1838 1.93826C33.1483 1.93886 33.1129 1.93765 33.0775 1.93464L33.0793 1.93162ZM26.2701 1.05519C26.25 0.825735 26.3218 0.597688 26.4697 0.421135C26.6176 0.244581 26.8296 0.133958 27.059 0.113563C27.1729 0.103544 27.2876 0.116097 27.3966 0.150503C27.5056 0.184909 27.6067 0.24049 27.6942 0.314061C27.7817 0.387632 27.8538 0.477746 27.9064 0.579236C27.9589 0.680726 27.991 0.791597 28.0006 0.905491C28.0109 1.01912 27.9986 1.13366 27.9646 1.24254C27.9305 1.35142 27.8752 1.4525 27.802 1.53999C27.7287 1.62747 27.639 1.69963 27.5378 1.75234C27.4366 1.80504 27.326 1.83725 27.2123 1.84711C27.187 1.84953 27.161 1.85073 27.1344 1.85073C26.917 1.85031 26.7075 1.76837 26.5475 1.62109C26.3875 1.4738 26.2885 1.27189 26.2701 1.05519ZM30.1482 1.73786C29.9178 1.73389 29.6982 1.63871 29.5378 1.47319C29.3774 1.30766 29.2891 1.08528 29.2923 0.854789C29.2965 0.624571 29.3916 0.405368 29.557 0.245176C29.7224 0.0849839 29.9446 -0.00314479 30.1748 8.57847e-05C30.2889 0.00173732 30.4015 0.0258682 30.5063 0.0710976C30.611 0.116327 30.7059 0.181767 30.7853 0.263675C30.8647 0.345582 30.9273 0.442349 30.9693 0.54844C31.0113 0.65453 31.0319 0.767862 31.0301 0.881951C31.0269 1.10995 30.9342 1.32755 30.7719 1.48771C30.6096 1.64786 30.3907 1.73772 30.1627 1.73786H30.1482Z"
                        fill="#463B32" />
                    <path
                        d="M55.8092 42.9036C55.608 42.9039 55.4128 42.8343 55.2571 42.7068C55.1013 42.5793 54.9946 42.4017 54.9552 42.2043C54.9157 42.007 54.9459 41.802 55.0407 41.6244C55.1354 41.4468 55.2888 41.3076 55.4747 41.2305C55.6607 41.1533 55.8676 41.143 56.0602 41.2014C56.2529 41.2597 56.4193 41.3831 56.5312 41.5504C56.643 41.7177 56.6934 41.9187 56.6737 42.119C56.654 42.3193 56.5654 42.5066 56.4231 42.6489C56.2598 42.8109 56.0393 42.9024 55.8092 42.9036Z"
                        fill="#463B32" />
                    <path
                        d="M23.3142 17.7714C23.1418 17.7708 22.9756 17.7062 22.8481 17.5901C22.7205 17.474 22.6405 17.3147 22.6236 17.1431C22.6067 16.9714 22.6541 16.7996 22.7566 16.6609C22.8591 16.5222 23.0094 16.4264 23.1784 16.3922C23.5146 16.3239 23.872 16.2636 24.2178 16.2056C24.9886 16.0765 25.7872 15.9425 26.418 15.7107C27.4725 15.3247 28.5029 14.8756 29.5036 14.3659C30.5865 13.813 31.382 13.1586 32.0822 12.2532C32.2675 12.0118 32.4443 11.7673 32.6254 11.5078C32.7462 11.3412 32.8669 11.174 32.9876 11.0092L33.0522 10.9042C32.5264 10.8704 32.0261 10.8734 31.5432 10.8758C31.3754 10.8758 31.2082 10.8758 31.0416 10.8758C30.0266 10.8644 29.0138 10.9711 28.0236 11.1939C26.5145 11.5428 24.4243 12.3287 23.0342 14.0912C22.1656 15.1928 20.866 16.4917 19.5936 16.4151C19.4987 16.4151 19.4048 16.3956 19.3177 16.358C19.2305 16.3204 19.152 16.2653 19.0869 16.1962C19.0218 16.1272 18.9715 16.0455 18.9391 15.9563C18.9067 15.8671 18.8929 15.7722 18.8985 15.6774C18.9041 15.5827 18.929 15.4901 18.9717 15.4053C19.0144 15.3205 19.0739 15.2453 19.1467 15.1844C19.2195 15.1235 19.304 15.0781 19.3949 15.051C19.4859 15.0239 19.5815 15.0156 19.6757 15.0268C20.1664 15.0564 21.0592 14.3514 21.9422 13.2311C23.2388 11.5893 25.2337 10.4122 27.7091 9.83883C28.8042 9.59264 29.924 9.47395 31.0464 9.48511C31.21 9.48511 31.3729 9.48511 31.5365 9.48511C32.3961 9.48028 33.287 9.47546 34.3391 9.65231C34.4609 9.67274 34.5752 9.72522 34.6701 9.80439C34.765 9.88355 34.8371 9.98653 34.8791 10.1028C34.9211 10.219 34.9314 10.3443 34.9089 10.4659C34.8864 10.5874 34.8321 10.7008 34.7513 10.7943C34.691 10.8897 34.5219 11.168 34.4193 11.3376C34.2292 11.6557 34.1634 11.7643 34.1175 11.8289C33.9968 11.9913 33.8809 12.1549 33.7632 12.319C33.5821 12.5768 33.3878 12.843 33.1874 13.1037C32.3544 14.1836 31.414 14.955 30.1392 15.6063C29.0876 16.1433 28.0043 16.6159 26.8954 17.0217C26.1427 17.297 25.2808 17.4442 24.4472 17.5819C24.0971 17.6422 23.7663 17.6965 23.4537 17.7599C23.4077 17.7684 23.361 17.7723 23.3142 17.7714ZM34.5503 10.9543C34.5079 10.977 34.4632 10.995 34.4169 11.008C34.4633 10.9952 34.508 10.9771 34.5503 10.9543Z"
                        fill="#463B32" />
                    <path
                        d="M23.3142 17.8293C23.1781 17.829 23.0447 17.792 22.9279 17.722C22.8112 17.652 22.7155 17.5518 22.6511 17.4319C22.5867 17.312 22.556 17.1769 22.5621 17.0409C22.5682 16.905 22.611 16.7732 22.6859 16.6595C22.7404 16.5767 22.8109 16.5056 22.8931 16.4503C22.9754 16.3949 23.0679 16.3565 23.1652 16.3372C23.5008 16.269 23.8581 16.2087 24.2033 16.1507C24.9766 16.0209 25.7727 15.8875 26.3962 15.6582C27.4484 15.2739 28.4764 14.8264 29.4746 14.3182C30.5496 13.7695 31.3385 13.123 32.0339 12.2219C32.215 11.9846 32.39 11.7432 32.5729 11.4873C32.6985 11.3116 32.8186 11.1444 32.9405 10.979C32.9435 10.9742 32.9478 10.9682 32.952 10.9603C32.5814 10.9392 32.2331 10.9368 31.9379 10.9368C31.8088 10.9368 31.6808 10.9368 31.5534 10.9368H30.9486C29.968 10.9319 28.99 11.038 28.0332 11.2531C26.5339 11.6001 24.4563 12.3806 23.077 14.1317C22.232 15.203 20.9602 16.4803 19.6968 16.4809C19.66 16.4809 19.6226 16.4809 19.5852 16.4773C19.4862 16.4712 19.3893 16.4457 19.3002 16.4022C19.211 16.3587 19.1313 16.2981 19.0656 16.2238C18.9999 16.1495 18.9495 16.063 18.9172 15.9692C18.8849 15.8754 18.8714 15.7762 18.8775 15.6772C18.8835 15.5782 18.909 15.4813 18.9525 15.3922C18.996 15.303 19.0566 15.2233 19.1309 15.1576C19.2052 15.0919 19.2917 15.0415 19.3855 15.0092C19.4793 14.9769 19.5785 14.9634 19.6775 14.9695H19.7053C20.1882 14.9695 21.0453 14.2735 21.8958 13.1955C23.202 11.5374 25.2083 10.3585 27.697 9.78088C28.771 9.53952 29.8689 9.42046 30.9697 9.42596H31.5365C31.6778 9.42596 31.8196 9.42596 31.959 9.42596C32.7584 9.41414 33.5573 9.47088 34.3469 9.59557C34.479 9.61764 34.6029 9.67448 34.7057 9.76024C34.8086 9.84601 34.8868 9.95761 34.9323 10.0836C34.9777 10.2096 34.9889 10.3454 34.9645 10.4771C34.9401 10.6088 34.8811 10.7316 34.7936 10.833C34.7386 10.9163 34.5902 11.1637 34.4676 11.3702C34.2757 11.6907 34.2099 11.7999 34.161 11.8663C34.0511 12.0148 33.9443 12.1639 33.8369 12.3136L33.8067 12.3559C33.6256 12.613 33.4318 12.8792 33.2296 13.1405C32.3912 14.227 31.4454 15.0039 30.1615 15.6594C29.1082 16.1951 28.0236 16.667 26.9135 17.0724C26.156 17.3501 25.2904 17.4949 24.4544 17.6356H24.4412C24.0965 17.6959 23.7712 17.7478 23.4633 17.8106C23.4143 17.8215 23.3644 17.8278 23.3142 17.8293ZM31.9403 10.8185C32.2627 10.8185 32.6478 10.8221 33.0582 10.8487C33.0681 10.8495 33.0776 10.8527 33.0859 10.8581C33.0942 10.8635 33.1011 10.8708 33.1059 10.8794C33.1105 10.8882 33.113 10.8979 33.113 10.9078C33.113 10.9177 33.1105 10.9274 33.1059 10.9362C33.0763 10.9851 33.0522 11.0243 33.0395 11.043C32.9188 11.2108 32.7981 11.3774 32.6773 11.544C32.4872 11.8096 32.3152 12.0522 32.1287 12.2907C31.4231 13.2063 30.6197 13.8631 29.5332 14.4196C28.5294 14.93 27.4958 15.3795 26.4379 15.7656C25.8017 15.9986 25.0025 16.1326 24.2293 16.2624C23.8798 16.3227 23.5237 16.3831 23.1899 16.4489C23.0347 16.4803 22.8967 16.5682 22.8027 16.6956C22.7087 16.8229 22.6653 16.9807 22.681 17.1382C22.6968 17.2958 22.7704 17.4418 22.8878 17.5481C23.0051 17.6544 23.1577 17.7133 23.3161 17.7134C23.3588 17.7134 23.4015 17.7092 23.4434 17.7008C23.7537 17.6374 24.0802 17.5831 24.4255 17.5251H24.4394C25.2699 17.3851 26.1294 17.2408 26.8773 16.9674C27.9831 16.5637 29.0635 16.0936 30.1126 15.5598C31.3802 14.9127 32.3146 14.1455 33.1415 13.0735C33.3425 12.8116 33.5326 12.5466 33.7167 12.2889L33.7463 12.2466C33.8538 12.0969 33.9612 11.9448 34.0711 11.7981C34.1169 11.7378 34.1821 11.6279 34.3729 11.3116C34.4284 11.2181 34.4888 11.1167 34.5449 11.0249L34.534 11.0297C34.5028 11.0435 34.4708 11.0552 34.4381 11.0647C34.4249 11.0648 34.4121 11.0605 34.4016 11.0526C34.3911 11.0448 34.3834 11.0336 34.3798 11.021C34.3762 11.0084 34.3768 10.9949 34.3815 10.9826C34.3863 10.9704 34.3949 10.96 34.4061 10.9531C34.434 10.945 34.4615 10.9351 34.4881 10.9235L34.5274 10.9048C34.5408 10.8984 34.556 10.8971 34.5703 10.9012C34.5845 10.9053 34.5968 10.9146 34.6046 10.9271C34.6481 10.8571 34.6843 10.7986 34.7073 10.7635C34.8175 10.6376 34.8745 10.4738 34.866 10.3066C34.8589 10.1613 34.8022 10.0228 34.7053 9.91426C34.6084 9.80572 34.4772 9.73371 34.3336 9.71026C33.5503 9.58693 32.7579 9.5308 31.9651 9.54245C31.8226 9.54245 31.6814 9.54245 31.5426 9.54245H30.974C29.8801 9.53799 28.7892 9.65767 27.7224 9.89919C25.2591 10.469 23.2756 11.6351 21.9881 13.2727C21.0827 14.4196 20.1912 15.1216 19.6727 15.0896H19.6359C19.47 15.0897 19.3106 15.1545 19.1916 15.27C19.0726 15.3856 19.0032 15.543 18.9982 15.7089C18.9932 15.8747 19.0529 16.036 19.1647 16.1586C19.2765 16.2811 19.4316 16.3554 19.5972 16.3656C19.6329 16.3656 19.6673 16.3692 19.7023 16.3692C20.9185 16.3692 22.1614 15.1155 22.9907 14.064C24.3911 12.287 26.4916 11.4957 28.0121 11.1444C28.9774 10.9274 29.9641 10.8203 30.9534 10.8251H31.5486L31.9403 10.8185Z"
                        fill="#463B32" />
                    <path
                        d="M15.8712 23.7489C14.957 23.7409 14.0543 23.5451 13.219 23.1736C12.3268 22.7783 11.7589 22.1813 11.3188 21.1781C10.7677 19.9202 11.5126 19.0655 12.0558 18.4426C12.1596 18.3219 12.2677 18.2012 12.3673 18.075C12.5949 17.8027 12.8439 17.5492 13.1121 17.3169C13.3149 17.14 13.5057 16.9499 13.6831 16.7477C13.8246 16.5685 13.9552 16.3811 14.0743 16.1863C14.2384 15.9167 14.4226 15.6598 14.6254 15.4179C15.0921 14.8748 15.716 14.4901 16.4108 14.317C16.7597 14.2312 17.0977 14.2524 17.3959 14.2711C17.6253 14.2856 17.8625 14.3001 17.9856 14.25C18.8627 13.8932 19.5695 12.9715 20.2534 12.08C20.531 11.7178 20.793 11.3768 21.0706 11.0635C22.1783 9.81649 23.683 8.8459 25.5433 8.17892C26.6024 7.80787 27.7005 7.55938 28.8161 7.43829C28.9809 7.41958 29.1463 7.39906 29.3129 7.37793C30.1808 7.27049 31.0772 7.16003 32.1112 7.21858C32.2342 7.22552 32.3532 7.26497 32.456 7.33291C32.5588 7.40085 32.6417 7.49484 32.6963 7.6053C32.7509 7.71576 32.7753 7.83873 32.7668 7.96166C32.7584 8.0846 32.7175 8.20309 32.6484 8.30507C32.5971 8.40647 32.4673 8.69922 32.3852 8.8797C32.2313 9.22315 32.1776 9.34025 32.1371 9.41147C32.0381 9.5841 31.9409 9.75975 31.8444 9.936L31.6633 10.2595C31.5731 10.4208 31.4225 10.5397 31.2447 10.5899C31.0668 10.6402 30.8763 10.6177 30.715 10.5275C30.5537 10.4373 30.4349 10.2867 30.3846 10.1089C30.3344 9.93108 30.3568 9.74056 30.447 9.57928L30.6227 9.26238C30.7217 9.0813 30.8207 8.90324 30.9245 8.72518C30.9347 8.70526 30.9541 8.66481 30.9776 8.6117C30.4627 8.64007 29.9684 8.70103 29.4837 8.76079C29.3129 8.78191 29.1432 8.80304 28.9748 8.82115C27.966 8.93056 26.9731 9.15515 26.0154 9.49055C24.3778 10.0779 23.065 10.9181 22.1149 11.9883C21.8698 12.2641 21.6223 12.5864 21.361 12.9275C20.601 13.9186 19.7397 15.0401 18.512 15.5405C18.0949 15.7101 17.6784 15.6841 17.3114 15.6612C17.0929 15.6479 16.8889 15.6352 16.744 15.6702C16.3281 15.7756 15.9551 16.0076 15.6768 16.3342C15.5197 16.5249 15.3765 16.7266 15.2483 16.9378C15.0993 17.1803 14.9354 17.4133 14.7576 17.6356C14.5398 17.8882 14.3044 18.125 14.0532 18.3442C13.8396 18.529 13.6403 18.7295 13.4568 18.9442C13.3391 19.0915 13.2214 19.2261 13.1073 19.357C12.5345 20.015 12.418 20.2099 12.5973 20.618C12.8991 21.3001 13.2184 21.6441 13.7845 21.8988C14.9507 22.4155 16.7543 22.6618 17.9995 21.6574L18.0279 21.6344C18.1152 21.5605 18.2094 21.495 18.3092 21.4389C18.4701 21.3481 18.6606 21.325 18.8386 21.3746C19.0166 21.4243 19.1676 21.5426 19.2583 21.7036C19.3491 21.8645 19.3722 22.055 19.3226 22.233C19.2729 22.411 19.1546 22.562 18.9936 22.6527C18.9622 22.6693 18.9328 22.6896 18.9061 22.7131L18.8747 22.7384C17.9711 23.47 16.9088 23.7489 15.8712 23.7489ZM32.4703 8.48615C32.4301 8.51392 32.3873 8.53757 32.3423 8.55677C32.3872 8.53747 32.4301 8.51381 32.4703 8.48615Z"
                        fill="#463B32" />
                    <path
                        d="M15.8712 23.8068C14.9492 23.7977 14.0388 23.6001 13.196 23.2262C12.2906 22.8248 11.713 22.2193 11.2645 21.2017C10.6989 19.91 11.457 19.0396 12.0106 18.4046L12.0275 18.3852C12.1258 18.2724 12.2272 18.1559 12.3208 18.0388C12.5502 17.7642 12.8013 17.5084 13.0717 17.274C13.2726 17.0994 13.4614 16.9112 13.6367 16.7109C13.7768 16.534 13.906 16.3487 14.0236 16.1561C14.1896 15.8838 14.3758 15.6243 14.5807 15.3799C15.0548 14.8275 15.6892 14.4363 16.3957 14.2608C16.5888 14.2157 16.7866 14.1942 16.9848 14.1968C17.1297 14.1968 17.2722 14.2053 17.3983 14.2131C17.5052 14.2198 17.6156 14.227 17.7134 14.227C17.7977 14.2316 17.8821 14.2211 17.9627 14.1962C18.8246 13.8461 19.5266 12.9287 20.2057 12.0462C20.487 11.6786 20.7489 11.3382 21.0266 11.0249C22.1402 9.77062 23.6529 8.79157 25.5222 8.12459C26.5856 7.75198 27.6881 7.50228 28.8082 7.38035C28.9718 7.36224 29.1354 7.34172 29.3008 7.31999C30.0046 7.23307 30.7283 7.14374 31.5281 7.14374C31.7242 7.14374 31.9216 7.14917 32.113 7.16003C32.2461 7.16768 32.3749 7.21047 32.4861 7.28403C32.5974 7.3576 32.6872 7.45932 32.7463 7.57884C32.8055 7.69837 32.832 7.83144 32.823 7.96451C32.8141 8.09759 32.7701 8.22592 32.6954 8.33646C32.6514 8.42398 32.5337 8.68534 32.4365 8.90264C32.2838 9.24246 32.2289 9.36379 32.186 9.43924C32.087 9.61127 31.9904 9.78691 31.8933 9.96256C31.8329 10.0706 31.7725 10.1787 31.7122 10.2861C31.6643 10.3735 31.5996 10.4505 31.5218 10.5128C31.444 10.575 31.3547 10.6212 31.2589 10.6488C31.1631 10.6763 31.0629 10.6846 30.9639 10.6732C30.8649 10.6617 30.7692 10.6308 30.6822 10.5822C30.5953 10.5336 30.5188 10.4682 30.4572 10.3899C30.3956 10.3115 30.3502 10.2218 30.3235 10.1258C30.2968 10.0298 30.2894 9.92945 30.3017 9.83058C30.314 9.7317 30.3457 9.63624 30.3951 9.5497C30.4555 9.44467 30.5158 9.33904 30.5708 9.23341C30.6697 9.05233 30.7687 8.87125 30.8726 8.6956C30.8764 8.68858 30.8799 8.68132 30.8828 8.67387C30.403 8.70405 29.9394 8.76139 29.4897 8.81692L29.4541 8.82175C29.2953 8.84107 29.1378 8.86038 28.9803 8.87849C27.9753 8.98662 26.986 9.20939 26.0317 9.54245C24.4019 10.1261 23.0987 10.9615 22.1547 12.0245C21.9133 12.2997 21.6646 12.6208 21.4038 12.9607C20.6433 13.9602 19.7747 15.0902 18.5307 15.5942C18.2711 15.6948 17.9941 15.743 17.7158 15.736C17.5728 15.736 17.4363 15.7276 17.3048 15.7191C17.0718 15.7052 16.8696 15.698 16.7543 15.7264C16.3503 15.8292 15.988 16.0546 15.7173 16.3716C15.5625 16.5608 15.4214 16.7607 15.2948 16.9698C15.1446 17.2146 14.9791 17.4497 14.7992 17.6736C14.5819 17.926 14.3471 18.1628 14.0966 18.3822C13.8827 18.5666 13.6832 18.767 13.4996 18.9816C13.3789 19.1337 13.2582 19.2731 13.149 19.3957C12.5864 20.0415 12.4814 20.216 12.6474 20.5956C12.9401 21.2632 13.254 21.6019 13.8063 21.8469C14.4544 22.134 15.1545 22.2854 15.8634 22.2918C16.6969 22.2918 17.4025 22.063 17.9609 21.6121L17.9886 21.5898C18.0785 21.5135 18.1755 21.4462 18.2784 21.3888C18.4525 21.2919 18.658 21.2678 18.8498 21.3218C19.0417 21.3758 19.2044 21.5036 19.3023 21.6771C19.4003 21.8507 19.4256 22.056 19.3728 22.2482C19.3199 22.4403 19.1932 22.6038 19.0202 22.7028C18.9911 22.7193 18.9643 22.7396 18.9405 22.7632L18.9085 22.7885C18.0834 23.4537 17.0325 23.8068 15.8712 23.8068ZM16.9867 14.3121C16.7978 14.3092 16.6092 14.3294 16.4253 14.3725C15.7412 14.5426 15.127 14.9212 14.6676 15.456C14.4681 15.6962 14.2865 15.9508 14.1244 16.2177C14.0041 16.4146 13.8721 16.6041 13.729 16.7851C13.5509 16.9891 13.3589 17.1805 13.1544 17.3579C12.8879 17.5888 12.6405 17.8407 12.4144 18.1112C12.3196 18.2319 12.217 18.3478 12.118 18.4613L12.1011 18.4806C11.5675 19.0927 10.8371 19.9293 11.3737 21.1546C11.8071 22.1439 12.3667 22.7318 13.2449 23.1205C14.0731 23.4879 14.9677 23.682 15.8736 23.6909C17.0084 23.6909 18.0339 23.3469 18.8391 22.6962L18.8711 22.6708C18.9001 22.644 18.9323 22.6208 18.9671 22.602C19.0402 22.5606 19.1045 22.5052 19.1562 22.4389C19.2079 22.3727 19.246 22.2969 19.2684 22.2159C19.2909 22.1349 19.2971 22.0503 19.2868 21.9669C19.2765 21.8835 19.2499 21.8029 19.2085 21.7298C19.1671 21.6567 19.1117 21.5924 19.0454 21.5407C18.9792 21.489 18.9034 21.4509 18.8224 21.4285C18.7414 21.406 18.6568 21.3998 18.5734 21.4101C18.49 21.4204 18.4094 21.447 18.3363 21.4884C18.2393 21.5429 18.1477 21.6065 18.0629 21.6785L18.0345 21.7014C17.4635 22.1626 16.7132 22.4065 15.8646 22.4065C15.1402 22.4001 14.4247 22.2456 13.7622 21.9525C13.1797 21.6948 12.8502 21.3393 12.5447 20.6421C12.354 20.2069 12.4844 19.9896 13.0644 19.3196C13.1707 19.1989 13.292 19.0595 13.4121 18.9092C13.5973 18.6926 13.7991 18.4908 14.0157 18.3056C14.2646 18.0877 14.4979 17.8527 14.7141 17.6024C14.8894 17.3821 15.0506 17.1511 15.197 16.9106C15.3276 16.6961 15.4735 16.4911 15.6334 16.2974C15.9195 15.9624 16.3025 15.7243 16.7295 15.6159C16.814 15.5976 16.9003 15.5895 16.9867 15.5918C17.0875 15.5918 17.1961 15.5984 17.3114 15.6051C17.4454 15.6135 17.5794 15.622 17.7188 15.622C17.9823 15.629 18.2445 15.5836 18.4902 15.4886C19.7029 14.996 20.5588 13.88 21.3139 12.8931C21.5771 12.5502 21.8245 12.2291 22.0714 11.949C23.0281 10.8716 24.3488 10.0259 25.9948 9.43501C26.9576 9.09888 27.9556 8.87389 28.9694 8.76441C29.1263 8.7463 29.2839 8.72638 29.4426 8.70405L29.4776 8.69982C29.9605 8.63946 30.4573 8.5791 30.9752 8.55073C30.9852 8.54991 30.9952 8.55177 31.0042 8.55612C31.0132 8.56047 31.0209 8.56715 31.0265 8.57548C31.0319 8.58381 31.0352 8.59335 31.036 8.60325C31.0368 8.61314 31.0352 8.6231 31.0313 8.63222C31.0078 8.68534 30.9872 8.72759 30.9776 8.74811C30.8744 8.92919 30.7754 9.10726 30.6758 9.28653L30.5007 9.60402C30.4598 9.67723 30.4337 9.75778 30.4239 9.84107C30.4141 9.92437 30.4207 10.0088 30.4436 10.0895C30.4664 10.1702 30.5049 10.2456 30.5568 10.3115C30.6088 10.3773 30.6732 10.4323 30.7464 10.4732C30.8196 10.5142 30.9002 10.5403 30.9835 10.5501C31.0668 10.5599 31.1512 10.5532 31.2319 10.5304C31.3126 10.5076 31.388 10.4691 31.4539 10.4171C31.5197 10.3652 31.5747 10.3007 31.6156 10.2275L31.7967 9.90401C31.8933 9.72776 31.9904 9.55211 32.0894 9.37888C32.1287 9.31067 32.1818 9.19478 32.3351 8.85254L32.4697 8.55375C32.4369 8.57387 32.4026 8.59143 32.3671 8.60627C32.3529 8.61166 32.3371 8.61149 32.323 8.60578C32.3089 8.60007 32.2975 8.58925 32.291 8.57548C32.2856 8.56126 32.2858 8.54552 32.2915 8.53142C32.2972 8.51732 32.308 8.50589 32.3218 8.49943C32.3642 8.48225 32.4047 8.4606 32.4425 8.43484C32.4549 8.42703 32.4696 8.42394 32.484 8.42616C32.4985 8.42838 32.5116 8.43575 32.521 8.44691C32.5548 8.37327 32.5814 8.31231 32.6019 8.27549C32.6964 8.13824 32.7338 7.96963 32.7063 7.80528C32.6831 7.66219 32.6115 7.53138 32.5035 7.43463C32.3956 7.33787 32.2577 7.28101 32.113 7.27351C31.9234 7.26264 31.7291 7.25721 31.5347 7.25721C30.7422 7.25721 30.0215 7.34594 29.3255 7.43226C29.1559 7.45278 28.9917 7.4733 28.8276 7.49262C27.7165 7.61328 26.6229 7.86075 25.5681 8.23022C23.7168 8.89419 22.2205 9.85995 21.1195 11.0985C20.8443 11.4088 20.5847 11.748 20.3089 12.1072C19.616 13.0126 18.9043 13.9385 18.0152 14.3007C17.9209 14.3317 17.8216 14.345 17.7225 14.3399C17.621 14.3399 17.5082 14.3327 17.4001 14.326C17.2631 14.3206 17.1279 14.3121 16.9867 14.3121Z"
                        fill="#463B32" />
                    <path
                        d="M41.4211 34.4242H41.3843C41.1999 34.4144 41.0269 34.3318 40.9033 34.1945C40.7797 34.0572 40.7156 33.8765 40.7252 33.692C40.7445 33.3136 40.8308 32.7902 40.9141 32.2838C40.9745 31.9102 41.0348 31.5595 41.0584 31.3072C41.3324 28.5306 41.3342 26.2454 40.4493 24.1044C39.2856 21.2904 37.3999 19.5623 34.8455 18.9665C33.1119 18.5627 30.9758 18.8506 29.4891 19.1639C29.1125 19.2436 28.7225 19.3498 28.3097 19.4615C27.5419 19.6703 26.7469 19.884 25.9321 19.9576C23.9245 20.1333 23.3148 18.6858 22.8241 17.5227L22.7758 17.4086C22.7071 17.2391 22.7077 17.0494 22.7777 16.8804C22.8476 16.7114 22.9812 16.5767 23.1496 16.5054C23.3181 16.434 23.5078 16.4318 23.6778 16.4992C23.8479 16.5665 23.9846 16.6981 24.0585 16.8654L24.1074 16.9819C24.6416 18.2494 24.8921 18.6514 25.8107 18.5706C26.5013 18.5102 27.2352 18.3104 27.9445 18.1179C28.358 18.0056 28.7859 17.8891 29.2018 17.8016C30.8267 17.4593 33.1795 17.1485 35.1618 17.6102C38.1369 18.3038 40.4131 20.3657 41.7368 23.5726C42.7328 25.9816 42.74 28.4618 42.4449 31.4448C42.4159 31.74 42.3537 32.1142 42.2885 32.5102C42.2119 32.9792 42.1316 33.4639 42.1165 33.7651C42.1069 33.943 42.0295 34.1106 41.9001 34.2332C41.7708 34.3558 41.5994 34.4242 41.4211 34.4242Z"
                        fill="#463B32" />
                    <path
                        d="M41.4211 34.4822H41.3819C41.1821 34.4717 40.9946 34.3824 40.8606 34.2338C40.7266 34.0852 40.6571 33.8895 40.6672 33.6896C40.6866 33.3087 40.7729 32.7842 40.8562 32.2784C40.9165 31.9023 40.9769 31.5541 41.0004 31.3024C41.2745 28.5361 41.2763 26.2568 40.3968 24.1273C39.2409 21.332 37.3691 19.6148 34.8334 19.0233C34.2041 18.8855 33.5612 18.8195 32.917 18.8265C31.8945 18.8265 30.744 18.9593 29.5024 19.2212C29.1306 19.2997 28.7455 19.4023 28.3374 19.5152H28.326C27.5564 19.7246 26.7566 19.9413 25.9387 20.0126C25.8264 20.0228 25.7154 20.0277 25.6091 20.0277C23.8201 20.0277 23.2394 18.6508 22.7722 17.5438L22.7233 17.4285C22.6801 17.3367 22.6559 17.237 22.6521 17.1355C22.6483 17.034 22.665 16.9329 22.7013 16.838C22.7375 16.7431 22.7926 16.6566 22.8631 16.5835C22.9336 16.5104 23.0181 16.4523 23.1116 16.4127C23.2051 16.3731 23.3056 16.3527 23.4071 16.3529C23.5087 16.353 23.6091 16.3737 23.7025 16.4136C23.7959 16.4535 23.8803 16.5118 23.9506 16.5851C24.0208 16.6584 24.0756 16.7451 24.1116 16.84L24.1605 16.9559C24.6494 18.1142 24.8848 18.5192 25.6001 18.5192C25.6641 18.5192 25.7317 18.5192 25.8053 18.5096C26.4916 18.4492 27.222 18.2512 27.9282 18.0587C28.3441 17.9458 28.7732 17.8299 29.1891 17.7418C30.5291 17.4593 31.7846 17.3193 32.917 17.3193C33.6757 17.3117 34.4329 17.3905 35.1738 17.5541C38.1683 18.2519 40.456 20.3252 41.7899 23.5509C42.7901 25.9701 42.798 28.4588 42.5016 31.4509C42.4732 31.743 42.4123 32.1148 42.3483 32.5017V32.5198C42.2704 32.9925 42.1919 33.4717 42.1762 33.7681C42.166 33.9613 42.0819 34.1431 41.9414 34.276C41.8008 34.4089 41.6146 34.4827 41.4211 34.4822ZM32.9158 18.7118C33.5689 18.7047 34.2207 18.7715 34.8588 18.911C37.4325 19.5146 39.3321 21.2518 40.5031 24.0833C41.3928 26.2357 41.3916 28.5306 41.1163 31.3138C41.091 31.5667 41.033 31.9174 40.9715 32.2941C40.8876 32.8011 40.8024 33.3202 40.7825 33.6963C40.7741 33.8652 40.8329 34.0305 40.946 34.1563C41.0591 34.282 41.2173 34.3579 41.3861 34.3675H41.4199C41.5832 34.3674 41.7402 34.3048 41.8588 34.1925C41.9773 34.0803 42.0484 33.9269 42.0573 33.7639C42.073 33.4621 42.1521 32.9792 42.2288 32.5114L42.2336 32.4848C42.2939 32.0967 42.3543 31.7297 42.3857 31.4412C42.6803 28.466 42.673 25.9943 41.6825 23.5943C40.3636 20.4049 38.1031 18.3551 35.1473 17.6664C34.4141 17.5045 33.6648 17.4268 32.9139 17.4346C31.7882 17.4346 30.5418 17.577 29.2102 17.8571C28.7962 17.9446 28.37 18.0605 27.9572 18.1728C27.2443 18.3665 26.5085 18.5663 25.8126 18.6273C25.7347 18.6345 25.6647 18.6376 25.5971 18.6376C24.8124 18.6376 24.551 18.1897 24.0506 17.0036L24.0017 16.8877C23.953 16.772 23.8711 16.6732 23.7664 16.6038C23.6617 16.5345 23.5388 16.4976 23.4132 16.4978C23.3084 16.4987 23.2053 16.5253 23.1132 16.5754C23.021 16.6255 22.9426 16.6975 22.8849 16.7851C22.8272 16.8726 22.7919 16.9731 22.7821 17.0775C22.7724 17.1819 22.7884 17.2871 22.8289 17.3839L22.8778 17.4986C23.3311 18.5748 23.8961 19.913 25.6073 19.913C25.7105 19.913 25.818 19.9081 25.9266 19.8985C26.7379 19.8279 27.5286 19.6124 28.294 19.4047L28.3054 19.4011C28.7147 19.2901 29.1016 19.185 29.4764 19.106C30.7283 18.8434 31.8854 18.7118 32.9158 18.7118Z"
                        fill="#463B32" />
                    <path
                        d="M45.2824 33.9956C45.1845 33.9951 45.0878 33.974 44.9985 33.9338C44.9093 33.8936 44.8294 33.8351 44.7641 33.7622C44.6988 33.6892 44.6496 33.6034 44.6195 33.5102C44.5894 33.417 44.5792 33.3186 44.5895 33.2212C44.6818 32.3919 44.5599 31.4569 44.3058 31.0482C44.2101 30.8864 44.0778 30.7492 43.9195 30.6477C43.7612 30.5462 43.5814 30.4833 43.3943 30.464C43.2134 30.4491 43.0314 30.4774 42.8635 30.5465C42.6956 30.6157 42.5466 30.7237 42.4286 30.8617C42.3672 30.9296 42.2931 30.9847 42.2104 31.0239C42.1278 31.0631 42.0382 31.0857 41.9469 31.0903C41.8555 31.0948 41.7641 31.0814 41.678 31.0507C41.5918 31.02 41.5125 30.9726 41.4447 30.9112C41.3768 30.8499 41.3217 30.7758 41.2825 30.6931C41.2433 30.6105 41.2208 30.5209 41.2162 30.4295C41.2116 30.3382 41.225 30.2468 41.2557 30.1606C41.2864 30.0745 41.3338 29.9952 41.3952 29.9274C41.6585 29.6295 41.9878 29.3974 42.3568 29.2496C42.7259 29.1018 43.1244 29.0425 43.5205 29.0763C43.9229 29.1145 44.3108 29.2464 44.653 29.4615C44.9952 29.6766 45.2823 29.9688 45.4912 30.3149C46.0067 31.1484 46.0737 32.4878 45.9741 33.3776C45.9546 33.5474 45.8734 33.7043 45.7458 33.8182C45.6183 33.9321 45.4534 33.9953 45.2824 33.9956Z"
                        fill="#463B32" />
                    <path
                        d="M45.2824 34.0536C45.2542 34.0535 45.226 34.0519 45.1979 34.0488C44.9995 34.0257 44.8184 33.9251 44.694 33.7689C44.5696 33.6127 44.512 33.4137 44.5339 33.2152C44.6251 32.3967 44.5074 31.478 44.2593 31.0772C44.1682 30.9229 44.0423 30.7921 43.8915 30.6952C43.7408 30.5984 43.5695 30.5382 43.3913 30.5195C43.2192 30.506 43.0463 30.5333 42.8867 30.5993C42.7272 30.6653 42.5855 30.768 42.4732 30.8992C42.3385 31.0458 42.1513 31.1333 41.9524 31.1425C41.7535 31.1517 41.559 31.0819 41.4114 30.9484C41.2637 30.8148 41.1748 30.6283 41.1641 30.4294C41.1534 30.2306 41.2217 30.0356 41.3541 29.8869C41.5972 29.611 41.8961 29.3898 42.2311 29.2381C42.566 29.0863 42.9294 29.0075 43.2971 29.0069C43.3738 29.0069 43.4511 29.0099 43.5271 29.0171C43.9387 29.056 44.3355 29.1909 44.6854 29.4111C45.0354 29.6312 45.3287 29.9305 45.5419 30.2847C46.0659 31.1297 46.1341 32.483 46.0339 33.3842C46.0129 33.5687 45.9247 33.739 45.786 33.8625C45.6474 33.986 45.4681 34.054 45.2824 34.0536ZM43.2905 30.3994C43.3255 30.3994 43.3611 30.3994 43.3967 30.4042C43.5928 30.4245 43.7814 30.4904 43.9475 30.5967C44.1135 30.703 44.2523 30.8467 44.3528 31.0163C44.613 31.4388 44.7385 32.387 44.6444 33.2279C44.6347 33.3912 44.6881 33.552 44.7935 33.6771C44.8989 33.8022 45.0483 33.8821 45.2109 33.9003C45.3734 33.9185 45.5368 33.8736 45.6672 33.7748C45.7977 33.6761 45.8853 33.5311 45.9119 33.3697C46.0103 32.4866 45.9451 31.1641 45.4369 30.3438C45.2329 30.0053 44.9524 29.7193 44.6177 29.5089C44.2831 29.2984 43.9037 29.1695 43.5102 29.1324C43.4372 29.1258 43.3635 29.1221 43.2905 29.1221C42.9387 29.1235 42.5913 29.1995 42.2711 29.3452C41.9509 29.4909 41.6653 29.7029 41.4332 29.9672C41.377 30.0294 41.3335 30.1021 41.3054 30.1811C41.2772 30.2601 41.2649 30.3439 41.2692 30.4277C41.2734 30.5114 41.2941 30.5936 41.3301 30.6693C41.366 30.7451 41.4166 30.813 41.4788 30.8693C41.541 30.9255 41.6137 30.969 41.6927 30.9971C41.7717 31.0252 41.8555 31.0376 41.9393 31.0333C42.023 31.0291 42.1051 31.0084 42.1809 30.9724C42.2567 30.9365 42.3246 30.8859 42.3809 30.8237C42.4939 30.6921 42.6338 30.5862 42.7911 30.513C42.9483 30.4399 43.1194 30.4011 43.2929 30.3994H43.2905Z"
                        fill="#463B32" />
                    <path
                        d="M28.6441 33.9872C28.537 33.9872 28.4315 33.9627 28.3355 33.9154C28.2395 33.868 28.1557 33.7993 28.0906 33.7144C27.5715 33.0359 27.1405 32.1033 26.9932 31.338C26.721 29.9274 26.622 28.4226 27.7296 26.9782C29.43 24.7611 32.5934 23.3396 35.1056 25.0732C35.2577 25.1781 35.3619 25.3392 35.3952 25.5209C35.4286 25.7026 35.3883 25.8902 35.2834 26.0423C35.1785 26.1943 35.0174 26.2985 34.8357 26.3318C34.6539 26.3652 34.4664 26.325 34.3143 26.22C32.5101 24.9748 30.1446 26.118 28.8348 27.8256C28.1026 28.7805 28.1105 29.7765 28.361 31.0748C28.4509 31.5414 28.7443 32.276 29.197 32.8669C29.2758 32.9701 29.3242 33.0933 29.3368 33.2226C29.3493 33.3519 29.3255 33.4821 29.2681 33.5986C29.2106 33.715 29.1217 33.8131 29.0114 33.8818C28.9012 33.9505 28.7739 33.987 28.6441 33.9872Z"
                        fill="#463B32" />
                    <path
                        d="M28.6441 34.0433C28.5281 34.0437 28.4136 34.0171 28.3096 33.9658C28.2057 33.9145 28.115 33.8398 28.0447 33.7476C27.5201 33.0631 27.0856 32.1178 26.9365 31.3476C26.6612 29.9225 26.5622 28.4033 27.6837 26.9413C28.961 25.276 30.8593 24.2414 32.6375 24.2414C33.5323 24.2382 34.4062 24.5123 35.1388 25.0261C35.2204 25.0824 35.2901 25.1542 35.3439 25.2374C35.3977 25.3206 35.4346 25.4136 35.4525 25.511C35.4704 25.6085 35.4689 25.7086 35.4481 25.8055C35.4273 25.9023 35.3877 25.9942 35.3314 26.0758C35.2751 26.1573 35.2033 26.227 35.1201 26.2808C35.0369 26.3346 34.9439 26.3716 34.8464 26.3894C34.749 26.4073 34.6489 26.4058 34.552 26.385C34.4551 26.3643 34.3633 26.3246 34.2817 26.2683C33.7947 25.9293 33.2146 25.7494 32.6212 25.7534C31.3313 25.7534 29.8633 26.581 28.8789 27.8618C28.16 28.7992 28.169 29.7819 28.4159 31.0609C28.5046 31.5209 28.7938 32.2458 29.241 32.8295C29.3266 32.9412 29.3792 33.0747 29.3929 33.2147C29.4066 33.3548 29.3809 33.4959 29.3186 33.6221C29.2563 33.7483 29.1599 33.8546 29.0404 33.9289C28.9209 34.0033 28.783 34.0427 28.6423 34.0427L28.6441 34.0433ZM32.6375 24.3561C30.8949 24.3561 29.0316 25.3738 27.7749 27.012C26.6817 28.4377 26.7807 29.928 27.0505 31.3259C27.1966 32.0834 27.6228 33.0063 28.137 33.68C28.1874 33.7481 28.2509 33.8056 28.3237 33.849C28.3965 33.8923 28.4772 33.9208 28.5612 33.9327C28.6451 33.9445 28.7306 33.9396 28.8125 33.9181C28.8945 33.8966 28.9714 33.859 29.0387 33.8074C29.1061 33.7559 29.1624 33.6915 29.2046 33.618C29.2468 33.5444 29.2738 33.4632 29.2843 33.3791C29.2948 33.295 29.2884 33.2097 29.2655 33.128C29.2426 33.0464 29.2037 32.9702 29.1511 32.9037C28.693 32.305 28.396 31.5595 28.306 31.0869C28.0525 29.7728 28.0453 28.7636 28.7889 27.7918C29.7921 26.4832 31.2969 25.6381 32.6212 25.6381C33.2382 25.6338 33.8413 25.8208 34.3475 26.1735C34.487 26.2645 34.6566 26.2974 34.82 26.2651C34.9834 26.2329 35.1277 26.138 35.2222 26.0009C35.3167 25.8637 35.3539 25.6951 35.3258 25.5309C35.2977 25.3667 35.2066 25.22 35.0718 25.1221C34.3588 24.622 33.5084 24.355 32.6375 24.3579V24.3561Z"
                        fill="#463B32" />
                    <path
                        d="M22.0986 33.2786C21.9238 33.2784 21.7554 33.2124 21.627 33.0937C21.4986 32.975 21.4196 32.8124 21.4056 32.6381C21.3908 32.4267 21.3433 32.2188 21.265 32.0219C21.0374 31.5009 20.4894 31.1165 19.9093 30.7139C19.695 30.5648 19.4735 30.412 19.2629 30.2442C18.2404 29.4542 17.4268 28.4259 16.8931 27.2492C16.5979 26.613 16.298 25.9273 16.1507 25.1595C16.0746 24.7629 16.1223 24.4219 16.1646 24.1213C16.1984 23.8768 16.2249 23.6843 16.1869 23.4899C16.1512 23.3086 16.189 23.1206 16.2919 22.9671C16.3949 22.8137 16.5546 22.7074 16.7359 22.6717C16.9172 22.636 17.1052 22.6738 17.2587 22.7768C17.4121 22.8797 17.5184 23.0394 17.5541 23.2207C17.6373 23.6432 17.586 24.0157 17.5444 24.3138C17.5124 24.545 17.484 24.7273 17.519 24.8969C17.6361 25.5096 17.8987 26.1041 18.1577 26.6631C18.5973 27.6421 19.2732 28.4967 20.1248 29.1499C20.3059 29.2906 20.4996 29.427 20.7067 29.5724C21.3857 30.0469 22.1553 30.5841 22.5422 31.4653C22.6814 31.8036 22.7664 32.1617 22.7939 32.5265C22.809 32.7106 22.7502 32.8931 22.6307 33.0339C22.5112 33.1747 22.3406 33.2623 22.1565 33.2774C22.1372 33.278 22.1179 33.2786 22.0986 33.2786Z"
                        fill="#463B32" />
                    <path
                        d="M22.0986 33.3365C21.9095 33.3354 21.7276 33.2636 21.5887 33.1353C21.4498 33.007 21.3638 32.8314 21.3477 32.643C21.3336 32.4378 21.2878 32.236 21.2119 32.0448C20.991 31.539 20.4495 31.1611 19.8761 30.7615C19.66 30.6106 19.4385 30.4561 19.2272 30.2901C18.1973 29.4941 17.3781 28.4579 16.8412 27.2721C16.5442 26.6329 16.2418 25.9442 16.0939 25.1692C16.0161 24.7635 16.0644 24.4171 16.1072 24.1116C16.1404 23.8702 16.1676 23.6843 16.1301 23.5002C16.0914 23.3038 16.1323 23.1001 16.2437 22.9339C16.3551 22.7677 16.5281 22.6525 16.7244 22.6138C16.9207 22.5751 17.1244 22.6159 17.2907 22.7273C17.4569 22.8388 17.572 23.0117 17.6108 23.208C17.6965 23.6432 17.644 24.0187 17.6017 24.3205C17.5697 24.5468 17.545 24.7249 17.5758 24.8849C17.6917 25.4885 17.9524 26.083 18.2102 26.6353C18.6452 27.6074 19.3155 28.4558 20.1604 29.104C20.3361 29.2429 20.5292 29.3775 20.7338 29.5199C21.425 30.0028 22.2024 30.546 22.5941 31.4406C22.7363 31.7847 22.8231 32.1492 22.8513 32.5204C22.8671 32.7199 22.8033 32.9175 22.6738 33.07C22.5442 33.2225 22.3595 33.3175 22.1601 33.3341C22.1402 33.3353 22.1197 33.3365 22.0986 33.3365ZM16.872 22.7161C16.83 22.7164 16.7882 22.7206 16.747 22.7288C16.5807 22.7617 16.4342 22.8594 16.3398 23.0003C16.2454 23.1412 16.2108 23.3139 16.2436 23.4803C16.2841 23.6831 16.2569 23.8792 16.2219 24.1279C16.1802 24.4297 16.1332 24.7629 16.208 25.1498C16.3535 25.9116 16.6523 26.5931 16.9456 27.2256C17.4759 28.3943 18.2841 29.4156 19.2997 30.2002C19.5085 30.3644 19.7288 30.5177 19.9419 30.6668C20.5298 31.0772 21.0845 31.4641 21.3187 31.9995C21.3992 32.2028 21.448 32.4171 21.4636 32.6351C21.4774 32.804 21.5577 32.9605 21.6868 33.0702C21.816 33.1799 21.9834 33.2338 22.1523 33.22C22.3212 33.2062 22.4777 33.1259 22.5874 32.9968C22.6971 32.8676 22.751 32.7002 22.7372 32.5313C22.7099 32.1727 22.6262 31.8207 22.4891 31.4883C22.1107 30.6227 21.3477 30.0897 20.6741 29.6201C20.4628 29.4728 20.2679 29.337 20.0898 29.1976C19.2313 28.5381 18.5503 27.6754 18.1082 26.6872C17.8474 26.1265 17.5836 25.5271 17.4653 24.9078C17.4309 24.7267 17.4569 24.5456 17.4895 24.3072C17.5311 24.0126 17.5818 23.6475 17.5003 23.2322C17.4715 23.0867 17.3932 22.9557 17.2786 22.8616C17.164 22.7675 17.0203 22.7161 16.872 22.7161Z"
                        fill="#463B32" />
                    <path
                        d="M25.7293 33.5604C25.6125 33.5603 25.4976 33.5308 25.3952 33.4746C25.2927 33.4185 25.2061 33.3375 25.1431 33.2392C25.0801 33.1408 25.0429 33.0282 25.0347 32.9117C25.0266 32.7952 25.0479 32.6785 25.0967 32.5723C25.2761 32.1828 25.4299 31.7819 25.5572 31.3724C25.6472 31.0833 25.7015 30.4253 25.6309 29.8634C25.6135 29.6828 25.6671 29.5026 25.7805 29.3609C25.8938 29.2193 26.0579 29.1274 26.2379 29.1048C26.4178 29.0821 26.5996 29.1306 26.7444 29.2397C26.8893 29.3489 26.9859 29.5103 27.0137 29.6895C27.1025 30.3994 27.0505 31.2589 26.8876 31.784C26.7419 32.2508 26.5663 32.7076 26.3618 33.1518C26.3067 33.2734 26.2178 33.3766 26.1056 33.4491C25.9934 33.5215 25.8628 33.5602 25.7293 33.5604Z"
                        fill="#463B32" />
                    <path
                        d="M25.7293 33.6208C25.6028 33.6206 25.4783 33.5887 25.3674 33.5278C25.2565 33.467 25.1626 33.3793 25.0944 33.2728C25.0262 33.1663 24.9859 33.0443 24.9771 32.9181C24.9683 32.792 24.9914 32.6656 25.0442 32.5506C25.2221 32.1633 25.3749 31.7649 25.5017 31.3579C25.5904 31.0742 25.6429 30.4271 25.5735 29.8754C25.5486 29.6769 25.6036 29.4765 25.7265 29.3185C25.8493 29.1605 26.0299 29.0577 26.2284 29.0328C26.427 29.0079 26.6274 29.0629 26.7854 29.1858C26.9434 29.3086 27.0462 29.4891 27.0711 29.6877C27.161 30.4054 27.1079 31.2764 26.9425 31.8064C26.7966 32.2756 26.6204 32.7349 26.4149 33.1814C26.3544 33.3124 26.2577 33.4233 26.1362 33.5012C26.0148 33.579 25.8735 33.6205 25.7293 33.6208ZM26.3244 29.1427C26.2972 29.1427 26.2699 29.1445 26.2429 29.1481C26.0749 29.1693 25.9221 29.2564 25.8183 29.3902C25.7144 29.524 25.6678 29.6935 25.6888 29.8616C25.7594 30.4283 25.7045 31.0971 25.6128 31.3923C25.4846 31.8043 25.3298 32.2076 25.1492 32.5995C25.0784 32.7534 25.0716 32.9292 25.1303 33.0881C25.1891 33.2471 25.3085 33.3761 25.4625 33.447C25.6164 33.5178 25.7921 33.5246 25.9511 33.4659C26.11 33.4071 26.2391 33.2876 26.3099 33.1337C26.513 32.6917 26.6874 32.237 26.832 31.7726C26.9926 31.2565 27.0439 30.4054 26.9558 29.7028C26.9374 29.5481 26.863 29.4055 26.7467 29.3019C26.6304 29.1983 26.4802 29.1408 26.3244 29.1403V29.1427Z"
                        fill="#463B32" />
                    <path
                        d="M31.9446 47.7451C31.321 47.7402 30.7003 47.6591 30.0963 47.5037C29.7879 47.4264 28.9833 47.1578 27.4688 46.6496C24.5921 45.6838 17.8565 43.4215 16.8708 43.5585C16.2412 43.6461 15.4662 43.8911 14.568 44.2865C14.3986 44.3613 14.2063 44.3658 14.0336 44.2989C13.8609 44.232 13.7218 44.0992 13.6469 43.9298C13.5721 43.7603 13.5676 43.5681 13.6345 43.3953C13.7014 43.2226 13.8342 43.0835 14.0037 43.0087C15.0207 42.5614 15.9201 42.2843 16.6776 42.1763C17.7677 42.0254 21.6217 43.2169 27.9101 45.3265C29.1173 45.7321 30.1627 46.0822 30.4319 46.1498C31.6391 46.4516 32.3725 46.3309 32.4806 46.3122C34.2751 45.7466 36.2314 44.0456 38.9343 41.6952C40.2502 40.5484 41.7417 39.2536 43.503 37.8321C44.3758 37.1277 45.146 36.5121 45.781 36.005C46.5976 35.3519 47.3153 34.7785 47.5598 34.5648C47.5712 34.4534 47.5421 34.3415 47.4777 34.2498C47.2966 33.9981 46.8137 33.8616 46.157 33.8725C44.7729 33.8973 40.0932 36.8235 36.1855 39.7015C34.9179 40.6371 34.2183 41.3192 34.2123 41.3258C34.0808 41.4556 33.9031 41.5279 33.7183 41.5267C33.5335 41.5255 33.3567 41.451 33.2269 41.3195C33.0971 41.188 33.0248 41.0103 33.026 40.8255C33.0272 40.6407 33.1017 40.4639 33.2333 40.3341C33.264 40.3039 33.9992 39.5814 35.3592 38.58C37.2907 37.1597 43.7643 32.5222 46.1317 32.48H46.2355C47.9859 32.48 48.598 33.2979 48.808 33.7916C49.0634 34.3952 48.9801 35.1196 48.6137 35.4878C48.4326 35.6688 47.8821 36.1101 46.6508 37.0945C46.017 37.601 45.2492 38.2142 44.3776 38.9174C42.6368 40.3226 41.1549 41.6113 39.8506 42.7473C37.0058 45.2221 34.9499 47.0093 32.8669 47.6534L32.8343 47.6624C32.542 47.7249 32.2434 47.7527 31.9446 47.7451Z"
                        fill="#9C6137" fill-opacity="0.69" />
                    <path
                        d="M31.9446 47.8055C31.3161 47.7986 30.6908 47.7153 30.0824 47.5574C29.7704 47.4795 28.9658 47.2103 27.4507 46.7021L27.3904 46.6816C24.65 45.7623 18.2319 43.6086 16.9746 43.6086C16.9433 43.6082 16.9121 43.6098 16.881 43.6135C16.2563 43.7004 15.4867 43.9436 14.5934 44.3378C14.4112 44.4123 14.2072 44.4127 14.0247 44.339C13.8422 44.2653 13.6958 44.1233 13.6164 43.9432C13.5371 43.7631 13.5313 43.5592 13.6001 43.3748C13.6689 43.1904 13.807 43.0402 13.9849 42.9561C15.0062 42.5071 15.911 42.2252 16.6734 42.1195C17.7804 41.965 21.5897 43.1457 27.9324 45.2722C29.145 45.679 30.1838 46.0273 30.45 46.0943C30.9382 46.2219 31.44 46.2898 31.9446 46.2965C32.1212 46.2996 32.2978 46.2864 32.4721 46.2572C34.2491 45.6965 36.1994 44.0004 38.8981 41.653C40.2176 40.5061 41.7085 39.2096 43.4686 37.7899C44.342 37.0855 45.1122 36.4704 45.7472 35.9628C46.5506 35.3206 47.2471 34.764 47.5061 34.5395C47.5108 34.4494 47.4851 34.3603 47.433 34.2866C47.2664 34.053 46.8023 33.9244 46.16 33.9335C44.7886 33.9582 40.124 36.8791 36.2217 39.751C34.9571 40.683 34.2618 41.3632 34.2546 41.3699C34.1114 41.5067 33.9202 41.5817 33.7222 41.5788C33.5243 41.576 33.3354 41.4954 33.1963 41.3545C33.0572 41.2135 32.979 41.0236 32.9787 40.8256C32.9784 40.6276 33.056 40.4374 33.1946 40.2961C33.2254 40.2653 33.966 39.5385 35.3272 38.5359C37.2587 37.1133 43.748 32.4679 46.1317 32.4251C47.9974 32.3901 48.6451 33.258 48.8624 33.7711C49.1267 34.3922 49.038 35.1491 48.6559 35.5306C48.4748 35.7117 47.922 36.1553 46.6876 37.141C46.0538 37.648 45.2866 38.2613 44.4156 38.9645C42.6772 40.3673 41.1972 41.6542 39.8922 42.7889C37.0372 45.2716 34.9783 47.0625 32.8832 47.7101L32.8469 47.7204C32.5505 47.7841 32.2477 47.8126 31.9446 47.8055ZM16.9752 43.4927C18.2512 43.4927 24.4496 45.5722 27.4278 46.5711L27.4882 46.5916C29.0002 47.0993 29.8036 47.3679 30.1108 47.4445C30.7101 47.6 31.3261 47.6821 31.9452 47.689C32.2392 47.6956 32.533 47.6672 32.8204 47.6045L32.8506 47.596C34.9221 46.9556 36.9738 45.1714 39.8131 42.702C41.1236 41.5624 42.6042 40.2749 44.3444 38.8703C45.2154 38.1678 45.9838 37.5539 46.6176 37.0475C47.8483 36.0636 48.3994 35.6217 48.5763 35.4449C48.9263 35.0948 49.0042 34.3928 48.7573 33.8152C48.5503 33.3287 47.9376 32.506 46.1353 32.5392C43.7849 32.5814 37.3227 37.2104 35.396 38.6283C34.0415 39.6261 33.3069 40.3468 33.2761 40.3788C33.1618 40.499 33.0987 40.6591 33.1003 40.825C33.102 40.991 33.1681 41.1498 33.2848 41.2678C33.4015 41.3858 33.5595 41.4538 33.7254 41.4573C33.8913 41.4608 34.0521 41.3996 34.1737 41.2866C34.1797 41.2805 34.8793 40.5954 36.1529 39.6568C40.0685 36.7734 44.7621 33.8417 46.1582 33.8164C46.8463 33.8049 47.3353 33.9486 47.5272 34.2178C47.6001 34.3209 47.633 34.4471 47.6195 34.5727C47.6178 34.5871 47.611 34.6004 47.6002 34.6101C47.354 34.8256 46.6429 35.3948 45.8196 36.0521C45.184 36.5592 44.4144 37.1742 43.5416 37.8792C41.7827 39.2983 40.293 40.5954 38.9777 41.7375C36.2615 44.0976 34.3065 45.7997 32.5005 46.3695C32.3169 46.4012 32.1308 46.4155 31.9446 46.4124C31.4305 46.4053 30.9191 46.336 30.4217 46.2059C30.1507 46.1383 29.1094 45.7889 27.9046 45.3844C22.0811 43.4306 18.212 42.2216 16.8937 42.2216C16.8253 42.2211 16.757 42.2251 16.6891 42.2336C15.9364 42.3381 15.0425 42.6169 14.0332 43.0618C13.8994 43.1211 13.79 43.2246 13.7234 43.355C13.6567 43.4853 13.6368 43.6346 13.667 43.7778C13.6971 43.9211 13.7756 44.0496 13.8892 44.142C14.0027 44.2344 14.1446 44.2849 14.291 44.2853C14.3795 44.2854 14.4671 44.2669 14.5481 44.231C15.4535 43.8332 16.2316 43.5869 16.8665 43.4988C16.9018 43.4945 16.9373 43.4925 16.9728 43.4927H16.9752Z"
                        fill="#9C6137" fill-opacity="0.69" />
                    <path
                        d="M12.5948 45.318C12.2327 45.318 12.0311 45.0162 12.0202 44.9969C11.9828 44.9366 11.6731 44.412 12.3051 43.9805C12.3841 43.9307 12.4722 43.8972 12.5643 43.8818C12.6564 43.8665 12.7506 43.8696 12.8414 43.891C12.9323 43.9125 13.018 43.9518 13.0935 44.0067C13.169 44.0616 13.2328 44.131 13.2812 44.2108C13.3296 44.2906 13.3616 44.3793 13.3754 44.4716C13.3892 44.564 13.3845 44.6581 13.3615 44.7486C13.3385 44.8391 13.2977 44.9241 13.2415 44.9986C13.1854 45.0732 13.1149 45.1358 13.0343 45.1828C12.9028 45.267 12.7509 45.3138 12.5948 45.318Z"
                        fill="#9C6137" fill-opacity="0.69" />
                    <path
                        d="M12.5948 45.376C12.2061 45.376 11.9943 45.0639 11.9713 45.0283C11.9309 44.9643 11.5965 44.3945 12.2731 43.9322C12.4194 43.8326 12.5961 43.7875 12.7723 43.8049C12.9484 43.8223 13.1129 43.901 13.2369 44.0273C13.3609 44.1537 13.4366 44.3195 13.4508 44.496C13.4649 44.6724 13.4166 44.8482 13.3143 44.9927C13.2515 45.0918 13.1661 45.1745 13.065 45.2341C12.9241 45.3232 12.7615 45.3722 12.5948 45.376ZM12.6975 43.9165C12.5682 43.9159 12.4418 43.9548 12.3353 44.0281C11.7643 44.4205 12.0118 44.878 12.0721 44.9686C12.0794 44.98 12.2647 45.2625 12.5979 45.2625C12.7434 45.2577 12.8849 45.214 13.0077 45.1358C13.0937 45.0848 13.1665 45.0143 13.2202 44.9299C13.2885 44.8344 13.3292 44.7219 13.3377 44.6047C13.3463 44.4876 13.3224 44.3703 13.2687 44.2659C13.215 44.1614 13.1336 44.0738 13.0333 44.0126C12.9331 43.9513 12.8179 43.9189 12.7005 43.9189L12.6975 43.9165Z"
                        fill="#9C6137" fill-opacity="0.69" />
                    <path
                        d="M32.0924 39.3864C29.4734 39.3864 26.4789 39.2657 25.5796 39.2301C25.4882 39.2261 25.3984 39.2042 25.3155 39.1656C25.2326 39.1269 25.1581 39.0723 25.0963 39.0049C25.0345 38.9375 24.9865 38.8585 24.9552 38.7726C24.9239 38.6866 24.9098 38.5954 24.9138 38.504C24.9178 38.4126 24.9397 38.3228 24.9783 38.2399C25.017 38.157 25.0715 38.0825 25.139 38.0207C25.2064 37.9589 25.2853 37.9109 25.3713 37.8796C25.4572 37.8483 25.5485 37.8342 25.6399 37.8382C29.3623 37.9963 34.9686 38.0929 35.7805 37.8116C36.2464 37.6505 36.5247 37.1573 36.5247 36.4928C36.5247 35.9338 35.8607 35.6036 35.5674 35.4847C34.6825 35.1944 22.9823 33.1838 20.6692 33.727C19.549 33.9896 16.2901 35.367 13.7363 36.5362C13.5682 36.6131 13.3764 36.62 13.2032 36.5555C13.0301 36.4909 12.8896 36.3602 12.8127 36.1922C12.7359 36.0241 12.729 35.8323 12.7935 35.6591C12.858 35.486 12.9887 35.3455 13.1568 35.2686C13.7121 35.0145 18.6345 32.7727 20.3511 32.3713C23.1138 31.7237 35.2879 33.8731 36.0762 34.1882C37.2466 34.6566 37.9178 35.4968 37.9178 36.4934C37.9178 37.7609 37.2738 38.7695 36.2368 39.1287C35.6658 39.3249 33.9775 39.3864 32.0924 39.3864Z"
                        fill="#9C6137" fill-opacity="0.69" />
                    <path
                        d="M32.0924 39.4444C29.4613 39.4444 26.4397 39.3237 25.5771 39.2874C25.4781 39.2835 25.3807 39.26 25.2907 39.2185C25.2007 39.1769 25.1197 39.118 25.0525 39.0451C24.9852 38.9722 24.933 38.8868 24.8987 38.7938C24.8645 38.7007 24.8489 38.6018 24.8528 38.5028C24.8568 38.4037 24.8802 38.3063 24.9218 38.2163C24.9634 38.1263 25.0223 38.0453 25.0952 37.9781C25.168 37.9108 25.2534 37.8586 25.3465 37.8243C25.4395 37.7901 25.5384 37.7745 25.6375 37.7784C27.8539 37.8726 30.3885 37.9311 32.2524 37.9311C34.2129 37.9311 35.4243 37.8708 35.7533 37.7555C36.1945 37.6022 36.4577 37.1296 36.4577 36.4909C36.4577 35.9652 35.8143 35.6459 35.5372 35.536C34.7435 35.2765 25.5234 33.6902 21.8384 33.6902C21.3236 33.6902 20.933 33.721 20.6741 33.7814C19.5568 34.0433 16.3028 35.4195 13.752 36.5869C13.6536 36.6325 13.5465 36.656 13.4381 36.6557C13.2657 36.656 13.0985 36.5972 12.9642 36.4892C12.83 36.3812 12.7367 36.2305 12.6999 36.0621C12.6632 35.8937 12.6852 35.7179 12.7623 35.5638C12.8393 35.4096 12.9668 35.2865 13.1236 35.2149C13.6801 34.9602 18.6061 32.7166 20.3294 32.3122C20.6759 32.2307 21.1865 32.1915 21.8469 32.1915C26.1355 32.1915 35.402 33.8592 36.0919 34.1339C37.2852 34.6113 37.9697 35.4715 37.9697 36.4928C37.9697 37.7845 37.3112 38.8154 36.2507 39.183C35.7527 39.355 34.3529 39.4444 32.0924 39.4444ZM25.6103 37.8955C25.4433 37.8954 25.2829 37.9606 25.1634 38.0774C25.044 38.1941 24.975 38.353 24.9713 38.52C24.9676 38.6869 25.0294 38.8487 25.1436 38.9706C25.2577 39.0925 25.4151 39.1649 25.582 39.1721C26.4445 39.2084 29.4631 39.3285 32.0924 39.3285C34.3397 39.3285 35.7267 39.2428 36.2145 39.0732C37.2273 38.7225 37.8557 37.7338 37.8557 36.4928C37.8557 35.521 37.1983 34.7001 36.0509 34.2413C35.3664 33.9679 26.13 32.3098 21.8517 32.3098C21.2004 32.3098 20.6988 32.3502 20.3608 32.4305C18.6484 32.8319 13.732 35.0719 13.1779 35.3278C13.0456 35.3887 12.938 35.493 12.8731 35.6234C12.8081 35.7537 12.7896 35.9024 12.8207 36.0447C12.8517 36.1871 12.9304 36.3145 13.0438 36.406C13.1572 36.4974 13.2984 36.5474 13.4441 36.5477C13.536 36.5472 13.6266 36.5266 13.7097 36.4873C16.266 35.3169 19.529 33.9377 20.6511 33.6739C20.9173 33.6136 21.3181 33.5798 21.842 33.5798C25.5355 33.5798 34.7803 35.1709 35.5801 35.4328C35.8819 35.5535 36.5772 35.9006 36.5772 36.4964C36.5772 37.1869 36.2845 37.7006 35.7925 37.8702C35.4443 37.9909 34.2533 38.0513 32.2518 38.0513C30.3867 38.0513 27.8497 37.9909 25.6327 37.8979L25.6103 37.8955Z"
                        fill="#9C6137" fill-opacity="0.69" />
                    <path
                        d="M11.6309 37.4561C11.4855 37.458 11.3432 37.4145 11.2236 37.3318C11.1041 37.249 11.0133 37.1311 10.9639 36.9943C10.9416 36.934 10.7641 36.3781 11.4051 36.0817C11.4882 36.0433 11.578 36.0216 11.6694 36.0179C11.7608 36.0142 11.852 36.0285 11.9379 36.0601C12.0238 36.0916 12.1026 36.1398 12.1698 36.2018C12.2371 36.2638 12.2915 36.3385 12.3299 36.4215C12.3566 36.4806 12.3754 36.5429 12.386 36.6068C12.4223 36.7815 12.3901 36.9635 12.2961 37.1151C12.2021 37.2668 12.0534 37.3765 11.8808 37.4217C11.7993 37.4438 11.7153 37.4553 11.6309 37.4561Z"
                        fill="#9C6137" fill-opacity="0.69" />
                    <path
                        d="M11.6309 37.514C11.4731 37.5167 11.3184 37.47 11.1886 37.3803C11.0587 37.2907 10.9601 37.1627 10.9066 37.0143C10.8824 36.9467 10.6905 36.3467 11.378 36.0292C11.477 35.983 11.585 35.9591 11.6943 35.9592C11.8796 35.9628 12.0576 36.0327 12.1958 36.1564C12.3339 36.2801 12.4231 36.4492 12.4472 36.633C12.4712 36.8169 12.4285 37.0033 12.3268 37.1583C12.225 37.3133 12.0711 37.4267 11.8929 37.4778C11.8074 37.501 11.7194 37.5132 11.6309 37.514ZM11.6967 36.0745C11.6042 36.0746 11.5129 36.0952 11.4293 36.1348C10.8353 36.4095 10.9977 36.9195 11.0182 36.9756C11.0637 37.1011 11.1471 37.2092 11.257 37.2849C11.3668 37.3606 11.4975 37.4002 11.6309 37.3982C11.7104 37.3975 11.7896 37.3865 11.8663 37.3656C12.0246 37.3242 12.161 37.2236 12.2472 37.0845C12.3334 36.9454 12.3628 36.7785 12.3293 36.6183C12.3199 36.5587 12.3024 36.5006 12.2773 36.4457C12.2258 36.3351 12.1438 36.2414 12.041 36.1757C11.9381 36.1099 11.8187 36.0748 11.6967 36.0745Z"
                        fill="#9C6137" fill-opacity="0.69" />
                    <path
                        d="M33.6286 41.4308C33.4823 41.4309 33.3396 41.3847 33.2212 41.2986C32.5367 40.8037 30.6909 39.8114 29.6297 39.3671C29.5453 39.3318 29.4687 39.2803 29.4042 39.2154C29.3397 39.1505 29.2886 39.0735 29.2539 38.9889C29.1837 38.818 29.1843 38.6262 29.2555 38.4557C29.3267 38.2852 29.4628 38.15 29.6337 38.0798C29.8047 38.0096 29.9965 38.0102 30.167 38.0814C31.2166 38.5203 33.2091 39.5699 34.0373 40.1693C34.1566 40.2556 34.2455 40.3775 34.2912 40.5175C34.3369 40.6575 34.337 40.8083 34.2916 40.9484C34.2462 41.0885 34.1576 41.2106 34.0385 41.2972C33.9194 41.3837 33.7759 41.4303 33.6286 41.4302V41.4308Z"
                        fill="#9C6137" fill-opacity="0.69" />
                    <path
                        d="M33.6286 41.4888C33.4701 41.489 33.3156 41.4389 33.1874 41.3457C32.5053 40.852 30.6649 39.8633 29.6074 39.4214C29.5159 39.3832 29.4327 39.3274 29.3628 39.257C29.2928 39.1867 29.2374 39.1033 29.1997 39.0115C29.1619 38.9198 29.1427 38.8215 29.1429 38.7223C29.1432 38.6231 29.163 38.5249 29.2012 38.4333C29.2394 38.3418 29.2953 38.2587 29.3656 38.1887C29.4359 38.1187 29.5193 38.0633 29.6111 38.0256C29.7029 37.9879 29.8011 37.9686 29.9003 37.9688C29.9995 37.9691 30.0977 37.9889 30.1893 38.0271C31.242 38.4671 33.2405 39.5198 34.0717 40.121C34.201 40.2145 34.2973 40.3466 34.3469 40.4983C34.3964 40.65 34.3965 40.8135 34.3473 40.9652C34.2981 41.117 34.202 41.2493 34.0729 41.343C33.9437 41.4368 33.7882 41.4872 33.6286 41.487V41.4888ZM29.8983 38.0875C29.7506 38.0872 29.6073 38.1382 29.4928 38.2317C29.3784 38.3253 29.3 38.4556 29.271 38.6005C29.2419 38.7454 29.264 38.8959 29.3335 39.0264C29.403 39.1568 29.5156 39.2591 29.6521 39.3158C30.715 39.7601 32.5675 40.756 33.255 41.2528C33.323 41.3019 33.3999 41.3372 33.4815 41.3566C33.5632 41.376 33.6478 41.3791 33.7306 41.3658C33.8134 41.3525 33.8928 41.323 33.9642 41.279C34.0356 41.235 34.0977 41.1774 34.1468 41.1094C34.196 41.0414 34.2312 40.9645 34.2506 40.8829C34.27 40.8013 34.2732 40.7166 34.2598 40.6338C34.2465 40.551 34.217 40.4716 34.173 40.4002C34.1291 40.3288 34.0714 40.2667 34.0035 40.2176C33.1783 39.6212 31.1919 38.5746 30.1446 38.137C30.0667 38.1042 29.9829 38.0873 29.8983 38.0875Z"
                        fill="#9C6137" fill-opacity="0.69" />
                    <path
                        d="M42.4787 18.4305C42.3274 18.4307 42.1802 18.3817 42.0593 18.2908C41.9383 18.1999 41.8503 18.0721 41.8084 17.9267C41.7666 17.7814 41.7732 17.6263 41.8272 17.4851C41.8813 17.3438 41.9798 17.2239 42.108 17.1436C43.241 16.4338 45.8926 14.7715 46.0013 12.7814C46.0532 11.8349 45.2323 10.845 44.3444 10.7829C44.0812 10.7648 43.8555 10.7859 43.7239 10.8432C43.3014 11.0243 42.9519 11.3189 42.909 11.4348C42.8851 11.5243 42.8436 11.6081 42.7869 11.6814C42.7302 11.7547 42.6594 11.8159 42.5788 11.8615C42.4981 11.9071 42.4092 11.9362 42.3171 11.9469C42.2251 11.9577 42.1319 11.9501 42.0428 11.9244C41.9538 11.8987 41.8708 11.8555 41.7987 11.7973C41.7266 11.7391 41.6668 11.6671 41.6228 11.5856C41.5789 11.504 41.5516 11.4145 41.5427 11.3222C41.5338 11.23 41.5433 11.1369 41.5708 11.0484C41.8207 10.1768 42.9549 9.65654 43.18 9.56056C43.5217 9.4157 43.9454 9.36017 44.4416 9.39457C46.0792 9.50926 47.4855 11.1607 47.392 12.8587C47.2622 15.2483 45.0216 16.9632 42.8475 18.3255C42.737 18.3949 42.6091 18.4313 42.4787 18.4305Z"
                        fill="#9C6137" fill-opacity="0.69" />
                    <path
                        d="M42.4786 18.4885C42.3149 18.4886 42.1555 18.4354 42.0246 18.337C41.8937 18.2385 41.7984 18.1002 41.7531 17.9428C41.7077 17.7854 41.7149 17.6175 41.7733 17.4645C41.8318 17.3116 41.9385 17.1818 42.0773 17.0947C43.2024 16.3897 45.8365 14.7407 45.9433 12.7778C45.9934 11.8603 45.1997 10.9006 44.3402 10.8408C44.0873 10.8227 43.8675 10.8438 43.7468 10.8951C43.3285 11.0726 42.9977 11.3611 42.9621 11.4529C42.9164 11.6096 42.8211 11.7473 42.6905 11.8452C42.5599 11.9432 42.4011 11.9961 42.2378 11.9961C42.1674 11.996 42.0973 11.9863 42.0296 11.9671C41.8373 11.9114 41.675 11.7818 41.578 11.6067C41.4811 11.4316 41.4574 11.2252 41.5123 11.0328C41.77 10.1358 42.9259 9.60463 43.1547 9.50745C43.5042 9.35956 43.9394 9.30162 44.4428 9.33723C46.1099 9.45373 47.5423 11.1336 47.4475 12.8623C47.3159 15.2767 45.0627 17.0042 42.8764 18.375C42.7571 18.4493 42.6193 18.4886 42.4786 18.4885ZM44.1687 10.7183C44.2291 10.7183 44.2895 10.7183 44.3498 10.7249C45.2667 10.7889 46.1135 11.8114 46.0598 12.7844C45.95 14.8053 43.2833 16.4779 42.14 17.1907C41.9965 17.2807 41.8946 17.424 41.8568 17.5891C41.8189 17.7542 41.8482 17.9276 41.9381 18.0711C42.0281 18.2146 42.1714 18.3165 42.3365 18.3544C42.5016 18.3922 42.675 18.3629 42.8185 18.273C44.98 16.9185 47.2067 15.2145 47.3358 12.852C47.427 11.1837 46.0466 9.56117 44.4385 9.4489C43.9557 9.41509 43.5331 9.47002 43.2036 9.61066C42.9833 9.70422 41.8702 10.2143 41.6276 11.0593C41.6043 11.14 41.5972 11.2246 41.6066 11.308C41.616 11.3915 41.6418 11.4723 41.6825 11.5458C41.7381 11.6454 41.8191 11.7284 41.9173 11.7863C42.0156 11.8442 42.1274 11.875 42.2414 11.8754C42.3798 11.8749 42.5143 11.8297 42.6248 11.7465C42.7354 11.6632 42.816 11.5465 42.8547 11.4136C42.9096 11.2639 43.2911 10.9597 43.6997 10.7847C43.8496 10.7331 44.008 10.7106 44.1663 10.7183H44.1687Z"
                        fill="#9C6137" fill-opacity="0.69" />
                    <path
                        d="M42.2076 18.4305C42.0771 18.4306 41.9492 18.3935 41.8388 18.3237C40.1276 17.2511 37.2629 15.4566 37.1199 12.8574C37.0269 11.1583 38.4339 9.50745 40.0715 9.39276C40.567 9.35836 40.9908 9.41449 41.3324 9.55875C41.5576 9.65473 42.6923 10.175 42.9422 11.0466C42.9881 11.2224 42.9634 11.4092 42.8736 11.567C42.7837 11.7249 42.6357 11.8414 42.4611 11.8918C42.2866 11.9421 42.0993 11.9222 41.9391 11.8364C41.779 11.7505 41.6588 11.6056 41.604 11.4323C41.56 11.3158 41.2135 11.0219 40.788 10.8414C40.657 10.7859 40.4318 10.7648 40.1687 10.7811C39.2808 10.8414 38.4593 11.8331 38.5112 12.7796C38.6144 14.6574 41.0958 16.2123 42.5782 17.1418C42.7064 17.2221 42.805 17.342 42.8591 17.4832C42.9131 17.6245 42.9197 17.7796 42.8779 17.9249C42.836 18.0703 42.7479 18.1981 42.627 18.2889C42.5061 18.3798 42.3589 18.4289 42.2076 18.4287V18.4305Z"
                        fill="#9C6137" fill-opacity="0.69" />
                    <path
                        d="M42.2076 18.4885C42.0662 18.4885 41.9277 18.4485 41.8081 18.3732C40.0872 17.2945 37.2068 15.4892 37.0619 12.8605C36.9678 11.1317 38.4001 9.45191 40.0673 9.33542C40.5707 9.29981 41.0059 9.35775 41.3547 9.50564C41.5841 9.60282 42.743 10.1346 42.9984 11.0309C43.0532 11.2233 43.0295 11.4295 42.9325 11.6044C42.8356 11.7793 42.6732 11.9087 42.4811 11.9641C42.4133 11.9835 42.3433 11.9934 42.2728 11.9937C42.1097 11.9931 41.9512 11.9399 41.8207 11.8421C41.6902 11.7442 41.5947 11.6069 41.5485 11.4504C41.5141 11.3599 41.1894 11.0762 40.7638 10.8963C40.6431 10.8456 40.4246 10.8245 40.1711 10.8426C39.3116 10.903 38.5172 11.8621 38.5667 12.7796C38.6687 14.6278 41.1338 16.1724 42.6066 17.096C42.7456 17.1828 42.8525 17.3126 42.9112 17.4656C42.9699 17.6187 42.9772 17.7867 42.9319 17.9442C42.8866 18.1017 42.7913 18.2402 42.6603 18.3388C42.5293 18.4373 42.3697 18.4905 42.2058 18.4903L42.2076 18.4885ZM40.3491 9.44105C40.261 9.44105 40.1681 9.44407 40.0757 9.45071C38.4677 9.56298 37.0867 11.1855 37.1784 12.8538C37.3197 15.4234 40.1681 17.2082 41.8696 18.2748C42.0131 18.3648 42.1866 18.3942 42.3517 18.3564C42.5169 18.3186 42.6602 18.2167 42.7503 18.0732C42.8403 17.9297 42.8697 17.7563 42.8319 17.5911C42.7941 17.4259 42.6922 17.2826 42.5487 17.1925C41.0554 16.2569 38.5589 14.6918 38.4538 12.7862C38.4007 11.8108 39.2482 10.7907 40.1657 10.7267C40.4415 10.708 40.6721 10.731 40.8115 10.7871C41.222 10.9609 41.604 11.2651 41.6566 11.4106C41.6946 11.5443 41.7752 11.662 41.886 11.746C41.9969 11.8299 42.132 11.8755 42.271 11.876C42.3306 11.8761 42.3899 11.8679 42.4473 11.8518C42.5279 11.8287 42.6032 11.7899 42.6688 11.7377C42.7344 11.6854 42.7891 11.6208 42.8297 11.5474C42.8704 11.4741 42.8962 11.3934 42.9056 11.3101C42.9151 11.2267 42.908 11.1423 42.8849 11.0617C42.6434 10.2167 41.5286 9.70482 41.3077 9.61308C41.0028 9.49255 40.6769 9.43407 40.3491 9.44105Z"
                        fill="#9C6137" fill-opacity="0.69" />
                    <path
                        d="M6.80504 53.4094V52.71H5.33718V58.01H6.874V55.5078C6.874 54.4931 7.43553 54.03 8.28275 54.03C8.40097 54.03 8.49948 54.0399 8.62755 54.0497V52.6311C7.80988 52.6311 7.17939 52.8971 6.80504 53.4094Z"
                        fill="#463B32" />
                    <path
                        d="M13.3825 52.71V55.3304C13.3825 56.3057 12.8702 56.7589 12.1609 56.7589C11.4812 56.7589 11.0871 56.3648 11.0871 55.4782V52.71H9.55027V55.7048C9.55027 57.3401 10.4862 58.0888 11.8161 58.0888C12.4663 58.0888 13.0574 57.8425 13.4613 57.3795V58.01H14.9193V52.71H13.3825Z"
                        fill="#463B32" />
                    <path
                        d="M21.5348 55.3797C21.5348 53.6754 20.3329 52.6311 18.7764 52.6311C17.1607 52.6311 15.949 53.7739 15.949 55.36C15.949 56.9362 17.141 58.0888 18.9734 58.0888C19.929 58.0888 20.6678 57.7933 21.1604 57.2318L20.3427 56.3451C19.9782 56.6899 19.5743 56.8574 19.0128 56.8574C18.205 56.8574 17.6434 56.4535 17.4957 55.7934H21.5052C21.5151 55.6654 21.5348 55.4979 21.5348 55.3797ZM18.7862 53.7936C19.4758 53.7936 19.9782 54.2271 20.0866 54.897H17.476C17.5843 54.2172 18.0868 53.7936 18.7862 53.7936Z"
                        fill="#463B32" />
                    <path d="M22.5579 58.01H24.0947V50.7003H22.5579V58.01Z" fill="#463B32" />
                    <path
                        d="M28.9105 56.6702C28.7431 56.7983 28.5165 56.8673 28.2899 56.8673C27.8761 56.8673 27.6299 56.621 27.6299 56.1678V54.0103H28.9499V52.8282H27.6299V51.5376H26.093V52.8282H25.2754V54.0103H26.093V56.1875C26.093 57.4485 26.822 58.0888 28.0732 58.0888C28.546 58.0888 29.0091 57.9805 29.3243 57.7539L28.9105 56.6702Z"
                        fill="#463B32" />
                    <path
                        d="M33.8737 52.71L32.3763 56.3057L30.8888 52.71H29.3027L31.5981 58.0494L31.5783 58.0987C31.3715 58.5715 31.135 58.7587 30.7114 58.7587C30.406 58.7587 30.0809 58.6307 29.8445 58.4238L29.283 59.5173C29.6278 59.8227 30.2189 60 30.7607 60C31.7163 60 32.4453 59.6158 32.9575 58.3351L35.3514 52.71H33.8737Z"
                        fill="#463B32" />
                    <path
                        d="M40.4531 52.6016C40.4531 52.0795 40.6994 51.8332 41.1525 51.8332C41.389 51.8332 41.6057 51.9021 41.7732 52.0204L42.1771 50.9071C41.8914 50.7101 41.4382 50.6215 41.0048 50.6215C39.6847 50.6215 38.9557 51.3997 38.9557 52.5917V52.8282H38.138V54.0103H38.9557V58.01H40.4925V54.0103H41.8126V52.8282H40.4531V52.6016Z"
                        fill="#463B32" />
                    <path
                        d="M44.835 53.4094V52.71H43.3671V58.01H44.9039V55.5078C44.9039 54.4931 45.4655 54.03 46.3127 54.03C46.4309 54.03 46.5294 54.0399 46.6575 54.0497V52.6311C45.8398 52.6311 45.2093 52.8971 44.835 53.4094Z"
                        fill="#463B32" />
                    <path
                        d="M52.7149 55.3797C52.7149 53.6754 51.513 52.6311 49.9565 52.6311C48.3408 52.6311 47.1291 53.7739 47.1291 55.36C47.1291 56.9362 48.3211 58.0888 50.1535 58.0888C51.1091 58.0888 51.8479 57.7933 52.3405 57.2318L51.5228 56.3451C51.1583 56.6899 50.7544 56.8574 50.1929 56.8574C49.3851 56.8574 48.8236 56.4535 48.6758 55.7934H52.6853C52.6952 55.6654 52.7149 55.4979 52.7149 55.3797ZM49.9663 53.7936C50.6559 53.7936 51.1583 54.2271 51.2667 54.897H48.6561C48.7645 54.2172 49.2669 53.7936 49.9663 53.7936Z"
                        fill="#463B32" />
                    <path
                        d="M58.9297 55.3797C58.9297 53.6754 57.7279 52.6311 56.1713 52.6311C54.5557 52.6311 53.344 53.7739 53.344 55.36C53.344 56.9362 54.536 58.0888 56.3684 58.0888C57.3239 58.0888 58.0628 57.7933 58.5554 57.2318L57.7377 56.3451C57.3732 56.6899 56.9693 56.8574 56.4078 56.8574C55.5999 56.8574 55.0384 56.4535 54.8906 55.7934H58.9002C58.91 55.6654 58.9297 55.4979 58.9297 55.3797ZM56.1812 53.7936C56.8708 53.7936 57.3732 54.2271 57.4816 54.897H54.8709C54.9793 54.2172 55.4817 53.7936 56.1812 53.7936Z"
                        fill="#463B32" />
                </svg>