<svg width="48" height="48" viewBox="0 0 48 48" fill="none" xmlns="http://www.w3.org/2000/svg">
                    <path
                        d="M34.36 12.0713C35.2878 12.0811 36.176 12.4482 36.84 13.0964C37.1749 13.4179 37.4427 13.8026 37.6279 14.2283C37.813 14.654 37.9119 15.1122 37.9188 15.5764C37.9305 15.7515 38.0037 15.9167 38.1255 16.043C38.2472 16.1693 38.4097 16.2486 38.5842 16.2667C38.666 16.2672 38.7471 16.2516 38.8228 16.2207C38.8985 16.1898 38.9673 16.1442 39.0253 16.0866C39.0833 16.0289 39.1294 15.9604 39.1608 15.8849C39.1922 15.8094 39.2084 15.7284 39.2084 15.6467C39.1804 14.7385 39.5121 13.8561 40.1313 13.1912C40.7505 12.5263 41.6072 12.1328 42.515 12.0961H42.6266C42.7911 12.0961 42.9488 12.0308 43.065 11.9146C43.1813 11.7983 43.2466 11.6406 43.2466 11.4761C43.2466 11.3117 43.1813 11.154 43.065 11.0377C42.9488 10.9215 42.7911 10.8561 42.6266 10.8561H42.5853C42.1485 10.8555 41.7162 10.7669 41.3143 10.5958C40.9124 10.4247 40.549 10.1744 40.2458 9.86001C39.6529 9.25306 39.2966 8.45404 39.2414 7.60734C39.2414 7.55774 39.2414 7.50814 39.2414 7.45441C39.2406 7.39406 39.2308 7.33417 39.2125 7.27668C39.1883 7.13353 39.1147 7.00341 39.0044 6.90899C38.8941 6.81458 38.7542 6.76185 38.609 6.76001V6.76001C38.4446 6.76001 38.2869 6.82533 38.1706 6.9416C38.0543 7.05788 37.989 7.21558 37.989 7.38001C37.989 7.45441 37.989 7.52881 37.989 7.60734C37.9215 8.49531 37.5163 9.32363 36.8566 9.92182C36.1968 10.52 35.3329 10.8426 34.4426 10.8231H34.36C34.2785 10.8242 34.1981 10.8413 34.1233 10.8734C34.0485 10.9056 33.9808 10.9522 33.924 11.0105C33.8672 11.0688 33.8224 11.1378 33.7922 11.2134C33.7621 11.2891 33.7471 11.3699 33.7482 11.4513C33.7503 11.6137 33.8152 11.769 33.9292 11.8846C34.0433 12.0001 34.1976 12.0671 34.36 12.0713V12.0713ZM38.6214 9.73601C38.8241 10.0961 39.0728 10.4281 39.3613 10.7239C39.6446 11.0108 39.9642 11.2595 40.312 11.4637C39.5658 11.9031 38.9552 12.5395 38.547 13.3031C38.3235 12.9027 38.0453 12.5354 37.7204 12.2119C37.4294 11.9402 37.1059 11.7056 36.7573 11.5133C37.5305 11.1039 38.1756 10.4889 38.6214 9.73601V9.73601Z"
                        fill="#D0AF94" />
                    <path
                        d="M28.7428 30.1132C27.3543 30.0642 26.0114 29.6046 24.884 28.7926C23.7566 27.9806 22.8953 26.8526 22.4088 25.5511C21.9224 24.2497 21.8326 22.8332 22.151 21.4808C22.4694 20.1284 23.1815 18.9007 24.1974 17.953C25.2134 17.0052 26.4875 16.3799 27.8587 16.156C29.2299 15.9322 30.6367 16.1199 31.9013 16.6954C33.1659 17.2709 34.2315 18.2084 34.9634 19.3894C35.6953 20.5704 36.0607 21.9418 36.0133 23.3304C36.0105 23.4118 36.0239 23.493 36.0525 23.5693C36.0811 23.6456 36.1245 23.7155 36.1802 23.775C36.2358 23.8345 36.3027 23.8824 36.3769 23.916C36.4511 23.9497 36.5312 23.9684 36.6126 23.9711C36.694 23.9749 36.7753 23.9625 36.8518 23.9346C36.9283 23.9066 36.9985 23.8636 37.0581 23.8082C37.1178 23.7528 37.1658 23.686 37.1993 23.6117C37.2328 23.5375 37.2512 23.4573 37.2533 23.3759C37.3095 21.7421 36.8801 20.1283 36.0192 18.7386C35.1584 17.3488 33.9049 16.2455 32.4171 15.5681C30.9293 14.8907 29.2741 14.6696 27.6607 14.9328C26.0473 15.196 24.5481 15.9316 23.3527 17.0467C22.1573 18.1618 21.3193 19.6062 20.9448 21.1975C20.5702 22.7887 20.6758 24.4553 21.2483 25.9866C21.8208 27.5178 22.8344 28.8449 24.161 29.8001C25.4876 30.7554 27.0677 31.2958 28.7014 31.3532H28.7221C28.8865 31.3559 29.0453 31.2932 29.1635 31.1789C29.2817 31.0646 29.3497 30.908 29.3524 30.7435C29.3552 30.5791 29.2925 30.4203 29.1781 30.3021C29.0638 30.1839 28.9072 30.1159 28.7428 30.1132V30.1132Z"
                        fill="#D0AF94" />
                    <path
                        d="M16.5866 15.6465C17.4041 15.6465 18.2032 15.4041 18.8829 14.95C19.5627 14.4958 20.0924 13.8502 20.4053 13.095C20.7181 12.3397 20.8 11.5086 20.6405 10.7068C20.481 9.90506 20.0873 9.16857 19.5093 8.59051C18.9312 8.01245 18.1947 7.61879 17.393 7.45931C16.5912 7.29982 15.7601 7.38167 15.0048 7.69452C14.2496 8.00736 13.604 8.53714 13.1498 9.21686C12.6957 9.89658 12.4532 10.6957 12.4532 11.5132C12.4532 12.6094 12.8887 13.6608 13.6639 14.4359C14.439 15.2111 15.4904 15.6465 16.5866 15.6465V15.6465ZM16.5866 8.61988C17.1588 8.61988 17.7182 8.78958 18.194 9.1075C18.6698 9.42542 19.0407 9.8773 19.2597 10.406C19.4787 10.9347 19.536 11.5164 19.4243 12.0777C19.3127 12.6389 19.0371 13.1545 18.6325 13.5591C18.2278 13.9638 17.7123 14.2393 17.151 14.351C16.5898 14.4626 16.008 14.4053 15.4793 14.1863C14.9507 13.9673 14.4988 13.5965 14.1809 13.1207C13.8629 12.6449 13.6932 12.0855 13.6932 11.5132C13.6932 10.7459 13.9981 10.0099 14.5407 9.46732C15.0833 8.92472 15.8192 8.61988 16.5866 8.61988V8.61988Z"
                        fill="#D0AF94" />
                    <path
                        d="M37.6998 25.5666C35.891 25.5036 34.1312 26.1617 32.8077 27.3961C31.4841 28.6305 30.7051 30.3402 30.6421 32.149C30.5791 33.9578 31.2371 35.7175 32.4716 37.0411C33.706 38.3646 35.4156 39.1436 37.2244 39.2066H37.4642C39.2729 39.2379 41.02 38.5493 42.3211 37.2924C43.6222 36.0355 44.3707 34.3132 44.402 32.5044C44.4332 30.6957 43.7446 28.9486 42.4877 27.6475C41.2308 26.3464 39.5085 25.5979 37.6998 25.5666V25.5666ZM41.2668 36.4621C40.6024 37.0835 39.796 37.533 38.9181 37.7715C38.0401 38.01 37.1172 38.0302 36.2297 37.8304C35.3421 37.6305 34.5169 37.2167 33.8259 36.6249C33.1349 36.0332 32.599 35.2815 32.265 34.4352C31.931 33.589 31.809 32.6739 31.9096 31.7698C32.0102 30.8656 32.3303 29.9997 32.8421 29.2475C33.3539 28.4954 34.0418 27.8798 34.846 27.4544C35.6501 27.0289 36.5461 26.8066 37.4559 26.8066H37.6667C38.7702 26.8444 39.8377 27.2088 40.7341 27.8535C41.6305 28.4983 42.3154 29.3945 42.7022 30.4288C43.089 31.463 43.1602 32.5887 42.9069 33.6634C42.6536 34.7382 42.0871 35.7136 41.2792 36.4662L41.2668 36.4621Z"
                        fill="#D0AF94" />
                    <path
                        d="M14.1066 21.8467C13.0439 21.8467 12.005 22.1618 11.1213 22.7523C10.2377 23.3427 9.54899 24.1819 9.1423 25.1637C8.7356 26.1456 8.62919 27.226 8.83653 28.2683C9.04386 29.3106 9.55562 30.2681 10.3071 31.0195C11.0586 31.771 12.016 32.2828 13.0583 32.4901C14.1007 32.6974 15.181 32.591 16.1629 32.1843C17.1447 31.7776 17.9839 31.0889 18.5744 30.2053C19.1648 29.3216 19.4799 28.2828 19.4799 27.22C19.4799 25.7949 18.9138 24.4282 17.9061 23.4205C16.8984 22.4128 15.5317 21.8467 14.1066 21.8467V21.8467ZM14.1066 31.3534C13.2891 31.3534 12.49 31.1109 11.8103 30.6568C11.1305 30.2026 10.6008 29.557 10.2879 28.8018C9.97507 28.0465 9.89321 27.2154 10.0527 26.4136C10.2122 25.6119 10.6058 24.8754 11.1839 24.2973C11.762 23.7192 12.4985 23.3256 13.3002 23.1661C14.102 23.0066 14.9331 23.0885 15.6884 23.4013C16.4436 23.7142 17.0892 24.2439 17.5434 24.9237C17.9975 25.6034 18.2399 26.4025 18.2399 27.22C18.2399 27.7628 18.133 28.3003 17.9253 28.8018C17.7176 29.3033 17.4131 29.7589 17.0293 30.1427C16.6455 30.5265 16.1898 30.831 15.6884 31.0387C15.1869 31.2464 14.6494 31.3534 14.1066 31.3534Z"
                        fill="#D0AF94" />
                    <path
                        d="M25.8866 36.9002H25.8535C25.2509 36.8986 24.6732 36.6595 24.2457 36.2347C23.8098 35.8046 23.5465 35.2296 23.5058 34.6186C23.5058 34.5814 23.5058 34.5442 23.5058 34.507C23.4996 34.3372 23.4322 34.1754 23.3159 34.0515C23.1996 33.9277 23.0424 33.8501 22.8734 33.8333V33.8333C22.7097 33.8354 22.5535 33.9023 22.4389 34.0192C22.3242 34.1361 22.2605 34.2937 22.2617 34.4574C22.2617 34.5153 22.2617 34.569 22.2617 34.6227C22.2121 36.0033 20.9431 36.8712 19.7569 36.8836H19.6783C19.5969 36.8847 19.5165 36.9018 19.4417 36.934C19.3669 36.9662 19.2991 37.0127 19.2423 37.0711C19.1855 37.1294 19.1408 37.1984 19.1106 37.274C19.0804 37.3497 19.0655 37.4305 19.0666 37.5119C19.0671 37.5935 19.0839 37.6742 19.1158 37.7492C19.1478 37.8243 19.1943 37.8922 19.2528 37.9492C19.3113 38.0061 19.3804 38.0508 19.4563 38.0808C19.5322 38.1107 19.6133 38.1253 19.6949 38.1236C20.0193 38.1232 20.3406 38.1873 20.6401 38.3122C20.9395 38.4371 21.2111 38.6203 21.4391 38.8511C21.6757 39.0776 21.8651 39.3487 21.9964 39.6488C22.1276 39.9489 22.1981 40.272 22.2038 40.5995C22.2123 40.772 22.2832 40.9354 22.4034 41.0594C22.5236 41.1834 22.6847 41.2594 22.8569 41.2732V41.2732C23.0206 41.2711 23.1768 41.2042 23.2914 41.0873C23.406 40.9704 23.4697 40.8128 23.4686 40.6491C23.4485 40.0072 23.6833 39.3835 24.1216 38.9141C24.56 38.4448 25.1663 38.168 25.8081 38.1443H25.8866C26.051 38.1443 26.2087 38.079 26.325 37.9627C26.4413 37.8465 26.5066 37.6888 26.5066 37.5243C26.5066 37.3599 26.4413 37.2022 26.325 37.0859C26.2087 36.9696 26.051 36.9043 25.8866 36.9043V36.9002ZM22.8238 38.5907C22.6738 38.3652 22.5006 38.1561 22.3071 37.9666C22.1458 37.814 21.9715 37.6757 21.7863 37.5532C22.2173 37.2895 22.5899 36.9407 22.8817 36.5282C23.0249 36.7491 23.1911 36.9541 23.3777 37.1399C23.5265 37.2915 23.6883 37.4298 23.8613 37.5532C23.4491 37.8274 23.0963 38.1816 22.8238 38.5948V38.5907Z"
                        fill="#D0AF94" />
                    <path
                        d="M29.214 17.7133C26.4488 17.6141 24.13 19.9246 24.0266 22.8552C24.0233 22.9369 24.0362 23.0185 24.0646 23.0953C24.093 23.1721 24.1363 23.2424 24.192 23.3024C24.2477 23.3623 24.3147 23.4106 24.3892 23.4446C24.4637 23.4785 24.5442 23.4973 24.626 23.5H24.6466C24.8075 23.5 24.9622 23.4376 25.0779 23.3257C25.1936 23.2139 25.2613 23.0614 25.2666 22.9006C25.3452 20.6521 27.0977 18.9037 29.1726 18.9533C29.254 18.9572 29.3353 18.9448 29.4118 18.9168C29.4883 18.8888 29.5585 18.8459 29.6181 18.7904C29.6778 18.735 29.7258 18.6682 29.7593 18.5939C29.7928 18.5197 29.8112 18.4395 29.8133 18.3581C29.8166 18.2763 29.8037 18.1947 29.7753 18.1179C29.7469 18.0412 29.7036 17.9708 29.6479 17.9109C29.5922 17.8509 29.5252 17.8026 29.4507 17.7687C29.3762 17.7348 29.2958 17.7159 29.214 17.7133V17.7133Z"
                        fill="#D0AF94" />
                    <path
                        d="M37.274 27.8399C36.2336 27.8355 35.2339 28.2437 34.494 28.9751C33.7541 29.7065 33.3343 30.7014 33.3266 31.7417C33.3239 31.8232 33.3372 31.9043 33.3658 31.9806C33.3945 32.0569 33.4379 32.1268 33.4935 32.1863C33.5492 32.2458 33.616 32.2937 33.6902 32.3274C33.7644 32.361 33.8445 32.3797 33.926 32.3824H33.9466C34.1076 32.3825 34.2622 32.32 34.3779 32.2082C34.4936 32.0963 34.5613 31.9439 34.5666 31.7831C34.5666 31.0722 34.8461 30.3897 35.3449 29.8832C35.8438 29.3766 36.5218 29.0866 37.2326 29.0757C37.3145 29.0802 37.3964 29.0681 37.4734 29.0401C37.5504 29.0121 37.621 28.9688 37.6808 28.9128C37.7407 28.8568 37.7886 28.7892 37.8217 28.7143C37.8548 28.6393 37.8723 28.5584 37.8733 28.4764C37.8778 28.3127 37.8172 28.1538 37.7049 28.0345C37.5926 27.9153 37.4377 27.8453 37.274 27.8399V27.8399Z"
                        fill="#D0AF94" />
                    <path
                        d="M13.4866 24.1199C12.0069 24.1199 10.7999 25.5087 10.7999 27.2199C10.7999 27.3843 10.8652 27.542 10.9815 27.6583C11.0978 27.7746 11.2555 27.8399 11.4199 27.8399C11.5844 27.8399 11.7421 27.7746 11.8583 27.6583C11.9746 27.542 12.0399 27.3843 12.0399 27.2199C12.0399 26.1948 12.6889 25.3599 13.4866 25.3599C13.651 25.3599 13.8087 25.2946 13.925 25.1783C14.0413 25.062 14.1066 24.9043 14.1066 24.7399C14.1066 24.5754 14.0413 24.4177 13.925 24.3015C13.8087 24.1852 13.651 24.1199 13.4866 24.1199V24.1199Z"
                        fill="#D0AF94" />
                    <path
                        d="M36.0234 25.8002C36.0234 37.7482 25.6769 42.6264 16.5414 42.6264C7.40583 42.6264 1.84128e-05 32.9407 1.84128e-05 20.9927C1.84128e-05 9.04478 10.3465 4.16649 19.4821 4.16649C28.6176 4.16649 36.0234 13.8522 36.0234 25.8002Z"
                        fill="#D0AF94" fill-opacity="0.1" />
                </svg>