<svg width="56.97px" height="60px" viewBox="0 0 57 60" fill="none" xmlns="http://www.w3.org/2000/svg">
                    <path
                        d="M55.5189 38.5857C55.7578 38.457 55.9358 38.2387 56.0138 37.9788C56.0918 37.7188 56.0633 37.4386 55.9347 37.1996C55.806 36.9607 55.5877 36.7826 55.3278 36.7047C55.0678 36.6267 54.7876 36.6551 54.5486 36.7838C54.511 36.7949 54.3318 36.8331 53.8599 36.7838C53.597 36.7692 53.3387 36.8566 53.1386 37.0277C52.9385 37.1988 52.8122 37.4405 52.7858 37.7025C52.7595 37.9644 52.8352 38.2264 52.9971 38.434C53.1591 38.6415 53.3949 38.7786 53.6554 38.8167C53.8778 38.8389 54.0817 38.8499 54.2714 38.8499C54.7913 38.8549 55.1893 38.7674 55.5189 38.5857Z"
                        fill="#463B32" />
                    <path
                        d="M8.36899 47.2137C8.09609 47.3874 7.96734 47.4262 7.93777 47.4336C7.67048 47.4374 7.41564 47.5472 7.22929 47.7388C7.04295 47.9305 6.94037 48.1883 6.94413 48.4556C6.94788 48.7229 7.05767 48.9777 7.24933 49.1641C7.44099 49.3504 7.69882 49.453 7.96611 49.4493H7.97166C8.42074 49.4493 8.89569 49.2897 9.47352 48.9219C9.5891 48.8511 9.68934 48.7578 9.76835 48.6477C9.84737 48.5375 9.90356 48.4127 9.93363 48.2805C9.9637 48.1483 9.96703 48.0114 9.94344 47.8779C9.91985 47.7444 9.86981 47.617 9.79626 47.5031C9.7227 47.3892 9.62713 47.2912 9.51514 47.2148C9.40316 47.1384 9.27703 47.0851 9.14417 47.0581C9.01131 47.0312 8.8744 47.0311 8.74149 47.0578C8.60858 47.0845 8.48235 47.1375 8.37022 47.2137H8.36899Z"
                        fill="#463B32" />
                    <path
                        d="M18.9227 55.0157C15.9565 53.915 13.2176 52.279 10.8423 50.1891C10.6428 50.0241 10.3868 49.9433 10.1287 49.9637C9.87057 49.9841 9.63052 50.1042 9.45937 50.2985C9.28821 50.4928 9.19938 50.746 9.21168 51.0047C9.22398 51.2633 9.33644 51.507 9.52527 51.6842C12.0837 53.9351 15.034 55.6968 18.2291 56.8816C18.3404 56.9223 18.458 56.9432 18.5765 56.9432C18.81 56.9427 19.0359 56.8603 19.2148 56.7103C19.3937 56.5603 19.5143 56.3522 19.5555 56.1224C19.5967 55.8926 19.5559 55.6556 19.4403 55.4528C19.3246 55.2499 19.1415 55.0942 18.9227 55.0126V55.0157Z"
                        fill="#463B32" />
                    <path
                        d="M53.1238 40.4331C52.8811 40.3288 52.607 40.325 52.3615 40.4225C52.116 40.5199 51.9191 40.7107 51.8141 40.9531C50.4132 44.206 48.3583 47.1362 45.7771 49.5614C45.6818 49.651 45.6051 49.7586 45.5514 49.8779C45.4978 49.9972 45.4681 50.1259 45.4641 50.2567C45.4602 50.3875 45.4821 50.5177 45.5284 50.64C45.5748 50.7624 45.6449 50.8744 45.7346 50.9696C45.8242 51.0649 45.9318 51.1415 46.0511 51.1952C46.1704 51.2489 46.2991 51.2786 46.4299 51.2825C46.5606 51.2865 46.6909 51.2646 46.8132 51.2182C46.9355 51.1718 47.0475 51.1018 47.1428 51.0121C49.923 48.4007 52.1369 45.2456 53.6468 41.7428C53.6986 41.6225 53.7263 41.4931 53.728 41.3621C53.7298 41.2311 53.7057 41.1011 53.6572 40.9794C53.6086 40.8577 53.5364 40.7468 53.4449 40.6531C53.3534 40.5594 53.2442 40.4846 53.1238 40.4331Z"
                        fill="#463B32" />
                    <path
                        d="M7.854 14.2299C8.00688 14.0243 8.07472 13.7678 8.04344 13.5135C8.01215 13.2592 7.88415 13.0267 7.68599 12.8643C7.48783 12.7019 7.23474 12.622 6.97926 12.6413C6.72377 12.6605 6.48551 12.7774 6.31394 12.9677C2.4028 17.7413 0.22762 23.5319 0.0163236 29.7125C-0.0470665 31.5712 0.0742697 33.4317 0.378546 35.2665C0.405674 35.4311 0.473942 35.586 0.577009 35.7171C0.680077 35.8482 0.814601 35.9511 0.968081 36.0162L0.308318 38.1354C0.265801 38.2643 0.24939 38.4004 0.260037 38.5358C0.270685 38.6711 0.308178 38.803 0.370334 38.9237C0.43249 39.0444 0.518061 39.1516 0.622057 39.2388C0.726052 39.3261 0.846391 39.3918 0.976049 39.4321C1.10571 39.4724 1.24209 39.4865 1.37724 39.4735C1.51239 39.4605 1.64361 39.4208 1.76323 39.3565C1.88285 39.2923 1.98848 39.2049 2.07397 39.0994C2.15945 38.9939 2.22307 38.8725 2.26112 38.7421L6.09894 26.41C6.68663 25.8555 7.33099 25.5278 8.07638 25.1502C8.86982 24.7498 9.76921 24.2945 10.6557 23.4986C11.369 22.8623 11.9653 22.2974 12.4908 21.799C13.3157 21.0179 14.2489 20.1358 14.565 20.0828C15.906 19.9269 21.3659 20.4524 22.1501 20.8965C22.5006 21.1054 23.6285 22.1766 25.6472 24.4954C23.2447 24.9524 21.2735 22.5666 21.255 22.5438C21.1303 22.3882 20.9629 22.2725 20.7734 22.2108C20.5838 22.149 20.3804 22.144 20.188 22.1964C18.6634 22.6109 16.912 22.7976 16.5165 22.5888C16.3724 22.5023 16.2091 22.4528 16.0412 22.4446C15.8733 22.4364 15.706 22.4697 15.554 22.5417C15.4021 22.6137 15.2703 22.722 15.1703 22.8571C15.0703 22.9923 15.0052 23.15 14.9808 23.3163C14.6469 25.5611 12.5918 27.6765 12.5727 27.6968C12.4144 27.8567 12.3141 28.0648 12.2875 28.2882L11.8982 31.3887C11.8794 31.539 11.8943 31.6916 11.9418 31.8354C11.9894 31.9793 12.0683 32.1108 12.1729 32.2203C12.3239 32.3811 15.9375 36.1628 18.7348 37.215C18.8672 37.2634 19.0081 37.2844 19.1488 37.2766C21.3197 37.1639 26.4598 38.1877 27.305 38.3602C27.6025 38.5136 28.6719 39.1567 28.7705 40.4313C28.1138 40.5348 27.292 40.4066 26.5528 40.2914C26.1265 40.2261 25.7255 40.1633 25.3361 40.1362C23.8774 40.0321 18.8402 40.5865 17.2952 41.1908C15.9024 41.7372 13.6064 43.3408 10.5146 45.548C10.4006 45.624 10.303 45.7222 10.2277 45.8367C10.1524 45.9512 10.1009 46.0797 10.0762 46.2145C10.0515 46.3493 10.0542 46.4877 10.084 46.6215C10.1139 46.7552 10.1703 46.8816 10.25 46.9931C10.3297 47.1047 10.4309 47.199 10.5478 47.2706C10.6647 47.3422 10.7947 47.3896 10.9303 47.41C11.0658 47.4303 11.204 47.4232 11.3368 47.3891C11.4695 47.3549 11.594 47.2945 11.7029 47.2112C14.475 45.2295 16.8707 43.5521 18.0412 43.0944C19.1882 42.6447 23.8934 42.0816 25.1871 42.174C25.492 42.1962 25.853 42.2516 26.2343 42.3114C27.4048 42.4962 28.7335 42.7001 29.9489 42.2184C30.3214 41.9207 30.6108 41.532 30.7892 41.0898C30.8323 41.1631 30.8754 41.237 30.9235 41.311C31.2687 41.6543 31.699 41.8997 32.1703 42.0219C32.216 42.0218 32.2617 42.0187 32.3071 42.0126C33.6007 41.8395 34.6603 41.011 35.5929 40.2797C35.901 40.042 36.1862 39.8165 36.4424 39.6489C37.5266 38.9362 41.9078 37.1282 43.1294 36.9594C43.7072 36.8799 44.8844 37.1097 46.2471 37.3758C47.5112 37.6222 49.0808 37.9302 50.8365 38.1224C50.9699 38.1371 51.105 38.1254 51.234 38.088C51.3629 38.0505 51.4832 37.988 51.588 37.904C51.6928 37.82 51.7801 37.7162 51.8447 37.5985C51.9094 37.4809 51.9503 37.3516 51.965 37.2181C51.9797 37.0846 51.968 36.9495 51.9305 36.8206C51.8931 36.6916 51.8306 36.5713 51.7466 36.4665C51.6626 36.3617 51.5588 36.2745 51.4411 36.2098C51.3234 36.1451 51.1942 36.1043 51.0607 36.0895C49.3919 35.9047 47.9294 35.6195 46.6389 35.3676C44.9707 35.0429 43.7657 34.807 42.8509 34.9333C41.2055 35.16 36.5392 37.1362 35.32 37.9388C34.9923 38.1526 34.6714 38.4033 34.3344 38.6694C33.7436 39.1321 33.0876 39.6452 32.4642 39.8756C31.9282 38.7175 32.5492 37.6315 32.7346 37.3499C33.39 36.7838 37.3702 33.384 39.326 32.4217C39.452 32.3591 39.564 32.2715 39.655 32.1642C41.5277 29.9466 43.3012 25.898 43.3752 25.7268C43.4469 25.5626 43.4743 25.3824 43.4544 25.2043C43.4345 25.0262 43.3681 24.8565 43.2618 24.7122L41.4094 22.1957C41.2755 22.0142 41.0854 21.8819 40.8686 21.8193C40.0831 21.592 37.7884 20.6723 36.6303 19.1704C36.528 19.0371 36.3944 18.9311 36.2412 18.8618C36.0881 18.7926 35.9202 18.7622 35.7525 18.7735C35.5848 18.7848 35.4224 18.8373 35.2799 18.9265C35.1374 19.0156 35.0192 19.1385 34.9356 19.2844C34.6892 19.6596 33.0734 20.3532 31.537 20.737C31.362 20.781 31.2015 20.8702 31.0718 20.9957C30.942 21.1212 30.8475 21.2787 30.7978 21.4522C30.7867 21.4953 29.6532 25.2869 27.7651 25.7816C28.2783 23.4493 28.8943 21.0709 29.1863 20.5614C29.6569 19.7926 34.1638 16.6657 35.4081 16.147C35.7088 16.0367 36.9587 16.3527 38.057 16.6318C38.7599 16.8092 39.5552 17.0119 40.4885 17.2195C41.6589 17.4819 42.6698 17.4216 43.5587 17.368C44.3596 17.3211 45.0612 17.2805 45.8128 17.4597C45.8294 17.4776 45.846 17.4967 45.8645 17.5146L55.2577 26.4272C55.4558 26.6067 55.7162 26.7016 55.9834 26.6917C56.2505 26.6817 56.5032 26.5676 56.6874 26.3738C56.8715 26.18 56.9726 25.9218 56.9689 25.6545C56.9652 25.3872 56.8571 25.1319 56.6677 24.9432L53.9535 22.3695C54.1254 22.2422 54.2517 22.0631 54.3139 21.8586C54.3762 21.654 54.371 21.4349 54.2991 21.2335C51.7697 14.1745 46.4066 8.33828 39.5866 5.21688C39.4676 5.16173 39.3388 5.13064 39.2077 5.1254C39.0765 5.12017 38.9457 5.14089 38.8226 5.18638C38.6995 5.23187 38.5866 5.30124 38.4904 5.39048C38.3942 5.47973 38.3166 5.58711 38.262 5.70644C38.2075 5.82577 38.177 5.95472 38.1724 6.08586C38.1678 6.217 38.1892 6.34775 38.2353 6.47061C38.2814 6.59347 38.3513 6.70601 38.441 6.80177C38.5307 6.89753 38.6385 6.97462 38.7581 7.02861C44.5727 9.68799 49.2465 14.4751 51.7919 20.3144L47.2758 16.0312C47.1795 15.9391 47.0658 15.8671 46.9413 15.8193C46.8065 15.6653 46.6286 15.5552 46.4306 15.5033C45.3274 15.215 44.3676 15.2722 43.4411 15.3283C42.6125 15.3764 41.8308 15.4238 40.9376 15.2248C40.0332 15.0228 39.2534 14.825 38.5634 14.6507C36.6741 14.1708 35.5313 13.8813 34.6252 14.2595C33.4972 14.7289 28.2425 18.106 27.4177 19.5431C27.1386 20.0286 26.8017 21.1448 26.4844 22.3442C24.9 20.575 23.7961 19.4982 23.1998 19.1403C21.7774 18.2901 15.5438 17.9082 14.329 18.0505C13.3532 18.1632 12.4988 18.9745 11.0838 20.3138C10.5688 20.8023 9.98236 21.3561 9.29241 21.9771C8.60247 22.598 7.9002 22.9504 7.15234 23.328C6.32318 23.7475 5.46505 24.1818 4.64944 24.9678C4.53034 25.0815 4.44088 25.2226 4.38886 25.3787C4.28112 25.4915 4.201 25.6277 4.15477 25.7767L2.06029 32.5117C1.99519 31.6036 1.97812 30.6926 2.00916 29.7827C2.20321 24.0389 4.225 18.6604 7.854 14.2299ZM21.1767 25.2383C20.8687 25.1989 20.5946 25.1009 20.4659 24.9685C20.2958 24.7917 20.1141 24.5859 19.9348 24.3697L20.1153 24.3278C20.4457 24.6567 20.8005 24.96 21.1767 25.2352V25.2383ZM16.75 24.6962C17.0392 24.7181 17.3296 24.7212 17.6192 24.7054C17.7258 24.8594 17.8397 25.0134 17.9586 25.1711C17.6827 25.1557 17.3118 25.2001 17.0106 25.5334C16.8968 25.6671 16.7938 25.8096 16.7026 25.9596C16.4475 26.3502 16.0613 26.941 15.4668 27.3562C15.4477 27.3697 15.4292 27.3876 15.4089 27.4024C15.9073 26.6576 16.4278 25.7237 16.75 24.6962ZM14.2736 28.8685C14.3845 28.7453 14.5268 28.5796 14.6851 28.3812C14.3531 29.1007 14.2255 29.9139 14.2422 30.1967C14.2631 30.5176 14.1707 30.8459 14.0364 31.2014C14.0192 31.1854 14.0031 31.1694 13.9884 31.154L14.2736 28.8685ZM41.2554 25.4465C41.2437 25.4724 41.232 25.4995 41.2179 25.5272C40.9641 25.306 40.7552 25.0837 40.6296 24.8218C40.5039 24.56 39.9994 23.92 39.3575 23.4543C39.5946 23.5485 39.7973 23.6237 39.9544 23.6779L41.2554 25.4465ZM35.7556 21.2464C36.5373 21.9857 37.4496 22.5456 38.2505 22.9522C38.2246 22.9485 38.2012 22.9424 38.1753 22.9393C37.4558 22.8672 36.8293 22.5401 36.416 22.3233C36.2631 22.2366 36.1034 22.1627 35.9385 22.1021C35.7882 22.051 35.6286 22.0329 35.4706 22.0491C35.3126 22.0652 35.16 22.1152 35.0231 22.1957C35.0231 22.189 35.0231 22.1816 35.0231 22.1742C35.0069 22.0088 35.0017 21.8425 35.0077 21.6764C35.2651 21.5487 35.5142 21.4051 35.7537 21.2464H35.7556ZM32.9915 22.4606C33.0131 22.6311 33.0054 22.8041 32.9687 22.9719C32.8991 23.2344 32.5208 23.5818 32.1007 23.7851C32.3126 23.3175 32.474 22.8955 32.5849 22.5808C32.7112 22.5463 32.8492 22.5037 32.9896 22.4606H32.9915ZM30.7455 26.0434C30.8636 26.058 30.9825 26.0652 31.1015 26.065C31.8555 26.065 32.5578 25.8087 32.6761 25.7631C33.2172 25.5518 33.7108 25.2347 34.128 24.8305C34.6779 24.7476 35.2033 24.5467 35.6681 24.2416C36.1751 24.4997 36.9771 24.8687 37.9381 24.9715C38.1581 25.0541 38.646 25.5204 38.8055 25.7502C39.1751 26.4981 39.7499 26.9822 40.284 27.4061C39.6957 28.5149 38.957 29.7778 38.2172 30.695C35.8085 31.9714 31.4847 35.7292 31.2974 35.8912C31.2458 35.9351 31.1993 35.9847 31.1588 36.039C30.6599 36.7373 30.3404 37.5475 30.2286 38.3984C29.4339 37.0641 28.1175 36.4801 28.0356 36.4444C27.9727 36.4174 27.9073 36.3968 27.8403 36.3828C27.597 36.3316 21.9948 35.1667 19.2726 35.2265C18.1588 34.7534 16.7839 33.6944 15.6381 32.694C15.672 32.6115 15.7052 32.5277 15.7422 32.4427C16.0194 31.7761 16.3336 31.0215 16.2892 30.1153C16.3157 29.8375 16.5141 29.1913 16.6656 29.0133C17.4547 28.4539 17.974 27.7406 18.2894 27.2675C18.8552 27.3088 19.4232 27.2246 19.9527 27.0211C20.4389 27.2109 20.9567 27.3066 21.4786 27.3032C21.6806 27.3036 21.8824 27.2894 22.0823 27.2607C22.232 27.2397 23.2528 27.0728 23.9729 26.5116C24.3114 26.576 24.6552 26.6086 24.9998 26.6089C25.1692 26.6089 25.3423 26.5985 25.5166 26.5812C25.5298 26.8391 25.6179 27.0875 25.7702 27.296C25.9226 27.5044 26.1325 27.6639 26.3741 27.7547C27.3351 28.0159 29.0816 28.0905 30.7436 26.0434H30.7455Z"
                        fill="#463B32" />
                    <path
                        d="M12.3558 5.81676C11.857 6.11838 11.5194 6.5397 11.3994 7.02693L10.2628 5.14728L9.13505 5.8292L12.3785 11.1934L13.5063 10.5115L12.3435 8.58847C11.9108 7.87276 12.1001 7.30416 12.6423 6.97632C13.1411 6.6747 13.6052 6.78903 13.9855 7.41798L15.2269 9.47113L16.3547 8.78921L15.0083 6.56256C14.2914 5.37694 13.274 5.26161 12.3558 5.81676Z"
                        fill="#9C6137" fill-opacity="0.69" />
                    <path
                        d="M17.5336 3.37817C16.854 3.62397 16.2323 4.05437 15.8861 4.55488L16.6402 5.25613C16.8597 4.89971 17.2716 4.58094 17.722 4.41803C18.3858 4.17794 18.8133 4.37179 19.0048 4.90122L18.025 5.25563C16.7291 5.72436 16.3883 6.43738 16.6598 7.18806C16.9256 7.92294 17.7183 8.26171 18.714 7.90158C19.3382 7.67579 19.7064 7.31029 19.7955 6.84021L19.987 7.36964L21.1407 6.95235L20.2633 4.52647C19.7974 3.23846 18.8295 2.90944 17.5336 3.37817ZM18.7221 6.96042C18.2874 7.11762 17.9524 7.00648 17.8409 6.69831C17.738 6.41384 17.8426 6.13476 18.4194 5.92611L19.2649 5.62029L19.4221 6.0549C19.4199 6.49353 19.1329 6.8118 18.7221 6.96042Z"
                        fill="#9C6137" fill-opacity="0.69" />
                    <path
                        d="M24.3534 1.73473C23.7458 1.82013 23.2506 2.10195 22.9547 2.53401L22.881 2.00957L21.6407 2.18389L22.2701 6.66245L23.5687 6.47994L23.2575 4.26563C23.1417 3.44151 23.5374 2.99541 24.1617 2.90767C24.7361 2.82694 25.1159 3.11312 25.2177 3.83735L25.55 6.2015L26.8486 6.01899L26.4882 3.45505C26.2964 2.08984 25.4106 1.58615 24.3534 1.73473Z"
                        fill="#9C6137" fill-opacity="0.69" />
                    <path
                        d="M31.7677 0L31.6093 2.18831C31.309 1.79573 30.8522 1.58568 30.2989 1.54562C29.0244 1.45338 27.9779 2.28788 27.8754 3.70483C27.7728 5.12178 28.6882 6.09829 29.9626 6.19054C30.5663 6.23423 31.0582 6.07599 31.4137 5.70559L31.3761 6.22542L32.6253 6.31585L33.0756 0.0946733L31.7677 0ZM30.2667 5.13373C29.6127 5.08639 29.1437 4.58046 29.2001 3.80072C29.2565 3.02097 29.7936 2.58786 30.4476 2.6352C31.0931 2.68193 31.5622 3.18787 31.5058 3.96761C31.4493 4.74735 30.9123 5.18046 30.2667 5.13373Z"
                        fill="#9C6137" fill-opacity="0.69" />
                    <path
                        d="M27.0009 55.1996C26.3264 55.106 25.7055 55.2999 25.2839 55.7081C25.0356 55.173 24.5363 54.8576 23.9118 54.7709C23.3372 54.6912 22.8099 54.8217 22.4237 55.1585L22.4953 54.6423L21.2547 54.4701L20.6331 58.9497L21.932 59.13L22.244 56.8818C22.3549 56.0825 22.8149 55.7644 23.3894 55.8441C23.9306 55.9192 24.1925 56.295 24.092 57.0195L23.7639 59.3842L25.0628 59.5644L25.3747 57.3163C25.4857 56.5169 25.9457 56.1988 26.5285 56.2797C27.0531 56.3525 27.3316 56.7306 27.2311 57.455L26.9029 59.8198L28.2019 60L28.5577 57.4354C28.7472 56.0699 28.0667 55.3474 27.0009 55.1996Z"
                        fill="#9C6137" fill-opacity="0.69" />
                    <path
                        d="M31.4223 54.8841C30.7084 54.9986 30.0169 55.3053 29.5831 55.7324L30.193 56.5626C30.4754 56.2534 30.9399 56.0172 31.413 55.9413C32.1102 55.8295 32.4941 56.1 32.5833 56.6561L31.5541 56.8211C30.1928 57.0394 29.7246 57.6764 29.851 58.4649C29.9748 59.2368 30.6905 59.718 31.7363 59.5503C32.392 59.4452 32.8222 59.1548 32.9977 58.7095L33.0869 59.2656L34.2987 59.0713L33.8901 56.5232C33.6732 55.1702 32.7835 54.6658 31.4223 54.8841ZM31.9203 58.6269C31.4637 58.7001 31.1552 58.5282 31.1033 58.2045C31.0554 57.9057 31.2104 57.651 31.8163 57.5538L32.7044 57.4114L32.7776 57.8679C32.6934 58.2986 32.3519 58.5577 31.9203 58.6269Z"
                        fill="#9C6137" fill-opacity="0.69" />
                    <path
                        d="M36.7808 51.5512L37.6365 53.5697C37.1906 53.3573 36.6887 53.3785 36.1782 53.5948C35.0027 54.0932 34.4519 55.312 35.006 56.619C35.56 57.926 36.819 58.3777 37.9945 57.8794C38.5513 57.6433 38.9167 57.2786 39.0643 56.7872L39.2675 57.2667L40.4199 56.7782L37.9873 51.0398L36.7808 51.5512ZM37.7837 56.8009C37.1804 57.0566 36.5328 56.8202 36.2279 56.101C35.923 55.3818 36.2034 54.752 36.8067 54.4963C37.4022 54.2438 38.0498 54.4802 38.3547 55.1994C38.6596 55.9187 38.3792 56.5485 37.7837 56.8009Z"
                        fill="#9C6137" fill-opacity="0.69" />
                    <path
                        d="M44.3861 51.3436C43.5228 50.1732 42.1686 50.0648 41.0997 50.8532C39.9902 51.6715 39.7368 53.07 40.5402 54.1592C41.3385 55.2416 42.7409 55.4294 43.9992 54.5013C44.6555 54.0173 45.0132 53.4402 45.067 52.8051L44.0564 52.6103C43.9808 53.0317 43.7882 53.3513 43.4026 53.6357C42.8478 54.0449 42.2576 54.0519 41.8218 53.6735L44.5753 51.6427C44.5172 51.5498 44.4459 51.4248 44.3861 51.3436ZM41.6952 51.6465C42.1688 51.2972 42.7333 51.3404 43.1471 51.7456L41.3543 53.0678C41.0844 52.5461 41.2149 52.0007 41.6952 51.6465Z"
                        fill="#9C6137" fill-opacity="0.69" />
                    <path
                        d="M8.42135 11.565C8.8371 11.565 9.17414 11.228 9.17414 10.8122C9.17414 10.3965 8.8371 10.0594 8.42135 10.0594C8.0056 10.0594 7.66857 10.3965 7.66857 10.8122C7.66857 11.228 8.0056 11.565 8.42135 11.565Z"
                        fill="#463B32" />
                    <path
                        d="M35.7759 5.8557C36.1917 5.8557 36.5287 5.51867 36.5287 5.10292C36.5287 4.68717 36.1917 4.35014 35.7759 4.35014C35.3602 4.35014 35.0231 4.68717 35.0231 5.10292C35.0231 5.51867 35.3602 5.8557 35.7759 5.8557Z"
                        fill="#463B32" />
                </svg>