<svg width="90px" viewBox="0 0 57 60" fill="none"
                    xmlns="http://www.w3.org/2000/svg">
                    <path
                        d="M20.4166 34.5451L19.6782 33.4309L18.0514 35.5974L18.0434 35.6079C16.6716 37.4885 15.6224 39.0162 14.9644 40.3569C13.9554 42.412 14.0322 44.5507 15.1687 46.0784C15.7617 46.8769 16.3578 47.4588 17.4918 47.8958C17.7129 47.9767 17.9408 48.0376 18.1727 48.0778C18.2854 48.0989 18.3983 48.1172 18.5113 48.1329C18.5596 48.1397 18.6172 48.1478 18.6655 48.1527C19.0405 48.1991 19.4187 48.2153 19.7964 48.201C20.1817 48.1695 20.5651 48.1187 20.9453 48.0487C21.5505 47.9321 22.1272 47.6988 22.6432 47.3616C23.1554 47.0122 23.604 46.5778 23.9697 46.0772C25.1248 44.5235 25.1985 42.3811 24.1672 40.3458C23.5872 39.2025 22.5305 37.6568 21.5098 36.1619C21.1186 35.5918 20.7521 35.0551 20.4166 34.5451ZM22.4544 44.9506C21.7531 45.8933 20.9775 46.2647 19.5921 46.3192L19.3903 46.3273L19.0338 46.2926C18.7399 46.271 18.4493 46.2172 18.1672 46.1323C17.4423 45.8531 17.1099 45.5287 16.6816 44.9506C15.9753 44.001 15.966 42.5946 16.6574 41.1864C17.2548 39.9701 18.2514 38.5247 19.563 36.724L19.5865 36.693L19.9505 37.2248C20.9372 38.6701 21.9586 40.1644 22.4829 41.1975C23.1824 42.5798 23.1712 43.9825 22.4519 44.9506H22.4544Z"
                        fill="#463B32" />
                    <path
                        d="M38.7107 19.7354C38.714 19.7563 38.7223 19.7761 38.7349 19.7932C38.7475 19.8102 38.7641 19.8239 38.7832 19.8332C39.3034 20.1012 39.7892 20.4315 40.2298 20.8168C40.2539 20.8375 40.2846 20.8489 40.3164 20.8489C40.3339 20.849 40.3512 20.8456 40.3674 20.8389C40.3836 20.8322 40.3982 20.8224 40.4105 20.8099L45.5997 15.5886C45.7277 15.456 45.814 15.2887 45.8476 15.1075C45.8812 14.9262 45.8607 14.7391 45.7887 14.5694C45.7167 14.3997 45.5963 14.2549 45.4426 14.1532C45.2889 14.0514 45.1087 13.9972 44.9243 13.9972C44.7986 13.9966 44.6741 14.0215 44.5584 14.0704C44.4426 14.1194 44.338 14.1913 44.2508 14.2819C44.2508 14.2819 41.5996 16.8582 38.7497 19.6196C38.7344 19.6343 38.7228 19.6525 38.716 19.6727C38.7092 19.6928 38.7074 19.7143 38.7107 19.7354Z"
                        fill="#463B32" />
                    <path
                        d="M27.2876 30.7178C27.2072 30.5324 27.1148 30.3525 27.0109 30.1792L26.9899 30.1477C26.9792 30.1305 26.9649 30.1161 26.9478 30.1053C26.9307 30.0946 26.9115 30.0879 26.8914 30.0858C26.8715 30.0839 26.8513 30.0864 26.8325 30.0933C26.8136 30.1001 26.7966 30.1111 26.7825 30.1254C26.0682 30.8595 24.4767 32.5655 22.0545 35.1926C22.0369 35.2118 22.0253 35.2357 22.0211 35.2615C22.0169 35.2872 22.0204 35.3136 22.031 35.3374C22.0564 35.3925 22.1882 35.585 22.5064 36.0369C22.7039 36.3179 22.9075 36.6082 23.0066 36.7611C23.0173 36.7784 23.0318 36.793 23.0491 36.8038C23.0664 36.8145 23.086 36.8211 23.1062 36.823H23.118C23.1363 36.8231 23.1544 36.8193 23.1711 36.812C23.1878 36.8046 23.2029 36.7938 23.2152 36.7803C25.0877 34.7555 26.5677 33.1591 27.6101 32.0362C27.6255 32.02 27.6365 32.0001 27.6421 31.9785C27.6476 31.9568 27.6474 31.9341 27.6417 31.9124L27.6311 31.871C27.6157 31.8091 27.5996 31.7521 27.5816 31.689C27.5228 31.4767 27.4615 31.2557 27.3897 31.044C27.3829 31.0229 27.3594 30.9623 27.3322 30.8917L27.2969 30.7982C27.3021 30.7711 27.2988 30.743 27.2876 30.7178Z"
                        fill="#463B32" />
                    <path
                        d="M33.9246 45.9707C33.6943 47.7144 33.386 48.7098 33.3811 48.7253C33.3065 48.9815 33.3351 49.2568 33.4607 49.4923C33.5863 49.7277 33.799 49.9048 34.0534 49.9856C34.3077 50.0664 34.5836 50.0445 34.8221 49.9247C35.0606 49.8049 35.2427 49.5966 35.3297 49.3443C35.3632 49.2391 36.1518 46.7253 36.2149 42.5823C36.2725 38.8212 35.7135 32.9301 32.7485 26.1594L34.4718 26.5927C34.643 26.6359 34.8225 26.634 34.9928 26.5873C35.1631 26.5405 35.3184 26.4505 35.4436 26.3259L36.0075 25.7645L36.4074 26.4992C36.4739 26.6199 36.564 26.726 36.6724 26.8111C36.7807 26.8962 36.9052 26.9585 37.0382 26.9944L43.115 28.6379C43.2019 28.6618 43.2916 28.6738 43.3818 28.6738C43.529 28.6738 43.6745 28.642 43.8083 28.5805C43.9422 28.519 44.0611 28.4294 44.1571 28.3177C44.2531 28.2061 44.3238 28.075 44.3645 27.9335C44.4051 27.7919 44.4147 27.6433 44.3926 27.4977C44.2069 26.2597 43.63 24.948 42.7739 23.8041C42.6935 23.6965 42.5927 23.6059 42.4772 23.5373C42.3618 23.4687 42.2339 23.4236 42.101 23.4044C41.9681 23.3853 41.8327 23.3925 41.7026 23.4257C41.5725 23.4589 41.4502 23.5175 41.3428 23.598C41.3149 23.619 41.2889 23.6407 41.2641 23.6636C41.2852 23.6388 41.3075 23.6153 41.326 23.588C41.4041 23.4788 41.4599 23.3552 41.4903 23.2243C41.5206 23.0934 41.5249 22.9579 41.5028 22.8254C41.4807 22.6929 41.4327 22.566 41.3616 22.4521C41.2905 22.3381 41.1977 22.2393 41.0883 22.1612C40.9693 22.0781 40.8348 22.0195 40.6928 21.9891C40.5508 21.9586 40.4042 21.9569 40.2615 21.9839C40.1188 22.011 39.983 22.0663 39.862 22.1466C39.741 22.2269 39.6373 22.3306 39.5569 22.4516C39.4093 22.679 39.3579 22.9557 39.4141 23.221C39.4702 23.4863 39.6294 23.7185 39.8565 23.8666C40.0316 23.9842 40.2374 24.0477 40.4483 24.0492C40.6606 24.0492 40.868 23.9844 41.0425 23.8635C41.0654 23.848 41.0871 23.8307 41.1088 23.8134C41.1304 23.796 41.1589 23.77 41.183 23.7477C41.0298 23.9241 40.9416 24.1476 40.933 24.381C40.9245 24.6145 40.9961 24.8439 41.136 25.031C41.4054 25.3904 41.641 25.774 41.8398 26.1767L37.9933 25.1356L37.149 23.588C37.073 23.4486 36.9656 23.3288 36.8352 23.2382C36.7049 23.1475 36.5553 23.0884 36.3981 23.0655C36.241 23.0427 36.0807 23.0568 35.93 23.1067C35.7792 23.1565 35.6422 23.2408 35.5297 23.3528L34.4099 24.467L29.5142 23.229C31.6739 21.9068 35.2833 21.7471 38.0998 22.8508C38.3498 22.9379 38.6238 22.9247 38.8642 22.8139C39.1046 22.7031 39.2928 22.5034 39.389 22.2568C39.4852 22.0102 39.482 21.7359 39.3801 21.4915C39.2782 21.2472 39.0855 21.0519 38.8426 20.9467C37.6302 20.48 36.3547 20.1979 35.0586 20.1098L35.0951 19.9241L36.213 20.0882C36.3827 20.1131 36.5559 20.0949 36.7167 20.0354C36.8776 19.9759 37.0209 19.877 37.1335 19.7477L40.4019 15.9891C40.5169 15.857 40.596 15.6976 40.6316 15.5261C40.6673 15.3546 40.6582 15.1769 40.6054 15.0099C40.5526 14.8429 40.4577 14.6923 40.33 14.5725C40.2022 14.4527 40.0458 14.3678 39.8757 14.3259C36.7151 13.544 33.8652 13.9458 31.633 15.4877C29.9196 16.6719 28.8085 18.3438 28.1728 19.9192C26.6791 17.9012 24.325 16.4819 21.5785 16.0077C18.0075 15.3887 14.4921 16.4552 12.1783 18.8551C12.0519 18.9863 11.9628 19.1488 11.9203 19.326C11.8778 19.5031 11.8834 19.6884 11.9365 19.8626C11.9895 20.0369 12.0882 20.1938 12.2222 20.3171C12.3563 20.4405 12.5208 20.5258 12.6989 20.5642L19.1031 21.9471C19.2561 21.9819 19.415 21.9812 19.5676 21.9449C19.7202 21.9086 19.8624 21.8378 19.9833 21.7378L20.4135 21.372L20.4389 21.588C20.464 21.8015 20.5557 22.0017 20.701 22.1601C20.8464 22.3184 21.038 22.4269 21.2486 22.4701L22.6574 22.7598C20.8004 23.4308 19.0301 24.5227 17.6936 25.9167C15.589 28.1056 14.7732 30.8292 15.3909 33.5869C15.4283 33.7528 15.5065 33.9069 15.6184 34.035C15.7302 34.1632 15.8723 34.2614 16.0317 34.3208C16.1911 34.3803 16.3629 34.399 16.5313 34.3754C16.6998 34.3517 16.8597 34.2864 16.9966 34.1854L22.9892 29.7546C23.2863 29.5355 23.4392 29.4011 23.3978 28.8125C23.7314 29.1065 24.0972 28.8527 24.3659 28.6268L28.5875 25.091C28.6441 25.1169 28.703 25.1377 28.7633 25.1529L31.0041 25.7193C30.8649 25.8657 30.7723 26.0501 30.7378 26.2492C30.7033 26.4483 30.7285 26.6531 30.8104 26.8378C31.2969 27.9378 31.7154 29.0118 32.0769 30.0567L29.9939 30.399C29.88 29.6908 29.7426 28.9639 29.5816 28.2182C29.5188 27.9588 29.3569 27.7343 29.1308 27.5926C28.9046 27.4509 28.632 27.4032 28.3711 27.4598C28.1103 27.5163 27.8819 27.6726 27.7347 27.8953C27.5875 28.118 27.5333 28.3894 27.5835 28.6515C28.9212 34.81 28.3882 39.5875 27.7073 42.5117C26.9707 45.6754 25.9035 47.4124 25.8899 47.4347C25.7454 47.6645 25.6982 47.9423 25.7585 48.207C25.8189 48.4717 25.9819 48.7015 26.2118 48.846C26.4416 48.9905 26.7194 49.0377 26.9841 48.9773C27.2488 48.917 27.4786 48.7539 27.6231 48.5241C27.6906 48.4164 28.2842 47.452 28.9113 45.7064L33.9246 45.9707ZM32.7968 17.1795C34.1586 16.2392 35.7927 15.8536 37.6702 16.0244L35.9586 17.9928L34.4346 17.7688C34.1755 17.7305 33.9115 17.7931 33.6971 17.9438C33.4828 18.0944 33.3344 18.3216 33.2827 18.5784L32.9732 20.1259C31.977 20.2028 30.9948 20.4075 30.0508 20.735C30.5683 19.432 31.4851 18.0845 32.7968 17.1795ZM22.2198 19.2377C22.1982 19.0537 22.1271 18.8791 22.014 18.7324C21.9009 18.5857 21.7501 18.4724 21.5778 18.4047C21.4054 18.337 21.2178 18.3173 21.0352 18.3478C20.8525 18.3783 20.6815 18.4578 20.5404 18.5778L19.04 19.8523L15.2411 19.0315C16.9452 18.0287 19.0678 17.6561 21.2294 18.03C23.6243 18.4447 25.6373 19.723 26.7899 21.5218L22.3801 20.6156L22.2198 19.2377ZM23.4844 26.6998L22.2464 26.303C22.0715 26.247 21.8848 26.2391 21.7058 26.2801C21.5268 26.3212 21.3621 26.4097 21.2291 26.5363C21.0962 26.663 20.9997 26.8231 20.95 26.9999C20.9003 27.1767 20.8991 27.3636 20.9465 27.541L21.2108 28.5246L17.2393 31.4581C17.3396 29.6438 18.2811 28.2504 19.1662 27.3299C21.0294 25.3894 24.0954 24.0882 26.6445 24.0523L23.4844 26.6998ZM29.5346 43.6934C29.7389 42.9159 29.9277 42.0493 30.0812 41.0973L34.1505 40.8453C34.1716 41.4216 34.1778 41.9595 34.1716 42.4603C34.1654 42.979 34.1462 43.4699 34.1183 43.9329L29.5346 43.6934ZM33.6733 36.2653C33.8243 37.1579 33.9339 38.0053 34.0119 38.8032L30.3399 39.0304C30.4092 38.2573 30.4538 37.4408 30.4637 36.581L33.6733 36.2653ZM32.7039 32.0276C32.9234 32.789 33.1139 33.5295 33.2752 34.2492L30.4278 34.5302C30.3956 33.8526 30.3414 33.1511 30.265 32.4256L32.7039 32.0276Z"
                        fill="#9C6137" fill-opacity="0.69" />
                    <path
                        d="M16.7026 56.1639C16.9289 56.1642 17.1485 56.0874 17.3253 55.9462C17.5021 55.805 17.6256 55.6078 17.6754 55.3871C17.7252 55.1664 17.6983 54.9353 17.5993 54.7318C17.5002 54.5284 17.3348 54.3648 17.1303 54.2679C14.7879 53.1553 12.6225 51.7029 10.7044 49.9577C10.7236 49.9577 10.7428 49.9608 10.762 49.9608H10.8078C11.0036 49.9511 11.1915 49.8803 11.3451 49.7584C11.3847 49.7262 14.5101 46.339 14.6432 46.1948C14.6615 46.1746 14.6732 46.1494 14.6769 46.1224C14.6805 46.0955 14.6759 46.068 14.6636 46.0437C14.5181 45.7627 14.3628 45.465 14.1932 45.1703C14.0817 44.976 13.9548 44.7562 13.8112 44.5513C13.7998 44.5351 13.7848 44.5216 13.7674 44.5118C13.7501 44.5021 13.7308 44.4963 13.7109 44.495C13.6911 44.4939 13.6712 44.4972 13.6527 44.5046C13.6342 44.512 13.6175 44.5233 13.6039 44.5377C11.5741 46.7593 10.2674 48.1898 10.1678 48.2963C10.0473 48.3957 9.95344 48.5235 9.89475 48.6682C9.83606 48.8129 9.81437 48.97 9.83163 49.1252C4.91301 44.2301 1.99192 37.4934 1.99192 30.3767C1.98201 24.9345 3.66527 19.6241 6.80841 15.1813C6.8838 15.0744 6.93741 14.9537 6.96616 14.8261C6.99491 14.6985 6.99824 14.5665 6.97596 14.4376C6.95369 14.3087 6.90625 14.1854 6.83634 14.0749C6.76644 13.9643 6.67544 13.8686 6.56854 13.7932C6.46165 13.7178 6.34095 13.6642 6.21334 13.6354C6.08573 13.6067 5.9537 13.6034 5.8248 13.6256C5.69591 13.6479 5.57266 13.6954 5.46209 13.7653C5.35153 13.8352 5.25582 13.9262 5.18042 14.0331C1.92297 18.6551 0.121033 24.1451 0.00588508 29.7985C-0.109263 35.4518 1.46763 41.0107 4.53418 45.7615C7.41347 50.2221 11.4798 53.7913 16.2761 56.0679C16.4094 56.1311 16.5551 56.1639 16.7026 56.1639Z"
                        fill="#463B32" />
                    <path
                        d="M7.0622 11.6462C6.92447 11.7971 6.8309 11.983 6.79169 12.1835C6.74318 12.401 6.76895 12.6284 6.8649 12.8296C6.96084 13.0307 7.12142 13.1938 7.32099 13.293C7.52055 13.3921 7.74759 13.4215 7.96582 13.3765C8.18406 13.3314 8.3809 13.2146 8.52491 13.0445C8.64812 12.9045 8.73449 12.736 8.77623 12.5543C8.83266 12.3373 8.81427 12.1077 8.72404 11.9025C8.63381 11.6974 8.47701 11.5286 8.279 11.4236C8.08098 11.3186 7.85333 11.2834 7.63286 11.3238C7.41238 11.3642 7.21198 11.4778 7.06405 11.6462H7.0622Z"
                        fill="#463B32" />
                    <path
                        d="M51.6275 13.9972C51.5553 13.8827 51.4605 13.7842 51.349 13.7077C51.2374 13.6311 51.1114 13.578 50.9787 13.5518C50.846 13.5255 50.7093 13.5265 50.577 13.5549C50.4446 13.5832 50.3195 13.6381 50.2091 13.7164C50.0987 13.7947 50.0055 13.8946 49.935 14.0102C49.8646 14.1257 49.8184 14.2543 49.7993 14.3883C49.7802 14.5222 49.7886 14.6587 49.824 14.7893C49.8594 14.9199 49.921 15.0419 50.0051 15.1479C52.1608 18.1983 53.6447 21.6713 54.3588 25.3376C55.0729 29.0039 55.0009 32.78 54.1477 36.4165C53.2945 40.0529 51.6793 43.4669 49.4091 46.433C47.1388 49.399 44.265 51.8496 40.9775 53.6229C40.7598 53.7559 40.6015 53.9674 40.5352 54.2138C40.4688 54.4601 40.4996 54.7225 40.621 54.9469C40.7425 55.1713 40.9454 55.3405 41.188 55.4196C41.4305 55.4987 41.6942 55.4817 41.9246 55.3722C45.4595 53.4646 48.5494 50.8288 50.9903 47.6388C53.4312 44.4488 55.1676 40.7772 56.0846 36.8666C57.0017 32.956 57.0786 28.8953 56.3103 24.9527C55.5419 21.0101 53.9459 17.2754 51.6275 13.9953V13.9972Z"
                        fill="#463B32" />
                    <path
                        d="M47.825 10.3828C47.6201 10.4738 47.4514 10.6304 47.3453 10.8278C47.2196 11.0166 47.1622 11.2425 47.1825 11.4683C47.2027 11.6941 47.2995 11.9062 47.4567 12.0696C47.5528 12.1738 47.6695 12.2571 47.7993 12.3142C47.9292 12.3713 48.0694 12.401 48.2112 12.4014C48.3932 12.4022 48.572 12.3535 48.7283 12.2605C48.8847 12.1675 49.0128 12.0336 49.0989 11.8733C49.2229 11.6868 49.2805 11.464 49.2624 11.2408C49.2443 11.0175 49.1516 10.8069 48.9992 10.6428C48.856 10.481 48.6653 10.3687 48.4543 10.322C48.2434 10.2753 48.0231 10.2966 47.825 10.3828Z"
                        fill="#463B32" />
                    <path
                        d="M10.8983 5.97992C10.3165 6.32429 9.95777 6.78756 9.86741 7.3539L9.57087 6.85288L8.3668 7.56553L11.8679 13.4808L13.1285 12.7347L11.928 10.7063C12.4617 10.8706 13.0066 10.7772 13.548 10.4568C14.7682 9.73457 15.1972 8.30222 14.3889 6.93654C13.5805 5.57085 12.1185 5.2577 10.8983 5.97992ZM12.7176 9.55156C12.0873 9.92462 11.3427 9.75428 10.8979 9.00275C10.4531 8.25121 10.662 7.51649 11.2923 7.14342C11.9226 6.77036 12.6672 6.9407 13.1121 7.69223C13.5569 8.44377 13.3479 9.17849 12.7176 9.55156Z"
                        fill="#463B32" />
                    <path
                        d="M16.6369 3.32198C15.8778 3.58848 15.1811 4.0611 14.7905 4.61466L15.6225 5.40326C15.8707 5.00877 16.3326 4.65823 16.8358 4.4816C17.5772 4.2213 18.0511 4.44159 18.2588 5.033L17.1642 5.41725C15.7166 5.92545 15.3297 6.71565 15.6241 7.5542C15.9123 8.37511 16.7913 8.76058 17.9034 8.37013C18.6008 8.12533 19.0145 7.72229 19.1186 7.19991L19.3263 7.79131L20.615 7.33888L19.6637 4.62902C19.1586 3.19024 18.0845 2.81378 16.6369 3.32198ZM17.9223 7.32245C17.4368 7.49289 17.065 7.36565 16.9441 7.0214C16.8326 6.70363 16.9519 6.39403 17.5963 6.16782L18.5408 5.83624L18.7112 6.32172C18.7042 6.81002 18.3813 7.16131 17.9223 7.32245Z"
                        fill="#463B32" />
                    <path d="M21.7972 7.11994L23.2312 6.82088L21.8088 0L20.3747 0.299064L21.7972 7.11994Z"
                        fill="#463B32" />
                    <path
                        d="M30.6833 1.15708C29.9228 1.16942 29.2706 1.48993 28.8753 2.01289C28.5095 1.46472 27.9042 1.20219 27.2 1.21362C26.5521 1.22414 25.9925 1.45862 25.6239 1.89662L25.6144 1.31449L24.2155 1.3372L24.2975 6.38854L25.7622 6.36476L25.721 3.82971C25.7064 2.92835 26.1596 2.49837 26.8074 2.48786C27.4177 2.47795 27.7712 2.84788 27.7845 3.66473L27.8278 6.33123L29.2925 6.30745L29.2513 3.7724C29.2367 2.87104 29.6899 2.44107 30.3471 2.4304C30.9386 2.4208 31.3109 2.79042 31.3242 3.60727L31.3675 6.27377L32.8322 6.24999L32.7852 3.35815C32.7602 1.81834 31.8851 1.13757 30.6833 1.15708Z"
                        fill="#463B32" />
                    <path
                        d="M38.2513 7.85064C39.7809 8.33938 41.2187 7.66513 41.6817 6.21607C42.1447 4.76701 41.3643 3.38395 39.8347 2.89522C38.3051 2.40648 36.8584 3.07787 36.3953 4.52693C35.9323 5.97599 36.7217 7.36191 38.2513 7.85064ZM38.6171 6.70571C37.9195 6.48277 37.5428 5.81038 37.8086 4.97851C38.0744 4.14664 38.7712 3.81722 39.4689 4.04015C40.1666 4.26308 40.5342 4.93262 40.2684 5.76449C40.0026 6.59635 39.3148 6.92864 38.6171 6.70571Z"
                        fill="#463B32" />
                    <path
                        d="M44.8013 4.20272C45.2916 4.43993 45.7766 4.27823 45.9893 3.83868C46.1856 3.43295 46.0032 2.96914 45.5129 2.73192C45.0227 2.49471 44.5376 2.65641 44.3372 3.0706C44.1368 3.48479 44.311 3.9655 44.8013 4.20272ZM41.6349 9.06531L42.9535 9.70334L45.1539 5.1557L43.8352 4.51767L41.6349 9.06531Z"
                        fill="#463B32" />
                    <path d="M44.0661 10.3032L45.3232 11.0552L48.9004 5.07595L47.6432 4.32388L44.0661 10.3032Z"
                        fill="#463B32" />
                    <path
                        d="M21.9462 53.8846C22.0889 53.4078 22.3811 53.2502 22.7949 53.374C23.0108 53.4387 23.1899 53.5609 23.3105 53.7146L23.9836 52.8084C23.7765 52.5504 23.3869 52.3456 22.9911 52.2271C21.7856 51.8664 20.9072 52.3779 20.5815 53.4664L20.5169 53.6823L19.7702 53.4589L19.4471 54.5384L20.1938 54.7618L19.1008 58.4143L20.5042 58.8343L21.5972 55.1818L22.8027 55.5426L23.1257 54.463L21.8843 54.0915L21.9462 53.8846Z"
                        fill="#463B32" />
                    <path
                        d="M25.0321 55.3119L25.1274 54.652L23.7426 54.452L23.0203 59.452L24.4701 59.6615L24.8112 57.3008C24.9494 56.3436 25.5423 55.9833 26.3416 56.0988C26.4531 56.1149 26.5447 56.1376 26.6642 56.1643L26.8575 54.826C26.0861 54.7146 25.4551 54.8796 25.0321 55.3119Z"
                        fill="#463B32" />
                    <path
                        d="M32.6163 57.3167C32.5514 55.6922 31.3659 54.7426 29.8823 54.802C28.3422 54.8636 27.2308 55.9991 27.2913 57.5109C27.3514 59.0134 28.5316 60.0666 30.2782 59.9967C31.189 59.9603 31.882 59.6504 32.3301 59.0964L31.5169 58.2824C31.1826 58.625 30.804 58.8 30.2688 58.8214C29.4988 58.8522 28.9481 58.4886 28.7821 57.8651L32.6039 57.7122C32.6085 57.5898 32.6208 57.4294 32.6163 57.3167ZM29.936 55.9097C30.5933 55.8834 31.0887 56.2774 31.2176 56.9118L28.7291 57.0113C28.8065 56.3593 29.2693 55.9363 29.936 55.9097Z"
                        fill="#463B32" />
                    <path
                        d="M38.7223 55.6858C38.2837 54.1263 36.9152 53.48 35.4908 53.8806C34.0124 54.2964 33.1977 55.654 33.6059 57.1054C34.0116 58.5477 35.399 59.2957 37.0757 58.8241C37.9502 58.5781 38.5502 58.1175 38.8564 57.4769L37.88 56.876C37.6352 57.2854 37.3087 57.5426 36.7949 57.6871C36.0557 57.895 35.4379 57.6699 35.1328 57.104L38.8018 56.072C38.7778 55.9523 38.7528 55.794 38.7223 55.6858ZM35.799 54.9418C36.4301 54.7643 37.0014 55.0317 37.2729 55.6168L34.884 56.2887C34.8083 55.6388 35.159 55.1218 35.799 54.9418Z"
                        fill="#463B32" />
                </svg>