<svg width="54" height="45" fill="none" xmlns="http://www.w3.org/2000/svg">
  <ellipse rx="2.619" ry="2.539" transform="matrix(.51023 .86004 -.82385 .56681 3.429 3.692)" fill="#ADA094" fill-opacity=".3"/>
  <ellipse rx="2.619" ry="2.539" transform="matrix(.51023 .86004 -.82385 .56681 15.126 3.861)" fill="#ADA094" fill-opacity=".3"/>
  <ellipse rx="2.619" ry="2.539" transform="matrix(.51023 .86004 -.82385 .56681 26.824 3.861)" fill="#ADA094" fill-opacity=".3"/>
  <ellipse rx="2.619" ry="2.539" transform="matrix(.51023 .86004 -.82385 .56681 38.52 3.861)" fill="#ADA094" fill-opacity=".3"/>
  <ellipse rx="2.619" ry="2.539" transform="matrix(.51023 .86004 -.82385 .56681 50.217 3.861)" fill="#ADA094" fill-opacity=".3"/>
  <ellipse rx="2.619" ry="2.539" transform="matrix(.51023 .86004 -.82385 .56681 3.429 13.054)" fill="#ADA094" fill-opacity=".3"/>
  <ellipse rx="2.619" ry="2.539" transform="matrix(.51023 .86004 -.82385 .56681 15.126 13.223)" fill="#ADA094" fill-opacity=".3"/>
  <ellipse rx="2.619" ry="2.539" transform="matrix(.51023 .86004 -.82385 .56681 26.824 13.223)" fill="#ADA094" fill-opacity=".3"/>
  <ellipse rx="2.619" ry="2.539" transform="matrix(.51023 .86004 -.82385 .56681 38.52 13.223)" fill="#ADA094" fill-opacity=".3"/>
  <ellipse rx="2.619" ry="2.539" transform="matrix(.51023 .86004 -.82385 .56681 50.217 13.223)" fill="#ADA094" fill-opacity=".3"/>
  <ellipse rx="2.619" ry="2.539" transform="matrix(.51023 .86004 -.82385 .56681 3.429 22.415)" fill="#ADA094" fill-opacity=".3"/>
  <ellipse rx="2.619" ry="2.539" transform="matrix(.51023 .86004 -.82385 .56681 15.126 22.584)" fill="#ADA094" fill-opacity=".3"/>
  <ellipse rx="2.619" ry="2.539" transform="matrix(.51023 .86004 -.82385 .56681 26.824 22.584)" fill="#ADA094" fill-opacity=".3"/>
  <ellipse rx="2.619" ry="2.539" transform="matrix(.51023 .86004 -.82385 .56681 38.52 22.584)" fill="#ADA094" fill-opacity=".3"/>
  <ellipse rx="2.619" ry="2.539" transform="matrix(.51023 .86004 -.82385 .56681 50.217 22.584)" fill="#ADA094" fill-opacity=".3"/>
  <ellipse rx="2.619" ry="2.539" transform="matrix(.51023 .86004 -.82385 .56681 3.429 31.777)" fill="#ADA094" fill-opacity=".3"/>
  <ellipse rx="2.619" ry="2.539" transform="matrix(.51023 .86004 -.82385 .56681 15.126 31.947)" fill="#ADA094" fill-opacity=".3"/>
  <ellipse rx="2.619" ry="2.539" transform="matrix(.51023 .86004 -.82385 .56681 3.429 41.139)" fill="#ADA094" fill-opacity=".3"/>
  <ellipse rx="2.619" ry="2.539" transform="matrix(.51023 .86004 -.82385 .56681 15.126 41.308)" fill="#ADA094" fill-opacity=".3"/>
  <ellipse rx="2.619" ry="2.539" transform="matrix(.51023 .86004 -.82385 .56681 26.824 41.308)" fill="#ADA094" fill-opacity=".3"/>
  <ellipse rx="2.619" ry="2.539" transform="matrix(.51023 .86004 -.82385 .56681 38.52 41.308)" fill="#ADA094" fill-opacity=".3"/>
  <ellipse rx="2.619" ry="2.539" transform="matrix(.51023 .86004 -.82385 .56681 50.217 41.308)" fill="#ADA094" fill-opacity=".3"/>
  <ellipse rx="2.619" ry="2.539" transform="matrix(.51023 .86004 -.82385 .56681 26.824 31.947)" fill="#ADA094" fill-opacity=".3"/>
  <ellipse rx="2.619" ry="2.539" transform="matrix(.51023 .86004 -.82385 .56681 38.52 31.947)" fill="#ADA094" fill-opacity=".3"/>
  <ellipse rx="2.619" ry="2.539" transform="matrix(.51023 .86004 -.82385 .56681 50.217 31.947)" fill="#ADA094" fill-opacity=".3"/>
</svg>