<svg width="61" height="49" viewBox="0 0 61 49" fill="none" xmlns="http://www.w3.org/2000/svg">
<circle cx="3.89845" cy="3.89846" r="2.82275" transform="rotate(57.4261 3.89845 3.89846)" fill="#82AEB4" fill-opacity="0.4"/>
<circle cx="17.1995" cy="4.07686" r="2.82275" transform="rotate(57.4261 17.1995 4.07686)" fill="#82AEB4" fill-opacity="0.4"/>
<circle cx="30.4995" cy="4.07686" r="2.82275" transform="rotate(57.4261 30.4995 4.07686)" fill="#82AEB4" fill-opacity="0.4"/>
<circle cx="43.8015" cy="4.07686" r="2.82275" transform="rotate(57.4261 43.8015 4.07686)" fill="#82AEB4" fill-opacity="0.4"/>
<circle cx="57.1015" cy="4.07686" r="2.82275" transform="rotate(57.4261 57.1015 4.07686)" fill="#82AEB4" fill-opacity="0.4"/>
<circle cx="3.89845" cy="13.9293" r="2.82275" transform="rotate(57.4261 3.89845 13.9293)" fill="#82AEB4" fill-opacity="0.4"/>
<circle cx="17.1995" cy="14.1078" r="2.82275" transform="rotate(57.4261 17.1995 14.1078)" fill="#82AEB4" fill-opacity="0.4"/>
<circle cx="30.4995" cy="14.1078" r="2.82275" transform="rotate(57.4261 30.4995 14.1078)" fill="#82AEB4" fill-opacity="0.4"/>
<circle cx="43.8015" cy="14.1078" r="2.82275" transform="rotate(57.4261 43.8015 14.1078)" fill="#82AEB4" fill-opacity="0.4"/>
<circle cx="57.1015" cy="14.1078" r="2.82275" transform="rotate(57.4261 57.1015 14.1078)" fill="#82AEB4" fill-opacity="0.4"/>
<circle cx="3.89845" cy="24.2746" r="2.82275" transform="rotate(57.4261 3.89845 24.2746)" fill="#82AEB4" fill-opacity="0.4"/>
<circle cx="17.1995" cy="24.4529" r="2.82275" transform="rotate(57.4261 17.1995 24.4529)" fill="#82AEB4" fill-opacity="0.4"/>
<circle cx="30.4995" cy="24.4529" r="2.82275" transform="rotate(57.4261 30.4995 24.4529)" fill="#82AEB4" fill-opacity="0.4"/>
<circle cx="43.8015" cy="24.453" r="2.82275" transform="rotate(57.4261 43.8015 24.453)" fill="#82AEB4" fill-opacity="0.4"/>
<circle cx="57.1015" cy="24.453" r="2.82275" transform="rotate(57.4261 57.1015 24.453)" fill="#82AEB4" fill-opacity="0.4"/>
<circle cx="3.89845" cy="34.6194" r="2.82275" transform="rotate(57.4261 3.89845 34.6194)" fill="#82AEB4" fill-opacity="0.4"/>
<circle cx="17.1995" cy="34.7981" r="2.82275" transform="rotate(57.4261 17.1995 34.7981)" fill="#82AEB4" fill-opacity="0.4"/>
<circle cx="3.89845" cy="44.2935" r="2.82275" transform="rotate(57.4261 3.89845 44.2935)" fill="#82AEB4" fill-opacity="0.4"/>
<circle cx="17.1995" cy="44.472" r="2.82275" transform="rotate(57.4261 17.1995 44.472)" fill="#82AEB4" fill-opacity="0.4"/>
<circle cx="30.4995" cy="44.472" r="2.82275" transform="rotate(57.4261 30.4995 44.472)" fill="#82AEB4" fill-opacity="0.4"/>
<circle cx="43.8015" cy="44.4721" r="2.82275" transform="rotate(57.4261 43.8015 44.4721)" fill="#82AEB4" fill-opacity="0.4"/>
<circle cx="57.1015" cy="44.4721" r="2.82275" transform="rotate(57.4261 57.1015 44.4721)" fill="#82AEB4" fill-opacity="0.4"/>
<circle cx="30.4995" cy="34.7981" r="2.82275" transform="rotate(57.4261 30.4995 34.7981)" fill="#82AEB4" fill-opacity="0.4"/>
<circle cx="43.8015" cy="34.7981" r="2.82275" transform="rotate(57.4261 43.8015 34.7981)" fill="#82AEB4" fill-opacity="0.4"/>
<circle cx="57.1015" cy="34.7981" r="2.82275" transform="rotate(57.4261 57.1015 34.7981)" fill="#82AEB4" fill-opacity="0.4"/>
</svg>
