<svg width="45.66px" height="59px" viewBox="0 0 47 59" fill="none"
                    xmlns="http://www.w3.org/2000/svg">
                    <path
                        d="M7.33042 38.998C9.0514 43.1172 12.2252 46.5536 16.2681 48.6753C18.2737 49.7275 20.8863 50.3535 23.2125 50.3535C23.3743 50.3535 23.5337 50.3492 23.6925 50.3431C23.7908 50.3468 23.891 50.3492 23.9979 50.3492C25.9875 50.3492 29.0588 49.7525 31.112 48.6753C35.1549 46.5536 38.3287 43.1178 40.0497 38.998C41.8452 34.701 41.8207 30.1232 39.9886 26.1078C39.0249 24.0002 36.154 19.6862 33.1139 15.1181C29.6896 9.97225 26.1475 4.65054 24.8083 1.75334L23.9972 0L21.9605 4.13694H21.966C20.2884 7.46224 16.7286 12.42 13.5877 16.7939C10.7253 20.7806 8.25442 24.2213 7.3921 26.1084C5.55693 30.1232 5.53494 34.701 7.33042 38.998ZM9.06972 26.8742C9.85692 25.1514 12.3956 21.6154 15.0834 17.8718C18.2639 13.4423 21.8689 8.42044 23.6107 4.9675L23.9936 4.20778C25.7115 7.32666 28.685 11.7952 31.5767 16.1398C34.5747 20.645 37.4072 24.8998 38.3092 26.8742C41.607 34.0836 38.0649 42.9425 30.2539 47.0428C28.6661 47.8752 26.3014 48.3864 24.5909 48.4872V48.4603L23.6894 48.4994L22.7868 48.4603V48.4981C20.871 48.4261 18.7348 47.8874 17.1262 47.041C9.31217 42.9425 5.77434 34.0836 9.06972 26.8742Z"
                        fill="#463B32" />
                    <path
                        d="M13.1022 37.2666C12.3694 35.4644 12.0536 33.8515 12.0536 31.8722C12.0536 31.7512 12.0298 31.6314 11.9835 31.5196C11.9372 31.4078 11.8693 31.3062 11.7837 31.2206C11.6981 31.135 11.5965 31.0671 11.4847 31.0208C11.3729 30.9745 11.2531 30.9507 11.1321 30.9507C11.0111 30.9507 10.8912 30.9745 10.7794 31.0208C10.6676 31.0671 10.566 31.135 10.4804 31.2206C10.3949 31.3062 10.327 31.4078 10.2807 31.5196C10.2344 31.6314 10.2105 31.7512 10.2105 31.8722C10.2105 34.105 10.5647 35.9267 11.3953 37.9628C11.441 38.0751 11.5084 38.1773 11.5936 38.2635C11.6788 38.3498 11.7801 38.4184 11.8919 38.4654C12.0036 38.5125 12.1235 38.5371 12.2447 38.5378C12.3659 38.5386 12.4861 38.5154 12.5984 38.4697C12.7107 38.424 12.8128 38.3566 12.8991 38.2714C12.9853 38.1862 13.0539 38.0849 13.101 37.9731C13.1481 37.8614 13.1727 37.7415 13.1734 37.6203C13.1741 37.4991 13.151 37.3789 13.1053 37.2666H13.1022Z"
                        fill="#463B32" />
                    <path
                        d="M13.407 40.7721C13.4894 40.7716 13.5714 40.761 13.6512 40.7403C13.6976 40.7298 13.7429 40.7153 13.7868 40.697C13.8309 40.6799 13.8736 40.6595 13.9145 40.6359C14.0225 40.5671 14.1154 40.4771 14.1875 40.3713C14.2597 40.2656 14.3096 40.1462 14.3342 40.0206C14.3588 39.8949 14.3577 39.7656 14.3307 39.6404C14.3038 39.5152 14.2518 39.3968 14.1777 39.2923C13.7233 38.6816 13.123 38.8386 12.8701 39.0077C12.8421 39.0265 12.8152 39.0469 12.7895 39.0688C12.6155 39.2133 12.5006 39.4167 12.4668 39.6403C12.433 39.864 12.4827 40.0923 12.6063 40.2817C12.8561 40.6695 13.1572 40.7721 13.407 40.7721Z"
                        fill="#463B32" />
                    <path
                        d="M19.8231 43.5594C18.3197 43.0137 16.9435 42.1669 15.7789 41.0707C15.6913 40.9849 15.5874 40.9174 15.4733 40.8723C15.3593 40.8271 15.2373 40.8051 15.1147 40.8077C14.992 40.8102 14.8711 40.8372 14.759 40.8871C14.6469 40.9369 14.5459 41.0087 14.4619 41.098C14.3779 41.1874 14.3125 41.2927 14.2697 41.4076C14.2268 41.5226 14.2074 41.645 14.2124 41.7675C14.2175 41.8901 14.2469 42.0104 14.299 42.1215C14.3512 42.2326 14.4249 42.3321 14.516 42.4143C15.8622 43.683 17.4535 44.6633 19.1922 45.295C19.3067 45.3396 19.4289 45.361 19.5517 45.3577C19.6746 45.3545 19.7955 45.3267 19.9074 45.2761C20.0194 45.2255 20.1201 45.153 20.2036 45.0629C20.2872 44.9727 20.3519 44.8669 20.3939 44.7514C20.4359 44.6359 20.4545 44.5133 20.4484 44.3905C20.4424 44.2678 20.4119 44.1475 20.3587 44.0368C20.3055 43.926 20.2307 43.827 20.1388 43.7455C20.0468 43.6641 19.9394 43.6018 19.8231 43.5624V43.5594Z"
                        fill="#463B32" />
                    <path
                        d="M21.8317 35.5133C23.9527 35.5133 25.7182 33.57 25.7182 31.1821V28.0675C25.7182 25.679 23.9527 23.7364 21.8317 23.7364C19.7107 23.7364 17.9445 25.6809 17.9445 28.0681V31.1827C17.9445 33.57 19.7101 35.5133 21.8317 35.5133ZM19.2667 28.0681C19.2667 26.3704 20.3996 24.9896 21.8317 24.9896C23.2638 24.9896 24.3966 26.3704 24.3966 28.0681V31.1827C24.3966 32.8799 23.2632 34.2607 21.8317 34.2607C20.4002 34.2607 19.2667 32.8799 19.2667 31.1827V28.0681Z"
                        fill="#9C6137" fill-opacity="0.69" />
                    <path
                        d="M27.9412 31.6872C27.9791 31.6872 28.0175 31.6915 28.0554 31.6915C28.378 31.6911 28.6937 31.5979 28.9648 31.4229C29.2359 31.248 29.4509 30.9987 29.5841 30.7049C29.7174 30.411 29.7632 30.085 29.7162 29.7658C29.6692 29.4466 29.5313 29.1477 29.319 28.9048C29.1371 28.6966 28.9067 28.5364 28.6482 28.4385C28.3896 28.3406 28.1109 28.308 27.8368 28.3435C27.5626 28.3791 27.3014 28.4818 27.0764 28.6424C26.8514 28.803 26.6695 29.0167 26.5469 29.2645C26.4242 29.5122 26.3645 29.7864 26.3731 30.0627C26.3818 30.339 26.4584 30.609 26.5963 30.8486C26.7342 31.0882 26.9291 31.2901 27.1637 31.4364C27.3983 31.5826 27.6653 31.6688 27.9412 31.6872ZM28.053 29.5833H28.0823C28.1956 29.5869 28.303 29.6353 28.3806 29.718C28.4583 29.8007 28.4999 29.9109 28.4963 30.0242C28.4928 30.1376 28.4443 30.2449 28.3616 30.3226C28.2789 30.4002 28.1688 30.4419 28.0554 30.4383C28.0452 30.4389 28.035 30.4389 28.0249 30.4383C27.9118 30.4306 27.8065 30.3784 27.7319 30.2931C27.6574 30.2078 27.6197 30.0964 27.6273 29.9833C27.6343 29.8751 27.6821 29.7735 27.7611 29.6993C27.8402 29.625 27.9445 29.5835 28.053 29.5833Z"
                        fill="#9C6137" fill-opacity="0.69" />
                    <path
                        d="M30.0145 33.501C29.9851 33.9456 30.1333 34.3838 30.4267 34.7192C30.72 35.0546 31.1346 35.2598 31.5792 35.2898C31.617 35.2898 31.6549 35.2934 31.6922 35.2934C32.0198 35.2933 32.3402 35.1974 32.614 35.0176C32.8879 34.8377 33.1032 34.5818 33.2335 34.2812C33.3638 33.9806 33.4034 33.6485 33.3475 33.3257C33.2915 33.0029 33.1424 32.7035 32.9186 32.4643C32.6947 32.2251 32.4058 32.0565 32.0874 31.9794C31.769 31.9022 31.435 31.9198 31.1264 32.0299C30.8179 32.1401 30.5483 32.338 30.3507 32.5993C30.1532 32.8607 30.0363 33.1741 30.0145 33.501ZM32.1178 33.6415C32.1122 33.7246 32.0825 33.8042 32.0322 33.8706C31.982 33.9371 31.9135 33.9874 31.835 34.0154C31.7566 34.0434 31.6717 34.0478 31.5907 34.0282C31.5098 34.0086 31.4363 33.9658 31.3794 33.9051C31.3224 33.8443 31.2844 33.7682 31.2701 33.6862C31.2558 33.6041 31.2658 33.5197 31.2989 33.4432C31.3319 33.3667 31.3865 33.3016 31.4561 33.2558C31.5256 33.21 31.607 33.1854 31.6903 33.1853H31.7196C31.7758 33.189 31.8306 33.2037 31.881 33.2287C31.9314 33.2537 31.9764 33.2883 32.0134 33.3307C32.0504 33.3731 32.0787 33.4223 32.0966 33.4757C32.1145 33.529 32.1217 33.5853 32.1178 33.6415Z"
                        fill="#9C6137" fill-opacity="0.69" />
                    <path
                        d="M27.6725 34.9942C27.7402 35.0408 27.8165 35.0737 27.8969 35.0909C27.9773 35.1081 28.0603 35.1092 28.1412 35.0943C28.2221 35.0794 28.2992 35.0487 28.3682 35.004C28.4372 34.9592 28.4967 34.9013 28.5434 34.8336L32.1685 29.568C32.2629 29.4311 32.2989 29.2623 32.2688 29.0987C32.2387 28.9352 32.1448 28.7903 32.0079 28.6959C31.871 28.6016 31.7021 28.5655 31.5386 28.5956C31.375 28.6258 31.2302 28.7196 31.1358 28.8566L27.5113 34.1221C27.4644 34.1899 27.4313 34.2662 27.414 34.3468C27.3967 34.4274 27.3956 34.5106 27.4105 34.5917C27.4255 34.6727 27.4564 34.75 27.5013 34.8191C27.5463 34.8881 27.6045 34.9477 27.6725 34.9942Z"
                        fill="#9C6137" fill-opacity="0.69" />
                    <path
                        d="M10.905 54.2972C10.1749 54.2972 9.43638 54.4924 8.93554 54.849L9.41092 55.7742C9.74198 55.5111 10.2428 55.3498 10.7267 55.3498C11.4397 55.3498 11.7793 55.6809 11.7793 56.2496H10.7267C9.33452 56.2496 8.76577 56.8099 8.76577 57.6163C8.76577 58.4058 9.40243 59 10.472 59C11.1426 59 11.618 58.7793 11.8642 58.3633V58.9321H13.1036V56.326C13.1036 54.9423 12.2971 54.2972 10.905 54.2972ZM10.8031 58.1087C10.3362 58.1087 10.0561 57.888 10.0561 57.5569C10.0561 57.2513 10.2513 57.0221 10.871 57.0221H11.7793V57.489C11.6265 57.9049 11.2445 58.1087 10.8031 58.1087Z"
                        fill="#463B32" />
                    <path
                        d="M16.8912 57.7776C16.7469 57.888 16.5516 57.9474 16.3564 57.9474C15.9998 57.9474 15.7876 57.7352 15.7876 57.3447V55.4856H16.9251V54.467H15.7876V53.3549H14.4634V54.467H13.7588V55.4856H14.4634V57.3617C14.4634 58.4482 15.0915 59 16.1696 59C16.5771 59 16.9761 58.9066 17.2477 58.7114L16.8912 57.7776Z"
                        fill="#463B32" />
                    <path
                        d="M22.3238 56.6656C22.3238 55.197 21.2881 54.2972 19.9469 54.2972C18.5547 54.2972 17.5106 55.2819 17.5106 56.6486C17.5106 58.0068 18.5377 59 20.1167 59C20.9401 59 21.5767 58.7453 22.0012 58.2615L21.2966 57.4975C20.9825 57.7946 20.6345 57.9389 20.1506 57.9389C19.4545 57.9389 18.9707 57.5909 18.8433 57.0221H22.2983C22.3068 56.9117 22.3238 56.7674 22.3238 56.6656ZM19.9554 55.2989C20.5496 55.2989 20.9825 55.6724 21.0759 56.2496H18.8264C18.9197 55.6639 19.3527 55.2989 19.9554 55.2989Z"
                        fill="#463B32" />
                    <path
                        d="M24.4702 54.9678V54.3651H23.2054V58.9321H24.5297V56.7759C24.5297 55.9016 25.0135 55.5026 25.7436 55.5026C25.8454 55.5026 25.9303 55.5111 26.0407 55.5196V54.2972C25.3361 54.2972 24.7928 54.5264 24.4702 54.9678Z"
                        fill="#463B32" />
                    <path
                        d="M30.7169 54.2717C30.7169 53.8218 30.9291 53.6096 31.3196 53.6096C31.5233 53.6096 31.7101 53.669 31.8544 53.7709L32.2024 52.8116C31.9563 52.6419 31.5658 52.5655 31.1923 52.5655C30.0548 52.5655 29.4266 53.2361 29.4266 54.2632V54.467H28.722V55.4856H29.4266V58.9321H30.7509V55.4856H31.8884V54.467H30.7169V54.2717Z"
                        fill="#463B32" />
                    <path
                        d="M34.4927 54.9678V54.3651H33.2279V58.9321H34.5521V56.7759C34.5521 55.9016 35.036 55.5026 35.766 55.5026C35.8679 55.5026 35.9528 55.5111 36.0631 55.5196V54.2972C35.3586 54.2972 34.8153 54.5264 34.4927 54.9678Z"
                        fill="#463B32" />
                    <path
                        d="M41.2827 56.6656C41.2827 55.197 40.2471 54.2972 38.9058 54.2972C37.5137 54.2972 36.4695 55.2819 36.4695 56.6486C36.4695 58.0068 37.4967 59 39.0756 59C39.899 59 40.5357 58.7453 40.9601 58.2615L40.2556 57.4975C39.9415 57.7946 39.5934 57.9389 39.1096 57.9389C38.4135 57.9389 37.9296 57.5909 37.8023 57.0221H41.2573C41.2657 56.9117 41.2827 56.7674 41.2827 56.6656ZM38.9143 55.2989C39.5085 55.2989 39.9415 55.6724 40.0349 56.2496H37.7853C37.8787 55.6639 38.3116 55.2989 38.9143 55.2989Z"
                        fill="#463B32" />
                    <path
                        d="M46.638 56.6656C46.638 55.197 45.6023 54.2972 44.2611 54.2972C42.8689 54.2972 41.8248 55.2819 41.8248 56.6486C41.8248 58.0068 42.852 59 44.4309 59C45.2543 59 45.891 58.7453 46.3154 58.2615L45.6108 57.4975C45.2967 57.7946 44.9487 57.9389 44.4648 57.9389C43.7688 57.9389 43.2849 57.5909 43.1576 57.0221H46.6125C46.621 56.9117 46.638 56.7674 46.638 56.6656ZM44.2696 55.2989C44.8638 55.2989 45.2967 55.6724 45.3901 56.2496H43.1406C43.234 55.6639 43.6669 55.2989 44.2696 55.2989Z"
                        fill="#463B32" />
                    <path
                        d="M7.33559 54.664L6.41559 57.312L5.51959 54.664H4.22359L3.30359 57.288L2.41559 54.664H0.975586L2.51959 59H3.99159L4.83959 56.64L5.65559 59H7.12759L8.67159 54.664H7.33559Z"
                        fill="#463B32" />
                </svg>