<svg width="12" height="12" viewBox="0 0 12 12" fill="none" xmlns="http://www.w3.org/2000/svg">
<path d="M6.00005 2.47266C4.03364 2.47266 2.43286 4.07344 2.43286 6.03984C2.43286 8.00625 4.03364 9.60703 6.00005 9.60703C7.96646 9.60703 9.56724 8.00625 9.56724 6.03984C9.56724 4.07109 7.96646 2.47266 6.00005 2.47266ZM6.00005 8.64844C4.56099 8.64844 3.38911 7.47656 3.38911 6.0375C3.38911 4.59844 4.56099 3.42656 6.00005 3.42656C7.43912 3.42656 8.61099 4.59844 8.61099 6.0375C8.61099 7.47656 7.43912 8.64844 6.00005 8.64844V8.64844Z" fill="#463B32"/>
<path d="M5.99998 1.75313C6.26482 1.75313 6.4781 1.53984 6.4781 1.275V0.735937C6.4781 0.471094 6.26482 0.257812 5.99998 0.257812C5.73513 0.257812 5.52185 0.471094 5.52185 0.735937V1.275C5.52185 1.53984 5.73513 1.75313 5.99998 1.75313V1.75313Z" fill="#463B32"/>
<path d="M5.99998 10.2468C5.73513 10.2468 5.52185 10.4601 5.52185 10.725V11.2617C5.52185 11.5265 5.73513 11.7398 5.99998 11.7398C6.26482 11.7398 6.4781 11.5265 6.4781 11.2617V10.725C6.4781 10.4625 6.26482 10.2468 5.99998 10.2468V10.2468Z" fill="#463B32"/>
<path d="M11.264 5.52185H10.725C10.4601 5.52185 10.2468 5.73513 10.2468 5.99998C10.2468 6.26482 10.4601 6.4781 10.725 6.4781H11.264C11.5289 6.4781 11.7421 6.26482 11.7421 5.99998C11.7421 5.73513 11.5289 5.52185 11.264 5.52185V5.52185Z" fill="#463B32"/>
<path d="M1.275 5.52185H0.735937C0.471094 5.52185 0.257812 5.73513 0.257812 5.99998C0.257812 6.26482 0.471094 6.4781 0.735937 6.4781H1.27266C1.5375 6.4781 1.75078 6.26482 1.75078 5.99998C1.75312 5.73513 1.5375 5.52185 1.275 5.52185V5.52185Z" fill="#463B32"/>
<path d="M9.38435 1.94067L9.00232 2.32036C8.81482 2.50786 8.81482 2.81021 9.00232 2.99771C9.18982 3.18521 9.49216 3.18521 9.67966 2.99771L10.0594 2.61802C10.2469 2.43052 10.2469 2.12817 10.0594 1.94067C9.87185 1.75317 9.56951 1.75317 9.38435 1.94067Z" fill="#463B32"/>
<path d="M2.32036 9.0023L1.94067 9.38198C1.75317 9.56948 1.75317 9.87183 1.94067 10.0593C2.12817 10.2468 2.43052 10.2468 2.61802 10.0593L2.99771 9.67964C3.18521 9.49214 3.18521 9.1898 2.99771 9.0023C2.81021 8.8148 2.50786 8.81714 2.32036 9.0023Z" fill="#463B32"/>
<path d="M9.67966 9.00232C9.49216 8.81482 9.18982 8.81482 9.00232 9.00232C8.81482 9.18982 8.81482 9.49216 9.00232 9.67966L9.38201 10.0594C9.56951 10.2469 9.87185 10.2469 10.0594 10.0594C10.2469 9.87185 10.2469 9.56951 10.0594 9.38201L9.67966 9.00232Z" fill="#463B32"/>
<path d="M2.32036 2.99771C2.50786 3.18521 2.81021 3.18521 2.99771 2.99771C3.18521 2.81021 3.18521 2.50786 2.99771 2.32036L2.61802 1.94067C2.43052 1.75317 2.12817 1.75317 1.94067 1.94067C1.75317 2.12817 1.75317 2.43052 1.94067 2.61802L2.32036 2.99771V2.99771Z" fill="#463B32"/>
</svg>
