<svg width="39" height="44" viewBox="0 0 39 44" fill="none" xmlns="http://www.w3.org/2000/svg">
<path d="M38.7544 24.75C38.7544 38.419 27.6235 44 17.7954 44C7.96727 44 0 32.9191 0 19.25C0 5.581 11.1309 0 20.959 0C30.7871 0 38.7544 11.0809 38.7544 24.75Z" fill="#CC9966" fill-opacity="0.1"/>
<path d="M20.5881 4.95129C20.5284 4.54228 19.7473 4.54228 19.6897 4.95129C17.7358 18.4714 7.74512 21.2583 7.74512 30.656C7.74512 36.4639 13.4187 41.1704 20.1389 41.1704C26.8569 41.1704 32.5305 36.462 32.5305 30.656C32.5305 21.2583 22.542 18.4714 20.5881 4.95129ZM18.7006 19.8982C18.5701 20.3148 18.4284 20.7428 18.2824 21.188C17.3951 23.8969 16.3883 26.9692 16.3883 30.521C16.3883 32.4461 15.065 33.1291 13.8303 33.1291C13.4929 33.1279 13.1591 33.0695 12.848 32.9573C12.5368 32.8452 12.2545 32.6815 12.0169 32.4755C11.7794 32.2695 11.5914 32.0253 11.4636 31.7569C11.3359 31.4884 11.2708 31.201 11.2723 30.9109C11.2723 26.7124 13.6223 23.9692 15.6979 21.5513C16.3506 20.7942 16.9636 20.077 17.4615 19.3636C17.6894 19.0364 18.3023 19.0516 18.5811 19.375C18.7117 19.5272 18.7559 19.7212 18.7006 19.8982Z" fill="#D0AF94"/>
</svg>
