<svg width="61" height="49" viewBox="0 0 61 49" fill="none" xmlns="http://www.w3.org/2000/svg">
<circle cx="3.89882" cy="3.89846" r="2.82275" transform="rotate(57.4261 3.89882 3.89846)" fill="#E6D6C8"/>
<circle cx="17.1996" cy="4.07619" r="2.82275" transform="rotate(57.4261 17.1996 4.07619)" fill="#E6D6C8"/>
<circle cx="30.4994" cy="4.07619" r="2.82275" transform="rotate(57.4261 30.4994 4.07619)" fill="#E6D6C8"/>
<circle cx="43.8012" cy="4.07619" r="2.82275" transform="rotate(57.4261 43.8012 4.07619)" fill="#E6D6C8"/>
<circle cx="57.1019" cy="4.07619" r="2.82275" transform="rotate(57.4261 57.1019 4.07619)" fill="#E6D6C8"/>
<circle r="2.82275" transform="matrix(0.538377 0.842704 -0.842691 0.538397 3.89881 13.9298)" fill="#E6D6C8"/>
<circle cx="17.1996" cy="14.1074" r="2.82275" transform="rotate(57.4261 17.1996 14.1074)" fill="#E6D6C8"/>
<circle cx="30.4994" cy="14.1074" r="2.82275" transform="rotate(57.4261 30.4994 14.1074)" fill="#E6D6C8"/>
<circle cx="43.8012" cy="14.1074" r="2.82275" transform="rotate(57.4261 43.8012 14.1074)" fill="#E6D6C8"/>
<circle cx="57.1019" cy="14.1074" r="2.82275" transform="rotate(57.4261 57.1019 14.1074)" fill="#E6D6C8"/>
<circle cx="3.89882" cy="24.2754" r="2.82275" transform="rotate(57.4261 3.89882 24.2754)" fill="#E6D6C8"/>
<circle cx="17.1996" cy="24.4531" r="2.82275" transform="rotate(57.4261 17.1996 24.4531)" fill="#E6D6C8"/>
<circle cx="30.4994" cy="24.4531" r="2.82275" transform="rotate(57.4261 30.4994 24.4531)" fill="#E6D6C8"/>
<circle cx="43.8012" cy="24.4531" r="2.82275" transform="rotate(57.4261 43.8012 24.4531)" fill="#E6D6C8"/>
<circle cx="57.1019" cy="24.4531" r="2.82275" transform="rotate(57.4261 57.1019 24.4531)" fill="#E6D6C8"/>
<circle cx="3.89882" cy="34.6192" r="2.82275" transform="rotate(57.4261 3.89882 34.6192)" fill="#E6D6C8"/>
<circle cx="17.1996" cy="34.7988" r="2.82275" transform="rotate(57.4261 17.1996 34.7988)" fill="#E6D6C8"/>
<circle cx="3.89882" cy="44.293" r="2.82275" transform="rotate(57.4261 3.89882 44.293)" fill="#E6D6C8"/>
<circle cx="17.1996" cy="44.4727" r="2.82275" transform="rotate(57.4261 17.1996 44.4727)" fill="#E6D6C8"/>
<circle cx="30.4994" cy="44.4727" r="2.82275" transform="rotate(57.4261 30.4994 44.4727)" fill="#E6D6C8"/>
<circle cx="43.8012" cy="44.4727" r="2.82275" transform="rotate(57.4261 43.8012 44.4727)" fill="#E6D6C8"/>
<circle cx="57.1019" cy="44.4727" r="2.82275" transform="rotate(57.4261 57.1019 44.4727)" fill="#E6D6C8"/>
<circle cx="30.4994" cy="34.7988" r="2.82275" transform="rotate(57.4261 30.4994 34.7988)" fill="#E6D6C8"/>
<circle cx="43.8012" cy="34.7988" r="2.82275" transform="rotate(57.4261 43.8012 34.7988)" fill="#E6D6C8"/>
<circle cx="57.1019" cy="34.7988" r="2.82275" transform="rotate(57.4261 57.1019 34.7988)" fill="#E6D6C8"/>
</svg>
