<svg width="39" height="38" viewBox="0 0 39 38" fill="none" xmlns="http://www.w3.org/2000/svg">
<path d="M36.2122 21.9288C36.2122 32.5899 26.1077 36.9428 17.1858 36.9428C8.26389 36.9428 1.03127 28.3002 1.03127 17.6391C1.03127 6.97789 11.1358 2.62499 20.0577 2.62499C28.9796 2.62499 36.2122 11.2676 36.2122 21.9288Z" fill="#CC9966" fill-opacity="0.1"/>
<g clip-path="url(#clip0_1141_1701)">
<path d="M23.9908 12.7558L21.6039 14.1176L23.9628 15.3431L24.5006 17.8647L26.5513 16.0681L29.2707 16.2648L28.1792 13.9289L29.3219 11.5288L26.5967 11.8817L24.5836 10.2017L23.9908 12.7558Z" fill="#BD967A"/>
<path d="M35.0386 20.006L33.2533 20.2372L31.9344 19.1364L31.546 20.8098L29.9824 21.702L31.5277 22.5048L31.8801 24.1567L33.2236 22.9797L35.0053 23.1085L34.29 21.5782L35.0386 20.006Z" fill="#BD967A"/>
<path d="M18.7006 18.8857C16.8933 13.4975 18.6451 7.72206 22.7164 3.84876C20.4322 3.58906 18.0305 3.81652 15.6729 4.60729C7.55256 7.33104 3.0342 15.6939 5.58086 23.2863C8.12752 30.8788 16.7748 34.8256 24.8952 32.1018C27.2527 31.3111 29.3059 30.0442 30.9715 28.4597C25.388 27.8249 20.5079 24.2738 18.7006 18.8857Z" fill="#BD967A"/>
</g>
<defs>
<clipPath id="clip0_1141_1701">
<rect width="31.0165" height="29" fill="white" transform="translate(0 9.86328) rotate(-18.5426)"/>
</clipPath>
</defs>
</svg>
