<svg width="142" height="253" viewBox="0 0 142 253" fill="none" xmlns="http://www.w3.org/2000/svg">
<path fill-rule="evenodd" clip-rule="evenodd" d="M117.447 227.112C89.4072 216.871 106.01 170.666 90.0527 145.438C74.0876 120.198 29.276 115.494 27.9709 85.6569C26.6409 55.2491 56.3013 29.89 84.4972 18.4271C109.577 8.23088 136.242 21.7345 161.55 31.351C182.021 39.1297 198.771 51.1639 213.442 67.4232C232.569 88.6221 263.55 109.463 257.13 137.284C250.71 165.106 211.261 165.493 187.246 180.937C162.854 196.623 144.688 237.061 117.447 227.112Z" fill="#82AEB4" fill-opacity="0.24"/>
<circle cx="74.8988" cy="62.8985" r="2.82275" transform="rotate(57.4261 74.8988 62.8985)" fill="#82AEB4" fill-opacity="0.44"/>
<circle cx="88.1996" cy="63.0781" r="2.82275" transform="rotate(57.4261 88.1996 63.0781)" fill="#82AEB4" fill-opacity="0.44"/>
<circle cx="101.499" cy="63.0781" r="2.82275" transform="rotate(57.4261 101.499 63.0781)" fill="#82AEB4" fill-opacity="0.44"/>
<circle cx="114.801" cy="63.0781" r="2.82275" transform="rotate(57.4261 114.801 63.0781)" fill="#82AEB4" fill-opacity="0.44"/>
<circle cx="128.102" cy="63.0781" r="2.82275" transform="rotate(57.4261 128.102 63.0781)" fill="#82AEB4" fill-opacity="0.44"/>
<circle r="2.82275" transform="matrix(0.538377 0.842704 -0.842691 0.538397 74.8988 73.8751)" fill="#82AEB4" fill-opacity="0.44"/>
<circle cx="88.1996" cy="74.0547" r="2.82275" transform="rotate(57.4261 88.1996 74.0547)" fill="#82AEB4" fill-opacity="0.44"/>
<circle cx="101.499" cy="74.0547" r="2.82275" transform="rotate(57.4261 101.499 74.0547)" fill="#82AEB4" fill-opacity="0.44"/>
<circle cx="114.801" cy="74.0547" r="2.82275" transform="rotate(57.4261 114.801 74.0547)" fill="#82AEB4" fill-opacity="0.44"/>
<circle cx="128.102" cy="74.0547" r="2.82275" transform="rotate(57.4261 128.102 74.0547)" fill="#82AEB4" fill-opacity="0.44"/>
<circle cx="74.8988" cy="84.8516" r="2.82275" transform="rotate(57.4261 74.8988 84.8516)" fill="#82AEB4" fill-opacity="0.44"/>
<circle cx="88.1996" cy="85.0313" r="2.82275" transform="rotate(57.4261 88.1996 85.0313)" fill="#82AEB4" fill-opacity="0.44"/>
<circle cx="101.499" cy="85.0313" r="2.82275" transform="rotate(57.4261 101.499 85.0313)" fill="#82AEB4" fill-opacity="0.44"/>
<circle cx="114.801" cy="85.0313" r="2.82275" transform="rotate(57.4261 114.801 85.0313)" fill="#82AEB4" fill-opacity="0.44"/>
<circle cx="128.102" cy="85.0313" r="2.82275" transform="rotate(57.4261 128.102 85.0313)" fill="#82AEB4" fill-opacity="0.44"/>
<circle cx="74.8988" cy="95.8281" r="2.82275" transform="rotate(57.4261 74.8988 95.8281)" fill="#82AEB4" fill-opacity="0.44"/>
<circle cx="88.1996" cy="96.0039" r="2.82275" transform="rotate(57.4261 88.1996 96.0039)" fill="#82AEB4" fill-opacity="0.44"/>
<circle cx="74.8988" cy="106.801" r="2.82275" transform="rotate(57.4261 74.8988 106.801)" fill="#82AEB4" fill-opacity="0.44"/>
<circle cx="88.1986" cy="106.98" r="2.82275" transform="rotate(57.4261 88.1986 106.98)" fill="#82AEB4" fill-opacity="0.44"/>
<circle cx="101.499" cy="106.98" r="2.82275" transform="rotate(57.4261 101.499 106.98)" fill="#82AEB4" fill-opacity="0.44"/>
<circle cx="114.801" cy="106.98" r="2.82275" transform="rotate(57.4261 114.801 106.98)" fill="#82AEB4" fill-opacity="0.44"/>
<circle cx="128.101" cy="106.98" r="2.82275" transform="rotate(57.4261 128.101 106.98)" fill="#82AEB4" fill-opacity="0.44"/>
<circle cx="101.499" cy="96.0039" r="2.82275" transform="rotate(57.4261 101.499 96.0039)" fill="#82AEB4" fill-opacity="0.44"/>
<circle cx="114.801" cy="96.0039" r="2.82275" transform="rotate(57.4261 114.801 96.0039)" fill="#82AEB4" fill-opacity="0.44"/>
<circle cx="128.102" cy="96.0039" r="2.82275" transform="rotate(57.4261 128.102 96.0039)" fill="#82AEB4" fill-opacity="0.44"/>
</svg>
