<svg width="53" height="50" viewBox="0 0 53 50" fill="none" xmlns="http://www.w3.org/2000/svg">
<g clip-path="url(#clip0_1141_1711)">
<path d="M30.0911 27.0892L24.5142 17.4282H13.3596L9.05191 13.123L7.95346 14.2215L12.5555 18.8205L8.18602 26.389H2.43945V27.946H8.2757L12.5448 35.3432L7.60994 40.2791L8.7089 41.3786L13.3514 36.7371L13.3596 36.7507H23.9838L29.0261 41.789L30.126 40.69L25.1258 35.6928L30.0911 27.0892ZM14.3866 19.2035H23.4903L28.0426 27.0892L23.5855 34.8052L23.4158 34.9749H14.385L9.82913 27.0892L14.3866 19.2035Z" fill="#CDAF9A"/>
<path d="M52.4379 16.1814H47.0521L42.2804 7.9177L46.2926 3.63842L45.254 2.70312L41.0304 7.2185H31.1262L27.6657 2.84904L26.5525 3.69618L30.1397 8.23031L25.1445 16.8806L30.7259 26.5411H41.8816L47.0557 17.5782H52.4395V16.1814H52.4379ZM40.8516 24.7647H31.7489L27.194 16.8801L31.7489 8.99537H40.8521L45.405 16.8801L40.8516 24.7647Z" fill="#CDAF9A"/>
<path d="M21.9324 22.0732V20.6758H15.6346L12.3428 26.7562L13.5755 27.4225L16.4675 22.0732H21.9324Z" fill="#CDAF9A"/>
<path d="M33.9482 21.9234V23.3193H40.2694L43.1963 17.2089L41.9337 16.6055L39.3888 21.9234H33.9482Z" fill="#CDAF9A"/>
</g>
<path d="M30.5092 29.2382C30.5092 39.9991 21.7465 44.3927 14.0093 44.3927C6.2722 44.3927 1.55943e-05 35.6693 1.55943e-05 24.9084C1.55943e-05 14.1475 8.76275 9.75389 16.4999 9.75389C24.237 9.75389 30.5092 18.4773 30.5092 29.2382Z" fill="#CC9966" fill-opacity="0.1"/>
<defs>
<clipPath id="clip0_1141_1711">
<rect width="50" height="50" fill="white" transform="translate(2.43945)"/>
</clipPath>
</defs>
</svg>
