<svg width="37" height="37" viewBox="0 0 37 37" fill="none" xmlns="http://www.w3.org/2000/svg">
<path d="M17.7291 8.47852C17.3203 8.47852 16.9282 8.64097 16.639 8.9301C16.35 9.21924 16.1875 9.61135 16.1875 10.0202V19.2702C16.1875 19.6791 16.35 20.0712 16.6391 20.3603C16.9281 20.6494 17.3203 20.8119 17.7291 20.8119H24.6666C24.87 20.8132 25.0716 20.7744 25.2599 20.6975C25.4481 20.6207 25.6193 20.5073 25.7636 20.364C25.9079 20.2208 26.0224 20.0503 26.1005 19.8626C26.1786 19.6749 26.2189 19.4735 26.2189 19.2702C26.2189 19.0669 26.1786 18.8655 26.1005 18.6778C26.0224 18.49 25.9079 18.3196 25.7636 18.1763C25.6193 18.033 25.4481 17.9197 25.2599 17.8428C25.0716 17.7659 24.87 17.7271 24.6666 17.7285H19.2709V10.0202C19.2709 9.61135 19.1084 9.21924 18.8193 8.9301C18.5301 8.64097 18.138 8.47852 17.7291 8.47852Z" fill="#D0AF94"/>
<path d="M30.4918 6.50806C23.8795 -0.104248 13.1209 -0.104248 6.50865 6.50806C6.22255 6.79776 6.06268 7.18889 6.06395 7.59602C6.06523 8.00323 6.22753 8.39332 6.51544 8.68123C6.80335 8.96913 7.19347 9.13144 7.60065 9.13274C8.00779 9.13397 8.39889 8.97412 8.6886 8.68802C14.098 3.27793 22.9009 3.27793 28.3118 8.68802C33.7211 14.0978 33.7211 22.9006 28.3118 28.3104C23.5405 33.0806 16.0865 33.6275 10.6685 29.9317L12.0445 29.473C12.4324 29.3436 12.753 29.0655 12.9359 28.6997C13.1186 28.3339 13.1487 27.9105 13.0193 27.5225C12.8899 27.1347 12.6118 26.814 12.246 26.6312C11.8802 26.4484 11.4568 26.4184 11.0689 26.5477L7.07261 27.8801C6.72109 27.9975 6.42358 28.2374 6.23448 28.5561C6.04538 28.8748 5.97735 29.2509 6.04282 29.6156L6.86542 34.1888C6.92949 34.5444 7.11634 34.8662 7.39339 35.0981C7.67045 35.3301 8.02015 35.4574 8.38148 35.458C8.47354 35.4578 8.56546 35.4495 8.65608 35.4331C9.05846 35.3607 9.41567 35.1315 9.64901 34.7958C9.88243 34.46 9.97291 34.0454 9.90057 33.643L9.78972 33.0267C13.0308 34.9674 16.8266 35.7717 20.5762 35.3123C24.3258 34.8529 27.8151 33.1559 30.4918 30.4902C37.1033 23.8785 37.1033 13.12 30.4918 6.50806Z" fill="#D0AF94"/>
<path d="M5.30065 10.3845C5.11866 10.2957 4.92094 10.2437 4.71882 10.2314C4.5167 10.219 4.31413 10.2467 4.12271 10.3128C3.93128 10.3788 3.75475 10.4819 3.60321 10.6162C3.45168 10.7505 3.3281 10.9134 3.23956 11.0955C3.11464 11.3514 2.99721 11.6096 2.88727 11.8701C2.80699 12.0566 2.76437 12.2572 2.76184 12.4603C2.75931 12.6633 2.79694 12.8649 2.87255 13.0534C2.94817 13.2418 3.06027 13.4135 3.20245 13.5586C3.34462 13.7036 3.51404 13.8191 3.70098 13.8984C3.88792 13.9778 4.08871 14.0194 4.29179 14.0209C4.49486 14.0224 4.69623 13.9838 4.88433 13.9072C5.07243 13.8306 5.24355 13.7177 5.38786 13.5747C5.53217 13.4319 5.64681 13.2618 5.72521 13.0745C5.81554 12.863 5.91035 12.653 6.01124 12.4452C6.09991 12.2633 6.15186 12.0656 6.16414 11.8636C6.17642 11.6615 6.14877 11.459 6.08279 11.2677C6.0168 11.0763 5.91376 10.8998 5.77957 10.7483C5.64537 10.5968 5.48263 10.4732 5.30065 10.3845Z" fill="#D0AF94"/>
<path d="M3.0891 19.6626C3.49097 19.6626 3.8769 19.5054 4.16461 19.2249C4.45233 18.9443 4.61905 18.5625 4.62922 18.1607C4.63674 17.8698 4.65304 17.5787 4.67815 17.2875C4.6956 17.0859 4.67316 16.8828 4.61211 16.6898C4.55106 16.4967 4.45259 16.3177 4.32234 16.1627C4.19208 16.0078 4.03259 15.88 3.85295 15.7867C3.67332 15.6934 3.47706 15.6365 3.2754 15.619C3.07374 15.6016 2.87061 15.624 2.67762 15.6851C2.48463 15.7461 2.30555 15.8445 2.15061 15.9748C1.99567 16.1051 1.8679 16.2646 1.77461 16.4442C1.68131 16.6239 1.62431 16.8201 1.60686 17.0218C1.57602 17.3745 1.5562 17.7278 1.54738 18.0817C1.53688 18.4903 1.68911 18.8864 1.97059 19.1829C2.25207 19.4793 2.63976 19.6519 3.04841 19.6625C3.062 19.6626 3.07551 19.6626 3.0891 19.6626Z" fill="#D0AF94"/>
<path d="M5.1991 22.4594C5.14112 22.2654 5.04551 22.0848 4.91772 21.9278C4.78993 21.7707 4.63247 21.6404 4.45433 21.5443C4.27618 21.4481 4.08084 21.3881 3.87947 21.3674C3.67809 21.3468 3.47462 21.366 3.28067 21.4239C3.08671 21.4819 2.90608 21.5775 2.74907 21.7053C2.59208 21.8331 2.46178 21.9906 2.36563 22.1687C2.26948 22.3468 2.20937 22.5422 2.18871 22.7436C2.16805 22.9449 2.18727 23.1484 2.24525 23.3424C2.32575 23.6126 2.41305 23.8821 2.50721 24.1489C2.57438 24.3399 2.67851 24.5158 2.81365 24.6666C2.94879 24.8173 3.11231 24.94 3.29486 25.0275C3.4774 25.1151 3.6754 25.1658 3.87756 25.1768C4.07972 25.1878 4.28206 25.159 4.47305 25.0918C4.66403 25.0246 4.83992 24.9205 4.99067 24.7853C5.14141 24.6502 5.26406 24.4867 5.35161 24.3042C5.43916 24.1216 5.4899 23.9236 5.50094 23.7214C5.51196 23.5193 5.48307 23.3169 5.4159 23.1259C5.33833 22.9052 5.26606 22.6829 5.1991 22.4594Z" fill="#D0AF94"/>
</svg>
