<svg width="104" height="483" viewBox="0 0 104 483" fill="none" xmlns="http://www.w3.org/2000/svg">
<ellipse cx="180.5" cy="139" rx="135.5" ry="139" fill="#B37A4C" fill-opacity="0.13"/>
<circle cx="83" cy="433" r="50" fill="#F3EBE5"/>
<g opacity="0.5">
<circle cx="98.5" cy="318.5" r="2.5" transform="rotate(90 98.5 318.5)" fill="#E6D6C8"/>
<circle cx="86.5" cy="318.5" r="2.5" transform="rotate(90 86.5 318.5)" fill="#E6D6C8"/>
<circle cx="74.5" cy="318.5" r="2.5" transform="rotate(90 74.5 318.5)" fill="#E6D6C8"/>
<circle cx="62.5" cy="318.5" r="2.5" transform="rotate(90 62.5 318.5)" fill="#E6D6C8"/>
<circle cx="50.5" cy="318.5" r="2.5" transform="rotate(90 50.5 318.5)" fill="#E6D6C8"/>
<circle cx="38.5" cy="318.5" r="2.5" transform="rotate(90 38.5 318.5)" fill="#E6D6C8"/>
<circle cx="26.5" cy="318.5" r="2.5" transform="rotate(90 26.5 318.5)" fill="#E6D6C8"/>
<circle cx="14.5" cy="318.5" r="2.5" transform="rotate(90 14.5 318.5)" fill="#E6D6C8"/>
<circle cx="98.5" cy="352.5" r="2.5" transform="rotate(90 98.5 352.5)" fill="#E6D6C8"/>
<circle cx="86.5" cy="352.5" r="2.5" transform="rotate(90 86.5 352.5)" fill="#E6D6C8"/>
<circle cx="74.5" cy="352.5" r="2.5" transform="rotate(90 74.5 352.5)" fill="#E6D6C8"/>
<circle cx="62.5" cy="352.5" r="2.5" transform="rotate(90 62.5 352.5)" fill="#E6D6C8"/>
<circle cx="50.5" cy="352.5" r="2.5" transform="rotate(90 50.5 352.5)" fill="#E6D6C8"/>
<circle cx="38.5" cy="352.5" r="2.5" transform="rotate(90 38.5 352.5)" fill="#E6D6C8"/>
<circle cx="26.5" cy="352.5" r="2.5" transform="rotate(90 26.5 352.5)" fill="#E6D6C8"/>
<circle cx="14.5" cy="352.5" r="2.5" transform="rotate(90 14.5 352.5)" fill="#E6D6C8"/>
<circle cx="98.5" cy="335.5" r="2.5" transform="rotate(90 98.5 335.5)" fill="#E6D6C8"/>
<circle cx="86.5" cy="335.5" r="2.5" transform="rotate(90 86.5 335.5)" fill="#E6D6C8"/>
<circle cx="74.5" cy="335.5" r="2.5" transform="rotate(90 74.5 335.5)" fill="#E6D6C8"/>
<circle cx="62.5" cy="335.5" r="2.5" transform="rotate(90 62.5 335.5)" fill="#E6D6C8"/>
<circle cx="50.5" cy="335.5" r="2.5" transform="rotate(90 50.5 335.5)" fill="#E6D6C8"/>
<circle cx="38.5" cy="335.5" r="2.5" transform="rotate(90 38.5 335.5)" fill="#E6D6C8"/>
<circle cx="26.5" cy="335.5" r="2.5" transform="rotate(90 26.5 335.5)" fill="#E6D6C8"/>
<circle cx="14.5" cy="335.5" r="2.5" transform="rotate(90 14.5 335.5)" fill="#E6D6C8"/>
<circle cx="98.5" cy="369.5" r="2.5" transform="rotate(90 98.5 369.5)" fill="#E6D6C8"/>
<circle cx="86.5" cy="369.5" r="2.5" transform="rotate(90 86.5 369.5)" fill="#E6D6C8"/>
<circle cx="74.5" cy="369.5" r="2.5" transform="rotate(90 74.5 369.5)" fill="#E6D6C8"/>
<circle cx="62.5" cy="369.5" r="2.5" transform="rotate(90 62.5 369.5)" fill="#E6D6C8"/>
<circle cx="50.5" cy="369.5" r="2.5" transform="rotate(90 50.5 369.5)" fill="#E6D6C8"/>
<circle cx="38.5" cy="369.5" r="2.5" transform="rotate(90 38.5 369.5)" fill="#E6D6C8"/>
<circle cx="26.5" cy="369.5" r="2.5" transform="rotate(90 26.5 369.5)" fill="#E6D6C8"/>
<circle cx="14.5" cy="369.5" r="2.5" transform="rotate(90 14.5 369.5)" fill="#E6D6C8"/>
</g>
</svg>
