<svg width="111" height="111" viewBox="0 0 111 111" fill="none" xmlns="http://www.w3.org/2000/svg">
<path d="M107.378 59.8717C106.886 59.8399 106.401 60.0062 106.03 60.3342C105.659 60.6621 105.433 61.1248 105.401 61.6206C104.677 72.9256 100.229 83.1274 93.2397 91.0033C93.149 90.9469 93.0617 90.8906 92.9755 90.8331C88.616 87.9742 85.3021 85.3936 82.5637 82.7195C80.7982 77.9482 78.7572 72.9989 76.48 68.0067L76.1005 67.1717C74.026 62.5976 71.8809 57.8669 68.3756 53.9746C67.5058 53.0078 66.5844 52.0837 65.6887 51.1901L65.6495 51.1506C64.6722 50.1736 63.6612 49.1628 62.7298 48.1024C61.9461 47.211 61.149 46.2554 60.4437 45.4125C59.52 44.3081 58.4732 43.0562 57.4142 41.8864L57.2115 41.6611C56.5588 40.9286 55.5714 39.8231 54.4283 39.2146C53.5181 38.73 52.6191 38.6286 51.8119 38.9159C51.5012 39.0216 51.2149 39.1897 50.9705 39.4099C50.7262 39.6301 50.5287 39.898 50.3901 40.1972C50.0274 40.9737 50.0688 41.8988 50.2379 42.7372L49.5269 42.1039C48.8877 41.5371 48.2339 40.9072 47.533 40.231C45.6802 38.4415 43.7635 36.5912 41.4875 35.3854C39.8686 34.5244 38.2912 34.1064 36.6645 34.1064C36.5033 34.1064 36.3432 34.1064 36.1842 34.1176C35.5957 33.6892 34.9797 33.3003 34.3403 32.9535C33.1547 32.3225 32.0564 32.0024 31.0768 32.0024C30.101 31.9892 29.1564 32.3479 28.4324 33.0065C27.6387 32.8487 26.911 32.9524 26.284 33.3051C24.3304 34.405 25.1096 36.9923 25.366 37.842C25.862 39.4986 26.6669 41.0323 27.2289 42.0408C28.3485 44.0557 29.3661 46.1867 30.348 48.2489L30.7611 49.111C32.0575 51.8268 33.4995 54.4603 34.8933 57.0094C35.7375 58.5532 36.5995 60.1297 37.4302 61.722C36.1562 60.2807 33.448 57.3903 31.2727 56.2341C30.2539 55.6931 29.4076 55.5579 28.6743 55.8103C28.3887 55.9115 28.1272 56.0715 27.9065 56.2801C27.6858 56.4887 27.5107 56.7413 27.3924 57.0218C26.9311 58.0495 27.1942 59.1629 27.3845 59.9675L27.4338 60.1793C27.7219 61.4273 28.1252 62.6456 28.6384 63.8181C29.0112 64.6801 29.3673 65.5659 29.6606 66.3085C29.6782 66.3561 29.6992 66.4025 29.7233 66.4471C30.9749 68.7798 32.1437 71.4933 33.401 74.9867C33.415 75.0253 33.4314 75.063 33.4502 75.0994L33.4626 75.1242L33.5331 75.2639C33.5443 75.3557 33.5653 75.446 33.5958 75.5333C34.5093 78.1071 35.7341 80.1941 37.4504 82.0997C37.7402 82.4466 37.9941 82.8223 38.2083 83.2209C38.4446 83.6502 38.7173 84.0582 39.0234 84.4402C39.3055 84.7783 39.601 85.095 39.8888 85.4048C40.2392 85.7846 40.603 86.1779 40.9266 86.5825C43.3967 89.6434 46.2361 92.3826 49.3792 94.7367C52.3863 96.9792 55.802 99.0831 60.4548 101.56C61.1266 101.92 61.8043 102.275 62.4879 102.626C64.3912 103.613 66.4164 104.535 68.1976 105.348L69.0239 105.727C66.5103 106.365 63.951 106.803 61.3695 107.038C34.7299 109.476 11.0918 89.6386 8.67353 62.8253C8.63883 62.4421 8.6086 62.059 8.58285 61.6781C8.57023 61.4299 8.50867 61.1867 8.40174 60.9627C8.29481 60.7387 8.14465 60.5383 7.96003 60.3733C7.7754 60.2083 7.56 60.0819 7.32636 60.0015C7.09272 59.9212 6.84553 59.8884 6.59919 59.9052C6.35284 59.9219 6.11228 59.9878 5.8915 60.0991C5.67073 60.2104 5.47417 60.3648 5.31327 60.5533C5.15236 60.7418 5.03034 60.9606 4.95431 61.1971C4.87828 61.4335 4.84978 61.6829 4.87044 61.9305C4.89842 62.3407 4.92977 62.752 4.96671 63.1633C7.43196 90.4342 30.2629 111 56.9484 111C58.5214 111 60.1123 110.928 61.7087 110.781C74.1045 109.649 85.6916 104.1 94.3835 95.1327C103.075 86.1651 108.301 74.3687 109.119 61.8674C109.136 61.6212 109.104 61.3741 109.025 61.1404C108.946 60.9067 108.823 60.691 108.661 60.5055C108.499 60.3201 108.302 60.1687 108.082 60.0599C107.862 59.9511 107.623 59.8871 107.378 59.8717ZM74.3999 104.032C72.8438 103.26 71.2652 102.546 69.7269 101.851L69.6766 101.828C67.8741 101.012 66.01 100.168 64.2445 99.2555C63.5332 98.8881 62.8242 98.5159 62.1174 98.1388C57.5653 95.7182 54.2313 93.6515 51.3014 91.4427C47.8756 88.8509 44.6446 85.4037 41.4214 80.8883C38.9777 77.4704 36.8917 73.8073 35.1967 69.9574C34.7881 69.0277 34.4321 68.0541 34.0772 67.0996C33.7346 66.171 33.382 65.212 32.9767 64.2756C32.8894 64.0727 32.8013 63.8706 32.7125 63.6693L32.6419 63.5082C32.3139 62.7622 31.9937 62.0432 31.7183 61.3107L31.8045 61.3873C33.3842 62.7689 34.7814 64.4029 35.93 65.8172C36.6768 66.7333 37.4034 67.7081 38.1109 68.6592C38.5587 69.2508 39.0536 69.9224 39.5551 70.5749L39.891 71.0065C40.9322 72.3419 42.0092 73.7246 42.6261 75.2087C42.7235 75.4451 42.8661 75.6599 43.0459 75.8409C43.4784 77.5602 43.8037 79.305 44.0199 81.0652C44.0546 81.3764 44.1646 81.6744 44.3403 81.9329C44.5159 82.1915 44.7519 82.4027 45.0275 82.5482C45.318 82.7011 45.6411 82.7808 45.969 82.7803C46.3548 82.7844 46.7326 82.6695 47.0516 82.4513C47.3197 82.2645 47.5308 82.0063 47.6611 81.7055C47.7914 81.4047 47.8359 81.0733 47.7894 80.7485C46.512 70.1185 41.3531 60.7935 36.8033 52.5671C35.4475 50.1139 34.2283 47.5964 33.1088 45.2288C32.5065 43.9622 31.8549 42.7237 31.2257 41.527L31.1787 41.4379C30.7992 40.7156 30.4062 39.9673 30.0211 39.2089C29.7658 38.6996 29.4904 38.1564 29.2654 37.6099C29.6012 37.8533 29.9371 38.1159 30.2506 38.3615L30.3995 38.4742C33.3103 40.7731 35.471 43.943 37.5646 47.0082L37.5903 47.0465C38.1288 47.8353 38.6841 48.6478 39.2473 49.4366C39.7428 50.1346 40.2448 50.8291 40.7531 51.5203C43.075 54.7082 45.4787 58.0067 46.9352 61.6882C47.1003 62.118 47.4145 62.4731 47.8196 62.6878C48.1765 62.8753 48.5813 62.9497 48.981 62.9013C49.3806 62.8528 49.7564 62.6837 50.0587 62.4162C50.3325 62.1718 50.523 61.847 50.6034 61.4876C50.6838 61.1283 50.6499 60.7526 50.5066 60.4137C48.8451 56.2104 46.222 52.5953 43.684 49.0997L43.6124 48.9994C43.0817 48.268 42.551 47.5344 42.0305 46.8008C41.5535 46.1247 41.0833 45.4418 40.612 44.7555C39.423 43.0269 38.2139 41.2689 36.8615 39.6157L37.2209 39.9425C41.3811 43.7593 45.1338 48.1993 48.5697 52.4297L49.0388 53.0089C50.8816 55.2751 52.7859 57.6168 54.4362 60.0542C54.6118 60.3136 54.8473 60.5263 55.1224 60.674C55.3931 60.8172 55.6944 60.8919 56.0002 60.8915C56.2788 60.8911 56.5542 60.8316 56.8085 60.7168C57.0627 60.6021 57.2901 60.4347 57.4757 60.2255C57.7499 59.9215 57.9127 59.5324 57.9374 59.1226C57.962 58.7128 57.8469 58.3068 57.6112 57.9717C55.7337 55.1996 53.592 52.5818 51.5197 50.0508L50.9723 49.3803C50.0151 48.2061 49.0299 47.0138 48.0111 45.8159C52.9001 50.145 57.523 54.7693 61.8543 59.6632C62.0037 59.8321 62.1814 59.9732 62.3794 60.0802C62.6307 60.2132 62.9104 60.2828 63.1944 60.283C63.4804 60.2804 63.762 60.2116 64.0175 60.0821C64.2729 59.9525 64.4954 59.7657 64.6677 59.5359C64.9544 59.1804 65.1051 58.7333 65.0926 58.2757C65.0801 57.818 64.9051 57.3799 64.5994 57.0409C62.5977 54.7871 60.4504 52.5052 58.218 50.2638C58.1895 50.0053 58.1083 49.7556 57.9795 49.5302C57.5407 48.7504 57.057 47.9953 56.5891 47.2651L56.0035 47.6437L56.5711 47.2369C56.1032 46.5067 55.6262 45.7641 55.2019 45.0012C56.0237 45.9027 56.8062 46.8729 57.5709 47.8184L57.6683 47.939C58.1396 48.5193 58.6255 49.12 59.1159 49.6981C60.4974 51.3253 62.0267 52.8782 63.3836 54.2496C63.8665 54.7379 64.3483 55.2292 64.8289 55.7236C66.7725 57.7249 68.2469 59.7297 69.3385 61.8516C70.3964 63.906 71.479 66.1507 72.8494 69.1336C74.0898 71.8235 75.2911 74.5867 76.4207 77.3442C76.9928 78.7415 77.5571 80.1614 78.1 81.5723C78.2254 81.8979 78.324 82.2338 78.4359 82.5865C78.5848 83.1142 78.7692 83.6312 78.9878 84.1337C79.4077 85.0499 80.1074 85.6663 80.7791 86.2624C80.9053 86.3744 81.031 86.487 81.1564 86.6005C82.8745 88.1617 84.6747 89.6288 86.5493 90.9954C87.8144 91.9228 89.1645 92.8626 90.5673 93.7946C85.9105 98.2584 80.4135 101.739 74.3999 104.032Z" fill="#463B32"/>
<path d="M68.9388 44.3814C71.6906 44.3814 73.7786 42.8973 74.663 40.311C75.365 38.2657 74.5589 36.19 73.9107 34.5222C73.8256 34.3036 73.6554 33.8877 73.4629 33.4201C73.1774 32.7248 72.8225 31.8605 72.6792 31.4503C72.5796 31.1809 72.4721 30.897 72.3557 30.5859C71.9828 29.5977 71.5194 28.3693 70.8902 26.4638C70.8522 26.3478 70.7829 26.2448 70.6902 26.166C70.5975 26.0873 70.485 26.036 70.365 26.0178C70.2451 25.9995 70.1225 26.0152 70.0108 26.0629C69.8992 26.1106 69.8028 26.1885 69.7325 26.288C69.0832 27.212 68.2648 28.3074 67.5438 29.2742C66.6751 30.4372 65.9888 31.3579 65.7201 31.7996C65.6081 31.9889 65.3227 32.3833 65.0484 32.7654C64.6487 33.3288 64.2345 33.9035 64.0341 34.2551C63.2269 35.666 61.3348 38.9689 64.38 42.3237C64.957 42.9655 65.6602 43.4799 66.4449 43.8341C67.2296 44.1883 68.0788 44.3746 68.9388 44.3814ZM68.9063 33.7627C69.0944 33.4561 69.287 33.1271 69.4919 32.7169C69.6284 33.135 69.7751 33.5553 69.9206 33.9711C70.1356 34.5842 70.3382 35.1623 70.4961 35.7032C70.5767 35.977 70.6663 36.2396 70.7525 36.492C71.0637 37.407 71.3313 38.197 71.0883 39.1368C70.7659 40.355 69.7449 40.6108 68.9433 40.6108C68.6013 40.6062 68.264 40.53 67.9529 40.387C67.6418 40.244 67.3637 40.0374 67.1363 39.7803C66.3605 38.9261 66.5933 37.7361 68.0252 35.2378C68.3342 34.7092 68.6186 34.2371 68.9063 33.7627Z" fill="#9C6137" fill-opacity="0.69"/>
<path d="M2.98655 47.509C2.17828 47.3512 1.87093 46.8931 2.00694 46.187C2.0779 45.8185 2.24971 45.5017 2.48298 45.2764L0.880898 44.3107C0.490143 44.6964 0.216879 45.3757 0.086783 46.0511C-0.309418 48.1081 0.676573 49.4792 2.52188 49.8393L2.88789 49.9107L2.64248 51.1848L4.47254 51.5419L4.71795 50.2678L10.9096 51.4762L11.3709 49.0815L5.1792 47.8732L5.5754 45.8162L3.74534 45.4591L3.33731 47.5774L2.98655 47.509Z" fill="#463B32"/>
<path d="M13.5314 42.1692C14.4864 39.6691 13.5084 37.2098 11.1554 36.2991C8.80228 35.3885 6.43941 36.555 5.48447 39.0552C4.52954 41.5553 5.50188 44.0292 7.85496 44.9399C10.208 45.8505 12.5765 44.6693 13.5314 42.1692ZM11.6722 41.4497C11.2366 42.5901 10.0881 43.1526 8.7373 42.6298C7.38646 42.1071 6.90811 40.9151 7.3437 39.7747C7.77928 38.6343 8.92217 38.0864 10.273 38.6092C11.6239 39.1319 12.1078 40.3093 11.6722 41.4497Z" fill="#463B32"/>
<path d="M10.9803 30.8184L10.0411 30.2401L8.83542 32.2239L15.9518 36.606L17.2142 34.529L13.8544 32.4601C12.492 31.6212 12.3315 30.4794 13.0274 29.3344C13.1245 29.1746 13.2187 29.0496 13.3371 28.8847L11.4324 27.7118C10.7607 28.8169 10.6 29.8889 10.9803 30.8184Z" fill="#463B32"/>
<path d="M19.3145 18.4267C18.3318 19.3411 17.5806 20.5307 17.35 21.6411L19.1413 22.2994C19.2596 21.5282 19.7331 20.6823 20.3844 20.0763C21.3443 19.1831 22.2134 19.2064 22.9211 19.9771L21.5041 21.2955C19.63 23.0393 19.5616 24.5108 20.5651 25.6035C21.5475 26.6732 23.144 26.681 24.5838 25.3412C25.4866 24.5013 25.8519 23.6068 25.6656 22.7348L26.3734 23.5055L28.0418 21.9531L24.7988 18.4219C23.077 16.547 21.1886 16.683 19.3145 18.4267ZM23.9203 23.7188C23.2918 24.3036 22.6401 24.3554 22.2281 23.9069C21.8478 23.4928 21.8255 22.9377 22.6597 22.1615L23.8824 21.0238L24.4634 21.6564C24.7753 22.4114 24.5146 23.1659 23.9203 23.7188Z" fill="#463B32"/>
<path d="M29.7448 20.8278L31.7519 19.4532L25.2567 9.84383L23.2495 11.2184L29.7448 20.8278Z" fill="#463B32"/>
<path d="M33.6352 18.383L35.7715 17.2101L30.229 6.98227L28.0927 8.15517L33.6352 18.383Z" fill="#463B32"/>
<path d="M45.1393 13.6838C47.5657 13.0553 48.6919 11.6153 48.3041 10.0983C47.482 6.88233 42.9291 9.50103 42.5723 8.10542C42.4638 7.68067 42.8306 7.22983 43.8855 6.95659C44.624 6.76533 45.4615 6.71015 46.3766 6.95836L46.7298 5.07155C45.8449 4.81553 44.5432 4.87772 43.4279 5.16657C41.0618 5.7794 39.9545 7.23073 40.3501 8.77804C41.1838 12.0395 45.7328 9.40565 46.0741 10.7406C46.1904 11.1957 45.8572 11.5893 44.7721 11.8703C43.7774 12.128 42.5958 12.0943 41.7522 11.8114L41.4028 13.7134C42.2844 14.0189 43.7678 14.039 45.1393 13.6838Z" fill="#463B32"/>
<path d="M56.5269 11.9852L59.4635 11.8199L55.4031 7.18504L58.6854 3.42339L55.7955 3.58602L52.4405 7.16349L52.0757 0.594943L49.6519 0.731346L50.2964 12.3358L52.7203 12.1994L52.6013 10.0568L53.7023 8.83389L56.5269 11.9852Z" fill="#463B32"/>
<path d="M62.6439 2.72192C63.5419 2.81325 64.2052 2.28246 64.2866 1.47207C64.3617 0.72401 63.8142 0.101553 62.9162 0.0102166C62.0182 -0.08112 61.3549 0.449675 61.2782 1.21331C61.2016 1.97695 61.7459 2.63058 62.6439 2.72192ZM60.4772 12.1524L62.8926 12.398L63.7343 4.01358L61.3189 3.76792L60.4772 12.1524Z" fill="#463B32"/>
<path d="M72.0978 5.60829C70.9959 5.31099 69.9438 5.43426 69.1237 5.96213L69.3786 5.00492L67.1295 4.3981L64.9527 12.5724L67.3075 13.2078L68.3837 9.16617C68.7843 7.66197 69.7855 7.18297 70.9176 7.48842C71.9592 7.76943 72.4011 8.54009 72.0491 9.86196L70.9001 14.177L73.2549 14.8124L74.501 10.1326C75.1646 7.64083 74.0149 6.12551 72.0978 5.60829Z" fill="#463B32"/>
<path d="M84.7292 18.6804C84.3971 18.7123 84.0352 18.6146 83.7309 18.4236C83.1754 18.075 83.0509 17.5346 83.4303 16.9221L85.2365 14.0063L87.009 15.1187L87.9987 13.521L86.2262 12.4086L87.3067 10.6644L85.2432 9.36932L84.1628 11.1135L83.0649 10.4244L82.0752 12.0221L83.173 12.7112L81.3503 15.6536C80.2946 17.3579 80.7373 18.8376 82.4172 19.892C83.0521 20.2905 83.7645 20.5342 84.3775 20.4936L84.7292 18.6804Z" fill="#463B32"/>
<path d="M95.4229 19.3338L89.8732 22.008L91.9084 16.1698L90.041 14.4885L87.1206 23.2496L87.0455 23.2871C86.304 23.6282 85.8285 23.5994 85.3297 23.1504C84.9702 22.8266 84.7223 22.3303 84.6618 21.8345L82.849 22.5352C82.9334 23.2626 83.4426 24.0993 84.0806 24.6736C85.2057 25.6866 86.4686 26.004 88.4204 25.0292L97.1628 20.9002L95.4229 19.3338Z" fill="#463B32"/>
<path d="M101.916 26.8632C101.256 25.9522 100.435 25.4307 99.486 25.3712L100.265 24.7987L98.8985 22.9134L89.6969 29.6723L91.128 31.6462L94.2832 29.3286C94.097 30.241 94.3375 31.1308 94.9522 31.9786C96.3373 33.8892 98.7682 34.3723 100.893 32.8119C103.017 31.2514 103.301 28.7738 101.916 26.8632ZM96.3135 30.455C95.598 29.4681 95.7607 28.2045 96.9298 27.3458C98.0988 26.4871 99.344 26.7165 100.06 27.7035C100.775 28.6904 100.612 29.954 99.4432 30.8127C98.2742 31.6714 97.029 31.442 96.3135 30.455Z" fill="#463B32"/>
<path d="M105.251 42.5355C107.717 41.4476 108.465 39.0307 107.478 36.7641C106.453 34.4113 104.032 33.3762 101.737 34.3887C99.4567 35.3948 98.5451 37.8665 99.7071 40.5348C100.313 41.9264 101.209 42.8137 102.334 43.1726L103.098 41.4159C102.368 41.1052 101.87 40.6239 101.514 39.8061C101.001 38.6298 101.23 37.5542 102.091 36.9177L104.634 42.7565C104.825 42.6891 105.08 42.6109 105.251 42.5355ZM105.803 37.5205C106.24 38.5247 105.931 39.533 105.031 40.1185L103.375 36.3167C104.427 36.0406 105.359 36.5019 105.803 37.5205Z" fill="#463B32"/>
<path d="M102.255 48.5563C102.806 51.0278 104.207 52.2107 105.732 51.8661C108.965 51.1356 106.495 46.4533 107.898 46.1363C108.325 46.0398 108.764 46.4245 109.003 47.499C109.171 48.2512 109.2 49.0993 108.924 50.0162L110.795 50.4319C111.078 49.5457 111.056 48.2283 110.803 47.0924C110.265 44.6824 108.852 43.5182 107.297 43.8697C104.018 44.6106 106.503 49.2894 105.161 49.5927C104.704 49.696 104.321 49.3471 104.075 48.2418C103.849 47.2287 103.919 46.0357 104.228 45.1921L102.342 44.7798C102.01 45.661 101.943 47.1594 102.255 48.5563Z" fill="#463B32"/>
</svg>
