<svg width="110" height="111" viewBox="0 0 110 111" fill="none" xmlns="http://www.w3.org/2000/svg">
<path d="M75.294 36.7778C75.3001 36.8182 75.316 36.8564 75.3402 36.8894C75.3644 36.9223 75.3962 36.9489 75.4329 36.9669C76.3434 37.4198 76.4636 38.8731 77.4009 39.675C77.4498 39.7181 77.5134 39.7408 77.5786 39.7385C77.6437 39.7361 77.7055 39.7088 77.7511 39.6622L87.7291 29.6164C87.9761 29.3615 88.1425 29.0394 88.2075 28.6905C88.2726 28.3416 88.2335 27.9812 88.095 27.6544C87.9566 27.3276 87.7249 27.0488 87.429 26.8528C87.1331 26.6568 86.786 26.5523 86.4311 26.5523C86.1895 26.5512 85.9502 26.5991 85.7277 26.6932C85.5052 26.7873 85.3041 26.9256 85.1366 27.0997C85.1366 27.0997 80.8514 31.2413 75.3687 36.5548C75.3393 36.5833 75.3172 36.6184 75.3042 36.6572C75.2912 36.696 75.2877 36.7373 75.294 36.7778Z" fill="#463B32"/>
<path d="M32.1345 107.679C32.5695 107.678 32.9913 107.53 33.3306 107.258C33.6699 106.985 33.9065 106.606 34.0016 106.181C34.0966 105.757 34.0445 105.313 33.8537 104.922C33.6628 104.531 33.3447 104.216 32.9516 104.03C28.4444 101.892 24.278 99.0991 20.5876 95.7424C20.6249 95.7424 20.6611 95.7494 20.6985 95.7494H20.786C21.1629 95.7312 21.5247 95.5953 21.8202 95.3607C21.8973 95.2988 27.9089 88.7818 28.1657 88.504C28.238 88.4258 31.7901 84.5002 31.7423 84.4045C31.4621 83.864 31.1586 83.2909 30.8376 82.7236C30.6228 82.3501 28.2018 84.1045 27.9252 83.7065C27.9033 83.6751 27.8746 83.6491 27.8412 83.6303C27.8079 83.6115 27.7708 83.6004 27.7326 83.5979C27.6544 83.5979 26.2151 85.2554 26.1661 85.3126C22.2673 89.5861 19.753 92.3304 19.5592 92.5394C19.3257 92.7303 19.1438 92.9767 19.03 93.2561C18.9162 93.5354 18.8742 93.8388 18.9078 94.1385C9.45275 84.7208 3.82989 71.7604 3.82989 58.0692C3.82989 47.5414 5.9462 39.8804 12.008 31.2845C12.1578 31.0791 12.2653 30.8459 12.3242 30.5985C12.3831 30.3512 12.3921 30.0946 12.3509 29.8437C12.3096 29.5928 12.2188 29.3526 12.0838 29.1372C11.9488 28.9217 11.7723 28.7352 11.5646 28.5886C11.3568 28.4421 11.122 28.3383 10.8737 28.2833C10.6254 28.2284 10.3687 28.2234 10.1185 28.2687C9.86831 28.3139 9.62961 28.4085 9.41631 28.5469C9.20301 28.6853 9.01938 28.8647 8.87611 29.0748C2.35793 38.3186 0 46.7464 0 58.0692C0.0096842 68.4261 2.95705 78.5679 8.49986 87.3168C14.0427 96.0658 21.9535 103.063 31.3139 107.496C31.5706 107.617 31.8508 107.679 32.1345 107.679Z" fill="#463B32"/>
<path d="M100.418 27.9145C100.124 27.4997 99.6767 27.2186 99.1754 27.1333C98.6741 27.0479 98.1594 27.1651 97.7445 27.4593C97.3297 27.7534 97.0487 28.2002 96.9633 28.7015C96.8779 29.2028 96.9952 29.7175 97.2893 30.1324C103.383 38.7412 105.515 47.5122 105.515 58.0704C105.515 76.7307 95.2909 93.8678 78.8332 102.795C78.6024 102.91 78.3969 103.07 78.2293 103.265C78.0616 103.461 77.9351 103.688 77.8573 103.934C77.7796 104.18 77.7522 104.439 77.7767 104.695C77.8013 104.952 77.8773 105.201 78.0003 105.427C78.1233 105.653 78.2907 105.853 78.4924 106.013C78.6942 106.173 78.9262 106.291 79.1746 106.36C79.423 106.429 79.6827 106.446 79.9381 106.412C80.1935 106.378 80.4394 106.293 80.6612 106.162C89.3322 101.474 96.5753 94.5301 101.625 86.0646C106.674 77.599 109.342 67.9263 109.346 58.0692C109.346 46.7114 106.971 37.1746 100.418 27.9145Z" fill="#463B32"/>
<path d="M78.1573 73.516C78.0085 73.5161 77.8611 73.4859 77.7243 73.4273C77.5711 73.3695 77.4314 73.2808 77.3139 73.1667C77.1965 73.0527 77.1037 72.9157 77.0414 72.7643C77.0086 72.6801 76.9863 72.5923 76.9749 72.5028C76.9146 72.2471 76.9461 71.9783 77.0638 71.7435C77.1816 71.5086 77.3781 71.3226 77.619 71.2179C77.86 71.1132 78.13 71.0965 78.382 71.1707C78.6341 71.2449 78.852 71.4052 78.9978 71.6238C79.0253 71.665 79.0502 71.7079 79.0725 71.7522C79.19 71.9199 79.2594 72.1167 79.273 72.3211C79.2866 72.5255 79.2439 72.7297 79.1495 72.9115C79.0552 73.0933 78.9128 73.2458 78.7379 73.3524C78.563 73.4589 78.3622 73.5155 78.1573 73.516Z" fill="#BD967A"/>
<path d="M55.0298 44.7258C53.9046 44.7173 52.828 44.2664 52.0326 43.4706C51.2371 42.6748 50.7867 41.5981 50.7786 40.4729C50.7704 39.3478 51.2053 38.2646 51.9892 37.4575C52.773 36.6503 53.843 36.1839 54.9679 36.1591L70.026 35.942C70.8669 35.9434 71.6889 36.1923 72.3893 36.6578C73.0896 37.1232 73.6375 37.7846 73.9645 38.5594C74.2915 39.3341 74.3832 40.188 74.2281 41.0145C74.0731 41.8411 73.6781 42.6037 73.0925 43.2072C72.7024 43.6125 72.2357 43.9362 71.7196 44.1596C71.2034 44.3831 70.6479 44.5017 70.0855 44.5087L55.0298 44.7258ZM70.0271 38.182H69.9956L55.0006 38.398C54.4706 38.4193 53.9697 38.6457 53.6036 39.0296C53.2375 39.4134 53.035 39.9244 53.0388 40.4548C53.0426 40.9852 53.2524 41.4933 53.6239 41.8719C53.9954 42.2504 54.4995 42.4697 55.0298 42.4835H55.0589L70.0552 42.2664C70.5956 42.2556 71.11 42.0317 71.486 41.6434C71.8621 41.255 72.0695 40.7338 72.0629 40.1932C72.0529 39.6587 71.8344 39.1493 71.4541 38.7736C71.0738 38.3978 70.5617 38.1856 70.0271 38.182Z" fill="#BD967A"/>
<path d="M58.039 37.9719C57.7447 37.9713 57.4625 37.8551 57.253 37.6483C57.0436 37.4415 56.9239 37.1607 56.9196 36.8665L56.8391 31.3078C56.835 31.0107 56.949 30.7241 57.156 30.511C57.3631 30.2978 57.6462 30.1755 57.9433 30.1709L66.9548 30.0413H66.97C67.2641 30.0413 67.5463 30.157 67.7558 30.3634C67.9653 30.5698 68.0851 30.8503 68.0894 31.1444L68.1711 36.7054C68.1749 37.0021 68.0609 37.2882 67.8541 37.5011C67.6474 37.714 67.3647 37.8362 67.068 37.8412L58.0554 37.9719H58.039ZM59.0954 32.3946L59.1433 35.7155L65.9136 35.6175L65.8657 32.2965L59.0954 32.3946Z" fill="#BD967A"/>
<path d="M56.49 50.2658C56.1962 50.2659 55.914 50.1503 55.7046 49.9442C55.4952 49.738 55.3752 49.4578 55.3706 49.1639L55.2912 43.6029C55.2891 43.4559 55.3159 43.3099 55.3702 43.1733C55.4245 43.0367 55.5051 42.912 55.6075 42.8066C55.71 42.7011 55.8322 42.6169 55.9672 42.5586C56.1022 42.5004 56.2473 42.4693 56.3943 42.4671C56.5413 42.465 56.6873 42.4918 56.824 42.5461C56.9606 42.6004 57.0852 42.681 57.1907 42.7835C57.2961 42.8859 57.3804 43.0081 57.4386 43.1431C57.4969 43.2781 57.528 43.4232 57.5301 43.5702L57.6107 49.1312C57.6128 49.2782 57.586 49.4241 57.5317 49.5607C57.4774 49.6973 57.3968 49.8218 57.2943 49.9272C57.1918 50.0326 57.0696 50.1167 56.9346 50.1748C56.7996 50.2329 56.6545 50.2639 56.5076 50.2658H56.49Z" fill="#BD967A"/>
<path d="M68.9533 50.0873C68.659 50.0873 68.3765 49.9714 68.167 49.7648C67.9575 49.5581 67.8378 49.2772 67.8338 48.983L67.7533 43.4232C67.7574 43.1316 67.875 42.8531 68.0812 42.6469C68.2874 42.4406 68.5658 42.3229 68.8574 42.3186C69.149 42.3144 69.4308 42.4239 69.6429 42.6241C69.855 42.8242 69.9807 43.0991 69.9933 43.3905L70.0716 48.9503C70.0739 49.0974 70.0472 49.2435 69.993 49.3803C69.9388 49.5171 69.8581 49.6419 69.7557 49.7474C69.6532 49.853 69.531 49.9374 69.3959 49.9957C69.2608 50.054 69.1156 50.0851 68.9684 50.0873H68.9533Z" fill="#BD967A"/>
<path d="M48.9155 83.1917C48.7626 83.1921 48.6112 83.1613 48.4707 83.1011C48.3302 83.0409 48.2035 82.9525 48.0984 82.8415C45.3433 79.9114 43.4998 76.2434 42.7922 72.2842C42.0846 68.325 42.5436 64.2455 44.1131 60.5425C45.6827 56.8395 48.2952 53.6728 51.6324 51.4281C54.9696 49.1834 58.8875 47.9575 62.909 47.8997H63.2101C66.115 47.9 68.9875 48.5101 71.6418 49.6906C74.296 50.8712 76.6728 52.5958 78.6184 54.7529C78.7169 54.8621 78.7929 54.9897 78.8421 55.1283C78.8913 55.2669 78.9127 55.4138 78.9051 55.5607C78.8975 55.7075 78.8611 55.8515 78.7979 55.9843C78.7346 56.1171 78.6459 56.2361 78.5367 56.3346C78.4275 56.4331 78.2999 56.5091 78.1613 56.5583C78.0227 56.6075 77.8758 56.6289 77.7289 56.6213C77.582 56.6137 77.4381 56.5773 77.3053 56.5141C77.1725 56.4508 77.0535 56.3621 76.955 56.2529C75.3133 54.4531 73.3324 52.9952 71.1258 51.963C68.9192 50.9309 66.5305 50.3447 64.0968 50.2382C61.6631 50.1317 59.2323 50.507 56.944 51.3425C54.6557 52.1779 52.5549 53.4572 50.7624 55.1067C48.9698 56.7562 47.5207 58.7436 46.4982 60.9547C45.4758 63.1658 44.9001 65.5571 44.8043 67.9912C44.7085 70.4254 45.0945 72.8545 45.94 75.1391C46.7855 77.4238 48.074 79.5189 49.7314 81.3042C49.881 81.4636 49.9807 81.6632 50.0183 81.8786C50.0558 82.094 50.0296 82.3156 49.9427 82.5163C49.8559 82.7169 49.7122 82.8877 49.5295 83.0077C49.3468 83.1277 49.1329 83.1917 48.9143 83.1917H48.9155Z" fill="#BD967A"/>
<path d="M22.7272 84.75C22.4364 84.7416 22.1602 84.6203 21.9571 84.4119C21.7541 84.2035 21.64 83.9243 21.6391 83.6334C21.6382 83.3424 21.7505 83.0625 21.9523 82.8528C22.154 82.6432 22.4294 82.5202 22.7202 82.5099C37.7713 82.4072 66.7564 82.2053 66.7564 82.2053L66.7728 84.4465L22.7354 84.75H22.7272Z" fill="#BD967A"/>
<path d="M27.5084 83.6644C27.3607 83.6648 27.2143 83.6358 27.0778 83.5791C26.9413 83.5224 26.8175 83.4391 26.7135 83.334C23.9474 80.5436 22.2559 76.8657 21.9376 72.9495C21.6193 69.0334 22.6946 65.1306 24.9737 61.93C27.2528 58.7295 30.5893 56.4369 34.3942 55.4569C38.1991 54.4769 42.228 54.8725 45.7696 56.5739C45.9021 56.6377 46.0206 56.727 46.1186 56.8367C46.2165 56.9463 46.2919 57.0742 46.3404 57.213C46.3889 57.3518 46.4096 57.4988 46.4013 57.6456C46.393 57.7924 46.3558 57.9361 46.292 58.0686C46.2281 58.201 46.1388 58.3196 46.0292 58.4175C45.9195 58.5154 45.7916 58.5908 45.6528 58.6393C45.514 58.6878 45.367 58.7085 45.2202 58.7002C45.0734 58.6919 44.9297 58.6548 44.7973 58.5909C41.7313 57.1177 38.2434 56.7751 34.9494 57.6235C31.6553 58.4719 28.7669 60.4568 26.7941 63.2277C24.8212 65.9987 23.8907 69.3775 24.1669 72.7678C24.443 76.1581 25.9081 79.3419 28.3034 81.757C28.4595 81.9138 28.5656 82.1133 28.6083 82.3303C28.6509 82.5473 28.6283 82.7721 28.5432 82.9763C28.4581 83.1805 28.3144 83.3548 28.1302 83.4773C27.946 83.5998 27.7296 83.6649 27.5084 83.6644Z" fill="#BD967A"/>
<path d="M34.3406 56.9159C34.0466 56.9156 33.7644 56.7996 33.5551 56.593C33.3459 56.3863 33.2263 56.1057 33.2224 55.8116L33.1605 51.593C33.1583 51.446 33.1852 51.3 33.2395 51.1634C33.2937 51.0268 33.3744 50.9022 33.4768 50.7967C33.5793 50.6912 33.7015 50.607 33.8364 50.5487C33.9714 50.4905 34.1166 50.4594 34.2636 50.4573C34.4106 50.4551 34.5566 50.4819 34.6932 50.5362C34.8299 50.5905 34.9545 50.6711 35.06 50.7736C35.1654 50.876 35.2497 50.9982 35.3079 51.1332C35.3662 51.2682 35.3972 51.4133 35.3994 51.5603L35.4612 55.7789C35.4634 55.9261 35.4366 56.0722 35.3822 56.209C35.3279 56.3458 35.2472 56.4706 35.1446 56.5761C35.0421 56.6817 34.9197 56.7661 34.7846 56.8244C34.6495 56.8826 34.5041 56.9137 34.357 56.9159H34.3406Z" fill="#BD967A"/>
<path d="M43.351 56.7851C43.0569 56.7848 42.7747 56.6688 42.5655 56.4622C42.3563 56.2556 42.2367 55.9749 42.2327 55.6809L42.1709 51.4635C42.1644 51.3137 42.1881 51.1642 42.2404 51.0237C42.2928 50.8833 42.3728 50.7547 42.4757 50.6458C42.5786 50.5368 42.7024 50.4496 42.8396 50.3893C42.9768 50.3289 43.1248 50.2968 43.2746 50.2947C43.4245 50.2926 43.5733 50.3206 43.7122 50.377C43.851 50.4334 43.9772 50.5171 44.0831 50.6231C44.1891 50.7292 44.2727 50.8554 44.329 50.9943C44.3852 51.1333 44.4131 51.2821 44.4109 51.4319L44.4715 55.6482C44.474 55.795 44.4475 55.9409 44.3936 56.0776C44.3397 56.2142 44.2594 56.3388 44.1573 56.4444C44.0552 56.55 43.9333 56.6344 43.7985 56.6929C43.6638 56.7513 43.5188 56.7827 43.372 56.7851H43.351Z" fill="#BD967A"/>
<path d="M32.2733 51.5756C31.4372 51.572 30.6357 51.2413 30.0403 50.6543C29.4449 50.0672 29.103 49.2704 29.0878 48.4343V48.3491C29.075 47.5037 29.3985 46.6878 29.9871 46.0808C30.5757 45.4738 31.3812 45.1254 32.2267 45.1122L44.8194 44.9313C45.6558 44.9345 46.4576 45.2651 47.0532 45.8522C47.6488 46.4393 47.9909 47.2363 48.0061 48.0725V48.1565C48.0126 48.5751 47.9365 48.9909 47.7822 49.38C47.6278 49.7691 47.3982 50.124 47.1066 50.4243C46.8149 50.7247 46.4669 50.9645 46.0825 51.1302C45.698 51.2959 45.2847 51.3842 44.8661 51.3899L32.2733 51.5756ZM44.8194 47.176L32.2593 47.3569C32.1348 47.3583 32.0118 47.3843 31.8974 47.4334C31.7829 47.4825 31.6794 47.5537 31.5926 47.643C31.5058 47.7323 31.4375 47.8379 31.3917 47.9536C31.3458 48.0694 31.3233 48.1931 31.3255 48.3176V48.404C31.3301 48.6525 31.4317 48.8893 31.6086 49.0638C31.7855 49.2383 32.0237 49.3367 32.2722 49.3378H32.2874L44.8334 49.1569C45.0845 49.1529 45.3238 49.0496 45.4988 48.8695C45.6739 48.6894 45.7704 48.4473 45.7673 48.1962V48.1122C45.7642 47.8628 45.663 47.6247 45.4856 47.4495C45.3081 47.2742 45.0688 47.176 44.8194 47.176Z" fill="#BD967A"/>
<path d="M40.2845 70.718C38.6608 70.718 37.0592 70.216 35.5768 69.7538C34.4667 69.4036 33.4185 69.0779 32.4531 68.9752C29.6656 68.6775 26.5478 68.5725 24.575 70.0409C24.4571 70.1288 24.323 70.1925 24.1804 70.2285C24.0378 70.2645 23.8895 70.2721 23.744 70.2508C23.5985 70.2295 23.4586 70.1798 23.3323 70.1044C23.206 70.029 23.0958 69.9295 23.0079 69.8116C22.9201 69.6936 22.8564 69.5595 22.8204 69.4169C22.7844 69.2743 22.7768 69.126 22.7981 68.9805C22.8194 68.835 22.8691 68.6951 22.9445 68.5688C23.0199 68.4425 23.1194 68.3323 23.2373 68.2445C25.8287 66.3149 29.4707 66.4048 32.6924 66.748C33.876 66.8741 35.0818 67.2511 36.248 67.6153C38.439 68.3005 40.5086 68.9483 42.3074 68.0063C42.5705 67.8684 42.8777 67.8407 43.1613 67.9292C43.4449 68.0178 43.6817 68.2154 43.8196 68.4785C43.9575 68.7417 43.9853 69.0488 43.8967 69.3324C43.8082 69.616 43.6106 69.8528 43.3475 69.9907C42.4021 70.4822 41.3498 70.732 40.2845 70.718Z" fill="#BD967A"/>
<path d="M76.7566 71.4113C76.5577 71.4115 76.3624 71.3588 76.1906 71.2585C76.0189 71.1581 75.877 71.0139 75.7796 70.8405C71.2131 62.7395 63.97 66.6943 63.663 66.8717C63.5222 66.9512 63.3658 66.9992 63.2046 67.0125C63.0434 67.0258 62.8812 67.0041 62.7292 66.9488C61.6658 66.5577 56.1924 64.6025 52.7477 64.3807C49.303 64.159 46.4373 64.3399 45.0797 64.8675C44.8029 64.9758 44.4945 64.9698 44.2221 64.8507C43.9498 64.7317 43.736 64.5092 43.6276 64.2325C43.5192 63.9557 43.5253 63.6472 43.6444 63.3749C43.7634 63.1026 43.9858 62.8887 44.2626 62.7804C46.5505 61.8897 50.6477 61.9995 52.8877 62.1454C56.2437 62.3625 61.0588 63.9745 63.0362 64.6807C64.2163 64.1274 67.3844 62.9169 70.8571 63.8765C73.6586 64.6492 75.9663 66.6254 77.7266 69.7468C77.8209 69.9166 77.8695 70.1081 77.8675 70.3024C77.8654 70.4967 77.8129 70.6871 77.7151 70.855C77.6173 71.0229 77.4775 71.1624 77.3094 71.2599C77.1414 71.3575 76.9509 71.4096 76.7566 71.4113Z" fill="#BD967A"/>
<path d="M72.8322 74.3156C68.9101 74.3156 66.3665 72.8612 64.8502 71.5071C62.8448 69.7165 62.1549 67.7075 62.1269 67.6235C62.0425 67.3444 62.0701 67.0434 62.204 66.7844C62.3378 66.5254 62.5674 66.3288 62.8439 66.2363C63.1204 66.1437 63.422 66.1626 63.6848 66.2889C63.9476 66.4152 64.1509 66.6389 64.2514 66.9126C64.3378 67.1624 66.5194 73.1588 75.0875 71.904C75.2331 71.8827 75.3815 71.8903 75.5242 71.9263C75.6669 71.9624 75.8011 72.0261 75.9191 72.1141C76.0372 72.202 76.1367 72.3123 76.2122 72.4387C76.2876 72.565 76.3373 72.705 76.3587 72.8507C76.38 72.9963 76.3724 73.1447 76.3363 73.2874C76.3003 73.4301 76.2365 73.5643 76.1486 73.6823C76.0607 73.8004 75.9504 73.8999 75.824 73.9754C75.6976 74.0508 75.5576 74.1006 75.412 74.1219C74.5578 74.2482 73.6957 74.313 72.8322 74.3156Z" fill="#BD967A"/>
<path d="M67.5478 85.5858C67.3179 85.5847 67.0938 85.513 66.9059 85.3804C66.718 85.2479 66.5754 85.0608 66.4972 84.8446C66.4354 84.6706 64.9704 80.5081 66.8965 76.8136C68.0637 74.5666 70.201 73.014 73.236 72.1969C73.5227 72.1195 73.8284 72.1592 74.0858 72.3072C74.3432 72.4552 74.5314 72.6993 74.6087 72.986C74.6861 73.2727 74.6465 73.5784 74.4985 73.8358C74.3505 74.0933 74.1063 74.2814 73.8197 74.3588C71.415 75.0078 69.754 76.1809 68.8844 77.849C67.8548 79.8217 68.1186 82.0512 68.3777 83.2407C70.4532 82.8905 75.4982 81.4069 76.1788 75.3031C76.1951 75.1569 76.24 75.0154 76.3111 74.8866C76.3821 74.7579 76.4778 74.6443 76.5927 74.5525C76.7076 74.4607 76.8394 74.3924 76.9807 74.3516C77.122 74.3107 77.2699 74.2981 77.4161 74.3144C77.5623 74.3307 77.7038 74.3757 77.8326 74.4467C77.9613 74.5177 78.0749 74.6134 78.1667 74.7283C78.2585 74.8432 78.3268 74.9751 78.3676 75.1164C78.4085 75.2576 78.4211 75.4056 78.4048 75.5517C77.855 80.5011 74.9286 82.9734 72.5683 84.1757C71.019 84.9598 69.3322 85.4356 67.6015 85.5765C67.5838 85.5808 67.5659 85.584 67.5478 85.5858Z" fill="#BD967A"/>
<path d="M74.4009 61.5897C74.1501 61.5895 73.9067 61.505 73.7096 61.3498C73.5126 61.1947 73.3733 60.9779 73.3142 60.7341C72.4866 57.3268 68.3462 55.7941 68.3054 55.7789C68.0277 55.6773 67.8014 55.47 67.6759 55.2023C67.5504 54.9345 67.5358 54.628 67.6353 54.3496C67.7348 54.0711 67.9403 53.8433 68.2071 53.7157C68.4738 53.5881 68.7802 53.5711 69.0594 53.6685C69.2754 53.7479 74.3753 55.612 75.4889 60.2053C75.5243 60.3479 75.5312 60.496 75.5093 60.6413C75.4874 60.7866 75.4371 60.9261 75.3612 61.0518C75.2853 61.1776 75.1853 61.2872 75.067 61.3743C74.9487 61.4614 74.8144 61.5243 74.6718 61.5594C74.583 61.5802 74.4921 61.5904 74.4009 61.5897Z" fill="#BD967A"/>
<path d="M86.8035 76.5253C83.1172 76.5253 80.0484 74.6355 79.8931 74.5409C79.6504 74.3797 79.48 74.1304 79.418 73.8457C79.3561 73.561 79.4074 73.2633 79.5612 73.0158C79.715 72.7684 79.9591 72.5905 80.2419 72.52C80.5246 72.4495 80.8236 72.4919 81.0756 72.6382C81.113 72.6615 84.972 75.0183 88.7074 74.0506C90.7081 73.5323 92.3563 72.1281 93.61 69.8787C93.758 69.6258 93.9993 69.441 94.2819 69.3639C94.5646 69.2867 94.8663 69.3233 95.1223 69.4659C95.3782 69.6085 95.5682 69.8457 95.6514 70.1266C95.7347 70.4076 95.7046 70.7099 95.5675 70.969C93.9999 73.781 91.8766 75.5483 89.2525 76.2218C88.452 76.4248 87.6293 76.5268 86.8035 76.5253Z" fill="#BD967A"/>
<path d="M94.5916 71.5444C94.3364 71.5439 94.0891 71.4557 93.8912 71.2946C90.8691 68.8515 88.098 67.8103 85.6583 68.1978C82.9024 68.6367 81.4561 70.8266 81.4409 70.8476C81.2815 71.0982 81.029 71.2752 80.7391 71.3397C80.4491 71.4041 80.1455 71.3508 79.8948 71.1913C79.6442 71.0319 79.4672 70.7794 79.4028 70.4895C79.3383 70.1995 79.3916 69.8959 79.5511 69.6452C79.6293 69.5215 81.5121 66.6103 85.2626 65.9928C88.3676 65.4827 91.7457 66.6791 95.3013 69.553C95.4809 69.6986 95.6112 69.8961 95.6742 70.1186C95.7372 70.341 95.7298 70.5775 95.6531 70.7956C95.5764 71.0138 95.4341 71.2028 95.2457 71.3369C95.0573 71.4709 94.8321 71.5434 94.6009 71.5444H94.5916Z" fill="#BD967A"/>
<path d="M76.7893 71.3192C76.6364 71.3198 76.485 71.289 76.3445 71.2288C76.2039 71.1685 76.0772 71.0801 75.9722 70.969C75.8555 70.8523 73.117 67.9142 73.2804 63.5613C73.3971 60.3162 75.0816 57.2042 78.2741 54.3152C78.4944 54.116 78.7848 54.0124 79.0814 54.0273C79.378 54.0422 79.6566 54.1743 79.8558 54.3945C80.055 54.6148 80.1585 54.9052 80.1437 55.2018C80.1288 55.4985 79.9967 55.777 79.7764 55.9762C77.0589 58.4357 75.6267 61.0061 75.5193 63.615C75.3781 67.0165 77.576 69.4036 77.5982 69.4282C77.7478 69.5876 77.8476 69.7872 77.8851 70.0026C77.9227 70.218 77.8964 70.4396 77.8095 70.6403C77.7227 70.8409 77.579 71.0117 77.3963 71.1317C77.2136 71.2517 76.9997 71.3157 76.7811 71.3157L76.7893 71.3192Z" fill="#BD967A"/>
<path d="M86.5981 87.485C86.5533 87.485 86.5084 87.4827 86.4638 87.478C82.4659 87.0029 79.5605 85.329 77.8259 82.503C76.3527 80.096 76.1053 77.4357 76.1566 75.6276C76.1608 75.4806 76.1938 75.3358 76.2539 75.2016C76.314 75.0674 76.3999 74.9463 76.5068 74.8453C76.6137 74.7442 76.7394 74.6653 76.8768 74.6128C77.0142 74.5604 77.1606 74.5355 77.3076 74.5397C77.4546 74.5438 77.5993 74.5769 77.7336 74.637C77.8678 74.697 77.9889 74.783 78.0899 74.8898C78.1909 74.9967 78.2699 75.1224 78.3223 75.2598C78.3748 75.3972 78.3996 75.5436 78.3955 75.6906C78.308 78.7408 79.1811 83.8874 85.7705 85.1095C86.5012 81.9462 85.872 79.2731 83.8911 77.1427C82.8722 76.0606 81.6336 75.2089 80.2585 74.6447C79.9788 74.5449 79.7502 74.338 79.623 74.0696C79.4958 73.8013 79.4804 73.4933 79.5803 73.2136C79.6801 72.9339 79.887 72.7053 80.1554 72.5781C80.4238 72.451 80.7317 72.4356 81.0114 72.5354C82.7243 73.2215 84.2668 74.2732 85.5312 75.6171C87.4257 77.6517 89.3319 81.2201 87.6615 86.6912C87.5925 86.9199 87.452 87.1204 87.2606 87.2633C87.0692 87.4062 86.837 87.4839 86.5981 87.485Z" fill="#BD967A"/>
<path d="M80.5409 71.081C80.3349 71.0814 80.1328 71.0248 79.9569 70.9176C79.781 70.8104 79.6381 70.6566 79.544 70.4733C79.45 70.29 79.4084 70.0843 79.4238 69.8788C79.4393 69.6734 79.5112 69.4762 79.6316 69.3091C79.8417 69.0114 84.756 61.9376 78.72 55.9377C78.5198 55.7261 78.4099 55.4449 78.4135 55.1537C78.4171 54.8625 78.534 54.5841 78.7393 54.3775C78.9447 54.171 79.2223 54.0525 79.5135 54.0472C79.8047 54.0419 80.0865 54.1501 80.2993 54.349C84.1735 58.2011 84.2739 62.4407 83.6762 65.3216C83.2784 67.2123 82.5229 69.0095 81.4502 70.6164C81.3467 70.7608 81.2102 70.8783 81.052 70.9591C80.8938 71.0399 80.7186 71.0817 80.5409 71.081Z" fill="#BD967A"/>
<path d="M18.3557 65.5317C18.3542 65.3855 18.3816 65.2404 18.4363 65.1048C18.491 64.9692 18.5721 64.8458 18.6747 64.7417C18.7773 64.6375 18.8996 64.5547 19.0343 64.4979C19.1691 64.4412 19.3137 64.4117 19.46 64.4111C20.0798 64.4041 20.5876 64.7846 20.5934 65.5317C20.5876 65.8244 20.4694 66.1037 20.2635 66.3119C20.0575 66.52 19.7795 66.641 19.4868 66.65H19.4705C19.1754 66.646 18.8937 66.5268 18.6853 66.3179C18.477 66.1089 18.3587 65.8267 18.3557 65.5317ZM19.9899 62.7524C19.8586 62.6859 19.7417 62.5942 19.6459 62.4826C19.55 62.3709 19.4772 62.2414 19.4314 62.1016C19.3857 61.9617 19.3679 61.8142 19.3792 61.6675C19.3906 61.5208 19.4307 61.3777 19.4973 61.2465C19.632 60.9824 19.8657 60.7824 20.1474 60.6901C20.4292 60.5978 20.736 60.6207 21.0008 60.7539C21.132 60.8206 21.2489 60.9125 21.3446 61.0243C21.4403 61.1361 21.5131 61.2657 21.5587 61.4056C21.6043 61.5456 21.622 61.6931 21.6106 61.8399C21.5991 61.9866 21.5589 62.1297 21.4922 62.2609C21.3993 62.4458 21.2567 62.6011 21.0804 62.7093C20.9041 62.8176 20.7011 62.8745 20.4942 62.8738C20.3185 62.8733 20.1454 62.8318 19.9887 62.7524H19.9899ZM22.0397 59.3602C21.8996 59.0979 21.8694 58.7908 21.9556 58.5063C22.0418 58.2217 22.2375 57.9831 22.4996 57.8427C22.6298 57.7731 22.7724 57.73 22.9194 57.7158C23.0663 57.7017 23.2145 57.7167 23.3556 57.7601C23.4967 57.8035 23.6277 57.8744 23.7413 57.9687C23.8548 58.0631 23.9486 58.1789 24.0171 58.3096C24.1573 58.5717 24.1877 58.8788 24.1017 59.1633C24.0157 59.4478 23.8203 59.6866 23.5584 59.8271C23.3963 59.9135 23.2156 59.9592 23.0319 59.9602C22.8273 59.9605 22.6265 59.9047 22.4514 59.799C22.2763 59.6932 22.1335 59.5414 22.0385 59.3602H22.0397Z" fill="#BD967A"/>
<path d="M85.8288 61.0505C85.8259 60.753 85.9408 60.4665 86.1483 60.2533C86.3558 60.0401 86.6391 59.9176 86.9365 59.9124C87.2346 59.9114 87.521 60.0283 87.7332 60.2375C87.9455 60.4468 88.0666 60.7314 88.0699 61.0295C88.0724 61.1771 88.0457 61.3238 87.9914 61.4612C87.9371 61.5985 87.8563 61.7238 87.7535 61.8298C87.6507 61.9359 87.528 62.0206 87.3924 62.0792C87.2568 62.1377 87.111 62.1689 86.9633 62.1711H86.9482C86.6519 62.1683 86.3686 62.0493 86.1592 61.8398C85.9499 61.6302 85.8312 61.3467 85.8288 61.0505ZM84.9369 57.7739C84.8707 57.6426 84.8311 57.4995 84.8204 57.3528C84.8096 57.2061 84.8279 57.0588 84.8742 56.9192C84.9205 56.7796 84.9939 56.6506 85.0902 56.5394C85.1865 56.4283 85.3038 56.3373 85.4354 56.2716C85.5666 56.2051 85.7097 56.1652 85.8564 56.1542C86.0031 56.1432 86.1505 56.1612 86.2902 56.2073C86.4299 56.2534 86.5591 56.3266 86.6704 56.4228C86.7817 56.519 86.8729 56.6362 86.9388 56.7677C87.0719 57.0331 87.0943 57.3404 87.0014 57.6224C86.9084 57.9044 86.7075 58.138 86.4427 58.2723C86.2862 58.3492 86.1141 58.3892 85.9397 58.389C85.7319 58.3898 85.528 58.3326 85.3509 58.224C85.1738 58.1153 85.0304 57.9594 84.9369 57.7739ZM82.9281 55.0004C82.9281 54.5918 82.4249 53.8845 82.8347 53.4199C83.2456 52.953 83.8607 52.9144 84.4198 53.3242C84.7934 53.735 84.8798 54.4424 84.4724 54.907C84.3712 55.0248 84.2459 55.1194 84.1049 55.1845C83.9639 55.2495 83.8105 55.2835 83.6553 55.284C83.385 55.289 83.1236 55.1871 82.9281 55.0004Z" fill="#BD967A"/>
<path d="M11.0298 17.016C10.46 16.3868 10.4881 15.8212 11.0343 15.3267C11.3192 15.0687 11.6557 14.9153 11.9865 14.8751L11.2586 13.0927C10.6993 13.1669 10.0564 13.5546 9.53394 14.0276C7.94296 15.4681 7.9136 17.2015 9.21433 18.6382L9.47233 18.9231L8.48687 19.8153L9.77686 21.2401L10.7623 20.3479L15.1268 25.1683L16.979 23.4913L12.6145 18.6709L14.2055 17.2304L12.9155 15.8056L11.277 17.2891L11.0298 17.016Z" fill="#463B32"/>
<path d="M17.4322 13.3521L16.7755 12.4237L14.8272 13.8018L19.8031 20.8367L21.843 19.3939L19.4937 16.0726C18.5411 14.7257 18.8517 13.584 19.9763 12.7885C20.1332 12.6776 20.2732 12.5981 20.4525 12.491L19.1206 10.608C18.0353 11.3757 17.4481 12.3207 17.4322 13.3521Z" fill="#463B32"/>
<path d="M25.2262 7.19138C23.9888 7.79628 22.8987 8.73917 22.3451 9.75851L23.9176 10.9331C24.2607 10.2127 24.9761 9.52429 25.7963 9.12337C27.005 8.53254 27.8549 8.81238 28.3261 9.77647L26.5418 10.6486C24.182 11.8022 23.6821 13.2231 24.3503 14.5901C25.0044 15.9283 26.576 16.4081 28.3891 15.5218C29.5258 14.9662 30.1488 14.1981 30.2214 13.2891L30.6927 14.2532L32.7935 13.2263L30.6342 8.80871C29.4877 6.46324 27.5861 6.03785 25.2262 7.19138ZM28.2117 13.7366C27.4203 14.1235 26.7626 13.9815 26.4883 13.4203C26.235 12.9023 26.3761 12.352 27.4265 11.8385L28.9662 11.0859L29.353 11.8773C29.4387 12.709 28.96 13.3709 28.2117 13.7366Z" fill="#463B32"/>
<path d="M40.1156 1.86089L40.3856 2.93255C39.5453 2.28534 38.4846 2.13965 37.3197 2.4331C35.0056 3.0161 33.5448 5.08534 34.1591 7.52374C34.7734 9.96214 37.0402 11.0923 39.3543 10.5093C40.4415 10.2355 41.2718 9.66292 41.7325 8.80359L41.8225 9.16081C42.202 10.6673 41.6522 11.6317 39.9437 12.0621C38.8721 12.3321 37.6133 12.2528 36.7541 11.8581L36.2294 13.8402C37.3996 14.3547 39.035 14.3557 40.6192 13.9566C43.6322 13.1975 44.9496 11.346 44.1671 8.2398L42.4142 1.28181L40.1156 1.86089ZM39.335 8.40005C38.0614 8.72089 36.9222 8.1325 36.6131 6.90553C36.304 5.67857 37.0285 4.62065 38.302 4.29981C39.5756 3.97897 40.6993 4.57127 41.0084 5.79824C41.3175 7.0252 40.6085 8.07921 39.335 8.40005Z" fill="#463B32"/>
<path d="M50.0045 1.47242L49.9238 0.338112L47.5433 0.507491L48.1549 9.10264L50.6472 8.9253L50.3585 4.86737C50.2414 3.22183 51.0986 2.40616 52.4725 2.30839C52.6642 2.29475 52.8251 2.29936 53.034 2.30056L52.8703 0C51.5443 0.0943524 50.5525 0.59846 50.0045 1.47242Z" fill="#463B32"/>
<path d="M59.8449 0.158378C58.4728 0.0366528 57.0523 0.28045 56.0516 0.867001L56.7907 2.68523C57.4568 2.24586 58.4249 2.02625 59.3343 2.10693C60.6744 2.22582 61.2574 2.90464 61.1626 3.97355L59.1843 3.79804C56.5679 3.56591 55.4055 4.52403 55.2711 6.03964C55.1394 7.52335 56.2369 8.74627 58.2471 8.92462C59.5074 9.03643 60.4376 8.7009 60.9697 7.96021L60.8748 9.02911L63.2041 9.23576L63.6386 4.33794C63.8693 1.73746 62.4613 0.390506 59.8449 0.158378ZM59.0179 7.30466C58.1404 7.22682 57.6507 6.76531 57.706 6.14311C57.7569 5.56877 58.1621 5.17057 59.3267 5.2739L61.0338 5.42535L60.9559 6.30281C60.5994 7.05907 59.8475 7.37827 59.0179 7.30466Z" fill="#463B32"/>
<path d="M74.1155 2.71775C72.9962 2.37964 71.9145 2.47115 71.0575 2.98191L71.3493 2.01598L69.0648 1.32587L66.573 9.5746L68.9648 10.2971L70.1968 6.21876C70.6554 4.70087 71.6964 4.2457 72.8463 4.59307C73.9042 4.91265 74.3322 5.7112 73.9293 7.0451L72.6139 11.3994L75.0057 12.122L76.4323 7.39965C77.1918 4.88517 76.0627 3.30596 74.1155 2.71775Z" fill="#463B32"/>
<path d="M81.9968 15.5533C83.5857 16.42 85.2206 16.3995 86.4286 15.4894L85.2334 13.6334C84.4268 14.1421 83.6535 14.1216 82.9645 13.7458C81.8537 13.14 81.4037 11.8911 82.1247 10.5694C82.8456 9.24767 84.1392 8.94983 85.25 9.55572C85.939 9.93153 86.3672 10.5847 86.3838 11.5242L88.5837 11.5383C88.7103 10.0018 87.8346 8.63027 86.2458 7.76361C83.7851 6.42145 81.1455 7.07975 79.9031 9.3576C78.6606 11.6355 79.5362 14.2111 81.9968 15.5533Z" fill="#463B32"/>
<path d="M96.8378 20.6599C98.595 18.5176 98.1609 15.9657 96.2043 14.3608C94.1734 12.695 91.4719 12.8821 89.8366 14.8759C88.2114 16.8572 88.5213 19.5352 90.8247 21.4245C92.0259 22.4097 93.2594 22.8001 94.4576 22.6021L94.3439 20.6445C93.5302 20.7021 92.8498 20.4961 92.1439 19.9172C91.1285 19.0842 90.8391 17.9975 91.3339 17.0155L96.374 21.1496C96.5184 20.9987 96.7159 20.8085 96.8378 20.6599ZM95.0181 15.8322C95.8849 16.5433 96.0696 17.6062 95.5151 18.56L92.2334 15.8683C93.0705 15.1255 94.1389 15.1111 95.0181 15.8322Z" fill="#463B32"/>
<path d="M42.118 100.86C42.3393 100.041 42.8302 99.7586 43.5415 99.9507C43.9126 100.051 44.2235 100.251 44.4363 100.508L45.5421 98.9314C45.1772 98.5011 44.5034 98.1698 43.8231 97.9861C41.7511 97.4267 40.277 98.3393 39.7718 100.21L39.6716 100.581L38.3882 100.235L37.8872 102.09L39.1706 102.437L37.4755 108.715L39.8877 109.366L41.5828 103.088L43.6548 103.648L44.1558 101.792L42.0219 101.216L42.118 100.86Z" fill="#463B32"/>
<path d="M47.8932 103.286L48.0103 102.155L45.6365 101.91L44.7493 110.481L47.2346 110.738L47.6535 106.691C47.8233 105.05 48.8089 104.396 50.179 104.537C50.3702 104.557 50.5279 104.59 50.7333 104.627L50.9708 102.333C49.6485 102.196 48.5844 102.521 47.8932 103.286Z" fill="#463B32"/>
<path d="M61.517 106.153C61.2313 103.397 59.1126 101.91 56.5955 102.171C53.9828 102.442 52.2149 104.493 52.4808 107.058C52.7451 109.607 54.8661 111.271 57.8293 110.964C59.3746 110.803 60.5198 110.201 61.2222 109.211L59.7513 107.914C59.2196 108.533 58.5946 108.871 57.6865 108.966C56.3801 109.101 55.4043 108.542 55.0547 107.499L61.5386 106.827C61.5331 106.618 61.5369 106.344 61.517 106.153ZM56.8063 104.049C57.9215 103.933 58.8067 104.55 59.0942 105.615L54.8725 106.053C54.9338 104.936 55.6752 104.166 56.8063 104.049Z" fill="#463B32"/>
<path d="M72.9392 102.507C71.9629 99.9133 69.536 99.0129 67.1677 99.9045C64.7094 100.83 63.5203 103.263 64.4289 105.676C65.3318 108.074 67.8058 109.145 70.5938 108.096C72.0478 107.548 73.0027 106.676 73.4305 105.539L71.6785 104.658C71.3214 105.392 70.8028 105.878 69.9484 106.2C68.7192 106.662 67.6335 106.369 67.0305 105.45L73.1312 103.153C73.0729 102.952 73.0069 102.686 72.9392 102.507ZM67.8486 101.668C68.8979 101.273 69.9106 101.644 70.4592 102.602L66.487 104.097C66.2625 103.001 66.7843 102.068 67.8486 101.668Z" fill="#463B32"/>
</svg>
