<svg width="102" height="104" viewBox="0 0 102 104" fill="none" xmlns="http://www.w3.org/2000/svg">
<path d="M63.2885 38.2264C64.0096 39.0046 64.6651 39.8412 65.2482 40.7275C65.2677 40.7573 65.2936 40.7823 65.324 40.8008C65.3544 40.8192 65.3886 40.8306 65.424 40.8341H65.4496C65.4813 40.834 65.5127 40.8276 65.542 40.8154C65.5713 40.8031 65.5978 40.7852 65.6201 40.7627L81.1031 25.512C81.2791 25.3424 81.4196 25.1394 81.5163 24.9149C81.613 24.6904 81.6639 24.4488 81.6662 24.2044C81.6684 23.9599 81.6219 23.7175 81.5294 23.4912C81.4368 23.2649 81.3001 23.0594 81.1272 22.8866C80.9543 22.7137 80.7487 22.5771 80.5224 22.4847C80.2961 22.3922 80.0537 22.3458 79.8092 22.3482C79.5648 22.3505 79.3232 22.4016 79.0988 22.4984C78.8743 22.5951 78.6713 22.7357 78.5018 22.9118L63.2949 37.8886C63.2504 37.9332 63.2249 37.9933 63.2237 38.0562C63.2226 38.1192 63.2457 38.1801 63.2885 38.2264Z" fill="#463B32"/>
<path d="M10.3135 21.5478C10.1489 21.7823 10.0412 22.0519 9.99876 22.3352C9.95632 22.6185 9.98034 22.9078 10.0689 23.1803C10.1575 23.4527 10.3082 23.7009 10.5091 23.9051C10.7101 24.1092 10.9557 24.2639 11.2267 24.3569C11.5509 24.4672 11.8993 24.4851 12.2331 24.4087C12.5668 24.3322 12.8727 24.1644 13.1165 23.9239C13.3603 23.6835 13.5323 23.3799 13.6134 23.0472C13.6944 22.7146 13.6813 22.3659 13.5754 22.0403C13.4696 21.7146 13.2752 21.4249 13.014 21.2035C12.7528 20.9821 12.4351 20.8377 12.0965 20.7866C11.758 20.7355 11.4118 20.7796 11.0969 20.9141C10.782 21.0485 10.5107 21.2679 10.3135 21.5478ZM10.0737 22.055V22.0422L11.7883 22.6273L10.0737 22.055Z" fill="#463B32"/>
<path d="M6.62521 27.8874C2.27977 35.5569 -0.00290034 44.222 2.76568e-06 53.037C2.76568e-06 81.1384 22.8616 104 50.9641 104C79.0666 104 101.928 81.1363 101.928 53.0348C101.93 44.2213 99.646 35.558 95.2998 27.8906C95.0579 27.4779 94.6631 27.177 94.201 27.0531C93.7389 26.9292 93.2466 26.9922 92.8307 27.2285C92.4147 27.4648 92.1084 27.8553 91.9782 28.3157C91.848 28.776 91.9042 29.2692 92.1348 29.6884C96.1681 36.8082 98.2866 44.852 98.2837 53.0348C98.2837 79.1286 77.0589 100.362 50.9684 100.362C39.1743 100.37 27.8053 95.9578 19.1052 87.9949L21.3814 85.7399C25.1634 81.9899 25.0046 82.2094 28.6961 78.6117C28.7394 78.5693 28.7652 78.5122 28.7686 78.4517C28.7719 78.3911 28.7525 78.3315 28.7142 78.2846C28.0342 77.4551 27.4772 76.532 27.0603 75.5437C27.0451 75.507 27.0212 75.4747 26.9905 75.4496C26.9598 75.4244 26.9234 75.4072 26.8845 75.3995C26.8456 75.3918 26.8054 75.3939 26.7675 75.4054C26.7295 75.417 26.6951 75.4378 26.6671 75.4659C22.1455 79.8894 20.7942 81.1832 17.4427 84.5091C17.0676 84.8831 16.7511 85.1975 16.5103 85.4351C8.5402 76.9631 3.64776 65.5627 3.64776 53.0391C3.64488 44.8553 5.76418 36.8106 9.79874 29.6905C10.0238 29.2716 10.0761 28.7812 9.94443 28.3243C9.81276 27.8673 9.50757 27.48 9.09409 27.245C8.68061 27.0101 8.19165 26.9463 7.7317 27.0671C7.27175 27.1879 6.87731 27.4838 6.63267 27.8917L6.62521 27.8874Z" fill="#463B32"/>
<path d="M89.4067 24.3718C89.4843 24.3719 89.5619 24.3673 89.639 24.3579C89.8761 24.3278 90.105 24.2512 90.3126 24.1326C90.5201 24.014 90.7023 23.8557 90.8486 23.6667C90.995 23.4777 91.1027 23.2617 91.1656 23.031C91.2284 22.8004 91.2453 22.5597 91.2151 22.3225C91.116 21.5425 90.4692 20.7017 89.2841 20.7017C88.8383 20.7028 88.4083 20.8676 88.076 21.1649C87.7437 21.4622 87.5321 21.8712 87.4815 22.3142C87.4308 22.7572 87.5447 23.2034 87.8014 23.568C88.0581 23.9325 88.4397 24.1902 88.8739 24.2919C89.0464 24.3453 89.2261 24.3722 89.4067 24.3718Z" fill="#463B32"/>
<path d="M28.8674 18.4456C31.274 17.1351 32.1378 14.5663 30.8963 12.2863C29.6548 10.0064 27.0283 9.33819 24.6217 10.6487C22.215 11.9592 21.3372 14.5357 22.5787 16.8156C23.8202 19.0956 26.4608 19.7561 28.8674 18.4456ZM27.8864 16.6441C26.7887 17.2419 25.5151 16.9136 24.8023 15.6047C24.0896 14.2959 24.5049 13.0479 25.6026 12.4501C26.7004 11.8524 27.9599 12.1883 28.6726 13.4972C29.3854 14.8061 28.9842 16.0464 27.8864 16.6441Z" fill="#463B32"/>
<path d="M32.4942 5.93188C33.3683 5.61573 33.7488 4.83051 33.4654 4.04688C33.2038 3.32354 32.4198 2.99361 31.5458 3.30975C30.6717 3.62589 30.2912 4.41112 30.5582 5.14954C30.8253 5.88795 31.6202 6.24802 32.4942 5.93188ZM34.6601 15.5948L37.0109 14.7444L34.0785 6.63695L31.7276 7.48726L34.6601 15.5948Z" fill="#463B32"/>
<path d="M39.3624 13.998L41.7832 13.3737L38.814 1.85974L36.3933 2.48398L39.3624 13.998Z" fill="#463B32"/>
<path d="M52.0398 3.25644C52.0077 2.40771 52.3929 1.9922 53.1295 1.96429C53.5138 1.94972 53.8704 2.04847 54.1499 2.23032L54.7379 0.395896C54.2613 0.0932183 53.5193 -0.0229925 52.8147 0.00370617C50.6688 0.0850159 49.5317 1.395 49.6052 3.33265L49.6197 3.71698L48.2906 3.76735L48.3634 5.68899L49.6925 5.63862L49.9389 12.1402L52.437 12.0455L52.1907 5.54396L54.3365 5.46265L54.2637 3.54101L52.0538 3.62475L52.0398 3.25644Z" fill="#463B32"/>
<path d="M59.0102 4.73568L59.1122 3.60248L56.734 3.38845L55.9612 11.9753L58.4511 12.1994L58.8159 8.14536C58.9639 6.50141 59.9412 5.83314 61.3138 5.95667C61.5053 5.97391 61.6635 6.00424 61.8695 6.03887L62.0764 3.74054C60.7516 3.62131 59.6914 3.96032 59.0102 4.73568Z" fill="#463B32"/>
<path d="M72.0763 10.6417C72.7682 7.95709 71.2989 5.82424 68.8471 5.19232C66.3021 4.5364 63.9294 5.84456 63.2855 8.34296C62.6456 10.8259 64.0553 13.1254 66.9417 13.8693C68.447 14.2573 69.7308 14.0917 70.7347 13.4071L69.8066 11.6785C69.0925 12.0737 68.3882 12.1735 67.5037 11.9456C66.2312 11.6176 65.5107 10.7534 65.5459 9.65368L71.8617 11.2815C71.9292 11.0837 72.0283 10.8279 72.0763 10.6417ZM68.3906 7.02745C69.4769 7.30741 70.0923 8.19418 69.9911 9.2934L65.8788 8.23354C66.3255 7.20679 67.2889 6.74348 68.3906 7.02745Z" fill="#463B32"/>
<path d="M82.1117 15.333C83.3222 12.8389 82.3051 10.4571 80.0272 9.35148C77.6629 8.20393 75.0779 9.01561 73.9514 11.3367C72.8318 13.6434 73.7575 16.1768 76.439 17.4783C77.8375 18.1571 79.1287 18.2493 80.2483 17.7775L79.6815 15.8992C78.9032 16.1449 78.1931 16.1031 77.3714 15.7042C76.1892 15.1304 75.6543 14.1405 75.9069 13.0696L81.7745 15.9175C81.8799 15.7371 82.0277 15.506 82.1117 15.333ZM79.216 11.0597C80.2251 11.5495 80.6525 12.5407 80.3353 13.598L76.5148 11.7437C77.1562 10.8259 78.1924 10.5629 79.216 11.0597Z" fill="#463B32"/>
<path d="M70.1417 54.677C68.929 52.0246 65.3729 46.6846 61.6068 41.0216L61.5908 40.9971C57.389 34.6842 53.0453 28.1559 51.4202 24.6392L49.7631 21.0586L46.5608 27.5591L46.4361 27.8192C44.34 31.8687 40.0731 37.8097 36.2985 43.0666L36.2846 43.0858C32.7456 48.0252 29.6808 52.2878 28.5895 54.677C27.4094 57.2574 26.8002 60.0622 26.8035 62.8997C26.8173 65.743 27.3969 68.5552 28.5085 71.1724C30.6974 76.4112 34.733 80.7825 39.8717 83.4797C42.4431 84.8288 45.7743 85.6345 48.7827 85.6345C48.9649 85.6345 49.1599 85.6345 49.3763 85.6227C49.4977 85.6227 49.6203 85.6291 49.7492 85.6291C52.2461 85.6291 56.1805 84.8906 58.8692 83.4797C64.0078 80.7825 68.0445 76.4112 70.2333 71.1724C72.5234 65.6789 72.4947 59.821 70.1417 54.677ZM51.1815 81.7789L49.3635 81.8578L47.5337 81.7821V81.813C45.4578 81.6318 43.2945 81.0265 41.6172 80.1474C32.3321 75.273 28.1142 64.7742 32.0135 56.2435C32.9534 54.1836 36.063 49.8496 39.3569 45.2672C43.2018 39.9112 47.5487 33.8583 49.777 29.5594C51.9637 33.3318 55.2662 38.2978 58.4749 43.1157C62.1535 48.6432 65.6286 53.8639 66.7156 56.2446C70.6148 64.7699 66.3959 75.2741 57.113 80.1463C55.4313 81.0287 53.0112 81.5807 51.1815 81.7789Z" fill="#BD967A"/>
<path d="M35.9234 68.1704C35.0165 65.9474 34.6297 63.9589 34.6297 61.5175C34.6343 61.3653 34.6084 61.2137 34.5534 61.0718C34.4984 60.9298 34.4154 60.8003 34.3094 60.691C34.2034 60.5818 34.0765 60.4949 33.9363 60.4355C33.7961 60.3762 33.6454 60.3456 33.4932 60.3456C33.3409 60.3456 33.1902 60.3762 33.05 60.4355C32.9098 60.4949 32.7829 60.5818 32.6769 60.691C32.5709 60.8003 32.488 60.9298 32.4329 61.0718C32.3779 61.2137 32.352 61.3653 32.3566 61.5175C32.3566 64.2711 32.7936 66.5175 33.8176 69.0293C33.9032 69.2386 34.0491 69.4177 34.2368 69.5437C34.4245 69.6697 34.6455 69.737 34.8716 69.7369C35.0177 69.736 35.1623 69.7074 35.2978 69.6527C35.4363 69.5965 35.5623 69.5136 35.6687 69.4087C35.7751 69.3037 35.8598 69.1789 35.9179 69.0412C35.9759 68.9035 36.0063 68.7558 36.0073 68.6064C36.0082 68.4569 35.9797 68.3088 35.9234 68.1704Z" fill="#BD967A"/>
<path d="M36.2996 72.4938C36.4013 72.493 36.5026 72.4798 36.6011 72.4543C36.6583 72.4411 36.7142 72.4233 36.7685 72.401C36.8224 72.3799 36.8747 72.355 36.9251 72.3264C37.0576 72.2411 37.1714 72.1297 37.2597 71.9992C37.348 71.8686 37.4089 71.7215 37.4388 71.5667C37.4687 71.412 37.4669 71.2528 37.4335 71.0987C37.4002 70.9447 37.336 70.799 37.2448 70.6704C36.6843 69.9149 35.9447 70.111 35.6314 70.3198C35.5969 70.3435 35.5639 70.3691 35.5323 70.3965C35.3188 70.5746 35.1778 70.8246 35.136 71.0995C35.0942 71.3743 35.1544 71.655 35.3053 71.8885C35.6229 72.367 35.9905 72.4938 36.2996 72.4938Z" fill="#BD967A"/>
<path d="M44.2121 75.9305C42.3569 75.2575 40.6592 74.2115 39.2237 72.8572C39.0029 72.6569 38.7123 72.5514 38.4144 72.5633C38.1166 72.5752 37.8353 72.7036 37.6312 72.9208C37.4271 73.1381 37.3164 73.4268 37.3231 73.7248C37.3297 74.0229 37.4532 74.3064 37.6668 74.5143C39.3269 76.0794 41.2896 77.2885 43.4341 78.0672C43.5584 78.1129 43.6897 78.1363 43.822 78.1364C44.0896 78.1369 44.3489 78.043 44.5541 77.8713C44.7593 77.6995 44.8973 77.4609 44.9439 77.1973C44.9905 76.9338 44.9426 76.6623 44.8088 76.4306C44.6749 76.1989 44.4636 76.0218 44.2121 75.9305Z" fill="#BD967A"/>
</svg>
