<svg width="110" height="113" viewBox="0 0 110 113" fill="none" xmlns="http://www.w3.org/2000/svg">
<path d="M39.2423 67.4683L37.8227 65.3263L34.6955 69.4912L34.68 69.5102C32.0431 73.1265 30.0261 76.0633 28.7612 78.6396C26.8216 82.5903 26.9691 86.7016 29.1539 89.6396C30.2939 91.1734 31.4398 92.2932 33.6198 93.1321C34.0448 93.2877 34.4828 93.4047 34.9288 93.4819C35.1453 93.5224 35.3623 93.5577 35.5797 93.5879C35.6725 93.601 35.7831 93.6164 35.876 93.6259C36.5969 93.7156 37.324 93.747 38.05 93.7199C38.789 93.6462 39.5303 93.5736 40.2586 93.4272C41.4217 93.2021 42.5302 92.7535 43.5226 92.1064C44.507 91.4344 45.3694 90.5994 46.0727 89.6372C48.2931 86.6492 48.4347 82.5308 46.4523 78.6182C45.3373 76.4215 43.306 73.449 41.3438 70.5764C40.5917 69.4805 39.8873 68.4488 39.2423 67.4683ZM43.1597 87.4715C41.8067 89.2862 40.3133 90.0001 37.6526 90.1037L37.2646 90.1191L36.5792 90.0513C36.0142 90.0104 35.4555 89.9071 34.9133 89.7431C33.5198 89.2076 32.8808 88.5841 32.0574 87.4715C30.6996 85.6473 30.6818 82.9425 32.011 80.2365C33.1593 77.8971 35.0751 75.1197 37.5966 71.6569L37.6418 71.5974C37.8703 71.933 38.1036 72.2737 38.3415 72.6196C40.2383 75.3981 42.2018 78.2707 43.2097 80.2568C44.5591 82.9151 44.5376 85.6128 43.1549 87.4715H43.1597Z" fill="#463B32"/>
<path d="M74.4103 38.9986C74.4166 39.039 74.4325 39.0773 74.4568 39.1102C74.481 39.1431 74.5128 39.1697 74.5495 39.1878C75.5502 39.7022 76.4841 40.3372 77.3304 41.0786C77.3772 41.1176 77.4361 41.1391 77.497 41.1393C77.5306 41.1394 77.5639 41.1329 77.595 41.12C77.626 41.1071 77.6542 41.0882 77.6779 41.0643L87.6533 31.0271C87.8997 30.7724 88.0656 30.4507 88.1303 30.1023C88.195 29.7539 88.1557 29.3942 88.0172 29.068C87.8787 28.7418 87.6472 28.4636 87.3516 28.2681C87.056 28.0727 86.7094 27.9686 86.355 27.9689C86.1127 27.967 85.8725 28.0144 85.6491 28.1083C85.4257 28.2022 85.2238 28.3406 85.0556 28.5151C85.0556 28.5151 79.959 33.4689 74.4805 38.7761C74.4518 38.8048 74.4305 38.84 74.4183 38.8788C74.406 38.9175 74.4033 38.9586 74.4103 38.9986Z" fill="#463B32"/>
<path d="M52.4508 60.1108C52.2963 59.7549 52.1186 59.4094 51.9189 59.0767L51.8785 59.0148C51.8576 58.9825 51.8298 58.9553 51.797 58.9351C51.7643 58.915 51.7274 58.9024 51.6891 58.8984C51.6509 58.8945 51.6122 58.8991 51.576 58.912C51.5398 58.925 51.5069 58.9459 51.4798 58.9732C50.1031 60.3869 47.0437 63.664 42.3874 68.7141C42.3536 68.7512 42.3314 68.7972 42.3234 68.8466C42.3154 68.8961 42.3219 68.9468 42.3422 68.9926C42.391 69.0985 42.6444 69.4686 43.256 70.3384C43.6356 70.8775 44.0271 71.4368 44.2175 71.7295C44.2383 71.7626 44.2663 71.7906 44.2995 71.8112C44.3327 71.8319 44.3702 71.8446 44.4091 71.8485H44.4317C44.4669 71.8486 44.5017 71.8414 44.5339 71.8273C44.566 71.8131 44.5949 71.7924 44.6185 71.7664C48.2182 67.8728 51.0633 64.804 53.0672 62.6466C53.0967 62.6153 53.1177 62.577 53.1283 62.5354C53.1389 62.4938 53.1388 62.4501 53.1279 62.4086L53.1077 62.3289C53.0779 62.2099 53.047 62.1004 53.0125 61.979C52.8994 61.5709 52.7816 61.146 52.6436 60.7391C52.6305 60.6986 52.5853 60.582 52.5329 60.4464L52.4651 60.2667C52.4764 60.2145 52.4714 60.1601 52.4508 60.1108Z" fill="#463B32"/>
<path d="M65.2095 89.4324C64.7669 92.7845 64.1743 94.6991 64.1647 94.7277C64.0214 95.2203 64.0763 95.7495 64.3178 96.2021C64.5593 96.6548 64.9681 96.9951 65.4571 97.1505C65.9461 97.3058 66.4764 97.2638 66.9348 97.0335C67.3933 96.8031 67.7435 96.4027 67.9107 95.9176C67.975 95.7165 69.491 90.883 69.6124 82.9186C69.723 75.6896 68.6485 64.3636 62.9486 51.3479L66.2614 52.1809C66.5906 52.2637 66.9357 52.2599 67.263 52.1701C67.5903 52.0802 67.8889 51.9073 68.1297 51.668L69.2137 50.5876L69.9824 52C70.11 52.2322 70.2832 52.4362 70.4916 52.5998C70.6999 52.7633 70.9392 52.8831 71.195 52.952L82.8768 56.1125C83.1923 56.198 83.5242 56.2034 83.8423 56.1283C84.1605 56.0531 84.4548 55.8997 84.6987 55.6821C84.9426 55.4644 85.1284 55.1893 85.2391 54.8817C85.3498 54.5741 85.382 54.2438 85.3328 53.9206C84.9758 51.5407 83.8668 49.0192 82.2211 46.8202C82.0655 46.6134 81.8707 46.4395 81.6477 46.3082C81.4247 46.177 81.178 46.091 80.9217 46.0553C80.6655 46.0196 80.4047 46.0348 80.1543 46.1001C79.904 46.1654 79.669 46.2795 79.4628 46.4358C79.4101 46.4745 79.3596 46.5163 79.3117 46.5608C79.3538 46.5145 79.3935 46.466 79.4307 46.4156C79.7323 45.9918 79.8536 45.4657 79.768 44.9527C79.6823 44.4396 79.3967 43.9815 78.9737 43.6787C78.7448 43.5191 78.4864 43.4067 78.2135 43.3483C77.9407 43.2899 77.6589 43.2865 77.3847 43.3383C77.1105 43.3902 76.8494 43.4963 76.6168 43.6504C76.3841 43.8044 76.1845 44.0034 76.0298 44.2356C75.7457 44.6727 75.6467 45.2048 75.7547 45.7149C75.8627 46.225 76.1688 46.6713 76.6057 46.9558C76.9416 47.1839 77.3373 47.3081 77.7433 47.3128C78.1516 47.3128 78.5501 47.1883 78.8857 46.9558C78.9297 46.9249 78.9713 46.8916 79.013 46.8582C79.0546 46.8249 79.1094 46.7749 79.1558 46.7321C78.8611 47.0713 78.6914 47.5011 78.675 47.9501C78.6585 48.3991 78.7963 48.8402 79.0654 49.2001C79.5829 49.8908 80.0358 50.6277 80.4183 51.4015L73.0239 49.4012L71.4008 46.4263C71.2548 46.1582 71.0483 45.9278 70.7977 45.7534C70.5472 45.5791 70.2594 45.4655 69.9573 45.4217C69.6551 45.3779 69.347 45.4052 69.0572 45.5013C68.7674 45.5974 68.504 45.7597 68.2879 45.9753L66.1353 48.1172L56.7263 45.7337C60.8781 43.192 67.8167 42.8862 73.231 45.0067C73.7128 45.1802 74.2433 45.1587 74.7095 44.9469C75.1757 44.7351 75.5407 44.3496 75.7269 43.8725C75.9131 43.3955 75.9056 42.8646 75.7061 42.393C75.5067 41.9213 75.1309 41.5462 74.6589 41.3476C72.3284 40.45 69.8764 39.9073 67.3848 39.7376L67.455 39.3806L69.604 39.6971C69.9303 39.7449 70.2633 39.7099 70.5725 39.5953C70.8817 39.4807 71.1571 39.2903 71.3735 39.0414L77.6564 31.8172C77.8774 31.5632 78.0295 31.2566 78.098 30.9269C78.1665 30.5972 78.1491 30.2554 78.0476 29.9343C77.9461 29.6132 77.7638 29.3236 77.5182 29.0932C77.2726 28.8629 76.9719 28.6994 76.645 28.6186C70.5691 27.1157 65.0905 27.8892 60.7995 30.8534C57.5058 33.1286 55.3698 36.3426 54.1477 39.3711C51.2763 35.493 46.7509 32.7644 41.4711 31.8517C34.6063 30.6618 27.8485 32.7121 23.4005 37.3315C23.1575 37.584 22.9865 37.897 22.9051 38.2379C22.8237 38.5787 22.8349 38.9352 22.9376 39.2703C23.0403 39.6054 23.2307 39.9069 23.489 40.1437C23.7474 40.3805 24.0644 40.5438 24.4072 40.6169L36.7184 43.2705C37.0138 43.3346 37.32 43.3298 37.6132 43.2566C37.9064 43.1833 38.1788 43.0435 38.4094 42.8481L39.2364 42.146L39.2852 42.5601C39.3333 42.9706 39.5096 43.3553 39.7891 43.6598C40.0685 43.9642 40.4368 44.1728 40.8416 44.2558L43.55 44.8127C39.9801 46.1038 36.5768 48.2017 34.0077 50.8815C29.9619 55.0903 28.3935 60.3261 29.5811 65.6262C29.6528 65.9453 29.8029 66.2416 30.018 66.4881C30.233 66.7346 30.5061 66.9236 30.8126 67.0379C31.119 67.1523 31.4492 67.1884 31.7731 67.1431C32.0971 67.0977 32.4046 66.9722 32.6678 66.7781L44.1878 58.2592C44.759 57.8379 45.0529 57.5797 44.9732 56.4481C45.6145 57.0133 46.3178 56.5254 46.8342 56.0911L54.9497 49.2941C55.0583 49.3444 55.1715 49.3843 55.2877 49.4131L59.5953 50.5019C59.3279 50.7832 59.1498 51.1375 59.0835 51.52C59.0172 51.9025 59.0657 52.296 59.2229 52.6509C60.1582 54.7655 60.9626 56.8301 61.6575 58.8387L57.6533 59.4967C57.4344 58.1354 57.1702 56.738 56.8608 55.3045C56.7399 54.8059 56.4289 54.3742 55.9941 54.1018C55.5593 53.8294 55.0352 53.7378 54.5337 53.8465C54.0323 53.9552 53.5932 54.2557 53.3103 54.6838C53.0274 55.1119 52.9231 55.6336 53.0196 56.1375C55.5911 67.9775 54.5666 77.1616 53.2576 82.7829C51.8416 88.8636 49.7901 92.2026 49.7639 92.2455C49.4862 92.6873 49.3954 93.2214 49.5114 93.7302C49.6274 94.239 49.9409 94.6808 50.3827 94.9585C50.8245 95.2363 51.3586 95.3271 51.8674 95.2111C52.3762 95.095 52.8181 94.7816 53.0958 94.3398C53.2255 94.1339 54.3667 92.2788 55.5721 88.9231L65.2095 89.4324ZM63.0414 34.0829C65.6593 32.2766 68.8008 31.534 72.4099 31.8636L69.1197 35.6477L66.19 35.2157C65.6916 35.1421 65.184 35.2627 64.7719 35.5526C64.3598 35.8424 64.0747 36.2794 63.9755 36.7734L63.3806 39.7483C61.4654 39.8955 59.5773 40.2891 57.7628 40.9192C58.7576 38.4155 60.5199 35.825 63.0414 34.0829ZM42.7087 38.0431C42.6673 37.6894 42.5307 37.3535 42.3134 37.0713C42.0961 36.7892 41.8063 36.5713 41.4749 36.441C41.1435 36.3106 40.7829 36.2727 40.4316 36.3313C40.0804 36.3898 39.7516 36.5426 39.4803 36.7734L36.5959 39.2235L29.2967 37.6421C32.5726 35.7131 36.653 34.998 40.8083 35.7167C45.4122 36.5128 49.282 38.9712 51.4977 42.428L43.0204 40.686L42.7087 38.0431ZM45.1398 52.3868L42.7598 51.624C42.4236 51.5163 42.0646 51.5011 41.7205 51.58C41.3764 51.6589 41.0599 51.8291 40.8043 52.0725C40.5486 52.316 40.3633 52.6239 40.2677 52.9637C40.1721 53.3035 40.1697 53.6629 40.2609 54.0039L40.7691 55.8959L33.1343 61.5351C33.3271 58.0474 35.137 55.3676 36.8386 53.5981C40.4204 49.8676 46.3142 47.3675 51.2145 47.2973L45.1398 52.3868ZM56.7704 85.0546C57.163 83.5612 57.526 81.8952 57.8211 80.0639L65.6439 79.5808C65.6843 80.6874 65.6962 81.7227 65.6843 82.6854C65.6724 83.6825 65.6355 84.625 65.582 85.5151L56.7704 85.0546ZM64.7264 70.7751C65.0168 72.4898 65.2274 74.1201 65.3773 75.6539L58.3185 76.0894C58.4518 74.6032 58.5374 73.0337 58.5565 71.3808L64.7264 70.7751ZM62.8629 62.6311C63.285 64.0947 63.6511 65.5187 63.9613 66.903L58.4875 67.4432C58.4256 66.1391 58.3213 64.7904 58.1745 63.3974L62.8629 62.6311Z" fill="#BD967A"/>
<path d="M32.1026 109.027C32.5376 109.028 32.9598 108.88 33.2997 108.609C33.6396 108.337 33.8769 107.958 33.9726 107.534C34.0684 107.11 34.0168 106.666 33.8263 106.274C33.6359 105.883 33.3179 105.569 32.9249 105.383C28.4215 103.244 24.2589 100.452 20.5719 97.0969C20.6088 97.0969 20.6457 97.104 20.6826 97.104H20.7707C21.1474 97.0867 21.509 96.9505 21.8035 96.7149C21.8797 96.6542 27.8878 90.1416 28.1436 89.8644C28.1787 89.8258 28.2013 89.7775 28.2083 89.7259C28.2153 89.6742 28.2064 89.6217 28.1829 89.5752C27.9033 89.035 27.6046 88.4614 27.2785 87.895C27.0643 87.5213 26.8204 87.0989 26.5443 86.705C26.5223 86.6738 26.4935 86.6478 26.4602 86.6291C26.4268 86.6104 26.3897 86.5993 26.3515 86.5967C26.3133 86.5947 26.2751 86.601 26.2396 86.6152C26.204 86.6293 26.172 86.6511 26.1457 86.6788C22.2438 90.9496 19.7318 93.6996 19.5403 93.9043C19.3088 94.0951 19.1285 94.3406 19.0157 94.6186C18.9029 94.8965 18.8611 95.1982 18.8941 95.4964C9.44468 86.0863 3.82929 73.1372 3.82929 59.4551C3.81024 48.9933 7.04608 38.7846 13.0883 30.2441C13.3741 29.8289 13.4846 29.3177 13.3959 28.8215C13.3071 28.3253 13.0263 27.8841 12.6143 27.5937C12.2023 27.3033 11.6924 27.187 11.1952 27.2702C10.6981 27.3534 10.2538 27.6292 9.95874 28.0379C3.69668 36.9229 0.23267 47.4764 0.0113132 58.3441C-0.210043 69.2118 2.82135 79.8976 8.71642 89.0302C14.2515 97.6052 22.0684 104.466 31.2887 108.843C31.5431 108.963 31.821 109.026 32.1026 109.027Z" fill="#463B32"/>
<path d="M13.5703 23.4495C13.3051 23.7388 13.1252 24.0959 13.0502 24.4811C12.9558 24.8996 13.0046 25.3376 13.1888 25.7249C13.373 26.1123 13.6819 26.4266 14.0661 26.6174C14.4502 26.8083 14.8873 26.8646 15.3073 26.7774C15.7272 26.6901 16.1057 26.4644 16.3821 26.1364C16.6193 25.868 16.7854 25.5443 16.8652 25.1951C16.9737 24.7781 16.9384 24.3367 16.7649 23.9423C16.5915 23.5479 16.29 23.2235 15.9094 23.0216C15.5287 22.8197 15.0911 22.7521 14.6673 22.8298C14.2434 22.9074 13.8582 23.1257 13.5738 23.4495H13.5703Z" fill="#BD967A"/>
<path d="M99.2411 27.9678C98.9366 27.584 98.4965 27.3315 98.0114 27.2624C97.5264 27.1933 97.0333 27.3127 96.6336 27.5962C96.234 27.8796 95.9583 28.3055 95.8631 28.7861C95.768 29.2668 95.8607 29.7656 96.1223 30.1799C100.266 36.0438 103.119 42.7203 104.492 49.7682C105.864 56.8162 105.726 64.0752 104.086 71.0658C102.446 78.0563 99.3407 84.6193 94.9764 90.3211C90.6121 96.0229 85.0876 100.734 78.7679 104.143C78.3215 104.385 77.9896 104.795 77.8452 105.281C77.7008 105.768 77.7558 106.293 77.998 106.739C78.2402 107.186 78.6499 107.517 79.1368 107.662C79.6238 107.806 80.1481 107.751 80.5945 107.509C87.3894 103.842 93.3288 98.7741 98.0205 92.6416C102.712 86.509 106.049 79.4508 107.812 71.9332C109.574 64.4156 109.721 56.6096 108.244 49.0308C106.767 41.4521 103.698 34.273 99.2411 27.9678Z" fill="#463B32"/>
<path d="M91.9311 21.0196C91.5373 21.1945 91.2129 21.4955 91.0089 21.8751C90.7675 22.2382 90.6572 22.6727 90.6962 23.1069C90.7351 23.5411 90.921 23.9491 91.2231 24.2634C91.4082 24.4635 91.6325 24.6233 91.8821 24.7328C92.1317 24.8423 92.4011 24.8993 92.6737 24.9C93.0236 24.9025 93.3676 24.8092 93.6684 24.6303C93.9691 24.4514 94.2152 24.1937 94.3801 23.885C94.6184 23.5266 94.7291 23.0985 94.6943 22.6695C94.6596 22.2406 94.4814 21.8359 94.1885 21.5205C93.9134 21.2094 93.5468 20.9933 93.1412 20.9033C92.7357 20.8133 92.3121 20.854 91.9311 21.0196Z" fill="#BD967A"/>
<path d="M18.9903 11.5904C18.0609 12.1404 17.4879 12.8805 17.3436 13.7851L16.8699 12.9848L14.9465 14.1232L20.5391 23.5722L22.5528 22.3803L20.6351 19.1403C21.4876 19.4027 22.3581 19.2535 23.2229 18.7416C25.1721 17.588 25.8573 15.3 24.5661 13.1184C23.2749 10.9369 20.9395 10.4367 18.9903 11.5904ZM21.8965 17.2956C20.8896 17.8916 19.7002 17.6195 18.9896 16.419C18.2791 15.2185 18.6128 14.0449 19.6197 13.4489C20.6266 12.853 21.816 13.1251 22.5265 14.3256C23.2371 15.5261 22.9033 16.6997 21.8965 17.2956Z" fill="#463B32"/>
<path d="M30.5849 6.0861C29.3677 6.51341 28.2506 7.2712 27.6243 8.15879L28.9585 9.42324C29.3564 8.79071 30.097 8.22865 30.9038 7.94544C32.0926 7.52807 32.8525 7.88129 33.1854 8.82956L31.4304 9.44567C29.1093 10.2605 28.489 11.5275 28.961 12.8721C29.4231 14.1883 30.8324 14.8064 32.6157 14.1804C33.7338 13.7878 34.3972 13.1416 34.5642 12.304L34.8971 13.2523L36.9634 12.5268L35.438 8.18182C34.6282 5.87486 32.906 5.27124 30.5849 6.0861ZM32.646 12.5005C31.8675 12.7738 31.2713 12.5698 31.0775 12.0178C30.8986 11.5083 31.09 11.0119 32.1232 10.6491L33.6376 10.1175L33.9109 10.8959C33.8996 11.6789 33.3819 12.2421 32.646 12.5005Z" fill="#463B32"/>
<path d="M40.9682 11.3733L43.2589 10.8956L40.9867 0L38.696 0.477721L40.9682 11.3733Z" fill="#463B32"/>
<path d="M56.627 1.49623C55.4122 1.51595 54.3704 2.02793 53.7388 2.86329C53.1545 1.98766 52.1876 1.5683 51.0628 1.58656C50.0279 1.60336 49.1339 1.97792 48.5451 2.67757L48.53 1.74769L46.2953 1.78396L46.4263 9.8529L48.766 9.81492L48.7003 5.76545C48.6769 4.32564 49.4009 3.6388 50.4357 3.622C51.4106 3.60618 51.9753 4.19709 51.9964 5.50192L52.0656 9.76136L54.4053 9.72338L54.3395 5.67391C54.3162 4.2341 55.0401 3.54726 56.09 3.53022C57.0348 3.51488 57.6295 4.10531 57.6507 5.41013L57.7198 9.66957L60.0595 9.63159L59.9845 5.0122C59.9446 2.55253 58.5468 1.46507 56.627 1.49623Z" fill="#463B32"/>
<path d="M73.644 12.4974C76.0873 13.2781 78.3841 12.201 79.1237 9.88632C79.8633 7.57161 78.6166 5.36233 76.1733 4.58163C73.73 3.80093 71.4189 4.8734 70.6793 7.18811C69.9397 9.50282 71.2007 11.7167 73.644 12.4974ZM74.2284 10.6685C73.1139 10.3124 72.5123 9.23828 72.9369 7.90946C73.3615 6.58065 74.4744 6.05443 75.5889 6.41054C76.7034 6.76664 77.2908 7.83615 76.8662 9.16497C76.4416 10.4938 75.3429 11.0246 74.2284 10.6685Z" fill="#463B32"/>
<path d="M86.4128 7.4801C87.196 7.85903 87.9708 7.60072 88.3106 6.89859C88.6241 6.25047 88.3327 5.50959 87.5496 5.13067C86.7665 4.75175 85.9916 5.01005 85.6715 5.67167C85.3513 6.33329 85.6297 7.10118 86.4128 7.4801ZM81.3548 15.2475L83.4612 16.2667L86.976 9.00238L84.8696 7.9832L81.3548 15.2475Z" fill="#463B32"/>
<path d="M86.3097 17.7568L88.3178 18.9582L94.0318 9.40689L92.0237 8.20555L86.3097 17.7568Z" fill="#463B32"/>
<path d="M41.9932 102.692C42.2211 101.931 42.6879 101.679 43.3489 101.877C43.6938 101.98 43.9798 102.175 44.1725 102.421L45.2477 100.973C44.9169 100.561 44.2946 100.234 43.6623 100.045C41.7367 99.4686 40.3335 100.286 39.8132 102.024L39.71 102.369L38.5172 102.012L38.0012 103.737L39.1939 104.094L37.448 109.928L39.6897 110.599L41.4357 104.765L43.3613 105.341L43.8774 103.616L41.8943 103.023L41.9932 102.692Z" fill="#463B32"/>
<path d="M47.743 105.247L47.8952 104.193L45.6832 103.873L44.5294 111.861L46.8454 112.195L47.3901 108.424C47.611 106.895 48.558 106.32 49.8348 106.504C50.0129 106.53 50.1592 106.566 50.3501 106.609L50.6589 104.471C49.4267 104.293 48.4186 104.557 47.743 105.247Z" fill="#463B32"/>
<path d="M60.7526 108.645C60.6489 106.052 58.7568 104.537 56.3887 104.632C53.9307 104.73 52.1567 106.542 52.2532 108.955C52.3492 111.353 54.2329 113.035 57.0206 112.923C58.4745 112.865 59.5806 112.37 60.2958 111.486L58.9978 110.187C58.4643 110.734 57.86 111.013 57.0056 111.047C55.7766 111.096 54.8977 110.516 54.6327 109.521L60.7329 109.277C60.74 109.081 60.7598 108.825 60.7526 108.645ZM56.4745 106.4C57.5236 106.358 58.3144 106.987 58.52 107.999L54.5482 108.158C54.6717 107.117 55.4103 106.442 56.4745 106.4Z" fill="#463B32"/>
<path d="M72.0053 106.119C71.3027 103.621 69.1105 102.586 66.8291 103.228C64.4609 103.894 63.1559 106.068 63.8098 108.393C64.4596 110.704 66.682 111.902 69.3678 111.146C70.7684 110.752 71.7296 110.015 72.2201 108.988L70.6561 108.026C70.2639 108.682 69.7409 109.094 68.9179 109.325C67.7338 109.658 66.7442 109.298 66.2555 108.391L72.1325 106.738C72.0942 106.546 72.054 106.293 72.0053 106.119ZM67.3227 104.928C68.3335 104.643 69.2486 105.072 69.6836 106.009L65.8571 107.085C65.7357 106.044 66.2975 105.216 67.3227 104.928Z" fill="#463B32"/>
</svg>
