<svg width="69" height="69" viewBox="0 0 69 69" fill="none" xmlns="http://www.w3.org/2000/svg">
<path d="M66.7488 37.2175C66.4426 37.1978 66.1411 37.3012 65.9107 37.505C65.6802 37.7089 65.5396 37.9965 65.5197 38.3047C65.0695 45.3321 62.3045 51.6738 57.9598 56.5696C57.9034 56.5346 57.8492 56.4995 57.7956 56.4638C55.0856 54.6866 53.0256 53.0825 51.3234 51.4202C50.2259 48.4543 48.9572 45.3777 47.5417 42.2745L47.3057 41.7554C46.0162 38.912 44.6828 35.9713 42.5038 33.5518C41.963 32.9508 41.3903 32.3764 40.8335 31.8209L40.8092 31.7963C40.2016 31.189 39.5732 30.5607 38.9942 29.9015C38.507 29.3474 38.0115 28.7534 37.5731 28.2294C36.9989 27.5429 36.3482 26.7646 35.6899 26.0375L35.5639 25.8974C35.1582 25.4421 34.5444 24.7549 33.8338 24.3766C33.268 24.0754 32.7092 24.0124 32.2074 24.191C32.0142 24.2567 31.8363 24.3611 31.6844 24.498C31.5325 24.6349 31.4097 24.8014 31.3236 24.9875C31.0981 25.4701 31.1239 26.0452 31.2289 26.5664L30.787 26.1727C30.3896 25.8204 29.9832 25.4288 29.5476 25.0085C28.3958 23.8961 27.2043 22.7459 25.7895 21.9963C24.7832 21.4611 23.8026 21.2013 22.7914 21.2013C22.6912 21.2013 22.5917 21.2013 22.4929 21.2083C22.127 20.9419 21.7441 20.7002 21.3467 20.4846C20.6097 20.0924 19.927 19.8934 19.318 19.8934C18.7115 19.8852 18.1242 20.1081 17.6742 20.5176C17.1808 20.4195 16.7284 20.4839 16.3387 20.7032C15.1243 21.3869 15.6087 22.9952 15.768 23.5234C16.0763 24.5532 16.5767 25.5065 16.9261 26.1335C17.622 27.386 18.2546 28.7106 18.865 29.9925L19.1218 30.5284C19.9277 32.2166 20.824 33.8537 21.6905 35.4383C22.2152 36.3979 22.7511 37.3779 23.2674 38.3678C22.4755 37.4718 20.792 35.675 19.4398 34.9563C18.8065 34.6201 18.2804 34.536 17.8245 34.6929C17.647 34.7558 17.4845 34.8553 17.3473 34.9849C17.2101 35.1146 17.1012 35.2716 17.0277 35.446C16.741 36.0848 16.9045 36.7769 17.0228 37.2771L17.0534 37.4088C17.2325 38.1846 17.4832 38.9418 17.8023 39.6707C18.034 40.2066 18.2553 40.7572 18.4377 41.2188C18.4486 41.2484 18.4616 41.2772 18.4766 41.305C19.2547 42.755 19.9812 44.4418 20.7628 46.6134C20.7715 46.6374 20.7817 46.6608 20.7934 46.6834L20.801 46.6988L20.8449 46.7857C20.8518 46.8427 20.8649 46.8989 20.8839 46.9531C21.4517 48.5531 22.2131 49.8504 23.28 51.0349C23.4601 51.2506 23.618 51.4841 23.7511 51.7319C23.898 51.9988 24.0675 52.2524 24.2578 52.4899C24.4331 52.7 24.6169 52.8969 24.7957 53.0895C25.0135 53.3256 25.2397 53.57 25.4408 53.8215C26.9763 55.7243 28.7413 57.427 30.6952 58.8904C32.5644 60.2844 34.6877 61.5922 37.58 63.1319C37.9976 63.3556 38.4189 63.5765 38.8439 63.7946C40.0269 64.4082 41.2859 64.9812 42.3931 65.4863L42.9067 65.7224C41.3443 66.1185 39.7534 66.3909 38.1486 66.537C21.5888 68.0529 6.89488 55.7213 5.39166 39.0535C5.37008 38.8154 5.35129 38.5772 5.33529 38.3404C5.32744 38.1861 5.28917 38.035 5.2227 37.8957C5.15623 37.7565 5.06289 37.6319 4.94813 37.5294C4.83336 37.4268 4.69946 37.3482 4.55422 37.2983C4.40899 37.2483 4.25533 37.2279 4.1022 37.2383C3.94907 37.2488 3.79952 37.2897 3.66229 37.3589C3.52505 37.4281 3.40286 37.524 3.30284 37.6412C3.20282 37.7584 3.12697 37.8945 3.07971 38.0414C3.03245 38.1884 3.01473 38.3434 3.02757 38.4973C3.04497 38.7523 3.06445 39.008 3.08742 39.2637C4.61987 56.2158 18.8121 69 35.4004 69C36.3782 69 37.3671 68.9552 38.3595 68.8641C46.065 68.1605 53.2677 64.7109 58.6708 59.1365C64.0739 53.5621 67.3222 46.2292 67.8309 38.4581C67.8411 38.3051 67.8212 38.1515 67.7723 38.0062C67.7234 37.8609 67.6464 37.7268 67.5459 37.6115C67.4453 37.4963 67.3232 37.4021 67.1864 37.3345C67.0496 37.2669 66.9009 37.2271 66.7488 37.2175ZM46.2486 64.6688C45.2813 64.189 44.3 63.7448 43.3438 63.3126L43.3125 63.2986C42.192 62.7915 41.0333 62.2668 39.9358 61.6994C39.4936 61.471 39.0529 61.2396 38.6135 61.0052C35.7838 59.5005 33.7113 58.2158 31.8901 56.8428C29.7605 55.2316 27.752 53.0888 25.7485 50.2819C24.2294 48.1572 22.9327 45.8802 21.8791 43.487C21.625 42.9091 21.4037 42.3039 21.1831 41.7105C20.9702 41.1333 20.7509 40.5372 20.499 39.9551C20.4447 39.829 20.39 39.7034 20.3348 39.5782L20.2909 39.478C20.087 39.0143 19.888 38.5674 19.7168 38.1121L19.7704 38.1597C20.7523 39.0185 21.6209 40.0342 22.3349 40.9134C22.7991 41.4829 23.2507 42.0888 23.6906 42.68C23.9689 43.0478 24.2766 43.4653 24.5883 43.8709L24.7971 44.1392C25.4443 44.9693 26.1138 45.8288 26.4973 46.7514C26.5578 46.8983 26.6465 47.0318 26.7583 47.1443C27.0271 48.2131 27.2294 49.2977 27.3637 50.3919C27.3853 50.5854 27.4537 50.7706 27.5629 50.9313C27.6721 51.092 27.8187 51.2233 27.9901 51.3137C28.1707 51.4088 28.3715 51.4583 28.5753 51.458C28.8151 51.4605 29.05 51.3892 29.2483 51.2535C29.415 51.1374 29.5462 50.9769 29.6272 50.7899C29.7082 50.6029 29.7358 50.3969 29.7069 50.195C28.9129 43.5872 25.706 37.7905 22.8777 32.6769C22.0349 31.1519 21.2771 29.587 20.5811 28.1152C20.2067 27.3278 19.8017 26.558 19.4106 25.8141L19.3813 25.7587C19.1454 25.3097 18.9011 24.8446 18.6617 24.3731C18.5031 24.0565 18.3319 23.7189 18.192 23.3791C18.4008 23.5304 18.6096 23.6936 18.8044 23.8463L18.897 23.9164C20.7064 25.3454 22.0496 27.3159 23.351 29.2213L23.367 29.2451C23.7017 29.7355 24.0469 30.2405 24.3969 30.7309C24.705 31.1647 25.017 31.5965 25.333 32.0261C26.7764 34.0078 28.2705 36.0582 29.1759 38.3467C29.2786 38.6139 29.4739 38.8347 29.7257 38.9681C29.9475 39.0847 30.1992 39.1309 30.4476 39.1008C30.6961 39.0707 30.9296 38.9655 31.1176 38.7993C31.2878 38.6473 31.4062 38.4454 31.4562 38.222C31.5061 37.9987 31.4851 37.7651 31.396 37.5545C30.3632 34.9416 28.7326 32.6944 27.1549 30.5214L27.1104 30.4591C26.7805 30.0045 26.4506 29.5484 26.127 29.0924C25.8306 28.6721 25.5383 28.2476 25.2453 27.821C24.5062 26.7464 23.7546 25.6536 22.9139 24.626L23.1373 24.8292C25.7234 27.2018 28.0562 29.9617 30.192 32.5914L30.4836 32.9515C31.6291 34.3602 32.8129 35.8158 33.8387 37.331C33.9479 37.4923 34.0942 37.6245 34.2653 37.7163C34.4336 37.8053 34.6208 37.8517 34.8109 37.8515C34.9841 37.8512 35.1553 37.8142 35.3134 37.7429C35.4714 37.6716 35.6128 37.5675 35.7282 37.4375C35.8986 37.2485 35.9998 37.0066 36.0151 36.7519C36.0304 36.4971 35.9589 36.2448 35.8124 36.0365C34.6453 34.3132 33.314 32.686 32.0258 31.1127L31.6855 30.6959C31.0904 29.9659 30.478 29.2248 29.8447 28.4802C32.8838 31.1712 35.7575 34.0458 38.45 37.0879C38.5428 37.1929 38.6533 37.2806 38.7764 37.3471C38.9326 37.4298 39.1065 37.4731 39.283 37.4732C39.4608 37.4716 39.6358 37.4288 39.7946 37.3483C39.9534 37.2678 40.0917 37.1516 40.1988 37.0088C40.3771 36.7878 40.4708 36.5099 40.463 36.2254C40.4552 35.9409 40.3464 35.6686 40.1564 35.4579C38.9121 34.0569 37.5773 32.6383 36.1896 31.245C36.1719 31.0844 36.1214 30.9291 36.0413 30.789C35.7685 30.3043 35.4679 29.8349 35.177 29.381L34.813 29.6164L35.1658 29.3635C34.8749 28.9096 34.5785 28.4479 34.3147 27.9737C34.8255 28.5341 35.312 29.1372 35.7873 29.725L35.8479 29.7999C36.1408 30.1607 36.4429 30.534 36.7477 30.8934C37.6065 31.9049 38.5571 32.8702 39.4006 33.7227C39.7008 34.0263 40.0003 34.3317 40.2991 34.639C41.5072 35.8831 42.4238 37.1293 43.1023 38.4483C43.7599 39.7253 44.4329 41.1207 45.2847 42.975C46.0558 44.647 46.8026 46.3647 47.5048 48.0788C47.8604 48.9474 48.2111 49.8301 48.5487 50.7071C48.6266 50.9095 48.6879 51.1183 48.7575 51.3375C48.85 51.6656 48.9646 51.9869 49.1005 52.2993C49.3615 52.8688 49.7965 53.252 50.214 53.6226C50.2925 53.6922 50.3706 53.7622 50.4486 53.8327C51.5166 54.8032 52.6356 55.7152 53.8009 56.5647C54.5873 57.1412 55.4266 57.7254 56.2986 58.3047C53.4038 61.0795 49.9868 63.2434 46.2486 64.6688Z" fill="#463B32"/>
<path d="M42.8538 27.5884C44.5645 27.5884 45.8624 26.6659 46.4122 25.0582C46.8485 23.7868 46.3474 22.4965 45.9445 21.4597C45.8916 21.3238 45.7858 21.0654 45.6661 20.7746C45.4887 20.3424 45.268 19.8051 45.179 19.5502C45.117 19.3827 45.0502 19.2062 44.9778 19.0129C44.7461 18.3985 44.458 17.635 44.0669 16.4504C44.0432 16.3784 44.0002 16.3143 43.9426 16.2654C43.885 16.2164 43.815 16.1845 43.7404 16.1732C43.6659 16.1619 43.5897 16.1716 43.5202 16.2012C43.4508 16.2309 43.391 16.2793 43.3473 16.3412C42.9436 16.9156 42.4349 17.5965 41.9867 18.1975C41.4467 18.9204 41.0201 19.4927 40.853 19.7673C40.7834 19.885 40.606 20.1302 40.4355 20.3677C40.187 20.7179 39.9295 21.0752 39.805 21.2937C39.3032 22.1707 38.1271 24.2239 40.02 26.3093C40.3787 26.7083 40.8158 27.028 41.3036 27.2482C41.7914 27.4684 42.3193 27.5842 42.8538 27.5884ZM42.8337 20.9876C42.9506 20.7971 43.0703 20.5925 43.1976 20.3375C43.2825 20.5974 43.3737 20.8587 43.4642 21.1172C43.5978 21.4983 43.7238 21.8576 43.8219 22.1939C43.872 22.3641 43.9277 22.5273 43.9813 22.6842C44.1747 23.253 44.3411 23.7441 44.19 24.3283C43.9896 25.0855 43.3549 25.2445 42.8566 25.2445C42.6441 25.2417 42.4344 25.1943 42.241 25.1054C42.0476 25.0166 41.8747 24.8881 41.7334 24.7283C41.2511 24.1973 41.3959 23.4576 42.286 21.9046C42.478 21.576 42.6548 21.2825 42.8337 20.9876Z" fill="#9C6137" fill-opacity="0.69"/>
<path d="M1.85651 29.5326C1.35406 29.4346 1.16301 29.1498 1.24756 28.7108C1.29167 28.4818 1.39847 28.2848 1.54347 28.1448L0.547585 27.5445C0.304683 27.7842 0.134817 28.2065 0.0539462 28.6264C-0.192341 29.905 0.420572 30.7573 1.56766 30.9812L1.79518 31.0256L1.64262 31.8176L2.78023 32.0396L2.93278 31.2476L6.78167 31.9987L7.06839 30.5101L3.2195 29.759L3.46579 28.4803L2.32819 28.2583L2.07455 29.5752L1.85651 29.5326Z" fill="#463B32"/>
<path d="M8.41143 26.2133C9.00504 24.6592 8.39714 23.1304 6.93441 22.5643C5.47168 21.9983 4.00288 22.7234 3.40927 24.2775C2.81566 25.8316 3.42009 27.3695 4.88281 27.9356C6.34554 28.5016 7.81782 27.7674 8.41143 26.2133ZM7.25569 25.766C6.98492 26.4749 6.27101 26.8246 5.43129 26.4996C4.59158 26.1747 4.29423 25.4337 4.565 24.7248C4.83577 24.0159 5.54622 23.6753 6.38593 24.0003C7.22564 24.3253 7.52646 25.0572 7.25569 25.766Z" fill="#463B32"/>
<path d="M6.82559 19.1574L6.24179 18.7979L5.49229 20.0311L9.91598 22.7551L10.7007 21.464L8.61219 20.1779C7.76527 19.6564 7.66554 18.9467 8.09814 18.2349C8.1585 18.1356 8.21702 18.0579 8.29064 17.9553L7.1066 17.2262C6.6891 17.9132 6.58917 18.5796 6.82559 19.1574Z" fill="#463B32"/>
<path d="M12.0063 11.4544C11.3954 12.0229 10.9285 12.7623 10.7851 13.4526L11.8987 13.8618C11.9722 13.3824 12.2665 12.8566 12.6714 12.4798C13.2681 11.9247 13.8083 11.9391 14.2483 12.4182L13.3674 13.2378C12.2025 14.3217 12.1599 15.2364 12.7837 15.9157C13.3944 16.5807 14.3868 16.5855 15.2818 15.7527C15.843 15.2305 16.0701 14.6745 15.9543 14.1325L16.3943 14.6115L17.4314 13.6465L15.4155 11.4515C14.3452 10.286 13.1713 10.3705 12.0063 11.4544ZM14.8694 14.7441C14.4787 15.1077 14.0736 15.1399 13.8175 14.861C13.5811 14.6036 13.5672 14.2585 14.0857 13.7761L14.8458 13.0688L15.207 13.4621C15.4008 13.9314 15.2388 14.4004 14.8694 14.7441Z" fill="#463B32"/>
<path d="M18.49 12.947L19.7377 12.0925L15.7001 6.11914L14.4524 6.97358L18.49 12.947Z" fill="#463B32"/>
<path d="M20.9084 11.4273L22.2363 10.6982L18.791 4.34033L17.463 5.06943L20.9084 11.4273Z" fill="#463B32"/>
<path d="M28.0595 8.50613C29.5678 8.11548 30.2679 7.2203 30.0269 6.27732C29.5158 4.2782 26.6857 5.90604 26.4639 5.0385C26.3964 4.77447 26.6244 4.49422 27.2802 4.32437C27.7392 4.20547 28.2599 4.17117 28.8287 4.32547L29.0483 3.15258C28.4982 2.99344 27.689 3.0321 26.9957 3.21165C25.5249 3.5926 24.8366 4.49478 25.0825 5.45662C25.6008 7.48403 28.4285 5.84676 28.6406 6.67658C28.713 6.95947 28.5058 7.20415 27.8313 7.37885C27.213 7.539 26.4785 7.5181 25.9541 7.34225L25.7369 8.52456C26.2849 8.71442 27.207 8.72694 28.0595 8.50613Z" fill="#463B32"/>
<path d="M35.1384 7.45024L36.9638 7.34751L34.4398 4.46637L36.4801 2.12805L34.6837 2.22915L32.5982 4.45298L32.3714 0.369829L30.8647 0.45462L31.2653 7.66819L32.7721 7.5834L32.6981 6.25152L33.3825 5.49134L35.1384 7.45024Z" fill="#463B32"/>
<path d="M38.9408 1.692C39.499 1.74878 39.9114 1.41883 39.9619 0.915068C40.0086 0.450061 39.6683 0.0631276 39.1101 0.00635083C38.5518 -0.050426 38.1395 0.279527 38.0919 0.754222C38.0442 1.22892 38.3826 1.63522 38.9408 1.692ZM37.594 7.55417L39.0954 7.70688L39.6186 2.49493L38.1172 2.34222L37.594 7.55417Z" fill="#463B32"/>
<path d="M44.8176 3.48623C44.1326 3.30142 43.4786 3.37805 42.9688 3.70619L43.1272 3.11116L41.7291 2.73395L40.376 7.81529L41.8398 8.21022L42.5088 5.69789C42.7578 4.76285 43.3802 4.46509 44.0839 4.65496C44.7314 4.82964 45.0061 5.3087 44.7873 6.13041L44.073 8.81275L45.5368 9.20768L46.3115 6.29866C46.7239 4.7497 46.0093 3.80775 44.8176 3.48623Z" fill="#463B32"/>
<path d="M52.6695 11.6121C52.4631 11.632 52.2381 11.5712 52.049 11.4525C51.7036 11.2358 51.6262 10.8999 51.8621 10.5191L52.9849 8.70661L54.0867 9.39813L54.7019 8.40496L53.6001 7.71344L54.2717 6.62922L52.989 5.82417L52.3174 6.90838L51.6349 6.48005L51.0197 7.47322L51.7022 7.90155L50.5691 9.73065C49.9129 10.79 50.1881 11.7099 51.2323 12.3653C51.627 12.613 52.0699 12.7645 52.4509 12.7393L52.6695 11.6121Z" fill="#463B32"/>
<path d="M59.317 12.0183L55.8671 13.6807L57.1323 10.0515L55.9714 9.00638L54.1561 14.4524L54.1094 14.4757C53.6484 14.6878 53.3529 14.6699 53.0428 14.3908C52.8193 14.1895 52.6652 13.881 52.6276 13.5728L51.5008 14.0084C51.5532 14.4605 51.8697 14.9807 52.2663 15.3377C52.9657 15.9673 53.7508 16.1646 54.9641 15.5587L60.3985 12.992L59.317 12.0183Z" fill="#463B32"/>
<path d="M63.3533 16.6987C62.9428 16.1324 62.4323 15.8083 61.8426 15.7713L62.3271 15.4154L61.4775 14.2435L55.7576 18.445L56.6471 19.672L58.6085 18.2313C58.4927 18.7985 58.6423 19.3516 59.0243 19.8786C59.8854 21.0662 61.3965 21.3666 62.717 20.3966C64.0376 19.4266 64.2144 17.8864 63.3533 16.6987ZM59.8706 18.9315C59.4258 18.318 59.5269 17.5325 60.2536 16.9987C60.9803 16.4649 61.7544 16.6076 62.1992 17.2211C62.6439 17.8346 62.5428 18.6201 61.8161 19.1538C61.0894 19.6876 60.3153 19.545 59.8706 18.9315Z" fill="#463B32"/>
<path d="M65.4262 26.441C66.959 25.7647 67.4243 24.2624 66.8107 22.8533C66.1738 21.3908 64.6684 20.7474 63.242 21.3767C61.8244 22.0022 61.2577 23.5386 61.9801 25.1973C62.3568 26.0624 62.9139 26.6139 63.6131 26.837L64.0881 25.745C63.6343 25.5519 63.3245 25.2527 63.1031 24.7444C62.7846 24.0131 62.9265 23.3445 63.4619 22.9488L65.0425 26.5784C65.1616 26.5365 65.3199 26.4879 65.4262 26.441ZM65.7691 23.3235C66.041 23.9478 65.8492 24.5746 65.2895 24.9385L64.2603 22.5753C64.9144 22.4036 65.4934 22.6904 65.7691 23.3235Z" fill="#463B32"/>
<path d="M63.5638 30.1837C63.9065 31.72 64.7775 32.4553 65.7255 32.2411C67.7352 31.787 66.1999 28.8764 67.072 28.6793C67.3375 28.6193 67.6099 28.8585 67.7589 29.5264C67.8631 29.994 67.8811 30.5212 67.7095 31.0912L68.8725 31.3496C69.0483 30.7987 69.035 29.9798 68.8775 29.2737C68.5434 27.7755 67.665 27.0519 66.6981 27.2704C64.6598 27.7309 66.2047 30.6394 65.3705 30.8279C65.0861 30.8921 64.8485 30.6752 64.6953 29.9882C64.5548 29.3584 64.5985 28.6168 64.7902 28.0924L63.6178 27.8361C63.4114 28.3839 63.3702 29.3153 63.5638 30.1837Z" fill="#463B32"/>
</svg>
