<svg width="109" height="108" viewBox="0 0 109 108" fill="none" xmlns="http://www.w3.org/2000/svg">
<path d="M27.8984 54.4306C27.8984 53.5456 27.2058 52.1206 26.1194 52.1206H18.792C18.3163 52.1206 17.9069 52.6295 17.5297 53.0057C17.1524 53.3818 17.0108 54.0755 17.0152 54.5048C17.0152 54.726 17.0993 59.937 21.1242 65.0627C24.7011 69.6186 32.2187 75.0685 47.7132 75.0685C47.7906 75.0675 47.8666 75.0475 47.9345 75.0103C48.0024 74.973 48.0601 74.9197 48.1026 74.855C48.1236 74.8456 48.1439 74.8349 48.1635 74.8229C48.2349 74.8143 48.3026 74.7864 48.3593 74.7422C48.6912 74.7422 49.0596 74.7123 49.3694 74.4102C49.7301 74.0518 49.8894 73.6922 49.886 73.243C49.8865 72.8061 49.7153 72.3865 49.4092 72.0747C50.8283 72.3771 52.3134 72.6187 53.8645 72.7994C54.0819 72.8226 54.3017 72.8054 54.5128 72.7485C54.8793 72.7437 55.2456 72.7644 55.6092 72.8105C55.6772 72.8099 55.7452 72.8059 55.8128 72.7983C57.6155 72.5947 59.4046 72.2852 61.1708 71.8712C60.6807 72.1356 60.3765 72.535 60.372 73.1258C60.372 74.0551 61.0934 74.6459 62.1422 74.6459L62.5449 74.7112C78.0593 74.7112 85.5659 69.3343 89.1306 64.7938C93.1278 59.7046 93.2351 54.5457 93.2374 54.3266C93.2374 53.8299 93.0437 53.1683 92.724 52.843C92.3578 52.4724 91.9208 52.125 91.4605 52.125H84.1387C83.1375 52.125 82.3608 53.4338 82.3608 54.4351C82.3608 55.4363 83.1352 56.7451 84.1387 56.7451H89.4138C89.0498 57.9002 88.1968 60.7059 86.2563 63.1443C81.8663 68.6495 73.666 71.5658 62.5394 71.5658C62.4677 71.5662 62.396 71.5702 62.3248 71.578C69.4585 69.6618 74.7292 66.0462 78.035 60.7767C85.4818 48.9177 80.1547 33.1931 79.9235 32.5293C79.8396 32.288 79.7046 32.0677 79.5278 31.8832C79.351 31.6988 79.1366 31.5547 78.899 31.4606C78.6613 31.3695 78.407 31.3294 78.1527 31.343C77.8985 31.3565 77.6499 31.4233 77.4231 31.5391C77.4231 31.5391 74.706 32.9597 71.9954 34.3935C70.6678 35.0938 69.297 35.824 68.2681 36.3849C67.7503 36.6637 67.3222 36.9005 67.0212 37.0698C65.7368 37.7978 65.3484 38.6817 65.864 39.6985C66.0776 40.1184 66.449 40.4365 66.8968 40.5829C67.3446 40.7294 67.8322 40.6922 68.2526 40.4796C68.3534 40.4297 68.4484 40.3689 68.5358 40.2981C69.2196 39.8854 73.2544 37.7435 77.1366 35.7057C78.108 39.6033 80.178 50.6845 75.0246 58.8915C72.2498 63.3091 67.7326 66.4014 61.5824 68.0941C65.1061 64.5892 68.7903 59.1802 68.6531 51.9535C68.4042 38.9672 56.5939 28.8374 56.0916 28.4126C55.7702 28.1441 55.3641 27.9983 54.9454 28.001C54.4877 27.9984 54.0463 28.171 53.7118 28.4834C44.3001 37.5046 40.086 46.3299 41.1868 54.7094C41.9701 60.6638 45.2969 65.1789 48.3283 68.1516C42.0531 66.4744 37.4518 63.3633 34.6405 58.8937C29.4882 50.6989 31.556 39.6022 32.5241 35.7012C36.3034 37.686 40.4478 39.8854 41.0961 40.2749C41.1927 40.352 41.2968 40.4191 41.407 40.4751C41.6558 40.6004 41.9305 40.666 42.2091 40.6665C42.5381 40.6674 42.8608 40.5765 43.141 40.4042C43.4213 40.2318 43.6479 39.9847 43.7956 39.6907C44.3111 38.6751 43.9217 37.7911 42.6372 37.0609C42.3363 36.8928 41.9081 36.6571 41.3915 36.3772C40.5341 35.9125 39.3492 35.2797 37.662 34.3858C35.5599 33.2739 33.4578 32.1731 32.617 31.7305L32.2453 31.5347H32.2364C32.0092 31.419 31.7602 31.3523 31.5055 31.3392C31.2508 31.326 30.9963 31.3666 30.7583 31.4584C30.5209 31.5527 30.3066 31.6971 30.13 31.8817C29.9534 32.0663 29.8186 32.2868 29.735 32.5282C29.5048 33.192 24.1766 48.9133 31.6235 60.7756C34.9116 66.0097 40.1369 69.6142 47.2054 71.5393C36.0898 71.3988 28.2867 68.5897 23.9952 63.2129C22.2118 60.9736 21.3112 58.4744 20.8609 56.7418H26.1194C27.2058 56.7407 27.8984 55.3135 27.8984 54.4306ZM54.9753 32.2206C57.6394 34.8571 64.9258 42.8914 65.1006 52.0155C65.2765 61.1982 57.6338 67.1338 54.9388 68.9349C52.5435 67.3573 45.756 62.2293 44.7105 54.247C43.8111 47.4009 47.264 39.9917 54.9753 32.2206Z" fill="#9C6137" fill-opacity="0.69"/>
<path d="M5.70499 73.3316C6.02442 73.3314 6.33893 73.2529 6.621 73.103C6.90307 72.9531 7.14408 72.7363 7.32292 72.4717C7.50177 72.207 7.613 71.9025 7.64687 71.5849C7.68074 71.2673 7.63621 70.9462 7.5172 70.6498C4.52584 63.1698 3.36799 55.0826 4.14036 47.0637C4.91274 39.0449 7.59292 31.3273 11.957 24.5558C12.0963 24.3404 12.1918 24.0996 12.2381 23.8472C12.2844 23.5948 12.2805 23.3358 12.2267 23.0849C12.1728 22.834 12.0701 22.5962 11.9244 22.385C11.7786 22.1739 11.5927 21.9935 11.3773 21.8541C11.1618 21.7148 10.921 21.6193 10.6686 21.573C10.4162 21.5267 10.1572 21.5306 9.90633 21.5844C9.65546 21.6383 9.41764 21.741 9.20646 21.8867C8.99528 22.0325 8.81487 22.2184 8.67554 22.4339C3.97159 29.7311 1.08275 38.0484 0.250501 46.6904C-0.581752 55.3325 0.666761 64.0482 3.89168 72.109C4.03742 72.4705 4.28798 72.7801 4.61114 72.998C4.93429 73.2158 5.31525 73.332 5.70499 73.3316Z" fill="#463B32"/>
<path d="M104.685 52.7169C104.594 58.7342 103.423 64.6863 101.226 70.2891C101.038 70.7715 101.048 71.309 101.256 71.7836C101.463 72.2582 101.851 72.6311 102.333 72.8204C102.56 72.9105 102.802 72.9567 103.046 72.9565C103.439 72.9564 103.823 72.8381 104.147 72.6169C104.472 72.3957 104.722 72.0819 104.866 71.7163C108.105 63.4343 109.264 54.4847 108.241 45.651C107.219 36.8173 104.047 28.3688 99.0026 21.0454C98.862 20.8225 98.6779 20.6304 98.4611 20.4806C98.2444 20.3307 97.9996 20.2263 97.7414 20.1736C97.4833 20.1209 97.2171 20.121 96.959 20.1738C96.7009 20.2267 96.4562 20.3312 96.2395 20.4812C96.0229 20.6311 95.8388 20.8233 95.6984 21.0463C95.558 21.2692 95.4642 21.5183 95.4225 21.7785C95.3809 22.0386 95.3924 22.3045 95.4563 22.5601C95.5201 22.8158 95.6351 23.0558 95.7941 23.2658C101.777 31.9058 104.887 42.2099 104.685 52.7169Z" fill="#463B32"/>
<path d="M23.5662 19.5639C26.1667 17.788 26.8581 14.7514 25.1756 12.2878C23.4932 9.82418 20.4132 9.36313 17.8127 11.139C15.2122 12.9149 14.5056 15.962 16.1881 18.4256C17.8705 20.8891 20.9658 21.3398 23.5662 19.5639ZM22.2369 17.6174C21.0507 18.4274 19.5567 18.1989 18.5908 16.7847C17.625 15.3704 17.9559 13.8956 19.142 13.0856C20.3282 12.2755 21.807 12.5144 22.7729 13.9287C23.7387 15.343 23.4231 16.8073 22.2369 17.6174Z" fill="#463B32"/>
<path d="M28.8123 6.70234L28.2862 5.5054L25.7743 6.60961L29.7613 15.6794L32.3912 14.5233L30.5088 10.2413C29.7455 8.50487 30.3581 7.29012 31.8079 6.65279C32.0102 6.56386 32.1862 6.50661 32.4128 6.42713L31.3456 3.99954C29.9464 4.61464 29.0676 5.5441 28.8123 6.70234Z" fill="#463B32"/>
<path d="M42.1548 1.18919L42.4343 2.43443C41.4837 1.66209 40.2635 1.4621 38.91 1.76595C36.221 2.3696 34.4727 4.7146 35.1087 7.54796C35.7448 10.3813 38.3277 11.754 41.0167 11.1503C42.28 10.8668 43.2556 10.2307 43.8132 9.25248L43.9064 9.66756C44.2994 11.4181 43.6357 12.5149 41.6506 12.9606C40.4053 13.2401 38.9546 13.1108 37.9745 12.6295L37.3094 14.9019C38.6448 15.531 40.5328 15.5811 42.3735 15.1678C45.8746 14.3819 47.451 12.284 46.6407 8.67461L44.8257 0.589588L42.1548 1.18919ZM41.0576 8.71475C39.5777 9.04696 38.2802 8.33356 37.9601 6.90785C37.6401 5.48214 38.5082 4.28258 39.988 3.95037C41.4679 3.61816 42.7474 4.33561 43.0674 5.76132C43.3875 7.18703 42.5374 8.38254 41.0576 8.71475Z" fill="#463B32"/>
<path d="M53.2789 0.00191823C51.6952 0.0335924 50.1015 0.489185 49.0305 1.28435L50.1019 3.27099C50.8087 2.68575 51.8882 2.31413 52.9378 2.29314C54.4847 2.2622 55.2357 2.96566 55.2604 4.19948L52.9769 4.24515C49.9568 4.30555 48.7473 5.54564 48.7822 7.29508C48.8165 9.0077 50.2234 10.2691 52.5437 10.2227C53.9985 10.1936 55.0202 9.69422 55.5362 8.78119L55.5609 10.015L58.2495 9.96124L58.1364 4.30777C58.0764 1.30608 56.299 -0.0584837 53.2789 0.00191823ZM53.2233 8.27477C52.2104 8.29503 51.5931 7.82839 51.5788 7.11019C51.5655 6.44725 51.9791 5.94156 53.3234 5.91468L55.2939 5.87527L55.3141 6.88811C55.0007 7.79708 54.1809 8.25562 53.2233 8.27477Z" fill="#463B32"/>
<path d="M68.7254 1.74027C67.4128 1.45022 66.1806 1.64944 65.2426 2.30972L65.4929 1.17688L62.8137 0.58487L60.6761 10.2589L63.4812 10.8787L64.5381 6.09566C64.9314 4.31549 66.0852 3.7029 67.4338 4.00089C68.6745 4.27504 69.2349 5.15323 68.8892 6.71762L67.7608 11.8244L70.5659 12.4442L71.7897 6.90589C72.4413 3.95693 71.0091 2.24487 68.7254 1.74027Z" fill="#463B32"/>
<path d="M78.4883 3.55861C79.4817 3.96448 80.4155 3.5866 80.7794 2.69604C81.1153 1.87398 80.6993 0.984527 79.7059 0.578656C78.7126 0.172784 77.7788 0.550665 77.4359 1.38985C77.093 2.22903 77.495 3.15274 78.4883 3.55861ZM72.8629 13.5111L75.5345 14.6028L79.2993 5.3889L76.6277 4.29724L72.8629 13.5111Z" fill="#463B32"/>
<path d="M82.0093 18.1204C83.7989 19.1817 85.678 19.2257 87.1033 18.23L85.8069 16.0484C84.8592 16.5995 83.9716 16.5441 83.1956 16.0839C81.9445 15.342 81.4791 13.8886 82.3619 12.3999C83.2448 10.9113 84.7432 10.6225 85.9943 11.3644C86.7704 11.8246 87.2354 12.5927 87.2157 13.6728L89.7424 13.7798C89.9512 12.0198 89.0019 10.408 87.2123 9.34669C84.4408 7.70314 81.3811 8.35043 79.8597 10.916C78.3382 13.4816 79.2378 16.4769 82.0093 18.1204Z" fill="#463B32"/>
<path d="M16.9165 73.4964C17.3971 74.447 18.3431 74.7713 19.1954 74.3403C19.9821 73.9426 20.2489 73.0051 19.7683 72.0545C19.2876 71.1039 18.3416 70.7796 17.5386 71.1856C16.7355 71.5917 16.4359 72.5458 16.9165 73.4964ZM6.22332 77.2978L7.51607 79.8546L16.3336 75.3963L15.0409 72.8395L6.22332 77.2978Z" fill="#463B32"/>
<path d="M20.8068 81.6707C19.9877 80.6047 18.9157 79.9653 17.7728 79.8682L18.6927 79.1613L17.0208 76.9856L9.16496 83.0223L10.9154 85.3002L14.7995 82.3155C16.2451 81.2047 17.5227 81.477 18.3643 82.5722C19.1385 83.5797 19.0032 84.6126 17.7329 85.5888L13.5859 88.7755L15.3363 91.0534L19.8337 87.5974C22.2285 85.7572 22.2318 83.5251 20.8068 81.6707Z" fill="#463B32"/>
<path d="M30.2289 90.605L29.4614 91.6176C29.4381 90.3984 28.8063 89.3418 27.7056 88.5076C25.5188 86.8502 22.612 87.027 20.8656 89.3311C19.1192 91.6352 19.7346 94.4817 21.9213 96.1391C22.9486 96.9178 24.0592 97.2512 25.1615 97.0468L24.9057 97.3844C23.8267 98.808 22.566 99.0078 20.9517 97.7842C19.939 97.0167 19.1053 95.8302 18.8418 94.7755L16.686 95.7296C17.0655 97.1495 18.2404 98.6176 19.7373 99.7522C22.5845 101.91 25.1929 101.761 27.4176 98.8261L32.401 92.2513L30.2289 90.605ZM23.8001 94.6054C22.5966 93.6933 22.3056 92.248 23.1844 91.0886C24.0632 89.9292 25.5333 89.8188 26.7367 90.7309C27.9401 91.6431 28.2165 93.0772 27.3377 94.2366C26.459 95.396 25.0035 95.5175 23.8001 94.6054Z" fill="#463B32"/>
<path d="M35.8811 95.2038L36.4293 94.0168L33.9383 92.8663L29.7842 101.861L32.3923 103.065L34.3535 98.8188C35.1488 97.0968 36.4646 96.7512 37.9024 97.4152C38.103 97.5079 38.2625 97.6018 38.4721 97.7189L39.584 95.3115C38.1964 94.6706 36.9179 94.6279 35.8811 95.2038Z" fill="#463B32"/>
<path d="M48.5335 102.855C49.2578 99.7521 47.5137 97.3405 44.6803 96.679C41.7393 95.9925 39.0479 97.5578 38.3739 100.445C37.704 103.314 39.3841 105.919 42.7197 106.698C44.4592 107.104 45.9298 106.88 47.0651 106.067L45.9534 104.105C45.1433 104.578 44.3369 104.711 43.3147 104.473C41.8442 104.13 40.9937 103.156 41.0052 101.891L48.3039 103.595C48.3763 103.366 48.4833 103.07 48.5335 102.855ZM44.2042 98.7993C45.4595 99.0924 46.1899 100.095 46.1025 101.36L41.3503 100.251C41.8364 99.0597 42.931 98.5021 44.2042 98.7993Z" fill="#463B32"/>
<path d="M57.7584 94.1113L57.8885 98.9159C57.1486 98.1254 56.1073 97.7667 54.8923 97.7996C52.0942 97.8753 49.9942 99.9217 50.0784 103.033C50.1626 106.144 52.3702 108.074 55.1683 107.998C56.4937 107.962 57.5315 107.51 58.226 106.626L58.2569 107.767L60.9998 107.693L60.6302 94.0336L57.7584 94.1113ZM55.6015 105.628C54.1657 105.667 53.0333 104.666 52.9869 102.954C52.9406 101.242 54.0172 100.181 55.4531 100.142C56.8706 100.104 58.003 101.105 58.0493 102.817C58.0956 104.529 57.019 105.59 55.6015 105.628Z" fill="#463B32"/>
<path d="M63.4864 95.5951C64.5298 95.367 65.082 94.53 64.8775 93.5945C64.6888 92.731 63.8456 92.2367 62.8021 92.4647C61.7587 92.6928 61.2065 93.5298 61.3992 94.4114C61.5918 95.2929 62.4429 95.8232 63.4864 95.5951ZM64.4937 106.93L67.3002 106.317L65.1845 96.6376L62.378 97.2511L64.4937 106.93Z" fill="#463B32"/>
<path d="M77.7678 97.2884C76.5502 94.3444 73.728 93.3993 71.0393 94.5113C68.2485 95.6656 66.9718 98.5053 68.105 101.245C69.2311 103.968 72.1137 105.107 75.2789 103.798C76.9295 103.115 77.9947 102.077 78.4444 100.755L76.3985 99.8077C76.0152 100.664 75.4371 101.242 74.4672 101.643C73.0718 102.22 71.8132 101.923 71.0864 100.889L78.0124 98.0242C77.9379 97.796 77.8523 97.4926 77.7678 97.2884ZM71.8869 96.5123C73.0781 96.0196 74.2556 96.4094 74.9214 97.4892L70.4119 99.3543C70.1134 98.1027 70.6786 97.012 71.8869 96.5123Z" fill="#463B32"/>
<path d="M81.3341 88.4545C80.2627 89.2665 79.6162 90.3342 79.5115 91.4765L78.8108 90.5519L76.624 92.2093L82.6085 100.105L84.898 98.3697L81.9391 94.4659C80.8379 93.013 81.1187 91.7372 82.2194 90.9029C83.232 90.1354 84.264 90.2775 85.2318 91.5543L88.3909 95.7223L90.6803 93.987L87.2543 89.4668C85.43 87.0599 83.198 87.0418 81.3341 88.4545Z" fill="#463B32"/>
<path d="M94.8971 85.4109C94.8756 85.8045 94.6982 86.2102 94.4229 86.5321C93.9202 87.1199 93.2711 87.1705 92.6273 86.6199L89.5622 83.9985L91.1662 82.1231L89.4867 80.6867L87.8828 82.5621L86.0493 80.994L84.182 83.1774L86.0155 84.7454L85.022 85.907L86.7014 87.3434L87.6949 86.1818L90.7879 88.8271C92.5794 90.3593 94.3749 90.1017 95.895 88.3242C96.4696 87.6524 96.8782 86.863 96.9394 86.1398L94.8971 85.4109Z" fill="#463B32"/>
<path d="M100.863 81.2138C102.346 78.6344 102.065 76.4907 100.462 75.5699C97.0659 73.6179 95.4994 79.6443 94.0254 78.7972C93.5768 78.5394 93.5006 77.8562 94.1451 76.7347C94.5963 75.9496 95.2445 75.1926 96.2131 74.6197L94.9136 72.7645C93.9633 73.3054 92.9359 74.4626 92.2546 75.6482C90.809 78.1635 91.1154 80.3004 92.7496 81.2396C96.1942 83.2192 97.7447 77.1836 99.1546 77.9939C99.6352 78.2701 99.691 78.8777 99.0281 80.0312C98.4204 81.0886 97.4118 82.0648 96.4731 82.5484L97.7887 84.4127C98.7778 83.9155 100.025 82.6717 100.863 81.2138Z" fill="#463B32"/>
</svg>
