<svg width="66" height="65" viewBox="0 0 66 65" fill="none" xmlns="http://www.w3.org/2000/svg">
<path d="M16.7907 32.7592C16.7907 32.2265 16.3739 31.3689 15.72 31.3689H11.31C11.0237 31.3689 10.7773 31.6752 10.5503 31.9016C10.3232 32.1279 10.238 32.5454 10.2406 32.8038C10.2406 32.937 10.2912 36.0732 12.7136 39.1581C14.8664 41.9001 19.3909 45.1801 28.7162 45.1801C28.7628 45.1795 28.8086 45.1675 28.8494 45.1451C28.8903 45.1227 28.9251 45.0906 28.9506 45.0516C28.9632 45.046 28.9755 45.0395 28.9873 45.0323C29.0302 45.0271 29.071 45.0103 29.1051 44.9837C29.3049 44.9837 29.5266 44.9657 29.713 44.7839C29.9301 44.5682 30.026 44.3518 30.024 44.0815C30.0243 43.8185 29.9212 43.566 29.737 43.3783C30.5911 43.5603 31.4849 43.7057 32.4184 43.8145C32.5493 43.8284 32.6816 43.818 32.8086 43.7838C33.0292 43.7809 33.2497 43.7934 33.4685 43.8211C33.5094 43.8208 33.5503 43.8184 33.591 43.8138C34.676 43.6913 35.7527 43.505 36.8158 43.2558C36.5208 43.4149 36.3377 43.6553 36.335 44.0109C36.335 44.5702 36.7692 44.9258 37.4004 44.9258L37.6428 44.9651C46.9801 44.9651 51.498 41.729 53.6434 38.9963C56.0491 35.9333 56.1137 32.8284 56.115 32.6966C56.115 32.3976 55.9985 31.9994 55.8061 31.8037C55.5857 31.5806 55.3227 31.3715 55.0457 31.3715H50.639C50.0364 31.3715 49.569 32.1592 49.569 32.7619C49.569 33.3645 50.0351 34.1522 50.639 34.1522H53.8138C53.5948 34.8473 53.0814 36.5359 51.9135 38.0035C49.2713 41.3168 44.336 43.072 37.6394 43.072C37.5963 43.0722 37.5532 43.0747 37.5103 43.0793C41.8037 41.9261 44.9759 39.75 46.9655 36.5786C51.4474 29.4412 48.2413 19.9773 48.1021 19.5778C48.0516 19.4326 47.9703 19.3 47.8639 19.189C47.7575 19.078 47.6285 18.9912 47.4855 18.9346C47.3424 18.8798 47.1894 18.8557 47.0364 18.8638C46.8833 18.872 46.7337 18.9122 46.5972 18.9819C46.5972 18.9819 44.9619 19.8368 43.3305 20.6998C42.5315 21.1213 41.7065 21.5608 41.0873 21.8983C40.7756 22.0661 40.518 22.2086 40.3368 22.3105C39.5638 22.7487 39.3301 23.2807 39.6403 23.8926C39.7689 24.1453 39.9924 24.3368 40.2619 24.4249C40.5314 24.513 40.8249 24.4907 41.0779 24.3627C41.1386 24.3327 41.1958 24.2961 41.2484 24.2535C41.6599 24.0051 44.0883 22.716 46.4248 21.4895C47.0094 23.8353 48.2552 30.5046 45.1537 35.4439C43.4837 38.1027 40.765 39.9638 37.0635 40.9826C39.1842 38.8731 41.4016 35.6177 41.319 31.2683C41.1692 23.4525 34.0611 17.3559 33.7588 17.1002C33.5654 16.9386 33.321 16.8508 33.069 16.8525C32.7935 16.8509 32.5279 16.9548 32.3265 17.1428C26.6621 22.5722 24.1258 27.8838 24.7883 32.927C25.2598 36.5106 27.262 39.228 29.0865 41.0172C25.3097 40.0077 22.5404 38.1353 20.8485 35.4453C17.7475 30.5132 18.992 23.8347 19.5747 21.4868C21.8492 22.6814 24.3435 24.0051 24.7337 24.2395C24.7919 24.2859 24.8546 24.3263 24.9208 24.36C25.0706 24.4355 25.2359 24.4749 25.4036 24.4752C25.6016 24.4757 25.7958 24.4211 25.9645 24.3173C26.1332 24.2136 26.2696 24.0649 26.3584 23.8879C26.6687 23.2767 26.4344 22.7447 25.6613 22.3052C25.4802 22.204 25.2225 22.0621 24.9115 21.8937C24.3955 21.614 23.6824 21.2332 22.6669 20.6951C21.4018 20.0259 20.1367 19.3634 19.6306 19.0971L19.4069 18.9792H19.4015C19.2648 18.9096 19.1149 18.8695 18.9616 18.8615C18.8084 18.8536 18.6551 18.8781 18.5119 18.9333C18.3691 18.99 18.2401 19.0769 18.1338 19.1881C18.0275 19.2992 17.9464 19.4319 17.896 19.5772C17.7575 19.9767 14.5507 29.4385 19.0327 36.5779C21.0116 39.7281 24.1564 41.8974 28.4106 43.056C21.7207 42.9715 17.0244 41.2809 14.4416 38.0448C13.3682 36.6971 12.8262 35.1929 12.5552 34.1502H15.72C16.3739 34.1495 16.7907 33.2905 16.7907 32.7592ZM33.087 19.3921C34.6903 20.9788 39.0757 25.8143 39.1809 31.3056C39.2868 36.8323 34.687 40.4046 33.065 41.4886C31.6234 40.5391 27.5383 37.4528 26.9091 32.6487C26.3678 28.5283 28.4459 24.0691 33.087 19.3921Z" fill="#9C6137" fill-opacity="0.69"/>
<path d="M3.43356 44.1347C3.62581 44.1346 3.8151 44.0874 3.98486 43.9972C4.15462 43.907 4.29967 43.7765 4.40731 43.6172C4.51495 43.4579 4.58189 43.2747 4.60228 43.0835C4.62266 42.8923 4.59587 42.6991 4.52424 42.5207C2.72389 38.0189 2.02703 33.1515 2.49188 28.3254C2.95674 23.4992 4.56981 18.8544 7.19633 14.779C7.28018 14.6493 7.33768 14.5044 7.36553 14.3525C7.39338 14.2006 7.39103 14.0447 7.35863 13.8937C7.32624 13.7427 7.26441 13.5996 7.1767 13.4725C7.08898 13.3454 6.97709 13.2368 6.84742 13.1529C6.71774 13.0691 6.57282 13.0116 6.42092 12.9837C6.26903 12.9559 6.11313 12.9582 5.96214 12.9906C5.81115 13.023 5.66802 13.0849 5.54092 13.1726C5.41383 13.2603 5.30525 13.3722 5.22139 13.5019C2.39031 17.8937 0.651658 22.8995 0.150764 28.1007C-0.350129 33.302 0.401291 38.5475 2.34221 43.399C2.42993 43.6165 2.58073 43.8028 2.77522 43.934C2.96971 44.0651 3.19899 44.135 3.43356 44.1347Z" fill="#463B32"/>
<path d="M63.0047 31.7278C62.9502 35.3493 62.2452 38.9315 60.9232 42.3036C60.8097 42.594 60.8161 42.9175 60.941 43.2031C61.0658 43.4888 61.2989 43.7132 61.5891 43.8271C61.7258 43.8813 61.8715 43.9091 62.0186 43.909C62.255 43.909 62.4859 43.8377 62.6813 43.7046C62.8766 43.5715 63.0274 43.3826 63.1139 43.1626C65.063 38.1781 65.7605 32.7917 65.1453 27.4751C64.5301 22.1585 62.6208 17.0738 59.5848 12.6662C59.5003 12.5321 59.3894 12.4164 59.259 12.3263C59.1285 12.2361 58.9812 12.1733 58.8258 12.1415C58.6705 12.1098 58.5103 12.1098 58.3549 12.1417C58.1996 12.1735 58.0523 12.2364 57.9219 12.3266C57.7915 12.4169 57.6807 12.5326 57.5962 12.6667C57.5117 12.8009 57.4553 12.9508 57.4302 13.1074C57.4052 13.264 57.4121 13.424 57.4505 13.5779C57.4889 13.7317 57.5581 13.8762 57.6539 14.0026C61.2544 19.2026 63.1265 25.4041 63.0047 31.7278Z" fill="#463B32"/>
<path d="M14.1834 11.7746C15.7485 10.7057 16.1646 8.87814 15.152 7.39542C14.1394 5.9127 12.2857 5.63522 10.7206 6.70405C9.15551 7.77288 8.73025 9.60674 9.74283 11.0895C10.7554 12.5722 12.6183 12.8434 14.1834 11.7746ZM13.3833 10.603C12.6694 11.0906 11.7702 10.9531 11.1889 10.1019C10.6076 9.25069 10.8068 8.36312 11.5207 7.87558C12.2346 7.38804 13.1246 7.53181 13.7059 8.383C14.2872 9.23419 14.0972 10.1155 13.3833 10.603Z" fill="#463B32"/>
<path d="M17.3407 4.03382L17.0241 3.31344L15.5123 3.97801L17.9119 9.43665L19.4947 8.74086L18.3618 6.16373C17.9024 5.11867 18.2711 4.38757 19.1437 4.004C19.2654 3.95047 19.3713 3.91602 19.5077 3.86818L18.8654 2.40713C18.0233 2.77733 17.4944 3.33673 17.3407 4.03382Z" fill="#463B32"/>
<path d="M25.3709 0.715715L25.5392 1.46516C24.967 1.00033 24.2327 0.879969 23.418 1.06284C21.7997 1.42615 20.7474 2.83749 21.1302 4.54276C21.5131 6.24802 23.0676 7.07417 24.686 6.71086C25.4463 6.54018 26.0335 6.15736 26.3691 5.56862L26.4252 5.81844C26.6617 6.87201 26.2622 7.53213 25.0675 7.80034C24.318 7.96858 23.4449 7.89078 22.855 7.60106L22.4547 8.96873C23.2585 9.34734 24.3947 9.37748 25.5026 9.12878C27.6097 8.65574 28.5585 7.39314 28.0708 5.22083L26.9784 0.354844L25.3709 0.715715ZM24.7106 5.24499C23.8199 5.44493 23.039 5.01557 22.8464 4.1575C22.6538 3.29944 23.1762 2.57748 24.0669 2.37754C24.9575 2.17759 25.7276 2.6094 25.9202 3.46746C26.1128 4.32552 25.6012 5.04505 24.7106 5.24499Z" fill="#463B32"/>
<path d="M32.066 0.00115449C31.1128 0.0202177 30.1537 0.294417 29.5091 0.772991L30.1539 1.96865C30.5793 1.61642 31.229 1.39277 31.8607 1.38013C32.7917 1.36151 33.2437 1.78489 33.2585 2.52747L31.8842 2.55495C30.0666 2.59131 29.3386 3.33765 29.3597 4.39056C29.3803 5.4213 30.227 6.1805 31.6235 6.15257C32.4991 6.13506 33.114 5.83448 33.4246 5.28498L33.4394 6.02755L35.0576 5.99519L34.9895 2.59264C34.9534 0.786069 33.8836 -0.0351985 32.066 0.00115449ZM32.0325 4.98019C31.4229 4.99238 31.0514 4.71153 31.0428 4.27928C31.0348 3.88029 31.2837 3.57594 32.0928 3.55976L33.2787 3.53604L33.2909 4.14562C33.1023 4.69269 32.6088 4.96866 32.0325 4.98019Z" fill="#463B32"/>
<path d="M41.3625 1.04738C40.5725 0.872817 39.8309 0.99272 39.2664 1.39011L39.417 0.708308L37.8045 0.352005L36.518 6.17434L38.2063 6.54739L38.8423 3.66868C39.0791 2.59729 39.7735 2.2286 40.5851 2.40794C41.3319 2.57294 41.6691 3.10148 41.4611 4.04301L40.7819 7.11651L42.4702 7.48956L43.2067 4.15632C43.5989 2.38148 42.7369 1.35108 41.3625 1.04738Z" fill="#463B32"/>
<path d="M47.2383 2.14175C47.8362 2.38603 48.3982 2.1586 48.6172 1.62262C48.8194 1.12786 48.569 0.592539 47.9712 0.348265C47.3733 0.10399 46.8113 0.331419 46.6049 0.836482C46.3986 1.34154 46.6405 1.89748 47.2383 2.14175ZM43.8526 8.13169L45.4606 8.7887L47.7264 3.24332L46.1185 2.5863L43.8526 8.13169Z" fill="#463B32"/>
<path d="M49.3574 10.9058C50.4345 11.5445 51.5654 11.571 52.4233 10.9718L51.643 9.65874C51.0727 9.99046 50.5385 9.9571 50.0714 9.68013C49.3184 9.23358 49.0383 8.35889 49.5697 7.46292C50.101 6.56696 51.0028 6.39317 51.7558 6.83972C52.2229 7.11669 52.5027 7.57897 52.4909 8.229L54.0116 8.29339C54.1373 7.23417 53.566 6.26405 52.4889 5.62532C50.8209 4.63615 48.9794 5.02572 48.0637 6.56984C47.148 8.11395 47.6894 9.91664 49.3574 10.9058Z" fill="#463B32"/>
<path d="M10.1812 44.2339C10.4705 44.806 11.0398 45.0012 11.5528 44.7419C12.0262 44.5025 12.1868 43.9382 11.8976 43.3661C11.6083 42.794 11.0389 42.5988 10.5556 42.8432C10.0723 43.0876 9.89194 43.6618 10.1812 44.2339ZM3.74551 46.5218L4.52356 48.0606L9.83043 45.3774L9.05239 43.8386L3.74551 46.5218Z" fill="#463B32"/>
<path d="M12.5226 49.1536C12.0296 48.5121 11.3845 48.1273 10.6966 48.0688L11.2502 47.6434L10.244 46.3339L5.51595 49.9671L6.56945 51.3381L8.90711 49.5417C9.77714 48.8732 10.5461 49.0371 11.0526 49.6962C11.5185 50.3026 11.4371 50.9243 10.6726 51.5118L8.1767 53.4297L9.2302 54.8006L11.937 52.7207C13.3782 51.6131 13.3803 50.2697 12.5226 49.1536Z" fill="#463B32"/>
<path d="M18.1933 54.5308L17.7314 55.1402C17.7174 54.4064 17.3371 53.7705 16.6746 53.2684C15.3586 52.2709 13.6091 52.3773 12.558 53.7641C11.5069 55.1508 11.8773 56.864 13.1934 57.8615C13.8117 58.3301 14.4801 58.5308 15.1435 58.4078L14.9895 58.611C14.3401 59.4678 13.5814 59.588 12.6098 58.8516C12.0003 58.3897 11.4986 57.6756 11.3399 57.0408L10.0425 57.615C10.2709 58.4696 10.978 59.3532 11.879 60.0361C13.5925 61.3348 15.1624 61.2453 16.5013 59.4787L19.5006 55.5216L18.1933 54.5308ZM14.3241 56.9384C13.5998 56.3895 13.4247 55.5196 13.9536 54.8219C14.4824 54.1241 15.3672 54.0576 16.0915 54.6066C16.8158 55.1556 16.9821 56.0187 16.4532 56.7165C15.9244 57.4143 15.0484 57.4874 14.3241 56.9384Z" fill="#463B32"/>
<path d="M21.5951 57.2986L21.9251 56.5842L20.4258 55.8918L17.9257 61.3051L19.4953 62.03L20.6757 59.4743C21.1544 58.4379 21.9463 58.2299 22.8116 58.6295C22.9324 58.6853 23.0283 58.7418 23.1545 58.8123L23.8237 57.3634C22.9886 56.9777 22.2191 56.952 21.5951 57.2986Z" fill="#463B32"/>
<path d="M29.21 61.9032C29.6459 60.036 28.5962 58.5845 26.8909 58.1865C25.1208 57.7732 23.501 58.7153 23.0954 60.453C22.6922 62.1799 23.7034 63.7476 25.7109 64.2162C26.7578 64.4606 27.6429 64.3258 28.3262 63.8365L27.6571 62.656C27.1696 62.9406 26.6842 63.0208 26.069 62.8771C25.184 62.6705 24.6721 62.0844 24.679 61.3235L29.0718 62.3489C29.1153 62.2112 29.1798 62.0327 29.21 61.9032ZM26.6044 59.4626C27.3599 59.6389 27.7995 60.2423 27.7469 61.004L24.8867 60.3363C25.1793 59.6193 25.8381 59.2837 26.6044 59.4626Z" fill="#463B32"/>
<path d="M34.762 56.6411L34.8403 59.5327C34.395 59.0569 33.7683 58.8411 33.037 58.8608C31.353 58.9064 30.0891 60.138 30.1398 62.0104C30.1904 63.8828 31.5191 65.0443 33.2031 64.9987C34.0008 64.9771 34.6254 64.7052 35.0434 64.1728L35.062 64.8597L36.7128 64.815L36.4904 56.5943L34.762 56.6411ZM33.4639 63.5725C32.5997 63.5959 31.9182 62.9934 31.8903 61.9631C31.8624 60.9327 32.5104 60.2943 33.3745 60.2709C34.2276 60.2478 34.9092 60.8502 34.9371 61.8806C34.9649 62.911 34.317 63.5494 33.4639 63.5725Z" fill="#463B32"/>
<path d="M38.2094 57.5341C38.8374 57.3968 39.1697 56.8931 39.0466 56.33C38.933 55.8103 38.4256 55.5128 37.7976 55.6501C37.1696 55.7873 36.8372 56.2911 36.9532 56.8217C37.0692 57.3522 37.5814 57.6714 38.2094 57.5341ZM38.8156 64.356L40.5047 63.9868L39.2314 58.1615L37.5423 58.5308L38.8156 64.356Z" fill="#463B32"/>
<path d="M46.8047 58.5532C46.0718 56.7814 44.3733 56.2125 42.7551 56.8818C41.0755 57.5765 40.3071 59.2856 40.9891 60.9345C41.6669 62.5732 43.4017 63.2589 45.3067 62.4711C46.3002 62.0602 46.9412 61.4352 47.2119 60.6396L45.9806 60.0694C45.7499 60.5846 45.402 60.9324 44.8182 61.1739C43.9784 61.5212 43.2209 61.3428 42.7835 60.7201L46.9519 58.9961C46.907 58.8587 46.8555 58.6761 46.8047 58.5532ZM43.2652 58.0861C43.9821 57.7896 44.6909 58.0242 45.0916 58.674L42.3775 59.7966C42.1979 59.0433 42.5381 58.3869 43.2652 58.0861Z" fill="#463B32"/>
<path d="M48.9511 53.2365C48.3063 53.7252 47.9172 54.3678 47.8541 55.0553L47.4324 54.4988L46.1163 55.4963L49.7181 60.2484L51.096 59.204L49.3152 56.8545C48.6524 55.98 48.8214 55.2122 49.4839 54.7101C50.0933 54.2482 50.7144 54.3337 51.2969 55.1021L53.1982 57.6106L54.5761 56.5663L52.5141 53.8458C51.4162 52.3972 50.0728 52.3862 48.9511 53.2365Z" fill="#463B32"/>
<path d="M57.114 51.4047C57.101 51.6416 56.9943 51.8857 56.8286 52.0795C56.526 52.4333 56.1353 52.4637 55.7479 52.1323L53.9032 50.5546L54.8685 49.4259L53.8577 48.5614L52.8924 49.6902L51.7889 48.7464L50.6651 50.0604L51.7685 51.0042L51.1706 51.7033L52.1814 52.5678L52.7793 51.8687L54.6409 53.4608C55.7191 54.3829 56.7997 54.2279 57.7146 53.1581C58.0604 52.7538 58.3063 52.2786 58.3431 51.8434L57.114 51.4047Z" fill="#463B32"/>
<path d="M60.7048 48.8787C61.597 47.3263 61.4277 46.0361 60.4635 45.4819C58.4193 44.3071 57.4764 47.9341 56.5893 47.4242C56.3193 47.2691 56.2735 46.8579 56.6614 46.1829C56.9329 45.7104 57.323 45.2548 57.906 44.91L57.1239 43.7935C56.552 44.119 55.9337 44.8155 55.5236 45.529C54.6535 47.0429 54.838 48.329 55.8215 48.8942C57.8946 50.0856 58.8278 46.4531 59.6763 46.9408C59.9656 47.107 59.9992 47.4727 59.6002 48.1669C59.2345 48.8033 58.6274 49.3908 58.0625 49.6819L58.8543 50.804C59.4496 50.5047 60.2005 49.7561 60.7048 48.8787Z" fill="#463B32"/>
</svg>
