 <svg width="91.84px" height="77px" viewBox="0 0 54 45" fill="none" xmlns="http://www.w3.org/2000/svg">
                    <ellipse rx="2.61943" ry="2.53925" transform="matrix(0.510231 0.860037 -0.823845 0.566814 3.42816 3.69209)" fill="#ADA094" fill-opacity="0.3"/>
                    <ellipse rx="2.61943" ry="2.53925" transform="matrix(0.510231 0.860037 -0.823845 0.566814 15.1264 3.86006)" fill="#ADA094" fill-opacity="0.3"/>
                    <ellipse rx="2.61943" ry="2.53925" transform="matrix(0.510233 0.860036 -0.823846 0.566813 26.8237 3.86006)" fill="#ADA094" fill-opacity="0.3"/>
                    <ellipse rx="2.61943" ry="2.53925" transform="matrix(0.510231 0.860037 -0.823845 0.566814 38.519 3.86006)" fill="#ADA094" fill-opacity="0.3"/>
                    <ellipse rx="2.61943" ry="2.53925" transform="matrix(0.510231 0.860037 -0.823845 0.566814 50.2172 3.86006)" fill="#ADA094" fill-opacity="0.3"/>
                    <ellipse rx="2.61943" ry="2.53925" transform="matrix(0.510231 0.860037 -0.823845 0.566814 3.42816 13.0554)" fill="#ADA094" fill-opacity="0.3"/>
                    <ellipse rx="2.61943" ry="2.53925" transform="matrix(0.510231 0.860037 -0.823845 0.566814 15.1264 13.2233)" fill="#ADA094" fill-opacity="0.3"/>
                    <ellipse rx="2.61943" ry="2.53925" transform="matrix(0.510233 0.860036 -0.823846 0.566813 26.8237 13.2233)" fill="#ADA094" fill-opacity="0.3"/>
                    <ellipse rx="2.61943" ry="2.53925" transform="matrix(0.510231 0.860037 -0.823845 0.566814 38.519 13.2233)" fill="#ADA094" fill-opacity="0.3"/>
                    <ellipse rx="2.61943" ry="2.53925" transform="matrix(0.510231 0.860037 -0.823845 0.566814 50.2172 13.2233)" fill="#ADA094" fill-opacity="0.3"/>
                    <ellipse rx="2.61943" ry="2.53925" transform="matrix(0.510231 0.860037 -0.823845 0.566814 3.42816 22.4148)" fill="#ADA094" fill-opacity="0.3"/>
                    <ellipse rx="2.61943" ry="2.53925" transform="matrix(0.510231 0.860037 -0.823845 0.566814 15.1264 22.5827)" fill="#ADA094" fill-opacity="0.3"/>
                    <ellipse rx="2.61943" ry="2.53925" transform="matrix(0.510233 0.860036 -0.823846 0.566813 26.8237 22.5827)" fill="#ADA094" fill-opacity="0.3"/>
                    <ellipse rx="2.61943" ry="2.53925" transform="matrix(0.510231 0.860037 -0.823845 0.566814 38.519 22.5827)" fill="#ADA094" fill-opacity="0.3"/>
                    <ellipse rx="2.61943" ry="2.53925" transform="matrix(0.510231 0.860037 -0.823845 0.566814 50.2172 22.5827)" fill="#ADA094" fill-opacity="0.3"/>
                    <ellipse rx="2.61943" ry="2.53925" transform="matrix(0.510231 0.860037 -0.823845 0.566814 3.42816 31.778)" fill="#ADA094" fill-opacity="0.3"/>
                    <ellipse rx="2.61943" ry="2.53925" transform="matrix(0.510231 0.860037 -0.823845 0.566814 15.1264 31.946)" fill="#ADA094" fill-opacity="0.3"/>
                    <ellipse rx="2.61943" ry="2.53925" transform="matrix(0.510231 0.860037 -0.823845 0.566814 3.42816 41.1374)" fill="#ADA094" fill-opacity="0.3"/>
                    <ellipse rx="2.61943" ry="2.53925" transform="matrix(0.510231 0.860037 -0.823845 0.566814 15.1264 41.3093)" fill="#ADA094" fill-opacity="0.3"/>
                    <ellipse rx="2.61943" ry="2.53925" transform="matrix(0.510233 0.860036 -0.823846 0.566813 26.8237 41.3093)" fill="#ADA094" fill-opacity="0.3"/>
                    <ellipse rx="2.61943" ry="2.53925" transform="matrix(0.510231 0.860037 -0.823845 0.566814 38.519 41.3093)" fill="#ADA094" fill-opacity="0.3"/>
                    <ellipse rx="2.61943" ry="2.53925" transform="matrix(0.510231 0.860037 -0.823845 0.566814 50.2172 41.3093)" fill="#ADA094" fill-opacity="0.3"/>
                    <ellipse rx="2.61943" ry="2.53925" transform="matrix(0.510233 0.860036 -0.823846 0.566813 26.8237 31.946)" fill="#ADA094" fill-opacity="0.3"/>
                    <ellipse rx="2.61943" ry="2.53925" transform="matrix(0.510231 0.860037 -0.823845 0.566814 38.519 31.946)" fill="#ADA094" fill-opacity="0.3"/>
                    <ellipse rx="2.61943" ry="2.53925" transform="matrix(0.510231 0.860037 -0.823845 0.566814 50.2172 31.946)" fill="#ADA094" fill-opacity="0.3"/>
                </svg>