<svg width="48" height="48" viewBox="0 0 48 48" fill="none" xmlns="http://www.w3.org/2000/svg">
                    <path
                        d="M38.1424 26.9675C38.1424 39.6183 27.1873 44.7836 17.5144 44.7836C7.84147 44.7836 1.94959e-05 34.5281 1.94959e-05 21.8773C1.94959e-05 9.22651 10.9551 4.06126 20.6281 4.06126C30.301 4.06126 38.1424 14.3168 38.1424 26.9675Z"
                        fill="#D0AF94" fill-opacity="0.1" />
                    <path
                        d="M25.7647 25.679C26.7881 25.679 27.6176 24.8495 27.6176 23.8261C27.6176 22.8027 26.7881 21.9731 25.7647 21.9731C24.7413 21.9731 23.9117 22.8027 23.9117 23.8261C23.9117 24.8495 24.7413 25.679 25.7647 25.679Z"
                        fill="#D0AF94" />
                    <path
                        d="M37.5 23.8259C37.5 24.1656 37.7779 24.4435 38.1176 24.4435H41.8235C42.1632 24.4435 42.4412 24.1656 42.4412 23.8259C42.4412 23.4862 42.1632 23.2083 41.8235 23.2083H38.1176C37.7779 23.2083 37.5 23.4862 37.5 23.8259Z"
                        fill="#D0AF94" />
                    <path
                        d="M39.3529 19.5024H37.5C37.1603 19.5024 36.8823 19.7804 36.8823 20.1201C36.8823 20.4598 37.1603 20.7377 37.5 20.7377H39.3529C39.6926 20.7377 39.9706 20.4598 39.9706 20.1201C39.9706 19.7804 39.6926 19.5024 39.3529 19.5024Z"
                        fill="#D0AF94" />
                    <path
                        d="M37.5 28.1496H39.3529C39.6926 28.1496 39.9706 27.8717 39.9706 27.532C39.9706 27.1922 39.6926 26.9143 39.3529 26.9143H37.5C37.1603 26.9143 36.8823 27.1922 36.8823 27.532C36.8823 27.8717 37.1603 28.1496 37.5 28.1496Z"
                        fill="#D0AF94" />
                    <path
                        d="M10.3236 34.9435H36.8824C37.0615 34.9435 37.2283 34.8694 37.3456 34.7335L46.6103 24.2335C46.8142 23.9988 46.8142 23.653 46.6103 23.4183L37.3456 12.9183C37.2283 12.7824 37.0615 12.7083 36.8824 12.7083H10.3236C9.98387 12.7083 9.70593 12.9862 9.70593 13.3259C9.70593 13.6656 9.98387 13.9435 10.3236 13.9435H33.1765H36.6045L45.3256 23.8259L36.6045 33.7083H33.7942H10.3236C9.98387 33.7083 9.70593 33.9862 9.70593 34.3259C9.70593 34.6656 9.98387 34.9435 10.3236 34.9435Z"
                        fill="#D0AF94" />
                    <path
                        d="M30.0882 31.2378C29.7485 31.2378 29.4706 31.5157 29.4706 31.8554C29.4706 32.1951 29.7485 32.4731 30.0882 32.4731H33.7941C34.1338 32.4731 34.4118 32.1951 34.4118 31.8554C34.4118 31.5157 34.1338 31.2378 33.7941 31.2378H30.0882Z"
                        fill="#D0AF94" />
                    <path
                        d="M29.4706 38.6494C29.1308 38.6494 28.8529 38.9274 28.8529 39.2671C28.8529 39.6068 29.1308 39.8847 29.4706 39.8847H33.7941C34.1338 39.8847 34.4117 39.6068 34.4117 39.2671C34.4117 38.9274 34.1338 38.6494 33.7941 38.6494H29.4706Z"
                        fill="#D0AF94" />
                    <path
                        d="M33.1764 16.4142C33.5161 16.4142 33.7941 16.1363 33.7941 15.7966C33.7941 15.4569 33.5161 15.179 33.1764 15.179H27C26.6603 15.179 26.3823 15.4569 26.3823 15.7966C26.3823 16.1363 26.6603 16.4142 27 16.4142H33.1764Z"
                        fill="#D0AF94" />
                    <path
                        d="M27.6176 9.62012C27.2779 9.62012 27 9.89806 27 10.2378C27 10.5775 27.2779 10.8554 27.6176 10.8554H31.9412C32.2809 10.8554 32.5588 10.5775 32.5588 10.2378C32.5588 9.89806 32.2809 9.62012 31.9412 9.62012H27.6176Z"
                        fill="#D0AF94" />
                    <path
                        d="M27.6177 37.4143C27.6177 37.0746 27.3397 36.7966 27 36.7966H22.6765C22.3368 36.7966 22.0588 37.0746 22.0588 37.4143C22.0588 37.754 22.3368 38.0319 22.6765 38.0319H27C27.3397 38.0319 27.6177 37.754 27.6177 37.4143Z"
                        fill="#D0AF94" />
                    <path
                        d="M25.7647 7.1496C26.1044 7.1496 26.3823 6.87166 26.3823 6.53195C26.3823 6.19225 26.1044 5.91431 25.7647 5.91431H21.4411C21.1014 5.91431 20.8235 6.19225 20.8235 6.53195C20.8235 6.87166 21.1014 7.1496 21.4411 7.1496H25.7647Z"
                        fill="#D0AF94" />
                    <path
                        d="M25.7647 41.1201C25.7647 40.7804 25.4868 40.5024 25.147 40.5024H22.0588C21.7191 40.5024 21.4412 40.7804 21.4412 41.1201C21.4412 41.4598 21.7191 41.7377 22.0588 41.7377H25.147C25.4868 41.7377 25.7647 41.4598 25.7647 41.1201Z"
                        fill="#D0AF94" />
                    <path
                        d="M20.2059 31.2378C19.8662 31.2378 19.5883 31.5157 19.5883 31.8554C19.5883 32.1951 19.8662 32.4731 20.2059 32.4731H24.5294C24.8691 32.4731 25.1471 32.1951 25.1471 31.8554C25.1471 31.5157 24.8691 31.2378 24.5294 31.2378H20.2059Z"
                        fill="#D0AF94" />
                    <path
                        d="M22.0588 15.179H12.1765C11.8368 15.179 11.5588 15.4569 11.5588 15.7966C11.5588 16.1363 11.8368 16.4142 12.1765 16.4142H22.0588C22.3985 16.4142 22.6765 16.1363 22.6765 15.7966C22.6765 15.4569 22.3985 15.179 22.0588 15.179Z"
                        fill="#D0AF94" />
                    <path
                        d="M15.2647 9.62012C14.925 9.62012 14.6471 9.89806 14.6471 10.2378C14.6471 10.5775 14.925 10.8554 15.2647 10.8554H20.8236C21.1633 10.8554 21.4412 10.5775 21.4412 10.2378C21.4412 9.89806 21.1633 9.62012 20.8236 9.62012H15.2647Z"
                        fill="#D0AF94" />
                    <path
                        d="M17.7353 39.2671C17.7353 38.9274 17.4574 38.6494 17.1177 38.6494H12.7942C12.4545 38.6494 12.1765 38.9274 12.1765 39.2671C12.1765 39.6068 12.4545 39.8847 12.7942 39.8847H17.1177C17.4574 39.8847 17.7353 39.6068 17.7353 39.2671Z"
                        fill="#D0AF94" />
                    <path
                        d="M16.5 17.6494C16.1603 17.6494 15.8823 17.9274 15.8823 18.2671V21.9729V25.6788V29.3847C15.8823 29.7244 16.1603 30.0024 16.5 30.0024H20.2059H31.3235H33.7941H35.0294C35.3691 30.0024 35.647 29.7244 35.647 29.3847V25.6788V21.9729V18.2671C35.647 17.9274 35.3691 17.6494 35.0294 17.6494H33.1764H31.3235H20.2059H16.5ZM19.5264 28.7671H17.1176V26.3582V25.1106C19.0076 25.3762 20.5085 26.8771 20.7741 28.7671H19.5264ZM32.0029 18.8847H34.4117V21.2935V22.5412C32.5217 22.2756 31.0209 20.7747 30.7553 18.8847H32.0029ZM34.4117 25.1106V26.3582V28.7671H32.0029H30.7553C31.0209 26.8771 32.5217 25.3762 34.4117 25.1106ZM25.7647 20.7376C27.4694 20.7376 28.8529 22.1212 28.8529 23.8259C28.8529 25.5306 27.4694 26.9141 25.7647 26.9141C24.06 26.9141 22.6764 25.5306 22.6764 23.8259C22.6764 22.1212 24.06 20.7376 25.7647 20.7376ZM17.1176 22.5412V21.2935V18.8847H19.5264H20.7741C20.5085 20.7747 19.0076 22.2756 17.1176 22.5412Z"
                        fill="#D0AF94" />
                    <path
                        d="M11.5588 31.2378C11.2191 31.2378 10.9412 31.5157 10.9412 31.8554C10.9412 32.1951 11.2191 32.4731 11.5588 32.4731H14.647C14.9868 32.4731 15.2647 32.1951 15.2647 31.8554C15.2647 31.5157 14.9868 31.2378 14.647 31.2378H11.5588Z"
                        fill="#D0AF94" />
                    <path
                        d="M12.1765 20.7377H14.0294C14.3691 20.7377 14.6471 20.4598 14.6471 20.1201C14.6471 19.7804 14.3691 19.5024 14.0294 19.5024H12.1765C11.8368 19.5024 11.5588 19.7804 11.5588 20.1201C11.5588 20.4598 11.8368 20.7377 12.1765 20.7377Z"
                        fill="#D0AF94" />
                    <path
                        d="M9.70593 25.6789C9.70593 26.0186 9.98387 26.2966 10.3236 26.2966H13.4118C13.7515 26.2966 14.0295 26.0186 14.0295 25.6789C14.0295 25.3392 13.7515 25.0613 13.4118 25.0613H10.3236C9.98387 25.0613 9.70593 25.3392 9.70593 25.6789Z"
                        fill="#D0AF94" />
                </svg>