<svg width="52" height="66" viewBox="0 0 52 66" fill="none" xmlns="http://www.w3.org/2000/svg">
<path d="M7.1088 43.6249C9.03395 48.2328 12.5844 52.077 17.1069 54.4503C19.3504 55.6274 22.273 56.3276 24.8752 56.3276C25.0562 56.3276 25.2345 56.3228 25.4121 56.316C25.5221 56.3201 25.6342 56.3228 25.7537 56.3228C27.9795 56.3228 31.4151 55.6554 33.7119 54.4503C38.2344 52.077 41.7848 48.2335 43.71 43.6249C45.7185 38.8181 45.6912 33.6971 43.6417 29.2053C42.5637 26.8477 39.3521 22.0218 35.9513 16.9117C32.1208 11.1554 28.1585 5.2023 26.6603 1.96137L25.753 0L23.4747 4.62776H23.4808C21.6042 8.34759 17.622 13.8935 14.1085 18.7863C10.9065 23.246 8.14243 27.095 7.1778 29.206C5.12489 33.6971 5.10029 38.8181 7.1088 43.6249ZM9.05445 30.0627C9.93505 28.1355 12.775 24.1799 15.7816 19.9921C19.3395 15.0371 23.3722 9.41948 25.3206 5.55686L25.7489 4.70701C27.6707 8.19593 30.997 13.1946 34.2318 18.0547C37.5854 23.0944 40.754 27.854 41.763 30.0627C45.4521 38.1274 41.4897 48.0374 32.7521 52.6242C30.9758 53.5553 28.3306 54.1271 26.4171 54.2399V54.2098L25.4087 54.2535L24.399 54.2098V54.2522C22.2559 54.1716 19.8662 53.569 18.0668 52.6221C9.32566 48.0374 5.36809 38.1274 9.05445 30.0627Z" fill="#463B32"/>
<path d="M13.5654 41.6881C12.7456 39.6721 12.3924 37.8678 12.3924 35.6537C12.3924 35.5183 12.3657 35.3843 12.3139 35.2592C12.2621 35.1341 12.1862 35.0205 12.0904 34.9247C11.9947 34.829 11.8811 34.7531 11.756 34.7013C11.6309 34.6495 11.4969 34.6228 11.3615 34.6228C11.2261 34.6228 11.0921 34.6495 10.967 34.7013C10.8419 34.7531 10.7283 34.829 10.6325 34.9247C10.5368 35.0205 10.4609 35.1341 10.4091 35.2592C10.3573 35.3843 10.3306 35.5183 10.3306 35.6537C10.3306 38.1513 10.7268 40.1892 11.6559 42.4669C11.7071 42.5925 11.7824 42.7068 11.8778 42.8033C11.9731 42.8997 12.0864 42.9765 12.2114 43.0291C12.3364 43.0818 12.4705 43.1093 12.6061 43.1101C12.7417 43.111 12.8762 43.0851 13.0018 43.0339C13.1274 42.9828 13.2417 42.9074 13.3381 42.8121C13.4346 42.7168 13.5114 42.6034 13.564 42.4784C13.6167 42.3535 13.6442 42.2193 13.645 42.0837C13.6458 41.9481 13.6199 41.8137 13.5688 41.6881H13.5654Z" fill="#463B32"/>
<path d="M13.9063 45.6094C13.9985 45.609 14.0903 45.597 14.1795 45.5739C14.2314 45.5621 14.2821 45.5459 14.3312 45.5254C14.3805 45.5064 14.4282 45.4835 14.474 45.4571C14.5948 45.3802 14.6988 45.2795 14.7795 45.1612C14.8602 45.0428 14.916 44.9093 14.9436 44.7688C14.9711 44.6282 14.9698 44.4835 14.9397 44.3435C14.9096 44.2034 14.8513 44.071 14.7684 43.9541C14.2602 43.271 13.5886 43.4465 13.3058 43.6358C13.2744 43.6567 13.2443 43.6795 13.2156 43.7041C13.0209 43.8657 12.8924 44.0932 12.8546 44.3434C12.8168 44.5936 12.8724 44.849 13.0107 45.0609C13.2901 45.4947 13.6269 45.6094 13.9063 45.6094Z" fill="#463B32"/>
<path d="M21.0836 48.7274C19.4019 48.117 17.8625 47.1697 16.5597 45.9435C16.4616 45.8475 16.3454 45.772 16.2178 45.7215C16.0902 45.671 15.9538 45.6464 15.8166 45.6493C15.6794 45.6521 15.5441 45.6823 15.4188 45.7381C15.2934 45.7939 15.1804 45.8741 15.0864 45.9741C14.9924 46.0741 14.9193 46.1918 14.8714 46.3204C14.8234 46.449 14.8017 46.5859 14.8073 46.723C14.8129 46.8601 14.8459 46.9947 14.9042 47.119C14.9625 47.2432 15.045 47.3545 15.1469 47.4465C16.6529 48.8657 18.4329 49.9623 20.3779 50.669C20.5059 50.7189 20.6427 50.7428 20.7801 50.7392C20.9175 50.7355 21.0528 50.7045 21.178 50.6478C21.3032 50.5912 21.4159 50.5101 21.5093 50.4093C21.6028 50.3085 21.6751 50.19 21.7222 50.0609C21.7692 49.9317 21.7899 49.7945 21.7832 49.6572C21.7764 49.5199 21.7423 49.3854 21.6828 49.2615C21.6233 49.1376 21.5397 49.0268 21.4368 48.9357C21.3339 48.8445 21.2138 48.7749 21.0836 48.7308V48.7274Z" fill="#463B32"/>
<path d="M23.3305 39.7267C25.7032 39.7267 27.6782 37.5529 27.6782 34.8817V31.3976C27.6782 28.7257 25.7032 26.5526 23.3305 26.5526C20.9579 26.5526 18.9822 28.7278 18.9822 31.3983V34.8824C18.9822 37.5529 20.9572 39.7267 23.3305 39.7267ZM20.4612 31.3983C20.4612 29.4991 21.7285 27.9544 23.3305 27.9544C24.9326 27.9544 26.1998 29.4991 26.1998 31.3983V34.8824C26.1998 36.7809 24.9319 38.3255 23.3305 38.3255C21.7292 38.3255 20.4612 36.7809 20.4612 34.8824V31.3983Z" fill="#9C6137" fill-opacity="0.69"/>
<path d="M30.1649 35.4467C30.2073 35.4467 30.2503 35.4515 30.2927 35.4515C30.6536 35.4511 31.0067 35.3468 31.31 35.1511C31.6132 34.9554 31.8537 34.6765 32.0028 34.3478C32.1518 34.0191 32.2031 33.6544 32.1505 33.2974C32.0979 32.9403 31.9436 32.6059 31.7061 32.3342C31.5027 32.1012 31.245 31.9221 30.9558 31.8126C30.6665 31.703 30.3548 31.6666 30.0481 31.7063C29.7414 31.7461 29.4493 31.861 29.1976 32.0407C28.9459 32.2204 28.7424 32.4594 28.6051 32.7365C28.4679 33.0137 28.4012 33.3204 28.4108 33.6295C28.4205 33.9386 28.5062 34.2405 28.6605 34.5086C28.8148 34.7766 29.0328 35.0025 29.2952 35.1661C29.5576 35.3297 29.8563 35.4261 30.1649 35.4467ZM30.2899 33.0932H30.3227C30.4495 33.0972 30.5696 33.1514 30.6565 33.2439C30.7433 33.3364 30.7899 33.4596 30.7859 33.5864C30.7819 33.7133 30.7277 33.8333 30.6352 33.9202C30.5427 34.007 30.4195 34.0536 30.2927 34.0496C30.2813 34.0503 30.2699 34.0503 30.2585 34.0496C30.1321 34.041 30.0142 33.9826 29.9308 33.8872C29.8474 33.7917 29.8053 33.6671 29.8138 33.5407C29.8216 33.4196 29.8751 33.306 29.9635 33.2229C30.0519 33.1398 30.1686 33.0935 30.2899 33.0932Z" fill="#9C6137" fill-opacity="0.69"/>
<path d="M32.4843 37.4757C32.4513 37.9731 32.6171 38.4632 32.9453 38.8384C33.2735 39.2136 33.7372 39.4432 34.2345 39.4767C34.2769 39.4767 34.3192 39.4808 34.3609 39.4808C34.7274 39.4806 35.0858 39.3734 35.3922 39.1722C35.6985 38.971 35.9394 38.6847 36.0851 38.3485C36.2309 38.0122 36.2752 37.6407 36.2126 37.2796C36.15 36.9185 35.9832 36.5836 35.7328 36.316C35.4824 36.0484 35.1592 35.8599 34.803 35.7735C34.4469 35.6872 34.0732 35.7069 33.7281 35.8301C33.3829 35.9533 33.0813 36.1747 32.8603 36.4671C32.6393 36.7594 32.5086 37.11 32.4843 37.4757ZM34.8371 37.6328C34.8308 37.7258 34.7975 37.8149 34.7413 37.8892C34.6851 37.9635 34.6084 38.0198 34.5207 38.0511C34.433 38.0824 34.338 38.0874 34.2474 38.0655C34.1569 38.0436 34.0747 37.9957 34.011 37.9277C33.9473 37.8597 33.9048 37.7746 33.8888 37.6828C33.8728 37.591 33.884 37.4966 33.9209 37.411C33.9579 37.3255 34.019 37.2526 34.0968 37.2014C34.1746 37.1501 34.2657 37.1227 34.3589 37.1225H34.3916C34.4544 37.1267 34.5158 37.1432 34.5722 37.1711C34.6286 37.199 34.6789 37.2378 34.7203 37.2852C34.7617 37.3326 34.7933 37.3877 34.8133 37.4474C34.8334 37.507 34.8414 37.57 34.8371 37.6328Z" fill="#9C6137" fill-opacity="0.69"/>
<path d="M29.8643 39.146C29.9401 39.1982 30.0254 39.235 30.1153 39.2542C30.2053 39.2734 30.2982 39.2747 30.3886 39.258C30.4791 39.2414 30.5654 39.207 30.6426 39.157C30.7198 39.1069 30.7864 39.0421 30.8385 38.9664L34.8938 33.0761C34.9993 32.9229 35.0397 32.7341 35.006 32.5511C34.9723 32.3682 34.8673 32.2061 34.7141 32.1005C34.5609 31.995 34.3721 31.9546 34.1891 31.9883C34.0062 32.022 33.8441 32.127 33.7385 32.2802L29.684 38.1705C29.6315 38.2463 29.5945 38.3317 29.5752 38.4219C29.5559 38.512 29.5545 38.6051 29.5713 38.6957C29.5881 38.7864 29.6226 38.8729 29.6729 38.9501C29.7231 39.0274 29.7882 39.094 29.8643 39.146Z" fill="#9C6137" fill-opacity="0.69"/>
<path d="M11.1074 60.7392C10.2908 60.7392 9.46462 60.9576 8.90436 61.3565L9.43613 62.3915C9.80648 62.0971 10.3667 61.9167 10.908 61.9167C11.7057 61.9167 12.0855 62.2871 12.0855 62.9233H10.908C9.35067 62.9233 8.71444 63.55 8.71444 64.4522C8.71444 65.3353 9.42663 66 10.6231 66C11.3733 66 11.9051 65.7531 12.1805 65.2878V65.924H13.5669V63.0088C13.5669 61.4609 12.6648 60.7392 11.1074 60.7392ZM10.9935 65.0029C10.4712 65.0029 10.1578 64.756 10.1578 64.3857C10.1578 64.0438 10.3762 63.7874 11.0694 63.7874H12.0855V64.3097C11.9146 64.775 11.4873 65.0029 10.9935 65.0029Z" fill="#463B32"/>
<path d="M17.8039 64.6326C17.6424 64.756 17.424 64.8225 17.2056 64.8225C16.8068 64.8225 16.5694 64.5851 16.5694 64.1483V62.0687H17.8419V60.9291H16.5694V59.6852H15.088V60.9291H14.2999V62.0687H15.088V64.1673C15.088 65.3828 15.7907 66 16.9967 66C17.4525 66 17.8988 65.8955 18.2027 65.6771L17.8039 64.6326Z" fill="#463B32"/>
<path d="M23.881 63.3886C23.881 61.7458 22.7225 60.7392 21.2221 60.7392C19.6648 60.7392 18.4968 61.8408 18.4968 63.3696C18.4968 64.889 19.6458 66 21.4121 66C22.3332 66 23.0454 65.7151 23.5202 65.1739L22.732 64.3192C22.3806 64.6516 21.9913 64.813 21.45 64.813C20.6714 64.813 20.1301 64.4237 19.9877 63.7874H23.8525C23.862 63.664 23.881 63.5026 23.881 63.3886ZM21.2316 61.8598C21.8963 61.8598 22.3806 62.2776 22.4851 62.9233H19.9687C20.0731 62.2681 20.5574 61.8598 21.2316 61.8598Z" fill="#463B32"/>
<path d="M26.2822 61.4894V60.8152H24.8673V65.924H26.3486V63.5121C26.3486 62.534 26.8899 62.0877 27.7066 62.0877C27.8205 62.0877 27.9155 62.0972 28.0389 62.1066V60.7392C27.2507 60.7392 26.643 60.9956 26.2822 61.4894Z" fill="#463B32"/>
<path d="M33.2699 60.7107C33.2699 60.2074 33.5073 59.97 33.9442 59.97C34.1721 59.97 34.381 60.0365 34.5424 60.1505L34.9317 59.0774C34.6564 58.8875 34.2195 58.802 33.8017 58.802C32.5293 58.802 31.8265 59.5522 31.8265 60.7012V60.9291H31.0384V62.0687H31.8265V65.924H33.3079V62.0687H34.5804V60.9291H33.2699V60.7107Z" fill="#463B32"/>
<path d="M37.4937 61.4894V60.8152H36.0788V65.924H37.5602V63.5121C37.5602 62.534 38.1015 62.0877 38.9181 62.0877C39.0321 62.0877 39.127 62.0972 39.2505 62.1066V60.7392C38.4623 60.7392 37.8546 60.9956 37.4937 61.4894Z" fill="#463B32"/>
<path d="M45.0893 63.3886C45.0893 61.7458 43.9308 60.7392 42.4304 60.7392C40.8731 60.7392 39.7051 61.8408 39.7051 63.3696C39.7051 64.889 40.8541 66 42.6204 66C43.5415 66 44.2537 65.7151 44.7285 65.1739L43.9403 64.3192C43.589 64.6516 43.1996 64.813 42.6583 64.813C41.8797 64.813 41.3384 64.4237 41.196 63.7874H45.0608C45.0703 63.664 45.0893 63.5026 45.0893 63.3886ZM42.4399 61.8598C43.1047 61.8598 43.589 62.2776 43.6934 62.9233H41.177C41.2814 62.2681 41.7657 61.8598 42.4399 61.8598Z" fill="#463B32"/>
<path d="M51.0799 63.3886C51.0799 61.7458 49.9214 60.7392 48.4211 60.7392C46.8637 60.7392 45.6957 61.8408 45.6957 63.3696C45.6957 64.889 46.8447 66 48.611 66C49.5321 66 50.2443 65.7151 50.7191 65.1739L49.9309 64.3192C49.5796 64.6516 49.1902 64.813 48.649 64.813C47.8703 64.813 47.329 64.4237 47.1866 63.7874H51.0515C51.061 63.664 51.0799 63.5026 51.0799 63.3886ZM48.4306 61.8598C49.0953 61.8598 49.5796 62.2776 49.684 62.9233H47.1676C47.2721 62.2681 47.7564 61.8598 48.4306 61.8598Z" fill="#463B32"/>
<path d="M7.11458 61.1496L6.08542 64.1117L5.08312 61.1496H3.63336L2.6042 64.0849L1.61085 61.1496H0L1.72719 66H3.37383L4.32244 63.36L5.23525 66H6.8819L8.60908 61.1496H7.11458Z" fill="#463B32"/>
</svg>
