<svg width="48" height="48" viewBox="0 0 48 48" fill="none" xmlns="http://www.w3.org/2000/svg">
                    <path
                        d="M41.5457 26.5389C41.5457 37.6155 29.9003 42.1381 19.6179 42.1381C9.33554 42.1381 1.00002 33.1587 1.00002 22.0821C1.00002 11.0054 12.6454 6.48289 22.9278 6.48289C33.2102 6.48289 41.5457 15.4623 41.5457 26.5389Z"
                        fill="#D0AF94" fill-opacity="0.1" />
                    <path
                        d="M26.8973 12.5266C26.4496 12.5266 26.0202 12.7045 25.7035 13.0211C25.387 13.3377 25.2091 13.7671 25.2091 14.2149V24.3442C25.2091 24.7919 25.387 25.2213 25.7036 25.5379C26.0202 25.8545 26.4496 26.0324 26.8973 26.0324H34.4943C34.717 26.0339 34.9378 25.9914 35.1439 25.9072C35.35 25.8231 35.5375 25.6989 35.6956 25.542C35.8535 25.3851 35.9789 25.1985 36.0645 24.9929C36.15 24.7873 36.1941 24.5668 36.1941 24.3442C36.1941 24.1215 36.15 23.901 36.0645 23.6954C35.9789 23.4898 35.8535 23.3032 35.6956 23.1463C35.5375 22.9894 35.35 22.8652 35.1439 22.7811C34.9378 22.6969 34.717 22.6544 34.4943 22.6559H28.5856V14.2149C28.5856 13.7671 28.4077 13.3377 28.0911 13.0211C27.7744 12.7045 27.345 12.5266 26.8973 12.5266Z"
                        fill="#D0AF94" />
                    <path
                        d="M40.8729 10.3689C33.632 3.12801 21.8508 3.12801 14.6099 10.3689C14.2966 10.6861 14.1216 11.1144 14.123 11.5603C14.1243 12.0062 14.3021 12.4334 14.6174 12.7486C14.9326 13.0639 15.3598 13.2417 15.8057 13.2431C16.2516 13.2444 16.6799 13.0694 16.9971 12.7561C22.9207 6.8317 32.5604 6.8317 38.4856 12.7561C44.4092 18.6801 44.4092 28.3198 38.4856 34.2438C33.2608 39.4675 25.0983 40.0663 19.1652 36.0192L20.672 35.5169C21.0968 35.3752 21.4479 35.0706 21.6481 34.6701C21.8483 34.2695 21.8812 33.8058 21.7395 33.381C21.5978 32.9563 21.2932 32.6052 20.8927 32.405C20.4921 32.2048 20.0285 32.1719 19.6037 32.3136L15.2275 33.7726C14.8426 33.9011 14.5168 34.1638 14.3097 34.5128C14.1026 34.8618 14.0281 35.2737 14.0998 35.6731L15.0006 40.6809C15.0708 41.0704 15.2754 41.4227 15.5788 41.6768C15.8822 41.9308 16.2651 42.0702 16.6608 42.0708C16.7616 42.0706 16.8623 42.0615 16.9615 42.0436C17.4021 41.9643 17.7933 41.7132 18.0488 41.3457C18.3044 40.978 18.4035 40.5239 18.3243 40.0833L18.2029 39.4084C21.7521 41.5336 25.9087 42.4144 30.0147 41.9112C34.1208 41.4082 37.9418 39.5499 40.8729 36.6308C48.1129 29.3906 48.1129 17.6094 40.8729 10.3689Z"
                        fill="#D0AF94" />
                    <path
                        d="M13.2869 14.6132C13.0876 14.516 12.8711 14.459 12.6497 14.4455C12.4284 14.432 12.2066 14.4623 11.997 14.5346C11.7873 14.607 11.594 14.7199 11.4281 14.8669C11.2621 15.014 11.1268 15.1924 11.0299 15.3918C10.8931 15.672 10.7645 15.9547 10.6441 16.24C10.5562 16.4442 10.5095 16.6639 10.5067 16.8863C10.504 17.1087 10.5452 17.3294 10.628 17.5358C10.7108 17.7421 10.8335 17.9302 10.9892 18.089C11.1449 18.2478 11.3304 18.3743 11.5351 18.4612C11.7399 18.548 11.9597 18.5936 12.1821 18.5953C12.4045 18.5969 12.625 18.5546 12.831 18.4707C13.037 18.3869 13.2243 18.2632 13.3824 18.1067C13.5404 17.9503 13.6659 17.7641 13.7518 17.5589C13.8507 17.3273 13.9545 17.0973 14.065 16.8698C14.1621 16.6706 14.219 16.4541 14.2325 16.2329C14.2459 16.0116 14.2156 15.7899 14.1434 15.5803C14.0711 15.3708 13.9583 15.1775 13.8113 15.0116C13.6644 14.8456 13.4862 14.7103 13.2869 14.6132Z"
                        fill="#D0AF94" />
                    <path
                        d="M10.865 24.7729C11.305 24.7728 11.7277 24.6008 12.0427 24.2936C12.3578 23.9863 12.5404 23.5681 12.5515 23.1282C12.5597 22.8096 12.5776 22.4909 12.6051 22.172C12.6242 21.9512 12.5996 21.7288 12.5328 21.5174C12.4659 21.3061 12.3581 21.11 12.2155 20.9403C12.0728 20.7706 11.8982 20.6307 11.7014 20.5286C11.5047 20.4264 11.2898 20.364 11.069 20.3449C10.8482 20.3258 10.6257 20.3504 10.4144 20.4172C10.203 20.4841 10.0069 20.5919 9.83727 20.7346C9.66761 20.8772 9.52769 21.0518 9.42553 21.2485C9.32337 21.4453 9.26095 21.6601 9.24183 21.881C9.20807 22.2672 9.18636 22.6541 9.17671 23.0417C9.1652 23.4892 9.3319 23.9229 9.64014 24.2475C9.94838 24.5721 10.3729 24.7611 10.8204 24.7727C10.8353 24.7729 10.8501 24.7729 10.865 24.7729Z"
                        fill="#D0AF94" />
                    <path
                        d="M13.1756 27.8366C13.1121 27.6242 13.0074 27.4265 12.8675 27.2545C12.7275 27.0826 12.5551 26.9399 12.36 26.8346C12.165 26.7293 11.9511 26.6635 11.7305 26.6409C11.51 26.6183 11.2872 26.6393 11.0748 26.7028C10.8624 26.7662 10.6646 26.8709 10.4927 27.0109C10.3208 27.1508 10.1781 27.3233 10.0728 27.5183C9.9675 27.7134 9.90167 27.9273 9.87905 28.1479C9.85643 28.3683 9.87747 28.5912 9.94096 28.8036C10.0291 29.0995 10.1247 29.3946 10.2278 29.6868C10.3014 29.896 10.4154 30.0886 10.5634 30.2537C10.7114 30.4187 10.8904 30.553 11.0904 30.6489C11.2902 30.7448 11.5071 30.8003 11.7284 30.8124C11.9498 30.8245 12.1714 30.7929 12.3805 30.7193C12.5897 30.6458 12.7823 30.5317 12.9474 30.3837C13.1124 30.2357 13.2467 30.0567 13.3426 29.8568C13.4385 29.6569 13.4941 29.4401 13.5061 29.2186C13.5182 28.9973 13.4866 28.7757 13.413 28.5666C13.3281 28.3248 13.2489 28.0815 13.1756 27.8366Z"
                        fill="#D0AF94" />
                </svg>