<svg width="234" height="300" viewBox="0 0 234 300" fill="none" xmlns="http://www.w3.org/2000/svg">
<ellipse cx="73" cy="166.725" rx="150" ry="133.276" fill="#9C6137" fill-opacity="0.1"/>
<ellipse cx="-16.1583" cy="38.6795" rx="43.5331" ry="38.6795" fill="#9C6137" fill-opacity="0.15"/>
<g opacity="0.5">
<circle cx="161.5" cy="155.5" r="2.5" transform="rotate(90 161.5 155.5)" fill="#BD967A"/>
<circle cx="149.5" cy="155.5" r="2.5" transform="rotate(90 149.5 155.5)" fill="#BD967A"/>
<circle cx="137.5" cy="155.5" r="2.5" transform="rotate(90 137.5 155.5)" fill="#BD967A"/>
<circle cx="125.5" cy="155.5" r="2.5" transform="rotate(90 125.5 155.5)" fill="#BD967A"/>
<circle cx="113.5" cy="155.5" r="2.5" transform="rotate(90 113.5 155.5)" fill="#BD967A"/>
<circle cx="101.5" cy="155.5" r="2.5" transform="rotate(90 101.5 155.5)" fill="#BD967A"/>
<circle cx="89.5" cy="155.5" r="2.5" transform="rotate(90 89.5 155.5)" fill="#BD967A"/>
<circle cx="77.5" cy="155.5" r="2.5" transform="rotate(90 77.5 155.5)" fill="#BD967A"/>
<circle cx="161.5" cy="189.5" r="2.5" transform="rotate(90 161.5 189.5)" fill="#BD967A"/>
<circle cx="149.5" cy="189.5" r="2.5" transform="rotate(90 149.5 189.5)" fill="#BD967A"/>
<circle cx="137.5" cy="189.5" r="2.5" transform="rotate(90 137.5 189.5)" fill="#BD967A"/>
<circle cx="125.5" cy="189.5" r="2.5" transform="rotate(90 125.5 189.5)" fill="#BD967A"/>
<circle cx="113.5" cy="189.5" r="2.5" transform="rotate(90 113.5 189.5)" fill="#BD967A"/>
<circle cx="101.5" cy="189.5" r="2.5" transform="rotate(90 101.5 189.5)" fill="#BD967A"/>
<circle cx="89.5" cy="189.5" r="2.5" transform="rotate(90 89.5 189.5)" fill="#BD967A"/>
<circle cx="77.5" cy="189.5" r="2.5" transform="rotate(90 77.5 189.5)" fill="#BD967A"/>
<circle cx="161.5" cy="172.5" r="2.5" transform="rotate(90 161.5 172.5)" fill="#BD967A"/>
<circle cx="149.5" cy="172.5" r="2.5" transform="rotate(90 149.5 172.5)" fill="#BD967A"/>
<circle cx="137.5" cy="172.5" r="2.5" transform="rotate(90 137.5 172.5)" fill="#BD967A"/>
<circle cx="125.5" cy="172.5" r="2.5" transform="rotate(90 125.5 172.5)" fill="#BD967A"/>
<circle cx="113.5" cy="172.5" r="2.5" transform="rotate(90 113.5 172.5)" fill="#BD967A"/>
<circle cx="101.5" cy="172.5" r="2.5" transform="rotate(90 101.5 172.5)" fill="#BD967A"/>
<circle cx="89.5" cy="172.5" r="2.5" transform="rotate(90 89.5 172.5)" fill="#BD967A"/>
<circle cx="77.5" cy="172.5" r="2.5" transform="rotate(90 77.5 172.5)" fill="#BD967A"/>
<circle cx="161.5" cy="206.5" r="2.5" transform="rotate(90 161.5 206.5)" fill="#BD967A"/>
<circle cx="149.5" cy="206.5" r="2.5" transform="rotate(90 149.5 206.5)" fill="#BD967A"/>
<circle cx="137.5" cy="206.5" r="2.5" transform="rotate(90 137.5 206.5)" fill="#BD967A"/>
<circle cx="125.5" cy="206.5" r="2.5" transform="rotate(90 125.5 206.5)" fill="#BD967A"/>
<circle cx="113.5" cy="206.5" r="2.5" transform="rotate(90 113.5 206.5)" fill="#BD967A"/>
<circle cx="101.5" cy="206.5" r="2.5" transform="rotate(90 101.5 206.5)" fill="#BD967A"/>
<circle cx="89.5" cy="206.5" r="2.5" transform="rotate(90 89.5 206.5)" fill="#BD967A"/>
<circle cx="77.5" cy="206.5" r="2.5" transform="rotate(90 77.5 206.5)" fill="#BD967A"/>
</g>
</svg>
