<svg width="100px" viewBox="0 0 60 60" fill="none"
                    xmlns="http://www.w3.org/2000/svg">
                    <path
                        d="M58.0424 32.3631C57.7762 32.3459 57.514 32.4358 57.3136 32.6131C57.1132 32.7903 56.991 33.0405 56.9737 33.3084C56.5822 39.4193 54.1778 44.9337 50.3998 49.191C50.3508 49.1605 50.3036 49.13 50.257 49.099C47.9005 47.5536 46.1092 46.1587 44.629 44.7132C43.6747 42.1342 42.5715 39.4588 41.3406 36.7604L41.1354 36.309C40.0141 33.8366 38.8546 31.2794 36.9598 29.1755C36.4896 28.6528 35.9916 28.1534 35.5074 27.6703L35.4862 27.649C34.9579 27.1209 34.4115 26.5745 33.908 26.0013C33.4844 25.5195 33.0535 25.0029 32.6722 24.5473C32.173 23.9503 31.6072 23.2736 31.0347 22.6413L30.9251 22.5195C30.5723 22.1236 30.0386 21.526 29.4207 21.1971C28.9287 20.9351 28.4428 20.8803 28.0065 21.0356C27.8385 21.0928 27.6838 21.1836 27.5516 21.3026C27.4195 21.4217 27.3128 21.5665 27.2379 21.7282C27.0418 22.1479 27.0642 22.648 27.1556 23.1012L26.7713 22.7589C26.4258 22.4525 26.0724 22.112 25.6935 21.7465C24.692 20.7792 23.656 19.779 22.4257 19.1272C21.5506 18.6619 20.6979 18.4359 19.8186 18.4359C19.7315 18.4359 19.645 18.4359 19.559 18.442C19.2409 18.2104 18.9079 18.0002 18.5623 17.8127C17.9214 17.4716 17.3278 17.2986 16.7983 17.2986C16.2708 17.2915 15.7602 17.4853 15.3689 17.8414C14.9398 17.7561 14.5465 17.8121 14.2076 18.0028C13.1516 18.5973 13.5728 19.9959 13.7113 20.4551C13.9794 21.3506 14.4145 22.1796 14.7183 22.7248C15.3235 23.8139 15.8736 24.9658 16.4043 26.0805L16.6276 26.5465C17.3284 28.0145 18.1078 29.438 18.8613 30.8159C19.3176 31.6504 19.7835 32.5026 20.2326 33.3633C19.5439 32.5842 18.08 31.0218 16.9042 30.3968C16.3535 30.1044 15.896 30.0313 15.4996 30.1678C15.3452 30.2225 15.2039 30.3089 15.0846 30.4217C14.9653 30.5344 14.8706 30.671 14.8067 30.8226C14.5574 31.3781 14.6996 31.9799 14.8025 32.4148L14.8291 32.5294C14.9848 33.204 15.2028 33.8625 15.4802 34.4963C15.6818 34.9622 15.8742 35.441 16.0327 35.8424C16.0423 35.8682 16.0536 35.8932 16.0666 35.9174C16.7432 37.1783 17.375 38.645 18.0546 40.5334C18.0621 40.5542 18.071 40.5746 18.0812 40.5943L18.0879 40.6077L18.126 40.6832C18.132 40.7328 18.1434 40.7816 18.1599 40.8288C18.6537 42.22 19.3157 43.3482 20.2435 44.3782C20.4001 44.5657 20.5374 44.7688 20.6531 44.9843C20.7809 45.2163 20.9283 45.4368 21.0937 45.6434C21.2462 45.8261 21.406 45.9973 21.5615 46.1648C21.7509 46.3701 21.9476 46.5826 22.1225 46.8013C23.4577 48.4559 24.9925 49.9365 26.6914 51.209C28.3169 52.4212 30.1632 53.5584 32.6783 54.8973C33.0414 55.0918 33.4077 55.2839 33.7773 55.4735C34.806 56.0071 35.9008 56.5054 36.8636 56.9446L37.3102 57.1499C35.9515 57.4944 34.5681 57.7312 33.1727 57.8583C18.7729 59.1765 5.99554 48.4533 4.6884 33.9596C4.66964 33.7525 4.6533 33.5454 4.63938 33.3395C4.63256 33.2053 4.59928 33.0739 4.54148 32.9528C4.48368 32.8317 4.40252 32.7234 4.30272 32.6342C4.20292 32.545 4.08648 32.4767 3.96019 32.4333C3.83391 32.3898 3.70029 32.3721 3.56713 32.3812C3.43397 32.3902 3.30393 32.4259 3.1846 32.486C3.06526 32.5462 2.95901 32.6296 2.87204 32.7315C2.78506 32.8334 2.7191 32.9517 2.67801 33.0795C2.63691 33.2073 2.6215 33.3421 2.63267 33.476C2.6478 33.6977 2.66474 33.92 2.68471 34.1423C4.01727 48.8833 16.3583 60 30.7829 60C31.6332 60 32.4931 59.961 33.3561 59.8818C40.0565 59.27 46.3198 56.2704 51.0181 51.4231C55.7164 46.5757 58.5411 40.1993 58.9834 33.4418C58.9923 33.3088 58.975 33.1752 58.9324 33.0489C58.8899 32.9226 58.823 32.8059 58.7355 32.7057C58.6481 32.6055 58.5419 32.5236 58.4229 32.4648C58.304 32.406 58.1747 32.3714 58.0424 32.3631ZM40.2162 56.2337C39.375 55.8165 38.5217 55.4303 37.6902 55.0545L37.663 55.0423C36.6887 54.6013 35.6811 54.145 34.7268 53.6516C34.3423 53.4531 33.959 53.2518 33.577 53.048C31.1164 51.7396 29.3142 50.6224 27.7305 49.4285C25.8787 48.0275 24.1322 46.1642 22.39 43.7234C21.069 41.8759 19.9415 39.8958 19.0253 37.8148C18.8044 37.3123 18.6119 36.786 18.4201 36.27C18.2349 35.7681 18.0443 35.2497 17.8252 34.7436C17.778 34.6339 17.7304 34.5247 17.6824 34.4158L17.6443 34.3287C17.467 33.9255 17.2939 33.5369 17.145 33.1409L17.1916 33.1824C18.0455 33.9291 18.8007 34.8124 19.4216 35.5768C19.8253 36.0721 20.218 36.599 20.6005 37.1131C20.8426 37.4329 21.11 37.7959 21.3812 38.1486L21.5627 38.3819C22.1255 39.1037 22.7077 39.8511 23.0411 40.6534C23.0938 40.7811 23.1709 40.8972 23.268 40.9951C23.5019 41.9244 23.6777 42.8676 23.7945 43.819C23.8133 43.9873 23.8728 44.1483 23.9677 44.2881C24.0627 44.4278 24.1902 44.542 24.3392 44.6206C24.4962 44.7033 24.6709 44.7464 24.8481 44.7461C25.0566 44.7483 25.2608 44.6862 25.4333 44.5682C25.5782 44.4673 25.6923 44.3277 25.7628 44.1651C25.8332 44.0026 25.8572 43.8234 25.8321 43.6479C25.1416 37.9019 22.353 32.8613 19.8937 28.4147C19.1608 27.0886 18.5018 25.7278 17.8966 24.448C17.5711 23.7633 17.2189 23.0939 16.8788 22.447L16.8533 22.3989C16.6482 22.0084 16.4358 21.604 16.2276 21.194C16.0896 20.9187 15.9408 20.6251 15.8191 20.3297C16.0007 20.4612 16.1822 20.6032 16.3517 20.736L16.4321 20.7969C18.0056 22.0395 19.1735 23.753 20.3052 25.4098L20.3191 25.4305C20.6102 25.8569 20.9103 26.2961 21.2147 26.7225C21.4826 27.0998 21.7539 27.4752 22.0287 27.8488C23.2838 29.572 24.5831 31.355 25.3704 33.345C25.4596 33.5773 25.6295 33.7693 25.8485 33.8853C26.0413 33.9867 26.2602 34.0269 26.4762 34.0007C26.6922 33.9745 26.8953 33.8831 27.0588 33.7385C27.2068 33.6064 27.3098 33.4308 27.3532 33.2366C27.3966 33.0423 27.3783 32.8392 27.3008 32.6561C26.4028 30.384 24.9849 28.4299 23.613 26.5404L23.5743 26.4862C23.2874 26.0908 23.0006 25.6943 22.7192 25.2977C22.4614 24.9323 22.2072 24.5631 21.9524 24.1922C21.3097 23.2578 20.6562 22.3075 19.9251 21.4139L20.1194 21.5906C22.3682 23.6537 24.3967 26.0537 26.2539 28.3404L26.5075 28.6535C27.5036 29.8784 28.5329 31.1442 29.425 32.4617C29.5199 32.602 29.6472 32.7169 29.7959 32.7968C29.9422 32.8742 30.1051 32.9145 30.2704 32.9143C30.421 32.9141 30.5699 32.8819 30.7073 32.8199C30.8447 32.7579 30.9676 32.6674 31.068 32.5543C31.2161 32.39 31.3042 32.1797 31.3175 31.9582C31.3308 31.7366 31.2686 31.5172 31.1412 31.3361C30.1263 29.8376 28.9687 28.4226 27.8485 27.0545L27.5526 26.692C27.0352 26.0573 26.5026 25.4129 25.9519 24.7654C28.5946 27.1054 31.0935 29.605 33.4347 32.2504C33.5155 32.3417 33.6116 32.418 33.7186 32.4758C33.8544 32.5477 34.0056 32.5853 34.1591 32.5854C34.3137 32.584 34.466 32.5468 34.604 32.4768C34.7421 32.4068 34.8624 32.3058 34.9555 32.1815C35.1105 31.9894 35.192 31.7477 35.1852 31.5004C35.1784 31.253 35.0838 31.0162 34.9186 30.8329C33.8366 29.6147 32.6759 28.3812 31.4692 27.1696C31.4538 27.0299 31.4099 26.8949 31.3403 26.7731C31.1031 26.3515 30.8416 25.9434 30.5887 25.5487L30.2722 25.7534L30.579 25.5335C30.326 25.1388 30.0682 24.7373 29.8389 24.325C30.2831 24.8123 30.7061 25.3367 31.1194 25.8478L31.1721 25.913C31.4268 26.2267 31.6895 26.5513 31.9545 26.8638C32.7013 27.7434 33.5279 28.5828 34.2614 29.3241C34.5224 29.5881 34.7828 29.8536 35.0427 30.1208C36.0932 31.2027 36.8902 32.2863 37.4803 33.4333C38.0521 34.5438 38.6373 35.7572 39.378 37.3695C40.0486 38.8235 40.6979 40.3171 41.3085 41.8077C41.6177 42.563 41.9227 43.3305 42.2162 44.0931C42.284 44.2692 42.3373 44.4507 42.3978 44.6413C42.4783 44.9266 42.578 45.206 42.6961 45.4777C42.9231 45.9729 43.3013 46.3061 43.6644 46.6283C43.7326 46.6888 43.8005 46.7498 43.8683 46.8111C44.797 47.655 45.7701 48.448 46.7834 49.1867C47.4672 49.688 48.197 50.196 48.9553 50.6998C46.4381 53.1126 43.4668 54.9942 40.2162 56.2337Z"
                        fill="#463B32" />
                    <path
                        d="M37.2642 23.9899C38.7517 23.9899 39.8803 23.1877 40.3584 21.7897C40.7378 20.6842 40.3021 19.5622 39.9517 18.6606C39.9057 18.5425 39.8138 18.3177 39.7097 18.0649C39.5554 17.6891 39.3635 17.2219 39.2861 17.0001C39.2322 16.8546 39.1741 16.7011 39.1112 16.5329C38.9096 15.9987 38.6591 15.3348 38.319 14.3047C38.2985 14.2421 38.2611 14.1864 38.2109 14.1438C38.1608 14.1012 38.1 14.0735 38.0352 14.0637C37.9703 14.0538 37.904 14.0622 37.8437 14.088C37.7833 14.1138 37.7313 14.1559 37.6933 14.2097C37.3423 14.7092 36.8999 15.3013 36.5102 15.8239C36.0406 16.4525 35.6696 16.9502 35.5244 17.189C35.4639 17.2913 35.3095 17.5045 35.1613 17.711C34.9452 18.0156 34.7213 18.3262 34.613 18.5163C34.1767 19.2789 33.154 21.0643 34.8 22.8777C35.1119 23.2246 35.492 23.5026 35.9161 23.6941C36.3403 23.8855 36.7994 23.9863 37.2642 23.9899ZM37.2467 18.2501C37.3483 18.0844 37.4524 17.9065 37.5632 17.6848C37.637 17.9108 37.7163 18.138 37.7949 18.3628C37.9111 18.6941 38.0207 19.0066 38.106 19.299C38.1496 19.447 38.198 19.589 38.2446 19.7254C38.4128 20.22 38.5574 20.647 38.4261 21.155C38.2518 21.8135 37.6999 21.9518 37.2666 21.9518C37.0818 21.9493 36.8995 21.9081 36.7313 21.8308C36.5632 21.7535 36.4128 21.6418 36.2899 21.5028C35.8705 21.0411 35.9964 20.3979 36.7704 19.0474C36.9374 18.7618 37.0911 18.5065 37.2467 18.2501Z"
                        fill="#9C6137" fill-opacity="0.69" />
                    <path
                        d="M1.61435 25.6805C1.17745 25.5953 1.01132 25.3476 1.08483 24.9659C1.12319 24.7668 1.21606 24.5955 1.34215 24.4737L0.476161 23.9517C0.264942 24.1602 0.117232 24.5274 0.0469098 24.8925C-0.167253 26.0044 0.365715 26.7455 1.36318 26.9402L1.56102 26.9788L1.42837 27.6675L2.41759 27.8605L2.55024 27.1718L5.8971 27.825L6.14643 26.5305L2.79957 25.8774L3.01373 24.7655L2.02451 24.5725L1.80395 25.7175L1.61435 25.6805Z"
                        fill="#463B32" />
                    <path
                        d="M7.31429 22.7942C7.83047 21.4428 7.30186 20.1134 6.02992 19.6212C4.75799 19.1289 3.48076 19.7595 2.96458 21.1109C2.4484 22.4623 2.97399 23.7996 4.24592 24.2918C5.51786 24.784 6.7981 24.1456 7.31429 22.7942ZM6.3093 22.4053C6.07385 23.0217 5.45305 23.3257 4.72286 23.0431C3.99268 22.7606 3.73412 22.1162 3.96957 21.4998C4.20502 20.8834 4.8228 20.5873 5.55298 20.8698C6.28317 21.1524 6.54475 21.7888 6.3093 22.4053Z"
                        fill="#463B32" />
                    <path
                        d="M5.9353 16.6586L5.42765 16.346L4.7759 17.4183L8.62259 19.787L9.30495 18.6643L7.48886 17.546C6.75241 17.0925 6.66569 16.4754 7.04186 15.8564C7.09435 15.7701 7.14524 15.7025 7.20925 15.6133L6.17966 14.9793C5.81661 15.5767 5.72971 16.1562 5.9353 16.6586Z"
                        fill="#463B32" />
                    <path
                        d="M10.4403 9.96038C9.90908 10.4547 9.50301 11.0977 9.37839 11.6979L10.3467 12.0538C10.4106 11.6369 10.6665 11.1796 11.0186 10.852C11.5375 10.3693 12.0072 10.3818 12.3898 10.7984L11.6239 11.5111C10.6108 12.4537 10.5738 13.2491 11.1163 13.8397C11.6473 14.418 12.5103 14.4221 13.2885 13.698C13.7765 13.2439 13.974 12.7604 13.8733 12.2891L14.2559 12.7057L15.1577 11.8665L13.4048 9.95779C12.4741 8.94434 11.4533 9.01781 10.4403 9.96038ZM12.9299 12.821C12.5902 13.1371 12.2379 13.1651 12.0152 12.9226C11.8096 12.6988 11.7975 12.3987 12.2485 11.9792L12.9094 11.3642L13.2234 11.7062C13.392 12.1143 13.2511 12.5221 12.9299 12.821Z"
                        fill="#463B32" />
                    <path d="M16.0783 11.2582L17.1632 10.5152L13.6523 5.32099L12.5673 6.06399L16.0783 11.2582Z"
                        fill="#463B32" />
                    <path d="M18.1812 9.93677L19.3359 9.30277L16.34 3.7742L15.1853 4.4082L18.1812 9.93677Z"
                        fill="#463B32" />
                    <path
                        d="M24.3996 7.39664C25.7112 7.05694 26.3199 6.27852 26.1103 5.45854C25.6659 3.72018 23.2049 5.13569 23.0121 4.38131C22.9534 4.15171 23.1517 3.90802 23.7219 3.76032C24.1211 3.65693 24.5738 3.62711 25.0684 3.76127L25.2594 2.74138C24.781 2.60299 24.0774 2.63661 23.4746 2.79274C22.1956 3.124 21.597 3.9085 21.8108 4.74489C22.2615 6.50785 24.7204 5.08414 24.9049 5.80572C24.9678 6.05172 24.7877 6.26448 24.2011 6.4164C23.6635 6.55565 23.0248 6.53748 22.5688 6.38456L22.3799 7.41266C22.8564 7.57776 23.6583 7.58864 24.3996 7.39664Z"
                        fill="#463B32" />
                    <path
                        d="M30.5551 6.47847L32.1424 6.38914L29.9476 3.8838L31.7218 1.85048L30.1597 1.93839L28.3462 3.87216L28.149 0.321591L26.8388 0.395322L27.1873 6.66799L28.4974 6.59426L28.4331 5.4361L29.0283 4.77508L30.5551 6.47847Z"
                        fill="#463B32" />
                    <path
                        d="M33.8616 1.47131C34.347 1.52068 34.7055 1.23376 34.7495 0.795711C34.7901 0.391357 34.4941 0.0548936 34.0087 0.00552246C33.5233 -0.0438487 33.1648 0.243067 33.1234 0.655845C33.0819 1.06862 33.3762 1.42193 33.8616 1.47131ZM32.6904 6.56885L33.996 6.70164L34.451 2.1695L33.1454 2.03671L32.6904 6.56885Z"
                        fill="#463B32" />
                    <path
                        d="M38.9718 3.03151C38.3762 2.8708 37.8075 2.93744 37.3642 3.22277L37.5019 2.70536L36.2862 2.37735L35.1096 6.79591L36.3824 7.13932L36.9642 4.95469C37.1807 4.14161 37.7219 3.88269 38.3339 4.04779C38.8969 4.19969 39.1358 4.61626 38.9455 5.33079L38.3244 7.66326L39.5972 8.00668L40.2708 5.4771C40.6295 4.13018 40.008 3.31108 38.9718 3.03151Z"
                        fill="#463B32" />
                    <path
                        d="M45.7996 10.0975C45.6201 10.1148 45.4244 10.0619 45.26 9.95872C44.9597 9.77025 44.8924 9.47814 45.0974 9.14708L46.0738 7.57096L47.0319 8.17229L47.5669 7.30866L46.6088 6.70734L47.1928 5.76454L46.0774 5.0645L45.4934 6.00729L44.8999 5.63483L44.365 6.49846L44.9584 6.87092L43.9731 8.46143C43.4025 9.38263 43.6418 10.1825 44.5498 10.7524C44.893 10.9678 45.2781 11.0996 45.6095 11.0776L45.7996 10.0975Z"
                        fill="#463B32" />
                    <path
                        d="M51.58 10.4507L48.5801 11.8962L49.6802 8.74041L48.6708 7.83163L47.0922 12.5673L47.0516 12.5876C46.6508 12.772 46.3938 12.7564 46.1242 12.5137C45.9298 12.3387 45.7958 12.0704 45.7631 11.8024L44.7833 12.1812C44.8289 12.5744 45.1041 13.0267 45.449 13.3371C46.0571 13.8846 46.7398 14.0562 47.7948 13.5293L52.5204 11.2974L51.58 10.4507Z"
                        fill="#463B32" />
                    <path
                        d="M55.0898 14.5207C54.7328 14.0282 54.289 13.7463 53.7762 13.7142L54.1975 13.4047L53.4587 12.3856L48.4848 16.0391L49.2584 17.1061L50.9639 15.8533C50.8632 16.3465 50.9933 16.8275 51.3255 17.2857C52.0742 18.3185 53.3882 18.5796 54.5366 17.7362C55.6849 16.8927 55.8386 15.5534 55.0898 14.5207ZM52.0614 16.4622C51.6746 15.9287 51.7625 15.2457 52.3945 14.7815C53.0264 14.3173 53.6995 14.4414 54.0862 14.9748C54.473 15.5083 54.385 16.1913 53.7531 16.6555C53.1212 17.1197 52.4481 16.9957 52.0614 16.4622Z"
                        fill="#463B32" />
                    <path
                        d="M56.8924 22.9921C58.2252 22.4041 58.6298 21.0977 58.0963 19.8725C57.5424 18.6007 56.2334 18.0412 54.993 18.5885C53.7604 19.1323 53.2676 20.4684 53.8957 21.9107C54.2233 22.6629 54.7077 23.1425 55.3157 23.3365L55.7288 22.387C55.3342 22.219 55.0647 21.9589 54.8723 21.5168C54.5953 20.881 54.7187 20.2996 55.1842 19.9555L56.5587 23.1116C56.6622 23.0752 56.7999 23.0329 56.8924 22.9921ZM57.1906 20.2813C57.4269 20.8242 57.2602 21.3692 56.7735 21.6857L55.8785 19.6307C56.4473 19.4814 56.9508 19.7307 57.1906 20.2813Z"
                        fill="#463B32" />
                    <path
                        d="M55.2729 26.2467C55.5708 27.5826 56.3282 28.222 57.1526 28.0357C58.9002 27.6408 57.5651 25.1099 58.3235 24.9385C58.5543 24.8864 58.7912 25.0943 58.9207 25.6752C59.0114 26.0817 59.0271 26.5401 58.8778 27.0358L59.8891 27.2605C60.042 26.7814 60.0304 26.0694 59.8935 25.4554C59.6029 24.1526 58.8391 23.5234 57.9983 23.7134C56.226 24.1139 57.5693 26.6429 56.8439 26.8068C56.5966 26.8627 56.39 26.6741 56.2567 26.0767C56.1346 25.529 56.1726 24.8842 56.3393 24.4281L55.3198 24.2053C55.1403 24.6816 55.1045 25.4916 55.2729 26.2467Z"
                        fill="#463B32" />
                </svg>