<svg width="90" height="90" viewBox="0 0 90 90" fill="none" xmlns="http://www.w3.org/2000/svg">
<path d="M55.8844 33.0805C56.5106 33.754 57.0799 34.4779 57.5862 35.245C57.6031 35.2707 57.6256 35.2924 57.6521 35.3084C57.6785 35.3243 57.7082 35.3342 57.7389 35.3372H57.7611C57.7887 35.3371 57.8159 35.3316 57.8413 35.321C57.8668 35.3104 57.8898 35.2949 57.9092 35.2754L71.3543 22.0777C71.5072 21.9309 71.6292 21.7553 71.7131 21.561C71.7971 21.3667 71.8413 21.1576 71.8433 20.9461C71.8453 20.7345 71.8049 20.5247 71.7245 20.3289C71.6442 20.1331 71.5255 19.9552 71.3753 19.8057C71.2252 19.6561 71.0466 19.5379 70.8501 19.4579C70.6536 19.3779 70.443 19.3377 70.2308 19.3398C70.0185 19.3418 69.8088 19.386 69.6138 19.4697C69.4189 19.5535 69.2426 19.6751 69.0954 19.8275L55.89 32.7882C55.8514 32.8268 55.8293 32.8788 55.8282 32.9333C55.8272 32.9877 55.8473 33.0405 55.8844 33.0805Z" fill="#463B32"/>
<path d="M9.88181 18.6471C9.73894 18.8501 9.64539 19.0834 9.60853 19.3285C9.57168 19.5737 9.59254 19.8241 9.66945 20.0599C9.74637 20.2956 9.87724 20.5104 10.0517 20.6871C10.2262 20.8638 10.4396 20.9976 10.6749 21.0781C10.9564 21.1735 11.259 21.1891 11.5488 21.1229C11.8386 21.0567 12.1042 20.9115 12.3159 20.7034C12.5276 20.4953 12.677 20.2326 12.7474 19.9447C12.8178 19.6568 12.8064 19.3551 12.7145 19.0733C12.6225 18.7915 12.4537 18.5408 12.2269 18.3492C12.0001 18.1576 11.7242 18.0327 11.4302 17.9884C11.1362 17.9442 10.8356 17.9824 10.5622 18.0987C10.2887 18.215 10.0531 18.4049 9.88181 18.6471ZM9.6736 19.0861V19.075L11.1626 19.5813L9.6736 19.0861Z" fill="#463B32"/>
<path d="M6.679 24.1333C2.9055 30.7704 0.923263 38.269 0.925784 45.8974C0.925784 70.2159 20.7784 90 45.1822 90C69.5859 90 89.4385 70.2141 89.4385 45.8955C89.4399 38.2684 87.4567 30.7713 83.6825 24.1361C83.4724 23.7789 83.1297 23.5186 82.7284 23.4113C82.3271 23.3041 81.8996 23.3586 81.5384 23.5631C81.1771 23.7676 80.9112 24.1056 80.7981 24.504C80.685 24.9024 80.7339 25.3291 80.9341 25.6918C84.4365 31.8532 86.2762 38.8142 86.2737 45.8955C86.2737 68.4766 67.8425 86.8516 45.1859 86.8516C34.944 86.859 25.0714 83.0404 17.5164 76.1494L19.493 74.198C22.7773 70.9528 22.6394 71.1427 25.845 68.0294C25.8826 67.9927 25.905 67.9432 25.9079 67.8909C25.9109 67.8385 25.894 67.7869 25.8607 67.7463C25.2702 67.0284 24.7865 66.2296 24.4245 65.3743C24.4113 65.3426 24.3905 65.3147 24.3639 65.2929C24.3372 65.2711 24.3056 65.2563 24.2718 65.2496C24.2381 65.2429 24.2031 65.2447 24.1702 65.2547C24.1373 65.2647 24.1073 65.2827 24.083 65.307C20.1565 69.1351 18.9831 70.2547 16.0728 73.1329C15.747 73.4566 15.4722 73.7286 15.263 73.9343C8.34195 66.6027 4.09343 56.737 4.09343 45.8992C4.09094 38.8171 5.9313 31.8554 9.43484 25.6937C9.63029 25.3312 9.6757 24.9068 9.56136 24.5114C9.44701 24.1159 9.18199 23.7807 8.82294 23.5774C8.46388 23.3741 8.03927 23.3189 7.63986 23.4234C7.24045 23.528 6.89792 23.7841 6.68548 24.137L6.679 24.1333Z" fill="#463B32"/>
<path d="M78.565 21.091C78.6325 21.0911 78.6999 21.0871 78.7668 21.079C78.9727 21.0529 79.1715 20.9866 79.3517 20.884C79.5319 20.7814 79.6901 20.6444 79.8172 20.4808C79.9443 20.3172 80.0378 20.1303 80.0924 19.9307C80.147 19.7311 80.1617 19.5228 80.1355 19.3176C80.0494 18.6425 79.4877 17.9149 78.4586 17.9149C78.0714 17.9159 77.6981 18.0585 77.4095 18.3158C77.1209 18.5731 76.9372 18.927 76.8932 19.3104C76.8493 19.6937 76.9481 20.0798 77.171 20.3953C77.3939 20.7109 77.7253 20.9338 78.1023 21.0218C78.2522 21.068 78.4082 21.0913 78.565 21.091Z" fill="#463B32"/>
<path d="M25.9937 15.9625C28.0836 14.8285 28.8337 12.6055 27.7556 10.6324C26.6775 8.65936 24.3967 8.08113 22.3068 9.21521C20.217 10.3493 19.4546 12.5789 20.5327 14.552C21.6108 16.525 23.9039 17.0966 25.9937 15.9625ZM25.1419 14.4036C24.1886 14.9209 23.0826 14.6368 22.4637 13.5041C21.8448 12.3714 22.2054 11.2915 23.1587 10.7742C24.112 10.2569 25.2057 10.5476 25.8246 11.6803C26.4436 12.813 26.0952 13.8863 25.1419 14.4036Z" fill="#463B32"/>
<path d="M29.1432 5.13336C29.9022 4.85977 30.2327 4.18025 29.9866 3.50211C29.7594 2.87614 29.0786 2.59062 28.3196 2.86421C27.5606 3.13779 27.2301 3.81732 27.462 4.45633C27.694 5.09534 28.3842 5.40694 29.1432 5.13336ZM31.024 13.4955L33.0655 12.7596L30.5189 5.74351L28.4775 6.47936L31.024 13.4955Z" fill="#463B32"/>
<path d="M35.1075 12.1136L37.2096 11.5734L34.6312 1.60939L32.5291 2.1496L35.1075 12.1136Z" fill="#463B32"/>
<path d="M46.1163 2.81807C46.0884 2.0836 46.4229 1.72402 47.0625 1.69986C47.3963 1.68726 47.7059 1.77272 47.9486 1.93008L48.4592 0.342602C48.0454 0.0806697 47.401 -0.0198974 46.7891 0.00320726C44.9257 0.0735714 43.9383 1.20721 44.0021 2.88403L44.0147 3.21662L42.8605 3.2602L42.9237 4.92316L44.0779 4.87958L44.2919 10.5059L46.4612 10.424L46.2473 4.79766L48.1107 4.7273L48.0475 3.06434L46.1284 3.1368L46.1163 2.81807Z" fill="#463B32"/>
<path d="M52.1692 4.09819L52.2578 3.11753L50.1927 2.93231L49.5216 10.3632L51.6837 10.5571L52.0005 7.04887C52.129 5.62622 52.9777 5.04791 54.1696 5.15481C54.336 5.16973 54.4733 5.19597 54.6522 5.22595L54.8319 3.237C53.6815 3.13383 52.7608 3.4272 52.1692 4.09819Z" fill="#463B32"/>
<path d="M63.5156 9.20918C64.1164 6.88595 62.8406 5.04021 60.7114 4.49335C58.5014 3.92573 56.441 5.05779 55.8819 7.21987C55.3262 9.36853 56.5504 11.3585 59.0568 12.0023C60.364 12.338 61.4788 12.1947 62.3506 11.6023L61.5447 10.1064C60.9245 10.4484 60.313 10.5348 59.5449 10.3375C58.4399 10.0537 57.8142 9.30581 57.8447 8.35415L63.3293 9.76281C63.3879 9.5917 63.4739 9.37033 63.5156 9.20918ZM60.3151 6.08145C61.2584 6.32372 61.7928 7.09112 61.7049 8.04237L58.1338 7.12518C58.5217 6.23664 59.3583 5.83571 60.3151 6.08145Z" fill="#463B32"/>
<path d="M72.2302 13.2689C73.2814 11.1106 72.3981 9.04937 70.4201 8.09263C68.3669 7.09956 66.1222 7.80197 65.1439 9.81061C64.1717 11.8068 64.9756 13.9992 67.3042 15.1255C68.5185 15.7128 69.6398 15.7927 70.6121 15.3843L70.1199 13.7589C69.444 13.9715 68.8274 13.9353 68.1138 13.5902C67.0872 13.0936 66.6227 12.237 66.8421 11.3102L71.9374 13.7748C72.0289 13.6186 72.1573 13.4187 72.2302 13.2689ZM69.7156 9.57086C70.5919 9.99473 70.9631 10.8525 70.6876 11.7675L67.37 10.1628C67.927 9.36858 68.8267 9.14093 69.7156 9.57086Z" fill="#463B32"/>
<path d="M61.8357 47.3167C60.7825 45.0213 57.6945 40.4001 54.4241 35.4995L54.4102 35.4783C50.7614 30.0151 46.9895 24.3657 45.5782 21.3224L44.1392 18.2238L41.3584 23.8493L41.2501 24.0743C39.4299 27.5787 35.7246 32.72 32.4468 37.2692L32.4348 37.2858C29.3615 41.5602 26.7001 45.2491 25.7524 47.3167C24.7276 49.5497 24.1986 51.9769 24.2015 54.4324C24.2135 56.893 24.7168 59.3267 25.6821 61.5915C27.5829 66.1251 31.0874 69.9079 35.5497 72.2421C37.7826 73.4096 40.6754 74.1068 43.2879 74.1068C43.4461 74.1068 43.6154 74.1068 43.8033 74.0966C43.9088 74.0966 44.0152 74.1021 44.1272 74.1021C46.2954 74.1021 49.712 73.4631 52.0468 72.2421C56.509 69.9079 60.0145 66.1251 61.9152 61.5915C63.9039 56.8375 63.8789 51.7681 61.8357 47.3167ZM45.3709 70.7702L43.7922 70.8384L42.2033 70.773V70.7997C40.4006 70.6429 38.522 70.1191 37.0655 69.3583C29.0024 65.1401 25.3397 56.0546 28.7258 48.6723C29.542 46.8897 32.2423 43.1391 35.1027 39.1736C38.4415 34.5386 42.2162 29.3004 44.1512 25.5802C46.0502 28.8449 48.918 33.1423 51.7044 37.3116C54.8988 42.0951 57.9166 46.613 58.8605 48.6732C62.2465 56.0509 58.5829 65.1411 50.5217 69.3574C49.0614 70.121 46.9598 70.5987 45.3709 70.7702Z" fill="#BD967A"/>
<path d="M32.121 58.9936C31.3335 57.0699 30.9976 55.3491 30.9976 53.2363C31.0017 53.1046 30.9791 52.9734 30.9314 52.8506C30.8836 52.7277 30.8115 52.6157 30.7195 52.5211C30.6274 52.4265 30.5173 52.3513 30.3955 52.3C30.2738 52.2486 30.1429 52.2222 30.0107 52.2222C29.8785 52.2222 29.7476 52.2486 29.6258 52.3C29.5041 52.3513 29.3939 52.4265 29.3019 52.5211C29.2098 52.6157 29.1378 52.7277 29.09 52.8506C29.0422 52.9734 29.0197 53.1046 29.0237 53.2363C29.0237 55.6193 29.4032 57.5633 30.2925 59.7369C30.3667 59.918 30.4934 60.073 30.6564 60.182C30.8194 60.2911 31.0113 60.3493 31.2077 60.3493C31.3346 60.3485 31.4602 60.3238 31.5778 60.2764C31.6981 60.2278 31.8075 60.156 31.8999 60.0652C31.9923 59.9744 32.0658 59.8663 32.1162 59.7472C32.1667 59.6281 32.1931 59.5002 32.1939 59.3709C32.1947 59.2416 32.17 59.1134 32.121 58.9936Z" fill="#BD967A"/>
<path d="M32.4477 62.735C32.5361 62.7343 32.624 62.7229 32.7096 62.7009C32.7592 62.6894 32.8078 62.674 32.8549 62.6548C32.9017 62.6365 32.9472 62.6149 32.9909 62.5902C33.106 62.5163 33.2048 62.42 33.2815 62.307C33.3581 62.194 33.411 62.0667 33.437 61.9328C33.4629 61.7988 33.4614 61.6611 33.4324 61.5277C33.4035 61.3944 33.3477 61.2683 33.2685 61.1571C32.7818 60.5033 32.1396 60.6729 31.8675 60.8537C31.8376 60.8742 31.8088 60.8963 31.7814 60.9201C31.596 61.0742 31.4736 61.2905 31.4373 61.5284C31.401 61.7663 31.4533 62.0091 31.5843 62.2112C31.8601 62.6252 32.1794 62.735 32.4477 62.735Z" fill="#BD967A"/>
<path d="M39.3188 65.7091C37.7078 65.1267 36.2335 64.2215 34.987 63.0495C34.7953 62.8762 34.5429 62.7848 34.2842 62.7951C34.0256 62.8055 33.7813 62.9166 33.6041 63.1046C33.4268 63.2926 33.3307 63.5424 33.3365 63.8003C33.3423 64.0583 33.4495 64.3036 33.635 64.4835C35.0766 65.838 36.7809 66.8843 38.6433 67.5581C38.7511 67.5977 38.8652 67.618 38.9801 67.6181C39.2125 67.6185 39.4376 67.5373 39.6158 67.3886C39.794 67.24 39.9138 67.0334 39.9543 66.8054C39.9948 66.5774 39.9532 66.3424 39.837 66.1419C39.7207 65.9413 39.5372 65.7881 39.3188 65.7091Z" fill="#BD967A"/>
</svg>
