<svg width="100px" viewBox="0 0 59 60" fill="none" xmlns="http://www.w3.org/2000/svg">
                    <path
                        d="M36.4634 22.1048C36.8791 22.5531 37.2569 23.0351 37.5931 23.5458C37.6043 23.563 37.6192 23.5774 37.6367 23.588C37.6543 23.5986 37.674 23.6052 37.6944 23.6072H37.7091C37.7274 23.6071 37.7455 23.6035 37.7623 23.5964C37.7792 23.5894 37.7945 23.579 37.8074 23.5661L46.7278 14.7807C46.8292 14.683 46.9102 14.566 46.9659 14.4366C47.0216 14.3073 47.0509 14.1681 47.0522 14.0273C47.0535 13.8864 47.0267 13.7468 46.9734 13.6164C46.9201 13.486 46.8413 13.3676 46.7417 13.268C46.6421 13.1685 46.5237 13.0897 46.3933 13.0365C46.2629 12.9832 46.1232 12.9565 45.9824 12.9578C45.8415 12.9592 45.7024 12.9886 45.573 13.0444C45.4437 13.1001 45.3268 13.1811 45.2291 13.2826L36.467 21.9102C36.4414 21.9359 36.4268 21.9705 36.4261 22.0067C36.4254 22.043 36.4387 22.0781 36.4634 22.1048Z"
                        fill="#463B32" />
                    <path
                        d="M5.94205 12.4955C5.84729 12.6307 5.78527 12.7861 5.76089 12.9494C5.73652 13.1127 5.75047 13.2794 5.80162 13.4364C5.85278 13.5934 5.93975 13.7363 6.05565 13.8539C6.17156 13.9715 6.31323 14.0605 6.46946 14.1139C6.65621 14.1775 6.85697 14.1878 7.04927 14.1438C7.24156 14.0997 7.4178 14.003 7.55825 13.8645C7.6987 13.7259 7.79783 13.551 7.84452 13.3594C7.89122 13.1677 7.88365 12.9668 7.82265 12.7792C7.76166 12.5916 7.64965 12.4247 7.49917 12.2971C7.34868 12.1695 7.16566 12.0864 6.97059 12.0569C6.77553 12.0275 6.57612 12.0529 6.39468 12.1303C6.21324 12.2078 6.05694 12.3342 5.94328 12.4955H5.94205ZM5.80391 12.7877V12.7803L6.79179 13.1174L5.80391 12.7877Z"
                        fill="#463B32" />
                    <path
                        d="M3.81708 16.148C1.31348 20.5667 -0.00167102 25.5591 1.59343e-06 30.6378C1.59343e-06 46.8284 13.1716 60 29.3627 60C45.5539 60 58.7255 46.8284 58.7255 30.6378C58.7283 25.56 57.4144 20.5683 54.9121 16.1498C54.7727 15.9121 54.5453 15.7387 54.279 15.6673C54.0128 15.5959 53.7292 15.6322 53.4895 15.7684C53.2498 15.9045 53.0734 16.1295 52.9983 16.3948C52.9233 16.66 52.9557 16.9441 53.0886 17.1856C55.4123 21.2877 56.6329 25.9221 56.6312 30.6366C56.6312 45.6704 44.4002 57.9014 29.3658 57.9014C22.5711 57.9072 16.021 55.366 11.008 50.7793L12.3194 49.4801C14.4984 47.3195 14.4069 47.446 16.5337 45.3732C16.5587 45.3488 16.5736 45.3159 16.5755 45.281C16.5774 45.2462 16.5663 45.2118 16.5442 45.1848C16.1504 44.7064 15.8279 44.1737 15.5864 43.6032C15.5776 43.582 15.5638 43.5634 15.5461 43.5489C15.5285 43.5344 15.5075 43.5245 15.4851 43.5201C15.4627 43.5157 15.4395 43.5168 15.4177 43.5235C15.3958 43.5302 15.3759 43.5421 15.3598 43.5583C12.7547 46.1069 11.9762 46.8523 10.0452 48.7685C9.82913 48.984 9.64678 49.1652 9.50802 49.3021C4.9161 44.421 2.09734 37.8527 2.09734 30.6372C2.09568 25.9222 3.31671 21.2873 5.6412 17.185C5.77088 16.9436 5.801 16.6611 5.72514 16.3979C5.64927 16.1346 5.47344 15.9114 5.23522 15.7761C4.997 15.6407 4.71528 15.6039 4.45029 15.6735C4.18529 15.7432 3.95803 15.9137 3.81708 16.1486V16.148Z"
                        fill="#463B32" />
                    <path
                        d="M51.5113 14.1225C51.556 14.1226 51.6007 14.1199 51.6451 14.1145C51.7818 14.0971 51.9136 14.053 52.0332 13.9847C52.1528 13.9164 52.2577 13.8252 52.3421 13.7163C52.4264 13.6074 52.4884 13.4829 52.5247 13.35C52.5609 13.2172 52.5706 13.0784 52.5532 12.9418C52.4961 12.4924 52.1234 12.008 51.4407 12.008C51.1838 12.0086 50.9361 12.1036 50.7446 12.2749C50.5531 12.4462 50.4312 12.6818 50.4021 12.937C50.3729 13.1923 50.4385 13.4493 50.5864 13.6594C50.7343 13.8694 50.9542 14.0179 51.2043 14.0764C51.3037 14.1072 51.4072 14.1227 51.5113 14.1225ZM50.4731 13.2114C50.4864 13.3142 50.5147 13.4145 50.5572 13.5091C50.5145 13.4146 50.4861 13.3142 50.4731 13.2114Z"
                        fill="#463B32" />
                    <path
                        d="M17.3777 11.2578C18.9439 10.4049 19.506 8.73325 18.6981 7.24952C17.8901 5.7658 16.1809 5.33097 14.6147 6.1838C13.0486 7.03663 12.4773 8.7133 13.2852 10.197C14.0932 11.6807 15.8116 12.1106 17.3777 11.2578ZM16.7393 10.0854C16.025 10.4744 15.1961 10.2608 14.7323 9.40903C14.2685 8.55726 14.5387 7.74513 15.2531 7.35612C15.9675 6.96711 16.7872 7.18575 17.251 8.03752C17.7148 8.88929 17.4537 9.69643 16.7393 10.0854Z"
                        fill="#463B32" />
                    <path
                        d="M18.9233 3.53105C19.4918 3.3254 19.7394 2.81461 19.555 2.30485C19.3848 1.83431 18.8749 1.61969 18.3063 1.82535C17.7377 2.031 17.4902 2.54179 17.6639 3.02214C17.8377 3.50248 18.3547 3.73671 18.9233 3.53105ZM20.3322 9.81681L21.8614 9.26368L19.9538 3.98971L18.4246 4.54284L20.3322 9.81681Z"
                        fill="#463B32" />
                    <path d="M22.9691 8.92772L24.5444 8.52148L22.6122 1.02855L21.0368 1.43479L22.9691 8.92772Z"
                        fill="#463B32" />
                    <path
                        d="M30.2794 2.11918C30.2585 1.56686 30.5092 1.29646 30.9885 1.27829C31.2387 1.26882 31.4707 1.33308 31.6526 1.45142L32.0352 0.257636C31.7251 0.0606635 31.2422 -0.0149627 30.7837 0.00241183C29.3872 0.0553252 28.6473 0.907818 28.695 2.16878L28.7045 2.41889L27.8396 2.45166L27.8869 3.7022L28.7519 3.66943L28.9122 7.90042L30.5379 7.83882L30.3776 3.60783L31.774 3.55491L31.7266 2.30437L30.2885 2.35887L30.2794 2.11918Z"
                        fill="#463B32" />
                    <path
                        d="M34.2422 3.1531L34.3088 2.41266L32.755 2.27282L32.25 7.88342L33.8769 8.02984L34.1153 5.38097C34.2119 4.30682 34.8505 3.87017 35.7473 3.95089C35.8725 3.96215 35.9758 3.98196 36.1105 4.00459L36.2456 2.50287C35.3801 2.42497 34.6873 2.64647 34.2422 3.1531Z"
                        fill="#463B32" />
                    <path
                        d="M42.0869 6.94994C42.5379 5.19991 41.5801 3.80957 39.9818 3.39764C38.3229 2.97006 36.7762 3.82281 36.3564 5.45145C35.9393 7.06998 36.8583 8.56899 38.7398 9.05392C39.721 9.30682 40.5579 9.19888 41.2123 8.75264L40.6074 7.62582C40.1418 7.88341 39.6828 7.94849 39.1062 7.79988C38.2767 7.58609 37.807 7.02274 37.8299 6.30587L41.947 7.36698C41.991 7.23809 42.0556 7.07133 42.0869 6.94994ZM39.6843 4.5939C40.3924 4.77641 40.7936 5.35447 40.7276 6.07102L38.0469 5.38012C38.3381 4.71081 38.9661 4.4088 39.6843 4.5939Z"
                        fill="#463B32" />
                    <path
                        d="M47.7298 9.68693C48.5175 8.06385 47.8556 6.51382 46.3733 5.79435C44.8346 5.04756 43.1524 5.57577 42.4193 7.08626C41.6907 8.58738 42.2932 10.2361 44.0382 11.083C44.9483 11.5247 45.7885 11.5848 46.5172 11.2777L46.1483 10.0554C45.6418 10.2153 45.1797 10.1881 44.6449 9.9285C43.8756 9.5551 43.5275 8.91088 43.6919 8.21399L47.5104 10.0673C47.5789 9.9499 47.6751 9.79951 47.7298 9.68693ZM45.8453 6.90597C46.5021 7.22473 46.7802 7.86977 46.5737 8.55783L44.0875 7.35112C44.5049 6.75386 45.1792 6.58267 45.8453 6.90597Z"
                        fill="#463B32" />
                    <path
                        d="M40.4118 31.5827C39.7131 30.0545 37.6643 26.9779 35.4945 23.7152L35.4853 23.7011C33.0644 20.0639 30.5618 16.3027 29.6255 14.2766L28.6708 12.2136L26.8258 15.9589L26.754 16.1087C25.5463 18.4418 23.0879 21.8647 20.9132 24.8935L20.9052 24.9045C18.8638 27.7485 17.0986 30.2044 16.4711 31.5809C15.7912 33.0676 15.4402 34.6835 15.4421 36.3183C15.4501 37.9565 15.784 39.5768 16.4244 41.0846C17.6856 44.1029 20.0107 46.6214 22.9713 48.1754C24.4528 48.9527 26.3721 49.4169 28.1053 49.4169C28.2103 49.4169 28.3227 49.4169 28.4473 49.4101C28.5173 49.4101 28.5879 49.4138 28.6622 49.4138C30.1007 49.4138 32.3675 48.9883 33.9166 48.1754C36.8772 46.6214 39.2029 44.1029 40.464 41.0846C41.7841 37.9214 41.7669 34.5464 40.4118 31.5827ZM29.488 47.1974L28.4406 47.2428L27.3864 47.1992V47.217C26.1903 47.1126 24.944 46.7639 23.9776 46.2574C18.6262 43.449 16.1979 37.402 18.442 32.4853C18.9835 31.2985 20.7751 28.8014 22.6729 26.1613C24.8881 23.0755 27.3925 19.5881 28.6763 17.1113C29.9362 19.2848 31.8389 22.1459 33.6876 24.9217C35.807 28.1064 37.8092 31.1143 38.4355 32.4859C40.682 37.3977 38.2513 43.4496 32.9029 46.2567C31.9365 46.7651 30.5422 47.0832 29.488 47.1974Z"
                        fill="#9C6137" fill-opacity="0.69" />
                    <path
                        d="M20.6971 39.3569C20.1746 38.0761 19.9517 36.9305 19.9517 35.5238C19.9544 35.4362 19.9395 35.3488 19.9078 35.267C19.8761 35.1853 19.8283 35.1107 19.7672 35.0477C19.7061 34.9847 19.633 34.9347 19.5523 34.9005C19.4715 34.8663 19.3847 34.8487 19.2969 34.8487C19.2092 34.8487 19.1224 34.8663 19.0416 34.9005C18.9608 34.9347 18.8877 34.9847 18.8267 35.0477C18.7656 35.1107 18.7178 35.1853 18.6861 35.267C18.6544 35.3488 18.6394 35.4362 18.6421 35.5238C18.6421 37.1104 18.8939 38.4046 19.4839 39.8518C19.5332 39.9723 19.6172 40.0755 19.7254 40.1481C19.8335 40.2207 19.9608 40.2595 20.0911 40.2594C20.1753 40.2589 20.2586 40.2425 20.3367 40.2109C20.4165 40.1786 20.4891 40.1308 20.5504 40.0703C20.6117 40.0099 20.6604 39.9379 20.6939 39.8586C20.7274 39.7793 20.7449 39.6942 20.7454 39.6081C20.746 39.522 20.7296 39.4366 20.6971 39.3569Z"
                        fill="#9C6137" fill-opacity="0.69" />
                    <path
                        d="M20.9138 41.8478C20.9725 41.8473 21.0308 41.8397 21.0876 41.8251C21.1205 41.8174 21.1527 41.8072 21.184 41.7944C21.215 41.7822 21.2452 41.7678 21.2742 41.7514C21.3506 41.7022 21.4162 41.6381 21.467 41.5628C21.5179 41.4876 21.553 41.4029 21.5702 41.3137C21.5874 41.2245 21.5864 41.1328 21.5672 41.044C21.548 40.9553 21.511 40.8713 21.4584 40.7973C21.1355 40.362 20.7094 40.4749 20.5289 40.5953C20.509 40.6089 20.4899 40.6237 20.4718 40.6395C20.3487 40.7421 20.2675 40.8861 20.2434 41.0445C20.2193 41.2028 20.254 41.3645 20.341 41.4991C20.5221 41.7747 20.7358 41.8478 20.9138 41.8478Z"
                        fill="#9C6137" fill-opacity="0.69" />
                    <path
                        d="M25.4726 43.8279C24.4037 43.4401 23.4256 42.8375 22.5986 42.0572C22.4714 41.9418 22.3039 41.881 22.1323 41.8878C21.9607 41.8947 21.7986 41.9687 21.681 42.0938C21.5634 42.219 21.4997 42.3854 21.5035 42.5571C21.5074 42.7288 21.5785 42.8921 21.7016 43.0119C22.658 43.9137 23.7888 44.6103 25.0244 45.0589C25.096 45.0852 25.1716 45.0987 25.2479 45.0988C25.4021 45.0991 25.5514 45.045 25.6696 44.946C25.7879 44.8471 25.8674 44.7096 25.8942 44.5578C25.9211 44.4059 25.8935 44.2495 25.8164 44.116C25.7393 43.9825 25.6175 43.8805 25.4726 43.8279Z"
                        fill="#9C6137" fill-opacity="0.69" />
                </svg>