<svg width="91" height="90" viewBox="0 0 91 90" fill="none" xmlns="http://www.w3.org/2000/svg">
<path d="M12.3767 49.4576C12.7949 63.0673 18.7655 69.1992 23.6919 71.9468C27.4177 74.0214 31.5161 74.7602 35.213 74.7602C38.8745 74.7602 42.1411 74.0362 44.2611 73.1609C44.276 73.1609 44.2928 73.1609 44.3095 73.1609C44.3589 73.1609 44.4083 73.1563 44.4576 73.1516C44.6089 73.4041 44.8251 73.6118 45.0838 73.7533C45.3425 73.8948 45.6344 73.965 45.9294 73.9566C46.2244 73.9481 46.5118 73.8615 46.762 73.7054C47.0121 73.5494 47.216 73.3297 47.3526 73.069C47.4159 73.0903 47.4793 73.108 47.5435 73.1228C49.6589 74.013 52.9627 74.7565 56.6717 74.7565C60.3808 74.7565 64.4726 74.0139 68.1938 71.9431C73.1239 69.1955 79.0917 63.0636 79.509 49.4539C79.4834 49.0482 79.3443 48.6578 79.1073 48.3269C78.8704 47.996 78.5453 47.7378 78.1686 47.5817C65.1209 43.5485 57.3889 47.1723 53.1769 50.9233C50.6229 53.1965 48.9565 55.984 47.5966 58.7993V53.6755C50.7682 51.6185 56.6112 45.7475 57.4476 38.187C57.9953 33.2368 56.6205 25.8119 47.0294 18.542C46.6883 18.3268 46.2929 18.2125 45.8893 18.2125C45.4856 18.2125 45.0902 18.3268 44.7492 18.542C35.1553 25.8119 33.6724 33.2359 34.2191 38.1852C35.0574 45.7466 40.7998 51.6185 43.9714 53.6755V58.5236C42.6124 55.8021 41.0839 53.1241 38.6137 50.9242C34.4008 47.1705 26.7033 43.5466 13.6509 47.5826C13.2617 47.7075 12.9356 47.9767 12.7399 48.3345C12.4812 48.6499 12.3514 49.051 12.3767 49.4576ZM55.364 53.397C60.3631 48.9415 67.3508 47.9502 76.1418 50.4406C75.6426 59.5373 72.4281 65.7972 66.574 69.0591C60.9769 72.1779 54.263 71.7658 50.3593 70.6259C52.4178 67.4578 57.5678 60.6614 64.983 58.5905C65.1931 58.5318 65.3895 58.4326 65.561 58.2983C65.7325 58.164 65.8758 57.9974 65.9827 57.808C66.0896 57.6185 66.158 57.4099 66.184 57.1941C66.2101 56.9783 66.1932 56.7595 66.1343 56.5502C66.0755 56.3409 65.9759 56.1452 65.8411 55.9743C65.7064 55.8034 65.5392 55.6606 65.3491 55.554C65.159 55.4475 64.9497 55.3793 64.7331 55.3534C64.5166 55.3275 64.297 55.3443 64.087 55.4029C56.7053 57.4645 51.4426 63.3495 48.665 67.2035C49.0758 63.1499 50.9443 57.3318 55.364 53.397ZM37.5193 37.8287C36.8896 32.1331 39.724 26.767 45.8194 21.8697C51.9148 26.768 54.7464 32.1341 54.1158 37.8352C53.5411 43.0333 50.3165 47.345 47.5957 49.6238V34.6848C47.5957 33.7705 46.7006 33.0298 45.7831 33.0298C44.8656 33.0298 43.9705 33.7724 43.9705 34.6848V49.6201C41.2534 47.3394 38.094 43.0315 37.5193 37.8287ZM36.5245 53.3979C40.7626 57.174 42.6544 62.6802 43.1601 66.7023C40.3024 62.8557 35.1767 57.3773 28.1079 55.4029C27.6837 55.2845 27.2298 55.3389 26.8458 55.554C26.4619 55.7692 26.1794 56.1275 26.0606 56.5502C25.9418 56.9729 25.9963 57.4253 26.2122 57.808C26.4281 58.1906 26.7877 58.4721 27.2118 58.5905C34.5442 60.6326 39.6849 67.3437 41.7844 70.5479C37.9226 71.7463 31.0345 72.2475 25.3117 69.0628C19.4594 65.801 16.2431 59.5391 15.7448 50.4443C24.5405 47.9502 31.5263 48.9415 36.5245 53.3979Z" fill="#BD967A"/>
<path d="M13.3249 16.6289C13.3491 16.653 13.3752 16.6762 13.4012 16.7004C13.7225 16.9839 14.1436 17.1288 14.572 17.1032C15.0004 17.0776 15.4011 16.8837 15.6861 16.5639C16.38 15.7805 16.19 14.8681 15.7196 14.351C15.6982 14.3288 15.6768 14.3046 15.6544 14.2833L15.5948 14.2248C15.4379 14.082 15.2544 13.9714 15.0546 13.8993C14.8548 13.8272 14.6428 13.795 14.4305 13.8045C14.2183 13.8141 14.01 13.8652 13.8176 13.955C13.6251 14.0448 13.4523 14.1715 13.309 14.3278C12.5965 15.1029 12.7772 16.0228 13.2476 16.5481C13.2699 16.576 13.2979 16.6011 13.3249 16.6289ZM13.2643 14.4234L14.4752 15.4946L13.2643 14.4253C13.2643 14.4253 13.2643 14.4244 13.2643 14.4234Z" fill="#463B32"/>
<path d="M11.9659 18.2217C11.7953 18.0955 11.6015 18.0041 11.3954 17.9526C11.1893 17.9011 10.9751 17.8907 10.7649 17.9218C10.5548 17.9529 10.3529 18.025 10.1707 18.134C9.98857 18.2429 9.82977 18.3866 9.70341 18.5568C4.1187 26.0563 1.04258 35.1164 0.910535 44.4545C0.500698 69.1529 20.3377 89.5869 45.1254 89.9935C45.38 89.9978 45.6334 90 45.8855 90C57.6143 90 68.6855 85.5445 77.1356 77.3918C85.7664 69.0693 90.6285 57.8934 90.8279 45.9248C90.9914 35.5974 87.5767 25.5296 81.1594 17.4188C80.8934 17.0835 80.5046 16.8673 80.0785 16.8177C79.6525 16.768 79.2241 16.8891 78.8876 17.1543C78.5512 17.4194 78.3342 17.8069 78.2844 18.2315C78.2346 18.656 78.3561 19.0829 78.6222 19.4182C84.5772 26.9455 87.7455 36.2888 87.5929 45.8728C87.4067 56.9782 82.8966 67.3493 74.8861 75.075C67.0461 82.6373 56.7685 86.7772 45.8864 86.7763C45.6526 86.7763 45.4207 86.7763 45.1823 86.7707C22.1746 86.391 3.76915 67.431 4.14173 44.5027C4.26475 35.8389 7.11856 27.4331 12.2994 20.4746C12.5548 20.1317 12.6632 19.7018 12.6007 19.2793C12.5382 18.8569 12.3098 18.4765 11.9659 18.2217Z" fill="#463B32"/>
<path d="M76.4966 15.3285C76.6894 15.1828 76.8483 14.9972 76.9624 14.7845C77.2269 14.2712 77.2781 13.4404 76.5544 12.7832C76.2671 12.5231 75.8955 12.3746 75.5075 12.3649C75.1195 12.3552 74.7409 12.4849 74.4409 12.7303C74.2359 12.8778 74.0676 13.0703 73.9491 13.2928C73.6827 13.7997 73.6203 14.6249 74.3216 15.2867C74.6141 15.5625 74.9994 15.7196 75.402 15.7274C75.8046 15.7351 76.1956 15.5928 76.4985 15.3285H76.4966Z" fill="#463B32"/>
<path d="M23.6152 4.69396L23.8854 10.3669L19.6913 6.56224L17.6063 7.55496L23.8618 13.1046L25.9468 12.1119L25.5577 3.76907L23.6152 4.69396Z" fill="#463B32"/>
<path d="M36.8608 4.60962C36.2601 2.20873 34.1931 1.15981 31.9927 1.70651C29.7089 2.27398 28.3987 4.30942 28.9577 6.54378C29.5133 8.76425 31.6046 9.96929 34.1948 9.3257C35.5457 8.99007 36.486 8.31421 36.9843 7.35016L35.516 6.38834C35.1222 7.00209 34.6103 7.37989 33.8165 7.57712C32.6746 7.86085 31.7384 7.48908 31.2969 6.61116L36.9648 5.20287C36.9336 5.019 36.9024 4.77615 36.8608 4.60962ZM32.4164 3.34065C33.3912 3.09844 34.2542 3.5326 34.6435 4.43824L30.9531 5.35519C30.8667 4.35955 31.4276 3.58632 32.4164 3.34065Z" fill="#463B32"/>
<path d="M46.0172 0.0561571L46.0404 1.04278C45.4346 0.312952 44.5366 -0.0237825 43.4605 0.00130313C41.3226 0.05114 39.6353 1.56406 39.688 3.80899C39.7407 6.05392 41.4971 7.48657 43.635 7.43673C44.6394 7.41332 45.4786 7.07901 46.0518 6.42185L46.0595 6.75072C46.0921 8.13772 45.4201 8.86872 43.8418 8.90551C42.8518 8.92859 41.7676 8.6105 41.0951 8.09683L40.2431 9.71904C41.1635 10.3986 42.5924 10.723 44.0559 10.6889C46.8395 10.624 48.3583 9.27235 48.2912 6.41257L48.1408 0.00665471L46.0172 0.0561571ZM44.0369 5.59611C42.8603 5.62353 41.9816 4.88576 41.9551 3.75615C41.9286 2.62653 42.7717 1.84862 43.9483 1.82119C45.1248 1.79377 45.9892 2.53188 46.0157 3.66149C46.0422 4.7911 45.2135 5.56868 44.0369 5.59611Z" fill="#463B32"/>
<path d="M56.0375 0.854573C54.8259 0.62008 53.5372 0.705793 52.591 1.13462L53.0818 2.81773C53.716 2.48881 54.5993 2.38292 55.4024 2.53834C56.5859 2.76738 57.0427 3.42402 56.8594 4.36474L55.1124 4.02663C52.8017 3.57946 51.6772 4.32345 51.4172 5.65729C51.1628 6.96306 52.0279 8.1504 53.8032 8.49396C54.9162 8.70936 55.7764 8.497 56.319 7.88809L56.1357 8.8288L58.1927 9.2269L59.0327 4.91646C59.4787 2.62786 58.3481 1.30174 56.0375 0.854573ZM54.6399 7.12604C53.865 6.97608 53.4712 6.52104 53.5779 5.97346C53.6764 5.468 54.0744 5.15162 55.1029 5.35067L56.6104 5.64242L56.4599 6.41465C56.0723 7.05356 55.3726 7.26783 54.6399 7.12604Z" fill="#463B32"/>
<path d="M68.5056 4.61667C67.5448 4.20036 66.5725 4.169 65.7564 4.53284L66.117 3.70649L64.1558 2.85676L61.077 9.91354L63.1303 10.8032L64.6525 7.31415C65.2191 6.0156 66.1931 5.72019 67.1802 6.1479C68.0884 6.54141 68.386 7.29419 67.8881 8.43534L66.2629 12.1605L68.3162 13.0501L70.0788 9.01019C71.0173 6.85906 70.1772 5.34094 68.5056 4.61667Z" fill="#463B32"/>
</svg>
