<svg width="66" height="67" viewBox="0 0 66 67" fill="none" xmlns="http://www.w3.org/2000/svg">
<path d="M40.7174 24.6837C41.1816 25.1843 41.6036 25.7225 41.9789 26.2928C41.9915 26.312 42.0081 26.3281 42.0277 26.34C42.0473 26.3518 42.0693 26.3591 42.0921 26.3614H42.1085C42.1289 26.3613 42.1491 26.3572 42.1679 26.3493C42.1868 26.3415 42.2039 26.3299 42.2182 26.3154L52.1794 16.5051C52.2926 16.396 52.383 16.2654 52.4452 16.1209C52.5074 15.9765 52.5402 15.8211 52.5417 15.6638C52.5431 15.5065 52.5132 15.3505 52.4537 15.205C52.3941 15.0594 52.3062 14.9272 52.1949 14.816C52.0837 14.7048 51.9514 14.6169 51.8058 14.5574C51.6602 14.4979 51.5042 14.4681 51.347 14.4696C51.1897 14.4711 51.0343 14.504 50.8899 14.5662C50.7455 14.6285 50.6149 14.7189 50.5058 14.8322L40.7215 24.4664C40.6929 24.495 40.6765 24.5337 40.6758 24.5742C40.675 24.6147 40.6899 24.6539 40.7174 24.6837Z" fill="#463B32"/>
<path d="M6.63529 13.9533C6.52947 14.1042 6.46021 14.2778 6.433 14.4601C6.40578 14.6425 6.42136 14.8287 6.47848 15.004C6.53561 15.1793 6.63272 15.3389 6.76215 15.4702C6.89158 15.6015 7.04977 15.7009 7.22423 15.7605C7.43277 15.8315 7.65695 15.8431 7.87168 15.7939C8.08641 15.7447 8.28321 15.6367 8.44005 15.482C8.59689 15.3273 8.70757 15.132 8.75972 14.918C8.81186 14.7039 8.80341 14.4796 8.7353 14.2701C8.66719 14.0606 8.54211 13.8742 8.37407 13.7318C8.20603 13.5893 8.00165 13.4964 7.78383 13.4636C7.56601 13.4307 7.34333 13.4591 7.14073 13.5456C6.93812 13.632 6.76359 13.7732 6.63666 13.9533H6.63529ZM6.48103 14.2796V14.2714L7.58417 14.6478L6.48103 14.2796Z" fill="#463B32"/>
<path d="M4.26241 18.0319C1.46672 22.9662 -0.00186597 28.541 1.77933e-06 34.2122C1.77933e-06 52.2917 14.7083 67 32.7884 67C50.8685 67 65.5768 52.2917 65.5768 34.2122C65.5799 28.542 64.1128 22.9679 61.3185 18.034C61.1628 17.7685 60.9089 17.5749 60.6116 17.4952C60.3143 17.4155 59.9976 17.456 59.7299 17.608C59.4623 17.76 59.2653 18.0113 59.1815 18.3075C59.0977 18.6037 59.1339 18.9209 59.2823 19.1906C61.8771 23.7712 63.2401 28.9463 63.2382 34.2109C63.2382 50.9986 49.5802 64.6566 32.7918 64.6566C25.2044 64.663 17.8901 61.8254 12.2922 56.7036L13.7567 55.2528C16.1899 52.8402 16.0877 52.9814 18.4627 50.6668C18.4905 50.6395 18.5072 50.6028 18.5093 50.5638C18.5115 50.5249 18.499 50.4865 18.4743 50.4563C18.0347 49.9221 17.6744 49.3273 17.4048 48.6902C17.395 48.6666 17.3796 48.6458 17.3599 48.6296C17.3401 48.6135 17.3167 48.6024 17.2917 48.5974C17.2667 48.5925 17.2408 48.5938 17.2164 48.6013C17.192 48.6087 17.1698 48.6221 17.1518 48.6401C14.2428 51.4861 13.3734 52.3184 11.2172 54.4582C10.9759 54.6988 10.7722 54.9011 10.6173 55.054C5.48964 49.6034 2.34203 42.2688 2.34203 34.2116C2.34018 28.9464 3.70366 23.7708 6.29934 19.1899C6.44415 18.9204 6.47779 18.6049 6.39307 18.3109C6.30836 18.017 6.11201 17.7678 5.846 17.6166C5.57998 17.4655 5.2654 17.4244 4.96949 17.5021C4.67357 17.5799 4.4198 17.7696 4.26241 18.0319Z" fill="#463B32"/>
<path d="M57.5209 15.7701C57.5709 15.7702 57.6208 15.7672 57.6704 15.7612C57.823 15.7418 57.9702 15.6926 58.1038 15.6163C58.2373 15.54 58.3545 15.4381 58.4487 15.3165C58.5428 15.1949 58.6121 15.0559 58.6525 14.9075C58.693 14.7592 58.7038 14.6043 58.6844 14.4517C58.6207 13.9498 58.2045 13.4089 57.4421 13.4089C57.1552 13.4096 56.8786 13.5157 56.6648 13.7069C56.451 13.8982 56.3149 14.1613 56.2823 14.4463C56.2498 14.7314 56.323 15.0184 56.4881 15.253C56.6533 15.4875 56.8988 15.6533 57.1781 15.7187C57.2892 15.7531 57.4047 15.7704 57.5209 15.7701Z" fill="#463B32"/>
<path d="M19.4051 12.5712C21.154 11.6188 21.7817 9.75212 20.8795 8.0953C19.9773 6.43848 18.0687 5.95291 16.3198 6.90524C14.5709 7.85757 13.933 9.72985 14.8352 11.3867C15.7374 13.0435 17.6562 13.5235 19.4051 12.5712ZM18.6923 11.2621C17.8945 11.6965 16.969 11.4579 16.4511 10.5067C15.9332 9.55561 16.2349 8.64873 17.0327 8.21434C17.8304 7.77994 18.7457 8.02409 19.2636 8.97523C19.7815 9.92637 19.49 10.8277 18.6923 11.2621Z" fill="#463B32"/>
<path d="M21.131 3.94301C21.7659 3.71337 22.0424 3.14298 21.8365 2.57375C21.6464 2.04832 21.077 1.80866 20.4421 2.0383C19.8072 2.26795 19.5307 2.83834 19.7247 3.37472C19.9187 3.9111 20.4961 4.17266 21.131 3.94301ZM22.7043 10.9621L24.4119 10.3444L22.2818 4.45517L20.5741 5.07284L22.7043 10.9621Z" fill="#463B32"/>
<path d="M25.6488 9.96929L27.4079 9.51566L25.2503 1.14855L23.4912 1.60218L25.6488 9.96929Z" fill="#463B32"/>
<path d="M33.812 2.36642C33.7887 1.74966 34.0686 1.44771 34.6039 1.42743C34.8832 1.41684 35.1423 1.4886 35.3454 1.62075L35.7727 0.287693C35.4264 0.0677409 34.8871 -0.0167084 34.3751 0.00269321C32.8157 0.0617798 31.9894 1.01373 32.0428 2.4218L32.0534 2.70109L31.0875 2.73769L31.1404 4.13412L32.1063 4.09753L32.2853 8.82213L34.1007 8.75335L33.9217 4.02874L35.481 3.96965L35.4281 2.57322L33.8222 2.63407L33.812 2.36642Z" fill="#463B32"/>
<path d="M38.2371 3.52096L38.3115 2.69414L36.5764 2.53798L36.0125 8.80316L37.8292 8.96666L38.0954 6.00875C38.2033 4.80928 38.9164 4.32169 39.9179 4.41182C40.0576 4.4244 40.173 4.44653 40.3234 4.4718L40.4743 2.79487C39.5077 2.70788 38.7341 2.95523 38.2371 3.52096Z" fill="#463B32"/>
<path d="M46.997 7.76077C47.5007 5.80657 46.4312 4.25402 44.6464 3.79403C42.7939 3.31657 41.0667 4.26881 40.598 6.08746C40.1322 7.89481 41.1584 9.56871 43.2594 10.1102C44.3552 10.3926 45.2897 10.2721 46.0204 9.77378L45.3449 8.5155C44.825 8.80314 44.3124 8.87581 43.6685 8.70986C42.7423 8.47113 42.2178 7.84206 42.2434 7.04156L46.8408 8.22647C46.89 8.08253 46.9621 7.89632 46.997 7.76077ZM44.3142 5.12986C45.1049 5.33365 45.5529 5.97915 45.4792 6.7793L42.4857 6.0078C42.8109 5.2604 43.5121 4.92316 44.3142 5.12986Z" fill="#463B32"/>
<path d="M53.2982 10.8171C54.1779 9.00463 53.4388 7.27377 51.7835 6.47036C50.0653 5.63644 48.1869 6.22628 47.3682 7.913C46.5546 9.58924 47.2274 11.4303 49.176 12.376C50.1922 12.8693 51.1305 12.9364 51.9442 12.5934L51.5323 11.2285C50.9667 11.407 50.4507 11.3767 49.8535 11.0868C48.9944 10.6699 48.6058 9.95049 48.7893 9.17229L53.0532 11.2418C53.1298 11.1107 53.2372 10.9428 53.2982 10.8171ZM51.1939 7.71167C51.9273 8.06761 52.2379 8.78791 52.0073 9.55624L49.2311 8.20875C49.6972 7.54181 50.4501 7.35065 51.1939 7.71167Z" fill="#463B32"/>
<path d="M45.1266 35.2674C44.3463 33.5609 42.0585 30.1253 39.6356 26.482L39.6253 26.4663C36.9219 22.4047 34.1274 18.2047 33.0818 15.9422L32.0157 13.6386L29.9555 17.8208L29.8753 17.9881C28.5267 20.5934 25.7815 24.4156 23.3531 27.7977L23.3442 27.81C21.0645 30.9858 19.0934 33.7282 18.3927 35.2653C17.6335 36.9255 17.2415 38.7299 17.2437 40.5555C17.2526 42.3848 17.6255 44.1941 18.3406 45.8778C19.7489 49.2483 22.3453 52.0606 25.6513 53.7959C27.3056 54.6639 29.4488 55.1822 31.3843 55.1822C31.5015 55.1822 31.627 55.1822 31.7662 55.1746C31.8443 55.1746 31.9232 55.1788 32.0061 55.1788C33.6125 55.1788 36.1438 54.7036 37.8736 53.7959C41.1795 52.0606 43.7766 49.2483 45.1848 45.8778C46.6589 42.3456 46.6397 38.5768 45.1266 35.2674ZM32.9283 52.7037L31.7586 52.7544L30.5814 52.7058V52.7257C29.2459 52.6091 27.8541 52.2197 26.775 51.654C20.7992 48.5181 18.0876 41.7656 20.5935 36.2752C21.1982 34.9499 23.1988 32.1616 25.318 29.2135C27.7917 25.7676 30.5883 21.8734 32.0219 19.1076C33.4288 21.5347 35.5535 24.7296 37.6178 27.8292C39.9845 31.3855 42.2203 34.7443 42.9196 36.2759C45.4282 41.7608 42.7139 48.5188 36.7416 51.6534C35.6625 52.221 34.1055 52.5762 32.9283 52.7037Z" fill="#9C6137" fill-opacity="0.69"/>
<path d="M23.1118 43.9485C22.5283 42.5184 22.2794 41.239 22.2794 39.6683C22.2824 39.5704 22.2657 39.4729 22.2304 39.3815C22.195 39.2902 22.1416 39.2069 22.0734 39.1366C22.0052 39.0663 21.9236 39.0104 21.8334 38.9722C21.7432 38.934 21.6462 38.9144 21.5482 38.9144C21.4503 38.9144 21.3533 38.934 21.2631 38.9722C21.1729 39.0104 21.0913 39.0663 21.0231 39.1366C20.9549 39.2069 20.9015 39.2902 20.8661 39.3815C20.8307 39.4729 20.814 39.5704 20.817 39.6683C20.817 41.4399 21.0981 42.8852 21.757 44.5011C21.812 44.6358 21.9059 44.751 22.0267 44.8321C22.1474 44.9131 22.2896 44.9564 22.4351 44.9564C22.5291 44.9558 22.6221 44.9374 22.7093 44.9022C22.7984 44.8661 22.8795 44.8127 22.9479 44.7452C23.0164 44.6777 23.0708 44.5974 23.1082 44.5088C23.1456 44.4202 23.1651 44.3251 23.1657 44.229C23.1664 44.1329 23.148 44.0376 23.1118 43.9485Z" fill="#9C6137" fill-opacity="0.69"/>
<path d="M23.3538 46.73C23.4193 46.7295 23.4844 46.721 23.5478 46.7047C23.5846 46.6961 23.6206 46.6847 23.6555 46.6704C23.6901 46.6568 23.7238 46.6407 23.7562 46.6224C23.8415 46.5675 23.9147 46.4958 23.9715 46.4118C24.0283 46.3278 24.0675 46.2332 24.0867 46.1336C24.1059 46.0341 24.1048 45.9316 24.0834 45.8325C24.0619 45.7334 24.0206 45.6397 23.9619 45.557C23.6013 45.0709 23.1255 45.197 22.9239 45.3314C22.9017 45.3466 22.8804 45.3631 22.8601 45.3808C22.7228 45.4953 22.6321 45.6562 22.6052 45.833C22.5783 46.0098 22.617 46.1904 22.7141 46.3406C22.9164 46.6484 23.155 46.73 23.3538 46.73Z" fill="#9C6137" fill-opacity="0.69"/>
<path d="M28.4444 48.9411C27.2508 48.5081 26.1586 47.8352 25.2351 46.9638C25.093 46.835 24.906 46.7671 24.7144 46.7747C24.5228 46.7824 24.3418 46.865 24.2105 47.0048C24.0792 47.1446 24.008 47.3303 24.0123 47.5221C24.0166 47.7138 24.096 47.8962 24.2334 48.0299C25.3014 49.0369 26.5642 49.8148 27.9439 50.3158C28.0238 50.3452 28.1083 50.3603 28.1935 50.3603C28.3656 50.3607 28.5324 50.3002 28.6644 50.1897C28.7964 50.0792 28.8853 49.9257 28.9152 49.7562C28.9452 49.5866 28.9144 49.4119 28.8283 49.2629C28.7422 49.1138 28.6062 48.9998 28.4444 48.9411Z" fill="#9C6137" fill-opacity="0.69"/>
</svg>
