<svg width="69" height="78" viewBox="0 0 69 78" fill="none" xmlns="http://www.w3.org/2000/svg">
<g clip-path="url(#clip0_1005_82)">
<path d="M9.71709 39.1602C10.0213 49.0952 14.3648 53.5715 17.9486 55.5772C20.659 57.0916 23.6405 57.631 26.3299 57.631C28.9935 57.631 31.3699 57.1024 32.9121 56.4635C32.9229 56.4635 32.9351 56.4635 32.9473 56.4635C32.9832 56.4635 33.0191 56.4601 33.0551 56.4567C33.1651 56.641 33.3224 56.7926 33.5106 56.8959C33.6988 56.9992 33.9111 57.0504 34.1257 57.0443C34.3403 57.0381 34.5494 56.9749 34.7314 56.861C34.9134 56.7471 35.0617 56.5867 35.161 56.3964C35.2071 56.412 35.2532 56.4248 35.3 56.4357C36.8388 57.0855 39.2422 57.6283 41.9405 57.6283C44.6387 57.6283 47.6154 57.0862 50.3224 55.5744C53.9089 53.5687 58.2503 49.0925 58.5539 39.1575C58.5353 38.8614 58.434 38.5764 58.2617 38.3348C58.0894 38.0932 57.8528 37.9048 57.5788 37.7908C48.087 34.8466 42.4622 37.492 39.3981 40.2302C37.5401 41.8896 36.3279 43.9244 35.3386 45.9796V42.2393C37.6458 40.7377 41.8964 36.4519 42.5049 30.9328C42.9033 27.3192 41.9032 21.899 34.9259 16.5921C34.6778 16.435 34.3902 16.3516 34.0965 16.3516C33.8029 16.3516 33.5153 16.435 33.2672 16.5921C26.2879 21.899 25.2091 27.3185 25.6069 30.9315C26.2167 36.4512 30.3941 40.7377 32.7014 42.2393V45.7784C31.7127 43.7916 30.6008 41.8368 28.8038 40.2308C25.739 37.4906 20.1393 34.8453 10.6441 37.7915C10.3609 37.8827 10.1237 38.0792 9.98136 38.3403C9.79313 38.5706 9.69875 38.8634 9.71709 39.1602ZM40.9891 42.036C44.6258 38.7835 49.7092 38.0598 56.1044 39.8778C55.7412 46.5183 53.4028 51.088 49.144 53.4691C45.0723 55.7459 40.1882 55.445 37.3483 54.6129C38.8458 52.3003 42.5923 47.3389 47.9867 45.8272C48.1395 45.7844 48.2823 45.7119 48.4071 45.6139C48.5319 45.5159 48.6361 45.3942 48.7139 45.2559C48.7917 45.1176 48.8415 44.9654 48.8604 44.8078C48.8793 44.6503 48.867 44.4906 48.8242 44.3378C48.7814 44.185 48.7089 44.0421 48.6109 43.9174C48.5129 43.7926 48.3913 43.6883 48.253 43.6106C48.1147 43.5328 47.9624 43.483 47.8049 43.4641C47.6474 43.4452 47.4876 43.4575 47.3348 43.5003C41.9648 45.0052 38.1364 49.3012 36.1158 52.1146C36.4146 49.1555 37.7739 44.9083 40.9891 42.036ZM28.0076 30.6713C27.5495 26.5135 29.6115 22.5963 34.0457 19.0213C38.4799 22.597 40.5399 26.5142 40.0811 30.676C39.663 34.4706 37.3172 37.618 35.3379 39.2815V28.3762C35.3379 27.7088 34.6867 27.1681 34.0193 27.1681C33.3519 27.1681 32.7007 27.7101 32.7007 28.3762V39.2788C30.7241 37.614 28.4257 34.4692 28.0076 30.6713ZM27.2839 42.0367C30.367 44.7931 31.7432 48.8127 32.1112 51.7487C30.0323 48.9407 26.3034 44.9415 21.1611 43.5003C20.8525 43.4138 20.5223 43.4535 20.243 43.6106C19.9637 43.7676 19.7582 44.0292 19.6717 44.3378C19.5853 44.6463 19.625 44.9766 19.782 45.2559C19.9391 45.5352 20.2007 45.7407 20.5093 45.8272C25.8433 47.3179 29.583 52.2169 31.1103 54.556C28.301 55.4308 23.2901 55.7967 19.127 53.4718C14.8696 51.0908 12.5298 46.5197 12.1673 39.8805C18.5659 38.0598 23.6479 38.7835 27.2839 42.0367Z" fill="#BD967A"/>
<path d="M10.4082 15.1958C10.4258 15.2134 10.4448 15.2303 10.4637 15.2479C10.6975 15.4549 11.0038 15.5607 11.3154 15.542C11.6271 15.5233 11.9186 15.3817 12.1259 15.1483C12.6307 14.5764 12.4925 13.9104 12.1503 13.5329C12.1347 13.5167 12.1191 13.4991 12.1029 13.4835L12.0595 13.4408C11.9454 13.3365 11.8118 13.2558 11.6665 13.2032C11.5212 13.1505 11.3669 13.127 11.2125 13.134C11.0581 13.141 10.9066 13.1783 10.7666 13.2439C10.6266 13.3094 10.5009 13.4019 10.3967 13.516C9.8783 14.0818 10.0098 14.7533 10.3519 15.1368C10.3682 15.1572 10.3885 15.1754 10.4082 15.1958ZM10.3641 13.5858L11.245 14.3677L10.3641 13.5872C10.3641 13.5872 10.3641 13.5865 10.3641 13.5858Z" fill="#463B32"/>
<path d="M9.41808 16.361C9.29399 16.2689 9.15296 16.2021 9.00305 16.1646C8.85313 16.127 8.69728 16.1194 8.54441 16.1421C8.39154 16.1648 8.24465 16.2174 8.11214 16.297C7.97963 16.3765 7.86411 16.4814 7.77219 16.6057C3.70948 22.0802 1.47169 28.694 1.37563 35.5107C1.07749 53.5404 15.5084 68.4571 33.5407 68.7539C33.7259 68.757 33.9102 68.7586 34.0936 68.7586C42.6259 68.7586 50.6799 65.5061 56.8271 59.5548C63.1058 53.4794 66.6428 45.3211 66.7878 36.5841C66.9068 29.0451 64.4227 21.6957 59.7543 15.7749C59.5608 15.5302 59.2779 15.3723 58.968 15.3361C58.6581 15.2999 58.3464 15.3883 58.1017 15.5818C57.8569 15.7753 57.6991 16.0582 57.6628 16.3681C57.6266 16.6781 57.715 16.9897 57.9086 17.2345C62.2407 22.7293 64.5455 29.5498 64.4345 36.5461C64.299 44.6529 61.0181 52.2238 55.1907 57.8635C49.4873 63.3839 42.0107 66.406 34.0943 66.4053C33.9242 66.4053 33.7555 66.4053 33.582 66.4012C16.8446 66.1241 3.45519 52.2834 3.72623 35.546C3.81572 29.2215 5.89179 23.0852 9.66066 18.0056C9.84652 17.7553 9.92537 17.4415 9.87988 17.1331C9.83439 16.8247 9.66828 16.547 9.41808 16.361Z" fill="#463B32"/>
<path d="M56.3638 14.2458C56.504 14.1394 56.6196 14.0039 56.7026 13.8487C56.895 13.474 56.9323 12.8675 56.4058 12.3878C56.1968 12.1979 55.9265 12.0895 55.6442 12.0824C55.3619 12.0753 55.0865 12.17 54.8683 12.3492C54.7192 12.4568 54.5967 12.5973 54.5105 12.7598C54.3167 13.1298 54.2713 13.7321 54.7815 14.2153C54.9943 14.4166 55.2746 14.5313 55.5674 14.537C55.8603 14.5426 56.1448 14.4388 56.3651 14.2458H56.3638Z" fill="#463B32"/>
<path d="M17.6238 6.38642L17.812 10.3527L14.8898 7.69265L13.4371 8.38673L17.7956 12.2668L19.2483 11.5728L18.9772 5.73977L17.6238 6.38642Z" fill="#463B32"/>
<path d="M27.1947 6.17097C26.7762 4.49236 25.336 3.75899 23.8029 4.14122C22.2117 4.53798 21.2988 5.96108 21.6883 7.52326C22.0754 9.07573 23.5325 9.91825 25.3372 9.46828C26.2784 9.23361 26.9336 8.76108 27.2808 8.08705L26.2578 7.41458C25.9834 7.8437 25.6267 8.10784 25.0737 8.24573C24.278 8.44411 23.6258 8.18418 23.3181 7.57037L27.2672 6.58575C27.2455 6.45719 27.2238 6.2874 27.1947 6.17097ZM24.0981 5.28375C24.7773 5.11441 25.3786 5.41796 25.6499 6.05115L23.0786 6.69224C23.0184 5.99613 23.4092 5.45552 24.0981 5.28375Z" fill="#463B32"/>
<path d="M33.9749 2.90125L33.991 3.59106C33.5689 3.08079 32.9433 2.84536 32.1935 2.8629C30.7039 2.89774 29.5283 3.95552 29.565 5.5251C29.6017 7.09467 30.8255 8.09632 32.3151 8.06148C33.0149 8.04511 33.5996 7.81137 33.9989 7.35191L34.0043 7.58184C34.027 8.55158 33.5588 9.06267 32.4591 9.08839C31.7693 9.10453 31.0139 8.88213 30.5454 8.52299L29.9517 9.65718C30.593 10.1323 31.5886 10.3591 32.6083 10.3352C34.5478 10.2899 35.606 9.34487 35.5592 7.34542L35.4545 2.86664L33.9749 2.90125ZM32.5951 6.77458C31.7753 6.79375 31.1631 6.27793 31.1446 5.48815C31.1261 4.69836 31.7135 4.15448 32.5333 4.1353C33.3531 4.11612 33.9553 4.63218 33.9738 5.42197C33.9923 6.21175 33.4148 6.7554 32.5951 6.77458Z" fill="#463B32"/>
<path d="M41.3934 3.46081C40.5492 3.29686 39.6513 3.35679 38.992 3.65661L39.3339 4.83337C39.7759 4.60341 40.3913 4.52937 40.9508 4.63803C41.7754 4.79817 42.0938 5.25727 41.966 5.91498L40.7488 5.67859C39.1388 5.36595 38.3553 5.88611 38.1742 6.81869C37.9969 7.73164 38.5997 8.56178 39.8366 8.80198C40.6121 8.95258 41.2114 8.80411 41.5895 8.37838L41.4618 9.03609L42.895 9.31442L43.4803 6.30073C43.791 4.70062 43.0033 3.77345 41.3934 3.46081ZM40.4196 7.84559C39.8797 7.74073 39.6053 7.42259 39.6797 7.03975C39.7483 6.68635 40.0256 6.46515 40.7422 6.60431L41.7925 6.80829L41.6877 7.34821C41.4176 7.79491 40.9301 7.94472 40.4196 7.84559Z" fill="#463B32"/>
<path d="M50.468 6.17239C49.7986 5.88132 49.1211 5.85939 48.5526 6.11377L48.8038 5.53602L47.4373 4.94192L45.2922 9.87576L46.7228 10.4978L47.7834 8.05836C48.1782 7.15046 48.8568 6.94392 49.5446 7.24297C50.1774 7.51809 50.3847 8.04441 50.0378 8.84226L48.9054 11.4467L50.3361 12.0688L51.5641 9.24418C52.218 7.74018 51.6327 6.67877 50.468 6.17239Z" fill="#463B32"/>
</g>
<defs>
<clipPath id="clip0_1005_82">
<rect width="68.3022" height="78" fill="white"/>
</clipPath>
</defs>
</svg>
