<svg width="123" height="83" viewBox="0 0 123 83" fill="none" xmlns="http://www.w3.org/2000/svg">
<g clip-path="url(#clip0_960_457)">
<path d="M51.9613 30.5287C51.8721 30.5287 51.7837 30.5111 51.7013 30.4768C51.6189 30.4425 51.5442 30.3922 51.4813 30.3288L41.7148 20.563C41.6516 20.4999 41.6015 20.4249 41.5674 20.3425C41.5332 20.26 41.5156 20.1715 41.5156 20.0823C41.5156 19.993 41.5332 19.9046 41.5674 19.8221C41.6015 19.7396 41.6516 19.6646 41.7148 19.6015C41.7779 19.5383 41.8529 19.4883 41.9353 19.4541C42.0178 19.4199 42.1063 19.4023 42.1955 19.4023C42.2848 19.4023 42.3732 19.4199 42.4557 19.4541C42.5382 19.4883 42.6132 19.5383 42.6763 19.6015L52.4421 29.3681C52.5368 29.4633 52.6012 29.5844 52.6273 29.7162C52.6533 29.8479 52.6398 29.9844 52.5884 30.1085C52.537 30.2326 52.45 30.3387 52.3384 30.4135C52.2268 30.4882 52.0956 30.5283 51.9613 30.5287Z" fill="#463B32"/>
<path d="M51.9612 30.686C51.8512 30.6864 51.7423 30.6648 51.6407 30.6227C51.5391 30.5805 51.4469 30.5186 51.3695 30.4405L41.6037 20.674C41.4478 20.5171 41.3604 20.305 41.3604 20.0838C41.3604 19.8627 41.4478 19.6505 41.6037 19.4937C41.7605 19.3376 41.9727 19.25 42.1939 19.25C42.4151 19.25 42.6273 19.3376 42.784 19.4937L52.5529 29.2587C52.6699 29.3758 52.7495 29.5249 52.7818 29.6872C52.8141 29.8495 52.7975 30.0178 52.7342 30.1707C52.6708 30.3236 52.5636 30.4543 52.426 30.5463C52.2885 30.6383 52.1267 30.6875 51.9612 30.6876V30.686ZM42.1954 19.5598C42.0922 19.5599 41.9914 19.5907 41.9056 19.6481C41.8198 19.7055 41.753 19.7871 41.7135 19.8824C41.674 19.9778 41.6637 20.0827 41.6838 20.184C41.7039 20.2852 41.7535 20.3782 41.8264 20.4513L51.5922 30.2179C51.6917 30.3129 51.824 30.3659 51.9616 30.3659C52.0992 30.3659 52.2315 30.3129 52.331 30.2179C52.4288 30.1199 52.4836 29.9872 52.4836 29.8488C52.4836 29.7105 52.4288 29.5777 52.331 29.4798L42.5653 19.7132C42.5169 19.6644 42.4592 19.6257 42.3958 19.5994C42.3323 19.573 42.2642 19.5596 42.1954 19.5598Z" fill="#463B32"/>
<path d="M59.4521 21.5374C59.3629 21.5377 59.2745 21.5203 59.1921 21.4861C59.1097 21.4519 59.0349 21.4017 58.9721 21.3383L51.6991 14.0708C51.5716 13.9433 51.5 13.7704 51.5 13.5901C51.5 13.4097 51.5716 13.2368 51.6991 13.1093C51.8266 12.9818 51.9996 12.9102 52.1799 12.9102C52.3602 12.9102 52.5332 12.9818 52.6607 13.1093L59.9297 20.3783C60.0248 20.4734 60.0896 20.5946 60.1158 20.7265C60.1421 20.8584 60.1286 20.9951 60.0771 21.1193C60.0257 21.2435 59.9385 21.3497 59.8267 21.4244C59.7149 21.4991 59.5834 21.539 59.4489 21.539L59.4521 21.5374Z" fill="#463B32"/>
<path d="M59.4522 21.6935C59.342 21.694 59.2328 21.6725 59.131 21.6302C59.0293 21.5879 58.937 21.5257 58.8597 21.4472L51.5906 14.179C51.4736 14.0618 51.394 13.9126 51.3617 13.7502C51.3295 13.5878 51.3461 13.4195 51.4096 13.2666C51.473 13.1136 51.5803 12.9829 51.718 12.891C51.8557 12.799 52.0176 12.75 52.1831 12.75C52.2931 12.7496 52.4021 12.7711 52.5037 12.8133C52.6053 12.8554 52.6975 12.9174 52.7749 12.9955L60.0439 20.2646C60.1609 20.3816 60.2405 20.5308 60.2728 20.6931C60.305 20.8554 60.2884 21.0237 60.2251 21.1766C60.1618 21.3295 60.0546 21.4602 59.917 21.5522C59.7794 21.6442 59.6177 21.6934 59.4522 21.6935ZM52.1831 13.0648C52.0798 13.0648 51.9787 13.0954 51.8928 13.1529C51.8068 13.2104 51.7399 13.292 51.7004 13.3875C51.6608 13.4831 51.6506 13.5882 51.6708 13.6896C51.6911 13.7909 51.7409 13.884 51.8141 13.9571L59.0831 21.2253C59.1823 21.3206 59.3146 21.3739 59.4522 21.3739C59.5897 21.3739 59.722 21.3206 59.8212 21.2253C59.8698 21.1769 59.9084 21.1193 59.9347 21.0559C59.961 20.9925 59.9745 20.9245 59.9745 20.8559C59.9745 20.7872 59.961 20.7193 59.9347 20.6559C59.9084 20.5925 59.8698 20.5349 59.8212 20.4865L52.553 13.2174C52.5044 13.1688 52.4468 13.1304 52.3833 13.1042C52.3198 13.078 52.2518 13.0646 52.1831 13.0648Z" fill="#463B32"/>
<path d="M55.8738 28.6382C55.6947 28.6385 55.5228 28.5681 55.3954 28.4423L44.048 17.2342C43.9197 17.1075 43.8469 16.935 43.8457 16.7547C43.8445 16.5744 43.915 16.401 44.0417 16.2726C44.1684 16.1443 44.3409 16.0715 44.5212 16.0703C44.7015 16.0691 44.8749 16.1396 45.0033 16.2663L56.3522 27.476C56.4481 27.5707 56.5136 27.6918 56.5405 27.8239C56.5673 27.9559 56.5543 28.093 56.503 28.2176C56.4517 28.3423 56.3644 28.4488 56.2524 28.5237C56.1404 28.5986 56.0086 28.6384 55.8738 28.6382Z" fill="#463B32"/>
<path d="M55.8736 28.7987C55.653 28.7991 55.4413 28.7119 55.285 28.5563L43.9368 17.3482C43.7788 17.1917 43.6895 16.9788 43.6885 16.7565C43.6875 16.5341 43.7748 16.3204 43.9313 16.1624C44.0878 16.0044 44.3007 15.9151 44.5231 15.9141C44.7455 15.913 44.9591 16.0004 45.1171 16.1569L56.4622 27.3697C56.5803 27.4864 56.6611 27.6356 56.6942 27.7983C56.7273 27.961 56.7114 28.1299 56.6483 28.2835C56.5852 28.4371 56.4778 28.5684 56.3399 28.6609C56.2019 28.7533 56.0396 28.8026 55.8736 28.8026V28.7987ZM44.5262 16.2301C44.4569 16.2301 44.3883 16.2441 44.3245 16.2711C44.2607 16.2981 44.203 16.3377 44.1548 16.3875C44.057 16.4857 44.002 16.6187 44.002 16.7573C44.002 16.8959 44.057 17.0289 44.1548 17.1271L55.5061 28.3328C55.6063 28.4273 55.739 28.4794 55.8767 28.4784C56.0143 28.4774 56.1463 28.4233 56.245 28.3273C56.2935 28.2789 56.3319 28.2215 56.3581 28.1582C56.3844 28.095 56.3979 28.0272 56.3979 27.9587C56.3979 27.8902 56.3844 27.8224 56.3581 27.7591C56.3319 27.6959 56.2935 27.6384 56.245 27.59L44.8929 16.3804C44.7953 16.2838 44.6635 16.2297 44.5262 16.2301Z" fill="#463B32"/>
<path d="M58.202 25.5884C58.0257 25.5883 57.8563 25.5194 57.7299 25.3964L47.3268 15.297C47.2589 15.236 47.2041 15.1619 47.1656 15.0791C47.127 14.9964 47.1056 14.9068 47.1024 14.8156C47.0993 14.7244 47.1146 14.6335 47.1474 14.5483C47.1802 14.4631 47.2298 14.3855 47.2933 14.3199C47.3568 14.2544 47.4329 14.2023 47.5169 14.1668C47.601 14.1313 47.6914 14.1131 47.7826 14.1133C47.8739 14.1135 47.9642 14.1321 48.0481 14.168C48.132 14.2038 48.2078 14.2563 48.271 14.3221L58.6749 24.4215C58.7721 24.5156 58.8389 24.6365 58.8669 24.7688C58.8949 24.9011 58.8828 25.0387 58.8321 25.164C58.7814 25.2894 58.6944 25.3967 58.5823 25.4723C58.4702 25.548 58.338 25.5884 58.2028 25.5884H58.202Z" fill="#463B32"/>
<path d="M58.2022 25.7437C57.9845 25.744 57.7753 25.6593 57.6191 25.5076L47.2144 15.4067C47.1321 15.331 47.0657 15.2395 47.0193 15.1377C46.9729 15.0359 46.9473 14.9259 46.9442 14.814C46.941 14.7022 46.9603 14.5909 47.0009 14.4866C47.0415 14.3824 47.1025 14.2873 47.1805 14.2071C47.2584 14.1268 47.3516 14.063 47.4547 14.0194C47.5577 13.9758 47.6684 13.9532 47.7803 13.9531C47.8921 13.953 48.0029 13.9753 48.106 14.0188C48.2091 14.0622 48.3025 14.1258 48.3806 14.2059L58.7852 24.3061C58.9047 24.4222 58.9868 24.5713 59.0211 24.7343C59.0553 24.8973 59.0402 25.0668 58.9776 25.2212C58.915 25.3755 58.8078 25.5077 58.6696 25.6008C58.5315 25.6938 58.3687 25.7436 58.2022 25.7437ZM47.7998 14.2854C47.6959 14.2853 47.5944 14.3163 47.5082 14.3743C47.422 14.4323 47.3551 14.5147 47.316 14.611C47.277 14.7073 47.2676 14.813 47.289 14.9147C47.3104 15.0164 47.3617 15.1093 47.4363 15.1816L57.8371 25.281C57.9378 25.3746 58.0707 25.4258 58.2082 25.4239C58.3456 25.422 58.4771 25.3671 58.5752 25.2708C58.6715 25.1713 58.7244 25.0376 58.7224 24.8991C58.7203 24.7606 58.6634 24.6286 58.5641 24.5319L48.1634 14.4325C48.0662 14.3376 47.9356 14.2848 47.7998 14.2854Z" fill="#463B32"/>
<path d="M48.3266 32.7463C48.2363 32.7466 48.1469 32.7288 48.0637 32.6939C47.9804 32.659 47.905 32.6078 47.8419 32.5433L40.1566 24.7179C40.0941 24.6543 40.0447 24.5789 40.0113 24.4962C39.9779 24.4135 39.9611 24.325 39.9619 24.2358C39.9627 24.1466 39.9811 24.0584 40.016 23.9763C40.0509 23.8941 40.1016 23.8197 40.1652 23.7572C40.2289 23.6947 40.3042 23.6453 40.387 23.6119C40.4697 23.5785 40.5582 23.5617 40.6474 23.5625C40.7366 23.5633 40.8248 23.5817 40.9069 23.6166C40.9891 23.6515 41.0635 23.7022 41.126 23.7658L48.8121 31.5904C48.9055 31.6862 48.9686 31.8073 48.9936 31.9387C49.0185 32.0701 49.0042 32.2059 48.9524 32.3293C48.9006 32.4526 48.8136 32.5579 48.7023 32.6321C48.591 32.7062 48.4604 32.746 48.3266 32.7463Z" fill="#463B32"/>
<path d="M48.3269 32.9039C48.2156 32.9043 48.1053 32.8823 48.0026 32.8393C47.8999 32.7964 47.8068 32.7332 47.7289 32.6537L40.0444 24.8291C39.8926 24.67 39.8095 24.4575 39.8131 24.2376C39.8167 24.0177 39.9067 23.8081 40.0635 23.654C40.2204 23.4999 40.4317 23.4137 40.6516 23.4141C40.8715 23.4144 41.0824 23.5013 41.2388 23.6559L48.9241 31.4805C49.0399 31.598 49.1184 31.7472 49.1496 31.9092C49.1808 32.0713 49.1634 32.2389 49.0996 32.3911C49.0357 32.5432 48.9283 32.6731 48.7908 32.7644C48.6533 32.8556 48.4919 32.9042 48.3269 32.9039ZM40.6408 23.7204C40.538 23.7204 40.4374 23.7507 40.3517 23.8076C40.2661 23.8645 40.1991 23.9455 40.1594 24.0404C40.1196 24.1352 40.1088 24.2397 40.1282 24.3407C40.1476 24.4417 40.1965 24.5347 40.2686 24.608L47.9539 32.4326C48.0526 32.5286 48.1844 32.5829 48.3221 32.584C48.4598 32.5852 48.5925 32.5332 48.6928 32.4389C48.7915 32.3419 48.8476 32.2097 48.849 32.0713C48.8503 31.9329 48.7967 31.7997 48.6999 31.7008L41.0138 23.877C40.9652 23.8273 40.9072 23.7878 40.8432 23.7609C40.7791 23.734 40.7103 23.7202 40.6408 23.7204Z" fill="#463B32"/>
<path d="M44.4437 33.9519C44.3535 33.9519 44.2642 33.9339 44.1811 33.8989C44.098 33.8639 44.0227 33.8126 43.9597 33.7481L38.7948 28.757C38.7323 28.6934 38.6829 28.618 38.6495 28.5353C38.6161 28.4525 38.5993 28.364 38.6001 28.2748C38.6009 28.1856 38.6193 28.0974 38.6542 28.0153C38.6891 27.9332 38.7398 27.8588 38.8034 27.7962C38.8671 27.7337 38.9424 27.6844 39.0252 27.651C39.1079 27.6176 39.1964 27.6008 39.2856 27.6016C39.3748 27.6024 39.463 27.6208 39.5451 27.6556C39.6272 27.6905 39.7017 27.7412 39.7642 27.8049L44.9323 32.7968C45.0261 32.8924 45.0896 33.0137 45.1147 33.1453C45.1399 33.2769 45.1256 33.4129 45.0736 33.5364C45.0217 33.6599 44.9344 33.7653 44.8227 33.8394C44.7111 33.9134 44.58 33.9528 44.446 33.9527L44.4437 33.9519Z" fill="#463B32"/>
<path d="M44.4439 34.1117C44.3327 34.112 44.2225 34.09 44.12 34.047C44.0174 34.004 43.9245 33.9409 43.8466 33.8615L38.6832 28.8727C38.6021 28.7954 38.5374 28.7025 38.4928 28.5997C38.4483 28.4968 38.4248 28.3861 38.4239 28.274C38.4229 28.1619 38.4445 28.0508 38.4873 27.9472C38.5301 27.8436 38.5932 27.7497 38.673 27.671C38.7528 27.5923 38.8475 27.5304 38.9517 27.4889C39.0558 27.4475 39.1672 27.4274 39.2793 27.4299C39.3914 27.4323 39.5018 27.4572 39.604 27.5032C39.7063 27.5491 39.7983 27.615 39.8745 27.6972L45.0387 32.6851C45.1551 32.8025 45.2341 32.9517 45.2658 33.1139C45.2975 33.2762 45.2805 33.4441 45.2168 33.5967C45.1532 33.7493 45.0459 33.8796 44.9083 33.9712C44.7708 34.0629 44.6092 34.1117 44.4439 34.1117ZM39.2773 27.7633C39.1744 27.7632 39.0739 27.7935 38.9882 27.8505C38.9026 27.9074 38.8356 27.9884 38.7959 28.0832C38.7561 28.1781 38.7452 28.2826 38.7647 28.3835C38.7841 28.4845 38.833 28.5775 38.9051 28.6509L44.067 33.6372C44.165 33.7352 44.2975 33.7909 44.4361 33.7927C44.5746 33.7945 44.7084 33.7421 44.809 33.6467C44.9076 33.5496 44.9636 33.4173 44.9648 33.2789C44.9659 33.1406 44.9122 33.0074 44.8153 32.9086L39.6526 27.9206C39.6039 27.8705 39.5455 27.8308 39.481 27.8037C39.4165 27.7767 39.3472 27.7629 39.2773 27.7633Z" fill="#463B32"/>
<path d="M64.8999 6.1655C64.8607 6.08276 64.7962 6.01466 64.7157 5.97114C64.3294 5.76105 63.8502 5.97114 63.6141 6.29297C63.4355 6.52903 62.8871 7.01059 62.6785 7.21911C62.0616 7.83208 62.0915 7.83444 61.4762 8.44898C60.7484 9.17762 60.0087 9.90153 59.2816 10.6262C58.6647 11.2447 58.0518 11.8679 57.4325 12.484C57.1327 12.783 56.8235 13.0757 56.53 13.381C56.5243 13.3867 56.5191 13.3928 56.5142 13.3991C56.392 13.5277 56.3249 13.6989 56.3272 13.8763C56.3295 14.0536 56.401 14.2231 56.5265 14.3484C56.6519 14.4738 56.8214 14.5452 56.9988 14.5473C57.1761 14.5495 57.3473 14.4822 57.4758 14.3599L64.6921 7.14436C64.903 6.93269 65.0454 6.46215 64.8999 6.1655Z" fill="#463B32"/>
<path d="M56.9949 14.7134C56.8288 14.7141 56.6662 14.6654 56.5278 14.5733C56.3895 14.4813 56.2817 14.3501 56.2182 14.1965C56.1548 14.043 56.1384 13.874 56.1714 13.7111C56.2043 13.5483 56.285 13.3989 56.4032 13.2821C56.4068 13.2766 56.411 13.2716 56.4158 13.2671C56.6094 13.0657 56.8092 12.8682 57.006 12.6778C57.1122 12.5739 57.2176 12.4708 57.3207 12.367C57.6811 12.0076 58.0404 11.6467 58.3987 11.2842C58.6547 11.0261 58.9112 10.7681 59.1683 10.51C59.5512 10.126 59.9362 9.74355 60.3234 9.36271C60.6696 9.01964 61.015 8.6763 61.3597 8.33271C61.6595 8.03291 61.8066 7.87868 61.9482 7.72918C62.1056 7.57181 62.2457 7.41444 62.562 7.09969C62.6257 7.03595 62.7194 6.94704 62.8272 6.84789C63.0593 6.64214 63.2787 6.42247 63.4842 6.19007C63.5892 6.05039 63.7241 5.93594 63.8791 5.85507C64.034 5.77421 64.205 5.72897 64.3797 5.72268C64.5227 5.72168 64.6638 5.75687 64.7896 5.82497C64.8989 5.88398 64.9866 5.97632 65.0398 6.08857C65.2177 6.45367 65.0564 6.99268 64.8038 7.24841L57.5874 14.464C57.5103 14.5429 57.4182 14.6057 57.3164 14.6485C57.2146 14.6914 57.1053 14.7134 56.9949 14.7134ZM64.3812 6.04293C64.2552 6.0496 64.1321 6.08377 64.0206 6.14303C63.9092 6.2023 63.812 6.28523 63.736 6.386C63.6038 6.56147 63.293 6.85104 63.0443 7.08317C62.9405 7.18074 62.8476 7.2665 62.7863 7.32867C62.4715 7.63948 62.3291 7.79056 62.178 7.9495C62.0269 8.10845 61.8869 8.25638 61.5839 8.55854C61.2393 8.90318 60.8933 9.24678 60.5461 9.58933C60.1605 9.9707 59.776 10.3526 59.3925 10.735L58.6237 11.5085C58.2639 11.8704 57.904 12.2319 57.5442 12.5928C57.4387 12.6974 57.3325 12.8005 57.2294 12.9075C57.0366 13.0964 56.836 13.2923 56.6464 13.489C56.6424 13.4945 56.6353 13.5024 56.629 13.5095C56.5804 13.558 56.5419 13.6155 56.5156 13.6789C56.4892 13.7423 56.4757 13.8103 56.4757 13.8789C56.4757 13.9476 56.4892 14.0155 56.5156 14.0789C56.5419 14.1423 56.5804 14.1999 56.629 14.2484C56.7288 14.343 56.861 14.3958 56.9985 14.3958C57.136 14.3958 57.2682 14.343 57.3679 14.2484L64.5835 7.03281C64.755 6.86048 64.8707 6.4584 64.7621 6.23335C64.737 6.18013 64.6953 6.1365 64.6433 6.10903C64.5631 6.06477 64.4728 6.042 64.3812 6.04293Z" fill="#463B32"/>
<path d="M59.0386 16.5176C58.8627 16.518 58.6936 16.4503 58.5665 16.3287L58.4815 16.2501C58.3917 16.1637 58.3274 16.0544 58.2956 15.934C58.2637 15.8136 58.2655 15.6867 58.3009 15.5673C58.3362 15.4479 58.4036 15.3404 58.4958 15.2567C58.5881 15.173 58.7015 15.1162 58.8238 15.0926L71.1429 2.77265C71.2136 2.70488 71.27 2.62369 71.3089 2.53383C71.3478 2.44397 71.3684 2.34725 71.3694 2.24935C71.3704 2.15144 71.3519 2.05431 71.3149 1.96366C71.2779 1.87301 71.2232 1.79065 71.1539 1.72142C71.0847 1.65218 71.0023 1.59746 70.9117 1.56047C70.821 1.52347 70.7239 1.50494 70.626 1.50597C70.5281 1.50699 70.4314 1.52755 70.3415 1.56644C70.2517 1.60532 70.1705 1.66175 70.1027 1.73242L68.0616 3.77826C67.933 3.90129 67.7614 3.96908 67.5835 3.96713C67.4056 3.96518 67.2355 3.89363 67.1097 3.76782C66.9839 3.642 66.9123 3.47192 66.9104 3.294C66.9084 3.11608 66.9762 2.94448 67.0992 2.81593L69.1451 0.774804C69.3389 0.577554 69.57 0.420651 69.8248 0.313148C70.0796 0.205645 70.3532 0.149672 70.6298 0.148458C70.9063 0.147243 71.1804 0.200813 71.4362 0.306074C71.6919 0.411335 71.9243 0.566205 72.1199 0.761744C72.3155 0.957284 72.4704 1.18962 72.5757 1.44535C72.6811 1.70108 72.7347 1.97514 72.7336 2.25171C72.7324 2.52828 72.6765 2.80188 72.5691 3.05674C72.4617 3.31159 72.3048 3.54264 72.1076 3.73656L59.5186 16.3185C59.3913 16.4458 59.2187 16.5174 59.0386 16.5176Z" fill="#463B32"/>
<path d="M59.0386 16.6752C58.8228 16.6753 58.6154 16.5921 58.4594 16.443L58.3737 16.3643C58.2141 16.2101 58.1221 15.9989 58.1178 15.7769C58.1136 15.555 58.1973 15.3404 58.3508 15.1801C58.4579 15.068 58.5942 14.9881 58.7443 14.9496L71.0312 2.6619C71.1392 2.55311 71.1998 2.40603 71.1998 2.25273C71.1998 2.09942 71.1392 1.95234 71.0312 1.84356C70.921 1.73854 70.7746 1.67996 70.6224 1.67996C70.4702 1.67996 70.3238 1.73854 70.2136 1.84356L68.1725 3.8894C68.0975 3.97731 68.0052 4.04874 67.9012 4.09922C67.7973 4.14969 67.6841 4.17811 67.5686 4.18269C67.4532 4.18727 67.3381 4.1679 67.2305 4.12581C67.1229 4.08373 67.0252 4.01982 66.9435 3.93813C66.8618 3.85644 66.7979 3.75872 66.7558 3.65113C66.7137 3.54354 66.6943 3.4284 66.6989 3.31296C66.7035 3.19752 66.7319 3.08427 66.7824 2.98035C66.8328 2.87643 66.9043 2.78408 66.9922 2.70911L69.038 0.667195C69.2401 0.432052 69.4885 0.241156 69.7677 0.106464C70.047 -0.0282292 70.351 -0.103818 70.6608 -0.115569C70.9706 -0.12732 71.2795 -0.0749805 71.5681 0.0381721C71.8567 0.151325 72.1189 0.322853 72.3382 0.542015C72.5574 0.761177 72.7291 1.02325 72.8424 1.31183C72.9557 1.6004 73.0082 1.90926 72.9966 2.21906C72.985 2.52887 72.9095 2.83294 72.775 3.11223C72.6404 3.39153 72.4497 3.64004 72.2146 3.84219L59.6295 16.432C59.5519 16.5096 59.4598 16.571 59.3584 16.6127C59.2569 16.6545 59.1482 16.6757 59.0386 16.6752ZM70.622 1.35963C70.7985 1.35997 70.971 1.41261 71.1176 1.51091C71.2643 1.60922 71.3785 1.74877 71.4458 1.91195C71.5132 2.07513 71.5307 2.25461 71.4961 2.42773C71.4615 2.60084 71.3764 2.75982 71.2515 2.88458L58.9386 15.2014C58.9169 15.2228 58.8897 15.2378 58.8599 15.2446C58.7541 15.2644 58.6572 15.317 58.583 15.3949C58.487 15.4949 58.4347 15.6288 58.4373 15.7673C58.44 15.9058 58.4974 16.0376 58.5971 16.1338L58.6821 16.2125C58.7821 16.3039 58.913 16.3539 59.0484 16.3524C59.1838 16.3509 59.3136 16.2981 59.4115 16.2046L71.9966 3.61951C72.1804 3.44052 72.3268 3.22682 72.4273 2.9908C72.5278 2.75479 72.5804 2.50116 72.5821 2.24465C72.5838 1.98813 72.5346 1.73383 72.4372 1.4965C72.3399 1.25918 72.1963 1.04355 72.015 0.862134C71.8336 0.68072 71.618 0.537131 71.3807 0.4397C71.1434 0.34227 70.8891 0.292938 70.6326 0.294567C70.3761 0.296196 70.1224 0.348754 69.8864 0.449191C69.6504 0.549628 69.4366 0.695944 69.2576 0.879648L67.2157 2.92549C67.1179 3.02358 67.063 3.15643 67.063 3.29493C67.063 3.43343 67.1179 3.56628 67.2157 3.66436C67.3153 3.75918 67.4476 3.81207 67.5851 3.81207C67.7226 3.81207 67.8549 3.75918 67.9545 3.66436L69.9957 1.61851C70.1621 1.45292 70.3872 1.35985 70.622 1.35963Z" fill="#463B32"/>
<path d="M45.8364 51.2117H45.7419C43.7874 51.181 42.8305 50.3202 42.3773 49.6034C41.5118 48.2468 41.6172 46.2096 42.6684 43.8671C43.3318 42.3902 43.8763 41.3791 44.3146 40.5678C44.6214 39.9981 44.8866 39.5063 45.1211 38.9894L45.9866 37.0859L46.8073 39.0075C47.2354 40.0091 47.7075 40.9959 48.1647 41.9503C48.6368 42.9347 49.0814 43.864 49.4473 44.7453C50.2105 46.5818 50.1712 48.2799 49.3379 49.5286C48.61 50.6137 47.3668 51.2117 45.8364 51.2117ZM45.9064 41.4884C45.4665 42.3028 44.9692 43.2306 44.346 44.6194C43.5906 46.3025 43.4309 47.8337 43.9282 48.6159C44.243 49.1037 44.8591 49.3587 45.7703 49.3728H45.8364C46.4706 49.3728 47.3314 49.2217 47.8035 48.5073C48.2756 47.7928 48.2567 46.6825 47.7453 45.4495C47.3975 44.6139 46.9624 43.7058 46.502 42.7443C46.3061 42.332 46.1055 41.9133 45.9064 41.4884Z" fill="#463B32"/>
<path d="M59.4722 46.3724H54.6393C54.4776 46.3725 54.3187 46.3299 54.1788 46.249C54.0388 46.168 53.9227 46.0515 53.8422 45.9113L51.0929 41.1311C51.0128 40.9916 50.9707 40.8335 50.9707 40.6727C50.9707 40.5119 51.0128 40.3538 51.0929 40.2144L53.8422 35.4342C53.9227 35.2939 54.0388 35.1774 54.1788 35.0965C54.3187 35.0155 54.4776 34.9729 54.6393 34.973H59.6555C59.7786 34.9695 59.901 34.9906 60.0157 35.0352C60.1304 35.0797 60.235 35.1469 60.3233 35.2326C60.4116 35.3184 60.4818 35.4209 60.5297 35.5343C60.5776 35.6476 60.6023 35.7694 60.6023 35.8925C60.6023 36.0156 60.5776 36.1374 60.5297 36.2507C60.4818 36.3641 60.4116 36.4666 60.3233 36.5524C60.235 36.6381 60.1304 36.7053 60.0157 36.7498C59.901 36.7944 59.7786 36.8156 59.6555 36.812H55.1704L52.9507 40.6723L55.1712 44.5342H59.4722C59.716 44.5342 59.9497 44.6311 60.1221 44.8034C60.2944 44.9758 60.3913 45.2096 60.3913 45.4533C60.3913 45.6971 60.2944 45.9308 60.1221 46.1032C59.9497 46.2755 59.716 46.3724 59.4722 46.3724Z" fill="#463B32"/>
<path d="M68.4794 50.6862C68.3184 50.6861 68.1603 50.6437 68.0209 50.5633C67.8814 50.4828 67.7655 50.3672 67.6848 50.2279C67.6041 50.0887 67.5614 49.9307 67.561 49.7697C67.5605 49.6087 67.6023 49.4505 67.6823 49.3107C68.2874 48.2524 69.2749 46.279 69.71 45.4L67.2117 41.1384C67.0884 40.928 67.0537 40.6773 67.1152 40.4413C67.1767 40.2054 67.3295 40.0035 67.5399 39.8802C67.7502 39.7568 68.0009 39.7221 68.2369 39.7837C68.4729 39.8452 68.6747 39.9979 68.7981 40.2083L71.5474 44.8964C71.624 45.0275 71.6671 45.1754 71.6727 45.3271C71.6783 45.4788 71.6463 45.6296 71.5796 45.7659C71.5198 45.8887 70.098 48.7898 69.278 50.2219C69.1979 50.3631 69.0818 50.4804 68.9415 50.562C68.8011 50.6436 68.6417 50.6864 68.4794 50.6862Z" fill="#463B32"/>
<path d="M68.1143 51.1537H62.508C62.3463 51.1538 62.1874 51.1111 62.0475 51.0302C61.9075 50.9492 61.7914 50.8328 61.7109 50.6926L58.9616 45.9116C58.8812 45.7724 58.8389 45.6144 58.8389 45.4536C58.8389 45.2929 58.8812 45.1349 58.9616 44.9957L61.7109 40.2147C61.8324 40.0034 62.0329 39.849 62.2683 39.7856C62.5037 39.7221 62.7546 39.7548 62.9659 39.8763C63.1772 39.9979 63.3316 40.1984 63.395 40.4338C63.4585 40.6692 63.4258 40.9201 63.3043 41.1314L60.8186 45.4536L63.0391 49.3148H68.1143C68.3535 49.3218 68.5806 49.4217 68.7473 49.5934C68.914 49.7651 69.0073 49.995 69.0073 50.2343C69.0073 50.4736 68.914 50.7034 68.7473 50.8751C68.5806 51.0468 68.3535 51.1467 68.1143 51.1537Z" fill="#463B32"/>
<path d="M70.8657 46.2106C70.6219 46.2106 70.3882 46.1138 70.2158 45.9414C70.0435 45.7691 69.9466 45.5353 69.9466 45.2916C69.9466 45.0478 70.0435 44.8141 70.2158 44.6417C70.3882 44.4693 70.6219 44.3725 70.8657 44.3725H76.0393L78.2276 40.2273L75.8308 36.6125L70.8413 36.6825C70.7206 36.6842 70.6008 36.6621 70.4886 36.6175C70.3765 36.5729 70.2742 36.5066 70.1876 36.4225C70.1011 36.3384 70.032 36.238 69.9842 36.1271C69.9364 36.0163 69.911 35.8971 69.9093 35.7764C69.9076 35.6557 69.9296 35.5359 69.9743 35.4237C70.0189 35.3116 70.0851 35.2093 70.1693 35.1227C70.2534 35.0362 70.3538 34.9671 70.4646 34.9193C70.5755 34.8715 70.6946 34.8461 70.8153 34.8444L76.3069 34.7657C76.4608 34.7638 76.6127 34.8004 76.7487 34.8723C76.8848 34.9442 77.0007 35.049 77.0859 35.1772L80.061 39.6624C80.1522 39.7998 80.2047 39.9593 80.213 40.1241C80.2213 40.2888 80.1851 40.4528 80.1082 40.5987L77.4069 45.7133C77.3287 45.8612 77.2117 45.9849 77.0685 46.0713C76.9253 46.1576 76.7613 46.2034 76.5941 46.2036H70.8665L70.8657 46.2106Z" fill="#463B32"/>
<path d="M68.005 41.779H62.508C62.3462 41.779 62.1873 41.7363 62.0473 41.6552C61.9073 41.5741 61.7913 41.4575 61.7109 41.3171L58.9616 36.5369C58.8812 36.3975 58.8389 36.2395 58.8389 36.0786C58.8389 35.9177 58.8812 35.7596 58.9616 35.6202L61.7109 30.84C61.7913 30.6997 61.9074 30.5832 62.0474 30.5022C62.1873 30.4212 62.3462 30.3787 62.508 30.3789H68.005C68.1667 30.3789 68.3255 30.4215 68.4654 30.5024C68.6054 30.5834 68.7215 30.6998 68.8021 30.84L71.5514 35.6202C71.6314 35.7597 71.6736 35.9177 71.6736 36.0786C71.6736 36.2394 71.6314 36.3974 71.5514 36.5369L68.8021 41.3171C68.7215 41.4574 68.6055 41.5739 68.4655 41.655C68.3256 41.7361 68.1667 41.7789 68.005 41.779ZM63.0391 39.9401H67.4731L69.6936 36.0789L67.4731 32.2178H63.0391L60.8186 36.0789L63.0391 39.9401Z" fill="#463B32"/>
<path d="M47.1057 61.5447C48.6447 61.5447 49.7607 60.5097 49.7607 59.0517C49.7607 57.5937 48.6447 56.5587 47.1057 56.5587C45.5667 56.5587 44.4417 57.5937 44.4417 59.0517C44.4417 60.5097 45.5667 61.5447 47.1057 61.5447ZM47.1057 60.3927C46.4037 60.3927 45.8637 59.8887 45.8637 59.0517C45.8637 58.2147 46.4037 57.7107 47.1057 57.7107C47.8077 57.7107 48.3387 58.2147 48.3387 59.0517C48.3387 59.8887 47.8077 60.3927 47.1057 60.3927ZM52.0401 57.2697V56.6307H50.6991V61.4727H52.1031V59.1867C52.1031 58.2597 52.6161 57.8367 53.3901 57.8367C53.4981 57.8367 53.5881 57.8457 53.7051 57.8547V56.5587C52.9581 56.5587 52.3821 56.8017 52.0401 57.2697ZM58.159 56.6307V57.2517C57.79 56.7837 57.232 56.5587 56.557 56.5587C55.216 56.5587 54.136 57.4857 54.136 58.8987C54.136 60.3117 55.216 61.2387 56.557 61.2387C57.187 61.2387 57.718 61.0407 58.087 60.6357V60.8427C58.087 61.7157 57.655 62.1657 56.665 62.1657C56.044 62.1657 55.369 61.9497 54.955 61.6167L54.397 62.6247C54.964 63.0657 55.855 63.2907 56.773 63.2907C58.519 63.2907 59.491 62.4627 59.491 60.6627V56.6307H58.159ZM56.836 60.0867C56.098 60.0867 55.558 59.6097 55.558 58.8987C55.558 58.1877 56.098 57.7107 56.836 57.7107C57.574 57.7107 58.105 58.1877 58.105 58.8987C58.105 59.6097 57.574 60.0867 56.836 60.0867ZM62.7508 56.5587C61.9768 56.5587 61.1938 56.7657 60.6628 57.1437L61.1668 58.1247C61.5178 57.8457 62.0488 57.6747 62.5618 57.6747C63.3178 57.6747 63.6778 58.0257 63.6778 58.6287H62.5618C61.0858 58.6287 60.4828 59.2227 60.4828 60.0777C60.4828 60.9147 61.1578 61.5447 62.2918 61.5447C63.0028 61.5447 63.5068 61.3107 63.7678 60.8697V61.4727H65.0818V58.7097C65.0818 57.2427 64.2268 56.5587 62.7508 56.5587ZM62.6428 60.5997C62.1478 60.5997 61.8508 60.3657 61.8508 60.0147C61.8508 59.6907 62.0578 59.4477 62.7148 59.4477H63.6778V59.9427C63.5158 60.3837 63.1108 60.5997 62.6428 60.5997ZM69.2955 56.5587C68.6385 56.5587 68.0715 56.7837 67.6935 57.1977V56.6307H66.3525V61.4727H67.7565V59.0787C67.7565 58.1877 68.2425 57.7737 68.9175 57.7737C69.5385 57.7737 69.8985 58.1337 69.8985 58.9167V61.4727H71.3025V58.7007C71.3025 57.2247 70.4385 56.5587 69.2955 56.5587ZM73.2771 55.9557C73.7991 55.9557 74.1501 55.6137 74.1501 55.1457C74.1501 54.7137 73.7991 54.3897 73.2771 54.3897C72.7551 54.3897 72.4041 54.7317 72.4041 55.1727C72.4041 55.6137 72.7551 55.9557 73.2771 55.9557ZM72.5751 61.4727H73.9791V56.6307H72.5751V61.4727ZM77.6221 61.5447C78.6391 61.5447 79.4401 61.0947 79.7911 60.3207L78.7021 59.7267C78.4411 60.1947 78.0541 60.3927 77.6131 60.3927C76.9021 60.3927 76.3441 59.8977 76.3441 59.0517C76.3441 58.2057 76.9021 57.7107 77.6131 57.7107C78.0541 57.7107 78.4411 57.9177 78.7021 58.3767L79.7911 57.7917C79.4401 56.9997 78.6391 56.5587 77.6221 56.5587C76.0471 56.5587 74.9221 57.5937 74.9221 59.0517C74.9221 60.5097 76.0471 61.5447 77.6221 61.5447ZM44.8424 67.5587C44.2394 67.5587 43.7444 67.7477 43.3844 68.1437V65.7947H41.9804V72.4727H43.3214V71.9147C43.6724 72.3377 44.1944 72.5447 44.8424 72.5447C46.2014 72.5447 47.2544 71.5727 47.2544 70.0517C47.2544 68.5307 46.2014 67.5587 44.8424 67.5587ZM44.5994 71.3927C43.8974 71.3927 43.3664 70.8887 43.3664 70.0517C43.3664 69.2147 43.8974 68.7107 44.5994 68.7107C45.3014 68.7107 45.8324 69.2147 45.8324 70.0517C45.8324 70.8887 45.3014 71.3927 44.5994 71.3927ZM52.9373 70.0697C52.9373 68.5127 51.8393 67.5587 50.4173 67.5587C48.9413 67.5587 47.8343 68.6027 47.8343 70.0517C47.8343 71.4917 48.9233 72.5447 50.5973 72.5447C51.4703 72.5447 52.1453 72.2747 52.5953 71.7617L51.8483 70.9517C51.5153 71.2667 51.1463 71.4197 50.6333 71.4197C49.8953 71.4197 49.3823 71.0507 49.2473 70.4477H52.9103C52.9193 70.3307 52.9373 70.1777 52.9373 70.0697ZM50.4263 68.6207C51.0563 68.6207 51.5153 69.0167 51.6143 69.6287H49.2293C49.3283 69.0077 49.7873 68.6207 50.4263 68.6207ZM58.615 70.0697C58.615 68.5127 57.517 67.5587 56.095 67.5587C54.619 67.5587 53.512 68.6027 53.512 70.0517C53.512 71.4917 54.601 72.5447 56.275 72.5447C57.148 72.5447 57.823 72.2747 58.273 71.7617L57.526 70.9517C57.193 71.2667 56.824 71.4197 56.311 71.4197C55.573 71.4197 55.06 71.0507 54.925 70.4477H58.588C58.597 70.3307 58.615 70.1777 58.615 70.0697ZM56.104 68.6207C56.734 68.6207 57.193 69.0167 57.292 69.6287H54.907C55.006 69.0077 55.465 68.6207 56.104 68.6207ZM61.1787 72.5447C62.6277 72.5447 63.4647 71.9057 63.4647 71.0057C63.4647 69.0977 60.5397 69.8987 60.5397 69.0707C60.5397 68.8187 60.8097 68.6207 61.4397 68.6207C61.8807 68.6207 62.3577 68.7107 62.8347 68.9807L63.3027 67.9817C62.8437 67.7117 62.1057 67.5587 61.4397 67.5587C60.0267 67.5587 59.1987 68.2067 59.1987 69.1247C59.1987 71.0597 62.1237 70.2497 62.1237 71.0417C62.1237 71.3117 61.8807 71.4827 61.2327 71.4827C60.6387 71.4827 59.9817 71.2937 59.5497 71.0147L59.0817 72.0227C59.5317 72.3197 60.3597 72.5447 61.1787 72.5447ZM70.7771 67.6307L69.5981 70.9067L68.4461 67.6307H67.2581L66.0701 70.9067L64.9271 67.6307H63.6041L65.3501 72.4727H66.7001L67.8251 69.4667L68.9141 72.4727H70.2641L72.0191 67.6307H70.7771ZM74.4666 67.5587C73.6926 67.5587 72.9096 67.7657 72.3786 68.1437L72.8826 69.1247C73.2336 68.8457 73.7646 68.6747 74.2776 68.6747C75.0336 68.6747 75.3936 69.0257 75.3936 69.6287H74.2776C72.8016 69.6287 72.1986 70.2227 72.1986 71.0777C72.1986 71.9147 72.8736 72.5447 74.0076 72.5447C74.7186 72.5447 75.2226 72.3107 75.4836 71.8697V72.4727H76.7976V69.7097C76.7976 68.2427 75.9426 67.5587 74.4666 67.5587ZM74.3586 71.5997C73.8636 71.5997 73.5666 71.3657 73.5666 71.0147C73.5666 70.6907 73.7736 70.4477 74.4306 70.4477H75.3936V70.9427C75.2316 71.3837 74.8266 71.5997 74.3586 71.5997ZM82.7393 72.4727L80.8673 69.9977L82.6673 67.6307H81.1733L80.1203 69.0437L79.0943 67.6307H77.5193L79.3193 70.0337L77.4563 72.4727H78.9863L80.0843 70.9877L81.1463 72.4727H82.7393Z" fill="#BA9174"/>
</g>
<defs>
<clipPath id="clip0_960_457">
<rect width="122.596" height="83" fill="white"/>
</clipPath>
</defs>
</svg>
