<svg width="193" height="130" viewBox="0 0 193 130" fill="none" xmlns="http://www.w3.org/2000/svg">
<g clip-path="url(#clip0_906_84)">
<path d="M81.3852 47.8135C81.2454 47.8136 81.107 47.786 80.978 47.7323C80.8489 47.6786 80.7318 47.5998 80.6334 47.5005L65.3363 32.2047C65.2374 32.1058 65.159 31.9884 65.1055 31.8592C65.052 31.73 65.0244 31.5915 65.0244 31.4517C65.0244 31.3118 65.052 31.1733 65.1055 31.0441C65.159 30.9149 65.2374 30.7975 65.3363 30.6986C65.4352 30.5997 65.5526 30.5213 65.6818 30.4678C65.811 30.4143 65.9495 30.3867 66.0893 30.3867C66.2292 30.3867 66.3677 30.4143 66.4969 30.4678C66.6261 30.5213 66.7435 30.5997 66.8424 30.6986L82.1382 45.9957C82.2866 46.1448 82.3875 46.3345 82.4282 46.5409C82.469 46.7473 82.4478 46.9611 82.3673 47.1555C82.2868 47.3498 82.1506 47.516 81.9758 47.6331C81.8011 47.7502 81.5956 47.813 81.3852 47.8135Z" fill="#463B32"/>
<path d="M81.3855 48.0603C81.2132 48.0608 81.0426 48.0271 80.8835 47.9611C80.7244 47.8951 80.58 47.7981 80.4587 47.6758L65.1629 32.3788C64.9188 32.1331 64.7817 31.8008 64.7817 31.4544C64.7817 31.1081 64.9188 30.7758 65.1629 30.5301C65.4084 30.2857 65.7408 30.1484 66.0872 30.1484C66.4337 30.1484 66.766 30.2857 67.0116 30.5301L82.3123 45.8247C82.4955 46.0081 82.6202 46.2416 82.6708 46.4959C82.7213 46.7502 82.6953 47.0137 82.5961 47.2532C82.497 47.4927 82.329 47.6974 82.1135 47.8415C81.8981 47.9856 81.6447 48.0626 81.3855 48.0628V48.0603ZM66.0897 30.6336C65.928 30.6339 65.7701 30.682 65.6357 30.772C65.5014 30.8619 65.3967 30.9896 65.3349 31.139C65.273 31.2884 65.2568 31.4527 65.2883 31.6113C65.3198 31.7699 65.3975 31.9156 65.5117 32.03L80.8075 47.327C80.9634 47.4758 81.1706 47.5588 81.3861 47.5588C81.6016 47.5588 81.8088 47.4758 81.9647 47.327C82.1178 47.1736 82.2038 46.9657 82.2038 46.749C82.2038 46.5323 82.1178 46.3244 81.9647 46.171L66.6689 30.874C66.5931 30.7975 66.5029 30.7369 66.4035 30.6956C66.304 30.6544 66.1974 30.6333 66.0897 30.6336Z" fill="#463B32"/>
<path d="M93.1182 33.7313C92.9785 33.7318 92.8401 33.7044 92.711 33.6509C92.5819 33.5974 92.4648 33.5187 92.3664 33.4195L80.975 22.0367C80.7753 21.837 80.6631 21.5661 80.6631 21.2837C80.6631 21.0012 80.7753 20.7304 80.975 20.5307C81.1747 20.3309 81.4456 20.2188 81.728 20.2188C82.0104 20.2188 82.2813 20.3309 82.481 20.5307L93.8663 31.9159C94.0152 32.0648 94.1167 32.2546 94.1578 32.4612C94.1989 32.6677 94.1778 32.8819 94.0972 33.0765C94.0166 33.271 93.8801 33.4374 93.7049 33.5544C93.5298 33.6714 93.3239 33.7338 93.1133 33.7338L93.1182 33.7313Z" fill="#463B32"/>
<path d="M93.1182 33.9806C92.9456 33.9813 92.7746 33.9476 92.6152 33.8814C92.4558 33.8151 92.3113 33.7177 92.1901 33.5948L80.805 22.2108C80.6217 22.0273 80.497 21.7936 80.4465 21.5393C80.396 21.2849 80.4221 21.0213 80.5214 20.7817C80.6207 20.5422 80.7888 20.3374 81.0045 20.1934C81.2202 20.0494 81.4737 19.9726 81.733 19.9727C81.9053 19.972 82.076 20.0057 82.2351 20.0717C82.3942 20.1377 82.5386 20.2348 82.6598 20.3572L94.0449 31.7424C94.2282 31.9258 94.3529 32.1594 94.4034 32.4137C94.4539 32.6679 94.428 32.9314 94.3288 33.1709C94.2296 33.4104 94.0617 33.6152 93.8462 33.7593C93.6307 33.9034 93.3774 33.9804 93.1182 33.9806ZM81.733 20.4656C81.5711 20.4656 81.4128 20.5137 81.2782 20.6037C81.1436 20.6937 81.0388 20.8216 80.9769 20.9712C80.915 21.1209 80.8989 21.2855 80.9306 21.4443C80.9623 21.603 81.0404 21.7488 81.155 21.8632L92.5402 33.2473C92.6956 33.3965 92.9027 33.4799 93.1182 33.4799C93.3336 33.4799 93.5408 33.3965 93.6962 33.2473C93.7723 33.1713 93.8327 33.0812 93.8739 32.9819C93.9151 32.8826 93.9363 32.7761 93.9363 32.6686C93.9363 32.5611 93.9151 32.4547 93.8739 32.3554C93.8327 32.2561 93.7723 32.1659 93.6962 32.09L82.3123 20.7047C82.2362 20.6287 82.1459 20.5684 82.0465 20.5274C81.9471 20.4863 81.8406 20.4653 81.733 20.4656Z" fill="#463B32"/>
<path d="M87.5131 44.8565C87.2326 44.857 86.9633 44.7467 86.7638 44.5497L68.9907 26.9948C68.7897 26.7964 68.6757 26.5262 68.6739 26.2438C68.672 25.9614 68.7824 25.6898 68.9808 25.4887C69.1792 25.2877 69.4494 25.1737 69.7318 25.1719C70.0143 25.17 70.2859 25.2805 70.4869 25.4789L88.2624 43.0362C88.4126 43.1845 88.5153 43.3742 88.5573 43.5811C88.5994 43.7879 88.5789 44.0026 88.4985 44.1978C88.4182 44.393 88.2816 44.5599 88.1061 44.6772C87.9306 44.7945 87.7242 44.8569 87.5131 44.8565Z" fill="#463B32"/>
<path d="M87.5133 45.1065C87.1678 45.1072 86.8362 44.9706 86.5914 44.7269L68.8172 27.172C68.5698 26.9269 68.4299 26.5935 68.4282 26.2452C68.4266 25.8969 68.5634 25.5622 68.8086 25.3148C69.0537 25.0673 69.3871 24.9274 69.7354 24.9258C70.0837 24.9242 70.4184 25.061 70.6659 25.3061L88.4351 42.8684C88.6202 43.0511 88.7467 43.2848 88.7986 43.5396C88.8505 43.7945 88.8254 44.059 88.7266 44.2996C88.6278 44.5401 88.4597 44.7459 88.2436 44.8907C88.0276 45.0354 87.7733 45.1127 87.5133 45.1126V45.1065ZM69.7403 25.4208C69.6318 25.4208 69.5244 25.4427 69.4245 25.485C69.3245 25.5274 69.2341 25.5893 69.1586 25.6672C69.0054 25.8211 68.9193 26.0294 68.9193 26.2465C68.9193 26.4636 69.0054 26.6719 69.1586 26.8257L86.9377 44.3769C87.0946 44.5248 87.3025 44.6065 87.5181 44.6049C87.7337 44.6032 87.9403 44.5185 88.095 44.3682C88.1709 44.2925 88.2311 44.2025 88.2722 44.1034C88.3133 44.0043 88.3344 43.8981 88.3344 43.7908C88.3344 43.6836 88.3133 43.5774 88.2722 43.4783C88.2311 43.3792 88.1709 43.2892 88.095 43.2134L70.3146 25.6561C70.1618 25.5049 69.9553 25.4202 69.7403 25.4208Z" fill="#463B32"/>
<path d="M91.1599 40.0786C90.8837 40.0784 90.6184 39.9705 90.4204 39.7779L74.1264 23.9595C74.0202 23.8639 73.9343 23.7478 73.8739 23.6183C73.8136 23.4887 73.7799 23.3483 73.775 23.2054C73.7701 23.0626 73.7941 22.9202 73.8455 22.7868C73.8968 22.6534 73.9746 22.5318 74.074 22.4291C74.1734 22.3264 74.2926 22.2449 74.4242 22.1893C74.5559 22.1336 74.6974 22.1052 74.8404 22.1055C74.9833 22.1058 75.1247 22.1349 75.2562 22.1911C75.3876 22.2473 75.5063 22.3294 75.6053 22.4325L91.9006 38.2509C92.0528 38.3982 92.1575 38.5876 92.2013 38.7948C92.2452 39.002 92.2261 39.2176 92.1467 39.4139C92.0673 39.6102 91.931 39.7784 91.7555 39.8968C91.5799 40.0152 91.3729 40.0785 91.1611 40.0786H91.1599Z" fill="#463B32"/>
<path d="M91.16 40.3227C90.819 40.3231 90.4914 40.1904 90.2467 39.9529L73.9502 24.1321C73.8212 24.0135 73.7173 23.8703 73.6446 23.7108C73.5719 23.5514 73.5318 23.379 73.5269 23.2039C73.5219 23.0287 73.5521 22.8544 73.6157 22.6911C73.6793 22.5278 73.7749 22.3789 73.897 22.2532C74.0191 22.1275 74.1651 22.0275 74.3264 21.9592C74.4878 21.8909 74.6612 21.8556 74.8364 21.8555C75.0117 21.8553 75.1851 21.8903 75.3466 21.9583C75.5081 22.0263 75.6543 22.1259 75.7766 22.2514L92.0732 38.071C92.2603 38.2528 92.3889 38.4863 92.4426 38.7416C92.4962 38.9969 92.4725 39.2624 92.3745 39.5042C92.2764 39.746 92.1085 39.953 91.8921 40.0988C91.6758 40.2446 91.4209 40.3225 91.16 40.3227ZM74.8671 22.3759C74.7044 22.3758 74.5453 22.4242 74.4103 22.5151C74.2753 22.606 74.1705 22.7351 74.1093 22.8859C74.0481 23.0367 74.0334 23.2023 74.067 23.3615C74.1005 23.5208 74.1809 23.6664 74.2977 23.7796L90.5881 39.598C90.7459 39.7446 90.9541 39.8247 91.1694 39.8217C91.3847 39.8187 91.5905 39.7329 91.7442 39.582C91.895 39.4261 91.978 39.2167 91.9747 38.9998C91.9715 38.7828 91.8824 38.576 91.7269 38.4247L75.4365 22.6063C75.2843 22.4577 75.0798 22.3749 74.8671 22.3759Z" fill="#463B32"/>
<path d="M75.6926 51.2906C75.5513 51.291 75.4112 51.2631 75.2808 51.2085C75.1504 51.1539 75.0323 51.0737 74.9334 50.9726L62.8962 38.716C62.7983 38.6163 62.721 38.4983 62.6687 38.3687C62.6164 38.2391 62.5901 38.1005 62.5914 37.9608C62.5926 37.821 62.6214 37.6829 62.676 37.5543C62.7307 37.4257 62.8101 37.3091 62.9098 37.2112C63.0095 37.1133 63.1275 37.0359 63.2571 36.9836C63.3866 36.9313 63.5253 36.905 63.665 36.9063C63.8047 36.9076 63.9428 36.9363 64.0715 36.991C64.2001 37.0456 64.3167 37.125 64.4146 37.2247L76.453 49.4801C76.5993 49.6301 76.6982 49.8198 76.7373 50.0256C76.7763 50.2314 76.7539 50.4442 76.6728 50.6373C76.5917 50.8305 76.4554 50.9955 76.2811 51.1116C76.1068 51.2278 75.9021 51.29 75.6926 51.2906Z" fill="#463B32"/>
<path d="M75.693 51.5355C75.5186 51.5361 75.3459 51.5017 75.185 51.4344C75.0241 51.3671 74.8784 51.2682 74.7563 51.1436L62.7203 38.8882C62.4826 38.639 62.3525 38.3062 62.3581 37.9618C62.3637 37.6174 62.5046 37.289 62.7503 37.0477C62.9961 36.8063 63.3269 36.6713 63.6714 36.6719C64.0158 36.6724 64.3462 36.8085 64.5911 37.0507L76.6284 49.306C76.8098 49.4901 76.9327 49.7238 76.9816 49.9776C77.0304 50.2314 77.0032 50.494 76.9032 50.7323C76.8032 50.9706 76.6349 51.174 76.4196 51.317C76.2042 51.4599 75.9514 51.5359 75.693 51.5355ZM63.6545 37.1517C63.4934 37.1516 63.3359 37.1991 63.2017 37.2883C63.0675 37.3775 62.9627 37.5043 62.9004 37.6528C62.8382 37.8014 62.8212 37.965 62.8516 38.1232C62.882 38.2814 62.9586 38.4271 63.0715 38.5419L75.1088 50.7973C75.2633 50.9477 75.4699 51.0327 75.6855 51.0345C75.9011 51.0363 76.1091 50.9549 76.2661 50.8071C76.4206 50.6552 76.5086 50.4481 76.5107 50.2314C76.5128 50.0147 76.4288 49.806 76.2772 49.6511L64.2387 37.397C64.1627 37.3191 64.0718 37.2573 63.9714 37.2151C63.8711 37.173 63.7633 37.1514 63.6545 37.1517Z" fill="#463B32"/>
<path d="M69.6106 53.1807C69.4693 53.1807 69.3295 53.1525 69.1993 53.0977C69.0692 53.0429 68.9513 52.9625 68.8526 52.8615L60.7629 45.0441C60.665 44.9444 60.5877 44.8264 60.5354 44.6968C60.4831 44.5672 60.4568 44.4286 60.4581 44.2889C60.4593 44.1492 60.4881 44.011 60.5427 43.8824C60.5974 43.7538 60.6768 43.6372 60.7765 43.5393C60.8762 43.4414 60.9942 43.3641 61.1238 43.3117C61.2533 43.2594 61.392 43.2332 61.5317 43.2344C61.6714 43.2357 61.8095 43.2644 61.9382 43.3191C62.0668 43.3737 62.1834 43.4532 62.2813 43.5529L70.3759 51.3714C70.5229 51.5213 70.6223 51.7112 70.6616 51.9173C70.701 52.1234 70.6786 52.3366 70.5972 52.53C70.5159 52.7234 70.3791 52.8885 70.2043 53.0045C70.0294 53.1205 69.8241 53.1822 69.6143 53.1819L69.6106 53.1807Z" fill="#463B32"/>
<path d="M69.6106 53.4267C69.4365 53.4271 69.264 53.3927 69.1033 53.3253C68.9426 53.258 68.7971 53.1593 68.6752 53.0348L60.5879 45.2211C60.4609 45.1 60.3595 44.9546 60.2897 44.7935C60.2199 44.6324 60.1832 44.4589 60.1817 44.2834C60.1802 44.1079 60.214 43.9338 60.281 43.7715C60.348 43.6093 60.447 43.4622 60.5719 43.3389C60.6969 43.2156 60.8453 43.1186 61.0084 43.0537C61.1715 42.9889 61.346 42.9574 61.5215 42.9612C61.697 42.9651 61.87 43.0041 62.0301 43.076C62.1903 43.1479 62.3344 43.2513 62.4538 43.3799L70.5424 51.1923C70.7246 51.3762 70.8484 51.6099 70.898 51.864C70.9476 52.1181 70.921 52.3812 70.8213 52.6201C70.7217 52.859 70.5535 53.0631 70.3381 53.2067C70.1226 53.3502 69.8695 53.4268 69.6106 53.4267ZM61.5184 43.4834C61.3573 43.4833 61.1998 43.5308 61.0656 43.62C60.9315 43.7092 60.8266 43.836 60.7643 43.9845C60.7021 44.1331 60.6851 44.2967 60.7155 44.4549C60.7459 44.6131 60.8225 44.7588 60.9354 44.8736L69.0203 52.6836C69.1739 52.837 69.3813 52.9243 69.5984 52.9271C69.8155 52.9299 70.025 52.8478 70.1825 52.6984C70.3369 52.5462 70.4246 52.3391 70.4265 52.1224C70.4283 51.9057 70.3441 51.697 70.1924 51.5423L62.1063 43.7299C62.0299 43.6514 61.9385 43.5891 61.8374 43.5468C61.7364 43.5044 61.6279 43.4829 61.5184 43.4834Z" fill="#463B32"/>
<path d="M101.65 9.65539C101.589 9.5258 101.488 9.41914 101.362 9.35098C100.757 9.02192 100.006 9.35098 99.6365 9.85505C99.3567 10.2248 98.4977 10.979 98.1711 11.3056C97.2049 12.2657 97.2517 12.2694 96.288 13.2319C95.1479 14.3732 93.9894 15.507 92.8507 16.6421C91.8844 17.6108 90.9244 18.5869 89.9544 19.5519C89.4849 20.0202 89.0005 20.4787 88.5408 20.9568C88.532 20.9658 88.5238 20.9752 88.5162 20.9852C88.3248 21.1866 88.2197 21.4547 88.2232 21.7325C88.2268 22.0103 88.3388 22.2757 88.5353 22.4721C88.7319 22.6684 88.9973 22.7802 89.2751 22.7836C89.5529 22.7869 89.821 22.6816 90.0222 22.49L101.325 11.1885C101.655 10.857 101.878 10.12 101.65 9.65539Z" fill="#463B32"/>
<path d="M89.2695 23.0467C89.0093 23.0479 88.7546 22.9715 88.5379 22.8273C88.3212 22.6831 88.1524 22.4777 88.053 22.2372C87.9536 21.9967 87.928 21.732 87.9796 21.4769C88.0312 21.2218 88.1576 20.9879 88.3427 20.8049C88.3484 20.7964 88.355 20.7885 88.3624 20.7815C88.6656 20.466 88.9787 20.1567 89.2868 19.8584C89.4532 19.6957 89.6183 19.5343 89.7797 19.3716C90.3442 18.8088 90.907 18.2435 91.4682 17.6758C91.8691 17.2715 92.2709 16.8673 92.6735 16.463C93.2733 15.8616 93.8764 15.2626 94.4827 14.6661C95.025 14.1288 95.5661 13.591 96.1059 13.0529C96.5754 12.5833 96.8059 12.3418 97.0277 12.1076C97.2742 11.8611 97.4936 11.6146 97.989 11.1216C98.0889 11.0218 98.2355 10.8826 98.4044 10.7273C98.768 10.405 99.1116 10.0609 99.4335 9.69694C99.5979 9.47817 99.8092 9.2989 100.052 9.17224C100.295 9.04559 100.562 8.97474 100.836 8.96488C101.06 8.96332 101.281 9.01843 101.478 9.12509C101.649 9.21751 101.787 9.36215 101.87 9.53796C102.149 10.1098 101.896 10.954 101.5 11.3546L90.1975 22.656C90.0767 22.7798 89.9324 22.8781 89.773 22.9451C89.6136 23.0122 89.4424 23.0468 89.2695 23.0467ZM100.838 9.46648C100.641 9.47693 100.448 9.53044 100.274 9.62327C100.099 9.71609 99.9469 9.84598 99.8278 10.0038C99.6208 10.2787 99.134 10.7322 98.7445 11.0958C98.5818 11.2486 98.4364 11.3829 98.3403 11.4803C97.8473 11.9671 97.6242 12.2037 97.3876 12.4527C97.151 12.7016 96.9316 12.9333 96.4571 13.4066C95.9173 13.9464 95.3754 14.4846 94.8315 15.0211C94.2276 15.6184 93.6254 16.2165 93.0248 16.8155L91.8207 18.027C91.257 18.5939 90.6934 19.16 90.1298 19.7253C89.9646 19.8892 89.7982 20.0507 89.6368 20.2183C89.3348 20.5141 89.0206 20.8209 88.7235 21.129C88.7174 21.1377 88.7063 21.15 88.6964 21.1611C88.6203 21.237 88.5599 21.3272 88.5187 21.4265C88.4775 21.5258 88.4563 21.6322 88.4563 21.7397C88.4563 21.8472 88.4775 21.9537 88.5187 22.053C88.5599 22.1523 88.6203 22.2424 88.6964 22.3183C88.8526 22.4666 89.0597 22.5492 89.2751 22.5492C89.4904 22.5492 89.6975 22.4666 89.8537 22.3183L101.155 11.0169C101.424 10.747 101.605 10.1172 101.435 9.76473C101.396 9.68137 101.33 9.61303 101.249 9.57C101.123 9.50069 100.982 9.46503 100.838 9.46648Z" fill="#463B32"/>
<path d="M92.4702 25.8689C92.1948 25.8696 91.9298 25.7636 91.7308 25.5731L91.5977 25.4499C91.4571 25.3147 91.3563 25.1434 91.3064 24.9548C91.2565 24.7662 91.2594 24.5676 91.3147 24.3805C91.37 24.1934 91.4757 24.0251 91.6201 23.894C91.7646 23.7629 91.9422 23.674 92.1338 23.637L111.429 4.34069C111.539 4.23454 111.628 4.10737 111.689 3.96663C111.75 3.82588 111.782 3.6744 111.783 3.52105C111.785 3.3677 111.756 3.21558 111.698 3.07359C111.64 2.9316 111.554 2.80261 111.446 2.69417C111.338 2.58573 111.209 2.50003 111.067 2.44208C110.925 2.38414 110.772 2.35512 110.619 2.35672C110.466 2.35833 110.314 2.39053 110.174 2.45143C110.033 2.51233 109.906 2.60072 109.8 2.7114L106.603 5.91574C106.401 6.10843 106.132 6.21461 105.854 6.21155C105.575 6.2085 105.309 6.09644 105.112 5.89938C104.915 5.70232 104.803 5.43593 104.799 5.15726C104.796 4.87859 104.903 4.60981 105.095 4.40847L108.3 1.21153C108.603 0.90258 108.965 0.656828 109.364 0.488449C109.763 0.320071 110.192 0.232402 110.625 0.2305C111.058 0.228599 111.487 0.312502 111.888 0.477369C112.289 0.642236 112.653 0.884803 112.959 1.19107C113.265 1.49734 113.508 1.86124 113.673 2.26178C113.838 2.66232 113.922 3.09157 113.92 3.52475C113.918 3.95793 113.831 4.38647 113.663 4.78564C113.494 5.1848 113.249 5.54669 112.94 5.85042L93.222 25.5571C93.0226 25.7565 92.7522 25.8686 92.4702 25.8689Z" fill="#463B32"/>
<path d="M92.4697 26.1177C92.1318 26.1179 91.8068 25.9876 91.5626 25.7541L91.4283 25.6309C91.1784 25.3892 91.0343 25.0584 91.0276 24.7108C91.0209 24.3632 91.1521 24.0271 91.3925 23.776C91.5602 23.6005 91.7737 23.4754 92.0088 23.4149L111.253 4.16919C111.423 3.9988 111.517 3.76843 111.517 3.52832C111.517 3.28821 111.423 3.05783 111.253 2.88745C111.081 2.72297 110.852 2.63122 110.613 2.63122C110.375 2.63122 110.145 2.72297 109.973 2.88745L106.776 6.09179C106.658 6.22947 106.514 6.34136 106.351 6.42042C106.188 6.49947 106.011 6.54399 105.83 6.55116C105.649 6.55832 105.469 6.52799 105.3 6.46207C105.132 6.39615 104.979 6.29606 104.851 6.16811C104.723 6.04016 104.623 5.88711 104.557 5.71859C104.491 5.55007 104.461 5.36973 104.468 5.18892C104.475 5.00811 104.52 4.83074 104.599 4.66797C104.678 4.5052 104.79 4.36055 104.927 4.24313L108.132 1.04496C108.448 0.676661 108.837 0.377668 109.274 0.166703C109.712 -0.0442615 110.188 -0.162653 110.673 -0.181059C111.158 -0.199464 111.642 -0.117486 112.094 0.0597406C112.546 0.236968 112.957 0.505627 113.3 0.848893C113.644 1.19216 113.913 1.60264 114.09 2.05462C114.268 2.50661 114.35 2.99036 114.332 3.47559C114.314 3.96083 114.195 4.43708 113.985 4.87453C113.774 5.31199 113.475 5.70122 113.107 6.01784L93.3953 25.7368C93.2738 25.8583 93.1295 25.9545 92.9706 26.0199C92.8117 26.0852 92.6415 26.1185 92.4697 26.1177ZM110.612 2.1295C110.889 2.13002 111.159 2.21247 111.389 2.36644C111.618 2.52041 111.797 2.739 111.903 2.99458C112.008 3.25016 112.036 3.53127 111.982 3.80241C111.927 4.07355 111.794 4.32256 111.598 4.51797L92.3132 23.8093C92.2792 23.843 92.2365 23.8664 92.1899 23.8771C92.0242 23.908 91.8724 23.9904 91.7561 24.1125C91.6059 24.269 91.5238 24.4788 91.528 24.6957C91.5321 24.9126 91.6222 25.1191 91.7783 25.2698L91.9114 25.393C92.0679 25.5361 92.273 25.6144 92.4851 25.6121C92.6972 25.6099 92.9005 25.5271 93.0539 25.3807L112.766 5.66906C113.053 5.38872 113.283 5.054 113.44 4.68434C113.597 4.31468 113.68 3.91744 113.683 3.51567C113.685 3.11389 113.608 2.71559 113.456 2.34387C113.303 1.97216 113.078 1.63443 112.794 1.35028C112.51 1.06614 112.173 0.841243 111.801 0.68864C111.429 0.536038 111.031 0.458771 110.629 0.461323C110.227 0.463875 109.83 0.546195 109.46 0.703506C109.091 0.860817 108.756 1.08999 108.475 1.37771L105.277 4.58205C105.124 4.73568 105.038 4.94376 105.038 5.16068C105.038 5.37761 105.124 5.58569 105.277 5.73931C105.433 5.88783 105.64 5.97066 105.856 5.97066C106.071 5.97066 106.278 5.88783 106.435 5.73931L109.631 2.53497C109.892 2.2756 110.245 2.12985 110.612 2.1295Z" fill="#463B32"/>
<path d="M71.792 80.2107H71.6441C68.5828 80.1626 67.0841 78.8143 66.3742 77.6916C65.0185 75.5668 65.1837 72.3761 66.8302 68.7071C67.8692 66.3938 68.722 64.8101 69.4085 63.5395C69.8892 62.6472 70.3045 61.8769 70.6718 61.0672L72.0274 58.0859L73.3129 61.0956C73.9833 62.6645 74.7228 64.2099 75.4388 65.7049C76.1783 67.2467 76.8746 68.7022 77.4477 70.0825C78.6432 72.959 78.5816 75.6186 77.2764 77.5745C76.1364 79.274 74.1891 80.2107 71.792 80.2107ZM71.9017 64.9814C71.2128 66.257 70.4339 67.71 69.4578 69.8853C68.2747 72.5215 68.0245 74.9198 68.8034 76.1449C69.2963 76.909 70.2614 77.3083 71.6885 77.3305H71.792C72.7854 77.3305 74.1337 77.0938 74.8731 75.9748C75.6126 74.8557 75.583 73.1168 74.7819 71.1855C74.2372 69.8767 73.5557 68.4544 72.8347 66.9484C72.5278 66.3026 72.2135 65.6469 71.9017 64.9814Z" fill="#463B32"/>
<path d="M93.1491 72.6323H85.5795C85.3262 72.6325 85.0774 72.5658 84.8582 72.439C84.639 72.3122 84.4571 72.1297 84.331 71.9101L80.0249 64.423C79.8995 64.2046 79.8335 63.957 79.8335 63.7051C79.8335 63.4532 79.8995 63.2057 80.0249 62.9872L84.331 55.5002C84.4571 55.2805 84.639 55.0981 84.8582 54.9713C85.0774 54.8444 85.3262 54.7778 85.5795 54.778H93.4363C93.6289 54.7723 93.8208 54.8054 94.0004 54.8752C94.1801 54.9451 94.3439 55.0502 94.4821 55.1845C94.6204 55.3188 94.7303 55.4795 94.8054 55.657C94.8804 55.8345 94.9191 56.0253 94.9191 56.2181C94.9191 56.4108 94.8804 56.6016 94.8054 56.7791C94.7303 56.9566 94.6204 57.1173 94.4821 57.2516C94.3439 57.3859 94.1801 57.4911 94.0004 57.5609C93.8208 57.6307 93.6289 57.6638 93.4363 57.6582H86.4114L82.9347 63.7045L86.4126 69.7533H93.1491C93.5309 69.7533 93.897 69.905 94.167 70.1749C94.4369 70.4449 94.5886 70.811 94.5886 71.1928C94.5886 71.5746 94.4369 71.9407 94.167 72.2107C93.897 72.4806 93.5309 72.6323 93.1491 72.6323Z" fill="#463B32"/>
<path d="M107.257 79.3885C107.005 79.3883 106.757 79.3219 106.539 79.1959C106.32 79.07 106.139 78.8889 106.013 78.6707C105.886 78.4526 105.819 78.2051 105.819 77.953C105.818 77.7009 105.883 77.453 106.009 77.2341C106.956 75.5765 108.503 72.4856 109.185 71.1089L105.272 64.4341C105.078 64.1046 105.024 63.7119 105.12 63.3423C105.217 62.9727 105.456 62.6566 105.785 62.4634C106.115 62.2702 106.508 62.2159 106.877 62.3122C107.247 62.4086 107.563 62.6479 107.756 62.9773L112.062 70.3202C112.182 70.5254 112.25 70.7572 112.259 70.9948C112.267 71.2324 112.217 71.4685 112.113 71.682C112.019 71.8743 109.792 76.4183 108.508 78.6613C108.382 78.8824 108.201 79.0662 107.981 79.194C107.761 79.3217 107.511 79.3888 107.257 79.3885Z" fill="#463B32"/>
<path d="M106.685 80.1207H97.904C97.6507 80.1208 97.402 80.0541 97.1828 79.9272C96.9636 79.8004 96.7817 79.6181 96.6555 79.3985L92.3494 71.9102C92.2235 71.6921 92.1572 71.4447 92.1572 71.1929C92.1572 70.9411 92.2235 70.6937 92.3494 70.4757L96.6555 62.9874C96.8459 62.6564 97.16 62.4146 97.5286 62.3153C97.8973 62.2159 98.2903 62.267 98.6213 62.4574C98.9522 62.6478 99.194 62.9619 99.2933 63.3305C99.3927 63.6992 99.3416 64.0922 99.1512 64.4231L95.258 71.1929L98.7359 77.2405H106.685C107.06 77.2515 107.415 77.408 107.676 77.6769C107.938 77.9457 108.084 78.3058 108.084 78.6806C108.084 79.0554 107.938 79.4155 107.676 79.6843C107.415 79.9532 107.06 80.1098 106.685 80.1207Z" fill="#463B32"/>
<path d="M110.995 72.379C110.613 72.379 110.247 72.2274 109.977 71.9574C109.707 71.6875 109.555 71.3213 109.555 70.9396C109.555 70.5578 109.707 70.1916 109.977 69.9217C110.247 69.6517 110.613 69.5001 110.995 69.5001H119.098L122.525 63.0076L118.771 57.3458L110.957 57.4555C110.768 57.4581 110.58 57.4235 110.404 57.3537C110.228 57.2838 110.068 57.18 109.933 57.0482C109.797 56.9164 109.689 56.7592 109.614 56.5856C109.539 56.412 109.499 56.2253 109.497 56.0363C109.494 55.8473 109.529 55.6596 109.599 55.4839C109.668 55.3082 109.772 55.148 109.904 55.0125C110.036 54.8769 110.193 54.7686 110.367 54.6938C110.54 54.619 110.727 54.5792 110.916 54.5765L119.517 54.4532C119.758 54.4502 119.996 54.5077 120.209 54.6202C120.422 54.7328 120.604 54.897 120.737 55.0978L125.397 62.1227C125.54 62.338 125.622 62.5878 125.635 62.8459C125.648 63.1039 125.591 63.3607 125.471 63.5893L121.24 71.6001C121.118 71.8317 120.934 72.0255 120.71 72.1608C120.486 72.296 120.229 72.3677 119.967 72.3679H110.996L110.995 72.379Z" fill="#463B32"/>
<path d="M106.514 65.4337H97.904C97.6506 65.4338 97.4017 65.3669 97.1825 65.2398C96.9632 65.1128 96.7815 64.9301 96.6555 64.7102L92.3494 57.2232C92.2235 57.0049 92.1572 56.7573 92.1572 56.5053C92.1572 56.2533 92.2235 56.0057 92.3494 55.7874L96.6555 48.3003C96.7815 48.0806 96.9633 47.8981 97.1826 47.7713C97.4018 47.6444 97.6507 47.5778 97.904 47.5781H106.514C106.767 47.5781 107.016 47.6448 107.235 47.7716C107.454 47.8984 107.636 48.0808 107.762 48.3003L112.068 55.7874C112.194 56.0059 112.26 56.2534 112.26 56.5053C112.26 56.7572 112.194 57.0047 112.068 57.2232L107.762 64.7102C107.636 64.9299 107.454 65.1125 107.235 65.2395C107.016 65.3665 106.767 65.4335 106.514 65.4337ZM98.7359 62.5535H105.681L109.159 56.5059L105.681 50.4583H98.7359L95.2579 56.5059L98.7359 62.5535Z" fill="#463B32"/>
<path d="M73.94 96.2956C76.334 96.2956 78.07 94.6856 78.07 92.4176C78.07 90.1496 76.334 88.5396 73.94 88.5396C71.546 88.5396 69.796 90.1496 69.796 92.4176C69.796 94.6856 71.546 96.2956 73.94 96.2956ZM73.94 94.5036C72.848 94.5036 72.008 93.7196 72.008 92.4176C72.008 91.1156 72.848 90.3316 73.94 90.3316C75.032 90.3316 75.858 91.1156 75.858 92.4176C75.858 93.7196 75.032 94.5036 73.94 94.5036ZM81.6159 89.6456V88.6516H79.5299V96.1836H81.7139V92.6276C81.7139 91.1856 82.5119 90.5276 83.7159 90.5276C83.8839 90.5276 84.0239 90.5416 84.2059 90.5556V88.5396C83.0439 88.5396 82.1479 88.9176 81.6159 89.6456ZM91.1341 88.6516V89.6176C90.5601 88.8896 89.6921 88.5396 88.6421 88.5396C86.5561 88.5396 84.8761 89.9816 84.8761 92.1796C84.8761 94.3776 86.5561 95.8196 88.6421 95.8196C89.6221 95.8196 90.4481 95.5116 91.0221 94.8816V95.2036C91.0221 96.5616 90.3501 97.2616 88.8101 97.2616C87.8441 97.2616 86.7941 96.9256 86.1501 96.4076L85.2821 97.9756C86.1641 98.6616 87.5501 99.0116 88.9781 99.0116C91.6941 99.0116 93.2061 97.7236 93.2061 94.9236V88.6516H91.1341ZM89.0761 94.0276C87.9281 94.0276 87.0881 93.2856 87.0881 92.1796C87.0881 91.0736 87.9281 90.3316 89.0761 90.3316C90.2241 90.3316 91.0501 91.0736 91.0501 92.1796C91.0501 93.2856 90.2241 94.0276 89.0761 94.0276ZM98.2769 88.5396C97.0729 88.5396 95.8549 88.8616 95.0289 89.4496L95.8129 90.9756C96.3589 90.5416 97.1849 90.2756 97.9829 90.2756C99.1589 90.2756 99.7189 90.8216 99.7189 91.7596H97.9829C95.6869 91.7596 94.7489 92.6836 94.7489 94.0136C94.7489 95.3156 95.7989 96.2956 97.5629 96.2956C98.6689 96.2956 99.4529 95.9316 99.8589 95.2456V96.1836H101.903V91.8856C101.903 89.6036 100.573 88.5396 98.2769 88.5396ZM98.1089 94.8256C97.3389 94.8256 96.8769 94.4616 96.8769 93.9156C96.8769 93.4116 97.1989 93.0336 98.2209 93.0336H99.7189V93.8036C99.4669 94.4896 98.8369 94.8256 98.1089 94.8256ZM108.457 88.5396C107.435 88.5396 106.553 88.8896 105.965 89.5336V88.6516H103.879V96.1836H106.063V92.4596C106.063 91.0736 106.819 90.4296 107.869 90.4296C108.835 90.4296 109.395 90.9896 109.395 92.2076V96.1836H111.579V91.8716C111.579 89.5756 110.235 88.5396 108.457 88.5396ZM114.651 87.6016C115.463 87.6016 116.009 87.0696 116.009 86.3416C116.009 85.6696 115.463 85.1656 114.651 85.1656C113.839 85.1656 113.293 85.6976 113.293 86.3836C113.293 87.0696 113.839 87.6016 114.651 87.6016ZM113.559 96.1836H115.743V88.6516H113.559V96.1836ZM121.41 96.2956C122.992 96.2956 124.238 95.5956 124.784 94.3916L123.09 93.4676C122.684 94.1956 122.082 94.5036 121.396 94.5036C120.29 94.5036 119.422 93.7336 119.422 92.4176C119.422 91.1016 120.29 90.3316 121.396 90.3316C122.082 90.3316 122.684 90.6536 123.09 91.3676L124.784 90.4576C124.238 89.2256 122.992 88.5396 121.41 88.5396C118.96 88.5396 117.21 90.1496 117.21 92.4176C117.21 94.6856 118.96 96.2956 121.41 96.2956ZM70.4194 105.54C69.4814 105.54 68.7114 105.834 68.1514 106.45V102.796H65.9674V113.184H68.0534V112.316C68.5994 112.974 69.4114 113.296 70.4194 113.296C72.5334 113.296 74.1714 111.784 74.1714 109.418C74.1714 107.052 72.5334 105.54 70.4194 105.54ZM70.0414 111.504C68.9494 111.504 68.1234 110.72 68.1234 109.418C68.1234 108.116 68.9494 107.332 70.0414 107.332C71.1334 107.332 71.9594 108.116 71.9594 109.418C71.9594 110.72 71.1334 111.504 70.0414 111.504ZM83.0114 109.446C83.0114 107.024 81.3034 105.54 79.0914 105.54C76.7954 105.54 75.0734 107.164 75.0734 109.418C75.0734 111.658 76.7674 113.296 79.3714 113.296C80.7294 113.296 81.7794 112.876 82.4794 112.078L81.3174 110.818C80.7994 111.308 80.2254 111.546 79.4274 111.546C78.2794 111.546 77.4814 110.972 77.2714 110.034H82.9694C82.9834 109.852 83.0114 109.614 83.0114 109.446ZM79.1054 107.192C80.0854 107.192 80.7994 107.808 80.9534 108.76H77.2434C77.3974 107.794 78.1114 107.192 79.1054 107.192ZM91.8434 109.446C91.8434 107.024 90.1354 105.54 87.9234 105.54C85.6274 105.54 83.9054 107.164 83.9054 109.418C83.9054 111.658 85.5994 113.296 88.2034 113.296C89.5614 113.296 90.6114 112.876 91.3114 112.078L90.1494 110.818C89.6314 111.308 89.0574 111.546 88.2594 111.546C87.1114 111.546 86.3134 110.972 86.1034 110.034H91.8014C91.8154 109.852 91.8434 109.614 91.8434 109.446ZM87.9374 107.192C88.9174 107.192 89.6314 107.808 89.7854 108.76H86.0754C86.2294 107.794 86.9434 107.192 87.9374 107.192ZM95.8315 113.296C98.0855 113.296 99.3875 112.302 99.3875 110.902C99.3875 107.934 94.8375 109.18 94.8375 107.892C94.8375 107.5 95.2575 107.192 96.2375 107.192C96.9235 107.192 97.6655 107.332 98.4075 107.752L99.1355 106.198C98.4215 105.778 97.2735 105.54 96.2375 105.54C94.0395 105.54 92.7515 106.548 92.7515 107.976C92.7515 110.986 97.3015 109.726 97.3015 110.958C97.3015 111.378 96.9235 111.644 95.9155 111.644C94.9915 111.644 93.9695 111.35 93.2975 110.916L92.5695 112.484C93.2695 112.946 94.5575 113.296 95.8315 113.296ZM110.762 105.652L108.928 110.748L107.136 105.652H105.288L103.44 110.748L101.662 105.652H99.6042L102.32 113.184H104.42L106.17 108.508L107.864 113.184H109.964L112.694 105.652H110.762ZM116.501 105.54C115.297 105.54 114.079 105.862 113.253 106.45L114.037 107.976C114.583 107.542 115.409 107.276 116.207 107.276C117.383 107.276 117.943 107.822 117.943 108.76H116.207C113.911 108.76 112.973 109.684 112.973 111.014C112.973 112.316 114.023 113.296 115.787 113.296C116.893 113.296 117.677 112.932 118.083 112.246V113.184H120.127V108.886C120.127 106.604 118.797 105.54 116.501 105.54ZM116.333 111.826C115.563 111.826 115.101 111.462 115.101 110.916C115.101 110.412 115.423 110.034 116.445 110.034H117.943V110.804C117.691 111.49 117.061 111.826 116.333 111.826ZM129.37 113.184L126.458 109.334L129.258 105.652H126.934L125.296 107.85L123.7 105.652H121.25L124.05 109.39L121.152 113.184H123.532L125.24 110.874L126.892 113.184H129.37Z" fill="#BA9174"/>
</g>
<defs>
<clipPath id="clip0_906_84">
<rect width="192.018" height="130" fill="white"/>
</clipPath>
</defs>
</svg>
