<svg width="85" height="90" viewBox="0 0 85 90" fill="none" xmlns="http://www.w3.org/2000/svg">
<path d="M30.2156 51.8176L29.1227 50.1463L26.7152 53.3961L26.7032 53.4119C24.6732 56.2327 23.1204 58.5243 22.1466 60.5354C20.6533 63.6181 20.7669 66.8261 22.4489 69.1176C23.3265 70.3154 24.2087 71.1882 25.887 71.8437C26.2142 71.9651 26.5514 72.0565 26.8947 72.1167C27.0614 72.1483 27.2285 72.1758 27.3958 72.1993C27.4673 72.2096 27.5525 72.2216 27.6239 72.2291C28.179 72.2987 28.7387 72.3229 29.2976 72.3015C29.8678 72.2542 30.4353 72.178 30.9979 72.0731C31.8936 71.8982 32.7471 71.5481 33.5108 71.0424C34.2688 70.5184 34.9328 69.8668 35.474 69.1158C37.1834 66.7852 37.2924 63.5716 35.7662 60.5187C34.9078 58.8037 33.344 56.4852 31.8334 54.2429C31.2544 53.3877 30.7121 52.5827 30.2156 51.8176ZM33.2313 67.4259C32.1934 68.84 31.0455 69.3971 28.9953 69.4788L28.6967 69.4909L28.169 69.4389C27.7341 69.4065 27.304 69.3259 26.8865 69.1984C25.8137 68.7796 25.3218 68.2931 24.6878 67.4259C23.6426 66.0015 23.6288 63.892 24.6521 61.7796C25.5361 59.9551 27.0111 57.787 28.9523 55.086L28.9871 55.0396L29.5257 55.8371C30.986 58.0052 32.4976 60.2466 33.2735 61.7963C34.3087 63.8697 34.2922 65.9737 33.2277 67.4259H33.2313Z" fill="#463B32"/>
<path d="M57.2899 29.603C57.2947 29.6344 57.307 29.6642 57.3257 29.6897C57.3443 29.7153 57.3688 29.7359 57.3971 29.7497C58.1671 30.1518 58.886 30.6472 59.538 31.2251C59.5737 31.2562 59.6192 31.2734 59.6662 31.2734C59.6921 31.2735 59.7178 31.2684 59.7417 31.2583C59.7656 31.2483 59.7873 31.2335 59.8055 31.2149L67.4851 23.3829C67.6747 23.1841 67.8023 22.9331 67.852 22.6612C67.9018 22.3893 67.8715 22.1086 67.7649 21.8541C67.6584 21.5995 67.4802 21.3824 67.2527 21.2298C67.0253 21.0771 66.7585 20.9957 66.4857 20.9957C66.2997 20.9949 66.1154 21.0323 65.9441 21.1057C65.7728 21.1791 65.6179 21.287 65.4889 21.4229C65.4889 21.4229 61.5653 25.2873 57.3476 29.4294C57.3249 29.4515 57.3078 29.4788 57.2977 29.509C57.2877 29.5393 57.285 29.5715 57.2899 29.603Z" fill="#463B32"/>
<path d="M40.3842 46.0766C40.2652 45.7986 40.1285 45.5288 39.9747 45.2688L39.9436 45.2215C39.9279 45.1958 39.9066 45.1741 39.8813 45.158C39.8561 45.1419 39.8276 45.1319 39.7979 45.1286C39.7684 45.1258 39.7386 45.1296 39.7107 45.1399C39.6828 45.1502 39.6575 45.1666 39.6367 45.1881C38.5795 46.2893 36.2242 48.8482 32.6396 52.7888C32.6135 52.8177 32.5963 52.8536 32.5901 52.8922C32.5839 52.9308 32.589 52.9704 32.6047 53.0061C32.6423 53.0888 32.8374 53.3775 33.3083 54.0553C33.6005 54.4769 33.9019 54.9123 34.0485 55.1417C34.0644 55.1677 34.0859 55.1895 34.1115 55.2057C34.1371 55.2218 34.166 55.2317 34.196 55.2345H34.2134C34.2405 55.2347 34.2673 55.229 34.292 55.218C34.3168 55.2069 34.339 55.1908 34.3572 55.1705C37.1284 52.1333 39.3188 49.7387 40.8615 48.0544C40.8843 48.0301 40.9006 48.0002 40.9088 47.9677C40.917 47.9352 40.9168 47.9011 40.9082 47.8687L40.8927 47.8065C40.8698 47.7136 40.8459 47.6282 40.8194 47.5335C40.7323 47.215 40.6417 46.8835 40.5354 46.566C40.5253 46.5344 40.4905 46.4434 40.4502 46.3376L40.398 46.1974C40.4056 46.1566 40.4008 46.1145 40.3842 46.0766Z" fill="#463B32"/>
<path d="M50.2066 68.9561C49.8658 71.5717 49.4096 73.0647 49.4023 73.0879C49.2919 73.4723 49.3342 73.8852 49.5201 74.2384C49.706 74.5916 50.0208 74.8572 50.3972 74.9784C50.7737 75.0996 51.1819 75.0668 51.5349 74.8871C51.8878 74.7074 52.1574 74.3949 52.2862 74.0164C52.3356 73.8586 53.5027 70.0879 53.5962 63.8734C53.6814 58.2318 52.8541 49.3951 48.466 39.2391L51.0165 39.8891C51.2699 39.9538 51.5355 39.951 51.7876 39.8809C52.0396 39.8108 52.2695 39.6757 52.4547 39.4889L53.2893 38.6467L53.8811 39.7489C53.9794 39.9299 54.1128 40.089 54.2732 40.2166C54.4336 40.3442 54.6177 40.4378 54.8146 40.4917L63.8079 42.9569C63.9366 42.9926 64.0694 43.0107 64.2028 43.0107C64.4207 43.0107 64.636 42.9629 64.8341 42.8708C65.0321 42.7786 65.2082 42.6441 65.3502 42.4766C65.4923 42.3091 65.597 42.1125 65.6571 41.9002C65.7173 41.6879 65.7315 41.4649 65.6987 41.2465C65.4239 39.3895 64.5701 37.422 63.3031 35.7061C63.1842 35.5448 63.035 35.4088 62.8641 35.306C62.6932 35.2031 62.5041 35.1354 62.3074 35.1067C62.1107 35.0779 61.9103 35.0888 61.7177 35.1386C61.5252 35.1884 61.3442 35.2762 61.1851 35.3969C61.1439 35.4285 61.1054 35.461 61.0688 35.4953C61.0999 35.4582 61.1329 35.4229 61.1604 35.3821C61.276 35.2181 61.3586 35.0327 61.4035 34.8365C61.4483 34.6402 61.4546 34.4368 61.422 34.2381C61.3893 34.0393 61.3183 33.8491 61.2131 33.6781C61.1078 33.5072 60.9704 33.3589 60.8086 33.2419C60.6324 33.1171 60.4334 33.0293 60.2233 32.9836C60.0131 32.938 59.7961 32.9353 59.5849 32.9759C59.3738 33.0165 59.1728 33.0994 58.9937 33.2199C58.8146 33.3404 58.6611 33.4959 58.5422 33.6773C58.3237 34.0185 58.2477 34.4336 58.3308 34.8315C58.4139 35.2295 58.6494 35.5777 58.9856 35.7999C59.2447 35.9763 59.5493 36.0715 59.8614 36.0738C60.1757 36.0738 60.4825 35.9766 60.7408 35.7953C60.7747 35.772 60.8068 35.746 60.8388 35.72C60.8709 35.694 60.913 35.6551 60.9488 35.6216C60.722 35.8861 60.5914 36.2214 60.5787 36.5716C60.5661 36.9218 60.6721 37.2658 60.8791 37.5464C61.2778 38.0856 61.6265 38.6609 61.9208 39.2651L56.2281 37.7033L54.9786 35.3821C54.8661 35.173 54.7071 34.9933 54.5143 34.8572C54.3214 34.7212 54.0999 34.6325 53.8674 34.5983C53.6348 34.5641 53.3976 34.5852 53.1745 34.66C52.9514 34.7348 52.7486 34.8612 52.5821 35.0292L50.9249 36.7006L43.6794 34.8435C46.8757 32.8602 52.2175 32.6207 56.3857 34.2762C56.7557 34.4069 57.1612 34.3871 57.517 34.2209C57.8729 34.0547 58.1512 33.7552 58.2936 33.3852C58.436 33.0153 58.4313 32.6038 58.2805 32.2373C58.1297 31.8708 57.8446 31.5779 57.485 31.4201C55.6908 30.72 53.8031 30.2969 51.8849 30.1648L51.939 29.8862L53.5934 30.1323C53.8445 30.1696 54.1008 30.1424 54.3389 30.0532C54.5769 29.9639 54.789 29.8155 54.9557 29.6216L59.7927 23.9837C59.9628 23.7855 60.0799 23.5464 60.1327 23.2892C60.1854 23.0319 60.1721 22.7653 60.0939 22.5148C60.0157 22.2643 59.8754 22.0384 59.6862 21.8587C59.4971 21.6791 59.2656 21.5517 59.014 21.4888C54.3364 20.3161 50.1187 20.9187 46.8152 23.2316C44.2795 25.0078 42.6351 27.5157 41.6943 29.8788C39.4837 26.8518 35.9998 24.7228 31.9351 24.0115C26.6501 23.083 21.4476 24.6829 18.0232 28.2827C17.8362 28.4794 17.7044 28.7233 17.6415 28.989C17.5786 29.2546 17.5868 29.5325 17.6654 29.7939C17.7439 30.0553 17.8899 30.2906 18.0883 30.4757C18.2866 30.6607 18.5302 30.7886 18.7937 30.8463L28.2716 32.9206C28.498 32.9729 28.7331 32.9717 28.959 32.9173C29.1848 32.8629 29.3954 32.7567 29.5743 32.6068L30.211 32.058L30.2485 32.3821C30.2856 32.7023 30.4213 33.0026 30.6365 33.2401C30.8516 33.4776 31.1352 33.6404 31.4468 33.7052L33.5318 34.1397C30.7835 35.1462 28.1635 36.7841 26.1857 38.8751C23.0709 42.1583 21.8635 46.2438 22.7778 50.3803C22.8331 50.6293 22.9488 50.8603 23.1144 51.0525C23.2799 51.2448 23.4902 51.3921 23.7261 51.4813C23.9621 51.5704 24.2162 51.5985 24.4655 51.563C24.7148 51.5276 24.9515 51.4297 25.1541 51.2782L34.0229 44.6319C34.4626 44.3032 34.6889 44.1017 34.6275 43.2187C35.1213 43.6597 35.6627 43.279 36.0603 42.9401L42.308 37.6365C42.3918 37.6754 42.4789 37.7065 42.5682 37.7293L45.8845 38.5789C45.6785 38.7986 45.5413 39.0752 45.4903 39.3738C45.4393 39.6724 45.4767 39.9797 45.5977 40.2567C46.3178 41.9067 46.9371 43.5177 47.4721 45.085L44.3894 45.5985C44.2208 44.5362 44.0175 43.4459 43.7793 42.3273C43.6862 41.9382 43.4468 41.6014 43.112 41.3889C42.7773 41.1763 42.3738 41.1048 41.9878 41.1896C41.6017 41.2745 41.2637 41.509 41.0459 41.843C40.8281 42.177 40.7478 42.5841 40.8221 42.9773C42.8018 52.215 42.0131 59.3813 41.0054 63.7676C39.9152 68.5132 38.3358 71.1186 38.3157 71.152C38.1019 71.4967 38.032 71.9135 38.1213 72.3105C38.2106 72.7075 38.4519 73.0523 38.7921 73.269C39.1322 73.4857 39.5434 73.5566 39.9351 73.466C40.3268 73.3755 40.667 73.1309 40.8808 72.7862C40.9806 72.6246 41.8591 71.178 42.7872 68.5596L50.2066 68.9561ZM48.5375 25.7692C50.5529 24.3588 52.9714 23.7803 55.7499 24.0366L53.2169 26.9893L50.9615 26.6531C50.5779 26.5957 50.1872 26.6896 49.87 26.9156C49.5528 27.1416 49.3332 27.4824 49.2566 27.8676L48.7986 30.1889C47.3243 30.3042 45.8707 30.6113 44.4737 31.1026C45.2396 29.1481 46.5963 27.1267 48.5375 25.7692ZM32.8842 28.8565C32.8522 28.5806 32.7469 28.3186 32.5796 28.0986C32.4122 27.8786 32.1891 27.7087 31.934 27.6071C31.6789 27.5055 31.4013 27.476 31.1309 27.5217C30.8606 27.5674 30.6075 27.6867 30.3988 27.8667L28.1782 29.7785L22.5561 28.5473C25.0781 27.0431 28.2194 26.4842 31.4184 27.045C34.9628 27.6671 37.9419 29.5845 39.6477 32.2827L33.1214 30.9234L32.8842 28.8565ZM34.7557 40.0497L32.9235 39.4545C32.6647 39.3705 32.3883 39.3586 32.1234 39.4202C31.8585 39.4818 31.6149 39.6145 31.418 39.8045C31.2212 39.9945 31.0785 40.2347 31.0049 40.4999C30.9313 40.765 30.9295 41.0454 30.9997 41.3115L31.3909 42.7869L25.5132 47.1871C25.6616 44.4657 27.055 42.3756 28.365 40.9949C31.1225 38.084 35.6599 36.1323 39.4324 36.0785L34.7557 40.0497ZM43.7097 65.5401C44.012 64.3739 44.2914 63.074 44.5186 61.6459L50.541 61.268C50.5721 62.1324 50.5813 62.9393 50.5721 63.6905C50.563 64.4686 50.5346 65.2049 50.4934 65.8994L43.7097 65.5401ZM49.8347 54.398C50.0582 55.7369 50.2204 57.008 50.3358 58.2048L44.9015 58.5456C45.0041 57.3859 45.0701 56.1612 45.0847 54.8715L49.8347 54.398ZM48.4001 48.0414C48.725 49.1834 49.0068 50.2943 49.2456 51.3738L45.0316 51.7953C44.984 50.7789 44.9036 49.7266 44.7907 48.6384L48.4001 48.0414Z" fill="#BD967A"/>
<path d="M24.719 84.2458C25.0538 84.2462 25.3789 84.1311 25.6406 83.9193C25.9022 83.7075 26.085 83.4117 26.1586 83.0806C26.2323 82.7495 26.1926 82.4029 26.046 82.0977C25.8994 81.7926 25.6546 81.5471 25.352 81.4018C21.8853 79.733 18.6807 77.5544 15.842 74.9366C15.8704 74.9366 15.8988 74.9412 15.9272 74.9412H15.995C16.2848 74.9266 16.5629 74.8204 16.7902 74.6376C16.8488 74.5893 21.4742 69.5085 21.6711 69.2922C21.6982 69.262 21.7156 69.2241 21.721 69.1837C21.7264 69.1432 21.7196 69.102 21.7014 69.0656C21.4861 68.6441 21.2561 68.1975 21.0051 67.7555C20.8402 67.4639 20.6524 67.1343 20.4399 66.827C20.4229 66.8026 20.4008 66.7824 20.3751 66.7677C20.3494 66.7531 20.3209 66.7445 20.2915 66.7425C20.2621 66.7409 20.2327 66.7458 20.2053 66.7569C20.1779 66.7679 20.1533 66.7849 20.133 66.8066C17.1291 70.139 15.1952 72.2848 15.0477 72.4445C14.8694 72.5935 14.7306 72.7852 14.6437 73.0023C14.5569 73.2193 14.5248 73.4549 14.5503 73.6877C7.271 66.3451 2.94794 56.2401 2.94794 45.565C2.93327 37.4018 5.42442 29.4361 10.0761 22.772C10.1877 22.6116 10.267 22.4306 10.3096 22.2392C10.3521 22.0478 10.357 21.8497 10.3241 21.6564C10.2911 21.463 10.2209 21.2781 10.1174 21.1123C10.014 20.9465 9.8793 20.8029 9.7211 20.6898C9.5629 20.5767 9.38427 20.4963 9.19542 20.4532C9.00656 20.41 8.81117 20.405 8.62041 20.4385C8.42964 20.4719 8.24724 20.543 8.08362 20.6479C7.91999 20.7528 7.77834 20.8892 7.66675 21.0496C2.84589 27.9826 0.179122 36.2176 0.00870961 44.6977C-0.161703 53.1778 2.17201 61.516 6.71035 68.6422C10.9715 75.3332 16.9895 80.687 24.0878 84.1019C24.2851 84.1966 24.5007 84.2458 24.719 84.2458Z" fill="#463B32"/>
<path d="M10.4517 17.4693C10.2479 17.6956 10.1094 17.9744 10.0514 18.2752C9.97956 18.6014 10.0177 18.9426 10.1597 19.2443C10.3017 19.546 10.5393 19.7908 10.8347 19.9395C11.13 20.0882 11.466 20.1323 11.789 20.0647C12.112 19.9972 12.4033 19.8218 12.6164 19.5668C12.7988 19.3568 12.9266 19.104 12.9884 18.8314C13.0719 18.506 13.0447 18.1616 12.9111 17.8538C12.7776 17.546 12.5455 17.2929 12.2525 17.1354C11.9594 16.9779 11.6225 16.9251 11.2962 16.9857C10.9699 17.0463 10.6734 17.2167 10.4544 17.4693H10.4517Z" fill="#463B32"/>
<path d="M76.4061 20.9957C76.2992 20.8241 76.1589 20.6764 75.9938 20.5615C75.8287 20.4466 75.6423 20.3671 75.4458 20.3277C75.2494 20.2882 75.0471 20.2898 74.8513 20.3323C74.6554 20.3747 74.4702 20.4572 74.3069 20.5746C74.1435 20.692 74.0055 20.842 73.9013 21.0152C73.797 21.1885 73.7286 21.3815 73.7004 21.5824C73.6721 21.7834 73.6846 21.988 73.7369 22.1839C73.7893 22.3798 73.8805 22.5628 74.005 22.7218C77.1952 27.2974 79.3913 32.507 80.4482 38.0064C81.505 43.5059 81.3985 49.1701 80.1358 54.6247C78.873 60.0794 76.4827 65.2004 73.1228 69.6495C69.7629 74.0986 65.5099 77.7744 60.6446 80.4343C60.3225 80.6339 60.0881 80.9511 59.9899 81.3207C59.8918 81.6902 59.9373 82.0838 60.117 82.4204C60.2968 82.7569 60.5971 83.0107 60.9561 83.1294C61.3151 83.2481 61.7053 83.2226 62.0463 83.0583C67.2777 80.197 71.8506 76.2432 75.463 71.4582C79.0755 66.6732 81.6451 61.1659 83.0023 55.2999C84.3595 49.434 84.4733 43.3429 83.3363 37.429C82.1992 31.5152 79.8371 25.9132 76.4061 20.993V20.9957Z" fill="#463B32"/>
<path d="M70.7785 15.5742C70.4753 15.7107 70.2255 15.9456 70.0685 16.2418C69.8826 16.5249 69.7976 16.8638 69.8276 17.2025C69.8576 17.5412 70.0008 17.8593 70.2334 18.1044C70.3757 18.2607 70.5484 18.3856 70.7406 18.4713C70.9327 18.5569 71.1402 18.6014 71.3501 18.602C71.6194 18.6033 71.884 18.5303 72.1154 18.3908C72.3468 18.2512 72.5364 18.0505 72.6638 17.81C72.8473 17.5303 72.9326 17.196 72.9058 16.8612C72.8791 16.5263 72.7419 16.2103 72.5163 15.9641C72.3044 15.7215 72.0221 15.5531 71.7099 15.4831C71.3977 15.413 71.0717 15.4449 70.7785 15.5742Z" fill="#463B32"/>
<path d="M16.1289 8.96988C15.2678 9.48643 14.737 10.1813 14.6033 11.0308L14.1644 10.2793L12.3824 11.3483L17.5638 20.2212L19.4295 19.102L17.6528 16.0595C18.4427 16.3059 19.2491 16.1659 20.0504 15.6852C21.8562 14.6019 22.491 12.4533 21.2948 10.4048C20.0985 8.35628 17.9348 7.88656 16.1289 8.96988ZM18.8214 14.3273C17.8886 14.8869 16.7866 14.6314 16.1283 13.5041C15.47 12.3768 15.7792 11.2747 16.712 10.7151C17.6449 10.1555 18.7469 10.4111 19.4052 11.5384C20.0635 12.6656 19.7542 13.7677 18.8214 14.3273Z" fill="#463B32"/>
<path d="M24.6217 4.98298C23.4983 5.38272 22.4672 6.09164 21.8891 6.92198L23.1205 8.10488C23.4878 7.51315 24.1714 6.98734 24.9161 6.72239C26.0134 6.33194 26.7148 6.66239 27.022 7.54949L25.4022 8.12587C23.2598 8.88818 22.6872 10.0735 23.1229 11.3313C23.5494 12.5627 24.8502 13.1409 26.4962 12.5552C27.5282 12.188 28.1405 11.5834 28.2946 10.7999L28.6019 11.687L30.5091 11.0083L29.1012 6.94354C28.3537 4.78536 26.7641 4.22067 24.6217 4.98298ZM26.5241 10.9837C25.8056 11.2393 25.2553 11.0485 25.0764 10.5321C24.9113 10.0554 25.088 9.59104 26.0416 9.25173L27.4394 8.75437L27.6916 9.48259C27.6812 10.215 27.2034 10.742 26.5241 10.9837Z" fill="#463B32"/>
<path d="M32.2587 10.6799L34.381 10.2313L32.2758 0L30.1535 0.448596L32.2587 10.6799Z" fill="#463B32"/>
<path d="M45.4097 1.73562C44.2842 1.75414 43.319 2.2349 42.7339 3.01933C42.1926 2.19708 41.2967 1.80329 40.2546 1.82044C39.2958 1.83621 38.4675 2.18794 37.922 2.84493L37.9081 1.97174L35.8376 2.00581L35.959 9.5828L38.1267 9.54714L38.0658 5.74456C38.0441 4.39253 38.7148 3.74756 39.6736 3.73179C40.5768 3.71693 41.1 4.27181 41.1196 5.49709L41.1837 9.49684L43.3513 9.46118L43.2904 5.6586C43.2688 4.30657 43.9395 3.6616 44.9122 3.6456C45.7876 3.63119 46.3385 4.18562 46.3581 5.4109L46.4222 9.41066L48.5899 9.37499L48.5204 5.03723C48.4834 2.72751 47.1883 1.70636 45.4097 1.73562Z" fill="#463B32"/>
<path d="M56.61 11.776C58.8736 12.5091 61.0015 11.4977 61.6868 9.3241C62.372 7.15051 61.217 5.07593 58.9533 4.34283C56.6896 3.60972 54.5485 4.61681 53.8632 6.7904C53.178 8.96399 54.3463 11.0429 56.61 11.776ZM57.1514 10.0586C56.1188 9.72416 55.5614 8.71557 55.9548 7.46777C56.3482 6.21997 57.3793 5.72583 58.4119 6.06023C59.4444 6.39463 59.9886 7.39893 59.5952 8.64673C59.2018 9.89453 58.1839 10.393 57.1514 10.0586Z" fill="#463B32"/>
<path d="M66.3036 6.30408C67.0292 6.6599 67.7471 6.41735 68.0618 5.75803C68.3523 5.14942 68.0824 4.4537 67.3568 4.09788C66.6312 3.74206 65.9133 3.98461 65.6168 4.6059C65.3202 5.22718 65.578 5.94826 66.3036 6.30408ZM61.6174 13.598L63.569 14.555L66.8254 7.73355L64.8739 6.77651L61.6174 13.598Z" fill="#463B32"/>
<path d="M65.2156 15.4548L67.076 16.5829L72.37 7.61392L70.5095 6.48583L65.2156 15.4548Z" fill="#463B32"/>
<path d="M32.4792 80.8269C32.6904 80.1117 33.1228 79.8753 33.7353 80.0611C34.0548 80.158 34.3198 80.3413 34.4983 80.5719L35.4944 79.2126C35.188 78.8256 34.6114 78.5184 34.0256 78.3407C32.2416 77.7996 30.9416 78.5668 30.4595 80.1996L30.3639 80.5235L29.2588 80.1883L28.7807 81.8076L29.8858 82.1428L28.2682 87.6214L30.3451 88.2514L31.9627 82.7727L33.7468 83.3139L34.2249 81.6945L32.3876 81.1373L32.4792 80.8269Z" fill="#463B32"/>
<path d="M37.0462 82.9678L37.1872 81.978L35.1378 81.6779L34.0689 89.1781L36.2146 89.4922L36.7192 85.9513C36.9239 84.5154 37.8013 83.9749 38.9842 84.1481C39.1492 84.1723 39.2848 84.2064 39.4616 84.2465L39.7477 82.239C38.6061 82.0719 37.6722 82.3194 37.0462 82.9678Z" fill="#463B32"/>
<path d="M48.2705 85.9751C48.1743 83.5383 46.4199 82.114 44.2242 82.203C41.9451 82.2954 40.3002 83.9986 40.3897 86.2664C40.4786 88.5201 42.2252 90.0999 44.8101 89.9951C46.1581 89.9404 47.1837 89.4756 47.8469 88.6446L46.6434 87.4236C46.1487 87.9375 45.5883 88.2 44.7962 88.2321C43.6566 88.2783 42.8417 87.7329 42.596 86.7977L48.2522 86.5684C48.2588 86.3847 48.2772 86.1441 48.2705 85.9751ZM44.3037 83.8645C45.2765 83.8251 46.0097 84.4161 46.2004 85.3677L42.5176 85.517C42.6321 84.5389 43.317 83.9045 44.3037 83.8645Z" fill="#463B32"/>
<path d="M57.3071 83.5287C56.6579 81.1894 54.6325 80.22 52.5246 80.8209C50.3366 81.4446 49.1309 83.481 49.735 85.658C50.3354 87.8216 52.3887 88.9435 54.8702 88.2361C56.1643 87.8672 57.0523 87.1763 57.5055 86.2154L56.0605 85.3141C55.6982 85.9281 55.215 86.3139 54.4545 86.5306C53.3605 86.8425 52.4462 86.5049 51.9947 85.6559L57.4246 84.1081C57.3892 83.9285 57.3521 83.691 57.3071 83.5287ZM52.9807 82.4127C53.9146 82.1465 54.7601 82.5475 55.162 83.4252L51.6266 84.433C51.5144 83.4582 52.0335 82.6828 52.9807 82.4127Z" fill="#463B32"/>
</svg>
