<svg width="42" height="42" viewBox="0 0 42 42" fill="none" xmlns="http://www.w3.org/2000/svg">
<g clip-path="url(#clip0_819_610)">
<path d="M39.404 10.7986C39.2115 6.38937 35.2068 2.84766 30.3361 2.84766C27.0254 2.84766 24.0471 4.44964 22.4372 7.06225C22.1295 6.90969 21.807 6.78658 21.4718 6.69346C20.286 6.36675 19.066 6.39358 18.0159 6.75449C16.4428 5.69702 14.5652 5.10516 12.5734 5.10516C7.30393 5.10516 2.97622 9.32186 2.80418 14.5581C0.480788 16.2448 -0.550897 19.2836 0.290339 22.0462C0.837485 23.8449 2.06961 25.3011 3.74946 26.1408C3.81785 26.1776 5.44561 27.0252 7.3159 26.8458C9.45661 26.8852 16.9415 27.0152 22.5834 27.0152C25.9951 27.0152 28.7335 26.9678 29.207 26.8237C30.9463 26.2944 32.3752 25.1202 33.2301 23.5156C34.0855 21.912 34.2649 20.0712 33.7351 18.3324C33.0649 16.1307 31.375 14.4587 29.1796 13.8027C29.1481 13.6522 29.1128 13.5128 29.0713 13.3776C28.1821 10.4556 25.0808 8.79786 22.1599 9.69224C21.7953 9.80272 21.4444 9.95055 21.1103 10.1342C20.56 9.14141 19.8571 8.27229 19.0401 7.54679C19.7245 7.43684 20.4658 7.4763 21.2002 7.67885C21.6127 7.79301 22.0015 7.96399 22.3577 8.18759C22.4781 8.26282 22.6244 8.28702 22.7607 8.24809C22.898 8.21179 23.0132 8.12024 23.0805 7.99451C24.4168 5.48921 27.2651 3.8704 30.3371 3.8704C34.7516 3.8704 38.3643 7.10803 38.3896 11.0869C38.3906 11.2648 38.4843 11.4294 38.6368 11.521C40.5797 12.6947 41.4315 14.8359 40.756 16.8493C40.3335 18.1078 39.3765 19.1294 38.0529 19.7297C38.0402 19.736 36.7366 20.3532 35.2324 20.2232C34.9557 20.1937 34.7037 20.4079 34.68 20.6899C34.6558 20.9708 34.8647 21.2186 35.1467 21.2423C35.3171 21.257 35.4855 21.2633 35.6496 21.2633C37.2032 21.2633 38.4369 20.6799 38.4848 20.6567C40.061 19.9412 41.2116 18.7054 41.7261 17.175C42.5138 14.8207 41.5609 12.2396 39.404 10.7986ZM20.449 11.0817C20.5142 11.2164 20.6352 11.3158 20.7794 11.3537C20.924 11.3915 21.0782 11.3642 21.2008 11.279C21.5875 11.0112 22.0094 10.807 22.4571 10.6708C24.8393 9.94634 27.3677 11.2937 28.0927 13.6759C28.1474 13.8574 28.1906 14.0531 28.2279 14.2909C28.26 14.494 28.4105 14.6581 28.6099 14.7076C30.609 15.2037 32.1584 16.6704 32.7561 18.6307C33.2054 20.109 33.0538 21.6731 32.3262 23.0363C31.5997 24.3989 30.386 25.3969 28.9092 25.8462C27.9754 26.1024 15.1801 25.9703 7.27644 25.8262C5.65763 25.983 4.23978 25.2448 4.21611 25.2333C2.77933 24.5146 1.73186 23.2778 1.26678 21.75C0.529715 19.3283 1.48617 16.6573 3.59215 15.2552C3.73367 15.1605 3.81943 15.0022 3.81995 14.8328C3.84731 10.0332 7.77361 6.12948 12.5722 6.12948C15.9529 6.12895 18.9717 8.0266 20.449 11.0817Z" fill="#BD967A"/>
<path d="M35.8814 10.2775C36.4233 8.54036 35.3895 6.64271 33.6534 6.12608C33.2072 5.9935 33.0168 6.68953 33.4619 6.82211C34.8318 7.22984 35.6089 8.72923 35.1859 10.086C35.0477 10.5295 35.7437 10.7195 35.8814 10.2775Z" fill="#BD967A"/>
<path d="M25.3724 24.1588H27.8525C28.3165 24.1588 28.3175 23.4375 27.8525 23.4375H25.3724C24.9083 23.437 24.9072 24.1588 25.3724 24.1588Z" fill="#BD967A"/>
<path d="M17.9328 24.1588H23.8852C24.3492 24.1588 24.3503 23.4375 23.8852 23.4375H17.9329C17.4682 23.437 17.4672 24.1588 17.9328 24.1588Z" fill="#BD967A"/>
<path d="M12.3109 33.1484C12.1136 33.1484 11.9531 33.3084 11.9531 33.5062V35.0082C11.9531 35.2065 12.1136 35.366 12.3109 35.366C12.5082 35.366 12.6686 35.206 12.6686 35.0082V33.5062C12.6685 33.3078 12.5082 33.1484 12.3109 33.1484Z" fill="#BD967A"/>
<path d="M15.248 31.689H13.3056L14.6798 30.3149C14.8192 30.1754 14.8192 29.9487 14.6792 29.8093C14.5398 29.6699 14.3131 29.6699 14.1726 29.8093L12.8 31.1824V29.2406C12.8 29.0422 12.6395 28.8828 12.4423 28.8828C12.2444 28.8828 12.0845 29.0427 12.0845 29.2406V31.6885H9.63656C9.43874 31.6885 9.27881 31.8485 9.27881 32.0463C9.27881 32.2441 9.43874 32.404 9.63656 32.404H11.5789L10.2058 33.7771C10.0664 33.9166 10.0664 34.1433 10.2058 34.2833C10.2758 34.3527 10.3673 34.3879 10.4589 34.3879C10.5504 34.3879 10.6419 34.3527 10.7114 34.2833L12.0866 32.908C12.1682 32.827 12.1966 32.7165 12.1829 32.6108C12.1918 32.6208 12.1966 32.6334 12.2071 32.6423L13.9259 34.1459C13.9937 34.2059 14.0774 34.2348 14.1616 34.2348C14.261 34.2348 14.3604 34.1933 14.4309 34.1123C14.5609 33.9639 14.5456 33.7377 14.3973 33.6077L13.0215 32.4045H15.249C15.4463 32.4045 15.6068 32.2446 15.6068 32.0468C15.6058 31.8484 15.4452 31.689 15.248 31.689Z" fill="#BD967A"/>
<path d="M25.3725 33.8555H23.8704C23.6726 33.8555 23.5127 34.0154 23.5127 34.2132C23.5127 34.411 23.6726 34.571 23.8704 34.571H25.3725C25.5697 34.571 25.7302 34.411 25.7302 34.2132C25.7301 34.0154 25.5697 33.8555 25.3725 33.8555Z" fill="#BD967A"/>
<path d="M22.51 34.5123H22.5105C22.5668 34.5123 22.6215 34.4944 22.673 34.4676C22.8177 34.4218 22.9245 34.2913 22.9245 34.1309V31.4046C22.9245 31.2063 22.7646 31.0469 22.5668 31.0469C22.3695 31.0469 22.209 31.2068 22.209 31.4046V33.347L20.8359 31.9739C20.6965 31.8344 20.4697 31.8344 20.3303 31.9739C20.1904 32.1133 20.1904 32.34 20.3303 32.48L21.7034 33.8531H19.7611C19.5638 33.8531 19.4033 34.013 19.4033 34.2109C19.4033 34.4092 19.5638 34.5686 19.7611 34.5686H22.329C22.3963 34.5686 22.4563 34.5449 22.51 34.5123Z" fill="#BD967A"/>
<path d="M22.5667 35.0156C22.3694 35.0156 22.209 35.1756 22.209 35.3734V37.0201C22.209 37.2179 22.3694 37.3778 22.5667 37.3778C22.764 37.3778 22.9245 37.2179 22.9245 37.0201V35.3734C22.9245 35.1756 22.764 35.0156 22.5667 35.0156Z" fill="#BD967A"/>
<path d="M23.4284 34.5694C23.289 34.43 23.0622 34.43 22.9228 34.5694C22.7829 34.7088 22.7829 34.9356 22.9228 35.075L24.2975 36.4502C24.3675 36.5202 24.459 36.5549 24.5511 36.5549C24.6432 36.5549 24.7342 36.5196 24.8042 36.4502C24.9436 36.3108 24.9436 36.084 24.8047 35.9446L23.4284 34.5694Z" fill="#BD967A"/>
<path d="M32.6182 29.5009C32.7097 29.5009 32.8013 29.4657 32.8718 29.3963L33.9334 28.3335C34.0728 28.1931 34.0723 27.9674 33.9324 27.8269C33.793 27.6875 33.5667 27.688 33.4257 27.8279L32.3641 28.8901C32.2246 29.0306 32.2252 29.2563 32.3646 29.3968C32.4352 29.4667 32.5266 29.5009 32.6182 29.5009Z" fill="#BD967A"/>
<path d="M32.7691 30.6319C32.6297 30.4925 32.403 30.4925 32.2636 30.6319C32.1231 30.7713 32.1231 30.9981 32.2636 31.1375L33.4273 32.3023C33.4973 32.3717 33.5888 32.407 33.6803 32.407C33.7719 32.407 33.8634 32.3717 33.9329 32.3023C34.0733 32.1629 34.0733 31.9361 33.9329 31.7962L32.7691 30.6319Z" fill="#BD967A"/>
<path d="M34.5025 29.707H32.557C32.3592 29.707 32.1992 29.867 32.1992 30.0648C32.1992 30.2626 32.3592 30.4225 32.557 30.4225H34.5025C34.7003 30.4225 34.8602 30.2626 34.8602 30.0648C34.8601 29.867 34.7002 29.707 34.5025 29.707Z" fill="#BD967A"/>
<path d="M28.5322 30.0653C28.5322 30.2631 28.6922 30.423 28.89 30.423H30.8323L29.4587 31.7966C29.3193 31.9361 29.3193 32.1628 29.4587 32.3028C29.5287 32.3727 29.6202 32.4075 29.7117 32.4075C29.8033 32.4075 29.8948 32.3722 29.9648 32.3028L31.7809 30.4861C31.8288 30.4383 31.854 30.3793 31.8693 30.3183C31.9087 30.2788 31.935 30.2278 31.9524 30.1726C32.0229 30.0379 32.0061 29.869 31.8929 29.7559L29.9648 27.8272C29.8254 27.6878 29.5986 27.6878 29.4587 27.8272C29.3193 27.9666 29.3193 28.1934 29.4587 28.3333L30.8318 29.7065H28.8905C28.6928 29.707 28.5322 29.8674 28.5322 30.0653Z" fill="#BD967A"/>
<path d="M31.4522 31.0814C31.4963 31.7438 31.5405 32.4061 31.5853 33.0685C31.6163 33.5294 32.3381 33.5325 32.3065 33.0685C32.2624 32.4061 32.2176 31.7438 32.1734 31.0814C32.1429 30.6205 31.421 30.6169 31.4522 31.0814Z" fill="#BD967A"/>
<path d="M17.4318 35.0117C16.73 35.0117 16.1597 35.582 16.1597 36.2838C16.1597 36.9856 16.7305 37.5559 17.4318 37.5559C18.1336 37.5559 18.7039 36.9851 18.7039 36.2838C18.7046 35.582 18.1336 35.0117 17.4318 35.0117ZM17.4318 36.8352C17.1282 36.8352 16.881 36.5879 16.881 36.2844C16.881 35.9808 17.1282 35.7335 17.4318 35.7335C17.7353 35.7335 17.9826 35.9808 17.9826 36.2844C17.9833 36.5879 17.736 36.8352 17.4318 36.8352Z" fill="#BD967A"/>
<path d="M35.5047 23.1484C34.8166 23.1484 34.2568 23.7077 34.2568 24.3953C34.2568 25.0834 34.8161 25.6427 35.5047 25.6427C36.1923 25.6427 36.7516 25.0834 36.7516 24.3953C36.7517 23.7077 36.1925 23.1484 35.5047 23.1484ZM35.5047 24.9214C35.2143 24.9214 34.9786 24.6852 34.9786 24.3953C34.9786 24.1054 35.2143 23.8697 35.5047 23.8697C35.7941 23.8697 36.0303 24.1054 36.0303 24.3953C36.0304 24.6857 35.7941 24.9214 35.5047 24.9214Z" fill="#BD967A"/>
<path d="M29.7122 36.6562C29.0241 36.6562 28.4648 37.2155 28.4648 37.9031C28.4648 38.5907 29.0241 39.15 29.7122 39.15C30.3998 39.15 30.9591 38.5907 30.9591 37.9031C30.9592 37.2155 30.4 36.6562 29.7122 36.6562ZM29.7122 38.4287C29.4223 38.4287 29.1861 38.1925 29.1861 37.9031C29.1861 37.6132 29.4218 37.3775 29.7122 37.3775C30.0026 37.3775 30.2378 37.6132 30.2378 37.9031C30.2379 38.1925 30.0022 38.4287 29.7122 38.4287Z" fill="#BD967A"/>
<path d="M29.1913 34.211V34.151C29.1913 33.164 27.6577 33.1624 27.6577 34.151V34.211C27.6576 35.1979 29.1913 35.1995 29.1913 34.211Z" fill="#BD967A"/>
<path d="M7.98207 28.0148C7.96208 28.0348 7.94209 28.0553 7.92209 28.0748C7.22291 28.774 8.3072 29.8582 9.00691 29.1596C9.0269 29.1396 9.0469 29.1196 9.06689 29.0996C9.76502 28.4004 8.68073 27.3156 7.98207 28.0148Z" fill="#BD967A"/>
<path d="M38.64 24.727C38.64 36.9919 27.542 41.9995 17.7429 41.9995C7.94375 41.9995 0 32.0569 0 19.7921C0 7.52721 11.098 2.51953 20.8971 2.51953C30.6963 2.51953 38.64 12.4622 38.64 24.727Z" fill="#CC9966" fill-opacity="0.1"/>
</g>
<defs>
<clipPath id="clip0_819_610">
<rect width="42" height="42" fill="white"/>
</clipPath>
</defs>
</svg>
