<svg width="76" height="205" viewBox="0 0 76 205" fill="none" xmlns="http://www.w3.org/2000/svg">
<ellipse cx="51.183" cy="28.9106" rx="30.183" ry="28.9106" fill="#9C6137" fill-opacity="0.15"/>
<g opacity="0.5">
<circle cx="74.5" cy="140.5" r="2.5" transform="rotate(90 74.5 140.5)" fill="#BD967A"/>
<circle cx="62.5" cy="140.5" r="2.5" transform="rotate(90 62.5 140.5)" fill="#BD967A"/>
<circle cx="50.5" cy="140.5" r="2.5" transform="rotate(90 50.5 140.5)" fill="#BD967A"/>
<circle cx="38.5" cy="140.5" r="2.5" transform="rotate(90 38.5 140.5)" fill="#BD967A"/>
<circle cx="26.5" cy="140.5" r="2.5" transform="rotate(90 26.5 140.5)" fill="#BD967A"/>
<circle cx="14.5" cy="140.5" r="2.5" transform="rotate(90 14.5 140.5)" fill="#BD967A"/>
<circle cx="74.5" cy="174.5" r="2.5" transform="rotate(90 74.5 174.5)" fill="#BD967A"/>
<circle cx="62.5" cy="174.5" r="2.5" transform="rotate(90 62.5 174.5)" fill="#BD967A"/>
<circle cx="50.5" cy="174.5" r="2.5" transform="rotate(90 50.5 174.5)" fill="#BD967A"/>
<circle cx="38.5" cy="174.5" r="2.5" transform="rotate(90 38.5 174.5)" fill="#BD967A"/>
<circle cx="26.5" cy="174.5" r="2.5" transform="rotate(90 26.5 174.5)" fill="#BD967A"/>
<circle cx="14.5" cy="174.5" r="2.5" transform="rotate(90 14.5 174.5)" fill="#BD967A"/>
<circle cx="74.5" cy="157.5" r="2.5" transform="rotate(90 74.5 157.5)" fill="#BD967A"/>
<circle cx="62.5" cy="157.5" r="2.5" transform="rotate(90 62.5 157.5)" fill="#BD967A"/>
<circle cx="50.5" cy="157.5" r="2.5" transform="rotate(90 50.5 157.5)" fill="#BD967A"/>
<circle cx="38.5" cy="157.5" r="2.5" transform="rotate(90 38.5 157.5)" fill="#BD967A"/>
<circle cx="26.5" cy="157.5" r="2.5" transform="rotate(90 26.5 157.5)" fill="#BD967A"/>
<circle cx="14.5" cy="157.5" r="2.5" transform="rotate(90 14.5 157.5)" fill="#BD967A"/>
<circle cx="74.5" cy="191.5" r="2.5" transform="rotate(90 74.5 191.5)" fill="#BD967A"/>
<circle cx="62.5" cy="191.5" r="2.5" transform="rotate(90 62.5 191.5)" fill="#BD967A"/>
<circle cx="50.5" cy="191.5" r="2.5" transform="rotate(90 50.5 191.5)" fill="#BD967A"/>
<circle cx="38.5" cy="191.5" r="2.5" transform="rotate(90 38.5 191.5)" fill="#BD967A"/>
<circle cx="26.5" cy="191.5" r="2.5" transform="rotate(90 26.5 191.5)" fill="#BD967A"/>
<circle cx="14.5" cy="191.5" r="2.5" transform="rotate(90 14.5 191.5)" fill="#BD967A"/>
</g>
</svg>
