<svg width="249" height="226" viewBox="0 0 249 226" fill="none" xmlns="http://www.w3.org/2000/svg">
<path fill-rule="evenodd" clip-rule="evenodd" d="M224.699 84.4962C232.906 112.192 211.998 139.763 191.888 162.776C173.3 184.049 149.38 202.306 120.515 203.725C92.0049 205.125 68.2647 188.97 49.4709 169.773C29.9259 149.809 12.1781 125.68 17.3227 98.3208C22.5993 70.2587 46.7887 47.9146 74.7026 35.586C100.546 24.172 128.59 29.0598 154.794 37.6043C183.504 46.9658 216.591 57.1369 224.699 84.4962Z" fill="#F3EBE5" fill-opacity="0.65"/>
<path d="M55.1472 155H57.5772V144.5H55.1472V155ZM67.8241 144.5V150.875L62.6041 144.5H60.5941V155H62.9941V148.625L68.2291 155H70.2241V144.5H67.8241ZM80.4334 144.5V148.64H75.6634V144.5H73.2334V155H75.6634V150.695H80.4334V155H82.8634V144.5H80.4334ZM93.7176 155H96.2676L91.5726 144.5H89.1726L84.4926 155H86.9826L87.9126 152.75H92.7876L93.7176 155ZM88.6926 150.905L90.3576 146.885L92.0226 150.905H88.6926ZM97.882 155H105.577V153.02H100.312V144.5H97.882V155ZM108.653 155H111.083V146.48H114.443V144.5H105.293V146.48H108.653V155ZM119.653 155.18C122.653 155.18 124.108 153.68 124.108 151.925C124.108 148.07 118.003 149.405 118.003 147.47C118.003 146.81 118.558 146.27 119.998 146.27C120.928 146.27 121.933 146.54 122.908 147.095L123.658 145.25C122.683 144.635 121.333 144.32 120.013 144.32C117.028 144.32 115.588 145.805 115.588 147.59C115.588 151.49 121.693 150.14 121.693 152.105C121.693 152.75 121.108 153.23 119.668 153.23C118.408 153.23 117.088 152.78 116.203 152.135L115.378 153.965C116.308 154.685 117.988 155.18 119.653 155.18ZM129.743 155.18C132.743 155.18 134.198 153.68 134.198 151.925C134.198 148.07 128.093 149.405 128.093 147.47C128.093 146.81 128.648 146.27 130.088 146.27C131.018 146.27 132.023 146.54 132.998 147.095L133.748 145.25C132.773 144.635 131.423 144.32 130.103 144.32C127.118 144.32 125.678 145.805 125.678 147.59C125.678 151.49 131.783 150.14 131.783 152.105C131.783 152.75 131.198 153.23 129.758 153.23C128.498 153.23 127.178 152.78 126.293 152.135L125.468 153.965C126.398 154.685 128.078 155.18 129.743 155.18ZM138.412 155H140.842V146.48H144.202V144.5H135.052V146.48H138.412V155ZM150.973 155.18C154.273 155.18 156.718 152.885 156.718 149.75C156.718 146.615 154.273 144.32 150.973 144.32C147.658 144.32 145.228 146.63 145.228 149.75C145.228 152.87 147.658 155.18 150.973 155.18ZM150.973 153.11C149.098 153.11 147.688 151.745 147.688 149.75C147.688 147.755 149.098 146.39 150.973 146.39C152.848 146.39 154.258 147.755 154.258 149.75C154.258 151.745 152.848 153.11 150.973 153.11ZM167.004 146.45V144.5H159.069V155H161.499V151.175H166.359V149.225H161.499V146.45H167.004ZM177.109 146.45V144.5H169.174V155H171.604V151.175H176.464V149.225H171.604V146.45H177.109ZM181.694 153.05V150.62H186.569V148.73H181.694V146.45H187.214V144.5H179.279V155H187.409V153.05H181.694Z" fill="#D0AF94"/>
<path d="M114.806 100.595H111.101L111.816 91.95H130.796V83.5H103.041L100.701 109.11H112.336C120.591 109.11 122.931 111.45 122.931 115.025C122.931 118.73 119.681 120.94 114.416 120.94C109.671 120.94 104.926 119.445 101.481 116.845L97.3214 124.905C101.741 128.025 108.371 129.78 114.676 129.78C127.676 129.78 133.591 122.76 133.591 114.7C133.591 106.64 128.261 100.595 114.806 100.595Z" fill="#F2EDE8"/>
<path d="M111.101 100.595L110.105 100.513L110.015 101.595H111.101V100.595ZM111.816 91.95V90.95H110.896L110.82 91.8676L111.816 91.95ZM130.796 91.95V92.95H131.796V91.95H130.796ZM130.796 83.5H131.796V82.5H130.796V83.5ZM103.041 83.5V82.5H102.129L102.046 83.409L103.041 83.5ZM100.701 109.11L99.7055 109.019L99.6059 110.11H100.701V109.11ZM101.481 116.845L102.084 116.047L101.137 115.332L100.593 116.386L101.481 116.845ZM97.3214 124.905L96.4328 124.446L96.0335 125.22L96.7447 125.722L97.3214 124.905ZM114.806 99.595H111.101V101.595H114.806V99.595ZM112.098 100.677L112.813 92.0324L110.82 91.8676L110.105 100.513L112.098 100.677ZM111.816 92.95H130.796V90.95H111.816V92.95ZM131.796 91.95V83.5H129.796V91.95H131.796ZM130.796 82.5H103.041V84.5H130.796V82.5ZM102.046 83.409L99.7055 109.019L101.697 109.201L104.037 83.591L102.046 83.409ZM100.701 110.11H112.336V108.11H100.701V110.11ZM112.336 110.11C116.412 110.11 118.822 110.696 120.192 111.57C121.457 112.378 121.931 113.496 121.931 115.025H123.931C123.931 112.979 123.236 111.14 121.267 109.884C119.403 108.694 116.515 108.11 112.336 108.11V110.11ZM121.931 115.025C121.931 116.541 121.287 117.716 120.08 118.549C118.833 119.41 116.927 119.94 114.416 119.94V121.94C117.17 121.94 119.522 121.365 121.217 120.195C122.951 118.997 123.931 117.214 123.931 115.025H121.931ZM114.416 119.94C109.864 119.94 105.337 118.502 102.084 116.047L100.879 117.643C104.516 120.388 109.479 121.94 114.416 121.94V119.94ZM100.593 116.386L96.4328 124.446L98.21 125.364L102.37 117.304L100.593 116.386ZM96.7447 125.722C101.374 128.99 108.221 130.78 114.676 130.78V128.78C108.522 128.78 102.109 127.06 97.8981 124.088L96.7447 125.722ZM114.676 130.78C121.352 130.78 126.341 128.976 129.674 126.009C133.014 123.037 134.591 118.983 134.591 114.7H132.591C132.591 118.477 131.212 121.963 128.344 124.516C125.469 127.074 121 128.78 114.676 128.78V130.78ZM134.591 114.7C134.591 110.438 133.173 106.604 129.886 103.858C126.626 101.134 121.666 99.595 114.806 99.595V101.595C121.402 101.595 125.834 103.079 128.603 105.392C131.345 107.683 132.591 110.902 132.591 114.7H134.591Z" fill="#CEAD92"/>
<path d="M102.439 46V54.5L95.4795 46H92.7995V60H95.9995V51.5L102.979 60H105.639V46H102.439ZM115.872 60.24C119.852 60.24 122.212 57.96 122.212 53.84V46H119.012V53.72C119.012 56.38 117.872 57.48 115.892 57.48C113.932 57.48 112.772 56.38 112.772 53.72V46H109.532V53.84C109.532 57.96 111.892 60.24 115.872 60.24ZM138.514 60L135.374 55.5C137.194 54.72 138.254 53.18 138.254 51.08C138.254 47.94 135.914 46 132.174 46H126.114V60H129.354V56.1H132.174H132.334L135.034 60H138.514ZM134.974 51.08C134.974 52.6 133.974 53.52 131.994 53.52H129.354V48.64H131.994C133.974 48.64 134.974 49.54 134.974 51.08Z" fill="#D0AF94"/>
</svg>
