<svg width="64" height="65" viewBox="0 0 64 65" fill="none" xmlns="http://www.w3.org/2000/svg">
<path d="M43.4717 20.8617C43.4753 20.885 43.4845 20.9071 43.4984 20.9262C43.5124 20.9452 43.5307 20.9605 43.5519 20.9709C44.0776 21.2324 44.147 22.0715 44.6882 22.5345C44.7164 22.5594 44.7532 22.5725 44.7908 22.5711C44.8284 22.5697 44.8641 22.554 44.8904 22.527L50.6513 16.727C50.7939 16.5798 50.8899 16.3939 50.9275 16.1925C50.9651 15.991 50.9425 15.783 50.8625 15.5943C50.7826 15.4056 50.6489 15.2446 50.478 15.1314C50.3072 15.0183 50.1068 14.9579 49.9019 14.9579C49.7624 14.9573 49.6242 14.985 49.4957 15.0393C49.3673 15.0936 49.2512 15.1735 49.1545 15.274C49.1545 15.274 46.6804 17.6652 43.5149 20.733C43.4979 20.7494 43.4851 20.7697 43.4776 20.7921C43.4701 20.8145 43.4681 20.8384 43.4717 20.8617Z" fill="#463B32"/>
<path d="M18.5531 61.7974C18.8043 61.797 19.0478 61.7111 19.2437 61.5539C19.4396 61.3968 19.5763 61.1777 19.6311 60.9326C19.686 60.6875 19.6559 60.431 19.5457 60.2053C19.4356 59.9796 19.2519 59.7981 19.0249 59.6906C16.4226 58.456 14.0172 56.8436 11.8864 54.9056C11.908 54.9056 11.9289 54.9096 11.9505 54.9096H12.001C12.2186 54.8991 12.4275 54.8206 12.5981 54.6852C12.6426 54.6495 16.1134 50.8868 16.2617 50.7264C16.3035 50.6813 18.3543 48.4148 18.3267 48.3595C18.1649 48.0475 17.9897 47.7166 17.8044 47.389C17.6804 47.1734 16.2826 48.1863 16.1229 47.9565C16.1102 47.9384 16.0937 47.9234 16.0744 47.9125C16.0552 47.9017 16.0337 47.8953 16.0117 47.8938C15.9665 47.8938 15.1355 48.8508 15.1072 48.8838C12.8562 51.3512 11.4046 52.9356 11.2927 53.0563C11.1579 53.1665 11.0528 53.3088 10.9871 53.4701C10.9215 53.6313 10.8972 53.8065 10.9166 53.9796C5.45764 48.5421 2.21123 41.0593 2.21123 33.1545C2.21123 27.0762 3.4331 22.6531 6.93291 17.6901C7.01944 17.5715 7.0815 17.4369 7.11549 17.2941C7.14948 17.1513 7.15471 17.0031 7.13089 16.8583C7.10706 16.7134 7.05466 16.5747 6.97672 16.4503C6.89878 16.3259 6.79686 16.2183 6.67691 16.1337C6.55696 16.049 6.42137 15.9891 6.27803 15.9574C6.1347 15.9257 5.98648 15.9228 5.84202 15.9489C5.69756 15.975 5.55975 16.0296 5.4366 16.1095C5.31345 16.1894 5.20742 16.293 5.12471 16.4143C1.36138 21.7513 0 26.6172 0 33.1545C0.00559127 39.1342 1.70728 44.9897 4.90747 50.041C8.10767 55.0923 12.6751 59.1322 18.0794 61.6916C18.2276 61.7613 18.3893 61.7974 18.5531 61.7974Z" fill="#463B32"/>
<path d="M57.9771 15.7444C57.8073 15.5049 57.5493 15.3427 57.2599 15.2934C56.9705 15.2441 56.6733 15.3118 56.4338 15.4816C56.1943 15.6514 56.032 15.9094 55.9827 16.1988C55.9334 16.4883 56.0011 16.7854 56.1709 17.0249C59.689 21.9953 60.9203 27.0594 60.9203 33.1552C60.9203 43.929 55.0171 53.8232 45.5151 58.9776C45.3818 59.0437 45.2632 59.136 45.1664 59.2489C45.0696 59.3619 44.9966 59.4933 44.9517 59.6351C44.9068 59.777 44.891 59.9264 44.9052 60.0745C44.9194 60.2226 44.9633 60.3663 45.0342 60.4971C45.1052 60.6278 45.2019 60.7429 45.3184 60.8355C45.4349 60.928 45.5688 60.9961 45.7122 61.0357C45.8556 61.0753 46.0056 61.0856 46.153 61.0659C46.3005 61.0462 46.4425 60.997 46.5705 60.9212C51.5768 58.2147 55.7587 54.2056 58.674 49.318C61.5893 44.4303 63.1296 38.8456 63.1322 33.1545C63.1322 26.597 61.7607 21.0909 57.9771 15.7444Z" fill="#463B32"/>
<path d="M45.1249 42.0729C45.039 42.073 44.9539 42.0556 44.8749 42.0217C44.7864 41.9883 44.7058 41.9371 44.638 41.8713C44.5701 41.8054 44.5166 41.7263 44.4806 41.6389C44.4617 41.5903 44.4488 41.5396 44.4422 41.4879C44.4074 41.3403 44.4256 41.1851 44.4936 41.0495C44.5615 40.9139 44.675 40.8065 44.8141 40.7461C44.9532 40.6857 45.1092 40.676 45.2547 40.7188C45.4002 40.7617 45.526 40.8543 45.6102 40.9804C45.626 41.0043 45.6404 41.029 45.6533 41.0546C45.7212 41.1514 45.7612 41.265 45.7691 41.383C45.7769 41.501 45.7522 41.6189 45.6978 41.7239C45.6433 41.8289 45.5611 41.9169 45.4601 41.9784C45.3591 42.04 45.2432 42.0727 45.1249 42.0729Z" fill="#9C6137" fill-opacity="0.69"/>
<path d="M31.772 25.4506C31.1224 25.4457 30.5008 25.1854 30.0415 24.7259C29.5823 24.2665 29.3222 23.6448 29.3175 22.9952C29.3128 22.3456 29.5639 21.7202 30.0165 21.2542C30.469 20.7881 31.0868 20.5189 31.7363 20.5045L40.4302 20.3792C40.9157 20.38 41.3903 20.5237 41.7947 20.7925C42.199 21.0612 42.5154 21.443 42.7042 21.8904C42.893 22.3377 42.9459 22.8307 42.8564 23.3079C42.7668 23.7851 42.5388 24.2254 42.2007 24.5738C41.9755 24.8078 41.706 24.9947 41.408 25.1237C41.11 25.2527 40.7893 25.3212 40.4646 25.3253L31.772 25.4506ZM40.4309 21.6725H40.4127L31.7551 21.7972C31.4491 21.8095 31.1599 21.9402 30.9486 22.1618C30.7372 22.3834 30.6203 22.6785 30.6225 22.9847C30.6247 23.2909 30.7458 23.5843 30.9603 23.8029C31.1748 24.0214 31.4658 24.1481 31.772 24.156H31.7888L40.447 24.0306C40.7591 24.0244 41.056 23.8951 41.2732 23.6709C41.4903 23.4467 41.61 23.1458 41.6062 22.8337C41.6004 22.5251 41.4743 22.231 41.2547 22.014C41.0352 21.7971 40.7395 21.6745 40.4309 21.6725Z" fill="#9C6137" fill-opacity="0.69"/>
<path d="M33.5094 21.5512C33.3395 21.5508 33.1765 21.4837 33.0556 21.3643C32.9347 21.245 32.8656 21.0828 32.8631 20.9129L32.8166 17.7036C32.8143 17.532 32.8801 17.3666 32.9996 17.2435C33.1191 17.1204 33.2826 17.0498 33.4542 17.0472L38.657 16.9724H38.6658C38.8356 16.9723 38.9986 17.0391 39.1195 17.1583C39.2404 17.2775 39.3096 17.4395 39.3121 17.6092L39.3593 20.8199C39.3615 20.9912 39.2956 21.1564 39.1763 21.2793C39.0569 21.4022 38.8937 21.4728 38.7224 21.4757L33.5188 21.5512H33.5094ZM34.1193 18.331L34.147 20.2484L38.0559 20.1918L38.0282 18.2744L34.1193 18.331Z" fill="#9C6137" fill-opacity="0.69"/>
<path d="M32.6151 28.6492C32.4454 28.6492 32.2825 28.5825 32.1616 28.4635C32.0407 28.3445 31.9714 28.1826 31.9688 28.013L31.9229 24.8023C31.9217 24.7174 31.9372 24.6331 31.9685 24.5542C31.9999 24.4754 32.0464 24.4034 32.1056 24.3425C32.1647 24.2816 32.2353 24.233 32.3132 24.1994C32.3911 24.1657 32.4749 24.1478 32.5598 24.1465C32.6447 24.1453 32.729 24.1608 32.8079 24.1921C32.8868 24.2235 32.9587 24.27 33.0196 24.3292C33.0805 24.3883 33.1291 24.4589 33.1628 24.5368C33.1964 24.6148 33.2143 24.6986 33.2156 24.7834L33.2621 27.9941C33.2633 28.079 33.2478 28.1632 33.2165 28.2421C33.1852 28.3209 33.1386 28.3928 33.0794 28.4537C33.0203 28.5145 32.9497 28.5631 32.8718 28.5967C32.7938 28.6302 32.71 28.6481 32.6252 28.6492H32.6151Z" fill="#9C6137" fill-opacity="0.69"/>
<path d="M39.8108 28.5461C39.6409 28.5461 39.4779 28.4792 39.3569 28.3599C39.2359 28.2406 39.1668 28.0784 39.1645 27.9085L39.118 24.6985C39.1204 24.5302 39.1883 24.3694 39.3074 24.2503C39.4264 24.1312 39.5872 24.0632 39.7555 24.0608C39.9239 24.0583 40.0865 24.1216 40.209 24.2371C40.3314 24.3527 40.404 24.5114 40.4113 24.6796L40.4565 27.8897C40.4578 27.9746 40.4424 28.059 40.4111 28.1379C40.3798 28.2169 40.3333 28.2889 40.2741 28.3499C40.215 28.4109 40.1444 28.4596 40.0664 28.4932C39.9884 28.5269 39.9045 28.5449 39.8196 28.5461H39.8108Z" fill="#9C6137" fill-opacity="0.69"/>
<path d="M28.2418 47.6593C28.1536 47.6595 28.0662 47.6417 27.985 47.607C27.9039 47.5722 27.8307 47.5212 27.7701 47.4571C26.1799 45.7654 25.1159 43.6478 24.7076 41.3622C24.2993 39.0766 24.5643 36.7216 25.4704 34.5839C26.3764 32.4463 27.8845 30.6181 29.8109 29.3221C31.7373 28.0261 33.9989 27.3182 36.3205 27.2845H36.4943C38.1715 27.2846 39.83 27.6369 41.3624 28.3185C42.8949 29 44.2671 29.9958 45.3905 31.2412C45.5053 31.3686 45.5648 31.5363 45.556 31.7076C45.5471 31.8788 45.4706 32.0396 45.3433 32.1544C45.2802 32.2113 45.2066 32.2552 45.1266 32.2836C45.0465 32.312 44.9617 32.3243 44.8769 32.32C44.7057 32.3111 44.5449 32.2346 44.4301 32.1072C43.4858 31.0553 42.3421 30.2013 41.0652 29.5948C39.7884 28.9882 38.4039 28.6412 36.9919 28.5738C35.5799 28.5064 34.1686 28.7199 32.8398 29.2021C31.511 29.6842 30.2911 30.4254 29.2509 31.3825C28.2107 32.3397 27.3708 33.4938 26.78 34.778C26.1892 36.0622 25.8592 37.4509 25.8092 38.8636C25.7592 40.2763 25.99 41.6849 26.4885 43.0077C26.9869 44.3305 27.743 45.5411 28.7129 46.5695C28.7993 46.6615 28.8569 46.7768 28.8786 46.9012C28.9002 47.0255 28.8851 47.1535 28.8349 47.2693C28.7848 47.3852 28.7018 47.4838 28.5963 47.5531C28.4908 47.6224 28.3674 47.6593 28.2412 47.6593H28.2418Z" fill="#9C6137" fill-opacity="0.69"/>
<path d="M13.1218 48.559C12.9539 48.5541 12.7944 48.4841 12.6772 48.3638C12.5599 48.2435 12.4941 48.0823 12.4936 47.9143C12.493 47.7463 12.5579 47.5847 12.6744 47.4637C12.7908 47.3426 12.9499 47.2716 13.1177 47.2657C21.8076 47.2064 38.5425 47.0898 38.5425 47.0898L38.5519 48.3838L13.1265 48.559H13.1218Z" fill="#9C6137" fill-opacity="0.69"/>
<path d="M15.8823 47.9322C15.7969 47.9325 15.7124 47.9157 15.6336 47.883C15.5548 47.8503 15.4833 47.8022 15.4233 47.7415C13.8263 46.1304 12.8497 44.007 12.6659 41.7459C12.4821 39.4848 13.1029 37.2315 14.4188 35.3837C15.7347 33.5358 17.661 32.2122 19.8578 31.6464C22.0546 31.0805 24.3807 31.3089 26.4255 32.2912C26.58 32.3657 26.6985 32.4984 26.7551 32.6603C26.8116 32.8221 26.8016 32.9998 26.7271 33.1542C26.6527 33.3086 26.5199 33.4272 26.3581 33.4837C26.1963 33.5403 26.0186 33.5303 25.8641 33.4558C24.094 32.6052 22.0802 32.4074 20.1784 32.8972C18.2765 33.3871 16.6089 34.5331 15.4698 36.1329C14.3308 37.7327 13.7935 39.6836 13.953 41.641C14.1124 43.5984 14.9583 45.4366 16.3412 46.831C16.4314 46.9215 16.4926 47.0367 16.5173 47.162C16.5419 47.2873 16.5288 47.4171 16.4797 47.535C16.4306 47.6528 16.3476 47.7535 16.2413 47.8242C16.1349 47.8949 16.01 47.9325 15.8823 47.9322Z" fill="#9C6137" fill-opacity="0.69"/>
<path d="M19.8269 32.4887C19.6571 32.4885 19.4942 32.4216 19.3734 32.3023C19.2526 32.183 19.1836 32.0209 19.1813 31.8511L19.1455 29.4155C19.1443 29.3306 19.1598 29.2463 19.1911 29.1674C19.2225 29.0885 19.269 29.0166 19.3282 28.9557C19.3873 28.8948 19.4579 28.8462 19.5358 28.8125C19.6137 28.7789 19.6975 28.761 19.7824 28.7597C19.8673 28.7585 19.9516 28.774 20.0305 28.8053C20.1094 28.8367 20.1813 28.8832 20.2422 28.9424C20.3031 29.0015 20.3517 29.0721 20.3854 29.15C20.419 29.2279 20.4369 29.3117 20.4382 29.3966L20.4739 31.8323C20.4751 31.9172 20.4596 32.0016 20.4283 32.0806C20.3969 32.1596 20.3503 32.2316 20.2911 32.2925C20.2319 32.3535 20.1613 32.4022 20.0832 32.4358C20.0052 32.4695 19.9213 32.4875 19.8363 32.4887H19.8269Z" fill="#9C6137" fill-opacity="0.69"/>
<path d="M25.0291 32.4132C24.8593 32.413 24.6964 32.3461 24.5756 32.2268C24.4548 32.1075 24.3858 31.9454 24.3835 31.7756L24.3478 29.3407C24.344 29.2542 24.3577 29.1679 24.3879 29.0868C24.4181 29.0057 24.4643 28.9315 24.5238 28.8686C24.5832 28.8056 24.6546 28.7553 24.7339 28.7205C24.8131 28.6856 24.8985 28.6671 24.985 28.6659C25.0716 28.6646 25.1575 28.6808 25.2377 28.7134C25.3178 28.7459 25.3907 28.7943 25.4518 28.8555C25.513 28.9167 25.5613 28.9896 25.5938 29.0698C25.6263 29.15 25.6424 29.2359 25.6411 29.3225L25.6761 31.7568C25.6775 31.8416 25.6622 31.9258 25.6311 32.0047C25.6 32.0836 25.5536 32.1555 25.4947 32.2165C25.4357 32.2775 25.3653 32.3262 25.2875 32.36C25.2097 32.3937 25.126 32.4118 25.0412 32.4132H25.0291Z" fill="#9C6137" fill-opacity="0.69"/>
<path d="M18.6333 29.4054C18.1506 29.4033 17.6878 29.2124 17.3441 28.8735C17.0003 28.5345 16.8029 28.0744 16.7941 27.5918V27.5426C16.7867 27.0545 16.9735 26.5834 17.3133 26.2329C17.6532 25.8825 18.1183 25.6813 18.6064 25.6737L25.8769 25.5693C26.3598 25.5711 26.8228 25.762 27.1666 26.1009C27.5105 26.4399 27.708 26.9001 27.7168 27.3828V27.4314C27.7206 27.673 27.6766 27.9131 27.5875 28.1378C27.4984 28.3624 27.3658 28.5673 27.1975 28.7407C27.0291 28.9141 26.8281 29.0526 26.6062 29.1483C26.3842 29.2439 26.1456 29.2949 25.9039 29.2982L18.6333 29.4054ZM25.8769 26.8653L18.6253 26.9697C18.5534 26.9705 18.4823 26.9855 18.4163 27.0139C18.3502 27.0422 18.2904 27.0833 18.2403 27.1349C18.1902 27.1864 18.1507 27.2474 18.1243 27.3142C18.0978 27.3811 18.0848 27.4525 18.0861 27.5244V27.5743C18.0887 27.7177 18.1474 27.8544 18.2495 27.9552C18.3517 28.0559 18.4892 28.1127 18.6327 28.1134H18.6414L25.885 28.0089C26.03 28.0066 26.1681 27.947 26.2692 27.843C26.3703 27.739 26.426 27.5993 26.4242 27.4543V27.4058C26.4224 27.2618 26.364 27.1243 26.2615 27.0232C26.1591 26.922 26.0209 26.8652 25.8769 26.8653Z" fill="#9C6137" fill-opacity="0.69"/>
<path d="M23.2586 40.4575C22.3212 40.4575 21.3965 40.1677 20.5406 39.9008C19.8997 39.6986 19.2945 39.5106 18.7371 39.4513C17.1277 39.2794 15.3276 39.2187 14.1886 40.0666C14.1205 40.1173 14.0431 40.1541 13.9608 40.1749C13.8785 40.1957 13.7928 40.2 13.7088 40.1877C13.6248 40.1754 13.544 40.1467 13.4711 40.1032C13.3982 40.0597 13.3346 40.0022 13.2839 39.9341C13.2332 39.866 13.1964 39.7886 13.1756 39.7063C13.1548 39.624 13.1504 39.5383 13.1627 39.4543C13.175 39.3703 13.2037 39.2895 13.2472 39.2166C13.2907 39.1437 13.3482 39.0801 13.4163 39.0294C14.9125 37.9153 17.0152 37.9672 18.8753 38.1654C19.5587 38.2381 20.2549 38.4558 20.9281 38.6661C22.1931 39.0617 23.388 39.4358 24.4266 38.8919C24.5018 38.8525 24.5841 38.8282 24.6687 38.8206C24.7533 38.8129 24.8385 38.822 24.9196 38.8474C25.0007 38.8727 25.076 38.9137 25.1412 38.9681C25.2064 39.0225 25.2603 39.0893 25.2997 39.1645C25.3391 39.2397 25.3634 39.322 25.371 39.4066C25.3786 39.4912 25.3695 39.5764 25.3442 39.6575C25.3189 39.7386 25.2779 39.8139 25.2235 39.8791C25.169 39.9443 25.1023 39.9982 25.0271 40.0376C24.4813 40.3213 23.8737 40.4656 23.2586 40.4575Z" fill="#9C6137" fill-opacity="0.69"/>
<path d="M44.3162 40.8578C44.2014 40.8579 44.0886 40.8274 43.9894 40.7695C43.8903 40.7116 43.8084 40.6283 43.7521 40.5282C41.1156 35.851 36.9338 38.1344 36.7565 38.2368C36.6752 38.2827 36.5849 38.3104 36.4918 38.3181C36.3987 38.3258 36.3051 38.3132 36.2173 38.2813C35.6034 38.0555 32.4432 36.9266 30.4544 36.7986C28.4656 36.6705 26.811 36.775 26.0272 37.0796C25.9481 37.1106 25.8637 37.1257 25.7787 37.124C25.6938 37.1224 25.61 37.104 25.5321 37.07C25.4543 37.0359 25.3839 36.9869 25.325 36.9256C25.2661 36.8644 25.2198 36.7921 25.1888 36.713C25.1579 36.6339 25.1428 36.5494 25.1444 36.4645C25.1461 36.3795 25.1645 36.2957 25.1985 36.2179C25.2326 36.14 25.2816 36.0696 25.3429 36.0107C25.4041 35.9518 25.4763 35.9056 25.5555 35.8746C26.8764 35.3604 29.242 35.4237 30.5353 35.508C32.4729 35.6333 35.2529 36.5641 36.3946 36.9718C37.076 36.6523 38.905 35.9535 40.91 36.5074C42.5275 36.9536 43.8599 38.0946 44.8762 39.8967C44.9307 39.9948 44.9587 40.1054 44.9576 40.2175C44.9564 40.3297 44.9261 40.4397 44.8696 40.5366C44.8131 40.6335 44.7324 40.7141 44.6354 40.7704C44.5384 40.8267 44.4284 40.8568 44.3162 40.8578Z" fill="#9C6137" fill-opacity="0.69"/>
<path d="M42.0504 42.5346C39.7859 42.5346 38.3174 41.6948 37.4419 40.9131C36.2841 39.8792 35.8858 38.7193 35.8696 38.6708C35.8208 38.5097 35.8368 38.3359 35.9141 38.1864C35.9914 38.0368 36.1239 37.9233 36.2835 37.8699C36.4432 37.8165 36.6173 37.8274 36.7691 37.9003C36.9208 37.9732 37.0381 38.1024 37.0962 38.2604C37.146 38.4046 38.4056 41.8667 43.3524 41.1422C43.5222 41.1174 43.695 41.161 43.8326 41.2635C43.9702 41.366 44.0615 41.519 44.0864 41.6888C44.1112 41.8586 44.0676 42.0313 43.9651 42.1689C43.8626 42.3066 43.7096 42.3979 43.5398 42.4227C43.0466 42.4956 42.5489 42.533 42.0504 42.5346Z" fill="#9C6137" fill-opacity="0.69"/>
<path d="M38.9994 49.0416C38.8666 49.0409 38.7373 48.9995 38.6288 48.923C38.5203 48.8464 38.438 48.7384 38.3928 48.6136C38.3571 48.5132 37.5113 46.1099 38.6233 43.9768C39.2973 42.6795 40.5313 41.7831 42.2835 41.3114C42.4491 41.2667 42.6255 41.2896 42.7742 41.375C42.9228 41.4604 43.0314 41.6014 43.0761 41.7669C43.1208 41.9325 43.0979 42.109 43.0125 42.2576C42.927 42.4062 42.786 42.5148 42.6205 42.5595C41.2322 42.9342 40.2732 43.6115 39.7711 44.5746C39.1767 45.7136 39.329 47.0008 39.4786 47.6876C40.6769 47.4854 43.5897 46.6288 43.9826 43.1047C43.992 43.0203 44.018 42.9386 44.059 42.8643C44.1 42.7899 44.1552 42.7244 44.2215 42.6714C44.2879 42.6184 44.364 42.5789 44.4456 42.5553C44.5272 42.5318 44.6126 42.5245 44.697 42.5339C44.7813 42.5433 44.8631 42.5693 44.9374 42.6103C45.0118 42.6513 45.0773 42.7065 45.1303 42.7729C45.1833 42.8392 45.2228 42.9153 45.2463 42.9969C45.2699 43.0785 45.2772 43.1639 45.2678 43.2483C44.9504 46.1058 43.2608 47.5333 41.8981 48.2274C41.0035 48.6801 40.0296 48.9548 39.0304 49.0362C39.0202 49.0387 39.0098 49.0405 38.9994 49.0416Z" fill="#9C6137" fill-opacity="0.69"/>
<path d="M42.9561 35.1872C42.8113 35.187 42.6708 35.1383 42.557 35.0487C42.4432 34.9591 42.3628 34.8339 42.3287 34.6932C41.8509 32.7259 39.4604 31.841 39.4368 31.8323C39.2765 31.7736 39.1458 31.6539 39.0734 31.4993C39.0009 31.3447 38.9925 31.1678 39.0499 31.007C39.1074 30.8462 39.226 30.7147 39.38 30.641C39.5341 30.5674 39.711 30.5576 39.8722 30.6138C39.9968 30.6596 42.9413 31.7359 43.5843 34.3879C43.6047 34.4702 43.6087 34.5557 43.5961 34.6396C43.5834 34.7235 43.5544 34.804 43.5105 34.8766C43.4667 34.9492 43.409 35.0125 43.3407 35.0628C43.2724 35.1131 43.1949 35.1494 43.1125 35.1697C43.0613 35.1817 43.0088 35.1875 42.9561 35.1872Z" fill="#9C6137" fill-opacity="0.69"/>
<path d="M50.1169 43.8104C47.9885 43.8104 46.2167 42.7192 46.1271 42.6646C45.9869 42.5716 45.8885 42.4276 45.8528 42.2632C45.817 42.0989 45.8466 41.927 45.9354 41.7841C46.0242 41.6413 46.1652 41.5386 46.3284 41.4979C46.4916 41.4572 46.6643 41.4816 46.8098 41.5661C46.8314 41.5796 49.0594 42.9403 51.2161 42.3816C52.3712 42.0824 53.3228 41.2716 54.0467 39.9729C54.1321 39.8269 54.2714 39.7202 54.4346 39.6757C54.5978 39.6311 54.772 39.6523 54.9198 39.7346C55.0676 39.8169 55.1773 39.9538 55.2253 40.116C55.2734 40.2782 55.256 40.4528 55.1769 40.6024C54.2718 42.2259 53.0458 43.2463 51.5308 43.6351C51.0687 43.7523 50.5936 43.8112 50.1169 43.8104Z" fill="#9C6137" fill-opacity="0.69"/>
<path d="M54.6135 40.9346C54.4661 40.9343 54.3234 40.8834 54.2091 40.7904C52.4642 39.3798 50.8643 38.7787 49.4557 39.0024C47.8645 39.2558 47.0295 40.5201 47.0207 40.5323C46.9287 40.677 46.7829 40.7792 46.6155 40.8164C46.4481 40.8536 46.2728 40.8228 46.1281 40.7307C45.9834 40.6387 45.8812 40.4929 45.844 40.3255C45.8068 40.1581 45.8376 39.9828 45.9296 39.8381C45.9748 39.7667 47.0619 38.0858 49.2272 37.7293C51.02 37.4348 52.9704 38.1256 55.0232 39.7849C55.1269 39.8689 55.2022 39.9829 55.2385 40.1114C55.2749 40.2398 55.2706 40.3764 55.2263 40.5023C55.1821 40.6282 55.0999 40.7374 54.9911 40.8148C54.8824 40.8922 54.7523 40.934 54.6188 40.9346H54.6135Z" fill="#9C6137" fill-opacity="0.69"/>
<path d="M44.3351 40.8045C44.2468 40.8049 44.1594 40.7871 44.0782 40.7523C43.9971 40.7176 43.9239 40.6665 43.8633 40.6024C43.7959 40.535 42.2148 38.8386 42.3092 36.3255C42.3766 34.4519 43.3491 32.6552 45.1923 30.9871C45.3195 30.8721 45.4872 30.8123 45.6584 30.8209C45.8297 30.8295 45.9905 30.9058 46.1055 31.033C46.2205 31.1601 46.2803 31.3278 46.2717 31.4991C46.2631 31.6703 46.1869 31.8311 46.0597 31.9462C44.4907 33.3662 43.6638 34.8502 43.6018 36.3565C43.5203 38.3204 44.7893 39.6986 44.8021 39.7127C44.8885 39.8048 44.9461 39.9201 44.9677 40.0444C44.9894 40.1688 44.9743 40.2967 44.9241 40.4126C44.874 40.5284 44.791 40.627 44.6855 40.6963C44.58 40.7656 44.4566 40.8025 44.3303 40.8025L44.3351 40.8045Z" fill="#9C6137" fill-opacity="0.69"/>
<path d="M49.9982 50.1381C49.9724 50.1381 49.9465 50.1367 49.9207 50.134C47.6125 49.8597 45.935 48.8933 44.9335 47.2617C44.083 45.872 43.9401 44.336 43.9698 43.2921C43.9746 43.1207 44.0473 42.9582 44.1719 42.8404C44.2966 42.7226 44.4629 42.6591 44.6343 42.664C44.8057 42.6688 44.9682 42.7415 45.086 42.8661C45.2038 42.9908 45.2672 43.1571 45.2624 43.3285C45.2119 45.0895 45.716 48.061 49.5204 48.7666C49.9423 46.9402 49.5791 45.3968 48.4354 44.1669C47.8471 43.5421 47.132 43.0503 46.338 42.7246C46.1765 42.667 46.0446 42.5476 45.9711 42.3926C45.8977 42.2376 45.8888 42.0599 45.9465 41.8984C46.0041 41.7369 46.1235 41.6049 46.2785 41.5315C46.4335 41.458 46.6112 41.4492 46.7727 41.5068C47.7617 41.9029 48.6523 42.5101 49.3823 43.286C50.4761 44.4607 51.5766 46.521 50.6122 49.6798C50.5724 49.8118 50.4913 49.9276 50.3808 50.0101C50.2702 50.0926 50.1362 50.1374 49.9982 50.1381Z" fill="#9C6137" fill-opacity="0.69"/>
<path d="M46.5011 40.6671C46.3822 40.6673 46.2655 40.6346 46.1639 40.5727C46.0623 40.5108 45.9799 40.422 45.9255 40.3162C45.8712 40.2104 45.8472 40.0916 45.8561 39.973C45.8651 39.8544 45.9066 39.7405 45.9761 39.644C46.0974 39.4721 48.9348 35.388 45.4498 31.9239C45.3342 31.8018 45.2707 31.6394 45.2728 31.4713C45.2749 31.3031 45.3424 31.1424 45.4609 31.0231C45.5795 30.9039 45.7398 30.8355 45.9079 30.8324C46.0761 30.8293 46.2388 30.8918 46.3616 31.0067C48.5985 33.2307 48.6564 35.6785 48.3114 37.3418C48.0817 38.4334 47.6454 39.471 47.0261 40.3988C46.9664 40.4822 46.8875 40.55 46.7962 40.5967C46.7049 40.6433 46.6037 40.6675 46.5011 40.6671Z" fill="#9C6137" fill-opacity="0.69"/>
<path d="M10.5978 37.4631C10.597 37.3787 10.6128 37.2949 10.6444 37.2166C10.676 37.1384 10.7228 37.0671 10.782 37.007C10.8413 36.9468 10.9118 36.899 10.9897 36.8663C11.0675 36.8335 11.151 36.8165 11.2354 36.8161C11.5933 36.8121 11.8864 37.0318 11.8898 37.4631C11.8864 37.6321 11.8182 37.7934 11.6993 37.9136C11.5804 38.0337 11.4199 38.1036 11.2509 38.1087H11.2415C11.0711 38.1065 10.9084 38.0377 10.7882 37.917C10.6679 37.7964 10.5996 37.6334 10.5978 37.4631ZM11.5414 35.8584C11.4656 35.8201 11.3981 35.7671 11.3427 35.7027C11.2874 35.6382 11.2453 35.5634 11.2189 35.4827C11.1925 35.402 11.1823 35.3168 11.1888 35.2321C11.1953 35.1474 11.2185 35.0648 11.257 34.989C11.3347 34.8365 11.4697 34.721 11.6323 34.6677C11.795 34.6145 11.9721 34.6277 12.125 34.7046C12.2008 34.7431 12.2682 34.7962 12.3235 34.8607C12.3788 34.9253 12.4208 35.0001 12.4471 35.0809C12.4735 35.1617 12.4836 35.2469 12.4771 35.3316C12.4705 35.4163 12.4473 35.4989 12.4087 35.5747C12.3551 35.6814 12.2728 35.7711 12.171 35.8336C12.0692 35.8961 11.952 35.929 11.8325 35.9285C11.7311 35.9283 11.6312 35.9043 11.5407 35.8584H11.5414ZM12.7248 33.8999C12.6439 33.7485 12.6265 33.5712 12.6763 33.4069C12.7261 33.2426 12.839 33.1048 12.9904 33.0238C13.0655 32.9836 13.1479 32.9587 13.2327 32.9506C13.3175 32.9424 13.4031 32.9511 13.4846 32.9761C13.566 33.0012 13.6417 33.0421 13.7072 33.0966C13.7728 33.151 13.8269 33.2179 13.8665 33.2934C13.9474 33.4447 13.965 33.622 13.9153 33.7863C13.8657 33.9505 13.7529 34.0884 13.6016 34.1695C13.508 34.2194 13.4037 34.2458 13.2977 34.2463C13.1796 34.2465 13.0636 34.2143 12.9625 34.1533C12.8614 34.0922 12.779 34.0046 12.7242 33.8999H12.7248Z" fill="#9C6137" fill-opacity="0.69"/>
<path d="M49.5541 34.8758C49.5525 34.7041 49.6188 34.5386 49.7386 34.4156C49.8584 34.2925 50.022 34.2217 50.1937 34.2187C50.3658 34.2182 50.5311 34.2856 50.6537 34.4065C50.7763 34.5273 50.8461 34.6916 50.8481 34.8637C50.8495 34.9489 50.8341 35.0336 50.8028 35.1129C50.7714 35.1922 50.7247 35.2646 50.6654 35.3258C50.606 35.387 50.5352 35.4359 50.4569 35.4697C50.3786 35.5035 50.2944 35.5216 50.2092 35.5228H50.2004C50.0294 35.5212 49.8658 35.4525 49.7449 35.3315C49.624 35.2105 49.5555 35.0469 49.5541 34.8758ZM49.0392 32.984C49.001 32.9082 48.9781 32.8256 48.9719 32.7409C48.9657 32.6562 48.9762 32.5712 49.003 32.4906C49.0297 32.41 49.0721 32.3355 49.1277 32.2713C49.1833 32.2072 49.251 32.1546 49.327 32.1167C49.4028 32.0783 49.4854 32.0553 49.5701 32.0489C49.6547 32.0425 49.7399 32.0529 49.8205 32.0796C49.9012 32.1062 49.9758 32.1485 50.04 32.204C50.1043 32.2595 50.157 32.3272 50.195 32.4031C50.2718 32.5563 50.2848 32.7338 50.2311 32.8966C50.1775 33.0594 50.0615 33.1943 49.9086 33.2718C49.8182 33.3162 49.7188 33.3393 49.6181 33.3392C49.4982 33.3396 49.3805 33.3066 49.2782 33.2439C49.1759 33.1812 49.0932 33.0912 49.0392 32.984ZM47.8793 31.3827C47.8793 31.1469 47.5889 30.7384 47.8254 30.4702C48.0627 30.2006 48.4178 30.1784 48.7407 30.4149C48.9563 30.6522 49.0062 31.0606 48.771 31.3288C48.7126 31.3968 48.6402 31.4515 48.5588 31.489C48.4774 31.5266 48.3889 31.5462 48.2992 31.5465C48.1432 31.5494 47.9923 31.4905 47.8793 31.3827Z" fill="#9C6137" fill-opacity="0.69"/>
<path d="M6.90702 9.44928C6.51932 9.02108 6.53843 8.63622 6.91007 8.29973C7.10398 8.12417 7.33293 8.01979 7.55806 7.99239L7.06271 6.77951C6.68211 6.83006 6.24462 7.09384 5.88913 7.4157C4.80651 8.39592 4.78653 9.5755 5.67165 10.5531L5.84721 10.747L5.17663 11.3541L6.05443 12.3237L6.72501 11.7165L9.69492 14.9967L10.9553 13.8556L7.98539 10.5754L9.06801 9.59515L8.19021 8.62563L7.07526 9.63511L6.90702 9.44928Z" fill="#463B32"/>
<path d="M10.6814 7.55095L10.2318 6.9153L8.89787 7.85883L12.3047 12.6754L13.7013 11.6875L12.0929 9.41355C11.4407 8.49142 11.6534 7.70969 12.4233 7.1651C12.5307 7.08912 12.6266 7.03474 12.7493 6.96138L11.8374 5.67218C11.0944 6.19777 10.6924 6.84477 10.6814 7.55095Z" fill="#463B32"/>
<path d="M15.1835 3.94636C14.34 4.35871 13.5969 5.00145 13.2195 5.6963L14.2914 6.49696C14.5254 6.0059 15.013 5.53664 15.5721 5.26335C16.396 4.86059 16.9754 5.05135 17.2966 5.70854L16.0803 6.30308C14.4717 7.08941 14.1309 8.05804 14.5864 8.98988C15.0323 9.9021 16.1036 10.2291 17.3395 9.62498C18.1144 9.2462 18.5391 8.72267 18.5886 8.10299L18.9098 8.76018L20.3419 8.06016L18.8699 5.04885C18.0884 3.45001 16.7922 3.16003 15.1835 3.94636ZM17.2186 8.40806C16.6791 8.67177 16.2308 8.57497 16.0438 8.19242C15.8712 7.8393 15.9673 7.46419 16.6834 7.11418L17.7329 6.60114L17.9966 7.14063C18.055 7.70757 17.7287 8.15874 17.2186 8.40806Z" fill="#463B32"/>
<path d="M24.0434 0.928303L24.2274 1.65882C23.6547 1.21764 22.9316 1.11833 22.1375 1.31836C20.56 1.71577 19.5643 3.12631 19.9831 4.7885C20.4018 6.45069 21.947 7.2211 23.5245 6.8237C24.2656 6.63699 24.8315 6.24671 25.1456 5.66094L25.2069 5.90444C25.4656 6.9314 25.0908 7.58878 23.9262 7.88217C23.1957 8.0662 22.3377 8.01215 21.752 7.74311L21.3943 9.09424C22.192 9.44498 23.3068 9.44561 24.3867 9.17356C26.4406 8.65613 27.3386 7.39405 26.8052 5.27662L25.6103 0.533562L24.0434 0.928303ZM23.5113 5.38585C22.6431 5.60456 21.8665 5.20347 21.6558 4.36709C21.4451 3.5307 21.939 2.80955 22.8071 2.59084C23.6753 2.37213 24.4413 2.77589 24.652 3.61228C24.8627 4.44866 24.3794 5.16715 23.5113 5.38585Z" fill="#463B32"/>
<path d="M29.2782 1.0037L29.2232 0.23048L27.6005 0.345941L28.0174 6.205L29.7163 6.08411L29.5195 3.31794C29.4397 2.19623 30.024 1.64021 30.9606 1.57356C31.0912 1.56427 31.2009 1.56741 31.3433 1.56822L31.2317 0C30.3278 0.0643171 29.6517 0.407952 29.2782 1.0037Z" fill="#463B32"/>
<path d="M34.9957 0.181668C34.0604 0.0986907 33.0921 0.26488 32.4099 0.664714L32.9138 1.90415C33.3678 1.60464 34.0278 1.45494 34.6477 1.50994C35.5612 1.59099 35.9586 2.05371 35.8939 2.78236L34.5454 2.66271C32.7619 2.50448 31.9695 3.1576 31.8779 4.19075C31.7881 5.20215 32.5363 6.03578 33.9065 6.15735C34.7657 6.23358 35.3998 6.00485 35.7624 5.49994L35.6978 6.22859L37.2856 6.36945L37.5818 3.03075C37.7391 1.25808 36.7792 0.339904 34.9957 0.181668ZM34.432 5.05308C33.8338 5.00001 33.5 4.68542 33.5377 4.26128C33.5724 3.86977 33.8486 3.59833 34.6425 3.66877L35.8061 3.772L35.7531 4.37014C35.51 4.88566 34.9975 5.10325 34.432 5.05308Z" fill="#463B32"/>
<path d="M43.3243 1.78043C42.5592 1.5493 41.8197 1.61186 41.2339 1.96101L41.4333 1.30069L39.8716 0.828928L38.1682 6.46784L39.8033 6.96177L40.6455 4.17376C40.9589 3.13611 41.6706 2.82495 42.4567 3.06242C43.1799 3.28089 43.4725 3.82679 43.197 4.73866L42.2978 7.71533L43.9329 8.20926L44.9081 4.98103C45.4273 3.26211 44.6554 2.18254 43.3243 1.78043Z" fill="#463B32"/>
<path d="M47.1911 10.0601C48.2768 10.6523 49.3939 10.6383 50.2193 10.0164L49.4027 8.74819C48.8515 9.09582 48.3231 9.08185 47.8523 8.82506C47.0933 8.41105 46.7858 7.5577 47.2785 6.65456C47.7711 5.75143 48.655 5.54792 49.414 5.96193C49.8848 6.21872 50.1774 6.66504 50.1888 7.30702L51.6919 7.31663C51.7784 6.26676 51.1801 5.32956 50.0944 4.73737C48.4131 3.82026 46.6094 4.27008 45.7604 5.82654C44.9114 7.38301 45.5098 9.14299 47.1911 10.0601Z" fill="#463B32"/>
<path d="M56.1211 12.8769C57.3189 11.4165 57.023 9.67697 55.6892 8.58296C54.3048 7.44742 52.4633 7.57497 51.3486 8.93405C50.2407 10.2847 50.452 12.1102 52.0221 13.398C52.841 14.0697 53.6818 14.3357 54.4986 14.2008L54.4211 12.8663C53.8664 12.9056 53.4026 12.7652 52.9214 12.3706C52.2292 11.8028 52.0319 11.062 52.3692 10.3926L55.8049 13.2107C55.9034 13.1078 56.038 12.9782 56.1211 12.8769ZM54.8806 9.58599C55.4715 10.0707 55.5974 10.7952 55.2194 11.4454L52.9824 9.61054C53.553 9.10424 54.2813 9.09438 54.8806 9.58599Z" fill="#463B32"/>
<path d="M24.6006 58.3684C24.7515 57.8098 25.0861 57.6174 25.571 57.7483C25.824 57.8166 26.0359 57.953 26.181 58.1279L26.9347 57.0535C26.686 56.7602 26.2267 56.5344 25.7629 56.4092C24.3505 56.0278 23.3457 56.6499 23.0013 57.9253L22.933 58.1783L22.0581 57.942L21.7166 59.2069L22.5915 59.4431L21.436 63.7226L23.0803 64.1665L24.2358 59.8871L25.6482 60.2685L25.9898 59.0036L24.5352 58.6109L24.6006 58.3684Z" fill="#463B32"/>
<path d="M27.9619 59.8497L28.0417 59.0787L26.4236 58.9112L25.8188 64.7538L27.5129 64.9292L27.7985 62.1708C27.9143 61.0522 28.5861 60.6059 29.5201 60.7025C29.6504 60.716 29.7579 60.7381 29.8979 60.7636L30.0598 59.1998C29.1584 59.1065 28.433 59.3277 27.9619 59.8497Z" fill="#463B32"/>
<path d="M36.6044 61.6959C36.4096 59.8172 34.9654 58.8035 33.2495 58.9814C31.4685 59.166 30.2634 60.5643 30.4447 62.3127C30.6249 64.0503 32.0707 65.1846 34.0906 64.9752C35.144 64.8659 35.9247 64.4557 36.4035 63.7804L35.4008 62.8965C35.0384 63.3182 34.6123 63.549 33.9932 63.6132C33.1027 63.7055 32.4376 63.3245 32.1992 62.6137L36.6191 62.1554C36.6154 62.0131 36.6179 61.8263 36.6044 61.6959ZM33.3933 60.2617C34.1534 60.1829 34.7568 60.6033 34.9529 61.3293L32.075 61.6278C32.1168 60.8661 32.6222 60.3417 33.3933 60.2617Z" fill="#463B32"/>
<path d="M43.3615 59.289C42.696 57.5213 41.0416 56.9075 39.4272 57.5153C37.7515 58.1462 36.9409 59.8046 37.5602 61.4497C38.1757 63.0845 39.8622 63.8146 41.7627 63.0991C42.7538 62.7259 43.4048 62.1309 43.6964 61.3561L42.5021 60.7558C42.2587 61.2558 41.9051 61.5872 41.3227 61.8064C40.4848 62.1219 39.7447 61.9222 39.3337 61.2953L43.4924 59.7297C43.4526 59.593 43.4076 59.4116 43.3615 59.289ZM39.8914 58.7172C40.6066 58.4479 41.297 58.7013 41.671 59.3538L38.9632 60.3732C38.8102 59.6258 39.1659 58.9903 39.8914 58.7172Z" fill="#463B32"/>
</svg>
