<svg width="60" height="63" viewBox="0 0 60 63" fill="none" xmlns="http://www.w3.org/2000/svg">
<path d="M21.4375 36.2723L20.6621 35.1024L18.954 37.3773L18.9455 37.3883C17.5052 39.3629 16.4036 40.967 15.7127 42.3748C14.6532 44.5326 14.7338 46.7782 15.9271 48.3823C16.5498 49.2208 17.1757 49.8317 18.3664 50.2906C18.5985 50.3756 18.8378 50.4395 19.0814 50.4817C19.1997 50.5038 19.3182 50.5231 19.4369 50.5395C19.4876 50.5467 19.548 50.5551 19.5987 50.5603C19.9926 50.6091 20.3897 50.6261 20.7862 50.611C21.1907 50.578 21.5933 50.5246 21.9925 50.4511C22.628 50.3287 23.2336 50.0837 23.7754 49.7297C24.3132 49.3629 24.7842 48.9067 25.1682 48.381C26.381 46.7496 26.4584 44.5001 25.3756 42.3631C24.7665 41.1626 23.6571 39.5397 22.5853 37.97C22.1745 37.3714 21.7897 36.8079 21.4375 36.2723ZM23.5771 47.1981C22.8407 48.188 22.0263 48.578 20.5717 48.6352L20.3598 48.6436L19.9855 48.6072C19.6769 48.5846 19.3718 48.5281 19.0755 48.4389C18.3144 48.1457 17.9654 47.8052 17.5156 47.1981C16.774 46.2011 16.7643 44.7244 17.4903 43.2457C18.1175 41.9686 19.1639 40.4509 20.5412 38.5602L20.5659 38.5277L20.948 39.086C21.9841 40.6037 23.0565 42.1726 23.607 43.2574C24.3415 44.7088 24.3298 46.1816 23.5745 47.1981H23.5771Z" fill="#463B32"/>
<path d="M40.6463 20.7221C40.6497 20.7441 40.6584 20.7649 40.6717 20.7828C40.6849 20.8007 40.7023 20.8151 40.7223 20.8248C41.2686 21.1062 41.7787 21.453 42.2413 21.8576C42.2666 21.8794 42.2989 21.8914 42.3323 21.8914C42.3506 21.8915 42.3688 21.8879 42.3858 21.8808C42.4027 21.8738 42.4181 21.8635 42.4311 21.8504L47.8796 16.3681C48.0141 16.2288 48.1047 16.0531 48.14 15.8628C48.1753 15.6725 48.1538 15.476 48.0782 15.2978C48.0025 15.1197 47.8762 14.9677 47.7148 14.8608C47.5534 14.754 47.3641 14.697 47.1705 14.697C47.0386 14.6964 46.9078 14.7226 46.7863 14.774C46.6647 14.8254 46.5549 14.9009 46.4634 14.996C46.4634 14.996 43.6796 17.7011 40.6872 20.6006C40.6711 20.616 40.659 20.6352 40.6518 20.6563C40.6447 20.6775 40.6428 20.7001 40.6463 20.7221Z" fill="#463B32"/>
<path d="M28.652 32.2537C28.5676 32.059 28.4705 31.8701 28.3615 31.6882L28.3394 31.655C28.3282 31.6371 28.3131 31.6219 28.2952 31.6106C28.2773 31.5993 28.257 31.5923 28.236 31.59C28.215 31.588 28.1939 31.5907 28.1741 31.5979C28.1543 31.6051 28.1364 31.6166 28.1216 31.6316C27.3716 32.4025 25.7005 34.1938 23.1573 36.9522C23.1388 36.9724 23.1266 36.9975 23.1222 37.0245C23.1178 37.0516 23.1214 37.0793 23.1326 37.1043C23.1592 37.1621 23.2976 37.3643 23.6317 37.8387C23.8391 38.1338 24.0529 38.4386 24.1569 38.5992C24.1681 38.6174 24.1834 38.6327 24.2016 38.644C24.2197 38.6552 24.2403 38.6622 24.2615 38.6642H24.2739C24.2931 38.6643 24.3121 38.6603 24.3297 38.6526C24.3472 38.6449 24.363 38.6335 24.3759 38.6193C26.342 36.4933 27.8961 34.8171 28.9906 33.6381C29.0068 33.621 29.0184 33.6002 29.0242 33.5774C29.03 33.5546 29.0298 33.5308 29.0238 33.5081L29.0127 33.4645C28.9965 33.3995 28.9796 33.3397 28.9607 33.2734C28.899 33.0505 28.8346 32.8185 28.7592 32.5962C28.7521 32.5741 28.7274 32.5104 28.6988 32.4363L28.6617 32.3381C28.6672 32.3096 28.6638 32.2802 28.652 32.2537Z" fill="#463B32"/>
<path d="M35.6208 48.2692C35.379 50.1002 35.0553 51.1453 35.0501 51.1615C34.9719 51.4306 35.0019 51.7196 35.1337 51.9669C35.2656 52.2141 35.489 52.4 35.756 52.4849C36.0231 52.5697 36.3128 52.5468 36.5632 52.421C36.8136 52.2951 37.0049 52.0764 37.0962 51.8115C37.1313 51.701 37.9594 49.0615 38.0257 44.7114C38.0861 40.7622 37.4992 34.5766 34.3859 27.4674L36.1954 27.9223C36.3752 27.9677 36.5637 27.9657 36.7425 27.9166C36.9213 27.8675 37.0844 27.773 37.2158 27.6422L37.8079 27.0527L38.2278 27.8242C38.2976 27.9509 38.3922 28.0623 38.506 28.1516C38.6198 28.241 38.7504 28.3065 38.8901 28.3442L45.2707 30.0698C45.362 30.0948 45.4562 30.1075 45.5508 30.1075C45.7055 30.1075 45.8582 30.074 45.9988 30.0095C46.1393 29.945 46.2642 29.8509 46.365 29.7336C46.4657 29.6164 46.54 29.4787 46.5827 29.3301C46.6254 29.1815 46.6354 29.0254 46.6122 28.8726C46.4172 27.5727 45.8115 26.1954 44.9126 24.9943C44.8282 24.8814 44.7223 24.7862 44.6011 24.7142C44.4799 24.6422 44.3456 24.5948 44.2061 24.5747C44.0665 24.5546 43.9244 24.5622 43.7878 24.597C43.6511 24.6319 43.5228 24.6933 43.4099 24.7778C43.3806 24.7999 43.3533 24.8227 43.3273 24.8467C43.3494 24.8207 43.3728 24.796 43.3923 24.7674C43.4744 24.6527 43.5329 24.5229 43.5648 24.3855C43.5966 24.2481 43.6011 24.1058 43.5779 23.9667C43.5547 23.8275 43.5044 23.6943 43.4297 23.5747C43.355 23.455 43.2575 23.3513 43.1428 23.2693C43.0178 23.182 42.8766 23.1205 42.7275 23.0885C42.5784 23.0566 42.4244 23.0547 42.2746 23.0831C42.1248 23.1115 41.9821 23.1696 41.8551 23.2539C41.728 23.3382 41.6191 23.4471 41.5348 23.5741C41.3797 23.813 41.3258 24.1035 41.3848 24.3821C41.4438 24.6606 41.6108 24.9044 41.8493 25.0599C42.0332 25.1834 42.2493 25.2501 42.4707 25.2517C42.6937 25.2517 42.9114 25.1836 43.0947 25.0567C43.1187 25.0404 43.1415 25.0222 43.1642 25.004C43.187 24.9858 43.2169 24.9585 43.2422 24.9351C43.0813 25.1203 42.9887 25.355 42.9797 25.6001C42.9707 25.8452 43.0459 26.0861 43.1928 26.2825C43.4757 26.6599 43.723 27.0626 43.9318 27.4856L39.893 26.3923L39.0064 24.7674C38.9266 24.6211 38.8139 24.4953 38.677 24.4001C38.5402 24.3048 38.383 24.2428 38.2181 24.2188C38.0531 24.1949 37.8848 24.2096 37.7265 24.262C37.5682 24.3143 37.4243 24.4028 37.3062 24.5205L36.1304 25.6904L30.9899 24.3905C33.2576 23.0022 37.0475 22.8345 40.0048 23.9933C40.2673 24.0848 40.555 24.0709 40.8074 23.9546C41.0599 23.8383 41.2574 23.6286 41.3584 23.3697C41.4594 23.1107 41.4561 22.8227 41.3491 22.5661C41.2421 22.3096 41.0398 22.1045 40.7847 21.9941C39.5117 21.504 38.1724 21.2078 36.8115 21.1153L36.8499 20.9204L38.0237 21.0926C38.2018 21.1187 38.3837 21.0997 38.5526 21.0372C38.7214 20.9747 38.8719 20.8709 38.9902 20.7351L42.422 16.7886C42.5427 16.6499 42.6258 16.4825 42.6632 16.3024C42.7006 16.1224 42.6912 15.9357 42.6357 15.7604C42.5802 15.585 42.4806 15.4269 42.3465 15.3011C42.2123 15.1754 42.048 15.0862 41.8695 15.0421C38.5508 14.2212 35.5584 14.6431 33.2147 16.2621C31.4156 17.5055 30.2489 19.261 29.5814 20.9152C28.0131 18.7963 25.5413 17.3059 22.6574 16.8081C18.9078 16.1581 15.2167 17.278 12.7872 19.7979C12.6545 19.9356 12.561 20.1063 12.5164 20.2923C12.4717 20.4782 12.4776 20.6728 12.5333 20.8557C12.589 21.0387 12.6926 21.2034 12.8333 21.333C12.9741 21.4625 13.1469 21.552 13.3338 21.5924L20.0583 23.0444C20.2189 23.081 20.3857 23.0802 20.5459 23.0421C20.7062 23.004 20.8555 22.9297 20.9825 22.8247L21.4342 22.4406L21.4609 22.6674C21.4872 22.8916 21.5835 23.1018 21.7361 23.2681C21.8887 23.4344 22.0899 23.5483 22.311 23.5936L23.7903 23.8978C21.8404 24.6024 19.9816 25.7489 18.5783 27.2126C16.3685 29.5108 15.5118 32.3706 16.1605 35.2662C16.1997 35.4405 16.2818 35.6022 16.3993 35.7368C16.5168 35.8713 16.6659 35.9745 16.8333 36.0369C17.0007 36.0993 17.181 36.119 17.3579 36.0941C17.5348 36.0693 17.7027 36.0008 17.8465 35.8947L24.1387 31.2423C24.4507 31.0122 24.6112 30.8712 24.5677 30.2531C24.918 30.5618 25.3021 30.2953 25.5842 30.0581L30.0169 26.3455C30.0763 26.3728 30.1381 26.3945 30.2015 26.4105L32.5543 27.0052C32.4082 27.159 32.3109 27.3526 32.2747 27.5617C32.2385 27.7707 32.265 27.9858 32.3509 28.1797C32.8617 29.3347 33.3011 30.4624 33.6807 31.5595L31.4936 31.9189C31.374 31.1754 31.2297 30.4121 31.0607 29.6291C30.9947 29.3568 30.8248 29.121 30.5873 28.9722C30.3498 28.8234 30.0636 28.7733 29.7897 28.8327C29.5158 28.8921 29.276 29.0563 29.1214 29.2901C28.9669 29.5239 28.9099 29.8088 28.9627 30.0841C30.3672 36.5505 29.8076 41.5669 29.0927 44.6373C28.3192 47.9592 27.1987 49.783 27.1844 49.8064C27.0327 50.0477 26.9831 50.3394 27.0465 50.6173C27.1098 50.8952 27.281 51.1366 27.5224 51.2883C27.7637 51.44 28.0554 51.4896 28.3333 51.4262C28.6112 51.3628 28.8526 51.1916 29.0043 50.9503C29.0751 50.8372 29.6984 49.8246 30.3568 47.9917L35.6208 48.2692ZM34.4366 18.0384C35.8665 17.0512 37.5824 16.6462 39.5537 16.8256L37.7566 18.8925L36.1564 18.6572C35.8842 18.617 35.607 18.6827 35.382 18.8409C35.1569 18.9991 35.0011 19.2377 34.9468 19.5073L34.6218 21.1322C33.5758 21.213 32.5445 21.4279 31.5534 21.7718C32.0968 20.4036 33.0593 18.9887 34.4366 18.0384ZM23.3308 20.1996C23.3081 20.0064 23.2334 19.823 23.1147 19.669C22.996 19.515 22.8377 19.3961 22.6567 19.3249C22.4757 19.2538 22.2787 19.2332 22.0869 19.2652C21.8951 19.2972 21.7156 19.3807 21.5675 19.5067L19.992 20.845L16.0032 19.9831C17.7925 18.9302 20.0212 18.5389 22.2909 18.9315C24.8055 19.367 26.9192 20.7091 28.1294 22.5979L23.4991 21.6464L23.3308 20.1996ZM24.6586 28.0348L23.3587 27.6182C23.1751 27.5593 22.979 27.551 22.7911 27.5941C22.6031 27.6372 22.4302 27.7302 22.2906 27.8632C22.151 27.9961 22.0497 28.1643 21.9975 28.3499C21.9453 28.5355 21.944 28.7318 21.9938 28.9181L22.2714 29.9509L18.1012 33.031C18.2065 31.126 19.1951 29.6629 20.1246 28.6964C22.0809 26.6588 25.3002 25.2926 27.9767 25.2549L24.6586 28.0348ZM31.0113 45.8781C31.2258 45.0617 31.424 44.1518 31.5852 43.1521L35.858 42.8876C35.8801 43.4927 35.8866 44.0575 35.8801 44.5833C35.8736 45.128 35.8535 45.6434 35.8242 46.1296L31.0113 45.8781ZM35.3569 38.0786C35.5155 39.0158 35.6306 39.9056 35.7125 40.7434L31.8569 40.9819C31.9297 40.1701 31.9765 39.3128 31.9869 38.41L35.3569 38.0786ZM34.3391 33.629C34.5696 34.4284 34.7696 35.206 34.939 35.9617L31.9492 36.2567C31.9154 35.5452 31.8584 34.8086 31.7783 34.0469L34.3391 33.629Z" fill="#9C6137" fill-opacity="0.69"/>
<path d="M17.5377 58.9721C17.7753 58.9724 18.0059 58.8918 18.1916 58.7435C18.3772 58.5952 18.5069 58.3882 18.5592 58.1564C18.6114 57.9247 18.5832 57.682 18.4792 57.4684C18.3752 57.2548 18.2015 57.083 17.9868 56.9813C15.5273 55.8131 13.2537 54.2881 11.2397 52.4556C11.2598 52.4556 11.28 52.4589 11.3001 52.4589H11.3482C11.5538 52.4486 11.7511 52.3743 11.9124 52.2463C11.954 52.2125 15.2356 48.656 15.3753 48.5045C15.3945 48.4834 15.4069 48.4569 15.4107 48.4286C15.4146 48.4002 15.4097 48.3714 15.3968 48.3459C15.244 48.0509 15.0809 47.7382 14.9028 47.4288C14.7858 47.2248 14.6526 46.994 14.5018 46.7789C14.4897 46.7618 14.474 46.7477 14.4558 46.7374C14.4376 46.7272 14.4173 46.7211 14.3965 46.7197C14.3756 46.7186 14.3548 46.7221 14.3353 46.7298C14.3159 46.7376 14.2984 46.7494 14.284 46.7646C12.1528 49.0973 10.7808 50.5993 10.6761 50.7111C10.5496 50.8154 10.4511 50.9496 10.3895 51.1016C10.3279 51.2535 10.3051 51.4185 10.3232 51.5814C5.15866 46.4416 2.09152 39.3681 2.09152 31.8955C2.08111 26.1813 3.84854 20.6053 7.14883 15.9404C7.22799 15.8281 7.28428 15.7014 7.31446 15.5674C7.34465 15.4334 7.34815 15.2948 7.32476 15.1595C7.30138 15.0241 7.25156 14.8947 7.17816 14.7786C7.10476 14.6625 7.00921 14.562 6.89697 14.4829C6.78473 14.4037 6.658 14.3474 6.524 14.3172C6.39001 14.287 6.25139 14.2835 6.11604 14.3069C5.9807 14.3303 5.85129 14.3801 5.7352 14.4535C5.61911 14.5269 5.51861 14.6225 5.43944 14.7347C2.01911 19.5878 0.127084 25.3523 0.00617933 31.2884C-0.114726 37.2244 1.54101 43.0612 4.76089 48.0496C7.78414 52.7332 12.0538 56.4809 17.0899 58.8713C17.2299 58.9376 17.3828 58.9721 17.5377 58.9721Z" fill="#463B32"/>
<path d="M7.41531 12.2285C7.2707 12.3869 7.17244 12.5821 7.13128 12.7926C7.08034 13.021 7.1074 13.2599 7.20814 13.471C7.30889 13.6822 7.4775 13.8535 7.68704 13.9576C7.89658 14.0617 8.13497 14.0926 8.36411 14.0453C8.59326 13.998 8.79995 13.8753 8.95116 13.6967C9.08052 13.5497 9.17121 13.3728 9.21504 13.182C9.27429 12.9542 9.25499 12.7131 9.16025 12.4977C9.0655 12.2822 8.90086 12.1051 8.69295 11.9948C8.48503 11.8845 8.246 11.8476 8.0145 11.89C7.783 11.9324 7.57258 12.0517 7.41726 12.2285H7.41531Z" fill="#463B32"/>
<path d="M54.2089 14.697C54.1331 14.5769 54.0336 14.4734 53.9164 14.393C53.7993 14.3126 53.667 14.2569 53.5276 14.2294C53.3883 14.2018 53.2447 14.2029 53.1058 14.2326C52.9669 14.2623 52.8354 14.32 52.7196 14.4022C52.6037 14.4844 52.5058 14.5894 52.4318 14.7107C52.3578 14.832 52.3093 14.967 52.2893 15.1077C52.2692 15.2484 52.278 15.3916 52.3152 15.5287C52.3524 15.6659 52.4171 15.794 52.5054 15.9053C54.7688 19.1082 56.3269 22.7549 57.0767 26.6045C57.8265 30.4541 57.751 34.419 56.8551 38.2373C55.9592 42.0556 54.2633 45.6403 51.8795 48.7546C49.4957 51.869 46.4782 54.4421 43.0264 56.304C42.7978 56.4437 42.6316 56.6658 42.5619 56.9245C42.4923 57.1831 42.5246 57.4587 42.6521 57.6942C42.7796 57.9298 42.9927 58.1075 43.2474 58.1906C43.5021 58.2736 43.7789 58.2558 44.0208 58.1408C47.7325 56.1379 50.9769 53.3703 53.5398 50.0208C56.1028 46.6713 57.9259 42.8161 58.8888 38.7099C59.8517 34.6038 59.9325 30.34 59.1258 26.2003C58.319 22.0606 56.6432 18.1392 54.2089 14.6951V14.697Z" fill="#463B32"/>
<path d="M50.2162 10.9019C50.0011 10.9975 49.8239 11.1619 49.7125 11.3692C49.5806 11.5674 49.5203 11.8046 49.5416 12.0417C49.5629 12.2788 49.6644 12.5015 49.8295 12.6731C49.9305 12.7825 50.053 12.87 50.1893 12.9299C50.3256 12.9898 50.4729 13.021 50.6218 13.0214C50.8129 13.0223 51.0005 12.9712 51.1647 12.8735C51.3289 12.7759 51.4635 12.6353 51.5538 12.467C51.684 12.2712 51.7445 12.0372 51.7255 11.8028C51.7065 11.5684 51.6092 11.3472 51.4492 11.1749C51.2988 11.0051 51.0985 10.8872 50.8771 10.8381C50.6556 10.7891 50.4243 10.8114 50.2162 10.9019Z" fill="#463B32"/>
<path d="M11.4432 6.27892C10.8323 6.6405 10.4557 7.12694 10.3608 7.72159L10.0494 7.19552L8.78514 7.9438L12.4613 14.1548L13.7849 13.3714L12.5244 11.2417C13.0848 11.4141 13.6569 11.3161 14.2254 10.9796C15.5066 10.2213 15.957 8.71733 15.1083 7.28336C14.2596 5.84939 12.7244 5.52059 11.4432 6.27892ZM13.3535 10.0291C12.6917 10.4209 11.9098 10.242 11.4428 9.45288C10.9757 8.66377 11.1951 7.89231 11.8569 7.50059C12.5188 7.10888 13.3006 7.28774 13.7677 8.07685C14.2347 8.86595 14.0153 9.63741 13.3535 10.0291Z" fill="#463B32"/>
<path d="M17.4687 3.48808C16.6716 3.7679 15.9401 4.26415 15.53 4.84539L16.4037 5.67342C16.6643 5.25921 17.1493 4.89114 17.6775 4.70567C18.4561 4.43236 18.9537 4.66367 19.1717 5.28464L18.0224 5.68811C16.5025 6.22172 16.0962 7.05143 16.4053 7.93191C16.7079 8.79386 17.6308 9.19861 18.7986 8.78864C19.5308 8.53159 19.9652 8.10841 20.0746 7.5599L20.2926 8.18088L21.6457 7.70583L20.6468 4.86047C20.1165 3.34975 18.9887 2.95447 17.4687 3.48808ZM18.8184 7.68857C18.3087 7.86753 17.9182 7.73393 17.7913 7.37247C17.6742 7.03881 17.7995 6.71373 18.4761 6.47621L19.4678 6.12806L19.6468 6.63781C19.6394 7.15052 19.3004 7.51938 18.8184 7.68857Z" fill="#463B32"/>
<path d="M22.8871 7.47594L24.3928 7.16192L22.8992 0L21.3935 0.314017L22.8871 7.47594Z" fill="#463B32"/>
<path d="M32.2175 1.21493C31.419 1.2279 30.7341 1.56443 30.319 2.11353C29.935 1.53796 29.2994 1.2623 28.56 1.27431C27.8797 1.28535 27.2921 1.53156 26.9051 1.99145L26.8952 1.38022L25.4262 1.40406L25.5123 6.70796L27.0503 6.683L27.0071 4.02119C26.9917 3.07477 27.4676 2.62329 28.1478 2.61225C28.7886 2.60185 29.1598 2.99027 29.1737 3.84796L29.2192 6.64779L30.7571 6.62283L30.7139 3.96102C30.6985 3.0146 31.1744 2.56312 31.8645 2.55192C32.4856 2.54184 32.8765 2.92994 32.8904 3.78763L32.9358 6.58746L34.4738 6.56249L34.4245 3.52606C34.3982 1.90926 33.4794 1.19445 32.2175 1.21493Z" fill="#463B32"/>
<path d="M40.1639 8.24317C41.7699 8.75634 43.2796 8.04838 43.7658 6.52687C44.252 5.00536 43.4325 3.55315 41.8264 3.03998C40.2204 2.52681 38.7013 3.23177 38.2151 4.75328C37.729 6.27479 38.5578 7.73 40.1639 8.24317ZM40.548 7.04099C39.8154 6.80691 39.42 6.1009 39.6991 5.22744C39.9781 4.35398 40.7097 4.00808 41.4423 4.24216C42.1749 4.47624 42.561 5.17925 42.2819 6.05271C42.0028 6.92617 41.2806 7.27507 40.548 7.04099Z" fill="#463B32"/>
<path d="M47.0414 4.41286C47.5561 4.66193 48.0655 4.49214 48.2888 4.03062C48.4949 3.60459 48.3034 3.11759 47.7886 2.86852C47.2738 2.61944 46.7645 2.78923 46.5541 3.22413C46.3436 3.65903 46.5266 4.16378 47.0414 4.41286ZM43.7166 9.51858L45.1012 10.1885L47.4116 5.41348L46.027 4.74355L43.7166 9.51858Z" fill="#463B32"/>
<path d="M46.2694 10.8183L47.5894 11.608L51.3454 5.32974L50.0254 4.54008L46.2694 10.8183Z" fill="#463B32"/>
<path d="M23.0435 56.5788C23.1933 56.0782 23.5001 55.9127 23.9346 56.0427C24.1613 56.1106 24.3494 56.2389 24.476 56.4003L25.1827 55.4488C24.9653 55.1779 24.5563 54.9629 24.1406 54.8385C22.8749 54.4597 21.9526 54.9968 21.6105 56.1397L21.5427 56.3664L20.7587 56.1318L20.4195 57.2653L21.2035 57.4999L20.0558 61.335L21.5294 61.776L22.6771 57.9409L23.9428 58.3197L24.282 57.1862L22.9785 56.7961L23.0435 56.5788Z" fill="#463B32"/>
<path d="M26.2837 58.0774L26.3838 57.3846L24.9297 57.1745L24.1713 62.4246L25.6937 62.6446L26.0517 60.1659C26.1969 59.1608 26.8194 58.7825 27.6586 58.9037C27.7758 58.9206 27.8719 58.9445 27.9974 58.9726L28.2004 57.5673C27.3904 57.4503 26.7278 57.6236 26.2837 58.0774Z" fill="#463B32"/>
<path d="M34.2472 60.1826C34.1789 58.4768 32.9342 57.4798 31.3764 57.5421C29.7594 57.6068 28.5923 58.799 28.6558 60.3865C28.7189 61.964 29.9581 63.0699 31.7921 62.9966C32.7485 62.9583 33.4761 62.6329 33.9466 62.0512L33.0928 61.1965C32.7418 61.5562 32.3442 61.74 31.7822 61.7625C30.9737 61.7948 30.3955 61.4131 30.2212 60.7584L34.2341 60.5979C34.2389 60.4693 34.2519 60.3009 34.2472 60.1826ZM31.4328 58.7052C32.123 58.6775 32.6432 59.0913 32.7784 59.7574L30.1656 59.8619C30.2468 59.1772 30.7327 58.7332 31.4328 58.7052Z" fill="#463B32"/>
<path d="M40.6585 58.4701C40.1979 56.8326 38.7609 56.154 37.2654 56.5746C35.7131 57.0112 34.8576 58.4367 35.2862 59.9606C35.7122 61.4751 37.169 62.2604 38.9295 61.7653C39.8477 61.507 40.4777 61.0234 40.7993 60.3508L39.774 59.7198C39.517 60.1496 39.1742 60.4197 38.6346 60.5714C37.8585 60.7897 37.2098 60.5534 36.8894 59.9591L40.7419 58.8756C40.7167 58.7499 40.6904 58.5837 40.6585 58.4701ZM37.589 57.6889C38.2516 57.5026 38.8514 57.7833 39.1366 58.3976L36.6282 59.1031C36.5487 58.4207 36.9169 57.8779 37.589 57.6889Z" fill="#463B32"/>
</svg>
