<svg width="104" height="109" viewBox="0 0 104 109" fill="none" xmlns="http://www.w3.org/2000/svg">
<path d="M100.859 70.0973C101.293 69.8636 101.617 69.467 101.758 68.9948C101.9 68.5225 101.848 68.0134 101.615 67.5793C101.381 67.1452 100.984 66.8218 100.512 66.6801C100.04 66.5385 99.5307 66.5902 99.0966 66.8239C99.0284 66.8441 98.7027 66.9134 97.8455 66.8239C97.368 66.7974 96.8986 66.9561 96.5351 67.267C96.1717 67.5779 95.9421 68.017 95.8942 68.4928C95.8464 68.9687 95.9839 69.4447 96.2781 69.8217C96.5724 70.1988 97.0007 70.4478 97.4739 70.517C97.8779 70.5573 98.2484 70.5774 98.593 70.5774C99.5376 70.5864 100.261 70.4275 100.859 70.0973Z" fill="#463B32"/>
<path d="M15.2037 85.7716C14.7079 86.0872 14.474 86.1577 14.4203 86.1711C13.9347 86.1779 13.4717 86.3773 13.1332 86.7255C12.7947 87.0737 12.6083 87.5421 12.6152 88.0277C12.622 88.5133 12.8214 88.9762 13.1696 89.3148C13.5178 89.6533 13.9862 89.8396 14.4718 89.8328H14.4818C15.2977 89.8328 16.1605 89.543 17.2102 88.8749C17.4202 88.7461 17.6023 88.5767 17.7458 88.3766C17.8894 88.1765 17.9915 87.9497 18.0461 87.7095C18.1007 87.4694 18.1068 87.2207 18.0639 86.9782C18.0211 86.7357 17.9302 86.5042 17.7965 86.2973C17.6629 86.0904 17.4893 85.9123 17.2858 85.7735C17.0824 85.6347 16.8533 85.5379 16.6119 85.489C16.3705 85.44 16.1218 85.4398 15.8804 85.4883C15.6389 85.5368 15.4096 85.6331 15.2059 85.7716H15.2037Z" fill="#463B32"/>
<path d="M34.3763 99.9451C28.9876 97.9456 24.012 94.9736 19.6969 91.1769C19.3343 90.8772 18.8694 90.7303 18.4005 90.7674C17.9315 90.8045 17.4955 91.0226 17.1845 91.3756C16.8736 91.7285 16.7122 92.1887 16.7346 92.6585C16.7569 93.1284 16.9612 93.5711 17.3042 93.893C21.9521 97.9821 27.3117 101.183 33.1161 103.335C33.3184 103.409 33.532 103.447 33.7473 103.447C34.1715 103.446 34.5819 103.296 34.9069 103.024C35.2319 102.751 35.451 102.373 35.5258 101.956C35.6007 101.538 35.5266 101.108 35.3165 100.739C35.1064 100.371 34.7737 100.088 34.3763 99.9395V99.9451Z" fill="#463B32"/>
<path d="M96.5081 73.4535C96.0673 73.2641 95.5693 73.2571 95.1234 73.4341C94.6774 73.6112 94.3198 73.9578 94.1289 74.3981C91.584 80.3077 87.8509 85.6307 83.1616 90.0365C82.9886 90.1994 82.8493 90.3948 82.7518 90.6115C82.6543 90.8283 82.6004 91.0621 82.5932 91.2997C82.586 91.5372 82.6257 91.7739 82.71 91.9961C82.7943 92.2183 82.9215 92.4217 83.0844 92.5948C83.2473 92.7678 83.4427 92.9071 83.6595 93.0046C83.8762 93.1022 84.11 93.1561 84.3476 93.1632C84.5851 93.1704 84.8218 93.1307 85.044 93.0464C85.2662 92.9621 85.4697 92.8349 85.6427 92.672C90.6935 87.9279 94.7153 82.1962 97.4583 75.8328C97.5525 75.6142 97.6027 75.3792 97.6059 75.1412C97.6092 74.9032 97.5654 74.6669 97.4771 74.4459C97.3889 74.2248 97.2579 74.0234 97.0916 73.8531C96.9253 73.6828 96.727 73.547 96.5081 73.4535Z" fill="#463B32"/>
<path d="M14.2681 25.851C14.5458 25.4775 14.6691 25.0114 14.6122 24.5495C14.5554 24.0875 14.3229 23.6652 13.9629 23.3701C13.6029 23.0751 13.1431 22.93 12.679 22.965C12.2149 23 11.782 23.2123 11.4703 23.558C4.36509 32.23 0.413509 42.7496 0.0296546 53.9776C-0.0855042 57.3544 0.134923 60.7343 0.687692 64.0675C0.736975 64.3664 0.860994 64.648 1.04823 64.8861C1.23547 65.1242 1.47986 65.3111 1.75868 65.4295L0.560112 69.2792C0.482872 69.5135 0.453058 69.7608 0.472401 70.0067C0.491744 70.2526 0.559857 70.4921 0.672774 70.7114C0.785691 70.9307 0.941144 71.1253 1.13007 71.2839C1.31899 71.4425 1.53761 71.5618 1.77315 71.635C2.0087 71.7082 2.25647 71.7338 2.50199 71.7102C2.74752 71.6866 2.98589 71.6144 3.2032 71.4977C3.42051 71.381 3.61241 71.2222 3.7677 71.0306C3.923 70.839 4.03857 70.6183 4.10769 70.3816L11.0797 47.9781C12.1474 46.9709 13.318 46.3755 14.6721 45.6895C16.1135 44.9621 17.7474 44.1351 19.3578 42.6892C20.6537 41.5331 21.737 40.5069 22.6916 39.6016C24.1901 38.1825 25.8856 36.58 26.4597 36.4837C28.896 36.2006 38.8147 37.1552 40.2393 37.9621C40.8761 38.3414 42.9251 40.2876 46.5925 44.4999C42.2279 45.3303 38.6468 40.996 38.6132 40.9546C38.3867 40.672 38.0826 40.4617 37.7383 40.3496C37.394 40.2374 37.0244 40.2283 36.6749 40.3234C33.9051 41.0765 30.7235 41.4156 30.005 41.0363C29.7431 40.8792 29.4465 40.7892 29.1415 40.7743C28.8365 40.7594 28.5325 40.82 28.2565 40.9508C27.9805 41.0815 27.7411 41.2783 27.5594 41.5238C27.3777 41.7693 27.2595 42.0558 27.2151 42.3579C26.6085 46.436 22.8752 50.279 22.8405 50.3159C22.5529 50.6063 22.3705 50.9844 22.3223 51.3903L21.6151 57.0227C21.5809 57.2958 21.608 57.5731 21.6943 57.8344C21.7807 58.0957 21.9241 58.3345 22.1142 58.5335C22.3884 58.8256 28.9531 65.6958 34.0349 67.6073C34.2754 67.6953 34.5313 67.7333 34.787 67.7192C38.7307 67.5144 48.0686 69.3744 49.604 69.6877C50.1445 69.9664 52.0873 71.1347 52.2664 73.4502C51.0734 73.6382 49.5805 73.4054 48.2376 73.1961C47.4631 73.0775 46.7346 72.9633 46.0273 72.9141C43.3773 72.725 34.2263 73.7322 31.4196 74.83C28.8893 75.8227 24.7183 78.7357 19.1015 82.7455C18.8944 82.8837 18.7172 83.062 18.5803 83.2701C18.4435 83.4781 18.3499 83.7115 18.305 83.9564C18.2602 84.2013 18.265 84.4527 18.3193 84.6957C18.3735 84.9387 18.4761 85.1683 18.6208 85.3709C18.7655 85.5735 18.9495 85.7449 19.1618 85.875C19.3741 86.0051 19.6104 86.0911 19.8566 86.1281C20.1028 86.1651 20.354 86.1521 20.5951 86.0901C20.8363 86.0281 21.0625 85.9183 21.2603 85.7671C26.2963 82.1669 30.6485 79.1196 32.7748 78.2881C34.8586 77.4711 43.4064 76.4483 45.7565 76.6161C46.3105 76.6564 46.9663 76.7571 47.659 76.8657C49.7853 77.2014 52.1992 77.5718 54.4072 76.6967C55.0839 76.156 55.6096 75.4498 55.9337 74.6465C56.012 74.7797 56.0904 74.914 56.1777 75.0482C56.8047 75.672 57.5865 76.1178 58.4427 76.3397C58.5258 76.3395 58.6088 76.3339 58.6912 76.3229C61.0413 76.0084 62.9662 74.5032 64.6605 73.1749C65.2201 72.7429 65.7382 72.3333 66.2038 72.0289C68.1734 70.7341 76.1325 67.4495 78.3517 67.1429C79.4014 66.9985 81.54 67.4159 84.0155 67.8994C86.3119 68.347 89.1634 68.9066 92.3529 69.2557C92.5954 69.2825 92.8408 69.2612 93.075 69.1931C93.3093 69.125 93.5279 69.0115 93.7182 68.8589C93.9086 68.7064 94.0671 68.5178 94.1846 68.304C94.3021 68.0902 94.3764 67.8554 94.4031 67.6129C94.4298 67.3704 94.4086 67.125 94.3405 66.8907C94.2724 66.6565 94.1588 66.4379 94.0063 66.2475C93.8537 66.0572 93.6652 65.8987 93.4514 65.7812C93.2376 65.6637 93.0027 65.5894 92.7602 65.5627C89.7286 65.2269 87.0718 64.7088 84.7273 64.2511C81.6967 63.6613 79.5077 63.2327 77.8459 63.4621C74.8567 63.8739 66.3795 67.464 64.1647 68.9222C63.5694 69.3106 62.9863 69.766 62.3742 70.2495C61.3009 71.09 60.1091 72.0222 58.9765 72.4407C58.0029 70.3368 59.131 68.3638 59.4678 67.8524C60.6586 66.8239 67.8891 60.6475 71.4423 58.8995C71.6712 58.7857 71.8745 58.6266 72.0399 58.4317C75.442 54.4029 78.6639 47.0481 78.7982 46.737C78.9286 46.4387 78.9782 46.1114 78.9421 45.7878C78.9059 45.4643 78.7853 45.156 78.5923 44.8938L75.2271 40.3223C74.9837 39.9925 74.6384 39.7521 74.2446 39.6385C72.8177 39.2255 68.649 37.5547 66.5451 34.8263C66.3592 34.584 66.1164 34.3914 65.8382 34.2656C65.56 34.1398 65.255 34.0847 64.9503 34.1052C64.6456 34.1257 64.3508 34.2211 64.0919 34.3831C63.833 34.545 63.6181 34.7684 63.4664 35.0333C63.0188 35.7149 60.0833 36.975 57.2923 37.6722C56.9742 37.7521 56.6827 37.9142 56.447 38.1422C56.2113 38.3703 56.0397 38.6562 55.9494 38.9715C55.9292 39.0498 53.87 45.938 50.44 46.8366C51.3722 42.5996 52.4913 38.2788 53.0218 37.3533C53.8768 35.9566 62.0642 30.276 64.3248 29.3337C64.8709 29.1334 67.1416 29.7075 69.1369 30.2145C70.4138 30.5368 71.8586 30.9049 73.5541 31.2821C75.6804 31.7588 77.5168 31.6492 79.1317 31.5518C80.5866 31.4667 81.8612 31.3929 83.2265 31.7185C83.2568 31.751 83.287 31.7857 83.3205 31.8181L100.385 48.0094C100.745 48.3356 101.218 48.508 101.703 48.4898C102.188 48.4717 102.647 48.2644 102.982 47.9124C103.317 47.5603 103.5 47.0913 103.493 46.6057C103.487 46.12 103.29 45.6563 102.946 45.3135L98.0156 40.6378C98.3277 40.4067 98.5573 40.0813 98.6703 39.7097C98.7834 39.3381 98.7739 38.94 98.6434 38.5742C94.0483 25.7503 84.3054 15.1479 71.9157 9.47734C71.6994 9.37714 71.4654 9.32066 71.2272 9.31115C70.989 9.30164 70.7513 9.33929 70.5277 9.42193C70.3041 9.50457 70.099 9.63058 69.9243 9.79271C69.7495 9.95485 69.6085 10.1499 69.5094 10.3667C69.4102 10.5835 69.3549 10.8177 69.3465 11.056C69.3382 11.2942 69.377 11.5317 69.4608 11.7549C69.5445 11.9781 69.6715 12.1826 69.8345 12.3566C69.9975 12.5305 70.1932 12.6706 70.4105 12.7686C80.9738 17.5998 89.4645 26.2964 94.0886 36.9045L85.8844 29.1233C85.7094 28.956 85.5028 28.8251 85.2767 28.7383C85.0318 28.4585 84.7087 28.2586 84.349 28.1642C82.3447 27.6405 80.6011 27.7446 78.918 27.8464C77.4128 27.9337 75.9926 28.0199 74.3699 27.6584C72.7271 27.2913 71.3103 26.9321 70.0569 26.6154C66.6245 25.7436 64.5486 25.2176 62.9024 25.9048C60.8533 26.7575 51.3073 32.8925 49.8088 35.5034C49.3018 36.3852 48.6897 38.4131 48.1133 40.592C45.235 37.3779 43.2295 35.4217 42.1462 34.7715C39.5622 33.2271 28.2379 32.5332 26.0311 32.7918C24.2584 32.9966 22.7062 34.4704 20.1356 36.9034C19.2 37.7908 18.1346 38.7969 16.8812 39.925C15.6278 41.053 14.352 41.6932 12.9934 42.3792C11.4871 43.1413 9.92818 43.9303 8.44648 45.3583C8.23012 45.5647 8.0676 45.821 7.9731 46.1047C7.77738 46.3096 7.63181 46.557 7.54784 46.8276L3.74286 59.0629C3.62459 57.4131 3.59358 55.7583 3.64997 54.1052C4.00249 43.6706 7.67541 33.8997 14.2681 25.851ZM38.4711 45.8495C37.9115 45.7779 37.4135 45.6 37.1796 45.3594C36.8708 45.0382 36.5406 44.6644 36.215 44.2716L36.5429 44.1955C37.143 44.793 37.7876 45.344 38.4711 45.8439V45.8495ZM30.4292 44.8647C30.9546 44.9046 31.4821 44.9102 32.0082 44.8815C32.2018 45.1613 32.4089 45.4411 32.6249 45.7276C32.1235 45.6996 31.4498 45.7802 30.9025 46.3856C30.6959 46.6286 30.5088 46.8875 30.343 47.16C29.8797 47.8695 29.178 48.9428 28.0981 49.697C28.0634 49.7217 28.0298 49.7541 27.9929 49.781C28.8982 48.428 29.8439 46.7314 30.4292 44.8647ZM25.9303 52.4445C26.1318 52.2206 26.3903 51.9196 26.6779 51.5592C26.0747 52.8664 25.8431 54.3436 25.8733 54.8573C25.9113 55.4403 25.7434 56.0368 25.4995 56.6825C25.4681 56.6534 25.4391 56.6243 25.4122 56.5964L25.9303 52.4445ZM74.9474 46.2278C74.9261 46.2748 74.9048 46.3241 74.8791 46.3744C74.418 45.9726 74.0387 45.5686 73.8104 45.093C73.5821 44.6174 72.6655 43.4546 71.4994 42.6086C71.9302 42.7798 72.2984 42.9164 72.5838 43.0148L74.9474 46.2278ZM64.956 38.5977C66.3761 39.9406 68.0335 40.9579 69.4883 41.6965C69.4413 41.6898 69.3988 41.6786 69.3518 41.673C68.0447 41.5421 66.9066 40.9478 66.1556 40.5539C65.878 40.3965 65.5879 40.2622 65.2883 40.1522C65.0152 40.0593 64.7253 40.0264 64.4383 40.0558C64.1513 40.0851 63.874 40.176 63.6253 40.3223C63.6253 40.3099 63.6253 40.2965 63.6253 40.2831C63.5958 39.9826 63.5865 39.6805 63.5974 39.3788C64.0649 39.1469 64.5175 38.886 64.9526 38.5977H64.956ZM59.9345 40.8035C59.9739 41.1132 59.9599 41.4274 59.8931 41.7323C59.7666 42.2091 59.0795 42.8403 58.3163 43.2096C58.7012 42.3602 58.9944 41.5936 59.1959 41.0217C59.4253 40.959 59.676 40.8818 59.9311 40.8035H59.9345ZM55.8542 47.3122C56.0688 47.3386 56.2849 47.3517 56.5011 47.3514C57.8709 47.3514 59.1467 46.8858 59.3615 46.803C60.3446 46.419 61.2413 45.843 61.9993 45.1087C62.9981 44.9582 63.9526 44.5932 64.797 44.0388C65.7181 44.5077 67.1751 45.1781 68.921 45.365C69.3205 45.5149 70.2068 46.3621 70.4967 46.7795C71.1681 48.1381 72.2123 49.0177 73.1825 49.7877C72.1138 51.8021 70.772 54.0963 69.4279 55.7626C65.0522 58.0814 57.1972 64.908 56.8569 65.2023C56.7632 65.2821 56.6787 65.3722 56.6051 65.4709C55.6987 66.7394 55.1184 68.2114 54.9153 69.7571C53.4716 67.3331 51.0801 66.2722 50.9313 66.2073C50.817 66.1583 50.6982 66.1208 50.5765 66.0954C50.1345 66.0025 39.9573 63.8863 35.0119 63.9948C32.9886 63.1353 30.4907 61.2116 28.4092 59.3941C28.4707 59.2442 28.5312 59.092 28.5983 58.9375C29.1019 57.7267 29.6726 56.3558 29.5921 54.7095C29.6402 54.2048 30.0005 53.0309 30.2758 52.7075C31.7094 51.6913 32.6528 50.3954 33.2258 49.5359C34.2537 49.6109 35.2855 49.4581 36.2474 49.0883C37.1306 49.4331 38.0713 49.607 39.0195 49.6008C39.3864 49.6015 39.7529 49.5757 40.1162 49.5236C40.3881 49.4855 42.2425 49.1823 43.5507 48.1627C44.1657 48.2797 44.7903 48.3389 45.4163 48.3396C45.724 48.3396 46.0385 48.3205 46.3552 48.2892C46.3791 48.7577 46.5392 49.209 46.8159 49.5877C47.0927 49.9664 47.474 50.2561 47.913 50.4211C49.6588 50.8956 52.8315 51.031 55.8509 47.3122H55.8542Z" fill="#463B32"/>
<path d="M22.4464 10.5671C21.5402 11.1151 20.9269 11.8805 20.7088 12.7656L18.6441 9.3509L16.5953 10.5897L22.4876 20.3347L24.5364 19.0959L22.4241 15.6024C21.6379 14.3022 21.9819 13.2692 22.9669 12.6736C23.8731 12.1257 24.716 12.3334 25.4069 13.476L27.6622 17.2059L29.711 15.9671L27.2651 11.922C25.9628 9.76811 24.1143 9.55859 22.4464 10.5671Z" fill="#9C6137" fill-opacity="0.69"/>
<path d="M31.8527 6.13701C30.6181 6.58355 29.4886 7.36544 28.8598 8.2747L30.2296 9.54864C30.6285 8.90113 31.3768 8.32204 32.195 8.02608C33.4009 7.58993 34.1776 7.94209 34.5255 8.90388L32.7454 9.54772C30.3912 10.3993 29.7721 11.6946 30.2653 13.0583C30.7482 14.3933 32.1883 15.0088 33.9971 14.3545C35.1311 13.9444 35.8 13.2804 35.9619 12.4264L36.3098 13.3882L38.4056 12.6301L36.8116 8.22308C35.9652 5.8832 34.2069 5.28548 31.8527 6.13701ZM34.0117 12.6448C33.2222 12.9303 32.6135 12.7284 32.411 12.1686C32.2241 11.6518 32.414 11.1448 33.462 10.7658L34.9979 10.2102L35.2835 10.9997C35.2796 11.7966 34.7582 12.3748 34.0117 12.6448Z" fill="#9C6137" fill-opacity="0.69"/>
<path d="M44.2421 3.15142C43.1381 3.30657 42.2385 3.81854 41.7011 4.60345L41.5672 3.65072L39.3139 3.9674L40.4574 12.1034L42.8165 11.7719L42.2512 7.74923C42.0408 6.25208 42.7596 5.44166 43.8938 5.28226C44.9373 5.13561 45.6272 5.65551 45.8121 6.97119L46.4157 11.266L48.7749 10.9345L48.1203 6.27668C47.7717 3.79655 46.1627 2.8815 44.2421 3.15142Z" fill="#9C6137" fill-opacity="0.69"/>
<path d="M57.7113 0L57.4235 3.97543C56.878 3.26225 56.0482 2.88064 55.0429 2.80788C52.7277 2.6403 50.8266 4.15631 50.6402 6.73044C50.4539 9.30457 52.1169 11.0786 54.4321 11.2461C55.5288 11.3255 56.4224 11.038 57.0682 10.3652L56.9999 11.3095L59.2694 11.4738L60.0874 0.17199L57.7113 0ZM54.9845 9.32628C53.7964 9.24028 52.9443 8.32117 53.0468 6.90464C53.1494 5.4881 54.125 4.70129 55.3131 4.78728C56.4859 4.87217 57.338 5.79129 57.2355 7.20782C57.133 8.62436 56.1573 9.41117 54.9845 9.32628Z" fill="#9C6137" fill-opacity="0.69"/>
<path d="M49.0516 100.279C47.8264 100.109 46.6983 100.461 45.9324 101.203C45.4814 100.231 44.5742 99.6579 43.4397 99.5005C42.396 99.3556 41.438 99.5927 40.7364 100.205L40.8665 99.2668L38.6127 98.954L37.4835 107.092L39.8432 107.419L40.4099 103.335C40.6114 101.883 41.4471 101.305 42.4908 101.45C43.474 101.587 43.9497 102.269 43.7671 103.585L43.171 107.881L45.5307 108.209L46.0975 104.125C46.299 102.672 47.1346 102.095 48.1935 102.242C49.1464 102.374 49.6524 103.061 49.4698 104.377L48.8737 108.673L51.2334 109L51.8799 104.341C52.2241 101.86 50.9878 100.548 49.0516 100.279Z" fill="#9C6137" fill-opacity="0.69"/>
<path d="M57.0837 99.7062C55.787 99.9141 54.5307 100.471 53.7426 101.247L54.8506 102.755C55.3637 102.194 56.2074 101.765 57.0669 101.627C58.3335 101.424 59.031 101.915 59.193 102.925L57.3232 103.225C54.8503 103.622 53.9996 104.779 54.2293 106.211C54.4542 107.614 55.7543 108.488 57.6543 108.183C58.8455 107.992 59.627 107.465 59.9458 106.656L60.1078 107.666L62.3093 107.313L61.567 102.684C61.1729 100.226 59.5567 99.3096 57.0837 99.7062ZM57.9885 106.506C57.1591 106.639 56.5987 106.326 56.5044 105.738C56.4173 105.195 56.6988 104.733 57.7996 104.556L59.413 104.297L59.546 105.127C59.3931 105.909 58.7725 106.38 57.9885 106.506Z" fill="#9C6137" fill-opacity="0.69"/>
<path d="M66.8184 93.6514L68.3729 97.3183C67.5629 96.9324 66.6511 96.9709 65.7238 97.364C63.5882 98.2693 62.5876 100.483 63.5942 102.858C64.6007 105.232 66.8878 106.053 69.0233 105.147C70.0349 104.719 70.6987 104.056 70.9667 103.163L71.336 104.035L73.4294 103.147L69.0102 92.7222L66.8184 93.6514ZM68.6403 103.188C67.5444 103.653 66.3679 103.223 65.814 101.917C65.2601 100.61 65.7696 99.4661 66.8655 99.0015C67.9473 98.5429 69.1238 98.9724 69.6777 100.279C70.2316 101.586 69.7221 102.73 68.6403 103.188Z" fill="#9C6137" fill-opacity="0.69"/>
<path d="M80.6347 93.2742C79.0665 91.148 76.6063 90.9511 74.6644 92.3833C72.6488 93.8698 72.1886 96.4104 73.6479 98.3892C75.0983 100.356 77.6459 100.697 79.9319 99.0108C81.1241 98.1315 81.7739 97.083 81.8717 95.9292L80.0359 95.5754C79.8984 96.341 79.5486 96.9216 78.848 97.4382C77.8402 98.1815 76.768 98.1943 75.9764 97.5068L80.9785 93.8176C80.8729 93.6487 80.7434 93.4217 80.6347 93.2742ZM75.7463 93.8244C76.6066 93.1899 77.6322 93.2684 78.3838 94.0044L75.1269 96.4065C74.6367 95.4588 74.8737 94.468 75.7463 93.8244Z" fill="#9C6137" fill-opacity="0.69"/>
<path d="M15.2988 21.0098C16.0541 21.0098 16.6663 20.3975 16.6663 19.6422C16.6663 18.8869 16.0541 18.2747 15.2988 18.2747C14.5435 18.2747 13.9312 18.8869 13.9312 19.6422C13.9312 20.3975 14.5435 21.0098 15.2988 21.0098Z" fill="#463B32"/>
<path d="M64.9929 10.6379C65.7482 10.6379 66.3604 10.0256 66.3604 9.2703C66.3604 8.51502 65.7482 7.90275 64.9929 7.90275C64.2376 7.90275 63.6253 8.51502 63.6253 9.2703C63.6253 10.0256 64.2376 10.6379 64.9929 10.6379Z" fill="#463B32"/>
</svg>
