<svg width="66" height="69" viewBox="0 0 66 69" fill="none" xmlns="http://www.w3.org/2000/svg">
<path d="M63.8467 44.3735C64.1215 44.2256 64.3262 43.9745 64.4159 43.6756C64.5056 43.3767 64.4728 43.0543 64.3249 42.7796C64.1769 42.5048 63.9258 42.3 63.6269 42.2104C63.328 42.1207 63.0057 42.1534 62.7309 42.3014C62.6877 42.3141 62.4815 42.3581 61.9389 42.3014C61.6366 42.2846 61.3395 42.3851 61.1094 42.5819C60.8793 42.7787 60.734 43.0566 60.7037 43.3578C60.6734 43.6591 60.7604 43.9604 60.9467 44.1991C61.133 44.4378 61.4041 44.5954 61.7037 44.6392C61.9594 44.6647 62.1939 44.6774 62.4121 44.6774C63.01 44.6831 63.4677 44.5825 63.8467 44.3735Z" fill="#463B32"/>
<path d="M9.62434 54.2958C9.3105 54.4955 9.16244 54.5402 9.12844 54.5487C8.82105 54.553 8.52798 54.6792 8.31368 54.8997C8.09939 55.1201 7.98142 55.4166 7.98574 55.724C7.99006 56.0313 8.11632 56.3244 8.33673 56.5387C8.55713 56.753 8.85364 56.871 9.16103 56.8666H9.1674C9.68385 56.8666 10.23 56.6832 10.8946 56.2602C11.0275 56.1787 11.1427 56.0715 11.2336 55.9448C11.3245 55.8181 11.3891 55.6746 11.4237 55.5225C11.4582 55.3705 11.4621 55.2131 11.435 55.0596C11.4078 54.9061 11.3503 54.7595 11.2657 54.6285C11.1811 54.4976 11.0712 54.3848 10.9424 54.297C10.8136 54.2091 10.6686 54.1479 10.5158 54.1169C10.363 54.0859 10.2056 54.0857 10.0527 54.1164C9.89986 54.1472 9.7547 54.2081 9.62575 54.2958H9.62434Z" fill="#463B32"/>
<path d="M21.7611 63.268C18.35 62.0023 15.2002 60.1209 12.4687 57.7175C12.2392 57.5278 11.9448 57.4348 11.648 57.4583C11.3512 57.4817 11.0751 57.6198 10.8783 57.8433C10.6814 58.0667 10.5793 58.358 10.5934 58.6554C10.6076 58.9528 10.7369 59.2331 10.9541 59.4368C13.8963 62.0254 17.2891 64.0513 20.9634 65.4138C21.0914 65.4607 21.2267 65.4846 21.363 65.4847C21.6315 65.4841 21.8913 65.3893 22.097 65.2168C22.3028 65.0443 22.4414 64.805 22.4888 64.5408C22.5362 64.2765 22.4893 64.0039 22.3563 63.7707C22.2233 63.5374 22.0127 63.3583 21.7611 63.2645V63.268Z" fill="#463B32"/>
<path d="M61.0923 46.4981C60.8132 46.3782 60.498 46.3738 60.2157 46.4858C59.9334 46.5979 59.707 46.8173 59.5862 47.096C57.9752 50.837 55.612 54.2066 52.6436 56.9956C52.5341 57.0987 52.4459 57.2224 52.3842 57.3596C52.3224 57.4968 52.2883 57.6448 52.2838 57.7952C52.2792 57.9456 52.3043 58.0954 52.3577 58.236C52.4111 58.3767 52.4916 58.5055 52.5947 58.6151C52.6978 58.7246 52.8215 58.8128 52.9587 58.8745C53.0959 58.9362 53.244 58.9704 53.3943 58.9749C53.5447 58.9794 53.6945 58.9543 53.8352 58.901C53.9759 58.8476 54.1046 58.7671 54.2142 58.6639C57.4115 55.6608 59.9574 52.0325 61.6938 48.0042C61.7534 47.8659 61.7852 47.7171 61.7872 47.5665C61.7893 47.4158 61.7616 47.2662 61.7057 47.1263C61.6498 46.9864 61.5669 46.8589 61.4616 46.7511C61.3564 46.6433 61.2309 46.5573 61.0923 46.4981Z" fill="#463B32"/>
<path d="M9.03209 16.3644C9.20791 16.128 9.28593 15.8329 9.24995 15.5405C9.21397 15.2481 9.06677 14.9807 8.83889 14.7939C8.611 14.6072 8.31995 14.5153 8.02614 14.5375C7.73234 14.5596 7.45834 14.694 7.26103 14.9129C2.76322 20.4025 0.261763 27.0617 0.0187721 34.1693C-0.0541265 36.3069 0.0854102 38.4465 0.435328 40.5565C0.466525 40.7457 0.545033 40.924 0.663561 41.0747C0.782088 41.2254 0.936791 41.3437 1.11329 41.4187L0.354566 43.8557C0.305672 44.0039 0.286798 44.1605 0.299043 44.3161C0.311288 44.4718 0.354405 44.6235 0.425884 44.7623C0.497364 44.9011 0.59577 45.0243 0.715365 45.1247C0.83496 45.2251 0.973349 45.3006 1.12246 45.3469C1.27156 45.3933 1.4284 45.4095 1.58383 45.3945C1.73925 45.3796 1.89015 45.3339 2.02771 45.26C2.16528 45.1861 2.28676 45.0856 2.38506 44.9643C2.48337 44.843 2.55653 44.7033 2.60028 44.5535L7.01378 30.3715C7.68962 29.7339 8.43064 29.357 9.28784 28.9227C10.2003 28.4622 11.2346 27.9387 12.254 27.0234C13.0744 26.2916 13.7601 25.642 14.3644 25.0689C15.313 24.1706 16.3863 23.1561 16.7497 23.0952C18.292 22.916 24.5707 23.5202 25.4726 24.031C25.8757 24.2712 27.1728 25.5031 29.4943 28.1697C26.7314 28.6953 24.4645 25.9516 24.4432 25.9254C24.2999 25.7465 24.1074 25.6134 23.8894 25.5424C23.6714 25.4714 23.4374 25.4656 23.2162 25.5258C21.4629 26.0026 19.4488 26.2172 18.994 25.9771C18.8282 25.8777 18.6404 25.8207 18.4474 25.8113C18.2543 25.8018 18.0618 25.8402 17.8871 25.923C17.7124 26.0057 17.5609 26.1303 17.4459 26.2857C17.3309 26.4411 17.256 26.6225 17.2279 26.8137C16.8439 29.3952 14.4806 31.828 14.4587 31.8514C14.2766 32.0352 14.1612 32.2745 14.1306 32.5315L13.6829 36.097C13.6613 36.2698 13.6785 36.4453 13.7331 36.6108C13.7878 36.7762 13.8785 36.9274 13.9989 37.0533C14.1724 37.2382 18.3281 41.5873 21.545 42.7973C21.6973 42.853 21.8593 42.8771 22.0211 42.8681C24.5176 42.7385 30.4287 43.9159 31.4007 44.1142C31.7429 44.2906 32.9727 45.0302 33.086 46.496C32.3309 46.615 31.3858 46.4676 30.5357 46.3352C30.0455 46.2601 29.5843 46.1878 29.1366 46.1566C27.459 46.0369 21.6662 46.6745 19.8895 47.3695C18.2877 47.9978 15.6474 49.8419 12.0918 52.3802C11.9607 52.4676 11.8485 52.5806 11.7619 52.7122C11.6752 52.8439 11.616 52.9917 11.5876 53.1467C11.5592 53.3017 11.5623 53.4609 11.5966 53.6147C11.631 53.7685 11.6959 53.9139 11.7875 54.0421C11.8791 54.1704 11.9956 54.2789 12.13 54.3612C12.2644 54.4436 12.4139 54.4981 12.5698 54.5215C12.7257 54.5449 12.8846 54.5367 13.0373 54.4974C13.1899 54.4582 13.3331 54.3886 13.4583 54.2929C16.6463 52.0139 19.4013 50.0849 20.7474 49.5585C22.0665 49.0414 27.4774 48.3938 28.9651 48.5001C29.3158 48.5256 29.7309 48.5894 30.1694 48.6581C31.5155 48.8706 33.0435 49.1051 34.4413 48.5511C34.8696 48.2088 35.2024 47.7618 35.4076 47.2533C35.4571 47.3376 35.5067 47.4226 35.562 47.5076C35.959 47.9025 36.4538 48.1846 36.9958 48.3251C37.0485 48.325 37.101 48.3215 37.1531 48.3145C38.6408 48.1154 39.8593 47.1626 40.9319 46.3217C41.2861 46.0482 41.6141 45.789 41.9088 45.5963C43.1556 44.7766 48.194 42.6974 49.5988 42.5033C50.2633 42.4119 51.6171 42.6761 53.1841 42.9822C54.6378 43.2655 56.4429 43.6198 58.4619 43.8408C58.6154 43.8577 58.7708 43.8442 58.9191 43.8011C59.0673 43.758 59.2057 43.6862 59.3262 43.5896C59.4467 43.493 59.547 43.3737 59.6214 43.2383C59.6958 43.103 59.7428 42.9543 59.7598 42.8008C59.7767 42.6473 59.7632 42.492 59.7201 42.3437C59.677 42.1954 59.6051 42.057 59.5086 41.9365C59.412 41.816 59.2926 41.7157 59.1573 41.6413C59.0219 41.5669 58.8733 41.5199 58.7198 41.503C56.8007 41.2904 55.1188 40.9624 53.6347 40.6727C51.7163 40.2994 50.3306 40.028 49.2786 40.1733C47.3864 40.434 42.02 42.7066 40.618 43.6297C40.2412 43.8755 39.8721 44.1638 39.4846 44.4699C38.8052 45.0019 38.0507 45.592 37.3338 45.857C36.7174 44.5251 37.4315 43.2762 37.6448 42.9524C38.3985 42.3014 42.9757 38.3916 45.2249 37.285C45.3698 37.213 45.4985 37.1122 45.6032 36.9889C47.7569 34.4385 49.7964 29.7827 49.8814 29.5858C49.964 29.397 49.9954 29.1898 49.9725 28.985C49.9496 28.7802 49.8733 28.585 49.7511 28.419L47.6208 25.5251C47.4668 25.3163 47.2481 25.1642 46.9989 25.0923C46.0956 24.8308 43.4567 23.7732 42.1249 22.046C42.0072 21.8926 41.8535 21.7707 41.6774 21.6911C41.5013 21.6115 41.3082 21.5766 41.1153 21.5895C40.9225 21.6025 40.7358 21.6629 40.5719 21.7654C40.408 21.8679 40.272 22.0093 40.176 22.1771C39.8926 22.6085 38.0344 23.4062 36.2676 23.8475C36.0662 23.8981 35.8817 24.0007 35.7325 24.1451C35.5833 24.2894 35.4747 24.4705 35.4175 24.67C35.4047 24.7196 34.1012 29.08 31.9299 29.6489C32.52 26.9667 33.2284 24.2315 33.5642 23.6456C34.1055 22.7615 39.2883 19.1655 40.7193 18.569C41.0651 18.4422 42.5025 18.8057 43.7656 19.1266C44.5739 19.3306 45.4885 19.5637 46.5617 19.8024C47.9078 20.1042 49.0703 20.0348 50.0925 19.9732C51.0135 19.9193 51.8204 19.8726 52.6847 20.0787C52.7038 20.0993 52.7229 20.1212 52.7442 20.1418L63.5463 30.3913C63.7741 30.5977 64.0737 30.7069 64.3809 30.6954C64.6881 30.6839 64.9787 30.5527 65.1905 30.3298C65.4022 30.107 65.5184 29.8101 65.5142 29.5027C65.51 29.1952 65.3857 28.9017 65.1679 28.6847L62.0466 25.7249C62.2441 25.5786 62.3895 25.3726 62.461 25.1373C62.5326 24.9021 62.5266 24.6501 62.444 24.4185C59.5352 16.3007 53.3676 9.58902 45.5246 5.99942C45.3877 5.93599 45.2396 5.90023 45.0888 5.89421C44.938 5.88819 44.7875 5.91203 44.646 5.96434C44.5044 6.01665 44.3746 6.09642 44.264 6.19906C44.1534 6.30169 44.0641 6.42517 44.0013 6.56241C43.9386 6.69964 43.9036 6.84792 43.8983 6.99873C43.893 7.14955 43.9176 7.29991 43.9706 7.4412C44.0236 7.58249 44.104 7.71191 44.2071 7.82204C44.3103 7.93216 44.4342 8.02081 44.5718 8.0829C51.2586 11.1412 56.6335 16.6464 59.5607 23.3616L54.3672 18.4359C54.2564 18.3299 54.1256 18.2471 53.9825 18.1922C53.8275 18.015 53.6229 17.8885 53.3952 17.8287C52.1264 17.4972 51.0227 17.5631 49.9572 17.6275C49.0044 17.6828 48.1054 17.7374 47.0782 17.5085C46.0382 17.2762 45.1413 17.0488 44.3479 16.8483C42.1752 16.2964 40.861 15.9635 39.8189 16.3984C38.5218 16.9382 32.4789 20.8218 31.5303 22.4746C31.2094 23.0329 30.8219 24.3165 30.4571 25.6958C28.635 23.6612 27.3655 22.4229 26.6797 22.0113C25.044 21.0337 17.8754 20.5944 16.4784 20.7581C15.3562 20.8877 14.3736 21.8207 12.7464 23.3609C12.1541 23.9226 11.4797 24.5595 10.6863 25.2736C9.89284 25.9877 9.08523 26.3929 8.22519 26.8272C7.27165 27.3096 6.28481 27.8091 5.34685 28.713C5.2099 28.8437 5.10701 29.0059 5.04719 29.1855C4.92329 29.3152 4.83115 29.4719 4.77799 29.6432L2.36933 37.3884C2.29446 36.3441 2.27484 35.2965 2.31053 34.2501C2.53369 27.6447 4.85875 21.4594 9.03209 16.3644ZM24.3533 29.024C23.999 28.9787 23.6838 28.866 23.5357 28.7137C23.3402 28.5104 23.1312 28.2738 22.9251 28.0251L23.1326 27.977C23.5125 28.3552 23.9206 28.704 24.3533 29.0205V29.024ZM19.2625 28.4006C19.5951 28.4259 19.929 28.4294 20.2621 28.4112C20.3846 28.5883 20.5157 28.7654 20.6524 28.9468C20.3351 28.9291 19.9086 28.9801 19.5622 29.3634C19.4313 29.5172 19.3129 29.6811 19.2079 29.8536C18.9147 30.3027 18.4705 30.9821 17.7868 31.4596C17.7649 31.4752 17.7436 31.4957 17.7202 31.5127C18.2934 30.6562 18.892 29.5823 19.2625 28.4006ZM16.4146 33.1988C16.5421 33.0571 16.7058 32.8665 16.8878 32.6384C16.506 33.4659 16.3594 34.401 16.3785 34.7262C16.4026 35.0952 16.2963 35.4728 16.1419 35.8816C16.122 35.8632 16.1036 35.8448 16.0866 35.8271L16.4146 33.1988ZM47.4437 29.2635C47.4303 29.2932 47.4168 29.3244 47.4005 29.3563C47.1087 29.102 46.8685 28.8462 46.724 28.5451C46.5795 28.244 45.9993 27.508 45.2611 26.9724C45.5338 27.0808 45.7669 27.1672 45.9475 27.2296L47.4437 29.2635ZM41.1189 24.4334C42.0179 25.2835 43.0671 25.9275 43.988 26.395C43.9583 26.3908 43.9314 26.3837 43.9016 26.3802C43.0742 26.2973 42.3537 25.9211 41.8783 25.6717C41.7026 25.5721 41.519 25.4871 41.3293 25.4174C41.1564 25.3586 40.9729 25.3378 40.7912 25.3564C40.6095 25.375 40.434 25.4325 40.2766 25.5251C40.2766 25.5173 40.2766 25.5088 40.2766 25.5003C40.2579 25.3101 40.252 25.1189 40.2589 24.9279C40.5548 24.781 40.8413 24.6159 41.1168 24.4334H41.1189ZM37.9402 25.8297C37.9651 26.0258 37.9562 26.2247 37.914 26.4177C37.8339 26.7195 37.3989 27.1191 36.9158 27.3528C37.1595 26.8151 37.3451 26.3299 37.4726 25.9679C37.6178 25.9282 37.7765 25.8793 37.9381 25.8297H37.9402ZM35.3573 29.9499C35.4931 29.9667 35.6299 29.9749 35.7667 29.9747C36.6338 29.9747 37.4415 29.68 37.5775 29.6276C38.1998 29.3845 38.7674 29.0199 39.2472 28.555C39.8796 28.4598 40.4837 28.2287 41.0183 27.8778C41.6013 28.1746 42.5237 28.599 43.6289 28.7173C43.8818 28.8122 44.4428 29.3485 44.6263 29.6127C45.0514 30.4728 45.7123 31.0296 46.3266 31.517C45.65 32.7922 44.8006 34.2444 43.9498 35.2993C41.1798 36.7671 36.2074 41.0886 35.992 41.2749C35.9327 41.3254 35.8792 41.3824 35.8326 41.4449C35.2588 42.2479 34.8915 43.1797 34.7629 44.1582C33.849 42.6237 32.3351 41.9521 32.2409 41.911C32.1686 41.88 32.0933 41.8563 32.0163 41.8402C31.7365 41.7814 25.294 40.4418 22.1635 40.5105C20.8827 39.9664 19.3015 38.7486 17.9838 37.5981C18.0227 37.5032 18.061 37.4069 18.1035 37.3091C18.4223 36.5426 18.7836 35.6747 18.7326 34.6326C18.7631 34.3131 18.9912 33.57 19.1654 33.3653C20.0729 32.722 20.6701 31.9017 21.0329 31.3576C21.6835 31.4051 22.3367 31.3083 22.9456 31.0742C23.5047 31.2925 24.1002 31.4026 24.7004 31.3987C24.9327 31.3991 25.1647 31.3828 25.3946 31.3498C25.5668 31.3257 26.7407 31.1337 27.5688 30.4883C27.9581 30.5624 28.3535 30.5998 28.7498 30.6003C28.9446 30.6003 29.1436 30.5882 29.3441 30.5684C29.3592 30.8649 29.4606 31.1506 29.6358 31.3904C29.8109 31.6301 30.0523 31.8135 30.3303 31.9179C31.4354 32.2183 33.4438 32.304 35.3551 29.9499H35.3573Z" fill="#463B32"/>
<path d="M14.2092 6.68927C13.6355 7.03613 13.2473 7.52065 13.1093 8.08096L11.8023 5.91938L10.5053 6.70358L14.2353 12.8724L15.5322 12.0882L14.1951 9.87674C13.6974 9.05368 13.9151 8.39979 14.5387 8.02277C15.1123 7.67591 15.6459 7.80738 16.0833 8.53068L17.5109 10.8918L18.8079 10.1076L17.2596 7.54695C16.4352 6.18349 15.265 6.05085 14.2092 6.68927Z" fill="#9C6137" fill-opacity="0.69"/>
<path d="M20.1636 3.8849C19.3821 4.16757 18.6671 4.66253 18.269 5.23811L19.1362 6.04455C19.3887 5.63466 19.8624 5.26808 20.3803 5.08073C21.1437 4.80464 21.6353 5.02756 21.8556 5.6364L20.7287 6.04397C19.2385 6.58302 18.8465 7.40299 19.1588 8.26627C19.4645 9.11138 20.3761 9.50096 21.5211 9.08682C22.239 8.82716 22.6624 8.40683 22.7649 7.86624L22.9851 8.47508L24.3118 7.9952L23.3027 5.20544C22.767 3.72423 21.6539 3.34586 20.1636 3.8849ZM21.5304 8.00448C21.0306 8.18526 20.6452 8.05746 20.517 7.70306C20.3987 7.37592 20.519 7.05497 21.1823 6.81503L22.1547 6.46334L22.3354 6.96313C22.3329 7.46756 22.0029 7.83356 21.5304 8.00448Z" fill="#9C6137" fill-opacity="0.69"/>
<path d="M28.0064 1.99494C27.3076 2.09315 26.7381 2.41724 26.398 2.91411L26.3132 2.31101L24.8868 2.51147L25.6106 7.66181L27.104 7.45193L26.7462 4.90548C26.613 3.95774 27.068 3.44472 27.786 3.34382C28.4466 3.25098 28.8833 3.58009 29.0003 4.41295L29.3824 7.13172L30.8758 6.92183L30.4615 3.97331C30.2408 2.40332 29.2222 1.82407 28.0064 1.99494Z" fill="#9C6137" fill-opacity="0.69"/>
<path d="M36.5328 0L36.3507 2.51656C36.0053 2.06509 35.4801 1.82353 34.8437 1.77746C33.3781 1.67138 32.1746 2.63106 32.0567 4.26055C31.9387 5.89005 32.9915 7.01304 34.457 7.11912C35.1513 7.16937 35.7169 6.98739 36.1257 6.56143L36.0825 7.15923L37.5191 7.26322L38.037 0.108874L36.5328 0ZM34.8067 5.90379C34.0546 5.84935 33.5152 5.26753 33.5801 4.37082C33.645 3.47412 34.2626 2.97604 35.0147 3.03048C35.7571 3.08422 36.2966 3.66605 36.2316 4.56275C36.1667 5.45945 35.5491 5.95753 34.8067 5.90379Z" fill="#9C6137" fill-opacity="0.69"/>
<path d="M31.051 63.4795C30.2754 63.3719 29.5613 63.5948 29.0765 64.0644C28.791 63.4489 28.2167 63.0862 27.4985 62.9865C26.8378 62.8949 26.2314 63.0449 25.7873 63.4323L25.8696 62.8386L24.4429 62.6406L23.7281 67.7922L25.2218 67.9995L25.5806 65.4141C25.7081 64.4949 26.2371 64.1291 26.8978 64.2208C27.5202 64.3071 27.8214 64.7393 27.7058 65.5724L27.3284 68.2918L28.8222 68.4991L29.181 65.9137C29.3085 64.9945 29.8375 64.6287 30.5078 64.7217C31.111 64.8054 31.4313 65.2402 31.3157 66.0733L30.9384 68.7927L32.4321 69L32.8414 66.0508C33.0593 64.4804 32.2767 63.6496 31.051 63.4795Z" fill="#9C6137" fill-opacity="0.69"/>
<path d="M36.1356 63.1167C35.3147 63.2484 34.5195 63.6011 34.0206 64.0923L34.7219 65.047C35.0468 64.6914 35.5808 64.4197 36.1249 64.3325C36.9267 64.2039 37.3682 64.515 37.4708 65.1545L36.2872 65.3443C34.7217 65.5953 34.1832 66.3279 34.3286 67.2346C34.471 68.1224 35.294 68.6757 36.4967 68.4829C37.2508 68.362 37.7455 68.0281 37.9474 67.516L38.0499 68.1555L39.4435 67.932L38.9736 65.0016C38.7241 63.4457 37.701 62.8657 36.1356 63.1167ZM36.7083 67.4209C36.1833 67.5051 35.8285 67.3074 35.7688 66.9352C35.7137 66.5916 35.8919 66.2986 36.5887 66.1869L37.6101 66.0231L37.6943 66.5481C37.5974 67.0434 37.2046 67.3413 36.7083 67.4209Z" fill="#9C6137" fill-opacity="0.69"/>
<path d="M42.2979 59.2839L43.2819 61.6052C42.7692 61.3609 42.1919 61.3852 41.605 61.6341C40.2531 62.2071 39.6197 63.6088 40.2569 65.1119C40.894 66.6149 42.3418 67.1343 43.6936 66.5613C44.334 66.2898 44.7542 65.8703 44.9239 65.3053L45.1577 65.8567L46.4828 65.295L43.6853 58.6957L42.2979 59.2839ZM43.4512 65.3211C42.7575 65.6151 42.0127 65.3433 41.6621 64.5162C41.3115 63.689 41.634 62.9648 42.3277 62.6707C43.0125 62.3804 43.7573 62.6522 44.1079 63.4794C44.4585 64.3065 44.136 65.0307 43.4512 65.3211Z" fill="#9C6137" fill-opacity="0.69"/>
<path d="M51.0439 59.0451C50.0513 57.6992 48.4939 57.5745 47.2646 58.4811C45.9887 59.4222 45.6973 61.0305 46.6212 62.2831C47.5393 63.5279 49.152 63.7438 50.5991 62.6765C51.3538 62.12 51.7651 61.4562 51.8271 60.7258L50.6649 60.5019C50.5779 60.9865 50.3564 61.354 49.913 61.6811C49.275 62.1516 48.5963 62.1597 48.0951 61.7245L51.2616 59.3891C51.1948 59.2822 51.1128 59.1385 51.0439 59.0451ZM47.9495 59.3935C48.4941 58.9918 49.1433 59.0415 49.6191 59.5074L47.5574 61.028C47.2471 60.428 47.3971 59.8009 47.9495 59.3935Z" fill="#9C6137" fill-opacity="0.69"/>
<path d="M9.68456 13.2998C10.1627 13.2998 10.5503 12.9122 10.5503 12.4341C10.5503 11.956 10.1627 11.5684 9.68456 11.5684C9.20644 11.5684 8.81886 11.956 8.81886 12.4341C8.81886 12.9122 9.20644 13.2998 9.68456 13.2998Z" fill="#463B32"/>
<path d="M41.1423 6.73406C41.6204 6.73406 42.008 6.34647 42.008 5.86836C42.008 5.39024 41.6204 5.00266 41.1423 5.00266C40.6642 5.00266 40.2766 5.39024 40.2766 5.86836C40.2766 6.34647 40.6642 6.73406 41.1423 6.73406Z" fill="#463B32"/>
</svg>
