<svg width="50" height="50" viewBox="0 0 50 50" fill="none" xmlns="http://www.w3.org/2000/svg">
<path d="M46.9024 27.6986C46.9024 39.5444 35.6752 44.3809 25.762 44.3809C15.8488 44.3809 7.81252 34.7781 7.81252 22.9323C7.81252 11.0865 19.0398 6.24998 28.953 6.24998C38.8662 6.24998 46.9024 15.8529 46.9024 27.6986Z" fill="#CC9966" fill-opacity="0.1"/>
<path d="M25 4.6875V45.3125" stroke="#D0AF94" stroke-width="2" stroke-miterlimit="10" stroke-linecap="round" stroke-linejoin="round"/>
<path d="M25 35.9375C18.9531 35.9375 14.0625 31.0469 14.0625 25C14.0625 18.9531 18.9531 14.0625 25 14.0625" stroke="#D0AF94" stroke-width="2" stroke-miterlimit="10" stroke-linecap="round" stroke-linejoin="round"/>
<path d="M10.6406 10.6406L13.9531 13.9531" stroke="#D0AF94" stroke-width="2" stroke-miterlimit="10" stroke-linecap="round" stroke-linejoin="round"/>
<path d="M4.6875 25H9.375" stroke="#D0AF94" stroke-width="2" stroke-miterlimit="10" stroke-linecap="round" stroke-linejoin="round"/>
<path d="M10.6406 39.3594L13.9531 36.0469" stroke="#D0AF94" stroke-width="2" stroke-miterlimit="10" stroke-linecap="round" stroke-linejoin="round"/>
<path d="M25 19.6094C26.875 16.2969 30.4375 14.0625 34.5156 14.0625C34.7656 14.0625 35 14.0781 35.25 14.0938C32.6406 15.4688 30.875 18.2031 30.875 21.3437C30.875 25.875 34.5469 29.5469 39.0781 29.5469C41.5781 29.5469 43.8125 28.4219 45.3125 26.6562C44.5 31.9219 39.9844 35.9375 34.5156 35.9375C30.4375 35.9375 26.875 33.7031 25 30.3906" stroke="#D0AF94" stroke-width="2" stroke-miterlimit="10" stroke-linecap="round" stroke-linejoin="round"/>
</svg>
