<svg width="118" height="119" viewBox="0 0 118 119" fill="none" xmlns="http://www.w3.org/2000/svg">
<path d="M6.29955 82.8408C5.90143 82.8432 5.51481 82.7075 5.20561 82.4566C4.89642 82.2058 4.68381 81.8555 4.60404 81.4655C4.52428 81.0754 4.5823 80.6697 4.76821 80.3177C4.95412 79.9656 5.25641 79.689 5.62352 79.5349C5.99063 79.3808 6.39982 79.3589 6.7813 79.4728C7.16279 79.5867 7.49294 79.8294 7.71545 80.1596C7.93796 80.4897 8.03905 80.8868 8.00147 81.2832C7.96389 81.6796 7.78998 82.0506 7.50939 82.3331C7.18883 82.6552 6.754 82.8377 6.29955 82.8408Z" fill="#463B32"/>
<path d="M111.938 79.0265C111.508 78.877 111.156 78.5631 110.958 78.1539C110.76 77.7446 110.732 77.2735 110.881 76.8441C111.031 76.4142 111.345 76.0613 111.755 75.863C112.165 75.6647 112.636 75.6373 113.066 75.7868C113.496 75.9364 113.848 76.2502 114.046 76.6594C114.245 77.0685 114.272 77.5396 114.124 77.9693C114.006 78.306 113.787 78.5979 113.497 78.8046C113.207 79.0113 112.859 79.1226 112.503 79.1231C112.31 79.1228 112.119 79.0901 111.938 79.0265ZM2.66649 76.2362C2.53107 75.8026 2.57341 75.333 2.7842 74.9307C2.99499 74.5283 3.35696 74.2262 3.7905 74.0907C4.22391 73.9555 4.69323 73.9978 5.09547 74.2084C5.49771 74.4189 5.8 74.7803 5.93602 75.2135C6.07083 75.6469 6.02835 76.1161 5.81789 76.5182C5.60743 76.9204 5.24615 77.2227 4.8132 77.359C4.64679 77.4125 4.47308 77.4398 4.29827 77.44C3.93368 77.4387 3.57899 77.3213 3.28559 77.1048C2.9922 76.8884 2.77536 76.5841 2.66649 76.2362ZM113.778 73.3266C113.558 73.2757 113.351 73.1819 113.167 73.0507C112.984 72.9196 112.828 72.7535 112.709 72.5621C112.59 72.3708 112.51 72.1578 112.473 71.9353C112.436 71.7129 112.443 71.4854 112.494 71.2657C112.598 70.8228 112.873 70.439 113.26 70.1988C113.646 69.9586 114.112 69.8815 114.555 69.9844C114.998 70.0879 115.382 70.3629 115.622 70.7491C115.862 71.1353 115.939 71.6011 115.836 72.0441C115.749 72.421 115.536 72.7571 115.233 72.9979C114.93 73.2387 114.555 73.3701 114.168 73.3707C114.036 73.3708 113.906 73.356 113.778 73.3266ZM1.13841 70.2681C1.09411 70.0471 1.09378 69.8196 1.13745 69.5985C1.18111 69.3775 1.26791 69.1672 1.39288 68.9797C1.51785 68.7921 1.67855 68.6311 1.86579 68.5057C2.05303 68.3803 2.26314 68.2931 2.48412 68.2489C2.70493 68.2044 2.93233 68.204 3.15332 68.2475C3.37431 68.291 3.58454 68.3777 3.77199 68.5026C3.95943 68.6275 4.1204 68.7881 4.24568 68.9753C4.37096 69.1625 4.4581 69.3725 4.5021 69.5934C4.59123 70.0399 4.49942 70.5036 4.24686 70.8824C3.99429 71.2613 3.60164 71.5243 3.15519 71.6138C3.0437 71.6357 2.9303 71.6465 2.81668 71.646C2.42098 71.645 2.03779 71.5072 1.73196 71.2561C1.42613 71.0051 1.21645 70.656 1.13841 70.2681ZM115.001 67.4646C114.55 67.4089 114.141 67.1768 113.861 66.8193C113.581 66.4618 113.455 66.008 113.51 65.5575C113.537 65.3338 113.609 65.1179 113.72 64.9219C113.831 64.7259 113.98 64.5537 114.158 64.4153C114.336 64.2768 114.539 64.1747 114.756 64.1148C114.973 64.055 115.2 64.0385 115.424 64.0664C115.874 64.1221 116.284 64.3541 116.564 64.7116C116.844 65.069 116.971 65.5228 116.916 65.9735C116.865 66.3883 116.664 66.77 116.351 67.0471C116.038 67.3242 115.635 67.4778 115.217 67.4789C115.144 67.4788 115.072 67.474 115.001 67.4646ZM0.24683 64.1701C0.205057 63.7171 0.344788 63.2661 0.635331 62.9161C0.925873 62.5661 1.34347 62.3458 1.79637 62.3035C2.24932 62.2617 2.70033 62.4014 3.05032 62.692C3.40031 62.9825 3.62066 63.4001 3.66297 63.853C3.70474 64.3059 3.565 64.757 3.27446 65.1069C2.98392 65.4569 2.56633 65.6773 2.11343 65.7196C2.05979 65.7196 2.00734 65.7267 1.95251 65.7267C1.52551 65.7259 1.11414 65.566 0.79874 65.2781C0.483342 64.9903 0.286564 64.5952 0.24683 64.1701ZM115.605 61.5144C115.38 61.51 115.158 61.4614 114.952 61.3712C114.745 61.2811 114.559 61.1511 114.403 60.9889C114.247 60.8266 114.124 60.6352 114.042 60.4255C113.96 60.2159 113.92 59.9921 113.925 59.767C113.929 59.5418 113.977 59.3196 114.067 59.1132C114.157 58.9067 114.287 58.7201 114.45 58.5639C114.612 58.4077 114.803 58.285 115.013 58.2029C115.223 58.1207 115.447 58.0807 115.672 58.0851C115.897 58.0895 116.12 58.1382 116.327 58.2286C116.533 58.319 116.72 58.4492 116.876 58.6118C117.033 58.7744 117.155 58.9662 117.238 59.1763C117.32 59.3864 117.36 59.6106 117.355 59.8361C117.346 60.285 117.161 60.7124 116.841 61.0267C116.52 61.3409 116.089 61.5169 115.64 61.5168H115.605V61.5144ZM1.69505 59.7503C1.24055 59.745 0.80676 59.5594 0.488956 59.2345C0.171151 58.9095 -0.00467483 58.4717 9.45557e-05 58.0172C0.00242801 57.792 0.0491672 57.5694 0.137634 57.3622C0.226101 57.1551 0.354558 56.9674 0.515652 56.81C0.676746 56.6525 0.867314 56.5284 1.07644 56.4447C1.28557 56.361 1.50915 56.3194 1.73438 56.3223C1.95967 56.3243 2.18234 56.3707 2.38963 56.459C2.59691 56.5473 2.78473 56.6756 2.94231 56.8366C3.09989 56.9976 3.22414 57.1882 3.30792 57.3973C3.3917 57.6064 3.43337 57.8301 3.43053 58.0553C3.42551 58.5068 3.24255 58.9381 2.92139 59.2555C2.60023 59.5728 2.16683 59.7506 1.71532 59.7503H1.69505ZM113.739 53.9681C113.719 53.7436 113.745 53.5175 113.813 53.3027C113.881 53.0879 113.991 52.8887 114.137 52.7165C114.282 52.5442 114.46 52.4023 114.66 52.2989C114.86 52.1954 115.079 52.1324 115.304 52.1135C115.528 52.0942 115.754 52.1194 115.969 52.1875C116.184 52.2557 116.383 52.3656 116.555 52.5108C116.727 52.6561 116.869 52.8339 116.973 53.034C117.076 53.2342 117.139 53.4528 117.158 53.6773C117.196 54.1312 117.052 54.5816 116.759 54.9296C116.465 55.2775 116.045 55.4946 115.591 55.5332C115.543 55.5332 115.496 55.5391 115.448 55.5391C115.018 55.5392 114.603 55.3778 114.286 55.0869C113.969 54.796 113.773 54.3968 113.736 53.9681H113.739ZM1.89411 53.7739C1.44238 53.7209 1.03004 53.4911 0.747422 53.1348C0.464802 52.7784 0.33494 52.3246 0.386286 51.8727C0.438309 51.4208 0.667705 51.0081 1.02401 50.7253C1.38032 50.4425 1.83436 50.3129 2.28626 50.3649C2.51027 50.3905 2.72705 50.46 2.9242 50.5694C3.12134 50.6788 3.295 50.826 3.43525 51.0026C3.57549 51.1791 3.67958 51.3816 3.74155 51.5984C3.80353 51.8152 3.82219 52.042 3.79646 52.266C3.74745 52.6839 3.54686 53.0693 3.23272 53.3491C2.91858 53.629 2.5127 53.7839 2.09197 53.7846C2.02508 53.7846 1.95823 53.781 1.89172 53.7739H1.89411ZM112.949 48.2217C112.863 47.7752 112.958 47.3129 113.213 46.9362C113.468 46.5596 113.862 46.2996 114.308 46.2133C114.755 46.1281 115.218 46.2238 115.595 46.4795C115.971 46.7352 116.231 47.1299 116.317 47.5769C116.359 47.7983 116.357 48.0259 116.312 48.2467C116.266 48.4674 116.178 48.6771 116.051 48.8636C115.924 49.0501 115.762 49.2098 115.574 49.3337C115.385 49.4575 115.175 49.543 114.953 49.5853C114.846 49.6054 114.737 49.6153 114.628 49.6151C114.229 49.6142 113.844 49.4746 113.537 49.2204C113.23 48.9661 113.022 48.613 112.947 48.2217H112.949ZM2.71536 47.8463C2.49526 47.7975 2.28696 47.7058 2.10242 47.5763C1.91788 47.4468 1.76074 47.2821 1.64002 47.0918C1.5193 46.9014 1.43738 46.689 1.39895 46.4669C1.36053 46.2447 1.36637 46.0172 1.41613 45.7973C1.51528 45.3549 1.78568 44.9698 2.16813 44.7263C2.55059 44.4828 3.01394 44.4007 3.45676 44.4981C3.90067 44.598 4.28676 44.87 4.53017 45.2545C4.77357 45.6389 4.85437 46.1043 4.75479 46.5482C4.67035 46.9282 4.45911 47.2681 4.15582 47.512C3.85254 47.7559 3.47527 47.8894 3.08606 47.8904C2.96042 47.8901 2.83522 47.8753 2.71298 47.8463H2.71536ZM111.558 42.5922C111.493 42.3766 111.471 42.1503 111.493 41.9262C111.515 41.702 111.581 41.4844 111.687 41.2858C111.794 41.0872 111.938 40.9115 112.112 40.7688C112.286 40.626 112.487 40.519 112.703 40.4538C112.918 40.3882 113.144 40.3657 113.368 40.3876C113.592 40.4095 113.81 40.4753 114.009 40.5814C114.207 40.6875 114.383 40.8316 114.526 41.0057C114.669 41.1797 114.776 41.3802 114.841 41.5957C114.907 41.8115 114.93 42.0382 114.909 42.2629C114.887 42.4875 114.822 42.7058 114.716 42.905C114.61 43.1043 114.466 43.2808 114.291 43.4242C114.117 43.5677 113.916 43.6754 113.7 43.7412C113.538 43.7897 113.369 43.8142 113.199 43.8139C112.83 43.8141 112.471 43.6953 112.175 43.4752C111.879 43.2551 111.662 42.9454 111.556 42.5922H111.558ZM4.15405 42.0391C3.72355 41.8926 3.36878 41.5812 3.16765 41.1734C2.96652 40.7655 2.93546 40.2945 3.08129 39.8638C3.22756 39.4337 3.53851 39.0791 3.94589 38.878C4.35327 38.6769 4.8238 38.6456 5.25422 38.791C5.68434 38.9381 6.03869 39.2495 6.23974 39.6572C6.44078 40.0649 6.47215 40.5356 6.32698 40.9663C6.21205 41.3064 5.99338 41.6019 5.70174 41.8113C5.41009 42.0206 5.06015 42.1332 4.70115 42.1333C4.51405 42.1324 4.32839 42.1005 4.15166 42.0391H4.15405ZM109.582 37.1414C109.494 36.934 109.448 36.7113 109.446 36.486C109.444 36.2608 109.487 36.0374 109.572 35.8286C109.656 35.6198 109.781 35.4297 109.939 35.2693C110.097 35.1088 110.285 34.9811 110.493 34.8933C110.912 34.7159 111.384 34.7121 111.806 34.8826C112.227 35.0531 112.564 35.3841 112.742 35.8028C112.919 36.2218 112.923 36.6942 112.752 37.1159C112.582 37.5377 112.25 37.8744 111.831 38.052C111.62 38.1429 111.393 38.1896 111.163 38.1891C110.825 38.1895 110.495 38.0903 110.213 37.904C109.932 37.7176 109.711 37.4523 109.58 37.1414H109.582ZM6.19825 36.4167C5.78605 36.225 5.46671 35.8777 5.31029 35.4509C5.15387 35.0241 5.17314 34.5527 5.36388 34.14C5.55426 33.7296 5.89899 33.4109 6.3231 33.2533C6.74721 33.0957 7.21639 33.112 7.62859 33.2985C8.04201 33.4896 8.36272 33.8369 8.52028 34.2642C8.67783 34.6915 8.65936 35.1638 8.46891 35.5775C8.33139 35.8745 8.11196 36.126 7.83642 36.3025C7.56087 36.479 7.24066 36.5732 6.91342 36.574C6.66642 36.5742 6.42236 36.5205 6.19825 36.4167ZM107.037 31.9314C106.928 31.7343 106.858 31.5176 106.833 31.2936C106.807 31.0697 106.826 30.8429 106.888 30.6262C106.95 30.4095 107.054 30.2071 107.194 30.0306C107.334 29.8541 107.508 29.7069 107.705 29.5975C107.902 29.4882 108.119 29.4188 108.343 29.3933C108.567 29.3678 108.794 29.3867 109.011 29.4489C109.227 29.5111 109.43 29.6154 109.606 29.7558C109.783 29.8963 109.93 30.0701 110.039 30.2674C110.258 30.6656 110.311 31.1345 110.185 31.5715C110.06 32.0084 109.766 32.3778 109.369 32.5988C109.114 32.7407 108.826 32.8146 108.535 32.8134C108.229 32.8133 107.929 32.7314 107.666 32.5763C107.403 32.4212 107.186 32.1985 107.037 31.9314ZM8.82054 31.0386C8.62685 30.9234 8.45776 30.7712 8.32295 30.5907C8.18815 30.4101 8.09027 30.2047 8.03491 29.9863C7.97956 29.7679 7.96781 29.5407 8.00035 29.3177C8.0329 29.0947 8.10909 28.8804 8.22456 28.6869C8.45757 28.2958 8.83635 28.0134 9.2776 27.9016C9.71885 27.7898 10.1864 27.8579 10.5775 28.0909C10.7712 28.206 10.9403 28.3582 11.0751 28.5388C11.2099 28.7194 11.3078 28.9247 11.3631 29.1432C11.4185 29.3616 11.4302 29.5888 11.3977 29.8118C11.3651 30.0347 11.2889 30.2491 11.1735 30.4426C11.0206 30.6976 10.8041 30.9086 10.5452 31.0548C10.2864 31.2011 9.99395 31.2776 9.69662 31.277C9.38835 31.2787 9.08546 31.1962 8.82054 31.0386ZM103.965 27.0122C103.835 26.8278 103.743 26.6196 103.694 26.3995C103.645 26.1795 103.64 25.9519 103.679 25.7299C103.718 25.5078 103.8 25.2957 103.922 25.1057C104.043 24.9156 104.2 24.7513 104.385 24.6223C104.757 24.3626 105.217 24.261 105.664 24.3399C106.111 24.4188 106.508 24.6716 106.769 25.0431C106.899 25.2276 106.991 25.4359 107.04 25.656C107.089 25.8761 107.094 26.1038 107.055 26.3259C107.016 26.5481 106.934 26.7603 106.812 26.9504C106.691 27.1406 106.533 27.305 106.348 27.4341C106.061 27.6363 105.719 27.745 105.367 27.7452C105.092 27.7446 104.821 27.6777 104.578 27.5501C104.334 27.4224 104.124 27.2379 103.967 27.0122H103.965ZM11.9971 25.9692C11.6325 25.6968 11.3911 25.2908 11.3258 24.8404C11.2605 24.39 11.3768 23.9321 11.649 23.5674C11.784 23.3868 11.9533 23.2346 12.1471 23.1194C12.3409 23.0042 12.5555 22.9284 12.7787 22.8962C13.0018 22.864 13.2291 22.876 13.4476 22.9317C13.6661 22.9874 13.8715 23.0855 14.052 23.2206C14.2334 23.3553 14.3864 23.5245 14.5022 23.7186C14.618 23.9126 14.6944 24.1276 14.7268 24.3513C14.7593 24.5749 14.7472 24.8027 14.6913 25.0217C14.6355 25.2406 14.5369 25.4464 14.4013 25.6271C14.242 25.8413 14.0346 26.0151 13.7959 26.1345C13.5573 26.254 13.2939 26.3158 13.0269 26.3149C12.6561 26.3138 12.2956 26.1925 11.9995 25.9692H11.9971ZM100.391 22.4422C100.093 22.0989 99.9429 21.6511 99.9746 21.1973C100.006 20.7436 100.217 20.321 100.56 20.0226C100.73 19.8745 100.928 19.7614 101.141 19.6898C101.355 19.6182 101.581 19.5894 101.805 19.6051C102.03 19.6208 102.25 19.6807 102.451 19.7814C102.653 19.8821 102.832 20.0216 102.98 20.1918C103.128 20.3617 103.241 20.559 103.313 20.7726C103.384 20.9862 103.413 21.2118 103.398 21.4365C103.382 21.6612 103.322 21.8807 103.222 22.0823C103.121 22.2839 102.982 22.4637 102.812 22.6115C102.5 22.8839 102.1 23.0335 101.686 23.0322C101.441 23.032 101.198 22.9792 100.976 22.8774C100.753 22.7756 100.554 22.6272 100.393 22.4422H100.391ZM15.6862 21.2574C15.521 21.1042 15.3876 20.9199 15.2937 20.7152C15.1997 20.5104 15.1471 20.2891 15.1386 20.064C15.1302 19.8388 15.1663 19.6142 15.2447 19.403C15.3231 19.1918 15.4423 18.9981 15.5956 18.833C15.7484 18.6677 15.9322 18.534 16.1367 18.4398C16.3411 18.3456 16.5622 18.2926 16.7871 18.2838C17.0121 18.2751 17.2365 18.3108 17.4477 18.3888C17.6588 18.4669 17.8525 18.5858 18.0176 18.7388C18.1832 18.8918 18.3171 19.076 18.4114 19.2807C18.5058 19.4855 18.5589 19.7068 18.5676 19.9321C18.5764 20.1574 18.5406 20.3822 18.4624 20.5937C18.3842 20.8051 18.265 20.9991 18.1118 21.1645C17.9516 21.3381 17.7572 21.4767 17.5407 21.5715C17.3243 21.6663 17.0906 21.7152 16.8543 21.7151C16.4211 21.7157 16.0037 21.5521 15.6862 21.2574ZM96.3659 18.2704C96.2008 18.1168 96.0676 17.9322 95.974 17.7271C95.8804 17.522 95.8281 17.3005 95.8203 17.0751C95.8124 16.8498 95.8491 16.6252 95.9282 16.414C96.0073 16.2029 96.1273 16.0095 96.2812 15.8448C96.5916 15.5123 97.0213 15.3166 97.4759 15.3008C97.9305 15.2849 98.3728 15.4501 98.7057 15.7601C99.0379 16.0709 99.2334 16.5008 99.2493 16.9555C99.2651 17.4102 99.1001 17.8526 98.7903 18.1858C98.6294 18.3578 98.4348 18.4949 98.2187 18.5886C98.0026 18.6823 97.7695 18.7306 97.534 18.7305C97.1002 18.7317 96.6823 18.5671 96.3659 18.2704ZM19.8425 16.9593C19.6941 16.7899 19.5806 16.5929 19.5083 16.3796C19.4361 16.1662 19.4066 15.9408 19.4216 15.7161C19.4365 15.4914 19.4956 15.2718 19.5954 15.0699C19.6953 14.8681 19.8339 14.6878 20.0034 14.5396C20.3452 14.2397 20.7921 14.0879 21.2458 14.1174C21.6996 14.1469 22.123 14.3553 22.4231 14.6969C22.7231 15.0393 22.8751 15.4868 22.8456 15.9411C22.8161 16.3954 22.6076 16.8194 22.2658 17.1202C21.9532 17.3943 21.5515 17.5452 21.1358 17.5445C20.8915 17.5443 20.6501 17.4918 20.4278 17.3904C20.2056 17.289 20.0076 17.1412 19.8473 16.9569L19.8425 16.9593ZM91.9211 14.542C91.5582 14.2674 91.319 13.8601 91.256 13.4094C91.193 12.9587 91.3113 12.5014 91.5849 12.1378C91.8597 11.7752 92.267 11.5362 92.7176 11.4732C93.1682 11.4102 93.6254 11.5283 93.9891 11.8017C94.3517 12.0765 94.5907 12.4838 94.6537 12.9343C94.7167 13.3849 94.5986 13.8421 94.3252 14.2058C94.165 14.4177 93.9579 14.5896 93.72 14.7079C93.4822 14.8262 93.2201 14.8877 92.9545 14.8876C92.5815 14.8882 92.2187 14.7668 91.9211 14.542ZM24.4351 13.1116C24.1751 12.7407 24.0722 12.282 24.1488 11.8355C24.2253 11.389 24.4752 10.9909 24.844 10.7277C25.0278 10.5976 25.2355 10.5049 25.4552 10.4552C25.6749 10.4054 25.9022 10.3994 26.1242 10.4376C26.3462 10.4758 26.5585 10.5574 26.7489 10.6778C26.9393 10.7981 27.1041 10.9548 27.2338 11.139C27.3641 11.3227 27.4569 11.5304 27.5069 11.7501C27.5569 11.9698 27.5631 12.1972 27.5251 12.4192C27.4871 12.6413 27.4058 12.8537 27.2856 13.0443C27.1655 13.2349 27.009 13.4 26.825 13.53C26.5359 13.7343 26.1908 13.8442 25.8369 13.8447C25.5616 13.8436 25.2906 13.7764 25.0467 13.6489C24.8028 13.5213 24.5931 13.3371 24.4351 13.1116ZM87.1187 11.2891C86.7311 11.0538 86.4523 10.6747 86.3431 10.2346C86.2339 9.79448 86.3032 9.32904 86.5358 8.9398C86.7706 8.55058 87.1502 8.27038 87.5913 8.16066C88.0324 8.05094 88.499 8.12067 88.8887 8.35455C89.2782 8.5891 89.5586 8.96868 89.6684 9.40988C89.7781 9.85107 89.7082 10.3178 89.474 10.7075C89.3219 10.9621 89.1062 11.1729 88.8482 11.3191C88.5901 11.4654 88.2985 11.5421 88.0019 11.5418C87.6893 11.5413 87.3827 11.4556 87.1151 11.2939L87.1187 11.2891ZM29.3936 9.77417C29.1722 9.37693 29.1173 8.90815 29.2409 8.47049C29.3644 8.03283 29.6564 7.66198 30.0528 7.43914C30.45 7.21743 30.9188 7.16232 31.3566 7.28589C31.7944 7.40946 32.1652 7.70162 32.3878 8.09829C32.6098 8.49538 32.6651 8.96439 32.5415 9.40223C32.4179 9.84007 32.1256 10.2109 31.7287 10.4333C31.474 10.5769 31.1866 10.6524 30.8943 10.6526C30.5886 10.6531 30.2883 10.5719 30.0245 10.4175C29.7607 10.2631 29.5429 10.041 29.3936 9.77417ZM81.9933 8.57149C81.7887 8.47661 81.6049 8.34235 81.4522 8.17639C81.2996 8.01043 81.1812 7.81602 81.1037 7.60426C81.0262 7.39251 80.9912 7.16756 81.0007 6.94228C81.0102 6.71699 81.0639 6.49578 81.1589 6.29129C81.2538 6.08674 81.3881 5.90289 81.554 5.75025C81.72 5.5976 81.9144 5.47915 82.1262 5.40167C82.3379 5.32418 82.5629 5.28918 82.7881 5.29866C83.0134 5.30814 83.2346 5.36192 83.4391 5.45692C83.852 5.6488 84.1718 5.99675 84.3283 6.42432C84.4847 6.85189 84.465 7.32408 84.2735 7.73712C84.1352 8.0335 83.9151 8.28418 83.6391 8.45966C83.3631 8.63514 83.0427 8.72812 82.7156 8.72764C82.4661 8.7286 82.2195 8.67447 81.9933 8.56911V8.57149ZM34.6728 6.9707C34.5838 6.76387 34.5364 6.54152 34.5334 6.31637C34.5304 6.09121 34.5718 5.86768 34.6553 5.65855C34.7388 5.44942 34.8626 5.2588 35.0199 5.0976C35.1771 4.9364 35.3645 4.80778 35.5715 4.7191C35.9896 4.54011 36.4617 4.53448 36.8839 4.70347C37.3061 4.87245 37.644 5.2022 37.8231 5.62022C38.0016 6.03695 38.0077 6.50746 37.8399 6.92862C37.6721 7.34979 37.3441 7.68725 36.928 7.86705C36.7149 7.95903 36.4854 8.00649 36.2533 8.00651C35.9179 8.00647 35.5899 7.9081 35.3098 7.72358C35.0298 7.53906 34.8099 7.27647 34.6776 6.96832L34.6728 6.9707ZM76.6092 6.40333C76.3955 6.33081 76.1982 6.21686 76.0286 6.06799C75.859 5.91912 75.7204 5.73827 75.6208 5.53577C75.5211 5.33328 75.4624 5.11312 75.4479 4.8879C75.4334 4.66268 75.4636 4.43682 75.5365 4.22325C75.6093 4.0099 75.7236 3.81303 75.8727 3.64393C76.0217 3.47483 76.2028 3.33682 76.4053 3.23782C76.6078 3.13882 76.8279 3.08077 77.0529 3.06702C77.278 3.05326 77.5035 3.08406 77.7166 3.15765C77.9296 3.2305 78.1263 3.34465 78.2952 3.49357C78.4641 3.6425 78.602 3.82326 78.701 4.02553C78.7999 4.2278 78.858 4.4476 78.872 4.67235C78.8859 4.8971 78.8554 5.1224 78.7822 5.33534C78.6665 5.67343 78.448 5.96694 78.1574 6.17486C77.8668 6.38279 77.5185 6.49475 77.1611 6.49511C76.9749 6.49308 76.7902 6.46129 76.614 6.40095L76.6092 6.40333ZM40.2225 4.7346C40.156 4.51922 40.1326 4.29284 40.1537 4.06841C40.1747 3.84398 40.2398 3.6259 40.3452 3.42664C40.4506 3.22737 40.5942 3.05084 40.7678 2.90713C40.9415 2.76341 41.1418 2.65534 41.3573 2.58909C41.7918 2.45528 42.2616 2.49922 42.6638 2.71125C43.066 2.92329 43.3677 3.28613 43.5028 3.72025C43.6361 4.15524 43.5915 4.62534 43.3788 5.02752C43.1661 5.4297 42.8026 5.73114 42.368 5.86576C42.2044 5.9168 42.034 5.94292 41.8627 5.94324C41.497 5.94223 41.1413 5.82458 40.8472 5.60742C40.553 5.39026 40.3359 5.0849 40.2273 4.73579L40.2225 4.7346ZM71.0321 4.80969C70.8124 4.75975 70.6047 4.66699 70.4209 4.53671C70.2371 4.40643 70.0808 4.24119 69.9609 4.05045C69.841 3.8597 69.7599 3.64719 69.7222 3.42507C69.6845 3.20295 69.691 2.97558 69.7412 2.75596C69.8426 2.31234 70.1161 1.92715 70.5014 1.68509C70.8868 1.44302 71.3525 1.36388 71.7961 1.46508C72.0158 1.51529 72.2234 1.60827 72.407 1.73873C72.5907 1.86918 72.7469 2.03454 72.8667 2.22537C72.9865 2.4162 73.0674 2.62875 73.105 2.85088C73.1427 3.07302 73.1361 3.30039 73.0858 3.52C72.9997 3.89828 72.7877 4.23611 72.4846 4.4782C72.1814 4.72029 71.8051 4.85229 71.4171 4.8526C71.2904 4.85291 71.164 4.83892 71.0405 4.81088L71.0321 4.80969ZM45.982 3.09924C45.9387 2.87821 45.9394 2.65081 45.984 2.43004C46.0286 2.20927 46.1163 1.99946 46.2421 1.8126C46.3678 1.62574 46.5292 1.4655 46.7169 1.34104C46.9046 1.21657 47.115 1.13033 47.3361 1.08723C47.7826 1.00048 48.2453 1.09465 48.6224 1.34903C48.9995 1.6034 49.2601 1.99715 49.3469 2.44367C49.3902 2.66477 49.3896 2.89224 49.345 3.11309C49.3004 3.33394 49.2127 3.54384 49.087 3.73079C48.9612 3.91775 48.7999 4.07809 48.6121 4.20268C48.4244 4.32726 48.214 4.41364 47.9929 4.45687C47.8833 4.47835 47.7719 4.48873 47.6603 4.48787C47.263 4.4868 46.8783 4.34773 46.5722 4.09443C46.2661 3.84114 46.0575 3.48935 45.982 3.09924ZM65.3227 3.81441C64.8714 3.75952 64.4603 3.52796 64.1794 3.17047C63.8986 2.81299 63.7709 2.35874 63.8244 1.90729C63.8511 1.6836 63.9216 1.46736 64.032 1.27094C64.1423 1.07451 64.2902 0.901745 64.4673 0.7625C64.6444 0.623256 64.8472 0.520264 65.0641 0.459406C65.281 0.398549 65.5078 0.381019 65.7315 0.407816C66.183 0.462105 66.5945 0.69351 66.8755 1.05115C67.1565 1.40878 67.2839 1.86337 67.2298 2.31494C67.1805 2.73152 66.9801 3.11557 66.6666 3.39433C66.3532 3.67309 65.9484 3.82722 65.5289 3.82752C65.4589 3.82872 65.3888 3.82633 65.3191 3.82037L65.3227 3.81441ZM51.8762 2.0837C51.8365 1.6306 51.9783 1.18027 52.2704 0.831625C52.5625 0.48298 52.9811 0.264531 53.4341 0.224256C53.659 0.204471 53.8855 0.22926 54.1008 0.297202C54.316 0.365144 54.5157 0.474902 54.6885 0.620185C54.8612 0.765467 55.0036 0.943417 55.1074 1.14383C55.2113 1.34425 55.2745 1.56319 55.2936 1.7881C55.3139 2.01248 55.2897 2.23867 55.2224 2.45368C55.155 2.66869 55.0459 2.8683 54.9013 3.04105C54.7567 3.2138 54.5794 3.35631 54.3796 3.46038C54.1797 3.56446 53.9613 3.62806 53.7369 3.64754C53.6868 3.65231 53.6356 3.65469 53.5831 3.65469C53.1536 3.65385 52.7401 3.49204 52.4241 3.2012C52.1081 2.91036 51.9126 2.51162 51.8762 2.0837ZM59.5345 3.4318C59.0794 3.42396 58.6459 3.23601 58.3291 2.90914C58.0123 2.58227 57.838 2.14314 57.8443 1.68797C57.8525 1.23336 58.0405 0.800491 58.3671 0.484155C58.6937 0.16782 59.1323 -0.0062101 59.587 0.000169401C59.8123 0.00343074 60.0347 0.0510825 60.2416 0.140398C60.4485 0.229714 60.6357 0.358941 60.7926 0.520685C60.9494 0.68243 61.0729 0.873519 61.1558 1.08302C61.2388 1.29252 61.2796 1.51632 61.276 1.74161C61.2697 2.19185 61.0865 2.62154 60.766 2.93781C60.4455 3.25408 60.0134 3.43153 59.5631 3.4318H59.5345Z" fill="#463B32"/>
<path d="M110.208 84.7229C109.811 84.7234 109.425 84.5861 109.118 84.3343C108.81 84.0825 108.599 83.7318 108.522 83.342C108.444 82.9522 108.503 82.5475 108.69 82.1968C108.877 81.8461 109.18 81.5711 109.548 81.4188C109.915 81.2665 110.323 81.2462 110.704 81.3614C111.084 81.4766 111.413 81.7202 111.634 82.0506C111.855 82.381 111.954 82.7779 111.915 83.1734C111.876 83.569 111.701 83.9389 111.42 84.2199C111.098 84.5399 110.662 84.7205 110.208 84.7229Z" fill="#463B32"/>
<path d="M46.0392 35.0936C45.6986 35.0924 45.3706 34.9648 45.1186 34.7356C44.8667 34.5064 44.7087 34.1919 44.6753 33.8529C44.642 33.5139 44.7355 33.1746 44.9379 32.9007C45.1403 32.6268 45.4372 32.4377 45.771 32.37C46.4349 32.2353 47.1406 32.1161 47.8236 32.0017C49.3457 31.7466 50.9226 31.482 52.1682 31.0243C54.2507 30.2621 56.2855 29.3752 58.2615 28.3686C60.3998 27.2768 61.9708 25.9847 63.3535 24.1968C63.7194 23.72 64.0687 23.2373 64.4263 22.7247C64.6646 22.3958 64.903 22.0656 65.1414 21.7402L65.269 21.5328C64.2308 21.466 63.2427 21.472 62.2891 21.4768C61.9577 21.4768 61.6276 21.4768 61.2986 21.4768C59.2944 21.4542 57.2943 21.665 55.3388 22.1049C52.3589 22.7939 48.2312 24.3458 45.4861 27.8263C43.7709 30.0016 41.2046 32.5667 38.692 32.4153C38.3436 32.3741 38.0241 32.2013 37.799 31.9323C37.5738 31.6632 37.4599 31.3183 37.4806 30.9681C37.5013 30.6179 37.655 30.2889 37.9104 30.0483C38.1657 29.8077 38.5033 29.6737 38.8541 29.6738C39.8232 29.7322 41.5861 28.34 43.3299 26.1278C45.8902 22.8856 49.8296 20.5613 54.7178 19.429C56.8803 18.9428 59.0918 18.7085 61.3081 18.7305C61.6311 18.7305 61.953 18.7305 62.276 18.7305C63.9733 18.721 65.7326 18.7114 67.8102 19.0607C68.0509 19.101 68.2765 19.2047 68.4639 19.361C68.6514 19.5173 68.7938 19.7207 68.8767 19.9502C68.9595 20.1798 68.9798 20.4272 68.9355 20.6672C68.8911 20.9072 68.7838 21.1311 68.6243 21.3158C68.5051 21.5042 68.1714 22.0537 67.9687 22.3886C67.5933 23.0168 67.4634 23.2313 67.3728 23.3589C67.1344 23.6795 66.9055 24.0025 66.6731 24.3267C66.3155 24.8357 65.9317 25.3613 65.536 25.8763C63.8911 28.0087 62.034 29.532 59.5166 30.8181C57.4399 31.8785 55.3008 32.812 53.1111 33.6132C51.6247 34.1567 49.9226 34.4476 48.2765 34.7193C47.5852 34.8385 46.932 34.9458 46.3145 35.071C46.2238 35.0878 46.1315 35.0954 46.0392 35.0936Z" fill="#463B32"/>
<path d="M46.0392 35.208C45.7705 35.2075 45.5069 35.1342 45.2763 34.9961C45.0458 34.8579 44.857 34.6599 44.7298 34.4232C44.6026 34.1864 44.5418 33.9196 44.5539 33.6511C44.566 33.3827 44.6505 33.1224 44.7984 32.898C44.9061 32.7345 45.0452 32.594 45.2077 32.4847C45.3702 32.3755 45.5527 32.2996 45.7448 32.2615C46.4075 32.1269 47.1132 32.0077 47.795 31.8932C49.3219 31.637 50.894 31.3735 52.1253 30.9206C54.2031 30.1618 56.2331 29.2782 58.2043 28.2745C60.3272 27.191 61.885 25.9144 63.2582 24.1348C63.6158 23.6664 63.9614 23.1896 64.3226 22.6842C64.5705 22.3373 64.8077 22.0072 65.0485 21.6806C65.0544 21.671 65.0628 21.6591 65.0711 21.6436C64.3393 21.6019 63.6515 21.5971 63.0686 21.5971C62.8136 21.5971 62.5609 21.5971 62.3094 21.5971H61.115C59.1786 21.5874 57.2472 21.797 55.3579 22.2217C52.3971 22.9071 48.2944 24.4483 45.5708 27.9061C43.9021 30.0219 41.3906 32.544 38.8958 32.5452C38.8231 32.5452 38.7492 32.5452 38.6753 32.5381C38.2805 32.5139 37.9114 32.3338 37.6493 32.0376C37.3872 31.7413 37.2536 31.353 37.2778 30.9581C37.302 30.5633 37.482 30.1942 37.7783 29.9321C38.0746 29.6701 38.4629 29.5364 38.8577 29.5606H38.9125C39.8661 29.5606 41.5587 28.1863 43.2381 26.0574C45.8175 22.7831 49.7796 20.4553 54.694 19.3146C56.8149 18.8379 58.983 18.6028 61.1568 18.6137H62.276C62.5549 18.6137 62.835 18.6137 63.1104 18.6137C64.6888 18.5903 66.2664 18.7024 67.8257 18.9486C68.0866 18.9922 68.3312 19.1044 68.5343 19.2738C68.7374 19.4432 68.8919 19.6635 68.9817 19.9123C69.0714 20.1611 69.0934 20.4293 69.0453 20.6893C68.9971 20.9494 68.8807 21.192 68.7078 21.3921C68.5993 21.5566 68.3061 22.0453 68.0641 22.453C67.6851 23.0859 67.5552 23.3016 67.4586 23.4328C67.2417 23.726 67.0307 24.0204 66.8185 24.316L66.7589 24.3994C66.4014 24.9072 66.0187 25.4328 65.6194 25.949C63.9638 28.0945 62.096 29.6285 59.5607 30.923C57.4807 31.9809 55.3388 32.9127 53.1468 33.7133C51.6509 34.2616 49.9417 34.5477 48.2908 34.8254H48.2646C47.584 34.9446 46.9415 35.0471 46.3336 35.1711C46.2369 35.1926 46.1383 35.205 46.0392 35.208ZM63.0734 21.3635C63.7099 21.3635 64.4704 21.3707 65.2809 21.4231C65.3004 21.4248 65.3192 21.4312 65.3356 21.4418C65.352 21.4524 65.3656 21.4668 65.3751 21.4839C65.3843 21.5012 65.3891 21.5204 65.3891 21.5399C65.3891 21.5595 65.3843 21.5787 65.3751 21.596C65.3167 21.6925 65.269 21.77 65.244 21.8069C65.0056 22.1383 64.7672 22.4673 64.5288 22.7962C64.1533 23.3207 63.8136 23.7999 63.4453 24.2707C62.0519 26.0789 60.4654 27.3757 58.3199 28.4747C56.3377 29.4827 54.2966 30.3703 52.2076 31.1328C50.9513 31.5929 49.3731 31.8575 47.8462 32.1137C47.1561 32.2329 46.4528 32.3521 45.7937 32.4821C45.4873 32.544 45.2148 32.7176 45.0291 32.9692C44.8434 33.2207 44.7578 33.5322 44.7888 33.8433C44.8199 34.1544 44.9654 34.4429 45.1971 34.6527C45.4288 34.8626 45.7302 34.979 46.0428 34.9792C46.1273 34.9792 46.2115 34.9708 46.2943 34.9542C46.907 34.829 47.5518 34.7217 48.2336 34.6073H48.261C49.9011 34.3308 51.5985 34.0459 53.0753 33.5059C55.2589 32.7087 57.3924 31.7805 59.4642 30.7263C61.9673 29.4485 63.8124 27.9336 65.4454 25.8167C65.8423 25.2993 66.2178 24.7761 66.5813 24.2671L66.6397 24.1837C66.8519 23.8881 67.0641 23.5877 67.281 23.2981C67.3716 23.1789 67.5003 22.9619 67.877 22.3373C67.9866 22.1526 68.1059 21.9523 68.2167 21.7712L68.1952 21.7807C68.1337 21.8079 68.0704 21.831 68.0057 21.8498C67.9798 21.8499 67.9545 21.8415 67.9337 21.8259C67.913 21.8104 67.8979 21.7884 67.8908 21.7635C67.8836 21.7385 67.8848 21.7119 67.8941 21.6877C67.9035 21.6635 67.9205 21.643 67.9426 21.6293C67.9978 21.6134 68.052 21.5939 68.1047 21.5709L68.1821 21.534C68.2085 21.5213 68.2387 21.5188 68.2668 21.5269C68.295 21.535 68.3191 21.5533 68.3347 21.5781C68.4205 21.4398 68.492 21.3242 68.5373 21.2551C68.7551 21.0064 68.8675 20.6828 68.8508 20.3527C68.8368 20.0658 68.7248 19.7923 68.5335 19.5779C68.3422 19.3636 68.0831 19.2214 67.7995 19.1751C66.2527 18.9316 64.688 18.8207 63.1223 18.8437C62.841 18.8437 62.5621 18.8437 62.2879 18.8437H61.1651C59.005 18.8349 56.8509 19.0712 54.7441 19.5482C49.8797 20.6734 45.9629 22.9762 43.4205 26.21C41.6326 28.4747 39.8721 29.8609 38.8482 29.7978H38.7755C38.4478 29.7981 38.1332 29.9259 37.8981 30.1542C37.6631 30.3824 37.5261 30.6932 37.5162 31.0207C37.5062 31.3482 37.6242 31.6667 37.845 31.9088C38.0658 32.1508 38.3722 32.2974 38.6992 32.3176C38.7695 32.3176 38.8374 32.3247 38.9066 32.3247C41.3084 32.3247 43.7626 29.849 45.4003 27.7726C48.1657 24.2635 52.3137 22.7009 55.3162 22.0072C57.2223 21.5786 59.1709 21.3671 61.1246 21.3766H62.2998L63.0734 21.3635Z" fill="#463B32"/>
<path d="M31.3413 46.8975C29.5361 46.8818 27.7534 46.4951 26.1038 45.7616C24.3421 44.9808 23.2205 43.802 22.3516 41.821C21.2633 39.3369 22.7342 37.6492 23.8069 36.4191C24.012 36.1807 24.2253 35.9423 24.422 35.6932C24.8714 35.1555 25.3633 34.6549 25.8929 34.1961C26.2933 33.8469 26.67 33.4714 27.0204 33.0721C27.2997 32.7182 27.5576 32.3481 27.7928 31.9635C28.1169 31.4311 28.4807 30.9239 28.8811 30.4462C29.8027 29.3737 31.0348 28.614 32.4069 28.2721C33.0958 28.1028 33.7633 28.1445 34.3521 28.1815C34.8051 28.2101 35.2735 28.2387 35.5167 28.1398C37.2486 27.4353 38.6444 25.6152 39.9948 23.8547C40.5431 23.1395 41.0605 22.4661 41.6088 21.8475C43.796 19.3849 46.7675 17.4682 50.4411 16.1511C52.5325 15.4184 54.7009 14.9277 56.9039 14.6886C57.2293 14.6516 57.5559 14.6111 57.8849 14.5694C59.5989 14.3572 61.3689 14.1391 63.4108 14.2547C63.6537 14.2684 63.8887 14.3463 64.0917 14.4805C64.2947 14.6147 64.4585 14.8003 64.5663 15.0184C64.6741 15.2365 64.7222 15.4793 64.7056 15.7221C64.6889 15.9649 64.6082 16.1989 64.4716 16.4002C64.3703 16.6005 64.114 17.1786 63.9519 17.535C63.648 18.2132 63.5419 18.4444 63.462 18.5851C63.2665 18.926 63.0746 19.2728 62.8839 19.6209L62.5263 20.2598C62.4381 20.4175 62.3197 20.5563 62.1779 20.6682C62.036 20.7801 61.8735 20.8631 61.6997 20.9122C61.5258 20.9613 61.3439 20.9758 61.1645 20.9546C60.985 20.9335 60.8115 20.8772 60.6538 20.789C60.4961 20.7008 60.3573 20.5824 60.2453 20.4405C60.1334 20.2987 60.0505 20.1362 60.0013 19.9623C59.9522 19.7884 59.9378 19.6066 59.9589 19.4271C59.9801 19.2477 60.0363 19.0741 60.1245 18.9164L60.4714 18.2907C60.6669 17.9331 60.8624 17.5815 61.0674 17.2298C61.0876 17.1905 61.1258 17.1106 61.1723 17.0057C60.1555 17.0618 59.1793 17.1822 58.2222 17.3002C57.8849 17.3419 57.5499 17.3836 57.2174 17.4194C55.2252 17.6354 53.2644 18.0789 51.3732 18.7412C48.1395 19.901 45.547 21.5602 43.6708 23.6735C43.1869 24.2182 42.6982 24.8547 42.1821 25.5282C40.6814 27.4854 38.9805 29.7 36.5561 30.6882C35.7324 31.0231 34.91 30.9718 34.1853 30.9265C33.7538 30.9003 33.3509 30.8753 33.0648 30.9444C32.2435 31.1525 31.507 31.6106 30.9575 32.2556C30.6472 32.6321 30.3643 33.0304 30.1112 33.4475C29.8169 33.9264 29.4933 34.3866 29.1421 34.8254C28.7122 35.3242 28.2473 35.7918 27.7511 36.2248C27.3294 36.5896 26.9358 36.9857 26.5735 37.4096C26.341 37.7004 26.1086 37.9662 25.8833 38.2249C24.7522 39.5241 24.5221 39.9091 24.8761 40.7148C25.4721 42.0617 26.1026 42.7412 27.2207 43.2442C29.5235 44.2645 33.0851 44.7508 35.5441 42.7674L35.6001 42.7221C35.7726 42.576 35.9586 42.4467 36.1556 42.3359C36.4734 42.1567 36.8495 42.111 37.201 42.209C37.5525 42.3071 37.8507 42.5407 38.0299 42.8586C38.2092 43.1764 38.2548 43.5525 38.1568 43.904C38.0588 44.2555 37.8251 44.5537 37.5072 44.7329C37.4451 44.7657 37.3871 44.8057 37.3344 44.8521L37.2724 44.9022C35.4881 46.3468 33.3902 46.8975 31.3413 46.8975Z" fill="#463B32"/>
<path d="M31.3412 47.012C29.5206 46.994 27.7228 46.6038 26.0585 45.8653C24.2706 45.0727 23.1299 43.8771 22.2443 41.8675C21.1274 39.3167 22.6245 37.5979 23.7175 36.344L23.7509 36.3059C23.9452 36.083 24.1454 35.8529 24.3302 35.6217C24.7833 35.0794 25.2791 34.5744 25.813 34.1115C26.2097 33.7666 26.5825 33.395 26.9286 32.9994C27.2053 32.6501 27.4604 32.2843 27.6927 31.904C28.0205 31.3662 28.3883 30.8538 28.7929 30.3711C29.7292 29.2802 30.9818 28.5078 32.3771 28.1612C32.7583 28.0722 33.1489 28.0297 33.5404 28.0349C33.8265 28.0349 34.1078 28.0516 34.3569 28.0671C34.5679 28.0802 34.786 28.0945 34.9791 28.0945C35.1455 28.1034 35.3121 28.0829 35.4714 28.0337C37.1735 27.3424 38.5597 25.5306 39.9007 23.788C40.4561 23.0621 40.9734 22.3898 41.5217 21.7712C43.7209 19.2943 46.7079 17.361 50.3994 16.0438C52.4992 15.308 54.6764 14.8149 56.8884 14.5742C57.2114 14.5384 57.5344 14.4979 57.861 14.455C59.2508 14.2833 60.68 14.1069 62.2593 14.1069C62.6467 14.1069 63.0364 14.1176 63.4143 14.1391C63.6772 14.1542 63.9315 14.2387 64.1512 14.384C64.3709 14.5292 64.5482 14.7301 64.665 14.9661C64.7819 15.2022 64.8342 15.4649 64.8165 15.7277C64.7989 15.9905 64.7119 16.2439 64.5645 16.4622C64.4775 16.6351 64.2451 17.1512 64.0532 17.5803C63.7516 18.2513 63.6431 18.4909 63.5585 18.6399C63.363 18.9796 63.1723 19.3265 62.9804 19.6733C62.8612 19.8867 62.742 20.1001 62.6228 20.3122C62.5283 20.4848 62.4006 20.6369 62.2469 20.7599C62.0933 20.8828 61.9168 20.9741 61.7277 21.0284C61.5387 21.0828 61.3407 21.0992 61.1452 21.0766C60.9497 21.054 60.7607 20.993 60.589 20.897C60.4172 20.8009 60.2662 20.6719 60.1446 20.5172C60.023 20.3625 59.9333 20.1852 59.8806 19.9956C59.8279 19.8061 59.8132 19.608 59.8375 19.4127C59.8618 19.2174 59.9245 19.0289 60.022 18.858C60.1412 18.6506 60.2604 18.4421 60.3689 18.2335C60.5643 17.8759 60.7598 17.5183 60.9648 17.1714C60.9725 17.1576 60.9793 17.1432 60.9851 17.1285C60.0375 17.1881 59.1221 17.3014 58.2341 17.411L58.1637 17.4205C57.8503 17.4587 57.5392 17.4968 57.2281 17.5326C55.2435 17.7461 53.2899 18.186 51.4054 18.8437C48.1871 19.9964 45.6137 21.646 43.7495 23.7451C43.2727 24.2886 42.7816 24.9227 42.2667 25.5938C40.7648 27.5676 39.0496 29.799 36.593 30.7943C36.0804 30.993 35.5335 31.0882 34.9839 31.0744C34.7014 31.0744 34.432 31.0577 34.1721 31.041C33.712 31.0136 33.3127 30.9993 33.0851 31.0553C32.2873 31.2584 31.5719 31.7035 31.0373 32.3295C30.7317 32.7031 30.4529 33.0978 30.2029 33.5107C29.9064 33.9942 29.5795 34.4584 29.2243 34.9005C28.7953 35.399 28.3317 35.8666 27.8369 36.2999C27.4146 36.664 27.0205 37.0597 26.6581 37.4835C26.4197 37.7839 26.1813 38.0592 25.9655 38.3012C24.8546 39.5766 24.6472 39.921 24.975 40.6708C25.5531 41.9891 26.1729 42.6578 27.2636 43.1417C28.5435 43.7086 29.9259 44.0075 31.3258 44.0202C32.9718 44.0202 34.3652 43.5684 35.4678 42.678L35.5226 42.6339C35.7 42.4833 35.8916 42.3504 36.0947 42.237C36.4387 42.0456 36.8443 41.9981 37.2232 42.1047C37.6021 42.2114 37.9233 42.4637 38.1168 42.8064C38.3103 43.1492 38.3603 43.5546 38.2559 43.9341C38.1515 44.3135 37.9012 44.6363 37.5597 44.8319C37.5022 44.8645 37.4493 44.9046 37.4023 44.9511L37.3391 45.0011C35.7098 46.3147 33.6346 47.012 31.3412 47.012ZM33.544 28.2626C33.171 28.2567 32.7987 28.2967 32.4355 28.3817C31.0846 28.7177 29.8716 29.4654 28.9645 30.5213C28.5705 30.9957 28.2119 31.4985 27.8917 32.0255C27.6543 32.4144 27.3936 32.7886 27.111 33.146C26.7594 33.5488 26.3802 33.9268 25.9763 34.2771C25.4501 34.7331 24.9614 35.2305 24.5149 35.7647C24.3278 36.0031 24.1252 36.232 23.9297 36.456L23.8963 36.4942C22.8426 37.7028 21.4004 39.3549 22.46 41.7745C23.3158 43.7281 24.4208 44.8891 26.1551 45.6567C27.7905 46.3821 29.557 46.7654 31.346 46.7831C33.5869 46.7831 35.612 46.1037 37.2021 44.8188L37.2653 44.7687C37.3225 44.7157 37.3861 44.67 37.4548 44.6328C37.7464 44.4677 37.9605 44.1934 38.0499 43.8704C38.1393 43.5474 38.0967 43.2021 37.9315 42.9105C37.7664 42.6188 37.4921 42.4048 37.1691 42.3154C36.8461 42.2259 36.5008 42.2685 36.2092 42.4337C36.0176 42.5413 35.8368 42.667 35.6692 42.8091L35.6132 42.8544C34.4856 43.7651 33.004 44.2466 31.3281 44.2466C29.8976 44.2341 28.4848 43.9291 27.1766 43.3503C26.0263 42.8413 25.3755 42.1393 24.7724 40.7626C24.3957 39.9032 24.6532 39.4741 25.7987 38.151C26.0085 37.9126 26.248 37.6373 26.4852 37.3405C26.851 36.9128 27.2495 36.5142 27.6772 36.1485C28.1686 35.7182 28.6294 35.2542 29.0563 34.7599C29.4024 34.325 29.7209 33.8687 30.0098 33.3939C30.2678 32.9702 30.5558 32.5655 30.8716 32.1829C31.4367 31.5214 32.1929 31.0512 33.0362 30.8372C33.2029 30.801 33.3734 30.7849 33.544 30.7895C33.743 30.7895 33.9576 30.8026 34.1852 30.8157C34.4499 30.8324 34.7145 30.8491 34.9898 30.8491C35.51 30.8629 36.0278 30.7734 36.5131 30.5857C38.9078 29.613 40.5979 27.4091 42.0891 25.4603C42.6088 24.7832 43.0975 24.1491 43.585 23.5961C45.4742 21.4684 48.0822 19.7985 51.3327 18.6316C53.2338 17.9678 55.2046 17.5235 57.2066 17.3073C57.5165 17.2716 57.8276 17.2322 58.1411 17.1881L58.2102 17.1798C59.1638 17.0606 60.1448 16.9414 61.1675 16.8854C61.1872 16.8837 61.207 16.8874 61.2248 16.896C61.2426 16.9046 61.2578 16.9178 61.2688 16.9342C61.2795 16.9507 61.2859 16.9695 61.2876 16.9891C61.2892 17.0086 61.2861 17.0283 61.2783 17.0463C61.2318 17.1512 61.1913 17.2346 61.1722 17.2751C60.9684 17.6327 60.7729 17.9843 60.5763 18.3384L60.2306 18.9653C60.1497 19.1099 60.0982 19.2689 60.0788 19.4334C60.0594 19.5979 60.0726 19.7646 60.1177 19.924C60.1627 20.0834 60.2387 20.2323 60.3413 20.3623C60.4439 20.4924 60.5712 20.6009 60.7157 20.6817C60.8603 20.7626 61.0193 20.8142 61.1838 20.8335C61.3483 20.8529 61.515 20.8397 61.6744 20.7947C61.8338 20.7496 61.9827 20.6736 62.1127 20.571C62.2427 20.4684 62.3513 20.3412 62.4321 20.1966L62.7897 19.5577C62.9804 19.2097 63.1723 18.8628 63.3678 18.5207C63.4453 18.386 63.5502 18.1572 63.8529 17.4813L64.1187 16.8913C64.054 16.9311 63.9862 16.9657 63.9161 16.995C63.888 17.0057 63.8569 17.0053 63.8291 16.9941C63.8012 16.9828 63.7787 16.9614 63.7659 16.9342C63.7553 16.9061 63.7556 16.8751 63.7669 16.8472C63.7781 16.8194 63.7995 16.7968 63.8267 16.784C63.9105 16.7501 63.9904 16.7074 64.0651 16.6565C64.0894 16.6411 64.1186 16.635 64.147 16.6394C64.1755 16.6438 64.2015 16.6583 64.2201 16.6803C64.2868 16.5349 64.3392 16.4145 64.3798 16.3418C64.5664 16.0708 64.6403 15.7378 64.586 15.4133C64.5401 15.1307 64.3987 14.8724 64.1856 14.6814C63.9724 14.4903 63.7002 14.378 63.4143 14.3632C63.04 14.3417 62.6562 14.331 62.2724 14.331C60.7074 14.331 59.2842 14.5062 57.9099 14.6767C57.5749 14.7172 57.2507 14.7577 56.9265 14.7959C54.7324 15.0341 52.5728 15.5228 50.49 16.2524C46.8342 17.5636 43.8794 19.4707 41.7053 21.9166C41.1617 22.5293 40.6492 23.1991 40.1045 23.9083C38.7361 25.6963 37.3308 27.5247 35.5751 28.2399C35.3888 28.3013 35.1928 28.3275 34.997 28.3174C34.7967 28.3174 34.5738 28.3031 34.3605 28.29C34.0899 28.2792 33.8229 28.2626 33.544 28.2626Z" fill="#463B32"/>
<path d="M81.7954 67.9784H81.7227C81.3585 67.959 81.0168 67.7958 80.7728 67.5247C80.5287 67.2537 80.4022 66.8968 80.4211 66.5325C80.4592 65.7852 80.6297 64.7518 80.7941 63.7517C80.9133 63.0139 81.0325 62.3214 81.079 61.8231C81.6202 56.3402 81.6237 51.8274 79.8764 47.5996C77.5783 42.0427 73.8546 38.6301 68.8103 37.4537C65.387 36.6563 61.1687 37.2248 58.2329 37.8435C57.4892 38.0008 56.7192 38.2106 55.9039 38.4311C54.3877 38.8435 52.8179 39.2655 51.2088 39.4109C47.2443 39.7577 46.0405 36.8994 45.0714 34.6025L44.9761 34.3773C44.8403 34.0426 44.8416 33.6679 44.9797 33.3342C45.1178 33.0005 45.3817 32.7345 45.7143 32.5936C46.0468 32.4527 46.4215 32.4483 46.7573 32.5814C47.093 32.7144 47.363 32.9741 47.509 33.3045L47.6055 33.5345C48.6604 36.0376 49.155 36.8315 50.9692 36.6718C52.3328 36.5526 53.7822 36.158 55.1827 35.7778C55.9992 35.5561 56.8443 35.3261 57.6656 35.1532C60.8743 34.4774 65.5205 33.8635 69.4349 34.7754C75.31 36.1449 79.8048 40.2166 82.4188 46.5495C84.3855 51.3066 84.3998 56.2043 83.8169 62.0949C83.7597 62.6778 83.6369 63.4168 83.5082 64.1987C83.3568 65.1248 83.1983 66.082 83.1685 66.6768C83.1496 67.0282 82.9967 67.359 82.7413 67.6012C82.4859 67.8433 82.1473 67.9783 81.7954 67.9784Z" fill="#463B32"/>
<path d="M81.7954 68.0928H81.7179C81.3233 68.0721 80.9531 67.8957 80.6885 67.6023C80.4239 67.3088 80.2865 66.9224 80.3066 66.5278C80.3448 65.7756 80.5152 64.7398 80.6797 63.741C80.7989 62.9984 80.9181 62.3106 80.9646 61.8136C81.5058 56.3509 81.5093 51.8501 79.7727 47.6449C77.4901 42.1249 73.7938 38.7338 68.7864 37.5657C67.5437 37.2937 66.2741 37.1633 65.002 37.1772C62.9828 37.1772 60.711 37.4394 58.2591 37.9567C57.5249 38.1116 56.7644 38.3143 55.9586 38.5372H55.936C54.4163 38.9508 52.8369 39.3787 51.2218 39.5193C51.0001 39.5396 50.7808 39.5491 50.571 39.5491C47.0381 39.5491 45.8914 36.8303 44.9689 34.6443L44.8723 34.4166C44.7869 34.2351 44.7391 34.0383 44.7316 33.838C44.7241 33.6376 44.7572 33.4378 44.8288 33.2504C44.9004 33.0631 45.009 32.8922 45.1483 32.7479C45.2875 32.6036 45.4544 32.4889 45.639 32.4106C45.8236 32.3324 46.0221 32.2922 46.2227 32.2924C46.4232 32.2927 46.6216 32.3335 46.806 32.4123C46.9904 32.4911 47.157 32.6063 47.2958 32.751C47.4346 32.8957 47.5427 33.0669 47.6138 33.2544L47.7103 33.4833C48.6758 35.7706 49.1407 36.5704 50.5531 36.5704C50.6795 36.5704 50.813 36.5704 50.9584 36.5514C52.3137 36.4322 53.7559 36.0412 55.1505 35.661C55.9718 35.4381 56.8192 35.2092 57.6405 35.0352C60.2866 34.4774 62.7659 34.2008 65.002 34.2008C66.5003 34.1859 67.9955 34.3415 69.4587 34.6645C75.372 36.0424 79.8895 40.1368 82.5237 46.5066C84.4987 51.2839 84.5142 56.1983 83.929 62.1068C83.873 62.6837 83.7526 63.418 83.6262 64.182V64.2178C83.4725 65.1511 83.3175 66.0975 83.2865 66.6827C83.2663 67.0642 83.1003 67.4233 82.8228 67.6858C82.5452 67.9482 82.1774 68.0939 81.7954 68.0928ZM64.9996 36.9507C66.2893 36.9367 67.5765 37.0687 68.8365 37.344C73.919 38.536 77.6701 41.9664 79.9824 47.5579C81.7394 51.8084 81.737 56.3402 81.1935 61.8362C81.1434 62.3357 81.029 63.0282 80.9074 63.772C80.7417 64.7732 80.5737 65.7983 80.5343 66.5409C80.5177 66.8744 80.6338 67.201 80.8571 67.4493C81.0804 67.6976 81.3928 67.8475 81.7263 67.8663H81.793C82.1154 67.8662 82.4255 67.7426 82.6596 67.5209C82.8937 67.2992 83.034 66.9963 83.0517 66.6744C83.0827 66.0784 83.2389 65.1248 83.3902 64.2011L83.3998 64.1486C83.519 63.3822 83.6382 62.6575 83.7001 62.0877C84.2818 56.2126 84.2675 51.3316 82.3115 46.5924C79.7071 40.2941 75.2432 36.2462 69.4063 34.8862C67.9583 34.5666 66.4787 34.4131 64.996 34.4285C62.773 34.4285 60.3117 34.7098 57.6822 35.2629C56.8645 35.4357 56.023 35.6646 55.2077 35.8863C53.8 36.2689 52.347 36.6634 50.9727 36.7838C50.819 36.7981 50.6807 36.8041 50.5472 36.8041C48.9977 36.8041 48.4815 35.9196 47.4934 33.5775L47.3969 33.3486C47.3006 33.12 47.1389 32.925 46.9321 32.788C46.7254 32.651 46.4827 32.5782 46.2347 32.5786C46.0276 32.5803 45.8241 32.633 45.6422 32.7319C45.4602 32.8309 45.3054 32.9731 45.1914 33.146C45.0774 33.3189 45.0077 33.5172 44.9884 33.7234C44.9691 33.9296 45.0009 34.1374 45.0809 34.3284L45.1774 34.5549C46.0726 36.6801 47.1883 39.3227 50.5674 39.3227C50.7713 39.3227 50.9834 39.3131 51.198 39.2941C52.8 39.1546 54.3614 38.7291 55.8728 38.319L55.8955 38.3119C56.7036 38.0926 57.4677 37.8852 58.2079 37.729C60.68 37.2105 62.9649 36.9507 64.9996 36.9507Z" fill="#463B32"/>
<path d="M89.4204 67.1321C89.2271 67.131 89.0361 67.0894 88.8598 67.01C88.6836 66.9306 88.5259 66.8151 88.397 66.671C88.268 66.5269 88.1707 66.3574 88.1113 66.1735C88.0519 65.9895 88.0317 65.7951 88.052 65.6028C88.2344 63.9651 87.9936 62.1187 87.4918 61.3118C87.3029 60.9921 87.0417 60.7212 86.7291 60.5208C86.4165 60.3205 86.0613 60.1962 85.692 60.158C85.3346 60.1286 84.9753 60.1844 84.6438 60.321C84.3122 60.4576 84.0179 60.6709 83.7849 60.9435C83.6637 61.0775 83.5173 61.1863 83.3541 61.2637C83.1909 61.3411 83.0141 61.3857 82.8336 61.3947C82.6532 61.4038 82.4728 61.3772 82.3026 61.3166C82.1325 61.2559 81.9759 61.1624 81.842 61.0412C81.708 60.9201 81.5991 60.7737 81.5217 60.6105C81.4443 60.4473 81.3998 60.2704 81.3907 60.09C81.3816 59.9096 81.4082 59.7292 81.4688 59.559C81.5295 59.3889 81.6231 59.2323 81.7442 59.0983C82.2641 58.5101 82.9144 58.0518 83.6432 57.7599C84.372 57.4681 85.1589 57.3509 85.9411 57.4177C86.7357 57.4931 87.5017 57.7536 88.1775 58.1783C88.8533 58.6031 89.4203 59.1802 89.8328 59.8636C90.8508 61.5096 90.9831 64.1546 90.7864 65.9115C90.7478 66.247 90.5874 66.5567 90.3356 66.7817C90.0838 67.0067 89.7581 67.1314 89.4204 67.1321Z" fill="#463B32"/>
<path d="M89.4204 67.2465C89.3646 67.2463 89.3089 67.2431 89.2535 67.237C88.8618 67.1915 88.504 66.9928 88.2584 66.6844C88.0127 66.376 87.8991 65.9828 87.9423 65.5909C88.1223 63.9746 87.8899 62.1604 87.4 61.369C87.2202 61.0643 86.9715 60.8059 86.6738 60.6147C86.3761 60.4234 86.0378 60.3045 85.6859 60.2676C85.346 60.2409 85.0046 60.2949 84.6896 60.4252C84.3745 60.5555 84.0947 60.7584 83.873 61.0173C83.607 61.307 83.2373 61.4797 82.8445 61.4979C82.4517 61.5161 82.0677 61.3783 81.776 61.1145C81.4844 60.8508 81.3089 60.4824 81.2877 60.0898C81.2666 59.6971 81.4015 59.312 81.6631 59.0184C82.143 58.4735 82.7333 58.0367 83.3947 57.7371C84.0562 57.4375 84.7738 57.2819 85.5 57.2806C85.6514 57.2806 85.8039 57.2865 85.9541 57.3008C86.767 57.3776 87.5504 57.644 88.2415 58.0788C88.9325 58.5135 89.5119 59.1044 89.9329 59.8039C90.9675 61.4727 91.1022 64.1451 90.9044 65.9246C90.863 66.289 90.6887 66.6253 90.4149 66.8691C90.1411 67.113 89.787 67.2474 89.4204 67.2465ZM85.4869 60.0304C85.556 60.0304 85.6263 60.0304 85.6967 60.04C86.0839 60.08 86.4564 60.2101 86.7842 60.42C87.1121 60.6299 87.3863 60.9137 87.5847 61.2486C88.0985 62.083 88.3464 63.9555 88.1605 65.6159C88.1414 65.9384 88.2467 66.2559 88.4549 66.503C88.663 66.7501 88.958 66.9078 89.2791 66.9437C89.6002 66.9797 89.9227 66.891 90.1804 66.6961C90.438 66.5011 90.6109 66.2148 90.6636 65.896C90.8579 64.1522 90.7291 61.5406 89.7255 59.9208C89.3227 59.2521 88.7686 58.6874 88.1078 58.2719C87.447 57.8564 86.6979 57.6018 85.9207 57.5285C85.7765 57.5154 85.6311 57.5082 85.4869 57.5082C84.7922 57.5109 84.1061 57.661 83.4738 57.9487C82.8415 58.2364 82.2776 58.655 81.8192 59.177C81.7081 59.2998 81.6224 59.4434 81.5668 59.5994C81.5112 59.7554 81.4869 59.9209 81.4953 60.0863C81.5036 60.2517 81.5445 60.4139 81.6155 60.5635C81.6865 60.7131 81.7863 60.8473 81.9092 60.9584C82.0321 61.0694 82.1756 61.1552 82.3316 61.2108C82.4877 61.2663 82.6531 61.2906 82.8185 61.2823C82.9839 61.2739 83.1461 61.2331 83.2957 61.1621C83.4453 61.091 83.5795 60.9912 83.6906 60.8684C83.9139 60.6085 84.19 60.3994 84.5006 60.2549C84.8112 60.1104 85.1491 60.0339 85.4916 60.0304H85.4869Z" fill="#463B32"/>
<path d="M56.5642 67.1154C56.3529 67.1155 56.1444 67.067 55.9548 66.9735C55.7653 66.8801 55.5998 66.7443 55.4712 66.5766C54.4461 65.2369 53.5951 63.3953 53.3042 61.8839C52.7667 59.0983 52.5712 56.1268 54.7584 53.2744C58.1161 48.8964 64.3631 46.0893 69.324 49.5126C69.6243 49.7199 69.83 50.0379 69.8959 50.3968C69.9617 50.7557 69.8823 51.126 69.6751 51.4263C69.4678 51.7266 69.1498 51.9323 68.7909 51.9982C68.432 52.064 68.0617 51.9846 67.7614 51.7773C64.1986 49.3183 59.5274 51.5759 56.9409 54.9479C55.495 56.8336 55.5105 58.8003 56.0052 61.3642C56.1828 62.2856 56.7621 63.7362 57.656 64.9031C57.8117 65.107 57.9073 65.3503 57.9321 65.6056C57.957 65.8608 57.9099 66.118 57.7964 66.348C57.6829 66.578 57.5074 66.7717 57.2897 66.9073C57.072 67.0429 56.8207 67.115 56.5642 67.1154Z" fill="#463B32"/>
<path d="M56.5641 67.2263C56.3351 67.2269 56.1091 67.1745 55.9038 67.0732C55.6984 66.9718 55.5193 66.8243 55.3805 66.6422C54.3447 65.2905 53.4865 63.4239 53.1921 61.903C52.6485 59.0888 52.4531 56.0887 54.6677 53.2018C57.1899 49.9132 60.9386 47.8702 64.4501 47.8702C66.2172 47.8638 67.9428 48.4052 69.3896 49.4197C69.7149 49.6441 69.9377 49.9886 70.009 50.3773C70.0803 50.7661 69.9943 51.1672 69.7698 51.4925C69.5454 51.8178 69.2009 52.0406 68.8122 52.1119C68.4234 52.1832 68.0223 52.0972 67.697 51.8727C66.7353 51.2032 65.5898 50.848 64.4179 50.856C61.8707 50.856 58.9719 52.4902 57.0278 55.0195C55.6082 56.8706 55.6261 58.8111 56.1136 61.3368C56.2888 62.2451 56.8597 63.6766 57.743 64.8292C57.912 65.0499 58.0159 65.3134 58.0429 65.59C58.07 65.8666 58.0191 66.1453 57.8961 66.3945C57.7731 66.6438 57.5829 66.8536 57.3469 67.0004C57.1108 67.1471 56.8385 67.225 56.5606 67.2251L56.5641 67.2263ZM64.4501 48.0966C61.0089 48.0966 57.3294 50.1063 54.8477 53.3412C52.6891 56.1566 52.8846 59.0995 53.4174 61.8601C53.7058 63.356 54.5473 65.1785 55.5629 66.5087C55.6624 66.6433 55.7877 66.7568 55.9315 66.8424C56.0753 66.9281 56.2347 66.9843 56.4004 67.0077C56.5662 67.0312 56.7349 67.0214 56.8968 66.9789C57.0588 66.9365 57.2106 66.8622 57.3435 66.7605C57.4764 66.6587 57.5878 66.5315 57.671 66.3863C57.7543 66.2411 57.8078 66.0808 57.8284 65.9146C57.8491 65.7485 57.8365 65.58 57.7913 65.4188C57.7461 65.2576 57.6693 65.107 57.5654 64.9759C56.6607 63.7934 56.0742 62.3214 55.8966 61.3881C55.396 58.7932 55.3817 56.8003 56.8502 54.8812C58.8312 52.2971 61.8028 50.6283 64.4179 50.6283C65.6363 50.6197 66.8273 50.989 67.8269 51.6856C68.1025 51.8652 68.4373 51.9301 68.7599 51.8664C69.0826 51.8027 69.3677 51.6155 69.5542 51.3446C69.7408 51.0738 69.8142 50.7407 69.7587 50.4165C69.7033 50.0923 69.5233 49.8026 69.2573 49.6092C67.8493 48.6217 66.1699 48.0945 64.4501 48.1002V48.0966Z" fill="#463B32"/>
<path d="M43.6386 65.7161C43.2934 65.7157 42.961 65.5853 42.7074 65.351C42.4539 65.1167 42.2978 64.7955 42.2703 64.4514C42.2409 64.0339 42.1472 63.6234 41.9925 63.2344C41.5432 62.2058 40.4609 61.4465 39.3154 60.6515C38.8923 60.357 38.4548 60.0555 38.0388 59.7241C36.0198 58.1639 34.4132 56.1334 33.3592 53.8096C32.7764 52.5533 32.184 51.1993 31.8931 49.6831C31.7429 48.9 31.8371 48.2265 31.9205 47.6329C31.9873 47.1502 32.0397 46.77 31.9646 46.3862C31.8942 46.0282 31.9688 45.6568 32.1721 45.3538C32.3754 45.0508 32.6907 44.841 33.0487 44.7705C33.4067 44.7 33.7781 44.7746 34.0811 44.9779C34.3841 45.1812 34.5939 45.4965 34.6644 45.8546C34.8289 46.6889 34.7276 47.4244 34.6454 48.0132C34.5822 48.4697 34.5262 48.8297 34.5953 49.1646C34.8265 50.3744 35.345 51.5485 35.8564 52.6523C36.7246 54.5857 38.0594 56.2731 39.7409 57.5631C40.0985 57.8408 40.4812 58.1102 40.89 58.3975C42.2309 59.3343 43.7507 60.3952 44.5147 62.1354C44.7896 62.8034 44.9573 63.5106 45.0118 64.2309C45.0414 64.5944 44.9255 64.9548 44.6895 65.2329C44.4534 65.511 44.1166 65.6839 43.7531 65.7137C43.7149 65.7149 43.6768 65.7161 43.6386 65.7161Z" fill="#463B32"/>
<path d="M43.6387 65.8305C43.2652 65.8283 42.9061 65.6866 42.6317 65.4332C42.3574 65.1798 42.1877 64.833 42.1559 64.4609C42.128 64.0557 42.0375 63.6572 41.8877 63.2797C41.4514 62.2808 40.3822 61.5347 39.2499 60.7456C38.8232 60.4476 38.3857 60.1425 37.9685 59.8147C35.9347 58.2428 34.3169 56.1966 33.2567 53.8549C32.6703 52.5927 32.0731 51.2327 31.7811 49.7022C31.6273 48.9012 31.7227 48.217 31.8073 47.6139C31.8729 47.1371 31.9265 46.77 31.8526 46.4064C31.7761 46.0187 31.8568 45.6165 32.0768 45.2882C32.2969 44.96 32.6384 44.7326 33.0261 44.6561C33.4138 44.5796 33.8161 44.6602 34.1443 44.8803C34.4726 45.1004 34.7 45.4418 34.7765 45.8295C34.9457 46.6889 34.842 47.4303 34.7586 48.0263C34.6954 48.4733 34.6466 48.8249 34.7073 49.1408C34.9362 50.3327 35.4511 51.5068 35.9601 52.5974C36.8192 54.517 38.1427 56.1924 39.8113 57.4725C40.1582 57.7467 40.5396 58.0125 40.9437 58.2938C42.3084 59.2473 43.8437 60.3201 44.6173 62.0866C44.8979 62.7661 45.0693 63.4858 45.125 64.219C45.1564 64.6128 45.0303 65.0031 44.7745 65.3042C44.5187 65.6054 44.154 65.7929 43.7602 65.8257C43.7209 65.8281 43.6804 65.8305 43.6387 65.8305ZM33.3175 44.8581C33.2347 44.8586 33.1521 44.867 33.0708 44.8831C32.7422 44.9482 32.453 45.1411 32.2666 45.4193C32.0801 45.6976 32.0119 46.0385 32.0767 46.3671C32.1566 46.7676 32.1029 47.155 32.0338 47.6461C31.9515 48.2421 31.8586 48.9 32.0064 49.6641C32.2936 51.1683 32.8837 52.514 33.4629 53.7632C34.5101 56.0711 36.106 58.0877 38.1116 59.6371C38.524 59.9613 38.959 60.2641 39.3798 60.5585C40.5408 61.369 41.6362 62.133 42.0987 63.1903C42.2576 63.5916 42.354 64.0149 42.3847 64.4454C42.4119 64.7789 42.5705 65.088 42.8255 65.3046C43.0806 65.5212 43.4112 65.6276 43.7447 65.6004C44.0783 65.5732 44.3873 65.4147 44.6039 65.1596C44.8205 64.9046 44.9269 64.5739 44.8997 64.2404C44.8459 63.5323 44.6805 62.8372 44.4099 62.1807C43.6625 60.4715 42.1559 59.419 40.8256 58.4916C40.4085 58.2008 40.0235 57.9326 39.6718 57.6573C37.9766 56.3549 36.6318 54.6513 35.7586 52.6999C35.2437 51.5926 34.7228 50.409 34.4892 49.1861C34.4213 48.8285 34.4725 48.4709 34.5369 48.0001C34.6191 47.4184 34.7193 46.6973 34.5583 45.8772C34.5015 45.59 34.3467 45.3313 34.1204 45.1455C33.8941 44.9596 33.6104 44.858 33.3175 44.8581Z" fill="#463B32"/>
<path d="M50.8082 66.2727C50.5776 66.2724 50.3507 66.2141 50.1485 66.1033C49.9462 65.9924 49.775 65.8325 49.6507 65.6383C49.5263 65.444 49.4528 65.2217 49.4367 64.9916C49.4207 64.7615 49.4628 64.5311 49.559 64.3215C49.9133 63.5522 50.217 62.7606 50.4685 61.9519C50.6461 61.3809 50.7534 60.0817 50.6139 58.972C50.5796 58.6154 50.6855 58.2595 50.9093 57.9798C51.1331 57.7001 51.4571 57.5186 51.8126 57.4739C52.168 57.4292 52.5268 57.5249 52.8129 57.7405C53.099 57.9561 53.2897 58.2747 53.3447 58.6287C53.5199 60.0304 53.4174 61.7278 53.0956 62.7648C52.8079 63.6865 52.4611 64.5887 52.0574 65.4658C51.9485 65.7059 51.7729 65.9097 51.5514 66.0528C51.3299 66.1959 51.0719 66.2722 50.8082 66.2727Z" fill="#463B32"/>
<path d="M50.8083 66.3919C50.5585 66.3915 50.3128 66.3284 50.0937 66.2083C49.8747 66.0883 49.6893 65.9151 49.5547 65.7047C49.42 65.4943 49.3403 65.2535 49.323 65.0043C49.3056 64.7551 49.3512 64.5056 49.4554 64.2786C49.8067 63.5136 50.1085 62.7269 50.3589 61.9233C50.5341 61.3631 50.6378 60.0853 50.5007 58.9958C50.4764 58.8017 50.4905 58.6046 50.5424 58.4159C50.5942 58.2272 50.6827 58.0505 50.8028 57.896C51.0453 57.584 51.4019 57.381 51.794 57.3319C52.1862 57.2827 52.5818 57.3914 52.8938 57.6339C53.0483 57.754 53.1777 57.9033 53.2745 58.0734C53.3713 58.2435 53.4336 58.431 53.458 58.6251C53.6356 60.0424 53.5307 61.7624 53.2041 62.8089C52.9159 63.7356 52.5679 64.6425 52.1623 65.5242C52.0428 65.7828 51.8518 66.0019 51.6119 66.1557C51.372 66.3094 51.0932 66.3914 50.8083 66.3919ZM51.9835 57.5488C51.9297 57.5488 51.876 57.5524 51.8226 57.5595C51.4908 57.6015 51.1892 57.7734 50.984 58.0376C50.7788 58.3017 50.6869 58.6365 50.7284 58.9684C50.8679 60.0877 50.7594 61.4084 50.5782 61.9912C50.3251 62.8049 50.0194 63.6012 49.6628 64.3751C49.5935 64.5256 49.5546 64.6883 49.5482 64.8538C49.5418 65.0194 49.5681 65.1846 49.6255 65.34C49.683 65.4954 49.7704 65.6379 49.883 65.7595C49.9955 65.8811 50.1309 65.9793 50.2814 66.0486C50.4319 66.1179 50.5946 66.1568 50.7601 66.1632C50.9257 66.1696 51.0909 66.1433 51.2463 66.0859C51.4017 66.0285 51.5443 65.941 51.6658 65.8284C51.7874 65.7159 51.8857 65.5805 51.9549 65.43C52.3559 64.5571 52.7003 63.6593 52.986 62.7421C53.303 61.723 53.4043 60.0424 53.2303 58.6549C53.1939 58.3495 53.0471 58.0679 52.8174 57.8633C52.5877 57.6586 52.2911 57.5451 51.9835 57.544V57.5488Z" fill="#463B32"/>
<path d="M63.0818 94.2836C61.8503 94.2739 60.6246 94.1137 59.432 93.8068C58.8229 93.6543 57.234 93.1238 54.2434 92.1202C48.5626 90.2131 35.2616 85.7457 33.3152 86.0162C32.0719 86.1891 30.5415 86.673 28.7679 87.4537C28.4332 87.6015 28.0536 87.6103 27.7125 87.4782C27.3714 87.3461 27.0967 87.0839 26.9489 86.7493C26.8012 86.4147 26.7923 86.035 26.9244 85.6939C27.0566 85.3528 27.3188 85.0781 27.6534 84.9304C29.6618 84.0471 31.4378 83.5 32.9337 83.2867C35.0864 82.9887 42.697 85.3416 55.1148 89.5075C57.4987 90.3085 59.5631 90.9998 60.0947 91.1333C62.4786 91.7293 63.9269 91.4909 64.1402 91.4539C67.6839 90.3371 71.547 86.9781 76.8846 82.3367C79.483 80.072 82.4283 77.5152 85.9064 74.7082C87.63 73.3171 89.1509 72.1014 90.4049 71.1001C92.0176 69.8104 93.4348 68.6781 93.9175 68.2561C93.9401 68.036 93.8825 67.8151 93.7554 67.6339C93.3979 67.1369 92.4443 66.8675 91.1474 66.8889C88.4143 66.9378 79.1731 72.7164 71.4564 78.3996C68.9533 80.2472 67.5718 81.5941 67.5599 81.6072C67.4313 81.7341 67.279 81.8345 67.1116 81.9026C66.9442 81.9707 66.7651 82.0051 66.5844 82.0039C66.4037 82.0028 66.225 81.966 66.0585 81.8958C65.892 81.8256 65.741 81.7233 65.6141 81.5947C65.4871 81.4661 65.3867 81.3138 65.3187 81.1464C65.2506 80.979 65.2162 80.7998 65.2173 80.6192C65.2185 80.4385 65.2552 80.2598 65.3254 80.0933C65.3957 79.9268 65.498 79.7757 65.6266 79.6488C65.6874 79.5892 67.1392 78.1624 69.8246 76.185C73.6389 73.3803 86.4226 64.2225 91.0974 64.1391H91.3024C94.7591 64.1391 95.9677 65.7542 96.3825 66.7292C96.8867 67.9212 96.7222 69.3515 95.9987 70.0786C95.6411 70.4362 94.554 71.3075 92.1225 73.2516C90.8709 74.2516 89.3548 75.4627 87.6336 76.8513C84.196 79.6262 81.2697 82.171 78.6939 84.4142C73.0763 89.3013 69.0165 92.8306 64.9031 94.1024L64.8387 94.1203C64.2615 94.2437 63.6718 94.2985 63.0818 94.2836Z" fill="#BD967A"/>
<path d="M63.0818 94.4028C61.8407 94.3892 60.6059 94.2247 59.4046 93.9129C58.7883 93.7591 57.1995 93.2275 54.2077 92.2239L54.0885 92.1833C48.677 90.368 36.003 86.1151 33.5202 86.1151C33.4584 86.1142 33.3967 86.1174 33.3354 86.1247C32.1017 86.2963 30.582 86.7767 28.8179 87.555C28.4582 87.7021 28.0553 87.703 27.695 87.5575C27.3346 87.4119 27.0454 87.1314 26.8887 86.7758C26.7321 86.4201 26.7205 86.0174 26.8565 85.6533C26.9924 85.2893 27.2651 84.9926 27.6164 84.8266C29.6332 83.9398 31.4199 83.3832 32.9254 83.1746C35.1114 82.8694 42.6338 85.2009 55.1589 89.4001C57.5535 90.2035 59.6048 90.8913 60.1305 91.0236C61.0957 91.2752 62.0879 91.4085 63.0853 91.4205C63.4342 91.4266 63.7829 91.4007 64.1271 91.343C67.6362 90.2357 71.4874 86.8863 76.8166 82.2508C79.4222 79.9861 82.3664 77.4258 85.8421 74.6223C87.5668 73.2313 89.0878 72.0167 90.3417 71.0143C91.9282 69.746 93.3037 68.6471 93.815 68.2037C93.8244 68.0257 93.7736 67.8498 93.6708 67.7042C93.3418 67.2429 92.4252 66.9891 91.157 67.0069C88.4489 67.0558 79.2375 72.8237 71.5315 78.495C69.0344 80.3354 67.6612 81.6787 67.6469 81.6918C67.3643 81.9619 66.9867 82.1101 66.5958 82.1045C66.2048 82.0988 65.8318 81.9396 65.5571 81.6613C65.2824 81.3831 65.1282 81.008 65.1275 80.617C65.1269 80.226 65.2801 79.8504 65.5539 79.5713C65.6147 79.5105 67.0772 78.0754 69.765 76.0956C73.5793 73.2861 86.394 64.1129 91.101 64.0282C94.7853 63.9591 96.0643 65.6731 96.4934 66.6863C97.0154 67.9128 96.8402 69.4075 96.0857 70.1608C95.7281 70.5184 94.6363 71.3945 92.1988 73.341C90.9472 74.3422 89.4322 75.5532 87.7122 76.9419C84.2794 79.712 81.3568 82.2532 78.7798 84.4941C73.1418 89.3966 69.0761 92.9331 64.9388 94.2121L64.8673 94.2323C64.2809 94.3591 63.6816 94.4164 63.0818 94.4028ZM33.5213 85.8863C36.0411 85.8863 48.2813 89.9925 54.1624 91.9652L54.2816 92.0058C57.2674 93.0082 58.8539 93.5386 59.4606 93.69C60.6441 93.9969 61.8604 94.159 63.0829 94.1727C63.6636 94.1858 64.2438 94.1297 64.8113 94.0058L64.8709 93.9892C68.9617 92.7245 73.0131 89.2011 78.62 84.3248C81.2078 82.0744 84.1316 79.532 87.568 76.7583C89.288 75.3709 90.8054 74.1586 92.0569 73.1586C94.4873 71.2157 95.5756 70.3432 95.9248 69.994C96.6161 69.3026 96.7699 67.9164 96.2824 66.7757C95.8736 65.815 94.6637 64.1904 91.1045 64.2559C86.4631 64.3393 73.702 73.4804 69.8973 76.2803C67.2226 78.2506 65.772 79.6738 65.7112 79.737C65.4854 79.9745 65.3609 80.2906 65.3641 80.6183C65.3673 80.946 65.4979 81.2595 65.7283 81.4926C65.9587 81.7256 66.2708 81.8598 66.5985 81.8668C66.9261 81.8737 67.2436 81.7528 67.4836 81.5297C67.4956 81.5178 68.877 80.1649 71.392 78.3114C79.1242 72.6175 88.3929 66.8281 91.1498 66.7781C92.5087 66.7554 93.4742 67.0391 93.8532 67.5707C93.9972 67.7744 94.0621 68.0236 94.0356 68.2716C94.0321 68.3 94.0186 68.3262 93.9974 68.3455C93.5111 68.771 92.107 69.895 90.4812 71.1931C89.226 72.1943 87.7063 73.4089 85.9827 74.8011C82.5094 77.6034 79.5676 80.1649 76.9704 82.4201C71.6066 87.0806 67.7459 90.4419 64.1795 91.5671C63.8171 91.6296 63.4495 91.658 63.0818 91.6517C62.0665 91.6378 61.0568 91.5009 60.0745 91.2441C59.5393 91.1106 57.4832 90.4205 55.104 89.6218C43.6041 85.7635 35.9637 83.376 33.3604 83.376C33.2254 83.3751 33.0904 83.3831 32.9564 83.3999C31.47 83.6061 29.7047 84.1567 27.7118 85.0352C27.4475 85.1525 27.2315 85.3568 27.0999 85.6142C26.9682 85.8716 26.9289 86.1663 26.9885 86.4492C27.0481 86.7321 27.203 86.986 27.4273 87.1684C27.6516 87.3507 27.9317 87.4506 28.2207 87.4513C28.3956 87.4515 28.5686 87.4149 28.7285 87.344C30.5164 86.5585 32.0529 86.0722 33.3068 85.8982C33.3764 85.8898 33.4465 85.8858 33.5166 85.8863H33.5213Z" fill="#BD967A"/>
<path d="M24.8714 89.4907C24.1562 89.4907 23.7581 88.8947 23.7366 88.8566C23.6627 88.7374 23.0513 87.7016 24.2992 86.8494C24.4552 86.7511 24.6292 86.6849 24.811 86.6546C24.9929 86.6243 25.1789 86.6305 25.3583 86.6728C25.5377 86.7152 25.7069 86.7928 25.856 86.9012C26.0051 87.0096 26.1311 87.1466 26.2267 87.3043C26.3223 87.4619 26.3856 87.637 26.4128 87.8193C26.44 88.0016 26.4306 88.1875 26.3852 88.3662C26.3399 88.5449 26.2593 88.7127 26.1484 88.8599C26.0375 89.0072 25.8983 89.1308 25.7391 89.2237C25.4795 89.39 25.1795 89.4823 24.8714 89.4907Z" fill="#BD967A"/>
<path d="M24.8714 89.6052C24.1037 89.6052 23.6854 88.9889 23.6401 88.9186C23.5602 88.7923 22.8999 87.6671 24.2361 86.754C24.525 86.5573 24.8739 86.4684 25.2217 86.5027C25.5696 86.5371 25.8943 86.6925 26.1392 86.942C26.3841 87.1914 26.5336 87.5189 26.5616 87.8674C26.5895 88.2158 26.4942 88.563 26.2922 88.8483C26.1682 89.044 25.9994 89.2074 25.7999 89.3251C25.5215 89.5009 25.2005 89.5977 24.8714 89.6052ZM25.074 86.723C24.8187 86.7219 24.5691 86.7988 24.3588 86.9435C23.2312 87.7183 23.7199 88.6218 23.8391 88.8006C23.8534 88.8233 24.2194 89.3811 24.8773 89.3811C25.1647 89.3717 25.4442 89.2852 25.6867 89.1308C25.8565 89.0302 26.0003 88.8909 26.1062 88.7243C26.2411 88.5357 26.3215 88.3135 26.3384 88.0821C26.3553 87.8508 26.3081 87.6193 26.2021 87.413C26.0961 87.2067 25.9352 87.0336 25.7373 86.9128C25.5393 86.7919 25.3119 86.7279 25.08 86.7278L25.074 86.723Z" fill="#BD967A"/>
<path d="M63.3738 77.7774C58.2019 77.7774 52.2886 77.539 50.5126 77.4687C50.3321 77.4609 50.155 77.4176 49.9912 77.3413C49.8275 77.265 49.6804 77.1572 49.5583 77.024C49.4362 76.8909 49.3415 76.735 49.2797 76.5652C49.2179 76.3955 49.1901 76.2153 49.1979 76.0348C49.2057 75.8543 49.249 75.6771 49.3253 75.5134C49.4016 75.3496 49.5094 75.2025 49.6426 75.0804C49.7757 74.9584 49.9316 74.8637 50.1013 74.8019C50.2711 74.74 50.4513 74.7122 50.6318 74.7201C57.9826 75.0323 69.0534 75.2231 70.6566 74.6676C71.5768 74.3494 72.1263 73.3755 72.1263 72.0632C72.1263 70.9595 70.8151 70.3075 70.2358 70.0726C68.4884 69.4993 45.3836 65.5289 40.8161 66.6017C38.6038 67.1202 32.1685 69.8402 27.1253 72.149C26.961 72.2242 26.7834 72.2662 26.6028 72.2727C26.4222 72.2792 26.2421 72.2501 26.0728 72.187C25.9034 72.1239 25.7482 72.0281 25.6159 71.905C25.4836 71.7819 25.3768 71.634 25.3017 71.4696C25.2265 71.3053 25.1845 71.1277 25.178 70.9471C25.1715 70.7665 25.2006 70.5864 25.2637 70.4171C25.3268 70.2477 25.4226 70.0925 25.5457 69.9601C25.6688 69.8278 25.8167 69.7211 25.9811 69.6459C27.0777 69.1441 36.798 64.7172 40.1879 63.9246C45.6435 62.6456 69.684 66.8901 71.2407 67.5123C73.5518 68.4373 74.8773 70.0965 74.8773 72.0644C74.8773 74.5675 73.6055 76.5592 71.5577 77.2684C70.4301 77.6558 67.0962 77.7774 63.3738 77.7774Z" fill="#BD967A"/>
<path d="M63.3738 77.8918C58.1781 77.8918 52.2112 77.6534 50.5079 77.5819C50.1127 77.5661 49.74 77.394 49.4718 77.1034C49.2035 76.8128 49.0617 76.4276 49.0775 76.0324C49.0933 75.6372 49.2655 75.2645 49.5561 74.9963C49.8467 74.7281 50.2319 74.5862 50.6271 74.6021C55.0039 74.788 60.0089 74.9036 63.6897 74.9036C67.5611 74.9036 69.9534 74.7844 70.603 74.5568C71.4743 74.254 71.994 73.3207 71.994 72.0596C71.994 71.0214 70.7234 70.3909 70.1763 70.174C68.6089 69.6614 50.4018 66.529 43.1249 66.529C42.1082 66.529 41.337 66.5898 40.8256 66.709C38.6193 67.2263 32.1935 69.9439 27.1563 72.2491C26.9621 72.3391 26.7506 72.3855 26.5365 72.385C26.1962 72.3855 25.866 72.2694 25.6008 72.0562C25.3356 71.8429 25.1515 71.5453 25.0789 71.2128C25.0063 70.8803 25.0498 70.533 25.202 70.2287C25.3542 69.9243 25.606 69.6812 25.9155 69.5398C27.0145 69.0368 36.742 64.6064 40.145 63.8077C40.8292 63.6468 41.8376 63.5694 43.1416 63.5694C51.6104 63.5694 69.9093 66.8627 71.2717 67.4051C73.6282 68.3479 74.9798 70.0464 74.9798 72.0632C74.9798 74.614 73.6794 76.6498 71.5852 77.3757C70.6018 77.7154 67.8377 77.8918 63.3738 77.8918ZM50.5734 74.8333C50.2436 74.833 49.9268 74.9619 49.6909 75.1924C49.455 75.4229 49.3188 75.7366 49.3114 76.0664C49.3041 76.3961 49.4262 76.7156 49.6517 76.9563C49.8771 77.1971 50.1879 77.3399 50.5174 77.3543C52.2207 77.4258 58.1817 77.663 63.3738 77.663C67.8114 77.663 70.5505 77.4937 71.5136 77.1588C73.5137 76.4663 74.7546 74.5138 74.7546 72.0632C74.7546 70.1442 73.4565 68.5231 71.1906 67.6172C69.8389 67.0773 51.5997 63.803 43.1511 63.803C41.865 63.803 40.8745 63.8828 40.207 64.0414C36.8254 64.834 27.117 69.2573 26.0228 69.7627C25.7615 69.883 25.5491 70.0889 25.4208 70.3464C25.2925 70.6039 25.2559 70.8974 25.3173 71.1785C25.3786 71.4596 25.5341 71.7112 25.758 71.8918C25.9819 72.0725 26.2608 72.1712 26.5484 72.1717C26.7299 72.1706 26.9089 72.13 27.0729 72.0525C32.1208 69.7413 38.5645 67.0177 40.7803 66.4968C41.306 66.3776 42.0975 66.3108 43.1321 66.3108C50.4256 66.3108 68.6816 69.4528 70.2609 69.9701C70.8569 70.2085 72.23 70.8939 72.23 72.0704C72.23 73.4339 71.6519 74.4483 70.6805 74.7832C69.9927 75.0216 67.641 75.1408 63.6885 75.1408C60.0053 75.1408 54.9956 75.0216 50.6175 74.8381L50.5734 74.8333Z" fill="#BD967A"/>
<path d="M22.9678 73.9656C22.6807 73.9693 22.3996 73.8835 22.1636 73.72C21.9275 73.5566 21.7483 73.3237 21.6507 73.0537C21.6066 72.9345 21.2562 71.8367 22.522 71.2515C22.686 71.1756 22.8633 71.1328 23.0438 71.1255C23.2243 71.1181 23.4045 71.1464 23.5741 71.2088C23.7436 71.2711 23.8993 71.3662 24.0321 71.4887C24.1649 71.6111 24.2723 71.7586 24.3481 71.9225C24.4008 72.0392 24.4381 72.1622 24.459 72.2885C24.5306 72.6335 24.4671 72.9928 24.2814 73.2922C24.0957 73.5917 23.8022 73.8084 23.4613 73.8976C23.3004 73.9412 23.1345 73.964 22.9678 73.9656Z" fill="#BD967A"/>
<path d="M22.9678 74.08C22.6562 74.0853 22.3508 73.993 22.0943 73.816C21.8378 73.639 21.6431 73.3862 21.5375 73.0931C21.4898 72.9596 21.1107 71.7748 22.4684 71.1478C22.664 71.0566 22.8772 71.0094 23.093 71.0095C23.459 71.0166 23.8104 71.1548 24.0833 71.399C24.3561 71.6432 24.5323 71.9772 24.5797 72.3402C24.6272 72.7033 24.5428 73.0713 24.342 73.3775C24.1411 73.6836 23.8371 73.9075 23.4851 74.0085C23.3164 74.0542 23.1426 74.0782 22.9678 74.08ZM23.0977 71.2372C22.9151 71.2374 22.7347 71.2781 22.5697 71.3564C21.3968 71.8987 21.7174 72.9059 21.758 73.0168C21.8477 73.2644 22.0125 73.4779 22.2294 73.6275C22.4463 73.7771 22.7044 73.8552 22.9678 73.8511C23.1249 73.8498 23.2811 73.8282 23.4327 73.7868C23.7454 73.7052 24.0147 73.5065 24.1849 73.2318C24.355 72.9571 24.4131 72.6274 24.3469 72.3111C24.3284 72.1934 24.2939 72.0787 24.2444 71.9702C24.1426 71.7518 23.9807 71.5669 23.7776 71.4371C23.5746 71.3072 23.3387 71.2379 23.0977 71.2372Z" fill="#BD967A"/>
<path d="M66.4073 81.8146C66.1183 81.8148 65.8366 81.7234 65.6027 81.5536C64.2511 80.5762 60.6061 78.6166 58.5106 77.7393C58.3439 77.6696 58.1925 77.5678 58.0652 77.4397C57.9378 77.3115 57.837 77.1596 57.7683 76.9924C57.6297 76.6549 57.6309 76.2761 57.7716 75.9394C57.9123 75.6028 58.1809 75.3358 58.5185 75.1972C58.856 75.0586 59.2348 75.0598 59.5714 75.2004C61.6443 76.067 65.5789 78.1398 67.2143 79.3234C67.4499 79.4938 67.6254 79.7346 67.7156 80.011C67.8059 80.2874 67.8062 80.5853 67.7166 80.862C67.6269 81.1386 67.4519 81.3797 67.2167 81.5506C66.9815 81.7216 66.6981 81.8136 66.4073 81.8134V81.8146Z" fill="#BD967A"/>
<path d="M66.4073 81.9289C66.0943 81.9293 65.7892 81.8304 65.536 81.6465C64.1891 80.6715 60.5548 78.7191 58.4665 77.8466C58.2858 77.7711 58.1216 77.6608 57.9834 77.5219C57.8453 77.383 57.7358 77.2183 57.6613 77.0371C57.5869 76.8559 57.5488 76.6618 57.5493 76.4659C57.5498 76.27 57.5889 76.0761 57.6644 75.8954C57.7398 75.7146 57.8501 75.5504 57.989 75.4123C58.1279 75.2741 58.2927 75.1647 58.4738 75.0902C58.655 75.0157 58.8491 74.9776 59.045 74.9781C59.2409 74.9786 59.4348 75.0177 59.6156 75.0932C61.6944 75.9621 65.6409 78.0408 67.2822 79.228C67.5376 79.4126 67.7278 79.6735 67.8256 79.973C67.9234 80.2725 67.9238 80.5954 67.8265 80.8951C67.7293 81.1949 67.5396 81.4561 67.2846 81.6412C67.0296 81.8263 66.7224 81.9258 66.4073 81.9254V81.9289ZM59.0411 75.2124C58.7492 75.2118 58.4662 75.3125 58.2403 75.4973C58.0144 75.682 57.8596 75.9394 57.8022 76.2255C57.7448 76.5117 57.7885 76.8089 57.9257 77.0664C58.0629 77.324 58.2853 77.526 58.5548 77.638C60.6538 78.5152 64.3119 80.4819 65.6695 81.4629C65.8037 81.56 65.9557 81.6296 66.1169 81.6679C66.278 81.7062 66.4451 81.7124 66.6087 81.6861C66.7722 81.6598 66.929 81.6016 67.07 81.5147C67.211 81.4278 67.3336 81.314 67.4306 81.1798C67.5276 81.0456 67.5973 80.8936 67.6356 80.7324C67.6739 80.5713 67.6801 80.4042 67.6538 80.2406C67.6275 80.0771 67.5693 79.9204 67.4824 79.7793C67.3955 79.6383 67.2817 79.5158 67.1475 79.4187C65.5181 78.2411 61.5954 76.1743 59.5274 75.3101C59.3735 75.2453 59.2081 75.2121 59.0411 75.2124Z" fill="#BD967A"/>
<path d="M83.8837 36.3952C83.585 36.3956 83.2943 36.2987 83.0555 36.1192C82.8167 35.9398 82.6429 35.6874 82.5602 35.4004C82.4775 35.1133 82.4906 34.8072 82.5973 34.5282C82.704 34.2492 82.8987 34.0126 83.1518 33.854C85.3891 32.4523 90.6254 29.1696 90.8399 25.2398C90.9424 23.3708 89.3214 21.416 87.568 21.2932C87.0483 21.2574 86.6025 21.2992 86.3427 21.4124C85.5083 21.77 84.8182 22.3517 84.7336 22.5805C84.6864 22.7573 84.6044 22.9229 84.4924 23.0676C84.3804 23.2123 84.2407 23.3332 84.0814 23.4232C83.9221 23.5133 83.7465 23.5706 83.5648 23.5919C83.383 23.6132 83.1989 23.5981 83.0231 23.5473C82.8473 23.4966 82.6834 23.4113 82.541 23.2964C82.3986 23.1815 82.2805 23.0394 82.1937 22.8783C82.1069 22.7172 82.0531 22.5404 82.0355 22.3583C82.0178 22.1762 82.0367 21.9924 82.091 21.8177C82.5845 20.0965 84.8242 19.069 85.2687 18.8795C85.9434 18.5934 86.7801 18.4838 87.7599 18.5517C90.9937 18.7782 93.7709 22.0394 93.5862 25.3923C93.3299 30.1113 88.9054 33.4976 84.612 36.1878C84.3939 36.3248 84.1413 36.3968 83.8837 36.3952Z" fill="#BD967A"/>
<path d="M83.8836 36.5096C83.5602 36.5099 83.2455 36.4049 82.987 36.2105C82.7285 36.0161 82.5403 35.7428 82.4508 35.4321C82.3613 35.1213 82.3753 34.7898 82.4908 34.4877C82.6063 34.1856 82.817 33.9293 83.091 33.7574C85.3128 32.3652 90.5145 29.1088 90.7255 25.2326C90.8244 23.4208 89.257 21.5256 87.5596 21.4076C87.0602 21.3719 86.6263 21.4136 86.3879 21.5149C85.5619 21.8653 84.9087 22.4351 84.8384 22.6163C84.7481 22.9257 84.5599 23.1976 84.302 23.391C84.0441 23.5845 83.7304 23.689 83.408 23.689C83.269 23.6889 83.1306 23.6697 82.9968 23.6318C82.6172 23.5218 82.2966 23.2659 82.1051 22.9201C81.9137 22.5743 81.867 22.1668 81.9753 21.7867C82.4843 20.0154 84.7669 18.9665 85.2186 18.7746C85.9088 18.4826 86.7682 18.3681 87.7623 18.4385C91.0544 18.6685 93.8829 21.9857 93.6958 25.3995C93.436 30.1673 88.9864 33.5786 84.6691 36.2856C84.4334 36.4323 84.1613 36.51 83.8836 36.5096ZM87.2211 21.1657C87.3403 21.1657 87.4595 21.1657 87.5787 21.1788C89.3893 21.3051 91.0616 23.3243 90.9555 25.2457C90.7386 29.2364 85.4725 32.5393 83.2149 33.9469C82.9315 34.1246 82.7303 34.4076 82.6555 34.7336C82.5808 35.0596 82.6386 35.402 82.8162 35.6854C82.9939 35.9688 83.2769 36.17 83.6029 36.2448C83.9289 36.3196 84.2713 36.2618 84.5547 36.0841C88.8231 33.4094 93.2202 30.0445 93.4753 25.3792C93.6553 22.0847 90.9293 18.8807 87.7539 18.659C86.8003 18.5922 85.966 18.7007 85.3152 18.9784C84.8801 19.1632 82.6821 20.1704 82.203 21.8391C82.157 21.9985 82.143 22.1654 82.1616 22.3303C82.1802 22.4951 82.2311 22.6547 82.3114 22.7998C82.4212 22.9964 82.5812 23.1603 82.7752 23.2747C82.9691 23.3891 83.19 23.4498 83.4152 23.4506C83.6884 23.4497 83.954 23.3604 84.1723 23.196C84.3906 23.0317 84.5498 22.8011 84.6262 22.5388C84.7347 22.2432 85.488 21.6424 86.295 21.2968C86.591 21.1949 86.9037 21.1504 87.2163 21.1657H87.2211Z" fill="#BD967A"/>
<path d="M83.3485 36.3952C83.0907 36.3954 82.8381 36.3222 82.6203 36.1843C79.2411 34.0662 73.584 30.5225 73.3015 25.3899C73.118 22.0346 75.8964 18.7746 79.1302 18.5481C80.1088 18.4802 80.9456 18.591 81.6202 18.8759C82.0648 19.0654 84.3057 20.0929 84.7992 21.8141C84.8897 22.1612 84.841 22.53 84.6636 22.8417C84.4861 23.1535 84.1938 23.3836 83.8491 23.483C83.5044 23.5823 83.1345 23.5431 82.8183 23.3736C82.5022 23.2041 82.2647 22.9178 82.1566 22.5757C82.0696 22.3457 81.3854 21.7652 80.5451 21.4088C80.2864 21.2992 79.8418 21.2574 79.3221 21.2896C77.5687 21.4088 75.9465 23.3672 76.049 25.2362C76.2528 28.9443 81.153 32.0148 84.0804 33.8504C84.3336 34.009 84.5282 34.2456 84.635 34.5246C84.7417 34.8036 84.7547 35.1098 84.6721 35.3968C84.5894 35.6839 84.4155 35.9362 84.1768 36.1157C83.938 36.2952 83.6473 36.392 83.3485 36.3917V36.3952Z" fill="#BD967A"/>
<path d="M83.3485 36.5097C83.0693 36.5096 82.7958 36.4307 82.5595 36.282C79.1612 34.152 73.4732 30.5868 73.1871 25.3959C73.0012 21.9821 75.8297 18.6649 79.1219 18.4349C80.116 18.3646 80.9754 18.479 81.6643 18.771C82.1173 18.9629 84.4058 20.013 84.91 21.7831C85.0182 22.1629 84.9715 22.5701 84.78 22.9155C84.5885 23.2609 84.268 23.5164 83.8885 23.6259C83.7548 23.6641 83.6164 23.6837 83.4773 23.6843C83.1552 23.6831 82.8421 23.5781 82.5844 23.3848C82.3267 23.1916 82.1382 22.9204 82.0469 22.6115C81.979 22.4327 81.3377 21.8725 80.4974 21.5173C80.259 21.4172 79.8275 21.3754 79.3269 21.4112C77.6296 21.5304 76.0609 23.4244 76.1587 25.2362C76.3601 28.8859 81.2281 31.9361 84.1364 33.7598C84.4109 33.9314 84.6221 34.1876 84.738 34.4899C84.8538 34.7921 84.8681 35.1238 84.7787 35.4349C84.6893 35.746 84.501 36.0195 84.2423 36.214C83.9837 36.4086 83.6686 36.5136 83.345 36.5132L83.3485 36.5097ZM79.6785 18.6435C79.5045 18.6435 79.3209 18.6495 79.1386 18.6626C75.9632 18.8843 73.236 22.0882 73.4172 25.3828C73.6961 30.4569 79.3209 33.9815 82.6811 36.0877C82.9645 36.2655 83.3069 36.3235 83.633 36.2488C83.9592 36.1742 84.2423 35.973 84.4201 35.6896C84.5979 35.4062 84.6559 35.0638 84.5812 34.7376C84.5066 34.4115 84.3054 34.1284 84.022 33.9505C81.0731 32.103 76.1432 29.0123 75.9358 25.2493C75.8309 23.3231 77.5044 21.3087 79.3162 21.1824C79.8609 21.1454 80.3162 21.1907 80.5916 21.3015C81.4021 21.6448 82.1566 22.2456 82.2603 22.5328C82.3355 22.7969 82.4946 23.0293 82.7134 23.1951C82.9323 23.3608 83.1992 23.451 83.4737 23.4518C83.5914 23.452 83.7085 23.4359 83.8218 23.4041C83.9809 23.3585 84.1296 23.2818 84.2592 23.1787C84.3888 23.0756 84.4968 22.9479 84.577 22.803C84.6573 22.6581 84.7082 22.4988 84.7269 22.3343C84.7456 22.1697 84.7316 22.0031 84.6859 21.8439C84.2091 20.1751 82.0076 19.1644 81.5713 18.9832C80.9693 18.7452 80.3258 18.6297 79.6785 18.6435Z" fill="#BD967A"/>
<path d="M11.8639 115.136C13.7849 115.136 15.2979 114.286 15.9609 112.824L13.9039 111.702C13.4109 112.586 12.6799 112.96 11.8469 112.96C10.5039 112.96 9.44989 112.025 9.44989 110.427C9.44989 108.829 10.5039 107.894 11.8469 107.894C12.6799 107.894 13.4109 108.285 13.9039 109.152L15.9609 108.047C15.2979 106.551 13.7849 105.718 11.8639 105.718C8.88889 105.718 6.76389 107.673 6.76389 110.427C6.76389 113.181 8.88889 115.136 11.8639 115.136Z" fill="#463B32"/>
<path d="M20.0208 107.061V105.854H17.4878V115H20.1398V110.682C20.1398 108.931 21.1088 108.132 22.5708 108.132C22.7748 108.132 22.9448 108.149 23.1658 108.166V105.718C21.7548 105.718 20.6668 106.177 20.0208 107.061Z" fill="#463B32"/>
<path d="M31.3711 105.854V110.376C31.3711 112.059 30.4871 112.841 29.2631 112.841C28.0901 112.841 27.4101 112.161 27.4101 110.631V105.854H24.7581V111.022C24.7581 113.844 26.3731 115.136 28.6681 115.136C29.7901 115.136 30.8101 114.711 31.5071 113.912V115H34.0231V105.854H31.3711Z" fill="#463B32"/>
<path d="M45.439 110.461C45.439 107.52 43.365 105.718 40.679 105.718C37.891 105.718 35.8 107.69 35.8 110.427C35.8 113.147 37.857 115.136 41.019 115.136C42.668 115.136 43.943 114.626 44.793 113.657L43.382 112.127C42.753 112.722 42.056 113.011 41.087 113.011C39.693 113.011 38.724 112.314 38.469 111.175H45.388C45.405 110.954 45.439 110.665 45.439 110.461ZM40.696 107.724C41.886 107.724 42.753 108.472 42.94 109.628H38.435C38.622 108.455 39.489 107.724 40.696 107.724Z" fill="#463B32"/>
<path d="M47.2046 115H49.8566V102.386H47.2046V115Z" fill="#463B32"/>
<path d="M58.167 112.688C57.878 112.909 57.487 113.028 57.096 113.028C56.382 113.028 55.957 112.603 55.957 111.821V108.098H58.235V106.058H55.957V103.831H53.305V106.058H51.894V108.098H53.305V111.855C53.305 114.031 54.563 115.136 56.722 115.136C57.538 115.136 58.337 114.949 58.881 114.558L58.167 112.688Z" fill="#463B32"/>
<path d="M66.7317 105.854L64.1477 112.059L61.5807 105.854H58.8437L62.8047 115.068L62.7707 115.153C62.4137 115.969 62.0057 116.292 61.2747 116.292C60.7477 116.292 60.1867 116.071 59.7787 115.714L58.8097 117.601C59.4047 118.128 60.4247 118.434 61.3597 118.434C63.0087 118.434 64.2667 117.771 65.1507 115.561L69.2817 105.854H66.7317Z" fill="#463B32"/>
<path d="M78.0853 105.667C78.0853 104.766 78.5103 104.341 79.2923 104.341C79.7003 104.341 80.0743 104.46 80.3633 104.664L81.0603 102.743C80.5673 102.403 79.7853 102.25 79.0373 102.25C76.7593 102.25 75.5013 103.593 75.5013 105.65V106.058H74.0903V108.098H75.5013V115H78.1533V108.098H80.4313V106.058H78.0853V105.667Z" fill="#463B32"/>
<path d="M85.6468 107.061V105.854H83.1138V115H85.7658V110.682C85.7658 108.931 86.7348 108.132 88.1968 108.132C88.4008 108.132 88.5708 108.149 88.7918 108.166V105.718C87.3808 105.718 86.2928 106.177 85.6468 107.061Z" fill="#463B32"/>
<path d="M99.2447 110.461C99.2447 107.52 97.1707 105.718 94.4847 105.718C91.6967 105.718 89.6057 107.69 89.6057 110.427C89.6057 113.147 91.6627 115.136 94.8247 115.136C96.4737 115.136 97.7487 114.626 98.5987 113.657L97.1877 112.127C96.5587 112.722 95.8617 113.011 94.8927 113.011C93.4987 113.011 92.5297 112.314 92.2747 111.175H99.1937C99.2107 110.954 99.2447 110.665 99.2447 110.461ZM94.5017 107.724C95.6917 107.724 96.5587 108.472 96.7457 109.628H92.2407C92.4277 108.455 93.2947 107.724 94.5017 107.724Z" fill="#463B32"/>
<path d="M109.969 110.461C109.969 107.52 107.895 105.718 105.209 105.718C102.421 105.718 100.33 107.69 100.33 110.427C100.33 113.147 102.387 115.136 105.549 115.136C107.198 115.136 108.473 114.626 109.323 113.657L107.912 112.127C107.283 112.722 106.586 113.011 105.617 113.011C104.223 113.011 103.254 112.314 102.999 111.175H109.918C109.935 110.954 109.969 110.665 109.969 110.461ZM105.226 107.724C106.416 107.724 107.283 108.472 107.47 109.628H102.965C103.152 108.455 104.019 107.724 105.226 107.724Z" fill="#463B32"/>
</svg>
