<svg width="39" height="39" viewBox="0 0 39 39" fill="none" xmlns="http://www.w3.org/2000/svg">
<g clip-path="url(#clip0_819_648)">
<path d="M35.5995 5.13258C33.403 2.93623 30.4828 1.72656 27.3766 1.72656C24.4309 1.72656 21.6525 2.81439 19.5 4.80014C14.9441 0.601602 7.82092 0.712415 3.40056 5.13268C-1.13352 9.66675 -1.13352 17.0442 3.40056 21.5782L18.8163 36.9939C18.9977 37.1752 19.2436 37.2771 19.5001 37.2771C19.7565 37.2771 20.0024 37.1752 20.1838 36.9939L35.5995 21.5782C40.1335 17.0442 40.1335 9.66675 35.5995 5.13258ZM34.232 20.2108L19.5001 34.9427L4.76813 20.2107C2.9369 18.3795 1.92855 15.945 1.92855 13.3554C1.92865 10.7658 2.93709 8.33119 4.76823 6.50006C6.65825 4.61004 9.14092 3.66503 11.6236 3.66503C13.9537 3.66503 16.2838 4.49758 18.124 6.16259L15.3235 8.9631C14.9459 9.34069 14.9459 9.95297 15.3235 10.3306C15.5123 10.5194 15.7598 10.6138 16.0072 10.6138C16.2547 10.6138 16.5021 10.5194 16.6909 10.3306L20.5215 6.49996C22.3526 4.66883 24.7871 3.66039 27.3767 3.66039C29.9663 3.66039 32.401 4.66883 34.2321 6.49996C38.012 10.2802 38.012 16.4307 34.232 20.2108Z" fill="#C7A58D"/>
<path d="M30.2269 5.23762C29.289 4.89329 28.3026 4.71875 27.2951 4.71875C26.7611 4.71875 26.3281 5.15166 26.3281 5.68571C26.3281 6.21976 26.7611 6.65267 27.2951 6.65267C28.0745 6.65267 28.8366 6.78736 29.5607 7.05308C29.6706 7.09341 29.7831 7.11255 29.8937 7.11255C30.2876 7.11255 30.6579 6.86985 30.8016 6.47852C30.9856 5.97715 30.7283 5.42163 30.2269 5.23762Z" fill="#C7A58D"/>
<path d="M33.7902 7.72866C33.4451 7.32118 32.8348 7.27071 32.4274 7.61591C32.0199 7.96112 31.9694 8.57127 32.3146 8.97875C33.318 10.163 33.8705 11.6714 33.8705 13.2263C33.8705 13.7604 34.3035 14.1933 34.8375 14.1933C35.3714 14.1933 35.8044 13.7604 35.8044 13.2263C35.8044 11.2143 35.0891 9.26187 33.7902 7.72866Z" fill="#C7A58D"/>
<path d="M17.9179 28.9004C17.5402 28.5228 16.9281 28.5228 16.5503 28.9004C16.1727 29.278 16.1727 29.8903 16.5503 30.268L17.9038 31.6215C18.0927 31.8104 18.3401 31.9047 18.5876 31.9047C18.835 31.9047 19.0825 31.8104 19.2713 31.6215C19.6489 31.2439 19.6489 30.6316 19.2713 30.2539L17.9179 28.9004Z" fill="#C7A58D"/>
<path d="M10.5927 21.5723C10.215 21.1947 9.60288 21.1947 9.22509 21.5723C8.8475 21.9499 8.8475 22.5621 9.22509 22.9398L14.3259 28.0406C14.5147 28.2294 14.7622 28.3238 15.0096 28.3238C15.2571 28.3238 15.5045 28.2294 15.6934 28.0406C16.071 27.663 16.071 27.0507 15.6934 26.673L10.5927 21.5723Z" fill="#C7A58D"/>
<path d="M35.88 20.6212C35.88 32.01 25.5747 36.66 16.4755 36.66C7.37634 36.66 0 27.4276 0 16.0388C0 4.64998 10.3053 0 19.4045 0C28.5037 0 35.88 9.23244 35.88 20.6212Z" fill="#CC9966" fill-opacity="0.1"/>
</g>
<defs>
<clipPath id="clip0_819_648">
<rect width="39" height="39" fill="white"/>
</clipPath>
</defs>
</svg>
