<svg width="64" height="64" viewBox="0 0 64 64" fill="none" xmlns="http://www.w3.org/2000/svg">
<path d="M3.40276 44.7472C3.18771 44.7485 2.97888 44.6752 2.81186 44.5397C2.64485 44.4042 2.53 44.215 2.48692 44.0043C2.44383 43.7936 2.47517 43.5745 2.5756 43.3843C2.67602 43.1942 2.8393 43.0447 3.0376 42.9615C3.2359 42.8783 3.45692 42.8664 3.66299 42.928C3.86905 42.9895 4.04738 43.1206 4.16757 43.2989C4.28776 43.4773 4.34237 43.6918 4.32207 43.9059C4.30177 44.12 4.20783 44.3204 4.05627 44.473C3.88311 44.647 3.64824 44.7455 3.40276 44.7472Z" fill="#463B32"/>
<path d="M60.4641 42.6869C60.2322 42.6062 60.0418 42.4366 59.9349 42.2156C59.8279 41.9945 59.8131 41.74 59.8936 41.5081C59.9744 41.2758 60.1441 41.0852 60.3655 40.9781C60.5868 40.871 60.8416 40.8562 61.0738 40.937C61.3057 41.0178 61.4961 41.1873 61.6032 41.4083C61.7102 41.6293 61.7252 41.8838 61.6449 42.1158C61.5816 42.2977 61.4633 42.4554 61.3064 42.5671C61.1495 42.6787 60.9618 42.7388 60.7693 42.7391C60.6653 42.7389 60.5622 42.7213 60.4641 42.6869ZM1.44033 41.1797C1.36718 40.9455 1.39005 40.6918 1.50391 40.4745C1.61777 40.2572 1.81329 40.094 2.04747 40.0208C2.28158 39.9478 2.53509 39.9706 2.75237 40.0844C2.96964 40.1981 3.13293 40.3933 3.20639 40.6273C3.27921 40.8614 3.25627 41.1148 3.14259 41.3321C3.0289 41.5493 2.83376 41.7126 2.59989 41.7862C2.51001 41.8151 2.41617 41.8299 2.32175 41.83C2.12481 41.8293 1.93322 41.7658 1.77474 41.6489C1.61627 41.532 1.49914 41.3677 1.44033 41.1797ZM61.4582 39.6081C61.3395 39.5805 61.2275 39.5299 61.1284 39.459C61.0294 39.3882 60.9452 39.2985 60.8808 39.1951C60.8164 39.0918 60.773 38.9767 60.7531 38.8566C60.7332 38.7364 60.7372 38.6135 60.7648 38.4949C60.8208 38.2556 60.9695 38.0483 61.1782 37.9186C61.3869 37.7888 61.6386 37.7471 61.878 37.8027C62.1172 37.8586 62.3245 38.0072 62.4542 38.2158C62.584 38.4244 62.6257 38.676 62.5701 38.9153C62.5226 39.1189 62.4078 39.3004 62.2441 39.4305C62.0805 39.5606 61.8777 39.6316 61.6687 39.6319C61.5979 39.6319 61.5272 39.6239 61.4582 39.6081ZM0.614921 37.956C0.590993 37.8366 0.590817 37.7137 0.614403 37.5943C0.637988 37.4749 0.684871 37.3613 0.752377 37.26C0.819882 37.1587 0.906686 37.0717 1.00783 37.004C1.10897 36.9363 1.22246 36.8891 1.34182 36.8653C1.46109 36.8413 1.58393 36.841 1.7033 36.8645C1.82267 36.8881 1.93622 36.9349 2.03747 37.0023C2.13872 37.0698 2.22567 37.1566 2.29334 37.2577C2.36102 37.3588 2.40808 37.4722 2.43185 37.5916C2.47999 37.8327 2.4304 38.0832 2.29398 38.2878C2.15755 38.4925 1.94546 38.6346 1.70431 38.6829C1.64408 38.6947 1.58283 38.7005 1.52145 38.7003C1.30771 38.6997 1.10073 38.6253 0.935533 38.4897C0.770336 38.3541 0.657075 38.1655 0.614921 37.956ZM62.1188 36.4417C61.8755 36.4116 61.6541 36.2862 61.5031 36.0931C61.3521 35.9 61.2838 35.6549 61.3133 35.4115C61.3283 35.2907 61.3669 35.174 61.427 35.0682C61.487 34.9623 61.5674 34.8693 61.6634 34.7945C61.7595 34.7197 61.8693 34.6646 61.9866 34.6322C62.104 34.5999 62.2265 34.591 62.3473 34.6061C62.5906 34.6362 62.8121 34.7615 62.9632 34.9546C63.1143 35.1477 63.1827 35.3928 63.1534 35.6362C63.1255 35.8602 63.0169 36.0664 62.8479 36.2161C62.6789 36.3658 62.4611 36.4488 62.2353 36.4494C62.1963 36.4493 62.1574 36.4467 62.1188 36.4417ZM0.133327 34.6621C0.110763 34.4174 0.18624 34.1738 0.34318 33.9847C0.500119 33.7957 0.725685 33.6767 0.970324 33.6538C1.21499 33.6312 1.45861 33.7067 1.64766 33.8637C1.83671 34.0206 1.95573 34.2462 1.97858 34.4908C2.00115 34.7355 1.92567 34.9791 1.76873 35.1681C1.61179 35.3572 1.38623 35.4762 1.14159 35.4991C1.11261 35.4991 1.08428 35.5029 1.05467 35.5029C0.824018 35.5025 0.601812 35.4161 0.431447 35.2606C0.261081 35.1051 0.15479 34.8917 0.133327 34.6621ZM62.4452 33.2276C62.3236 33.2252 62.2037 33.199 62.0922 33.1503C61.9808 33.1015 61.88 33.0314 61.7957 32.9437C61.7114 32.8561 61.6452 32.7527 61.6009 32.6394C61.5566 32.5262 61.535 32.4053 61.5374 32.2837C61.5396 32.1621 61.5658 32.0421 61.6145 31.9306C61.6632 31.819 61.7334 31.7182 61.821 31.6339C61.9087 31.5495 62.0121 31.4832 62.1254 31.4388C62.2387 31.3945 62.3596 31.3729 62.4812 31.3752C62.6031 31.3776 62.7232 31.4039 62.8349 31.4527C62.9465 31.5015 63.0474 31.5719 63.1318 31.6597C63.2163 31.7476 63.2826 31.8512 63.3269 31.9647C63.3713 32.0781 63.3928 32.1992 63.3904 32.3211C63.3855 32.5635 63.2857 32.7944 63.1125 32.9641C62.9393 33.1339 62.7064 33.2289 62.4639 33.2289H62.4452V33.2276ZM0.915597 32.2747C0.670097 32.2718 0.435779 32.1716 0.264114 31.9961C0.092449 31.8205 -0.00252515 31.5841 5.10752e-05 31.3385C0.00131151 31.2169 0.0265581 31.0967 0.0743442 30.9848C0.12213 30.8729 0.191518 30.7715 0.278534 30.6865C0.36555 30.6014 0.468488 30.5344 0.58145 30.4892C0.694412 30.444 0.81518 30.4215 0.936843 30.423C1.05853 30.4241 1.17881 30.4492 1.29078 30.4969C1.40274 30.5446 1.5042 30.6139 1.58931 30.7008C1.67443 30.7878 1.74155 30.8907 1.7868 31.0037C1.83206 31.1167 1.85456 31.2375 1.85303 31.3592C1.85032 31.603 1.75149 31.836 1.57801 32.0074C1.40454 32.1788 1.17043 32.2749 0.926543 32.2747H0.915597ZM61.4369 29.1514C61.4266 29.0301 61.4403 28.908 61.4772 28.792C61.5141 28.6759 61.5735 28.5683 61.652 28.4753C61.7305 28.3823 61.8266 28.3056 61.9347 28.2497C62.0429 28.1938 62.161 28.1598 62.2823 28.1496C62.4036 28.1392 62.5257 28.1528 62.6417 28.1896C62.7577 28.2264 62.8653 28.2858 62.9584 28.3642C63.0514 28.4427 63.1281 28.5387 63.184 28.6468C63.2399 28.755 63.2739 28.873 63.2841 28.9943C63.3046 29.2395 63.227 29.4828 63.0682 29.6707C62.9095 29.8587 62.6826 29.976 62.4375 29.9968C62.4117 29.9968 62.386 30 62.3602 30C62.1278 30 61.9039 29.9129 61.7327 29.7557C61.5615 29.5986 61.4555 29.3829 61.4356 29.1514H61.4369ZM1.02312 29.0465C0.779116 29.0179 0.556387 28.8937 0.403727 28.7013C0.251067 28.5088 0.180921 28.2636 0.208656 28.0195C0.236756 27.7754 0.360667 27.5525 0.55313 27.3998C0.745594 27.247 0.990847 27.177 1.23494 27.2051C1.35595 27.2189 1.47304 27.2565 1.57953 27.3156C1.68602 27.3747 1.77983 27.4542 1.85558 27.5495C1.93134 27.6449 1.98756 27.7543 2.02103 27.8714C2.05451 27.9885 2.06459 28.111 2.05069 28.232C2.02422 28.4577 1.91587 28.6659 1.74618 28.8171C1.5765 28.9682 1.35726 29.0519 1.13 29.0523C1.09386 29.0522 1.05776 29.0503 1.02183 29.0465H1.02312ZM61.0107 26.0474C60.9642 25.8063 61.0155 25.5565 61.1531 25.3531C61.2907 25.1496 61.5035 25.0092 61.7447 24.9626C61.9862 24.9165 62.2361 24.9682 62.4395 25.1063C62.643 25.2445 62.7832 25.4577 62.8296 25.6991C62.8524 25.8187 62.8515 25.9417 62.8269 26.0609C62.8023 26.1802 62.7544 26.2934 62.686 26.3941C62.6176 26.4949 62.53 26.5812 62.4283 26.648C62.3265 26.7149 62.2126 26.7611 62.093 26.784C62.035 26.7948 61.9762 26.8002 61.9172 26.8001C61.7021 26.7996 61.4938 26.7242 61.3281 26.5868C61.1625 26.4495 61.0498 26.2588 61.0094 26.0474H61.0107ZM1.46673 25.8446C1.34784 25.8183 1.23532 25.7687 1.13564 25.6988C1.03596 25.6288 0.95108 25.5399 0.885871 25.4371C0.820662 25.3342 0.776411 25.2195 0.755658 25.0995C0.734905 24.9795 0.738058 24.8566 0.764938 24.7379C0.818492 24.4989 0.96455 24.2909 1.17114 24.1593C1.37772 24.0278 1.62801 23.9835 1.8672 24.0361C2.10698 24.09 2.31554 24.237 2.44701 24.4446C2.57849 24.6523 2.62213 24.9037 2.56835 25.1435C2.52273 25.3487 2.40863 25.5323 2.24481 25.6641C2.08098 25.7958 1.8772 25.8679 1.66696 25.8685C1.5991 25.8683 1.53147 25.8603 1.46544 25.8446H1.46673ZM60.2593 23.0066C60.224 22.8901 60.212 22.7679 60.2239 22.6468C60.2359 22.5257 60.2716 22.4082 60.329 22.3009C60.3864 22.1937 60.4644 22.0988 60.5585 22.0216C60.6526 21.9445 60.761 21.8867 60.8774 21.8515C60.9938 21.8161 61.1159 21.8039 61.237 21.8157C61.358 21.8276 61.4756 21.8631 61.5828 21.9204C61.6901 21.9777 61.7851 22.0556 61.8622 22.1496C61.9394 22.2436 61.9972 22.3519 62.0325 22.4683C62.0683 22.5849 62.0807 22.7073 62.0691 22.8287C62.0574 22.95 62.022 23.0679 61.9648 23.1756C61.9075 23.2832 61.8296 23.3785 61.7355 23.456C61.6414 23.5335 61.533 23.5917 61.4163 23.6272C61.3284 23.6535 61.237 23.6667 61.1453 23.6665C60.9461 23.6666 60.7522 23.6024 60.5923 23.4835C60.4325 23.3646 60.3153 23.1974 60.258 23.0066H60.2593ZM2.24385 22.7078C2.01131 22.6287 1.81968 22.4605 1.71104 22.2402C1.60239 22.0199 1.58562 21.7655 1.66439 21.5328C1.7434 21.3005 1.91136 21.109 2.13141 21.0003C2.35146 20.8917 2.60562 20.8748 2.83812 20.9533C3.07045 21.0328 3.26185 21.201 3.37045 21.4212C3.47905 21.6414 3.49599 21.8957 3.41758 22.1284C3.3555 22.3121 3.23738 22.4717 3.07984 22.5848C2.92231 22.6978 2.73328 22.7587 2.53937 22.7587C2.43831 22.7582 2.33802 22.741 2.24256 22.7078H2.24385ZM59.1918 20.0623C59.1443 19.9502 59.1194 19.83 59.1184 19.7083C59.1174 19.5866 59.1404 19.4659 59.1861 19.3532C59.2318 19.2404 59.2992 19.1377 59.3846 19.051C59.47 18.9644 59.5717 18.8953 59.6837 18.848C59.91 18.7521 60.1651 18.7501 60.3929 18.8422C60.6207 18.9343 60.8026 19.1131 60.8987 19.3392C60.9945 19.5656 60.9965 19.8207 60.9042 20.0485C60.812 20.2763 60.6331 20.4582 60.4068 20.5542C60.2927 20.6033 60.1698 20.6285 60.0456 20.6282C59.8632 20.6284 59.6848 20.5749 59.5327 20.4742C59.3806 20.3735 59.2616 20.2302 59.1906 20.0623H59.1918ZM3.34804 19.6708C3.12539 19.5673 2.9529 19.3797 2.8684 19.1491C2.78391 18.9186 2.79432 18.6639 2.89735 18.4411C3.00018 18.2194 3.18639 18.0472 3.41548 17.9621C3.64457 17.877 3.898 17.8858 4.12065 17.9865C4.34397 18.0897 4.5172 18.2773 4.60231 18.5081C4.68741 18.7389 4.67743 18.9941 4.57456 19.2175C4.50028 19.3779 4.38175 19.5138 4.23291 19.6091C4.08407 19.7045 3.91111 19.7554 3.73435 19.7558C3.60093 19.7559 3.4691 19.7269 3.34804 19.6708ZM57.8172 17.248C57.7581 17.1416 57.7206 17.0245 57.7067 16.9036C57.6928 16.7826 57.7029 16.6601 57.7364 16.543C57.7699 16.426 57.8261 16.3166 57.9018 16.2213C57.9776 16.126 58.0713 16.0465 58.1778 15.9874C58.2843 15.9283 58.4014 15.8908 58.5224 15.8771C58.6435 15.8633 58.766 15.8735 58.8831 15.9071C59.0002 15.9407 59.1095 15.997 59.2047 16.0729C59.3 16.1488 59.3794 16.2427 59.4384 16.3492C59.5569 16.5643 59.5854 16.8176 59.5176 17.0536C59.4498 17.2896 59.2912 17.4892 59.0766 17.6086C58.9388 17.6852 58.7836 17.7251 58.6259 17.7245C58.4609 17.7244 58.2989 17.6802 58.1567 17.5964C58.0145 17.5126 57.8973 17.3923 57.8172 17.248ZM4.7645 16.7658C4.65987 16.7036 4.56854 16.6214 4.49572 16.5238C4.4229 16.4263 4.37003 16.3154 4.34013 16.1974C4.31023 16.0794 4.30389 15.9567 4.32146 15.8362C4.33904 15.7158 4.3802 15.6 4.44257 15.4955C4.56843 15.2843 4.77304 15.1317 5.01138 15.0713C5.24972 15.011 5.50229 15.0477 5.71352 15.1736C5.81815 15.2358 5.90948 15.318 5.9823 15.4155C6.05512 15.513 6.10799 15.624 6.13789 15.742C6.16779 15.8599 6.17413 15.9827 6.15655 16.1031C6.13897 16.2236 6.09782 16.3393 6.03544 16.4439C5.95286 16.5816 5.83593 16.6956 5.6961 16.7746C5.55627 16.8536 5.39832 16.8949 5.23772 16.8946C5.0712 16.8955 4.90759 16.8509 4.7645 16.7658ZM56.1574 14.5909C56.0874 14.4913 56.0377 14.3788 56.0112 14.2599C55.9847 14.1411 55.9819 14.0182 56.003 13.8982C56.0241 13.7783 56.0687 13.6637 56.1342 13.5611C56.1997 13.4584 56.2848 13.3697 56.3847 13.3C56.5857 13.1597 56.8341 13.1048 57.0755 13.1474C57.3169 13.19 57.5315 13.3266 57.6724 13.5273C57.7424 13.6269 57.7921 13.7394 57.8186 13.8583C57.8452 13.9772 57.8479 14.1002 57.8268 14.2202C57.8057 14.3402 57.7611 14.4548 57.6956 14.5575C57.6301 14.6603 57.545 14.749 57.4451 14.8188C57.29 14.928 57.1049 14.9867 56.9152 14.9868C56.7666 14.9865 56.6202 14.9504 56.4885 14.8814C56.3568 14.8125 56.2437 14.7128 56.1587 14.5909H56.1574ZM6.48034 14.0275C6.28342 13.8804 6.15298 13.6611 6.11773 13.4178C6.08247 13.1745 6.14528 12.9272 6.29234 12.7302C6.36525 12.6326 6.45666 12.5504 6.56136 12.4882C6.66605 12.426 6.78198 12.385 6.90252 12.3676C7.02306 12.3502 7.14584 12.3567 7.26386 12.3868C7.38187 12.4168 7.49281 12.4699 7.59033 12.5428C7.68832 12.6156 7.77097 12.707 7.83352 12.8118C7.89607 12.9166 7.9373 13.0328 7.95483 13.1536C7.97236 13.2744 7.96585 13.3974 7.93567 13.5157C7.90549 13.634 7.85224 13.7451 7.77897 13.8427C7.69293 13.9584 7.58094 14.0523 7.45201 14.1168C7.32307 14.1813 7.1808 14.2147 7.03662 14.2142C6.8363 14.2136 6.64157 14.1481 6.48163 14.0275H6.48034ZM54.2272 12.1224C54.066 11.9369 53.9851 11.6951 54.0022 11.4499C54.0193 11.2048 54.1332 10.9766 54.3186 10.8154C54.4103 10.7354 54.517 10.6743 54.6324 10.6356C54.7478 10.5969 54.8696 10.5814 54.9911 10.5899C55.1125 10.5984 55.231 10.6307 55.3399 10.6851C55.4488 10.7395 55.5459 10.8148 55.6256 10.9068C55.7055 10.9986 55.7666 11.1052 55.8053 11.2205C55.844 11.3359 55.8596 11.4577 55.8511 11.5791C55.8427 11.7005 55.8104 11.819 55.7561 11.928C55.7019 12.0369 55.6267 12.134 55.5348 12.2138C55.3663 12.361 55.1501 12.4418 54.9264 12.4411C54.794 12.4409 54.6632 12.4124 54.5428 12.3574C54.4224 12.3025 54.3152 12.2223 54.2285 12.1224H54.2272ZM8.47304 11.4824C8.38381 11.3996 8.31177 11.3001 8.26103 11.1895C8.21028 11.0789 8.18182 10.9594 8.17728 10.8378C8.17273 10.7161 8.19219 10.5948 8.23455 10.4807C8.2769 10.3666 8.34131 10.262 8.42411 10.1728C8.50663 10.0835 8.60594 10.0113 8.71638 9.96044C8.82681 9.90954 8.9462 9.88091 9.06771 9.87619C9.18922 9.87146 9.31046 9.89074 9.42452 9.93291C9.53857 9.97508 9.64319 10.0393 9.73239 10.122C9.82184 10.2046 9.89412 10.3041 9.9451 10.4147C9.99607 10.5253 10.0247 10.6448 10.0295 10.7665C10.0342 10.8882 10.0149 11.0096 9.97263 11.1239C9.93038 11.2381 9.86603 11.3429 9.78326 11.4322C9.69672 11.526 9.59169 11.6009 9.47478 11.652C9.35787 11.7032 9.23163 11.7297 9.10401 11.7296C8.87 11.7299 8.64456 11.6416 8.47304 11.4824ZM52.0529 9.86893C51.9637 9.78598 51.8918 9.68626 51.8412 9.57548C51.7907 9.46469 51.7624 9.34501 51.7582 9.2233C51.7539 9.10159 51.7738 8.98024 51.8165 8.8662C51.8592 8.75216 51.924 8.64767 52.0072 8.55871C52.1749 8.37912 52.407 8.27343 52.6525 8.26486C52.8981 8.25629 53.137 8.34554 53.3168 8.51299C53.4962 8.68087 53.6018 8.91306 53.6104 9.15866C53.619 9.40426 53.5298 9.64324 53.3625 9.82322C53.2756 9.91615 53.1705 9.99022 53.0537 10.0408C52.937 10.0914 52.8111 10.1175 52.6839 10.1175C52.4496 10.1181 52.2238 10.0292 52.0529 9.86893ZM10.7181 9.1607C10.638 9.0692 10.5766 8.96279 10.5376 8.84757C10.4986 8.73235 10.4827 8.61057 10.4907 8.48919C10.4988 8.36781 10.5307 8.24921 10.5846 8.14017C10.6386 8.03113 10.7135 7.93378 10.805 7.8537C10.9897 7.69174 11.2311 7.60971 11.4761 7.62565C11.7212 7.64158 11.9499 7.75418 12.112 7.93869C12.2741 8.12364 12.3562 8.36533 12.3403 8.61073C12.3243 8.85613 12.2117 9.08518 12.0271 9.24762C11.8582 9.39571 11.6413 9.4772 11.4167 9.47683C11.2847 9.47673 11.1543 9.44835 11.0343 9.39359C10.9142 9.33884 10.8073 9.25899 10.7207 9.15941L10.7181 9.1607ZM49.652 7.85499C49.456 7.70666 49.3268 7.48665 49.2928 7.2432C49.2587 6.99976 49.3226 6.75276 49.4704 6.55635C49.6189 6.36048 49.8389 6.23141 50.0823 6.19738C50.3257 6.16335 50.5726 6.22714 50.7691 6.37479C50.9649 6.52322 51.094 6.74322 51.1281 6.98661C51.1621 7.23 51.0983 7.47696 50.9506 7.67342C50.8641 7.78788 50.7522 7.88072 50.6237 7.94462C50.4953 8.00852 50.3537 8.04175 50.2102 8.0417C50.0088 8.04198 49.8128 7.97642 49.652 7.85499ZM13.1989 7.08237C13.0584 6.88199 13.0028 6.63424 13.0442 6.39307C13.0855 6.15189 13.2205 5.93682 13.4197 5.79469C13.519 5.72438 13.6312 5.67435 13.7498 5.64746C13.8685 5.62056 13.9913 5.61734 14.1112 5.63798C14.2311 5.65861 14.3458 5.70269 14.4486 5.7677C14.5515 5.8327 14.6405 5.91736 14.7106 6.01681C14.781 6.11609 14.8311 6.22826 14.8581 6.34693C14.8851 6.46559 14.8885 6.58842 14.8679 6.70837C14.8474 6.82833 14.8035 6.94306 14.7386 7.04602C14.6737 7.14897 14.5891 7.23812 14.4898 7.30836C14.3336 7.4187 14.1472 7.47807 13.956 7.47834C13.8073 7.47774 13.661 7.44146 13.5292 7.37256C13.3975 7.30366 13.2842 7.20414 13.1989 7.08237ZM47.058 6.09794C46.8486 5.97081 46.698 5.76605 46.639 5.52831C46.58 5.29058 46.6175 5.03917 46.7431 4.82892C46.8699 4.61868 47.075 4.46732 47.3132 4.40806C47.5515 4.34879 47.8035 4.38646 48.0141 4.51279C48.2244 4.63949 48.3759 4.84452 48.4352 5.08284C48.4945 5.32115 48.4567 5.57325 48.3302 5.78374C48.248 5.92128 48.1315 6.03513 47.9922 6.11413C47.8528 6.19313 47.6953 6.23459 47.5351 6.23443C47.3662 6.23416 47.2006 6.18786 47.056 6.10051L47.058 6.09794ZM15.8772 5.27961C15.7577 5.06504 15.728 4.81182 15.7947 4.57542C15.8615 4.33901 16.0192 4.13869 16.2333 4.01832C16.4478 3.89857 16.7011 3.8688 16.9376 3.93554C17.174 4.00229 17.3743 4.16011 17.4946 4.37437C17.6145 4.58886 17.6444 4.8422 17.5776 5.0787C17.5108 5.31521 17.3529 5.51553 17.1385 5.63566C17.001 5.71319 16.8458 5.75399 16.6878 5.75412C16.5227 5.75438 16.3605 5.71054 16.218 5.62711C16.0755 5.54369 15.9579 5.42372 15.8772 5.27961ZM44.2894 4.62997C44.1789 4.57872 44.0796 4.5062 43.9972 4.41655C43.9147 4.32691 43.8507 4.2219 43.8089 4.10751C43.767 3.99313 43.7481 3.87163 43.7533 3.74994C43.7584 3.62825 43.7874 3.50876 43.8387 3.3983C43.89 3.28781 43.9625 3.1885 44.0522 3.10605C44.1418 3.0236 44.2468 2.95962 44.3612 2.91776C44.4756 2.87591 44.5971 2.857 44.7188 2.86212C44.8405 2.86724 44.96 2.89629 45.0704 2.94761C45.2934 3.05125 45.4662 3.2392 45.5507 3.47016C45.6352 3.70111 45.6246 3.95617 45.5211 4.17928C45.4464 4.33937 45.3275 4.47478 45.1784 4.56957C45.0293 4.66436 44.8563 4.71458 44.6796 4.71432C44.5448 4.71484 44.4116 4.6856 44.2894 4.62868V4.62997ZM18.7288 3.76529C18.6807 3.65357 18.6552 3.53347 18.6535 3.41185C18.6519 3.29023 18.6743 3.16948 18.7194 3.05652C18.7645 2.94356 18.8314 2.84059 18.9163 2.75352C19.0012 2.66644 19.1025 2.59697 19.2143 2.54907C19.4401 2.45238 19.6951 2.44935 19.9232 2.54062C20.1513 2.6319 20.3337 2.81002 20.4305 3.03582C20.5269 3.26092 20.5302 3.51507 20.4396 3.74256C20.3489 3.97006 20.1718 4.15234 19.947 4.24946C19.8319 4.29915 19.7079 4.32478 19.5826 4.32479C19.4014 4.32477 19.2242 4.27164 19.0729 4.17197C18.9217 4.07229 18.8029 3.93046 18.7314 3.764L18.7288 3.76529ZM41.3812 3.45882C41.2657 3.41965 41.1592 3.35809 41.0675 3.27768C40.9759 3.19727 40.9011 3.09958 40.8472 2.9902C40.7934 2.88082 40.7617 2.7619 40.7539 2.64025C40.7461 2.51859 40.7623 2.39659 40.8017 2.28123C40.8411 2.16599 40.9028 2.05965 40.9833 1.9683C41.0638 1.87696 41.1616 1.80241 41.271 1.74894C41.3804 1.69546 41.4993 1.66411 41.6209 1.65668C41.7424 1.64925 41.8642 1.66588 41.9793 1.70563C42.0944 1.74499 42.2006 1.80665 42.2919 1.88709C42.3831 1.96753 42.4576 2.06517 42.511 2.17443C42.5645 2.28368 42.5959 2.40241 42.6034 2.52381C42.611 2.64522 42.5945 2.76691 42.5549 2.88194C42.4924 3.06456 42.3744 3.2231 42.2174 3.33541C42.0605 3.44772 41.8723 3.5082 41.6793 3.5084C41.5787 3.5073 41.4789 3.49013 41.3838 3.45753L41.3812 3.45882ZM21.7266 2.55744C21.6906 2.4411 21.678 2.31882 21.6894 2.19759C21.7007 2.07636 21.7359 1.95856 21.7928 1.85093C21.8497 1.7433 21.9273 1.64794 22.0211 1.57031C22.1149 1.49268 22.2231 1.43431 22.3395 1.39852C22.5742 1.32625 22.828 1.34998 23.0452 1.46451C23.2625 1.57904 23.4254 1.77504 23.4984 2.00953C23.5704 2.24449 23.5464 2.49842 23.4315 2.71566C23.3166 2.9329 23.1202 3.09573 22.8855 3.16845C22.7971 3.19601 22.7051 3.21012 22.6125 3.2103C22.415 3.20975 22.2228 3.14621 22.064 3.0289C21.9051 2.9116 21.7878 2.74666 21.7291 2.55808L21.7266 2.55744ZM38.3686 2.598C38.25 2.57102 38.1378 2.52092 38.0385 2.45055C37.9392 2.38018 37.8548 2.29092 37.79 2.18789C37.7253 2.08486 37.6814 1.97007 37.6611 1.85009C37.6407 1.73011 37.6442 1.60729 37.6714 1.48866C37.7261 1.24903 37.8739 1.04097 38.082 0.910215C38.2901 0.779459 38.5417 0.736714 38.7813 0.791376C38.9 0.818497 39.0121 0.868724 39.1113 0.93919C39.2105 1.00966 39.2949 1.09898 39.3596 1.20205C39.4243 1.30513 39.4681 1.41994 39.4884 1.53993C39.5087 1.65992 39.5051 1.78274 39.478 1.90136C39.4315 2.10569 39.317 2.28818 39.1532 2.41894C38.9895 2.54971 38.7862 2.62101 38.5766 2.62118C38.5082 2.62135 38.4399 2.61379 38.3731 2.59865L38.3686 2.598ZM24.8376 1.67409C24.8142 1.55469 24.8146 1.43186 24.8387 1.31261C24.8628 1.19336 24.9101 1.08003 24.9781 0.979095C25.046 0.878161 25.1332 0.791604 25.2346 0.724374C25.336 0.657143 25.4496 0.610557 25.569 0.587277C25.8102 0.540417 26.0602 0.591284 26.2638 0.728689C26.4675 0.866094 26.6083 1.07878 26.6552 1.31997C26.6786 1.4394 26.6782 1.56227 26.6541 1.68157C26.6301 1.80086 26.5827 1.91424 26.5148 2.01522C26.4469 2.11621 26.3597 2.20282 26.2583 2.27012C26.1569 2.33741 26.0432 2.38407 25.9238 2.40742C25.8646 2.41902 25.8044 2.42463 25.7442 2.42416C25.5295 2.42359 25.3218 2.34847 25.1564 2.21165C24.9911 2.07483 24.8784 1.88481 24.8376 1.67409ZM35.2846 2.06039C35.0409 2.03074 34.8188 1.90566 34.6671 1.71256C34.5154 1.51946 34.4464 1.2741 34.4753 1.03024C34.4898 0.909412 34.5279 0.792611 34.5875 0.68651C34.647 0.580409 34.727 0.487086 34.8226 0.411872C34.9183 0.336658 35.0278 0.281025 35.145 0.248153C35.2621 0.21528 35.3846 0.205811 35.5055 0.220286C35.7494 0.24961 35.9717 0.374606 36.1234 0.567787C36.2752 0.760968 36.344 1.00652 36.3148 1.25044C36.2882 1.47546 36.1799 1.6829 36.0106 1.83348C35.8413 1.98406 35.6226 2.06731 35.396 2.06747C35.3582 2.06812 35.3204 2.06683 35.2827 2.06361L35.2846 2.06039ZM28.0214 1.12553C28 0.880784 28.0766 0.637534 28.2344 0.44921C28.3921 0.260887 28.6182 0.142889 28.8629 0.121134C28.9844 0.110447 29.1068 0.123837 29.223 0.160536C29.3393 0.197236 29.4472 0.256523 29.5405 0.334999C29.6338 0.413475 29.7107 0.509596 29.7668 0.617852C29.8229 0.726108 29.857 0.84437 29.8673 0.965857C29.8783 1.08706 29.8652 1.20924 29.8289 1.32538C29.7925 1.44152 29.7336 1.54934 29.6555 1.64265C29.5773 1.73597 29.4816 1.81294 29.3736 1.86916C29.2657 1.92538 29.1477 1.95973 29.0265 1.97025C28.9994 1.97283 28.9717 1.97412 28.9434 1.97412C28.7114 1.97366 28.488 1.88626 28.3174 1.72916C28.1467 1.57206 28.0411 1.35668 28.0214 1.12553ZM32.1581 1.85372C31.9123 1.84948 31.6781 1.74796 31.507 1.5714C31.3359 1.39484 31.2417 1.15764 31.2452 0.911775C31.2496 0.666209 31.3511 0.432393 31.5275 0.261521C31.7039 0.0906495 31.9409 -0.00335444 32.1865 9.15037e-05C32.3082 0.00185315 32.4283 0.0275927 32.54 0.0758374C32.6518 0.124082 32.7529 0.193885 32.8377 0.281253C32.9224 0.368621 32.9891 0.471839 33.0339 0.585002C33.0787 0.698165 33.1007 0.819053 33.0988 0.940747C33.0954 1.18395 32.9964 1.41605 32.8233 1.58689C32.6502 1.75772 32.4168 1.85357 32.1736 1.85372H32.1581Z" fill="#463B32"/>
<path d="M59.5299 45.7639C59.3152 45.7641 59.107 45.69 58.9409 45.5539C58.7748 45.4179 58.661 45.2285 58.6189 45.018C58.5768 44.8074 58.609 44.5888 58.7101 44.3994C58.8111 44.21 58.9748 44.0614 59.1731 43.9792C59.3714 43.8969 59.5921 43.8859 59.7976 43.9481C60.003 44.0104 60.1806 44.1419 60.2999 44.3204C60.4193 44.4989 60.473 44.7133 60.452 44.9269C60.431 45.1406 60.3365 45.3404 60.1846 45.4922C60.0104 45.665 59.7753 45.7626 59.5299 45.7639Z" fill="#463B32"/>
<path d="M24.8685 18.9561C24.6845 18.9555 24.5074 18.8866 24.3713 18.7628C24.2352 18.639 24.1498 18.4691 24.1318 18.286C24.1138 18.1029 24.1643 17.9196 24.2737 17.7716C24.383 17.6236 24.5433 17.5215 24.7237 17.485C25.0823 17.4122 25.4634 17.3478 25.8324 17.286C26.6545 17.1482 27.5063 17.0053 28.1792 16.7581C29.304 16.3463 30.4031 15.8673 31.4705 15.3236C32.6256 14.7338 33.4741 14.0359 34.221 13.0701C34.4187 12.8126 34.6073 12.5518 34.8005 12.275C34.9292 12.0973 35.058 11.9189 35.1868 11.7432L35.2557 11.6311C34.6949 11.5951 34.1611 11.5983 33.646 11.6009C33.4671 11.6009 33.2887 11.6009 33.111 11.6009C32.0284 11.5887 30.9481 11.7025 29.8918 11.9402C28.2822 12.3123 26.0525 13.1506 24.5698 15.0306C23.6433 16.2056 22.2571 17.5912 20.8999 17.5094C20.7986 17.5094 20.6985 17.4887 20.6055 17.4485C20.5126 17.4084 20.4288 17.3497 20.3594 17.276C20.2899 17.2023 20.2363 17.1152 20.2017 17.02C20.1672 16.9249 20.1524 16.8236 20.1584 16.7226C20.1644 16.6215 20.1909 16.5227 20.2365 16.4323C20.282 16.3419 20.3455 16.2617 20.4232 16.1967C20.5008 16.1317 20.5909 16.0833 20.6879 16.0544C20.785 16.0255 20.8869 16.0167 20.9874 16.0286C21.5109 16.0601 22.4631 15.3081 23.4051 14.1132C24.788 12.3619 26.9159 11.1064 29.5563 10.4947C30.7244 10.2322 31.919 10.1055 33.1162 10.1175C33.2906 10.1175 33.4645 10.1175 33.639 10.1175C34.5558 10.1123 35.5061 10.1072 36.6283 10.2958C36.7583 10.3176 36.8802 10.3736 36.9814 10.458C37.0827 10.5424 37.1596 10.6523 37.2044 10.7763C37.2491 10.9003 37.2601 11.034 37.2362 11.1636C37.2122 11.2932 37.1542 11.4141 37.0681 11.514C37.0037 11.6157 36.8234 11.9125 36.714 12.0934C36.5111 12.4327 36.441 12.5486 36.392 12.6175C36.2633 12.7907 36.1397 12.9652 36.0141 13.1403C35.8209 13.4152 35.6136 13.6992 35.3999 13.9773C34.5114 15.1291 33.5083 15.952 32.1485 16.6467C31.0267 17.2195 29.8713 17.7237 28.6884 18.1565C27.8856 18.4501 26.9662 18.6072 26.077 18.754C25.7036 18.8184 25.3508 18.8763 25.0172 18.9439C24.9682 18.953 24.9184 18.9571 24.8685 18.9561ZM36.8537 11.6846C36.8085 11.7088 36.7607 11.728 36.7114 11.7419C36.7608 11.7282 36.8085 11.709 36.8537 11.6846Z" fill="#463B32"/>
<path d="M24.8685 19.018C24.7234 19.0176 24.581 18.9781 24.4564 18.9034C24.3319 18.8288 24.2299 18.7219 24.1612 18.594C24.0925 18.4661 24.0597 18.322 24.0662 18.177C24.0727 18.0319 24.1184 17.8914 24.1983 17.7702C24.2564 17.6818 24.3316 17.606 24.4194 17.5469C24.5071 17.4879 24.6057 17.4469 24.7095 17.4264C25.0675 17.3536 25.4486 17.2892 25.8169 17.2274C26.6417 17.089 27.4909 16.9467 28.156 16.702C29.2783 16.2922 30.3749 15.8149 31.4396 15.2727C32.5863 14.6875 33.4278 13.9979 34.1695 13.0366C34.3626 12.7836 34.5494 12.5261 34.7444 12.2531C34.8784 12.0657 35.0065 11.8874 35.1365 11.711C35.1398 11.7058 35.1443 11.6994 35.1488 11.691C34.7535 11.6685 34.382 11.6659 34.0671 11.6659C33.9293 11.6659 33.7928 11.6659 33.657 11.6659H33.0119C31.9659 11.6606 30.9226 11.7738 29.9021 12.0033C28.3028 12.3735 26.0867 13.206 24.6155 15.0738C23.7141 16.2166 22.3575 17.579 21.01 17.5796C20.9707 17.5796 20.9308 17.5796 20.8909 17.5757C20.7853 17.5693 20.682 17.5421 20.5869 17.4957C20.4918 17.4493 20.4068 17.3846 20.3367 17.3054C20.2666 17.2261 20.2128 17.1339 20.1783 17.0338C20.1439 16.9338 20.1295 16.8279 20.136 16.7223C20.1424 16.6167 20.1696 16.5134 20.216 16.4183C20.2624 16.3232 20.3271 16.2382 20.4063 16.1681C20.4856 16.098 20.5778 16.0442 20.6779 16.0098C20.7779 15.9753 20.8838 15.961 20.9894 15.9674H21.019C21.5341 15.9674 22.4483 15.2251 23.3555 14.0752C24.7488 12.3065 26.8889 11.0491 29.5435 10.4329C30.6891 10.1755 31.8602 10.0485 33.0344 10.0544H33.639C33.7896 10.0544 33.9409 10.0544 34.0897 10.0544C34.9423 10.0417 35.7944 10.1023 36.6367 10.2353C36.7776 10.2588 36.9097 10.3194 37.0194 10.4109C37.1292 10.5024 37.2126 10.6214 37.2611 10.7558C37.3096 10.8902 37.3214 11.0351 37.2954 11.1755C37.2695 11.316 37.2065 11.447 37.1132 11.5552C37.0546 11.644 36.8962 11.908 36.7655 12.1282C36.5607 12.4701 36.4905 12.5866 36.4384 12.6574C36.3212 12.8158 36.2073 12.9748 36.0927 13.1345L36.0605 13.1796C35.8673 13.4539 35.6606 13.7378 35.445 14.0166C34.5506 15.1755 33.5417 16.0041 32.1723 16.7033C31.0487 17.2748 29.8918 17.7781 28.7078 18.2106C27.8997 18.5067 26.9765 18.6613 26.0847 18.8113H26.0706C25.7029 18.8757 25.3559 18.931 25.0276 18.998C24.9753 19.0096 24.922 19.0163 24.8685 19.018ZM34.0697 11.5397C34.4135 11.5397 34.8243 11.5436 35.2621 11.5719C35.2726 11.5728 35.2828 11.5762 35.2916 11.582C35.3005 11.5877 35.3078 11.5955 35.313 11.6047C35.3179 11.614 35.3205 11.6244 35.3205 11.635C35.3205 11.6455 35.3179 11.6559 35.313 11.6653C35.2814 11.7174 35.2557 11.7593 35.2421 11.7792C35.1134 11.9582 34.9846 12.1359 34.8558 12.3136C34.653 12.5969 34.4695 12.8557 34.2706 13.11C33.5179 14.0868 32.661 14.7873 31.5021 15.3809C30.4313 15.9254 29.3288 16.4048 28.2004 16.8167C27.5218 17.0652 26.6694 17.2081 25.8446 17.3465C25.4718 17.4109 25.0919 17.4753 24.7359 17.5455C24.5704 17.579 24.4232 17.6727 24.3229 17.8086C24.2226 17.9445 24.1764 18.1127 24.1931 18.2808C24.2099 18.4488 24.2885 18.6046 24.4136 18.718C24.5388 18.8314 24.7016 18.8942 24.8705 18.8943C24.9161 18.8943 24.9616 18.8898 25.0063 18.8808C25.3372 18.8132 25.6856 18.7553 26.0538 18.6935H26.0687C26.9546 18.5441 27.8714 18.3902 28.6691 18.0985C29.8486 17.6679 31.001 17.1665 32.1201 16.5971C33.4722 15.9069 34.4689 15.0886 35.3509 13.9451C35.5653 13.6657 35.7682 13.383 35.9645 13.1081L35.9961 13.063C36.1107 12.9034 36.2253 12.7411 36.3425 12.5847C36.3914 12.5203 36.4609 12.4031 36.6644 12.0657C36.7236 11.9659 36.788 11.8578 36.8479 11.7599L36.8363 11.765C36.803 11.7797 36.7688 11.7922 36.7339 11.8024C36.7199 11.8024 36.7063 11.7979 36.695 11.7895C36.6838 11.7811 36.6757 11.7692 36.6718 11.7557C36.668 11.7423 36.6686 11.7279 36.6737 11.7148C36.6787 11.7017 36.6879 11.6907 36.6998 11.6833C36.7296 11.6747 36.7589 11.6642 36.7874 11.6517L36.8292 11.6318C36.8435 11.6249 36.8598 11.6236 36.875 11.628C36.8902 11.6324 36.9032 11.6422 36.9116 11.6556C36.958 11.5809 36.9966 11.5185 37.0211 11.4811C37.1387 11.3468 37.1994 11.172 37.1904 10.9937C37.1829 10.8387 37.1224 10.691 37.019 10.5752C36.9156 10.4594 36.7757 10.3826 36.6225 10.3576C35.787 10.2261 34.9418 10.1662 34.0961 10.1786C33.9441 10.1786 33.7935 10.1786 33.6454 10.1786H33.0389C31.8721 10.1739 30.7085 10.3015 29.5705 10.5591C26.943 11.1669 24.8273 12.4108 23.454 14.1576C22.4882 15.3809 21.5373 16.1297 20.9842 16.0955H20.9449C20.768 16.0957 20.598 16.1648 20.471 16.2881C20.3441 16.4113 20.2701 16.5792 20.2647 16.7561C20.2594 16.933 20.3231 17.1051 20.4423 17.2358C20.5616 17.3666 20.7271 17.4458 20.9037 17.4566C20.9417 17.4566 20.9784 17.4605 21.0158 17.4605C22.3131 17.4605 23.6388 16.1232 24.5234 15.0017C26.0171 13.1062 28.2577 12.2621 29.8796 11.8874C30.9092 11.6559 31.9617 11.5416 33.017 11.5468H33.6518L34.0697 11.5397Z" fill="#463B32"/>
<path d="M16.9293 25.3321C15.9542 25.3236 14.9912 25.1148 14.1002 24.7185C13.1486 24.2968 12.5428 23.6601 12.0734 22.59C11.4856 21.2482 12.2801 20.3365 12.8595 19.6721C12.9703 19.5433 13.0855 19.4146 13.1918 19.28C13.4345 18.9896 13.7002 18.7192 13.9863 18.4713C14.2026 18.2827 14.406 18.0799 14.5954 17.8642C14.7462 17.6731 14.8855 17.4731 15.0126 17.2654C15.1876 16.9778 15.3841 16.7038 15.6004 16.4458C16.0982 15.8665 16.7637 15.4561 17.5049 15.2714C17.877 15.18 18.2376 15.2025 18.5556 15.2225C18.8003 15.2379 19.0533 15.2534 19.1847 15.2C20.1202 14.8194 20.8741 13.8363 21.6036 12.8853C21.8998 12.499 22.1792 12.1353 22.4754 11.8011C23.6568 10.4709 25.2619 9.43562 27.2462 8.72418C28.3759 8.3284 29.5472 8.06334 30.7372 7.93418C30.9129 7.91422 31.0893 7.89233 31.267 7.86979C32.1929 7.75519 33.149 7.63737 34.2519 7.69982C34.3831 7.70722 34.51 7.74931 34.6197 7.82177C34.7294 7.89424 34.8178 7.9945 34.8761 8.11232C34.9343 8.23014 34.9603 8.36131 34.9513 8.49244C34.9423 8.62357 34.8987 8.74997 34.8249 8.85874C34.7702 8.9669 34.6318 9.27917 34.5442 9.47168C34.38 9.83803 34.3227 9.96293 34.2796 10.0389C34.174 10.223 34.0703 10.4104 33.9673 10.5984L33.7742 10.9435C33.678 11.1155 33.5173 11.2423 33.3276 11.2959C33.138 11.3495 32.9347 11.3256 32.7627 11.2294C32.5907 11.1332 32.4639 10.9725 32.4103 10.7828C32.3567 10.5931 32.3806 10.3899 32.4768 10.2179L32.6642 9.87988C32.7698 9.68672 32.8754 9.49679 32.9861 9.30685C32.9971 9.28561 33.0177 9.24247 33.0428 9.18581C32.4936 9.21607 31.9663 9.2811 31.4493 9.34484C31.267 9.36738 31.0861 9.38991 30.9065 9.40923C29.8304 9.52593 28.7713 9.7655 27.7497 10.1232C26.003 10.7497 24.6026 11.6459 23.5892 12.7875C23.3278 13.0817 23.0638 13.4255 22.785 13.7893C21.9744 14.8465 21.0557 16.0427 19.7461 16.5765C19.3012 16.7574 18.857 16.7297 18.4655 16.7053C18.2324 16.6911 18.0148 16.6776 17.8603 16.7149C17.4166 16.8273 17.0188 17.0748 16.722 17.4232C16.5544 17.6265 16.4016 17.8417 16.2648 18.067C16.1059 18.3257 15.9311 18.5742 15.7414 18.8113C15.5091 19.0807 15.2581 19.3333 14.99 19.5672C14.7622 19.7642 14.5496 19.9782 14.3539 20.2071C14.2284 20.3642 14.1028 20.5078 13.9811 20.6475C13.3701 21.3493 13.2459 21.5573 13.4371 21.9925C13.759 22.7201 14.0996 23.087 14.7035 23.3587C15.9474 23.9099 17.8712 24.1726 19.1995 23.1012L19.2297 23.0767C19.3229 22.9979 19.4234 22.928 19.5298 22.8681C19.7015 22.7713 19.9046 22.7467 20.0945 22.7996C20.2843 22.8526 20.4454 22.9788 20.5422 23.1505C20.639 23.3222 20.6637 23.5253 20.6107 23.7152C20.5578 23.905 20.4316 24.0661 20.2599 24.1629C20.2263 24.1806 20.195 24.2022 20.1665 24.2273L20.1331 24.2543C19.1692 25.0347 18.0361 25.3321 16.9293 25.3321ZM34.635 9.05189C34.5921 9.08151 34.5464 9.10675 34.4985 9.12722C34.5463 9.10663 34.5921 9.0814 34.635 9.05189Z" fill="#463B32"/>
<path d="M16.9293 25.3939C15.9458 25.3842 14.9747 25.1735 14.0758 24.7746C13.11 24.3464 12.4938 23.7006 12.0155 22.6151C11.4122 21.2373 12.2209 20.3089 12.8113 19.6315L12.8293 19.6109C12.9342 19.4905 13.0424 19.3663 13.1422 19.2414C13.3869 18.9485 13.6548 18.6757 13.9431 18.4256C14.1574 18.2393 14.3588 18.0386 14.5458 17.8249C14.6952 17.6362 14.833 17.4386 14.9585 17.2332C15.1356 16.9427 15.3342 16.666 15.5527 16.4052C16.0585 15.816 16.7351 15.3988 17.4888 15.2115C17.6947 15.1634 17.9057 15.1405 18.1172 15.1433C18.2717 15.1433 18.4236 15.1523 18.5582 15.1607C18.6722 15.1678 18.79 15.1755 18.8943 15.1755C18.9842 15.1803 19.0742 15.1692 19.1602 15.1427C20.0796 14.7692 20.8284 13.7906 21.5527 12.8493C21.8528 12.4572 22.1322 12.0941 22.4284 11.7599C23.6162 10.422 25.2297 9.37768 27.2237 8.66623C28.358 8.26878 29.534 8.00243 30.7288 7.87237C30.9033 7.85306 31.0778 7.83116 31.2542 7.80799C32.0049 7.71527 32.7769 7.61998 33.6299 7.61998C33.8392 7.61998 34.0497 7.62578 34.2538 7.63737C34.3959 7.64553 34.5332 7.69117 34.6519 7.76964C34.7705 7.8481 34.8663 7.9566 34.9294 8.0841C34.9926 8.21159 35.0208 8.35353 35.0113 8.49548C35.0017 8.63743 34.9548 8.77431 34.8751 8.89222C34.8281 8.98558 34.7026 9.26436 34.5989 9.49615C34.436 9.85863 34.3774 9.98804 34.3317 10.0685C34.2261 10.252 34.1231 10.4394 34.0195 10.6267C33.9551 10.742 33.8907 10.8572 33.8263 10.9718C33.7753 11.065 33.7063 11.1472 33.6233 11.2136C33.5403 11.28 33.445 11.3293 33.3428 11.3587C33.2407 11.3881 33.1337 11.3969 33.0282 11.3847C32.9226 11.3725 32.8205 11.3395 32.7277 11.2877C32.6349 11.2358 32.5534 11.1661 32.4877 11.0825C32.422 10.999 32.3736 10.9032 32.3451 10.8008C32.3166 10.6984 32.3087 10.5914 32.3218 10.4859C32.3349 10.3805 32.3688 10.2787 32.4215 10.1863C32.4858 10.0743 32.5502 9.96164 32.6088 9.84897C32.7144 9.65582 32.82 9.46266 32.9307 9.27531C32.9349 9.26782 32.9385 9.26008 32.9417 9.25213C32.4298 9.28432 31.9354 9.34549 31.4557 9.40472L31.4177 9.40987C31.2484 9.43047 31.0803 9.45108 30.9123 9.47039C29.8403 9.58573 28.7851 9.82335 27.7671 10.1786C26.0287 10.8012 24.6387 11.6923 23.6317 12.8261C23.3742 13.1197 23.1089 13.4622 22.8308 13.8247C22.0195 14.8909 21.093 16.0962 19.7661 16.6338C19.4892 16.7411 19.1937 16.7926 18.8969 16.7851C18.7443 16.7851 18.5988 16.7761 18.4584 16.7671C18.2099 16.7523 17.9942 16.7445 17.8712 16.7748C17.4403 16.8845 17.0539 17.1249 16.7651 17.4631C16.6001 17.6649 16.4494 17.8781 16.3144 18.1011C16.1542 18.3623 15.9777 18.613 15.7858 18.8518C15.5541 19.1211 15.3036 19.3737 15.0364 19.6077C14.8082 19.8044 14.5954 20.0181 14.3996 20.247C14.2709 20.4093 14.1421 20.558 14.0255 20.6887C13.4255 21.3776 13.3135 21.5637 13.4905 21.9687C13.8028 22.6808 14.1376 23.042 14.7267 23.3034C15.4181 23.6096 16.1648 23.7711 16.9209 23.7779C17.8101 23.7779 18.5627 23.5339 19.1583 23.0529L19.1879 23.0291C19.2837 22.9477 19.3872 22.8759 19.4969 22.8147C19.6827 22.7113 19.9018 22.6856 20.1065 22.7432C20.3111 22.8009 20.4846 22.9371 20.5892 23.1223C20.6937 23.3074 20.7207 23.5264 20.6643 23.7314C20.6079 23.9364 20.4727 24.1107 20.2882 24.2163C20.2572 24.234 20.2286 24.2556 20.2032 24.2807L20.1691 24.3078C19.289 25.0173 18.168 25.3939 16.9293 25.3939ZM18.1191 15.2663C17.9176 15.2631 17.7165 15.2847 17.5203 15.3307C16.7906 15.5121 16.1354 15.916 15.6455 16.4864C15.4326 16.7426 15.239 17.0142 15.066 17.2989C14.9377 17.5089 14.7969 17.711 14.6443 17.9041C14.4543 18.1217 14.2495 18.3259 14.0313 18.5151C13.7471 18.7614 13.4832 19.0301 13.242 19.3186C13.1409 19.4474 13.0315 19.571 12.9259 19.6921L12.9078 19.7127C12.3387 20.3655 11.5596 21.2579 12.132 22.5649C12.5943 23.6201 13.1911 24.2473 14.1279 24.6619C15.0113 25.0537 15.9655 25.2608 16.9319 25.2703C18.1423 25.2703 19.2362 24.9033 20.0951 24.2093L20.1292 24.1822C20.1601 24.1536 20.1945 24.1289 20.2316 24.1088C20.3096 24.0646 20.3781 24.0055 20.4332 23.9349C20.4884 23.8642 20.5291 23.7834 20.553 23.697C20.5769 23.6106 20.5836 23.5203 20.5726 23.4314C20.5617 23.3424 20.5333 23.2565 20.4891 23.1785C20.4449 23.1005 20.3858 23.0319 20.3151 22.9768C20.2445 22.9216 20.1636 22.8809 20.0773 22.857C19.9909 22.8331 19.9006 22.8264 19.8116 22.8374C19.7227 22.8484 19.6367 22.8768 19.5587 22.9209C19.4553 22.979 19.3576 23.047 19.2671 23.1237L19.2368 23.1482C18.6277 23.6401 17.8274 23.9002 16.9222 23.9002C16.1495 23.8934 15.3864 23.7287 14.6797 23.416C14.0584 23.1411 13.7068 22.7619 13.3811 22.0183C13.1776 21.5541 13.3167 21.3223 13.9354 20.6076C14.0487 20.4788 14.1781 20.3301 14.3063 20.1698C14.5038 19.9388 14.7191 19.7235 14.9501 19.5259C15.2155 19.2935 15.4644 19.0429 15.695 18.7759C15.882 18.5409 16.054 18.2945 16.2101 18.038C16.3495 17.8091 16.505 17.5905 16.6756 17.3839C16.9808 17.0266 17.3893 16.7726 17.8448 16.657C17.9349 16.6374 18.027 16.6288 18.1191 16.6312C18.2266 16.6312 18.3425 16.6383 18.4655 16.6454C18.6084 16.6544 18.7514 16.6634 18.9001 16.6634C19.1811 16.6709 19.4608 16.6225 19.7229 16.5211C21.0164 15.9957 21.9294 14.8053 22.7348 13.7526C23.0155 13.3869 23.2795 13.0444 23.5428 12.7456C24.5633 11.5964 25.9721 10.6943 27.7278 10.064C28.7547 9.70547 29.8193 9.46548 30.9007 9.3487C31.0681 9.32939 31.2361 9.30814 31.4055 9.28432L31.4428 9.27981C31.9579 9.21543 32.4878 9.15104 33.0402 9.12078C33.0508 9.1199 33.0615 9.12188 33.0711 9.12652C33.0808 9.13117 33.089 9.1383 33.0949 9.14718C33.1007 9.15607 33.1042 9.16624 33.1051 9.1768C33.106 9.18735 33.1042 9.19797 33.1001 9.2077C33.075 9.26436 33.0531 9.30943 33.0428 9.33132C32.9327 9.52447 32.8271 9.71441 32.7208 9.90563L32.5341 10.2443C32.4905 10.3224 32.4626 10.4083 32.4521 10.4971C32.4417 10.586 32.4488 10.676 32.4731 10.7621C32.4975 10.8482 32.5385 10.9287 32.5939 10.9989C32.6494 11.0691 32.7181 11.1278 32.7962 11.1714C32.8743 11.2151 32.9602 11.243 33.049 11.2534C33.1379 11.2639 33.2279 11.2568 33.314 11.2324C33.4001 11.2081 33.4806 11.167 33.5508 11.1116C33.621 11.0562 33.6796 10.9875 33.7233 10.9094L33.9165 10.5643C34.0195 10.3763 34.1231 10.1889 34.2287 10.0041C34.2706 9.93138 34.3272 9.80777 34.4908 9.44271L34.6343 9.124C34.5994 9.14546 34.5628 9.16419 34.5249 9.18002C34.5097 9.18577 34.4929 9.18559 34.4779 9.1795C34.4628 9.17341 34.4507 9.16187 34.4438 9.14718C34.438 9.13201 34.4382 9.11522 34.4443 9.10018C34.4504 9.08514 34.4619 9.07295 34.4766 9.06606C34.5219 9.04774 34.565 9.02464 34.6054 8.99717C34.6185 8.98883 34.6342 8.98554 34.6496 8.98791C34.665 8.99027 34.679 8.99814 34.6891 9.01004C34.7251 8.93149 34.7535 8.86647 34.7753 8.82719C34.8761 8.68079 34.9161 8.50094 34.8867 8.32564C34.8619 8.17301 34.7856 8.03347 34.6704 7.93027C34.5553 7.82706 34.4083 7.76641 34.2538 7.75841C34.0517 7.74682 33.8443 7.74103 33.637 7.74103C32.7917 7.74103 32.0229 7.83567 31.2806 7.92774C31.0996 7.94963 30.9245 7.97152 30.7494 7.99213C29.5642 8.12083 28.3977 8.38481 27.2726 8.7789C25.298 9.48713 23.7019 10.5173 22.5275 11.8384C22.2339 12.1694 21.9571 12.5312 21.6628 12.9143C20.9237 13.8801 20.1646 14.8677 19.2162 15.254C19.1156 15.2872 19.0097 15.3014 18.9039 15.2959C18.7958 15.2959 18.6754 15.2882 18.5601 15.2811C18.414 15.2753 18.2698 15.2663 18.1191 15.2663Z" fill="#463B32"/>
<path d="M44.1826 36.7192H44.1433C43.9465 36.7087 43.762 36.6205 43.6302 36.4741C43.4984 36.3277 43.43 36.1349 43.4402 35.9382C43.4608 35.5345 43.5529 34.9763 43.6417 34.4361C43.7061 34.0375 43.7705 33.6635 43.7956 33.3943C44.0879 30.4327 44.0898 27.9951 43.146 25.7114C41.9046 22.7098 39.8933 20.8664 37.1685 20.231C35.3194 19.8002 33.0408 20.1073 31.455 20.4415C31.0533 20.5265 30.6374 20.6398 30.197 20.7589C29.378 20.9817 28.5301 21.2096 27.6609 21.2881C25.5194 21.4755 24.8692 19.9316 24.3457 18.6909L24.2942 18.5692C24.2209 18.3884 24.2216 18.186 24.2962 18.0058C24.3708 17.8255 24.5133 17.6818 24.693 17.6057C24.8726 17.5296 25.075 17.5273 25.2563 17.5991C25.4377 17.671 25.5836 17.8113 25.6624 17.9897L25.7145 18.114C26.2843 19.4661 26.5515 19.8949 27.5315 19.8086C28.268 19.7442 29.0509 19.5311 29.8075 19.3257C30.2485 19.206 30.705 19.0817 31.1486 18.9883C32.8818 18.6233 35.3915 18.2917 37.5059 18.7842C40.6794 19.524 43.1073 21.7234 44.5193 25.1441C45.5816 27.7137 45.5893 30.3593 45.2745 33.5411C45.2436 33.856 45.1773 34.2552 45.1078 34.6775C45.026 35.1778 44.9404 35.6948 44.9243 36.0161C44.914 36.2059 44.8315 36.3846 44.6935 36.5154C44.5555 36.6462 44.3727 36.7191 44.1826 36.7192Z" fill="#463B32"/>
<path d="M44.1826 36.781H44.1407C43.9276 36.7698 43.7276 36.6745 43.5846 36.516C43.4417 36.3575 43.3675 36.1487 43.3784 35.9356C43.399 35.5293 43.4911 34.9698 43.5799 34.4303C43.6443 34.0292 43.7087 33.6577 43.7338 33.3892C44.0261 30.4385 44.028 28.0073 43.09 25.7358C41.857 22.7542 39.8604 20.9224 37.1556 20.2915C36.4844 20.1445 35.7986 20.0741 35.1114 20.0816C34.0208 20.0816 32.7936 20.2232 31.4692 20.5027C31.0726 20.5864 30.6618 20.6958 30.2266 20.8162H30.2144C29.3935 21.0396 28.5404 21.2708 27.668 21.3467C27.5482 21.3577 27.4297 21.3628 27.3164 21.3628C25.4081 21.3628 24.7887 19.8942 24.2904 18.7134L24.2382 18.5904C24.1921 18.4924 24.1663 18.3861 24.1622 18.2779C24.1582 18.1696 24.176 18.0617 24.2147 17.9605C24.2534 17.8594 24.3121 17.767 24.3873 17.6891C24.4625 17.6111 24.5526 17.5492 24.6523 17.5069C24.7521 17.4646 24.8593 17.4429 24.9676 17.4431C25.0759 17.4432 25.1831 17.4652 25.2827 17.5078C25.3823 17.5504 25.4723 17.6126 25.5473 17.6907C25.6222 17.7689 25.6807 17.8614 25.719 17.9627L25.7712 18.0863C26.2927 19.3218 26.5438 19.7539 27.3068 19.7539C27.375 19.7539 27.4471 19.7539 27.5257 19.7436C28.2577 19.6792 29.0368 19.468 29.7901 19.2626C30.2337 19.1422 30.6915 19.0186 31.1351 18.9246C32.5644 18.6233 33.9036 18.4739 35.1114 18.4739C35.9208 18.4658 36.7284 18.5499 37.5188 18.7244C40.7129 19.4686 43.153 21.6802 44.5759 25.1209C45.6428 27.7015 45.6512 30.356 45.335 33.5476C45.3048 33.8592 45.2397 34.2558 45.1715 34.6685V34.6878C45.0884 35.192 45.0047 35.7032 44.988 36.0193C44.9771 36.2253 44.8874 36.4193 44.7375 36.5611C44.5876 36.7029 44.3889 36.7816 44.1826 36.781ZM35.1101 19.9593C35.8068 19.9517 36.5021 20.023 37.1827 20.1717C39.928 20.8156 41.9542 22.6685 43.2033 25.6888C44.1523 27.9848 44.151 30.4327 43.8574 33.4014C43.8304 33.6712 43.7686 34.0453 43.7029 34.447C43.6134 34.9879 43.5226 35.5416 43.5014 35.9427C43.4924 36.1228 43.5551 36.2992 43.6757 36.4334C43.7963 36.5675 43.9651 36.6485 44.1452 36.6586H44.1813C44.3554 36.6586 44.5229 36.5918 44.6494 36.472C44.7758 36.3523 44.8516 36.1887 44.8612 36.0148C44.8779 35.6929 44.9622 35.1778 45.044 34.6788L45.0492 34.6505C45.1135 34.2365 45.1779 33.845 45.2114 33.5373C45.5256 30.3638 45.5179 27.7272 44.4613 25.1673C43.0545 21.7652 40.6433 19.5787 37.4904 18.8441C36.7083 18.6715 35.9091 18.5885 35.1082 18.5969C33.9074 18.5969 32.5779 18.7488 31.1576 19.0476C30.7159 19.1409 30.2614 19.2645 29.821 19.3843C29.0606 19.591 28.2757 19.8041 27.5334 19.8691C27.4503 19.8768 27.3757 19.8801 27.3035 19.8801C26.4665 19.8801 26.1878 19.4023 25.654 18.1372L25.6019 18.0136C25.5498 17.8901 25.4625 17.7847 25.3508 17.7108C25.2391 17.6368 25.1081 17.5974 24.9741 17.5976C24.8622 17.5986 24.7523 17.627 24.6541 17.6805C24.5558 17.7339 24.4722 17.8107 24.4106 17.9041C24.349 17.9975 24.3113 18.1046 24.3009 18.216C24.2905 18.3274 24.3077 18.4396 24.3509 18.5428L24.403 18.6651C24.8866 19.8131 25.4892 21.2405 27.3145 21.2405C27.4246 21.2405 27.5392 21.2354 27.6551 21.225C28.5204 21.1497 29.3638 20.9199 30.1802 20.6984L30.1925 20.6945C30.629 20.5761 31.0417 20.464 31.4415 20.3797C32.7769 20.0996 34.0111 19.9593 35.1101 19.9593Z" fill="#463B32"/>
<path d="M48.3012 36.262C48.1968 36.2614 48.0936 36.239 47.9984 36.1961C47.9032 36.1532 47.818 36.0908 47.7484 36.013C47.6788 35.9351 47.6262 35.8436 47.5941 35.7442C47.562 35.6448 47.5511 35.5398 47.5621 35.436C47.6606 34.5513 47.5305 33.554 47.2595 33.1181C47.1575 32.9455 47.0163 32.7991 46.8475 32.6909C46.6787 32.5827 46.4868 32.5155 46.2873 32.4949C46.0942 32.479 45.9002 32.5092 45.7211 32.583C45.542 32.6567 45.383 32.772 45.2571 32.9192C45.1917 32.9916 45.1126 33.0503 45.0245 33.0922C44.9363 33.134 44.8408 33.158 44.7433 33.1629C44.6459 33.1678 44.5484 33.1535 44.4565 33.1207C44.3646 33.088 44.28 33.0374 44.2077 32.972C44.1353 32.9065 44.0765 32.8275 44.0347 32.7393C43.9929 32.6512 43.9688 32.5556 43.9639 32.4582C43.959 32.3607 43.9734 32.2633 44.0061 32.1714C44.0389 32.0794 44.0894 31.9949 44.1549 31.9225C44.4357 31.6048 44.787 31.3572 45.1806 31.1996C45.5743 31.0419 45.9993 30.9786 46.4218 31.0147C46.8511 31.0554 47.2648 31.1961 47.6299 31.4256C47.9949 31.655 48.3011 31.9668 48.524 32.3359C49.0738 33.225 49.1453 34.6537 49.0391 35.6027C49.0182 35.7839 48.9316 35.9512 48.7956 36.0727C48.6596 36.1943 48.4836 36.2616 48.3012 36.262Z" fill="#463B32"/>
<path d="M48.3012 36.3238C48.2711 36.3237 48.241 36.322 48.2111 36.3187C47.9995 36.2941 47.8063 36.1868 47.6736 36.0202C47.5409 35.8536 47.4795 35.6412 47.5029 35.4295C47.6001 34.5565 47.4745 33.5765 47.2099 33.149C47.1128 32.9844 46.9784 32.8449 46.8177 32.7416C46.6569 32.6383 46.4741 32.5741 46.2841 32.5541C46.1005 32.5397 45.916 32.5688 45.7459 32.6392C45.5757 32.7096 45.4245 32.8192 45.3048 32.9591C45.1611 33.1155 44.9614 33.2088 44.7493 33.2187C44.5371 33.2285 44.3296 33.1541 44.1721 33.0116C44.0146 32.8691 43.9198 32.6702 43.9084 32.4581C43.8969 32.246 43.9698 32.038 44.1111 31.8794C44.3703 31.585 44.6892 31.3491 45.0465 31.1873C45.4038 31.0254 45.7914 30.9414 46.1836 30.9407C46.2654 30.9407 46.3478 30.9439 46.4289 30.9516C46.868 30.993 47.2912 31.137 47.6644 31.3718C48.0377 31.6066 48.3507 31.9258 48.5781 32.3037C49.1369 33.2051 49.2097 34.6485 49.1028 35.6098C49.0805 35.8066 48.9863 35.9882 48.8384 36.12C48.6906 36.2517 48.4993 36.3243 48.3012 36.3238ZM46.1765 32.426C46.2139 32.426 46.2519 32.426 46.2898 32.4312C46.499 32.4528 46.7002 32.5231 46.8773 32.6364C47.0544 32.7498 47.2025 32.9031 47.3097 33.084C47.5872 33.5347 47.7211 34.5462 47.6207 35.4431C47.6104 35.6172 47.6673 35.7888 47.7797 35.9222C47.8921 36.0557 48.0515 36.1409 48.2249 36.1603C48.3983 36.1797 48.5726 36.1318 48.7117 36.0265C48.8509 35.9212 48.9443 35.7665 48.9727 35.5944C49.0777 34.6524 49.0082 33.2418 48.466 32.3668C48.2485 32.0056 47.9492 31.7005 47.5922 31.4761C47.2353 31.2517 46.8307 31.1141 46.4109 31.0746C46.333 31.0675 46.2544 31.0636 46.1765 31.0636C45.8013 31.0651 45.4307 31.1462 45.0892 31.3015C44.7476 31.4569 44.443 31.6831 44.1954 31.965C44.1354 32.0314 44.0891 32.1089 44.0591 32.1932C44.0291 32.2775 44.0159 32.3668 44.0204 32.4562C44.025 32.5455 44.047 32.6331 44.0854 32.7139C44.1238 32.7948 44.1777 32.8672 44.244 32.9272C44.3104 32.9872 44.3879 33.0335 44.4722 33.0636C44.5565 33.0936 44.6459 33.1067 44.7352 33.1022C44.8246 33.0977 44.9122 33.0756 44.993 33.0373C45.0738 32.9989 45.1463 32.945 45.2063 32.8786C45.3269 32.7383 45.476 32.6253 45.6438 32.5473C45.8116 32.4692 45.9941 32.4279 46.1791 32.426H46.1765Z" fill="#463B32"/>
<path d="M30.5537 36.253C30.4395 36.2531 30.3269 36.2268 30.2245 36.1764C30.1221 36.1259 30.0327 36.0526 29.9633 35.962C29.4096 35.2383 28.9499 34.2436 28.7928 33.4272C28.5024 31.9225 28.3968 30.3174 29.5782 28.7767C31.392 26.4119 34.7663 24.8956 37.446 26.7447C37.6082 26.8567 37.7193 27.0284 37.7549 27.2223C37.7905 27.4162 37.7476 27.6162 37.6356 27.7784C37.5237 27.9406 37.3519 28.0517 37.1581 28.0873C36.9642 28.1229 36.7642 28.08 36.6019 27.968C34.6775 26.6398 32.1543 27.8592 30.7571 29.6807C29.9761 30.6992 29.9845 31.7616 30.2517 33.1465C30.3476 33.6442 30.6605 34.4277 31.1434 35.058C31.2275 35.1681 31.2792 35.2996 31.2926 35.4375C31.306 35.5753 31.2806 35.7142 31.2193 35.8385C31.1579 35.9627 31.0631 36.0674 30.9455 36.1406C30.8279 36.2138 30.6922 36.2528 30.5537 36.253Z" fill="#463B32"/>
<path d="M30.5537 36.3129C30.43 36.3132 30.3079 36.2849 30.197 36.2302C30.086 36.1755 29.9893 36.0958 29.9143 35.9974C29.3548 35.2673 28.8913 34.259 28.7322 33.4375C28.4386 31.9174 28.333 30.2968 29.5293 28.7374C30.8917 26.9611 32.9166 25.8575 34.8133 25.8575C35.7678 25.8541 36.6999 26.1465 37.4814 26.6945C37.5684 26.7545 37.6428 26.8311 37.7002 26.9199C37.7576 27.0086 37.7969 27.1078 37.816 27.2118C37.8351 27.3158 37.8335 27.4225 37.8113 27.5258C37.7892 27.6292 37.7468 27.7271 37.6868 27.8141C37.6268 27.9011 37.5502 27.9755 37.4614 28.0329C37.3727 28.0903 37.2735 28.1297 37.1695 28.1487C37.0656 28.1678 36.9588 28.1662 36.8555 28.144C36.7521 28.1219 36.6542 28.0796 36.5672 28.0195C36.0477 27.6579 35.4289 27.466 34.796 27.4703C33.4201 27.4703 31.8542 28.353 30.8041 29.7193C30.0373 30.7192 30.047 31.7673 30.3103 33.1317C30.4049 33.6223 30.7133 34.3955 31.1904 35.0181C31.2817 35.1373 31.3378 35.2796 31.3524 35.4291C31.3671 35.5785 31.3396 35.729 31.2732 35.8636C31.2067 35.9982 31.1039 36.1116 30.9765 36.1909C30.849 36.2701 30.7019 36.3122 30.5517 36.3122L30.5537 36.3129ZM34.8133 25.9798C32.9546 25.9798 30.967 27.0654 29.6265 28.8127C28.4605 30.3335 28.5661 31.9232 28.8539 33.4143C29.0097 34.2223 29.4643 35.2068 30.0128 35.9253C30.0666 35.998 30.1343 36.0593 30.2119 36.1056C30.2896 36.1518 30.3757 36.1822 30.4653 36.1949C30.5548 36.2075 30.6459 36.2022 30.7334 36.1793C30.8208 36.1564 30.9029 36.1162 30.9747 36.0613C31.0465 36.0063 31.1066 35.9376 31.1516 35.8592C31.1965 35.7807 31.2254 35.6941 31.2366 35.6044C31.2477 35.5147 31.2409 35.4236 31.2165 35.3366C31.1921 35.2495 31.1507 35.1682 31.0945 35.0973C30.6058 34.4586 30.289 33.6635 30.1931 33.1593C29.9227 31.7577 29.915 30.6812 30.7082 29.6446C31.7783 28.2487 33.3834 27.3474 34.796 27.3474C35.454 27.3427 36.0974 27.5422 36.6373 27.9184C36.7862 28.0155 36.967 28.0505 37.1413 28.0161C37.3156 27.9817 37.4696 27.8806 37.5704 27.7343C37.6712 27.588 37.7108 27.4081 37.6808 27.2329C37.6509 27.0578 37.5537 26.9013 37.41 26.7969C36.6494 26.2634 35.7423 25.9787 34.8133 25.9818V25.9798Z" fill="#463B32"/>
<path d="M23.5718 35.4971C23.3853 35.4969 23.2058 35.4265 23.0688 35.3C22.9319 35.1734 22.8476 34.9999 22.8327 34.814C22.8168 34.5885 22.7662 34.3667 22.6827 34.1567C22.4399 33.601 21.8553 33.1909 21.2366 32.7614C21.008 32.6024 20.7717 32.4395 20.547 32.2605C19.4565 31.4178 18.5886 30.321 18.0193 29.0658C17.7045 28.3872 17.3845 27.6558 17.2274 26.8368C17.1463 26.4138 17.1971 26.05 17.2422 25.7294C17.2782 25.4686 17.3066 25.2632 17.266 25.0559C17.2279 24.8625 17.2682 24.6619 17.3781 24.4983C17.4879 24.3346 17.6582 24.2213 17.8516 24.1832C18.045 24.1451 18.2456 24.1854 18.4092 24.2952C18.5729 24.405 18.6862 24.5754 18.7243 24.7688C18.8132 25.2195 18.7584 25.6167 18.714 25.9348C18.6799 26.1814 18.6496 26.3758 18.687 26.5567C18.8119 27.2102 19.092 27.8444 19.3682 28.4406C19.8371 29.4849 20.5581 30.3964 21.4664 31.0932C21.6596 31.2433 21.8663 31.3888 22.0871 31.5439C22.8114 32.05 23.6323 32.623 24.045 33.563C24.1935 33.9238 24.2841 34.3058 24.3135 34.6949C24.3296 34.8913 24.2669 35.086 24.1394 35.2362C24.0119 35.3864 23.83 35.4798 23.6336 35.4958C23.613 35.4965 23.5924 35.4971 23.5718 35.4971Z" fill="#463B32"/>
<path d="M23.5718 35.5589C23.3701 35.5577 23.1761 35.4812 23.0279 35.3443C22.8797 35.2075 22.7881 35.0202 22.7709 34.8192C22.7558 34.6003 22.707 34.385 22.626 34.1811C22.3904 33.6416 21.8128 33.2385 21.2012 32.8123C20.9707 32.6513 20.7344 32.4865 20.5091 32.3095C19.4105 31.4604 18.5366 30.3551 17.9639 29.0902C17.6472 28.4084 17.3246 27.6738 17.1669 26.8471C17.0838 26.4144 17.1353 26.0449 17.181 25.7191C17.2164 25.4615 17.2454 25.2632 17.2055 25.0669C17.1642 24.8574 17.2077 24.6402 17.3266 24.4628C17.4455 24.2855 17.6299 24.1627 17.8394 24.1214C18.0488 24.0801 18.2661 24.1236 18.4434 24.2425C18.6207 24.3614 18.7435 24.5458 18.7848 24.7552C18.8763 25.2195 18.8203 25.6199 18.7752 25.9419C18.7411 26.1833 18.7147 26.3732 18.7475 26.5438C18.8711 27.1877 19.1493 27.8219 19.4242 28.411C19.8882 29.4479 20.6032 30.3529 21.5044 31.0443C21.6918 31.1924 21.8978 31.336 22.1161 31.4879C22.8533 32.003 23.6826 32.5825 24.1004 33.5366C24.252 33.9037 24.3446 34.2925 24.3747 34.6885C24.3916 34.9012 24.3235 35.112 24.1854 35.2747C24.0472 35.4374 23.8502 35.5386 23.6375 35.5564C23.6162 35.5577 23.5944 35.5589 23.5718 35.5589ZM17.9968 24.2305C17.952 24.2308 17.9074 24.2353 17.8635 24.244C17.686 24.2792 17.5298 24.3834 17.4291 24.5337C17.3284 24.684 17.2915 24.8681 17.3265 25.0456C17.3697 25.2619 17.3407 25.4712 17.3034 25.7365C17.2589 26.0584 17.2087 26.4138 17.2885 26.8265C17.4437 27.639 17.7624 28.3659 18.0753 29.0407C18.6409 30.2873 19.503 31.3766 20.5863 32.2135C20.8091 32.3887 21.0441 32.5522 21.2714 32.7112C21.8985 33.149 22.4902 33.5617 22.74 34.1328C22.8258 34.3496 22.8779 34.5782 22.8945 34.8108C22.9092 34.9909 22.9948 35.1579 23.1326 35.2749C23.2704 35.3919 23.449 35.4494 23.6291 35.4347C23.8093 35.42 23.9762 35.3343 24.0932 35.1966C24.2102 35.0588 24.2677 34.8802 24.253 34.7001C24.2239 34.3176 24.1346 33.9421 23.9884 33.5875C23.5847 32.6642 22.7709 32.0957 22.0524 31.5948C21.827 31.4377 21.619 31.2928 21.4291 31.1441C20.5134 30.4406 19.787 29.5204 19.3154 28.4664C19.0372 27.8682 18.7559 27.2289 18.6297 26.5683C18.593 26.3752 18.6207 26.182 18.6554 25.9277C18.6999 25.6135 18.7539 25.224 18.667 24.781C18.6363 24.6258 18.5527 24.4861 18.4305 24.3857C18.3082 24.2853 18.155 24.2305 17.9968 24.2305Z" fill="#463B32"/>
<path d="M27.4445 35.7978C27.32 35.7976 27.1974 35.7662 27.0882 35.7063C26.9789 35.6464 26.8865 35.56 26.8193 35.4551C26.7521 35.3502 26.7124 35.2301 26.7037 35.1058C26.6951 34.9815 26.7178 34.8571 26.7698 34.7438C26.9611 34.3283 27.1252 33.9007 27.261 33.4639C27.357 33.1555 27.4149 32.4537 27.3396 31.8543C27.321 31.6617 27.3783 31.4694 27.4992 31.3183C27.62 31.1672 27.7951 31.0692 27.987 31.0451C28.179 31.021 28.3729 31.0726 28.5274 31.1891C28.6819 31.3055 28.785 31.4776 28.8146 31.6688C28.9093 32.426 28.8539 33.3428 28.6801 33.903C28.5247 34.4008 28.3373 34.8882 28.1193 35.3619C28.0605 35.4917 27.9656 35.6017 27.846 35.679C27.7263 35.7563 27.587 35.7975 27.4445 35.7978Z" fill="#463B32"/>
<path d="M27.4445 35.8622C27.3096 35.862 27.1769 35.8279 27.0586 35.763C26.9403 35.6982 26.8401 35.6046 26.7674 35.491C26.6947 35.3774 26.6516 35.2473 26.6423 35.1127C26.6329 34.9781 26.6575 34.8433 26.7138 34.7207C26.9035 34.3075 27.0666 33.8825 27.2018 33.4484C27.2965 33.1458 27.3525 32.4556 27.2784 31.8671C27.2519 31.6553 27.3106 31.4416 27.4416 31.2731C27.5726 31.1045 27.7652 30.9949 27.977 30.9683C28.1888 30.9418 28.4025 31.0005 28.5711 31.1315C28.7396 31.2625 28.8493 31.4551 28.8758 31.6669C28.9717 32.4324 28.9151 33.3615 28.7387 33.9268C28.583 34.4274 28.395 34.9173 28.1759 35.3935C28.1114 35.5332 28.0082 35.6515 27.8787 35.7346C27.7491 35.8176 27.5985 35.8619 27.4445 35.8622ZM28.0794 31.0855C28.0503 31.0855 28.0213 31.0875 27.9925 31.0913C27.8132 31.114 27.6503 31.2068 27.5395 31.3495C27.4286 31.4922 27.379 31.6731 27.4014 31.8523C27.4767 32.4569 27.4181 33.1703 27.3203 33.4851C27.1836 33.9246 27.0184 34.3548 26.8258 34.7728C26.7502 34.937 26.743 35.1245 26.8057 35.294C26.8683 35.4635 26.9958 35.6012 27.16 35.6768C27.3242 35.7523 27.5116 35.7596 27.6811 35.6969C27.8507 35.6342 27.9884 35.5068 28.0639 35.3426C28.2805 34.8711 28.4666 34.3862 28.6208 33.8907C28.7921 33.3403 28.8468 32.4324 28.7528 31.683C28.7332 31.518 28.6539 31.3659 28.5298 31.2554C28.4057 31.1448 28.2455 31.0835 28.0794 31.0829V31.0855Z" fill="#463B32"/>
<path d="M34.0742 50.9281C33.409 50.9229 32.747 50.8364 32.1028 50.6706C31.7737 50.5882 30.9155 50.3017 29.3001 49.7596C26.2315 48.7294 19.0469 46.3163 17.9955 46.4624C17.324 46.5558 16.4973 46.8172 15.5392 47.2389C15.3585 47.3187 15.1534 47.3235 14.9692 47.2521C14.7849 47.1808 14.6365 47.0392 14.5567 46.8584C14.4769 46.6777 14.4721 46.4726 14.5435 46.2883C14.6148 46.1041 14.7565 45.9557 14.9372 45.8759C16.0221 45.3988 16.9814 45.1033 17.7895 44.988C18.9522 44.8271 23.0632 46.098 29.7708 48.3483C31.0584 48.7809 32.1736 49.1544 32.4607 49.2265C33.7484 49.5484 34.5307 49.4196 34.6459 49.3997C36.5601 48.7964 38.6468 46.982 41.5299 44.4749C42.9335 43.2516 44.5244 41.8705 46.4032 40.3543C47.3342 39.6029 48.1557 38.9462 48.833 38.4054C49.7042 37.7087 50.4697 37.0971 50.7304 36.8692C50.7426 36.7503 50.7115 36.6309 50.6429 36.5331C50.4497 36.2646 49.9347 36.1191 49.2341 36.1307C47.7578 36.1571 42.7661 39.2784 38.5979 42.3483C37.2458 43.3462 36.4996 44.0738 36.4931 44.0809C36.3529 44.2193 36.1633 44.2964 35.9662 44.2952C35.7691 44.2939 35.5805 44.2144 35.442 44.0741C35.3036 43.9338 35.2265 43.7443 35.2277 43.5472C35.229 43.35 35.3085 43.1615 35.4488 43.023C35.4816 42.9908 36.2659 42.2201 37.7164 41.152C39.7767 39.637 46.682 34.6904 49.2071 34.6453H49.3179C51.185 34.6453 51.8379 35.5177 52.0619 36.0444C52.3343 36.6882 52.2454 37.4609 51.8546 37.8536C51.6614 38.0468 51.0743 38.5174 49.7608 39.5675C49.0848 40.1077 48.2658 40.7618 47.3361 41.5119C45.4793 43.0108 43.8986 44.3854 42.5073 45.5971C39.4728 48.2369 37.2799 50.1433 35.058 50.8303L35.0232 50.8399C34.7115 50.9066 34.3929 50.9362 34.0742 50.9281Z" fill="#9C6137" fill-opacity="0.69"/>
<path d="M34.0742 50.9925C33.4038 50.9852 32.7368 50.8963 32.0879 50.7279C31.7551 50.6448 30.8968 50.3577 29.2808 49.8156L29.2164 49.7937C26.2934 48.8131 19.4474 46.5159 18.1062 46.5159C18.0729 46.5154 18.0395 46.5171 18.0064 46.521C17.3401 46.6137 16.5192 46.8732 15.5663 47.2936C15.372 47.3731 15.1543 47.3736 14.9597 47.295C14.7651 47.2164 14.6088 47.0649 14.5242 46.8727C14.4396 46.6806 14.4334 46.4631 14.5068 46.2664C14.5802 46.0698 14.7275 45.9096 14.9173 45.8199C16.0067 45.3409 16.9718 45.0402 17.7849 44.9275C18.9658 44.7627 23.0291 46.0221 29.7946 48.2903C31.0881 48.7243 32.1961 49.0958 32.48 49.1672C33.0007 49.3034 33.536 49.3758 34.0742 49.3829C34.2627 49.3862 34.451 49.3722 34.6369 49.3411C36.5324 48.7429 38.6127 46.9337 41.4913 44.4298C42.8987 43.2065 44.489 41.8235 46.3665 40.3092C47.2981 39.5579 48.1197 38.9018 48.797 38.3603C49.6539 37.6753 50.3969 37.0816 50.6731 36.8421C50.6782 36.746 50.6507 36.651 50.5952 36.5724C50.4175 36.3232 49.9224 36.186 49.2374 36.1957C47.7746 36.2221 42.7989 39.3377 38.6365 42.4011C37.2876 43.3952 36.5459 44.1208 36.5382 44.1279C36.3855 44.2738 36.1816 44.3538 35.9704 44.3508C35.7592 44.3477 35.5577 44.2617 35.4094 44.1114C35.261 43.9611 35.1777 43.7585 35.1773 43.5473C35.177 43.3361 35.2597 43.1332 35.4076 42.9825C35.4404 42.9496 36.2304 42.1744 37.6823 41.105C39.7426 39.5875 46.6646 34.6325 49.2071 34.5867C51.1972 34.5494 51.8881 35.4752 52.1199 36.0225C52.4019 36.685 52.3072 37.4924 51.8997 37.8993C51.7065 38.0925 51.1168 38.5657 49.8001 39.6171C49.1241 40.1579 48.3057 40.8121 47.3767 41.5621C45.5224 43.0584 43.9437 44.4311 42.5517 45.6415C39.5063 48.2897 37.3102 50.2 35.0754 50.8908L35.0367 50.9017C34.7206 50.9697 34.3975 51.0001 34.0742 50.9925ZM18.1069 46.3923C19.468 46.3923 26.0796 48.6103 29.2563 49.6759L29.3207 49.6978C30.9335 50.2392 31.7905 50.5257 32.1182 50.6075C32.7575 50.7733 33.4145 50.8609 34.0748 50.8683C34.3885 50.8753 34.7019 50.845 35.0084 50.7781L35.0406 50.7691C37.2503 50.086 39.4387 48.1828 42.4673 45.5488C43.8651 44.3332 45.4445 42.9599 47.3007 41.4617C48.2298 40.7123 49.0494 40.0575 49.7254 39.5173C51.0382 38.4678 51.626 37.9965 51.8147 37.8079C52.1881 37.4345 52.2712 36.6857 52.0078 36.0695C51.787 35.5506 51.1335 34.673 49.211 34.7084C46.7038 34.7535 39.8109 39.6911 37.7557 41.2035C36.3109 42.2678 35.5274 43.0365 35.4945 43.0707C35.3725 43.199 35.3053 43.3697 35.307 43.5467C35.3088 43.7237 35.3793 43.8931 35.5038 44.019C35.6282 44.1449 35.7968 44.2173 35.9738 44.2211C36.1508 44.2248 36.3223 44.1595 36.4519 44.039C36.4584 44.0326 37.2046 43.3018 38.5631 42.3006C42.7397 39.225 47.7462 36.0978 49.2354 36.0708C49.9694 36.0586 50.4909 36.2118 50.6957 36.499C50.7735 36.609 50.8085 36.7436 50.7942 36.8775C50.7923 36.8929 50.785 36.9071 50.7736 36.9175C50.5109 37.1473 49.7524 37.7545 48.8742 38.4556C48.1963 38.9964 47.3754 39.6525 46.4444 40.4045C44.5682 41.9182 42.9792 43.3018 41.5763 44.52C38.679 47.0374 36.5936 48.853 34.6672 49.4608C34.4714 49.4946 34.2729 49.5099 34.0742 49.5065C33.5258 49.499 32.9804 49.4251 32.4498 49.2863C32.1607 49.2142 31.0501 48.8414 29.765 48.4101C23.5531 46.3259 19.4261 45.0363 18.02 45.0363C17.947 45.0358 17.8741 45.0401 17.8017 45.0492C16.9988 45.1606 16.0453 45.458 14.9688 45.9326C14.826 45.9959 14.7094 46.1063 14.6383 46.2453C14.5672 46.3843 14.5459 46.5435 14.5781 46.6963C14.6103 46.8491 14.694 46.9863 14.8151 47.0848C14.9362 47.1833 15.0875 47.2373 15.2437 47.2376C15.3382 47.2377 15.4316 47.218 15.518 47.1797C16.4837 46.7554 17.3137 46.4927 17.991 46.3987C18.0286 46.3941 18.0664 46.392 18.1043 46.3923H18.1069Z" fill="#9C6137" fill-opacity="0.69"/>
<path d="M13.4345 48.3392C13.0482 48.3392 12.8331 48.0173 12.8216 47.9967C12.7816 47.9323 12.4513 47.3728 13.1255 46.9125C13.2097 46.8594 13.3037 46.8236 13.4019 46.8073C13.5001 46.7909 13.6006 46.7942 13.6975 46.8171C13.7944 46.84 13.8858 46.8819 13.9664 46.9405C14.0469 46.9991 14.115 47.0731 14.1666 47.1582C14.2182 47.2433 14.2524 47.3379 14.2671 47.4364C14.2818 47.5349 14.2768 47.6353 14.2522 47.7318C14.2277 47.8283 14.1842 47.919 14.1243 47.9985C14.0644 48.078 13.9892 48.1448 13.9032 48.195C13.763 48.2848 13.6009 48.3347 13.4345 48.3392Z" fill="#9C6137" fill-opacity="0.69"/>
<path d="M13.4345 48.4011C13.0199 48.4011 12.7939 48.0682 12.7694 48.0302C12.7263 47.962 12.3696 47.3542 13.0913 46.861C13.2474 46.7547 13.4359 46.7067 13.6238 46.7252C13.8117 46.7438 13.9871 46.8278 14.1194 46.9625C14.2516 47.0972 14.3324 47.2742 14.3475 47.4624C14.3626 47.6506 14.3111 47.8381 14.202 47.9922C14.135 48.0979 14.0438 48.1862 13.9361 48.2498C13.7857 48.3447 13.6123 48.397 13.4345 48.4011ZM13.544 46.8442C13.406 46.8436 13.2713 46.8852 13.1576 46.9633C12.5486 47.3818 12.8125 47.8699 12.8769 47.9665C12.8847 47.9787 13.0823 48.28 13.4377 48.28C13.5929 48.2749 13.7439 48.2282 13.8749 48.1448C13.9666 48.0905 14.0443 48.0152 14.1015 47.9253C14.1744 47.8233 14.2178 47.7033 14.2269 47.5784C14.2361 47.4534 14.2106 47.3284 14.1533 47.2169C14.096 47.1055 14.0092 47.012 13.9022 46.9467C13.7953 46.8814 13.6725 46.8469 13.5472 46.8468L13.544 46.8442Z" fill="#9C6137" fill-opacity="0.69"/>
<path d="M34.2319 42.0122C31.4383 42.0122 28.2442 41.8834 27.2849 41.8454C27.1874 41.8412 27.0917 41.8178 27.0032 41.7766C26.9148 41.7354 26.8353 41.6772 26.7694 41.6052C26.7034 41.5333 26.6523 41.4491 26.6189 41.3574C26.5855 41.2657 26.5705 41.1684 26.5747 41.0709C26.5789 40.9734 26.6023 40.8777 26.6435 40.7893C26.6848 40.7008 26.743 40.6213 26.8149 40.5554C26.8868 40.4895 26.971 40.4383 27.0627 40.4049C27.1544 40.3715 27.2518 40.3565 27.3493 40.3607C31.3198 40.5294 37.2999 40.6324 38.1658 40.3324C38.6629 40.1605 38.9597 39.6345 38.9597 38.9256C38.9597 38.3294 38.2515 37.9772 37.9386 37.8504C36.9947 37.5407 24.5144 35.396 22.0472 35.9755C20.8522 36.2556 17.3761 37.7248 14.652 38.972C14.4727 39.0539 14.2682 39.0613 14.0835 38.9925C13.8987 38.9237 13.7489 38.7843 13.6669 38.605C13.585 38.4257 13.5776 38.2212 13.6464 38.0364C13.7152 37.8517 13.8546 37.7019 14.0339 37.6199C14.6263 37.3488 19.8768 34.9576 21.7079 34.5294C24.6548 33.8386 37.6405 36.1313 38.4813 36.4674C39.7297 36.967 40.4457 37.8633 40.4457 38.9262C40.4457 40.2783 39.7587 41.3542 38.6526 41.7373C38.0435 41.9465 36.2427 42.0122 34.2319 42.0122Z" fill="#9C6137" fill-opacity="0.69"/>
<path d="M34.2319 42.074C31.4254 42.074 28.2023 41.9452 27.2823 41.9066C27.1766 41.9024 27.0728 41.8774 26.9768 41.833C26.8807 41.7887 26.7944 41.7258 26.7226 41.6481C26.6509 41.5704 26.5952 41.4793 26.5586 41.38C26.5221 41.2808 26.5055 41.1753 26.5097 41.0696C26.5139 40.9639 26.5389 40.8601 26.5833 40.7641C26.6276 40.668 26.6904 40.5817 26.7682 40.5099C26.8459 40.4382 26.937 40.3825 27.0362 40.3459C27.1355 40.3094 27.241 40.2928 27.3467 40.297C29.7109 40.3974 32.4144 40.4599 34.4026 40.4599C36.4938 40.4599 37.786 40.3955 38.1369 40.2725C38.6075 40.109 38.8882 39.6049 38.8882 38.9237C38.8882 38.3629 38.2019 38.0223 37.9064 37.9051C37.0597 37.6283 27.225 35.9362 23.2943 35.9362C22.7451 35.9362 22.3286 35.9691 22.0523 36.0335C20.8606 36.3129 17.3896 37.7808 14.6687 39.026C14.5638 39.0746 14.4496 39.0997 14.3339 39.0994C14.1501 39.0997 13.9718 39.037 13.8285 38.9218C13.6853 38.8066 13.5858 38.6458 13.5466 38.4663C13.5074 38.2867 13.5309 38.0991 13.6131 37.9347C13.6953 37.7703 13.8313 37.639 13.9985 37.5626C14.5921 37.2909 19.8465 34.8977 21.6847 34.4663C22.0543 34.3794 22.599 34.3376 23.3033 34.3376C27.8778 34.3376 37.7621 36.1165 38.4981 36.4095C39.7709 36.9187 40.5011 37.8362 40.5011 38.9256C40.5011 40.3034 39.7986 41.4031 38.6674 41.7952C38.1362 41.9787 36.6431 42.074 34.2319 42.074ZM27.3177 40.4219C27.1395 40.4217 26.9684 40.4914 26.841 40.6159C26.7136 40.7404 26.64 40.9098 26.636 41.0879C26.6321 41.2661 26.698 41.4386 26.8198 41.5687C26.9416 41.6987 27.1095 41.7759 27.2874 41.7836C28.2075 41.8223 31.4274 41.9504 34.2319 41.9504C36.629 41.9504 38.1085 41.859 38.6288 41.678C39.7091 41.304 40.3794 40.2493 40.3794 38.9256C40.3794 37.889 39.6782 37.0134 38.4543 36.5241C37.7242 36.2324 27.8721 34.4638 23.3085 34.4638C22.6138 34.4638 22.0787 34.5069 21.7182 34.5925C19.8916 35.0207 14.6475 37.41 14.0565 37.683C13.9153 37.748 13.8006 37.8592 13.7313 37.9983C13.662 38.1373 13.6422 38.2959 13.6754 38.4477C13.7085 38.5995 13.7925 38.7355 13.9134 38.833C14.0344 38.9306 14.185 38.9839 14.3404 38.9842C14.4384 38.9836 14.5351 38.9617 14.6237 38.9198C17.3504 37.6714 20.831 36.2002 22.0279 35.9189C22.3118 35.8545 22.7393 35.8184 23.2982 35.8184C27.2379 35.8184 37.099 37.5156 37.9521 37.795C38.274 37.9238 39.0157 38.294 39.0157 38.9295C39.0157 39.666 38.7034 40.2139 38.1787 40.3949C37.8072 40.5236 36.5369 40.588 34.4019 40.588C32.4124 40.588 29.7064 40.5236 27.3415 40.4245L27.3177 40.4219Z" fill="#9C6137" fill-opacity="0.69"/>
<path d="M12.4063 39.9532C12.2512 39.9552 12.0994 39.9088 11.9719 39.8206C11.8444 39.7323 11.7475 39.6065 11.6948 39.4606C11.671 39.3963 11.4817 38.8033 12.1655 38.4871C12.254 38.4462 12.3498 38.423 12.4473 38.4191C12.5448 38.4151 12.6422 38.4304 12.7338 38.4641C12.8253 38.4977 12.9094 38.5491 12.9812 38.6153C13.0529 38.6814 13.1109 38.7611 13.1519 38.8496C13.1803 38.9126 13.2005 38.9791 13.2117 39.0473C13.2504 39.2336 13.2161 39.4277 13.1158 39.5895C13.0155 39.7512 12.857 39.8683 12.6728 39.9165C12.5859 39.94 12.4963 39.9523 12.4063 39.9532Z" fill="#9C6137" fill-opacity="0.69"/>
<path d="M12.4063 40.015C12.238 40.0178 12.073 39.968 11.9345 39.8724C11.7959 39.7768 11.6907 39.6402 11.6337 39.4819C11.6079 39.4098 11.4032 38.7698 12.1365 38.4311C12.2422 38.3819 12.3573 38.3564 12.4739 38.3564C12.6716 38.3603 12.8614 38.4349 13.0088 38.5668C13.1562 38.6987 13.2513 38.8791 13.277 39.0752C13.3026 39.2713 13.257 39.4701 13.1485 39.6355C13.04 39.8009 12.8758 39.9218 12.6857 39.9764C12.5946 40.0011 12.5007 40.014 12.4063 40.015ZM12.4765 38.4794C12.3778 38.4795 12.2804 38.5015 12.1912 38.5438C11.5577 38.8368 11.7309 39.3808 11.7528 39.4407C11.8013 39.5745 11.8903 39.6898 12.0074 39.7706C12.1246 39.8514 12.264 39.8936 12.4063 39.8914C12.4911 39.8906 12.5755 39.879 12.6574 39.8566C12.8263 39.8125 12.9718 39.7052 13.0637 39.5568C13.1556 39.4084 13.1869 39.2304 13.1512 39.0595C13.1412 38.9959 13.1226 38.934 13.0958 38.8754C13.0408 38.7574 12.9534 38.6575 12.8437 38.5874C12.734 38.5173 12.6066 38.4798 12.4765 38.4794Z" fill="#9C6137" fill-opacity="0.69"/>
<path d="M35.8705 44.1929C35.7144 44.193 35.5623 44.1436 35.4359 44.0519C34.7058 43.5239 32.7369 42.4655 31.6051 41.9916C31.515 41.954 31.4333 41.899 31.3645 41.8298C31.2957 41.7605 31.2412 41.6784 31.2041 41.5882C31.1293 41.4058 31.1299 41.2012 31.2059 41.0194C31.2819 40.8375 31.427 40.6933 31.6093 40.6184C31.7916 40.5436 31.9962 40.5442 32.1781 40.6202C33.2977 41.0883 35.4231 42.2079 36.3064 42.8473C36.4337 42.9393 36.5285 43.0693 36.5772 43.2187C36.626 43.368 36.6262 43.5289 36.5777 43.6783C36.5293 43.8277 36.4348 43.958 36.3077 44.0503C36.1807 44.1426 36.0276 44.1923 35.8705 44.1922V44.1929Z" fill="#9C6137" fill-opacity="0.69"/>
<path d="M35.8705 44.2547C35.7015 44.2549 35.5367 44.2015 35.3999 44.1021C34.6723 43.5754 32.7093 42.5208 31.5812 42.0495C31.4836 42.0088 31.3949 41.9492 31.3203 41.8742C31.2457 41.7991 31.1865 41.7102 31.1463 41.6123C31.1061 41.5144 31.0855 41.4096 31.0858 41.3038C31.0861 41.1979 31.1072 41.0932 31.1479 40.9956C31.1887 40.8979 31.2483 40.8092 31.3233 40.7346C31.3983 40.66 31.4873 40.6009 31.5852 40.5606C31.683 40.5204 31.7879 40.4998 31.8937 40.5001C31.9995 40.5004 32.1042 40.5215 32.2019 40.5623C33.3248 41.0316 35.4565 42.1545 36.3431 42.7957C36.481 42.8955 36.5838 43.0364 36.6367 43.1982C36.6895 43.36 36.6897 43.5344 36.6371 43.6963C36.5846 43.8582 36.4821 43.9993 36.3444 44.0993C36.2066 44.1992 36.0407 44.253 35.8705 44.2528V44.2547ZM31.8916 40.6266C31.7339 40.6263 31.5811 40.6807 31.459 40.7805C31.337 40.8803 31.2534 41.0194 31.2224 41.1739C31.1914 41.3285 31.215 41.489 31.2891 41.6281C31.3632 41.7673 31.4833 41.8764 31.6289 41.9369C32.7627 42.4107 34.7387 43.4731 35.472 44.003C35.5445 44.0554 35.6266 44.093 35.7137 44.1137C35.8007 44.1344 35.891 44.1377 35.9793 44.1235C36.0676 44.1093 36.1523 44.0779 36.2285 44.0309C36.3047 43.984 36.3708 43.9225 36.4233 43.85C36.4757 43.7775 36.5133 43.6954 36.534 43.6084C36.5547 43.5213 36.558 43.4311 36.5438 43.3427C36.5296 43.2544 36.4982 43.1697 36.4512 43.0935C36.4043 43.0174 36.3429 42.9512 36.2704 42.8988C35.3902 42.2626 33.2713 41.1462 32.1543 40.6794C32.0711 40.6444 31.9818 40.6265 31.8916 40.6266Z" fill="#9C6137" fill-opacity="0.69"/>
<path d="M45.3106 19.6592C45.1492 19.6594 44.9922 19.6071 44.8632 19.5101C44.7342 19.4132 44.6403 19.2769 44.5957 19.1218C44.551 18.9668 44.558 18.8014 44.6157 18.6507C44.6734 18.5 44.7785 18.3722 44.9152 18.2865C46.1237 17.5294 48.9521 15.7562 49.068 13.6335C49.1234 12.6239 48.2478 11.568 47.3007 11.5017C47.02 11.4824 46.7792 11.5049 46.6388 11.5661C46.1881 11.7593 45.8153 12.0735 45.7696 12.1971C45.7441 12.2926 45.6999 12.382 45.6394 12.4602C45.5789 12.5383 45.5034 12.6037 45.4174 12.6523C45.3313 12.7009 45.2364 12.7319 45.1383 12.7434C45.0401 12.7549 44.9406 12.7467 44.8457 12.7193C44.7507 12.6919 44.6622 12.6458 44.5853 12.5838C44.5084 12.5217 44.4446 12.4449 44.3977 12.3579C44.3508 12.2709 44.3217 12.1754 44.3122 12.0771C44.3027 11.9787 44.3129 11.8794 44.3422 11.785C44.6088 10.8553 45.8186 10.3003 46.0587 10.1979C46.4231 10.0434 46.8751 9.98418 47.4044 10.0209C49.1511 10.1432 50.6513 11.9048 50.5515 13.7159C50.413 16.2649 48.0231 18.094 45.704 19.5472C45.5861 19.6212 45.4497 19.66 45.3106 19.6592Z" fill="#9C6137" fill-opacity="0.69"/>
<path d="M45.3106 19.721C45.1359 19.7212 44.9659 19.6644 44.8262 19.5594C44.6866 19.4544 44.585 19.3068 44.5366 19.139C44.4883 18.9711 44.4958 18.792 44.5582 18.6288C44.6206 18.4657 44.7344 18.3272 44.8824 18.2344C46.0825 17.4824 48.8923 15.7234 49.0062 13.6296C49.0597 12.651 48.213 11.6273 47.2962 11.5635C47.0264 11.5442 46.792 11.5667 46.6633 11.6215C46.2171 11.8108 45.8643 12.1185 45.8263 12.2164C45.7775 12.3836 45.6759 12.5304 45.5366 12.6349C45.3972 12.7394 45.2278 12.7958 45.0537 12.7958C44.9786 12.7958 44.9038 12.7854 44.8315 12.7649C44.6265 12.7055 44.4533 12.5673 44.3499 12.3805C44.2465 12.1937 44.2213 11.9736 44.2798 11.7683C44.5547 10.8115 45.7877 10.2449 46.0317 10.1413C46.4045 9.98353 46.8687 9.92173 47.4056 9.95971C49.1839 10.084 50.7118 11.8758 50.6107 13.7198C50.4703 16.2951 48.0669 18.1378 45.7349 19.6C45.6075 19.6793 45.4605 19.7212 45.3106 19.721ZM47.1133 11.4328C47.1777 11.4328 47.2421 11.4328 47.3065 11.4399C48.2845 11.5082 49.1878 12.5988 49.1305 13.6367C49.0133 15.7923 46.1688 17.5764 44.9494 18.3368C44.7963 18.4327 44.6876 18.5856 44.6472 18.7617C44.6068 18.9378 44.638 19.1227 44.734 19.2758C44.83 19.4289 44.9828 19.5376 45.1589 19.578C45.335 19.6184 45.52 19.5871 45.673 19.4912C47.9787 18.0464 50.3538 16.2288 50.4916 13.7088C50.5888 11.9292 49.1163 10.1986 47.4011 10.0788C46.886 10.0428 46.4354 10.1014 46.0838 10.2514C45.8488 10.3512 44.6616 10.8952 44.4027 11.7966C44.3779 11.8827 44.3703 11.9729 44.3804 12.0619C44.3904 12.1509 44.4179 12.2371 44.4613 12.3155C44.5206 12.4217 44.6071 12.5103 44.7118 12.572C44.8166 12.6338 44.9359 12.6666 45.0575 12.6671C45.2051 12.6666 45.3486 12.6183 45.4665 12.5296C45.5844 12.4408 45.6704 12.3162 45.7117 12.1745C45.7703 12.0149 46.1772 11.6904 46.6131 11.5036C46.7729 11.4486 46.9419 11.4246 47.1107 11.4328H47.1133Z" fill="#9C6137" fill-opacity="0.69"/>
<path d="M45.0215 19.6592C44.8822 19.6593 44.7458 19.6198 44.6281 19.5453C42.8028 18.4011 39.7471 16.487 39.5945 13.7146C39.4954 11.9022 40.9962 10.1413 42.7429 10.0189C43.2715 9.98225 43.7235 10.0421 44.0879 10.196C44.3281 10.2984 45.5385 10.8534 45.805 11.7831C45.8539 11.9706 45.8277 12.1698 45.7318 12.3382C45.6359 12.5066 45.4781 12.6309 45.2919 12.6845C45.1057 12.7382 44.9059 12.717 44.7351 12.6255C44.5643 12.5339 44.436 12.3793 44.3776 12.1945C44.3306 12.0702 43.9611 11.7567 43.5072 11.5642C43.3674 11.5049 43.1273 11.4824 42.8466 11.4998C41.8995 11.5642 41.0232 12.622 41.0786 13.6316C41.1887 15.6346 43.8355 17.2931 45.4168 18.2846C45.5535 18.3703 45.6587 18.4981 45.7163 18.6488C45.774 18.7995 45.781 18.9649 45.7364 19.1199C45.6917 19.275 45.5978 19.4113 45.4688 19.5082C45.3399 19.6052 45.1828 19.6575 45.0215 19.6573V19.6592Z" fill="#9C6137" fill-opacity="0.69"/>
<path d="M45.0215 19.721C44.8707 19.721 44.7229 19.6784 44.5953 19.5981C42.7597 18.4475 39.6872 16.5218 39.5327 13.7178C39.4323 11.8739 40.9601 10.082 42.7384 9.95778C43.2754 9.91979 43.7396 9.9816 44.1117 10.1393C44.3564 10.243 45.5926 10.8102 45.8649 11.7663C45.9234 11.9715 45.8981 12.1915 45.7947 12.378C45.6913 12.5646 45.5181 12.7026 45.3131 12.7617C45.2409 12.7824 45.1662 12.793 45.091 12.7933C44.917 12.7926 44.7479 12.7359 44.6087 12.6315C44.4695 12.5272 44.3677 12.3807 44.3184 12.2138C44.2817 12.1172 43.9353 11.8146 43.4814 11.6228C43.3526 11.5687 43.1196 11.5461 42.8492 11.5655C41.9323 11.6298 41.085 12.6529 41.1378 13.6316C41.2466 15.603 43.8761 17.2506 45.4471 18.2357C45.5953 18.3283 45.7094 18.4668 45.772 18.63C45.8346 18.7933 45.8423 18.9725 45.794 19.1405C45.7457 19.3085 45.644 19.4563 45.5043 19.5614C45.3645 19.6664 45.1944 19.7232 45.0196 19.723L45.0215 19.721ZM43.0391 10.0705C42.9451 10.0705 42.8459 10.0737 42.7474 10.0808C41.0322 10.2005 39.5591 11.9312 39.657 13.7107C39.8076 16.4516 42.8459 18.3554 44.6609 19.4931C44.814 19.5892 44.999 19.6205 45.1752 19.5801C45.3513 19.5398 45.5042 19.4312 45.6003 19.2781C45.6964 19.125 45.7277 18.94 45.6873 18.7638C45.647 18.5877 45.5383 18.4347 45.3853 18.3387C43.7924 17.3407 41.1294 15.6713 41.0174 13.6386C40.9608 12.5982 41.8647 11.5101 42.8434 11.4418C43.1376 11.4219 43.3835 11.4463 43.5323 11.5062C43.9701 11.6917 44.3776 12.0161 44.4337 12.1713C44.4743 12.3139 44.5602 12.4395 44.6784 12.529C44.7967 12.6186 44.9408 12.6673 45.0891 12.6677C45.1526 12.6678 45.2159 12.6591 45.2771 12.642C45.3631 12.6173 45.4434 12.5759 45.5134 12.5202C45.5834 12.4645 45.6417 12.3955 45.6851 12.3173C45.7284 12.239 45.7559 12.153 45.766 12.0641C45.7761 11.9752 45.7686 11.8852 45.7439 11.7992C45.4863 10.8978 44.2972 10.3518 44.0615 10.2539C43.7363 10.1254 43.3887 10.063 43.0391 10.0705Z" fill="#9C6137" fill-opacity="0.69"/>
<path d="M7.25871 56.97V56.224H5.69299V61.8773H7.33227V59.2083C7.33227 58.1259 7.93123 57.632 8.83494 57.632C8.96103 57.632 9.06612 57.6426 9.20272 57.6531V56.1399C8.33054 56.1399 7.65802 56.4236 7.25871 56.97Z" fill="#463B32"/>
<path d="M14.2746 56.224V59.0191C14.2746 60.0594 13.7282 60.5428 12.9716 60.5428C12.2466 60.5428 11.8262 60.1225 11.8262 59.1768V56.224H10.187V59.4184C10.187 61.1628 11.1852 61.9614 12.6038 61.9614C13.2974 61.9614 13.9279 61.6987 14.3587 61.2048V61.8773H15.9139V56.224H14.2746Z" fill="#463B32"/>
<path d="M22.9704 59.0717C22.9704 57.2538 21.6884 56.1399 20.0281 56.1399C18.3048 56.1399 17.0123 57.3588 17.0123 59.0506C17.0123 60.732 18.2838 61.9614 20.2383 61.9614C21.2576 61.9614 22.0457 61.6462 22.5711 61.0472L21.6989 60.1015C21.3101 60.4693 20.8793 60.6479 20.2803 60.6479C19.4186 60.6479 18.8197 60.2171 18.6621 59.513H22.9389C22.9494 59.3764 22.9704 59.1978 22.9704 59.0717ZM20.0386 57.3798C20.7742 57.3798 21.3101 57.8422 21.4257 58.5568H18.641C18.7566 57.8317 19.2925 57.3798 20.0386 57.3798Z" fill="#463B32"/>
<path d="M24.0618 61.8773H25.7011V54.0803H24.0618V61.8773Z" fill="#463B32"/>
<path d="M30.8379 60.4482C30.6593 60.5848 30.4176 60.6584 30.1759 60.6584C29.7346 60.6584 29.4718 60.3957 29.4718 59.9123V57.611H30.8799V56.35H29.4718V54.9735H27.8326V56.35H26.9604V57.611H27.8326V59.9333C27.8326 61.2784 28.6102 61.9614 29.9447 61.9614C30.4491 61.9614 30.943 61.8458 31.2793 61.6041L30.8379 60.4482Z" fill="#463B32"/>
<path d="M36.132 56.224L34.5347 60.0594L32.948 56.224H31.2562L33.7046 61.9194L33.6836 61.9719C33.4629 62.4763 33.2107 62.676 32.7589 62.676C32.4331 62.676 32.0863 62.5394 31.8341 62.3187L31.2352 63.4851C31.603 63.8109 32.2334 64 32.8114 64C33.8307 64 34.6083 63.5902 35.1547 62.2241L37.7082 56.224H36.132Z" fill="#463B32"/>
<path d="M43.15 56.1084C43.15 55.5514 43.4127 55.2887 43.896 55.2887C44.1482 55.2887 44.3794 55.3623 44.5581 55.4884L44.9889 54.301C44.6842 54.0908 44.2008 53.9962 43.7384 53.9962C42.3303 53.9962 41.5527 54.8264 41.5527 56.0979V56.35H40.6805V57.611H41.5527V61.8773H43.192V57.611H44.6001V56.35H43.15V56.1084Z" fill="#463B32"/>
<path d="M47.824 56.97V56.224H46.2583V61.8773H47.8975V59.2083C47.8975 58.1259 48.4965 57.632 49.4002 57.632C49.5263 57.632 49.6314 57.6426 49.768 57.6531V56.1399C48.8958 56.1399 48.2233 56.4236 47.824 56.97Z" fill="#463B32"/>
<path d="M56.2292 59.0717C56.2292 57.2538 54.9472 56.1399 53.2869 56.1399C51.5636 56.1399 50.2711 57.3588 50.2711 59.0506C50.2711 60.732 51.5425 61.9614 53.4971 61.9614C54.5164 61.9614 55.3045 61.6462 55.8299 61.0472L54.9577 60.1015C54.5689 60.4693 54.1381 60.6479 53.5391 60.6479C52.6774 60.6479 52.0785 60.2171 51.9208 59.513H56.1977C56.2082 59.3764 56.2292 59.1978 56.2292 59.0717ZM53.2974 57.3798C54.033 57.3798 54.5689 57.8422 54.6845 58.5568H51.8998C52.0154 57.8317 52.5513 57.3798 53.2974 57.3798Z" fill="#463B32"/>
<path d="M62.8584 59.0717C62.8584 57.2538 61.5764 56.1399 59.9161 56.1399C58.1927 56.1399 56.9002 57.3588 56.9002 59.0506C56.9002 60.732 58.1717 61.9614 60.1263 61.9614C61.1455 61.9614 61.9337 61.6462 62.4591 61.0472L61.5869 60.1015C61.1981 60.4693 60.7673 60.6479 60.1683 60.6479C59.3066 60.6479 58.7076 60.2171 58.55 59.513H62.8269C62.8374 59.3764 62.8584 59.1978 62.8584 59.0717ZM59.9266 57.3798C60.6622 57.3798 61.1981 57.8422 61.3137 58.5568H58.529C58.6446 57.8317 59.1805 57.3798 59.9266 57.3798Z" fill="#463B32"/>
</svg>
