<svg width="86" height="110" viewBox="0 0 86 110" fill="none" xmlns="http://www.w3.org/2000/svg">
<path d="M11.848 72.7081C15.0566 80.388 20.9739 86.7949 28.5115 90.7505C32.2507 92.7123 37.1217 93.8794 41.4586 93.8794C41.7603 93.8794 42.0575 93.8714 42.3536 93.86C42.5369 93.8668 42.7236 93.8714 42.9229 93.8714C46.6325 93.8714 52.3585 92.759 56.1865 90.7505C63.7241 86.7949 69.6414 80.3891 72.85 72.7081C76.1975 64.6968 76.152 56.1618 72.7362 48.6755C70.9394 44.7462 65.5868 36.703 59.9189 28.1862C53.5347 18.5923 46.9308 8.6705 44.4338 3.26894L42.9217 0L39.1245 7.71293H39.1347C36.007 13.9127 29.37 23.1559 23.5142 31.3106C18.1775 38.7434 13.5707 45.1583 11.963 48.6766C8.54148 56.1618 8.50049 64.6968 11.848 72.7081ZM15.0907 50.1044C16.5584 46.8924 21.2916 40.2999 26.3026 33.3202C32.2325 25.0619 38.9537 15.6991 42.201 9.26144L42.9149 7.84501C46.1178 13.6599 51.6617 21.9911 57.053 30.0911C62.6424 38.4906 67.9233 46.4233 69.605 50.1044C75.7535 63.5457 69.1496 80.0624 54.5868 87.707C51.6264 89.2589 47.2177 90.2119 44.0285 90.3998V90.3497L42.3479 90.4226L40.665 90.3497V90.4203C37.0932 90.2859 33.1103 89.2817 30.1113 87.7036C15.5428 80.0624 8.94682 63.5457 15.0907 50.1044Z" fill="#463B32"/>
<path d="M22.609 69.4801C21.2426 66.1201 20.654 63.113 20.654 59.4228C20.654 59.1972 20.6095 58.9738 20.5232 58.7653C20.4369 58.5568 20.3103 58.3674 20.1507 58.2079C19.9912 58.0483 19.8018 57.9218 19.5933 57.8354C19.3849 57.7491 19.1615 57.7046 18.9358 57.7046C18.7102 57.7046 18.4868 57.7491 18.2783 57.8354C18.0699 57.9218 17.8805 58.0483 17.7209 58.2079C17.5614 58.3674 17.4348 58.5568 17.3485 58.7653C17.2621 58.9738 17.2177 59.1972 17.2177 59.4228C17.2177 63.5856 17.8781 66.982 19.4266 70.7781C19.5118 70.9875 19.6374 71.178 19.7963 71.3388C19.9551 71.4995 20.1441 71.6275 20.3524 71.7152C20.5606 71.803 20.7842 71.8489 21.0102 71.8502C21.2362 71.8516 21.4603 71.8084 21.6696 71.7232C21.879 71.638 22.0694 71.5123 22.2302 71.3535C22.391 71.1946 22.5189 71.0057 22.6067 70.7974C22.6944 70.5891 22.7403 70.3656 22.7417 70.1396C22.7431 69.9135 22.6999 69.6895 22.6147 69.4801H22.609Z" fill="#463B32"/>
<path d="M23.1771 76.0157C23.3308 76.0149 23.4838 75.995 23.6326 75.9565C23.719 75.9369 23.8036 75.9098 23.8853 75.8757C23.9675 75.8439 24.0471 75.8059 24.1233 75.7618C24.3247 75.6336 24.4979 75.4658 24.6325 75.2686C24.767 75.0714 24.86 74.8489 24.9059 74.6146C24.9518 74.3803 24.9496 74.1392 24.8994 73.9058C24.8493 73.6724 24.7522 73.4516 24.6141 73.2569C23.7669 72.1183 22.6477 72.4109 22.1763 72.7263C22.124 72.7612 22.0738 72.7992 22.026 72.8402C21.7015 73.1095 21.4873 73.4887 21.4243 73.9057C21.3614 74.3227 21.4539 74.7483 21.6844 75.1014C22.1501 75.8245 22.7114 76.0157 23.1771 76.0157Z" fill="#463B32"/>
<path d="M35.1393 81.2124C32.3365 80.1951 29.7708 78.6162 27.5995 76.5725C27.436 76.4125 27.2423 76.2867 27.0297 76.2025C26.817 76.1183 26.5897 76.0774 26.361 76.0821C26.1323 76.0869 25.9069 76.1372 25.6979 76.2301C25.4889 76.3231 25.3006 76.4568 25.1439 76.6235C24.9873 76.7901 24.8655 76.9864 24.7856 77.2007C24.7057 77.415 24.6694 77.6431 24.6788 77.8717C24.6882 78.1002 24.7431 78.3246 24.8403 78.5316C24.9375 78.7387 25.075 78.9242 25.2448 79.0775C27.7548 81.4429 30.7216 83.2705 33.9632 84.4483C34.1766 84.5315 34.4045 84.5713 34.6335 84.5653C34.8625 84.5592 35.088 84.5075 35.2967 84.4131C35.5054 84.3186 35.6931 84.1835 35.8489 84.0155C36.0046 83.8475 36.1252 83.6501 36.2036 83.4348C36.282 83.2196 36.3166 82.9908 36.3053 82.762C36.294 82.5332 36.2372 82.309 36.138 82.1024C36.0389 81.8959 35.8994 81.7113 35.7279 81.5594C35.5564 81.4076 35.3563 81.2915 35.1393 81.218V81.2124Z" fill="#463B32"/>
<path d="M38.8842 66.2112C42.8386 66.2112 46.1303 62.5881 46.1303 58.1362V52.3293C46.1303 47.8762 42.8386 44.2543 38.8842 44.2543C34.9298 44.2543 31.637 47.8796 31.637 52.3304V58.1373C31.637 62.5881 34.9287 66.2112 38.8842 66.2112ZM34.1021 52.3304C34.1021 49.1651 36.2142 46.5907 38.8842 46.5907C41.5543 46.5907 43.6664 49.1651 43.6664 52.3304V58.1373C43.6664 61.3015 41.5531 63.8759 38.8842 63.8759C36.2153 63.8759 34.1021 61.3015 34.1021 58.1373V52.3304Z" fill="#9C6137" fill-opacity="0.69"/>
<path d="M50.2748 59.0778C50.3454 59.0778 50.4172 59.0858 50.4878 59.0858C51.0893 59.0851 51.6779 58.9113 52.1833 58.5851C52.6887 58.2589 53.0896 57.7942 53.338 57.2463C53.5864 56.6985 53.6718 56.0907 53.5842 55.4956C53.4965 54.9005 53.2394 54.3432 52.8435 53.8903C52.5045 53.5021 52.075 53.2034 51.5929 53.0209C51.1109 52.8384 50.5913 52.7776 50.0801 52.8439C49.569 52.9102 49.0821 53.1016 48.6626 53.4011C48.2431 53.7006 47.904 54.0989 47.6752 54.5608C47.4465 55.0228 47.3353 55.534 47.3514 56.0491C47.3675 56.5643 47.5104 57.0676 47.7675 57.5143C48.0246 57.961 48.3879 58.3374 48.8253 58.6102C49.2627 58.8829 49.7606 59.0435 50.2748 59.0778ZM50.4832 55.1553H50.5379C50.7492 55.162 50.9493 55.2523 51.0941 55.4065C51.2389 55.5606 51.3165 55.766 51.3098 55.9774C51.3032 56.1888 51.2129 56.3889 51.0587 56.5336C50.9045 56.6784 50.6992 56.756 50.4878 56.7494C50.4688 56.7505 50.4498 56.7505 50.4308 56.7494C50.2201 56.7351 50.0237 56.6377 49.8847 56.4786C49.7457 56.3196 49.6755 56.1119 49.6896 55.9011C49.7026 55.6993 49.7918 55.51 49.9392 55.3715C50.0865 55.2331 50.281 55.1558 50.4832 55.1553Z" fill="#9C6137" fill-opacity="0.69"/>
<path d="M54.1404 62.4595C54.0854 63.2885 54.3618 64.1054 54.9088 64.7307C55.4558 65.356 56.2286 65.7386 57.0575 65.7945C57.1281 65.7945 57.1987 65.8013 57.2682 65.8013C57.879 65.8011 58.4764 65.6223 58.987 65.287C59.4975 64.9517 59.8989 64.4745 60.1419 63.9141C60.3848 63.3537 60.4587 62.7345 60.3543 62.1326C60.25 61.5308 59.9721 60.9726 59.5547 60.5266C59.1373 60.0807 58.5987 59.7664 58.005 59.6226C57.4114 59.4787 56.7887 59.5114 56.2134 59.7168C55.6382 59.9222 55.1355 60.2912 54.7672 60.7784C54.3989 61.2657 54.181 61.85 54.1404 62.4595ZM58.0618 62.7214C58.0514 62.8763 57.9959 63.0248 57.9022 63.1486C57.8086 63.2725 57.6807 63.3663 57.5345 63.4185C57.3883 63.4707 57.23 63.479 57.079 63.4425C56.9281 63.406 56.7911 63.3261 56.685 63.2128C56.5788 63.0995 56.508 62.9577 56.4814 62.8047C56.4547 62.6517 56.4733 62.4943 56.5349 62.3517C56.5965 62.2092 56.6984 62.0877 56.828 62.0023C56.9577 61.9169 57.1095 61.8712 57.2648 61.8708H57.3194C57.4241 61.8778 57.5263 61.9053 57.6203 61.9518C57.7143 61.9983 57.7982 62.063 57.8672 62.142C57.9361 62.221 57.9888 62.3129 58.0222 62.4123C58.0556 62.5117 58.0691 62.6167 58.0618 62.7214Z" fill="#9C6137" fill-opacity="0.69"/>
<path d="M49.7739 65.2434C49.9001 65.3304 50.0423 65.3916 50.1922 65.4237C50.3422 65.4557 50.497 65.4579 50.6477 65.4301C50.7985 65.4023 50.9423 65.345 51.071 65.2616C51.1996 65.1782 51.3106 65.0702 51.3975 64.9439L58.1563 55.1268C58.3322 54.8715 58.3995 54.5568 58.3433 54.2519C58.2871 53.9469 58.1122 53.6768 57.8568 53.5009C57.6015 53.325 57.2868 53.2577 56.9819 53.3139C56.6769 53.3701 56.4068 53.545 56.2309 53.8004L49.4733 63.6174C49.3858 63.7438 49.3242 63.8862 49.292 64.0364C49.2598 64.1867 49.2576 64.3418 49.2855 64.4929C49.3134 64.644 49.371 64.7881 49.4548 64.9169C49.5386 65.0457 49.647 65.1566 49.7739 65.2434Z" fill="#9C6137" fill-opacity="0.69"/>
<path d="M18.5124 101.232C17.1513 101.232 15.7744 101.596 14.8406 102.261L15.7269 103.986C16.3441 103.495 17.2779 103.195 18.18 103.195C19.5095 103.195 20.1425 103.812 20.1425 104.872H18.18C15.5844 104.872 14.5241 105.917 14.5241 107.42C14.5241 108.892 15.7111 110 17.7052 110C18.9555 110 19.8418 109.589 20.3008 108.813V109.873H22.6115V105.015C22.6115 102.435 21.1079 101.232 18.5124 101.232ZM18.3225 108.338C17.452 108.338 16.9297 107.927 16.9297 107.309C16.9297 106.74 17.2937 106.312 18.4491 106.312H20.1425V107.183C19.8576 107.958 19.1454 108.338 18.3225 108.338Z" fill="#463B32"/>
<path d="M29.6731 107.721C29.4041 107.927 29.0401 108.037 28.676 108.037C28.0113 108.037 27.6157 107.642 27.6157 106.914V103.448H29.7364V101.549H27.6157V99.4753H25.1467V101.549H23.8331V103.448H25.1467V106.945C25.1467 108.971 26.3179 110 28.3279 110C29.0875 110 29.8314 109.826 30.3378 109.462L29.6731 107.721Z" fill="#463B32"/>
<path d="M39.8017 105.648C39.8017 102.91 37.8708 101.232 35.3702 101.232C32.7747 101.232 30.828 103.068 30.828 105.616C30.828 108.148 32.743 110 35.6868 110C37.2219 110 38.4089 109.525 39.2003 108.623L37.8867 107.199C37.3011 107.753 36.6522 108.022 35.7501 108.022C34.4523 108.022 33.5502 107.373 33.3128 106.312H39.7542C39.77 106.107 39.8017 105.838 39.8017 105.648ZM35.386 103.1C36.4939 103.1 37.3011 103.796 37.4752 104.872H33.2811C33.4552 103.78 34.2624 103.1 35.386 103.1Z" fill="#463B32"/>
<path d="M43.8036 102.482V101.359H41.4454V109.873H43.9144V105.853C43.9144 104.223 44.8165 103.479 46.1776 103.479C46.3675 103.479 46.5258 103.495 46.7315 103.511V101.232C45.4179 101.232 44.405 101.659 43.8036 102.482Z" fill="#463B32"/>
<path d="M55.4499 101.185C55.4499 100.346 55.8456 99.9501 56.5736 99.9501C56.9534 99.9501 57.3016 100.061 57.5707 100.251L58.2196 98.4624C57.7606 98.1458 57.0326 98.0034 56.3362 98.0034C54.2154 98.0034 53.0443 99.2537 53.0443 101.169V101.549H51.7306V103.448H53.0443V109.873H55.5132V103.448H57.634V101.549H55.4499V101.185Z" fill="#463B32"/>
<path d="M62.4895 102.482V101.359H60.1314V109.873H62.6003V105.853C62.6003 104.223 63.5024 103.479 64.8635 103.479C65.0535 103.479 65.2117 103.495 65.4175 103.511V101.232C64.1039 101.232 63.091 101.659 62.4895 102.482Z" fill="#463B32"/>
<path d="M75.1489 105.648C75.1489 102.91 73.218 101.232 70.7174 101.232C68.1218 101.232 66.1752 103.068 66.1752 105.616C66.1752 108.148 68.0902 110 71.034 110C72.5691 110 73.7561 109.525 74.5475 108.623L73.2338 107.199C72.6483 107.753 71.9994 108.022 71.0973 108.022C69.7995 108.022 68.8974 107.373 68.66 106.312H75.1014C75.1172 106.107 75.1489 105.838 75.1489 105.648ZM70.7332 103.1C71.8411 103.1 72.6483 103.796 72.8224 104.872H68.6283C68.8024 103.78 69.6095 103.1 70.7332 103.1Z" fill="#463B32"/>
<path d="M85.1333 105.648C85.1333 102.91 83.2024 101.232 80.7018 101.232C78.1062 101.232 76.1596 103.068 76.1596 105.616C76.1596 108.148 78.0746 110 81.0183 110C82.5535 110 83.7405 109.525 84.5318 108.623L83.2182 107.199C82.6327 107.753 81.9837 108.022 81.0816 108.022C79.7839 108.022 78.8817 107.373 78.6443 106.312H85.0858C85.1016 106.107 85.1333 105.838 85.1333 105.648ZM80.7176 103.1C81.8255 103.1 82.6327 103.796 82.8067 104.872H78.6127C78.7868 103.78 79.5939 103.1 80.7176 103.1Z" fill="#463B32"/>
<path d="M11.8576 101.916L10.1424 106.853L8.47186 101.916H6.05559L4.34034 106.808L2.68475 101.916H0L2.87864 110H5.62305L7.20407 105.6L8.72542 110H11.4698L14.3485 101.916H11.8576Z" fill="#463B32"/>
</svg>
