<svg width="45" height="45" viewBox="0 0 45 45" fill="none" xmlns="http://www.w3.org/2000/svg">
<path d="M10.6586 16.721C10.2046 16.4722 9.63472 16.6386 9.38582 17.0927L9.36701 17.1268C9.11819 17.5808 9.28448 18.1507 9.7387 18.3995C9.88169 18.4779 10.0361 18.515 10.1884 18.515C10.5198 18.515 10.8409 18.339 11.0114 18.0278L11.0302 17.9937C11.2791 17.5397 11.1126 16.9698 10.6586 16.721Z" fill="#D0AF94"/>
<path d="M40.6607 19.702C39.1864 13.9638 35.0529 9.19374 29.4754 6.96466C28.512 3.95599 25.6792 1.875 22.5001 1.875C19.2397 1.875 16.4712 4.01707 15.5252 6.96738C12.1661 8.31281 9.28951 10.5825 7.18497 13.5559C5.85545 15.4345 4.89691 17.5112 4.33564 19.7023C1.91487 19.8831 0 21.9091 0 24.3752C0 26.8427 1.91681 28.8697 4.33951 29.0485C6.42138 37.1336 13.774 43.1253 22.5001 43.1253C31.226 43.1253 38.5786 37.1336 40.6604 29.0485C43.0831 28.8697 45 26.8427 45 24.375C45 21.9077 43.0833 19.881 40.6607 19.702ZM1.87515 24.375C1.87515 23.0813 2.75344 21.9889 3.94488 21.6623C3.86437 22.2203 3.8083 22.7837 3.77789 23.3513C3.77736 23.3592 3.7771 23.367 3.77666 23.3749C3.77121 23.4783 3.76638 23.5817 3.76269 23.6853C3.76119 23.7246 3.7604 23.7639 3.75935 23.8032C3.75706 23.8775 3.75469 23.9518 3.75328 24.0263C3.75126 24.1425 3.75003 24.2588 3.75003 24.3751C3.75003 24.517 3.75223 24.6589 3.75557 24.8009C3.75653 24.8454 3.75776 24.8897 3.75917 24.934C3.76216 25.0373 3.7662 25.1405 3.77095 25.2437C3.77288 25.2875 3.77464 25.3313 3.77684 25.3752C3.78369 25.504 3.79195 25.6327 3.80136 25.7614C3.80584 25.8219 3.81111 25.882 3.81604 25.9423C3.82245 26.0186 3.82913 26.0949 3.83643 26.1711C3.84284 26.2383 3.84943 26.3055 3.85655 26.3724C3.86481 26.4508 3.87422 26.5291 3.88345 26.6073C3.89566 26.7098 3.90876 26.812 3.92256 26.9139C3.93047 26.9723 3.93776 27.0305 3.9462 27.0885C2.75405 26.7624 1.87515 25.6694 1.87515 24.375ZM22.5001 3.75015C24.357 3.75015 26.0553 4.70376 27.0465 6.19641C27.0279 6.19623 27.0091 6.19614 26.9904 6.19614C26.9783 6.19614 26.9665 6.19702 26.9544 6.19711C26.9497 6.19729 26.945 6.1972 26.9402 6.19746C24.0211 6.22462 21.6548 8.60663 21.6548 11.5319C21.6548 12.6703 22.0124 13.7525 22.655 14.6455C22.6034 14.6469 22.5516 14.6477 22.5001 14.6477C19.4957 14.6477 17.0515 12.2035 17.0515 9.1991C17.0514 6.19447 19.4956 3.75015 22.5001 3.75015ZM39.3689 24.8193C39.3684 24.8421 39.3671 24.8648 39.3664 24.8877C39.3625 25.0133 39.3579 25.1389 39.3514 25.2645C39.3502 25.287 39.3485 25.3094 39.3471 25.3318C39.34 25.4572 39.3321 25.5827 39.3223 25.708C39.3203 25.7333 39.3176 25.7585 39.3155 25.7838C39.3055 25.9049 39.2945 26.0259 39.2819 26.1468C39.2785 26.1804 39.2741 26.2139 39.2704 26.2475C39.2581 26.3583 39.2453 26.4688 39.2309 26.5793C39.2248 26.6255 39.2179 26.6715 39.2114 26.7176C39.1983 26.8131 39.1847 26.9085 39.1697 27.0037C39.1599 27.0657 39.1494 27.1272 39.1389 27.189C39.126 27.2661 39.1131 27.3431 39.099 27.4199C39.0848 27.498 39.0696 27.5757 39.0542 27.6533C39.0428 27.7115 39.0313 27.7698 39.0192 27.8279C37.4215 35.4824 30.6217 41.2502 22.4999 41.2502C14.3721 41.2502 7.56835 35.4742 5.977 27.8113C5.96259 27.7419 5.94932 27.672 5.93587 27.6023C5.92286 27.5356 5.90959 27.469 5.89746 27.4021C5.88023 27.3074 5.8645 27.2122 5.84886 27.1171C5.84174 27.0734 5.83392 27.0298 5.82715 26.9861C5.80852 26.8656 5.79146 26.7451 5.77529 26.6242C5.77257 26.6037 5.76923 26.5833 5.76668 26.5629C5.74822 26.4206 5.73135 26.2778 5.71649 26.1351C5.71649 26.1345 5.71632 26.1337 5.71632 26.1331C5.65559 25.5495 5.62491 24.9623 5.62491 24.3754C5.62491 24.2429 5.62711 24.1104 5.63027 23.9779C5.63142 23.9344 5.63273 23.891 5.63414 23.8476C5.63687 23.7584 5.64056 23.6693 5.64478 23.5802C5.64715 23.5283 5.64943 23.4764 5.65233 23.4246C5.65682 23.3457 5.66244 23.2668 5.66798 23.188C5.67773 23.0517 5.68872 22.9158 5.70164 22.7801C5.70314 22.7646 5.70437 22.749 5.70586 22.7336C6.28207 16.8985 9.89587 11.7203 15.177 9.16957C15.177 9.1795 15.1763 9.18926 15.1763 9.19919C15.1763 9.87032 15.2688 10.5198 15.4387 11.1377C13.7559 12.0337 12.2782 13.2277 11.0396 14.6955C10.7056 15.0913 10.7558 15.6828 11.1516 16.0166C11.3275 16.1651 11.5421 16.2376 11.7557 16.2376C12.0224 16.2376 12.2873 16.1244 12.4726 15.9046C13.519 14.6647 14.7601 13.6485 16.1693 12.8743C17.4395 15.0538 19.8008 16.5229 22.5001 16.5229C23.3278 16.5229 24.1412 16.3852 24.9171 16.1139C25.255 15.9957 25.4962 15.6954 25.5386 15.3398C25.5809 14.9842 25.417 14.6356 25.1162 14.4414C24.1229 13.7997 23.5298 12.7122 23.5298 11.5321C23.5298 9.66255 25.0202 8.13562 26.8752 8.07436C33.1026 9.74051 37.734 14.7759 39.0171 20.9129C39.0383 21.0144 39.0589 21.1161 39.0782 21.2181C39.0882 21.2713 39.0974 21.3249 39.1072 21.3784C39.1221 21.4618 39.1368 21.5454 39.1505 21.629C39.1588 21.6791 39.1666 21.7293 39.1744 21.7796C39.1889 21.8737 39.2028 21.9679 39.2157 22.0623C39.2211 22.1016 39.2267 22.1409 39.2319 22.1803C39.2676 22.4543 39.2967 22.7294 39.3191 23.005C39.3217 23.0366 39.3237 23.0684 39.326 23.1001C39.3341 23.2061 39.3411 23.3123 39.3471 23.4185C39.3494 23.4597 39.3516 23.5011 39.3536 23.5424C39.3587 23.6435 39.3625 23.7446 39.3657 23.8457C39.367 23.8848 39.3684 23.9239 39.3695 23.963C39.3728 24.1004 39.3749 24.2379 39.3749 24.3752C39.3748 24.5233 39.3728 24.6714 39.3689 24.8193ZM41.0538 27.0885C41.0641 27.0177 41.0734 26.9465 41.0829 26.8754C41.0929 26.8003 41.1026 26.7251 41.1118 26.6497C41.1233 26.5551 41.1343 26.4604 41.1444 26.3656C41.151 26.3036 41.1571 26.2414 41.1629 26.179C41.1708 26.0974 41.178 26.0157 41.1848 25.9341C41.1894 25.8775 41.1944 25.8211 41.1986 25.7643C41.2082 25.6341 41.2165 25.504 41.2234 25.3735C41.2258 25.3315 41.2272 25.2894 41.2292 25.2473C41.234 25.1425 41.238 25.0377 41.2411 24.9328C41.2424 24.8891 41.2436 24.8453 41.2448 24.8015C41.2479 24.6594 41.2501 24.5173 41.2501 24.375C41.2501 24.2513 41.2486 24.1277 41.2463 24.004C41.2453 23.9591 41.2438 23.9143 41.2426 23.8694C41.2406 23.7918 41.2382 23.7142 41.2353 23.6365C41.2331 23.5813 41.2303 23.5261 41.2278 23.471C41.2246 23.4042 41.2212 23.3375 41.2172 23.2709C41.2138 23.211 41.21 23.1512 41.2058 23.0914C41.2016 23.0299 41.1971 22.9686 41.1922 22.9071C41.1874 22.8448 41.1826 22.7824 41.177 22.7203C41.1717 22.6602 41.1658 22.6003 41.1599 22.5403C41.1539 22.4785 41.1481 22.4166 41.1415 22.3548C41.134 22.285 41.1255 22.2156 41.1172 22.1459C41.1079 22.0685 41.0985 21.9912 41.0883 21.9141C41.0772 21.8299 41.0662 21.7457 41.054 21.6617C42.2463 21.9878 43.125 23.0806 43.125 24.3748C43.1249 25.6695 42.2461 26.7624 41.0538 27.0885Z" fill="#D0AF94"/>
<path d="M19.1648 25.4592C18.7263 23.8227 17.2369 22.6797 15.5426 22.6797C13.8486 22.6797 12.359 23.8227 11.9204 25.4592C11.7863 25.9594 12.0831 26.4735 12.5832 26.6075C13.0835 26.7414 13.5975 26.4448 13.7315 25.9447C13.9509 25.1263 14.6956 24.5547 15.5425 24.5547C16.3895 24.5547 17.1342 25.1263 17.3535 25.9447C17.4657 26.3635 17.8446 26.6397 18.2585 26.6397C18.3388 26.6397 18.4205 26.6293 18.5018 26.6075C19.0022 26.4735 19.2989 25.9594 19.1648 25.4592Z" fill="#D0AF94"/>
<path d="M29.4577 22.6797C27.7634 22.6797 26.2739 23.8228 25.8354 25.4593C25.7014 25.9595 25.9982 26.4736 26.4984 26.6075C26.9984 26.7416 27.5126 26.4447 27.6465 25.9446C27.8658 25.1263 28.6105 24.5547 29.4576 24.5547C30.3046 24.5547 31.0493 25.1263 31.2686 25.9446C31.3808 26.3634 31.7596 26.6397 32.1736 26.6397C32.2538 26.6397 32.3356 26.6293 32.4169 26.6075C32.9171 26.4735 33.2138 25.9593 33.0798 25.4592C32.6412 23.8228 31.1518 22.6797 29.4577 22.6797Z" fill="#D0AF94"/>
<path d="M25.4593 32.04C24.9593 31.9061 24.4451 32.2027 24.311 32.703C24.0917 33.5213 23.347 34.0929 22.5 34.0929C21.653 34.0929 20.9083 33.5213 20.6891 32.703C20.555 32.2028 20.041 31.906 19.5408 32.04C19.0406 32.174 18.7439 32.6881 18.8779 33.1883C19.3165 34.825 20.8059 35.9679 22.5001 35.9679C24.1942 35.9679 25.6838 34.8249 26.1224 33.1883C26.2562 32.6882 25.9594 32.174 25.4593 32.04Z" fill="#D0AF94"/>
<path d="M43.1998 25.5945C43.1998 38.7354 31.3091 44.1008 20.81 44.1008C10.311 44.1008 1.7998 33.448 1.7998 20.3071C1.7998 7.16615 13.6906 1.80078 24.1896 1.80078C34.6886 1.80078 43.1998 12.4536 43.1998 25.5945Z" fill="#CC9966" fill-opacity="0.1"/>
</svg>
