<svg width="400" height="230" viewBox="0 0 400 230" fill="none" xmlns="http://www.w3.org/2000/svg">
<path d="M81.2072 0.00894148C78.1588 0.151723 75.5168 1.97783 74.5512 4.61053C63.8688 33.7493 45.9297 55.0138 29.9494 77.2364C13.9691 99.459 0 123.016 0 155.113C0 196.003 36.6165 229.297 81.5888 229.297C105.116 229.297 126.342 220.174 141.249 205.63C156.037 219.901 177.041 228.816 200.264 228.816C223.659 228.816 244.762 219.739 259.574 205.27C274.38 219.745 295.528 228.816 318.942 228.816C363.629 228.816 400.001 195.744 400.001 155.113C400.001 123.141 386.103 99.702 370.137 77.5007C354.172 55.2993 336.19 33.9885 325.476 4.76208C324.497 2.09181 321.68 0.344603 318.589 0.488638C315.758 0.6214 313.306 2.31725 312.409 4.76208C299.814 39.1212 276.98 62.5562 259.599 89.3378C256.99 85.3286 254.26 81.3933 251.461 77.5007C235.496 55.2993 217.514 33.9885 206.8 4.76208C205.821 2.09181 203.004 0.344603 199.913 0.488638C197.082 0.6214 194.63 2.31725 193.733 4.76208C181.21 38.9195 158.567 62.2769 141.225 88.8631C138.656 84.9253 135.976 81.0577 133.228 77.2364C117.247 55.0138 99.3075 33.7493 88.625 4.61053C87.5699 1.73485 84.5366 -0.146365 81.2072 0.00894148ZM200.309 24.0238C211.751 47.7807 227.03 66.415 239.931 84.3554C255.49 105.992 267.549 126.388 267.549 155.113C267.549 188.974 237.507 216.291 200.264 216.291C180.157 216.291 162.205 208.291 149.881 195.623C151.614 193.217 153.196 190.714 154.618 188.125C165.627 200.243 181.296 208.319 198.673 210.528C200.55 210.803 202.318 209.64 202.619 207.933C202.921 206.226 201.643 204.619 199.765 204.345C199.72 204.339 199.674 204.332 199.627 204.327C182.789 202.187 167.737 193.941 157.767 181.621C161.249 173.382 163.178 164.451 163.178 155.114C163.178 134.444 157.369 117.326 148.974 101.815C163.362 77.9065 185.197 55.5298 200.309 24.0238ZM318.986 24.0238C330.427 47.7807 345.706 66.415 358.608 84.3554C374.167 105.992 386.225 126.388 386.225 155.113C386.225 188.974 356.183 216.291 318.94 216.291C298.635 216.291 280.521 208.137 268.188 195.251C269.924 192.831 271.515 190.318 272.933 187.713C283.96 200.056 299.778 208.294 317.349 210.527C319.227 210.801 320.994 209.639 321.296 207.932C321.597 206.225 320.319 204.618 318.442 204.344C318.396 204.337 318.351 204.331 318.304 204.326C301.255 202.159 286.043 193.726 276.078 181.15C279.457 173.048 281.322 164.276 281.322 155.113C281.322 134.661 275.622 117.71 267.346 102.332C281.727 78.2296 303.764 55.7577 318.986 24.0238ZM81.5888 25.1148C93.0096 48.4997 108.085 66.9235 120.81 84.6197C136.354 106.234 148.343 126.512 148.343 155.113C148.343 188.714 118.544 215.811 81.5888 215.811C44.6335 215.811 14.8314 188.714 14.8314 155.113C14.8314 126.512 26.8225 106.234 42.3647 84.6197C55.0914 66.9235 70.1694 48.4984 81.5888 25.1148ZM24.9918 158.329C23.0923 158.407 21.6197 159.87 21.7051 161.598C21.7148 161.806 21.7478 162.013 21.8043 162.214C28.357 187.696 51.4961 206.905 80.0006 210.527C81.8781 210.805 83.6481 209.647 83.9539 207.939C84.2598 206.232 82.9856 204.623 81.1081 204.345C81.0571 204.337 81.0047 204.331 80.9538 204.325C55.247 201.058 34.4194 183.768 28.5099 160.786C28.149 159.3 26.6655 158.261 24.9918 158.329Z" fill="#F3EBE5" fill-opacity="0.63"/>
</svg>
