<svg width="39" height="39" viewBox="0 0 39 39" fill="none" xmlns="http://www.w3.org/2000/svg">
<path d="M20.152 25.6579C19.5904 26.4147 19.2812 27.3525 19.2812 28.2999C19.2812 30.7273 21.2349 32.7031 23.6352 32.7031C26.0355 32.7031 27.9892 30.7273 27.9892 28.2999C27.9892 27.3525 27.6801 26.4147 27.1184 25.6586L23.6352 20.9609L20.152 25.6579ZM26.7452 28.2999C26.7452 30.0341 25.3501 31.445 23.6352 31.445C21.9204 31.445 20.5252 30.0341 20.5252 28.2999C20.5252 27.6237 20.7461 26.9531 21.1472 26.4128L23.6352 23.0581L26.1232 26.4134C26.5244 26.9531 26.7452 27.6237 26.7452 28.2999Z" fill="#BD967A"/>
<path d="M19.6536 12.4515L16.1704 7.75391L12.6872 12.4509C12.1255 13.2076 11.8164 14.1455 11.8164 15.0928C11.8164 17.5203 13.7701 19.4961 16.1704 19.4961C18.5707 19.4961 20.5244 17.5203 20.5244 15.0928C20.5244 14.1455 20.2152 13.2076 19.6536 12.4515ZM16.1704 18.238C14.4555 18.238 13.0604 16.8271 13.0604 15.0928C13.0604 14.4166 13.2812 13.7461 13.6824 13.2057L16.1704 9.8511L18.6584 13.2064C19.0596 13.7461 19.2804 14.4166 19.2804 15.0928C19.2804 16.8271 17.8852 18.238 16.1704 18.238Z" fill="#BD967A"/>
<path d="M36.0758 16.9839C34.7037 16.9839 33.5878 18.1124 33.5878 19.5C33.5878 19.7862 33.6457 20.0573 33.7328 20.314L31.0955 21.9142L24.2579 17.8809V9.79655L31.7218 5.39332V0H30.4778V4.67119L23.6359 8.70769L16.7939 4.67119V0H15.5499V4.67119L8.71915 8.70077L4.89076 6.28089C4.94114 6.08148 4.97597 5.87642 4.97597 5.66129C4.97597 4.27364 3.86011 3.14516 2.48799 3.14516C1.11586 3.14516 0 4.27364 0 5.66129C0 7.04894 1.11586 8.17742 2.48799 8.17742C3.19893 8.17742 3.8371 7.87045 4.29116 7.38547L8.08596 9.78397V17.8809L0.930507 22.1017L1.55748 23.1893L8.70796 18.9697L12.1289 20.9877L15.5499 23.0056V31.0899L9.28703 34.7842C8.83235 34.2854 8.18672 33.9677 7.46396 33.9677C6.09184 33.9677 4.97597 35.0962 4.97597 36.4839C4.97597 37.8715 6.09184 39 7.46396 39C8.83609 39 9.95195 37.8715 9.95195 36.4839C9.95195 36.2801 9.92147 36.0844 9.87607 35.8945L16.1719 32.18L23.0139 36.2159V39H24.2579V36.2159L27.2715 34.4376L31.103 32.1775L35.1453 34.5137L35.7623 33.4217L31.7218 31.0868V23.0012L34.4201 21.3638C34.8611 21.7651 35.4376 22.0161 36.0758 22.0161C37.4479 22.0161 38.5638 20.8876 38.5638 19.5C38.5638 18.1124 37.4479 16.9839 36.0758 16.9839ZM2.48799 6.91935C1.80192 6.91935 1.24399 6.35511 1.24399 5.66129C1.24399 4.96747 1.80192 4.40323 2.48799 4.40323C3.17405 4.40323 3.73198 4.96747 3.73198 5.66129C3.73198 6.35511 3.17405 6.91935 2.48799 6.91935ZM7.46396 37.7419C6.7779 37.7419 6.21997 37.1777 6.21997 36.4839C6.21997 35.79 6.7779 35.2258 7.46396 35.2258C8.15002 35.2258 8.70796 35.79 8.70796 36.4839C8.70796 37.1777 8.15002 37.7419 7.46396 37.7419ZM12.7509 19.8988L9.32995 17.8809V9.79655L16.1719 5.76005L23.0139 9.79655V17.8809L19.5929 19.8988L16.1719 21.9167L12.7509 19.8988ZM30.4778 31.0905L26.6407 33.3544L23.6359 35.127L16.7939 31.0905V23.0062L20.2149 20.9883L23.6359 18.9704L30.4778 23.0069V31.0905ZM36.0758 20.7581C35.3898 20.7581 34.8318 20.1938 34.8318 19.5C34.8318 18.8062 35.3898 18.2419 36.0758 18.2419C36.7619 18.2419 37.3198 18.8062 37.3198 19.5C37.3198 20.1938 36.7619 20.7581 36.0758 20.7581Z" fill="#BD967A"/>
<path d="M34.2108 13.1992H32.9668V14.4573H34.2108V13.1992Z" fill="#BD967A"/>
<path d="M31.7225 13.1992H30.4785V14.4573H31.7225V13.1992Z" fill="#BD967A"/>
<path d="M29.2333 13.1992H27.9893V14.4573H29.2333V13.1992Z" fill="#BD967A"/>
<path d="M11.8187 26.4297H10.5747V27.6878H11.8187V26.4297Z" fill="#BD967A"/>
<path d="M9.32846 26.4297H8.08447V27.6878H9.32846V26.4297Z" fill="#BD967A"/>
<path d="M6.84166 26.4297H5.59766V27.6878H6.84166V26.4297Z" fill="#BD967A"/>
</svg>
