<svg width="107" height="107" viewBox="0 0 107 107" fill="none" xmlns="http://www.w3.org/2000/svg">
<path d="M13.5887 58.7842C14.0841 74.9604 21.1561 82.2486 26.9913 85.5143C31.4044 87.9801 36.2588 88.8583 40.6377 88.8583C44.9747 88.8583 48.8439 87.9977 51.3549 86.9574C51.3726 86.9574 51.3925 86.9574 51.4123 86.9574C51.4708 86.9574 51.5293 86.9518 51.5877 86.9463C51.767 87.2464 52.023 87.4933 52.3294 87.6615C52.6359 87.8297 52.9816 87.9131 53.331 87.9031C53.6805 87.8931 54.0209 87.79 54.3172 87.6046C54.6135 87.4191 54.855 87.158 55.0167 86.8481C55.0917 86.8735 55.1668 86.8945 55.2429 86.9121C57.7484 87.9702 61.6618 88.8539 66.055 88.8539C70.4482 88.8539 75.295 87.9713 79.7025 85.5099C85.5422 82.2442 92.6109 74.956 93.1051 58.7798C93.0748 58.2976 92.91 57.8335 92.6294 57.4402C92.3488 57.0469 91.9636 56.74 91.5175 56.5545C76.0628 51.7607 66.9045 56.0679 61.9155 60.5262C58.8903 63.2282 56.9166 66.5413 55.3058 69.8875V63.7975C59.0624 61.3526 65.9833 54.3744 66.974 45.3882C67.6228 39.5045 65.9943 30.6794 54.6339 22.0386C54.2299 21.7828 53.7616 21.647 53.2835 21.647C52.8053 21.647 52.337 21.7828 51.9331 22.0386C40.5693 30.6794 38.8129 39.5034 39.4605 45.386C40.4535 54.3733 47.2552 61.3526 51.0118 63.7975V69.5598C49.4021 66.3251 47.5917 63.1421 44.6658 60.5274C39.6757 56.0657 30.5582 51.7585 15.098 56.5556C14.637 56.704 14.2507 57.024 14.019 57.4492C13.7125 57.8241 13.5588 58.3009 13.5887 58.7842ZM64.506 63.4665C70.4273 58.1708 78.7041 56.9925 89.1168 59.9525C88.5254 70.7646 84.718 78.2051 77.7839 82.082C71.1544 85.789 63.2019 85.2991 58.5781 83.9443C61.0163 80.1788 67.1164 72.1007 75.8995 69.6393C76.1483 69.5696 76.3809 69.4516 76.5841 69.292C76.7872 69.1324 76.957 68.9344 77.0836 68.7092C77.2102 68.484 77.2913 68.2361 77.3221 67.9796C77.3529 67.7231 77.3329 67.4631 77.2632 67.2143C77.1935 66.9655 77.0755 66.7329 76.9159 66.5298C76.7563 66.3266 76.5583 66.1569 76.3331 66.0302C76.1079 65.9036 75.86 65.8226 75.6035 65.7918C75.347 65.7609 75.0869 65.781 74.8382 65.8506C66.0947 68.301 59.8612 75.2958 56.5712 79.8766C57.0578 75.0586 59.271 68.1432 64.506 63.4665ZM43.3694 44.9624C42.6236 38.1927 45.9809 31.8147 53.2007 25.9938C60.4206 31.8158 63.7745 38.1938 63.0276 44.9701C62.3469 51.1484 58.5274 56.2731 55.3047 58.9817V41.2256C55.3047 40.1389 54.2444 39.2585 53.1577 39.2585C52.071 39.2585 51.0107 40.1411 51.0107 41.2256V58.9773C47.7925 56.2665 44.0502 51.1462 43.3694 44.9624ZM42.1911 63.4676C47.211 67.9557 49.4518 74.5003 50.0509 79.2808C46.666 74.7088 40.5947 68.1973 32.2219 65.8506C31.7195 65.7099 31.1818 65.7745 30.727 66.0302C30.2722 66.286 29.9377 66.7119 29.7969 67.2143C29.6562 67.7167 29.7208 68.2544 29.9765 68.7092C30.2323 69.164 30.6582 69.4985 31.1606 69.6393C39.8456 72.0665 45.9346 80.0432 48.4213 83.8517C43.8472 85.276 35.6884 85.8717 28.9099 82.0864C21.978 78.2095 18.1684 70.7668 17.5781 59.957C27.9964 56.9925 36.271 58.1708 42.1911 63.4676Z" fill="#BD967A"/>
<path d="M14.7118 19.7647C14.7405 19.7934 14.7714 19.821 14.8023 19.8497C15.1829 20.1867 15.6816 20.3589 16.189 20.3285C16.6964 20.2981 17.1711 20.0675 17.5086 19.6875C18.3306 18.7563 18.1055 17.6718 17.5484 17.0573C17.523 17.0308 17.4976 17.0021 17.4711 16.9768L17.4005 16.9073C17.2147 16.7375 16.9973 16.6061 16.7607 16.5204C16.524 16.4346 16.2728 16.3964 16.0214 16.4078C15.77 16.4191 15.5233 16.4799 15.2954 16.5866C15.0675 16.6933 14.8628 16.8439 14.6931 17.0297C13.8491 17.951 14.0631 19.0443 14.6203 19.6687C14.6467 19.7018 14.6798 19.7316 14.7118 19.7647ZM14.6401 17.1434L16.0744 18.4165L14.6401 17.1456C14.6401 17.1456 14.6401 17.1445 14.6401 17.1434Z" fill="#463B32"/>
<path d="M13.1022 21.6579C12.9001 21.5079 12.6705 21.3992 12.4264 21.338C12.1823 21.2769 11.9285 21.2644 11.6796 21.3014C11.4307 21.3384 11.1916 21.4241 10.9758 21.5536C10.7601 21.6831 10.572 21.8539 10.4223 22.0562C3.80738 30.97 0.163794 41.7386 0.00738861 52.8376C-0.478052 82.1935 23.0184 106.481 52.3787 106.964C52.6803 106.969 52.9804 106.972 53.279 106.972C67.1714 106.972 80.285 101.676 90.2939 91.9862C100.517 82.0942 106.276 68.8108 106.512 54.5852C106.706 42.3102 102.661 30.3439 95.06 20.7036C94.7449 20.3051 94.2843 20.0481 93.7797 19.9891C93.2751 19.9301 92.7677 20.074 92.3691 20.3892C91.9706 20.7043 91.7136 21.1649 91.6546 21.6695C91.5957 22.1741 91.7396 22.6815 92.0547 23.0801C99.1083 32.0268 102.861 43.132 102.68 54.5234C102.46 67.723 97.1176 80.0498 87.6295 89.2324C78.3432 98.2208 66.1697 103.141 53.2801 103.14C53.0032 103.14 52.7285 103.14 52.446 103.134C25.194 102.682 3.39334 80.1469 3.83465 52.8949C3.98036 42.5974 7.36063 32.6063 13.4971 24.3356C13.7998 23.9281 13.9281 23.4171 13.8541 22.915C13.78 22.4128 13.5095 21.9607 13.1022 21.6579Z" fill="#463B32"/>
<path d="M89.5371 18.2191C89.7654 18.0459 89.9536 17.8253 90.0887 17.5725C90.402 16.9624 90.4627 15.975 89.6055 15.1939C89.2652 14.8847 88.8251 14.7082 88.3655 14.6967C87.9059 14.6851 87.4574 14.8393 87.1021 15.131C86.8593 15.3063 86.66 15.5351 86.5195 15.7996C86.204 16.402 86.1301 17.3828 86.9609 18.1694C87.3073 18.4972 87.7636 18.684 88.2405 18.6932C88.7173 18.7024 89.1805 18.5333 89.5392 18.2191H89.5371Z" fill="#463B32"/>
<path d="M26.9004 5.57913L27.2205 12.3219L22.2526 7.79973L19.783 8.97965L27.1925 15.5758L29.6621 14.3959L29.2013 4.47982L26.9004 5.57913Z" fill="#463B32"/>
<path d="M42.5895 5.47889C41.878 2.62525 39.4296 1.37852 36.8234 2.02832C34.1182 2.7028 32.5664 5.12208 33.2285 7.77778C33.8866 10.417 36.3637 11.8493 39.4317 11.0843C41.0318 10.6854 42.1455 9.88208 42.7358 8.73623L40.9966 7.59303C40.5302 8.32253 39.9238 8.77156 38.9836 9.00599C37.631 9.34322 36.5222 8.90135 35.9992 7.85787L42.7127 6.18402C42.6757 5.96547 42.6388 5.67683 42.5895 5.47889ZM37.3252 3.97062C38.4799 3.68274 39.5021 4.19877 39.9632 5.27519L35.592 6.36505C35.4897 5.18166 36.1541 4.26262 37.3252 3.97062Z" fill="#463B32"/>
<path d="M53.435 0.066747L53.4625 1.23943C52.745 0.371968 51.6813 -0.0282674 50.4067 0.00154887C47.8744 0.0607838 45.8759 1.85901 45.9383 4.52728C46.0007 7.19555 48.0811 8.89837 50.6134 8.83913C51.8031 8.8113 52.7971 8.41395 53.476 7.63286L53.4851 8.02375C53.5237 9.6723 52.7278 10.5412 50.8583 10.5849C49.6856 10.6123 48.4014 10.2342 47.6049 9.6237L46.5957 11.5518C47.6859 12.3596 49.3784 12.7451 51.1119 12.7045C54.409 12.6274 56.208 11.0209 56.1284 7.62183L55.9503 0.00790964L53.435 0.066747ZM51.0894 6.6514C49.6958 6.684 48.655 5.8071 48.6236 4.46447C48.5922 3.12184 49.5908 2.19723 50.9844 2.16463C52.378 2.13203 53.4018 3.00933 53.4332 4.35196C53.4646 5.69459 52.483 6.6188 51.0894 6.6514Z" fill="#463B32"/>
<path d="M65.3038 1.01573C63.8686 0.737013 62.3422 0.838889 61.2215 1.34858L61.8028 3.34909C62.5541 2.95815 63.6003 2.83228 64.5515 3.01701C65.9533 3.28924 66.4944 4.06971 66.2773 5.18782L64.208 4.78596C61.4711 4.25446 60.1391 5.13875 59.8312 6.72413C59.5298 8.27614 60.5546 9.68738 62.6573 10.0957C63.9757 10.3517 64.9945 10.0993 65.6372 9.3756L65.4201 10.4937L67.8566 10.9669L68.8515 5.84359C69.3798 3.12341 68.0407 1.54722 65.3038 1.01573ZM63.6484 8.46985C62.7306 8.2916 62.2641 7.75076 62.3905 7.09992C62.5072 6.49914 62.9785 6.1231 64.1967 6.35968L65.9824 6.70645L65.8041 7.62431C65.3449 8.38369 64.5162 8.63837 63.6484 8.46985Z" fill="#463B32"/>
<path d="M80.0719 5.48727C78.9338 4.99245 77.7822 4.95517 76.8156 5.38763L77.2426 4.40545L74.9197 3.39548L71.2729 11.783L73.705 12.8404L75.508 8.69343C76.1791 7.15 77.3328 6.79888 78.502 7.30726C79.5778 7.77496 79.9302 8.66971 79.3405 10.0261L77.4155 14.4537L79.8475 15.5111L81.9353 10.7093C83.0469 8.15252 82.0519 6.34812 80.0719 5.48727Z" fill="#463B32"/>
</svg>
