<svg width="69" height="89" viewBox="0 0 69 89" fill="none" xmlns="http://www.w3.org/2000/svg">
<path d="M9.58611 58.8275C12.1822 65.0412 16.9698 70.225 23.0684 73.4254C26.0937 75.0127 30.0348 75.9569 33.5438 75.9569C33.7879 75.9569 34.0284 75.9505 34.2679 75.9413C34.4162 75.9468 34.5673 75.9505 34.7285 75.9505C37.7299 75.9505 42.3628 75.0504 45.46 73.4254C51.5586 70.225 56.3462 65.0421 58.9423 58.8275C61.6507 52.3456 61.6139 45.44 58.8502 39.3829C57.3964 36.2037 53.0657 29.6961 48.4798 22.8052C43.3144 15.0429 37.9713 7.01522 35.951 2.64487L34.7276 0L31.6553 6.24046H31.6635C29.1329 11.2566 23.763 18.7352 19.0251 25.3331C14.7073 31.3469 10.9799 36.5372 9.67915 39.3838C6.91084 45.44 6.87767 52.3456 9.58611 58.8275ZM12.2098 40.539C13.3973 37.9402 17.2268 32.6063 21.2812 26.9591C26.079 20.2774 31.5171 12.702 34.1444 7.49334L34.722 6.34733C37.3135 11.0521 41.799 17.7928 46.161 24.3465C50.6834 31.1424 54.9561 37.5607 56.3168 40.539C61.2914 51.4143 55.9483 64.7777 44.1657 70.9629C41.7704 72.2186 38.2034 72.9896 35.623 73.1416V73.1011L34.2633 73.1601L32.9017 73.1011V73.1582C30.0118 73.0495 26.7893 72.237 24.3627 70.9602C12.5755 64.7777 7.23879 51.4143 12.2098 40.539Z" fill="#463B32"/>
<path d="M18.2927 56.2157C17.1872 53.4972 16.7109 51.0642 16.7109 48.0785C16.7109 47.8959 16.675 47.7151 16.6051 47.5465C16.5353 47.3778 16.4329 47.2246 16.3038 47.0955C16.1747 46.9664 16.0214 46.864 15.8528 46.7941C15.6841 46.7243 15.5034 46.6883 15.3208 46.6883C15.1382 46.6883 14.9575 46.7243 14.7888 46.7941C14.6202 46.864 14.4669 46.9664 14.3378 47.0955C14.2087 47.2246 14.1063 47.3778 14.0365 47.5465C13.9666 47.7151 13.9307 47.8959 13.9307 48.0785C13.9307 51.4465 14.465 54.1945 15.7179 57.266C15.7868 57.4353 15.8885 57.5895 16.017 57.7195C16.1455 57.8496 16.2984 57.9531 16.4669 58.0241C16.6354 58.0951 16.8163 58.1323 16.9992 58.1334C17.182 58.1345 17.3633 58.0995 17.5327 58.0306C17.7021 57.9616 17.8562 57.86 17.9863 57.7315C18.1164 57.6029 18.2199 57.45 18.2909 57.2815C18.3619 57.113 18.399 56.9321 18.4001 56.7493C18.4012 56.5664 18.3663 56.3851 18.2973 56.2157H18.2927Z" fill="#463B32"/>
<path d="M18.7524 61.5036C18.8768 61.503 19.0005 61.4869 19.1209 61.4557C19.1908 61.4398 19.2592 61.4179 19.3254 61.3903C19.3919 61.3646 19.4562 61.3338 19.518 61.2982C19.6809 61.1945 19.821 61.0587 19.9299 60.8991C20.0387 60.7396 20.114 60.5596 20.1512 60.37C20.1883 60.1805 20.1865 59.9853 20.1459 59.7965C20.1053 59.6077 20.0268 59.429 19.915 59.2715C19.2296 58.3503 18.324 58.587 17.9426 58.8422C17.9003 58.8704 17.8597 58.9012 17.821 58.9343C17.5585 59.1522 17.3852 59.4591 17.3342 59.7964C17.2833 60.1338 17.3582 60.4782 17.5447 60.7639C17.9215 61.3489 18.3756 61.5036 18.7524 61.5036Z" fill="#463B32"/>
<path d="M28.4309 65.7082C26.1631 64.8851 24.0873 63.6077 22.3305 61.9541C22.1983 61.8247 22.0415 61.7229 21.8695 61.6548C21.6974 61.5866 21.5135 61.5535 21.3285 61.5573C21.1434 61.5612 20.961 61.6019 20.792 61.6771C20.6229 61.7523 20.4705 61.8605 20.3437 61.9953C20.217 62.1302 20.1184 62.289 20.0538 62.4624C19.9892 62.6358 19.9598 62.8204 19.9674 63.0053C19.975 63.1902 20.0194 63.3717 20.0981 63.5392C20.1767 63.7067 20.288 63.8569 20.4254 63.9809C22.4561 65.8947 24.8565 67.3734 27.4793 68.3263C27.652 68.3937 27.8363 68.4259 28.0216 68.421C28.2069 68.4161 28.3893 68.3742 28.5582 68.2978C28.7271 68.2215 28.879 68.1121 29.005 67.9762C29.131 67.8402 29.2286 67.6805 29.292 67.5064C29.3554 67.3322 29.3834 67.1471 29.3743 66.962C29.3652 66.7769 29.3192 66.5954 29.2389 66.4283C29.1587 66.2613 29.0459 66.1119 28.9072 65.989C28.7684 65.8661 28.6065 65.7722 28.4309 65.7128V65.7082Z" fill="#463B32"/>
<path d="M31.4609 53.5709C34.6603 53.5709 37.3236 50.6395 37.3236 47.0375V42.3391C37.3236 38.7362 34.6603 35.8057 31.4609 35.8057C28.2614 35.8057 25.5972 38.739 25.5972 42.3401V47.0384C25.5972 50.6395 28.2605 53.5709 31.4609 53.5709ZM27.5917 42.3401C27.5917 39.779 29.3006 37.6961 31.4609 37.6961C33.6212 37.6961 35.3301 39.779 35.3301 42.3401V47.0384C35.3301 49.5985 33.6203 51.6814 31.4609 51.6814C29.3015 51.6814 27.5917 49.5985 27.5917 47.0384V42.3401Z" fill="#9C6137" fill-opacity="0.69"/>
<path d="M40.6769 47.7993C40.734 47.7993 40.7921 47.8058 40.8492 47.8058C41.3359 47.8052 41.8121 47.6646 42.221 47.4007C42.63 47.1368 42.9543 46.7607 43.1553 46.3175C43.3563 45.8742 43.4254 45.3825 43.3545 44.901C43.2835 44.4195 43.0755 43.9686 42.7552 43.6022C42.4809 43.288 42.1334 43.0464 41.7434 42.8987C41.3534 42.7511 40.933 42.7019 40.5194 42.7555C40.1058 42.8092 39.7119 42.964 39.3725 43.2063C39.0331 43.4487 38.7587 43.771 38.5736 44.1447C38.3885 44.5184 38.2985 44.932 38.3116 45.3488C38.3246 45.7657 38.4402 46.1728 38.6482 46.5343C38.8563 46.8957 39.1502 47.2003 39.5041 47.421C39.858 47.6416 40.2608 47.7716 40.6769 47.7993ZM40.8455 44.6257H40.8897C41.0608 44.631 41.2226 44.7041 41.3398 44.8289C41.4569 44.9536 41.5197 45.1198 41.5143 45.2908C41.509 45.4618 41.4359 45.6237 41.3111 45.7408C41.1864 45.858 41.0202 45.9208 40.8492 45.9154C40.8339 45.9163 40.8185 45.9163 40.8031 45.9154C40.6326 45.9038 40.4737 45.825 40.3612 45.6963C40.2488 45.5676 40.192 45.3996 40.2034 45.2291C40.2139 45.0658 40.2861 44.9126 40.4053 44.8006C40.5246 44.6886 40.6819 44.626 40.8455 44.6257Z" fill="#9C6137" fill-opacity="0.69"/>
<path d="M43.8045 50.5354C43.76 51.2061 43.9836 51.8671 44.4262 52.373C44.8687 52.879 45.4941 53.1885 46.1647 53.2337C46.2219 53.2337 46.279 53.2392 46.3352 53.2392C46.8294 53.239 47.3127 53.0944 47.7258 52.8231C48.1389 52.5518 48.4637 52.1657 48.6602 51.7123C48.8568 51.2589 48.9166 50.7579 48.8321 50.271C48.7477 49.784 48.5229 49.3324 48.1851 48.9716C47.8474 48.6107 47.4116 48.3565 46.9314 48.2401C46.4511 48.1237 45.9472 48.1502 45.4818 48.3163C45.0164 48.4825 44.6096 48.781 44.3116 49.1753C44.0137 49.5695 43.8374 50.0423 43.8045 50.5354ZM46.9773 50.7473C46.9688 50.8726 46.924 50.9928 46.8482 51.093C46.7724 51.1932 46.669 51.2691 46.5506 51.3113C46.4323 51.3535 46.3042 51.3603 46.1821 51.3307C46.06 51.3012 45.9492 51.2366 45.8633 51.1449C45.7774 51.0533 45.7201 50.9385 45.6986 50.8147C45.677 50.6909 45.692 50.5636 45.7419 50.4482C45.7917 50.3329 45.8741 50.2346 45.979 50.1655C46.0839 50.0964 46.2068 50.0594 46.3324 50.0591H46.3766C46.4613 50.0647 46.544 50.087 46.6201 50.1246C46.6961 50.1623 46.764 50.2146 46.8198 50.2785C46.8756 50.3425 46.9182 50.4168 46.9452 50.4972C46.9723 50.5776 46.9831 50.6626 46.9773 50.7473Z" fill="#9C6137" fill-opacity="0.69"/>
<path d="M40.2716 52.7878C40.3737 52.8582 40.4888 52.9078 40.6101 52.9337C40.7314 52.9596 40.8566 52.9614 40.9786 52.9389C41.1006 52.9164 41.217 52.8701 41.3211 52.8026C41.4252 52.7351 41.5149 52.6477 41.5853 52.5455L47.0537 44.6026C47.1961 44.396 47.2505 44.1414 47.205 43.8947C47.1596 43.648 47.018 43.4294 46.8114 43.2871C46.6049 43.1448 46.3502 43.0904 46.1035 43.1358C45.8568 43.1812 45.6382 43.3228 45.4959 43.5294L40.0284 51.4723C39.9576 51.5745 39.9078 51.6897 39.8817 51.8113C39.8556 51.9329 39.8538 52.0584 39.8764 52.1806C39.899 52.3029 39.9456 52.4195 40.0134 52.5237C40.0812 52.6279 40.169 52.7176 40.2716 52.7878Z" fill="#9C6137" fill-opacity="0.69"/>
<path d="M14.9782 81.9059C13.8769 81.9059 12.7629 82.2004 12.0074 82.7383L12.7245 84.134C13.2239 83.7371 13.9794 83.4938 14.7093 83.4938C15.7849 83.4938 16.2971 83.9932 16.2971 84.8511H14.7093C12.6092 84.8511 11.7513 85.6963 11.7513 86.9128C11.7513 88.1036 12.7117 89 14.3251 89C15.3367 89 16.0538 88.6671 16.4252 88.0396V88.8976H18.2947V84.9664C18.2947 82.8791 17.0782 81.9059 14.9782 81.9059ZM14.8245 87.6555C14.1202 87.6555 13.6977 87.3225 13.6977 86.8231C13.6977 86.3621 13.9922 86.0164 14.927 86.0164H16.2971V86.7207C16.0666 87.3481 15.4904 87.6555 14.8245 87.6555Z" fill="#463B32"/>
<path d="M24.0083 87.1561C23.7906 87.3225 23.496 87.4121 23.2015 87.4121C22.6637 87.4121 22.3436 87.092 22.3436 86.503V83.6986H24.0595V82.162H22.3436V80.4845H20.346V82.162H19.2831V83.6986H20.346V86.5286C20.346 88.1677 21.2936 89 22.9198 89C23.5345 89 24.1363 88.8591 24.5461 88.5646L24.0083 87.1561Z" fill="#463B32"/>
<path d="M32.2032 85.4786C32.2032 83.2633 30.6409 81.9059 28.6177 81.9059C26.5177 81.9059 24.9426 83.3913 24.9426 85.453C24.9426 87.5018 26.4921 89 28.8738 89C30.1159 89 31.0763 88.6158 31.7166 87.8859L30.6537 86.7335C30.18 87.1817 29.6549 87.3993 28.925 87.3993C27.875 87.3993 27.1451 86.8743 26.953 86.0164H32.1648C32.1776 85.8499 32.2032 85.6322 32.2032 85.4786ZM28.6305 83.4169C29.5269 83.4169 30.18 83.9804 30.3208 84.8511H26.9274C27.0683 83.9676 27.7214 83.4169 28.6305 83.4169Z" fill="#463B32"/>
<path d="M35.4411 82.9175V82.0084H33.5331V88.8976H35.5307V85.645C35.5307 84.3261 36.2606 83.7243 37.3619 83.7243C37.5155 83.7243 37.6436 83.7371 37.81 83.7499V81.9059C36.7472 81.9059 35.9277 82.2517 35.4411 82.9175Z" fill="#463B32"/>
<path d="M44.864 81.8675C44.864 81.1888 45.1841 80.8687 45.7732 80.8687C46.0805 80.8687 46.3622 80.9583 46.5799 81.112L47.1049 79.665C46.7336 79.4089 46.1445 79.2937 45.5811 79.2937C43.8652 79.2937 42.9176 80.3053 42.9176 81.8547V82.162H41.8548V83.6986H42.9176V88.8976H44.9152V83.6986H46.6311V82.162H44.864V81.8675Z" fill="#463B32"/>
<path d="M50.5597 82.9175V82.0084H48.6517V88.8976H50.6494V85.645C50.6494 84.3261 51.3792 83.7243 52.4805 83.7243C52.6342 83.7243 52.7622 83.7371 52.9287 83.7499V81.9059C51.8658 81.9059 51.0463 82.2517 50.5597 82.9175Z" fill="#463B32"/>
<path d="M60.8023 85.4786C60.8023 83.2633 59.24 81.9059 57.2168 81.9059C55.1168 81.9059 53.5417 83.3913 53.5417 85.453C53.5417 87.5018 55.0912 89 57.4729 89C58.715 89 59.6754 88.6158 60.3157 87.8859L59.2528 86.7335C58.7791 87.1817 58.254 87.3993 57.5241 87.3993C56.4741 87.3993 55.7442 86.8743 55.5521 86.0164H60.7639C60.7767 85.8499 60.8023 85.6322 60.8023 85.4786ZM57.2296 83.4169C58.126 83.4169 58.7791 83.9804 58.9199 84.8511H55.5265C55.6674 83.9676 56.3204 83.4169 57.2296 83.4169Z" fill="#463B32"/>
<path d="M68.8805 85.4786C68.8805 83.2633 67.3183 81.9059 65.2951 81.9059C63.195 81.9059 61.62 83.3913 61.62 85.453C61.62 87.5018 63.1694 89 65.5512 89C66.7933 89 67.7537 88.6158 68.3939 87.8859L67.3311 86.7335C66.8573 87.1817 66.3323 87.3993 65.6024 87.3993C64.5524 87.3993 63.8225 86.8743 63.6304 86.0164H68.8421C68.8549 85.8499 68.8805 85.6322 68.8805 85.4786ZM65.3079 83.4169C66.2043 83.4169 66.8573 83.9804 66.9982 84.8511H63.6048C63.7457 83.9676 64.3987 83.4169 65.3079 83.4169Z" fill="#463B32"/>
<path d="M9.5939 82.4593L8.2061 86.4537L6.85451 82.4593H4.89952L3.51173 86.4175L2.1722 82.4593H0L2.32908 89H4.54956L5.82874 85.44L7.05966 89H9.28013L11.6092 82.4593H9.5939Z" fill="#463B32"/>
</svg>
