<svg width="61" height="50" viewBox="0 0 61 50" fill="none" xmlns="http://www.w3.org/2000/svg">
<circle cx="3.89882" cy="4.78908" r="2.82275" transform="rotate(57.4261 3.89882 4.78908)" fill="#E6D6C8"/>
<circle cx="17.1996" cy="4.96877" r="2.82275" transform="rotate(57.4261 17.1996 4.96877)" fill="#E6D6C8"/>
<circle cx="30.5004" cy="4.96877" r="2.82275" transform="rotate(57.4261 30.5004 4.96877)" fill="#E6D6C8"/>
<circle cx="43.8012" cy="4.96877" r="2.82275" transform="rotate(57.4261 43.8012 4.96877)" fill="#E6D6C8"/>
<circle cx="57.1019" cy="4.96877" r="2.82275" transform="rotate(57.4261 57.1019 4.96877)" fill="#E6D6C8"/>
<circle r="2.82275" transform="matrix(0.538377 0.842704 -0.842691 0.538397 3.89881 14.8204)" fill="#E6D6C8"/>
<circle cx="17.1996" cy="15" r="2.82275" transform="rotate(57.4261 17.1996 15)" fill="#E6D6C8"/>
<circle cx="30.5004" cy="15" r="2.82275" transform="rotate(57.4261 30.5004 15)" fill="#E6D6C8"/>
<circle cx="43.8012" cy="15" r="2.82275" transform="rotate(57.4261 43.8012 15)" fill="#E6D6C8"/>
<circle cx="57.1019" cy="15" r="2.82275" transform="rotate(57.4261 57.1019 15)" fill="#E6D6C8"/>
<circle cx="3.89882" cy="25.1641" r="2.82275" transform="rotate(57.4261 3.89882 25.1641)" fill="#E6D6C8"/>
<circle cx="17.1996" cy="25.3438" r="2.82275" transform="rotate(57.4261 17.1996 25.3438)" fill="#E6D6C8"/>
<circle cx="30.5004" cy="25.3438" r="2.82275" transform="rotate(57.4261 30.5004 25.3438)" fill="#E6D6C8"/>
<circle cx="43.8012" cy="25.3438" r="2.82275" transform="rotate(57.4261 43.8012 25.3438)" fill="#E6D6C8"/>
<circle cx="57.1019" cy="25.3438" r="2.82275" transform="rotate(57.4261 57.1019 25.3438)" fill="#E6D6C8"/>
<circle cx="3.89882" cy="35.5117" r="2.82275" transform="rotate(57.4261 3.89882 35.5117)" fill="#E6D6C8"/>
<circle cx="17.1996" cy="35.6875" r="2.82275" transform="rotate(57.4261 17.1996 35.6875)" fill="#E6D6C8"/>
<circle cx="3.89882" cy="45.1836" r="2.82275" transform="rotate(57.4261 3.89882 45.1836)" fill="#E6D6C8"/>
<circle cx="17.1996" cy="45.3633" r="2.82275" transform="rotate(57.4261 17.1996 45.3633)" fill="#E6D6C8"/>
<circle cx="30.5004" cy="45.3633" r="2.82275" transform="rotate(57.4261 30.5004 45.3633)" fill="#E6D6C8"/>
<circle cx="43.8012" cy="45.3633" r="2.82275" transform="rotate(57.4261 43.8012 45.3633)" fill="#E6D6C8"/>
<circle cx="57.1019" cy="45.3633" r="2.82275" transform="rotate(57.4261 57.1019 45.3633)" fill="#E6D6C8"/>
<circle cx="30.5004" cy="35.6875" r="2.82275" transform="rotate(57.4261 30.5004 35.6875)" fill="#E6D6C8"/>
<circle cx="43.8012" cy="35.6875" r="2.82275" transform="rotate(57.4261 43.8012 35.6875)" fill="#E6D6C8"/>
<circle cx="57.1019" cy="35.6875" r="2.82275" transform="rotate(57.4261 57.1019 35.6875)" fill="#E6D6C8"/>
</svg>
