<svg width="113" height="143" viewBox="0 0 113 143" fill="none" xmlns="http://www.w3.org/2000/svg">
<path d="M74.2 57L72.6969 55.6806L70.3159 58.3931L73.8782 58.9739L74.2 57ZM102.4 70.8L100.919 72.144L100.925 72.1509L100.931 72.1577L102.4 70.8ZM105.8 119.8L107.494 120.863L107.499 120.856L107.503 120.848L105.8 119.8ZM86.2 136.2L85.3497 134.39L85.3391 134.395L86.2 136.2ZM25 138.6L24.4577 140.525L24.4737 140.53L24.4897 140.534L25 138.6ZM0.8 127.4L-0.983066 126.494L-1.75925 128.022L-0.368609 129.023L0.8 127.4ZM13.4 102.6L14.6 101L12.6953 99.5715L11.6169 101.694L13.4 102.6ZM31.8 112L31.1785 113.901L31.2002 113.908L31.222 113.915L31.8 112ZM72.6 110.6L73.6984 112.271L73.7148 112.261L73.7311 112.249L72.6 110.6ZM38.6 80H36.6V82H38.6V80ZM38.6 58.6L37.1011 57.2758L36.6 57.8431V58.6H38.6ZM67.4 26L68.8989 27.3241L71.8355 24H67.4V26ZM7.8 26H5.8V28H7.8V26ZM7.8 -7.62939e-06V-2.00001H5.8V-7.62939e-06H7.8ZM105.8 -7.62939e-06H107.8V-2.00001H105.8V-7.62939e-06ZM105.8 21L107.303 22.3194L107.8 21.7533V21H105.8ZM73.8782 58.9739C85.8244 60.9217 94.7656 65.3628 100.919 72.144L103.881 69.456C96.9677 61.8372 87.1089 57.0783 74.5218 55.0261L73.8782 58.9739ZM100.931 72.1577C107.09 78.8185 110.2 87.1183 110.2 97.2H114.2C114.2 86.215 110.777 76.9148 103.869 69.4423L100.931 72.1577ZM110.2 97.2C110.2 104.963 108.17 112.133 104.097 118.752L107.503 120.848C111.964 113.6 114.2 105.704 114.2 97.2H110.2ZM104.106 118.737C100.082 125.149 93.8765 130.385 85.3497 134.39L87.0503 138.01C96.1235 133.749 102.984 128.051 107.494 120.863L104.106 118.737ZM85.3391 134.395C77.0128 138.366 66.6597 140.4 54.2 140.4V144.4C67.0736 144.4 78.0539 142.301 87.061 138.005L85.3391 134.395ZM54.2 140.4C44.5067 140.4 34.9448 139.156 25.5103 136.666L24.4897 140.534C34.2552 143.111 44.16 144.4 54.2 144.4V140.4ZM25.5423 136.675C16.2573 134.059 8.41248 130.417 1.96861 125.777L-0.368609 129.023C6.52085 133.983 14.8094 137.807 24.4577 140.525L25.5423 136.675ZM2.58307 128.306L15.1831 103.506L11.6169 101.694L-0.983066 126.494L2.58307 128.306ZM12.2 104.2C17.7241 108.343 24.0567 111.573 31.1785 113.901L32.4215 110.099C25.6766 107.894 19.7426 104.857 14.6 101L12.2 104.2ZM31.222 113.915C38.4749 116.104 45.8696 117.2 53.4 117.2V113.2C46.2638 113.2 39.2585 112.162 32.378 110.085L31.222 113.915ZM53.4 117.2C61.7548 117.2 68.5883 115.629 73.6984 112.271L71.5016 108.929C67.2783 111.704 61.3119 113.2 53.4 113.2V117.2ZM73.7311 112.249C78.9502 108.671 81.6 103.582 81.6 97.2H77.6C77.6 102.284 75.5832 106.129 71.4689 108.951L73.7311 112.249ZM81.6 97.2C81.6 90.8708 79.1396 85.9053 74.1476 82.6281C69.3024 79.4473 62.2885 78 53.4 78V82C61.9781 82 68.0643 83.4194 71.9524 85.9719C75.6938 88.4281 77.6 92.0625 77.6 97.2H81.6ZM53.4 78H38.6V82H53.4V78ZM40.6 80V58.6H36.6V80H40.6ZM40.0989 59.9241L68.8989 27.3241L65.9011 24.6758L37.1011 57.2758L40.0989 59.9241ZM67.4 24H7.8V28H67.4V24ZM9.8 26V-7.62939e-06H5.8V26H9.8ZM7.8 1.99999H105.8V-2.00001H7.8V1.99999ZM103.8 -7.62939e-06V21H107.8V-7.62939e-06H103.8ZM104.297 19.6806L72.6969 55.6806L75.7031 58.3194L107.303 22.3194L104.297 19.6806Z" fill="#9C6137" fill-opacity="0.66"/>
</svg>
