<svg width="193" height="130" viewBox="0 0 193 130" fill="none" xmlns="http://www.w3.org/2000/svg">
<g clip-path="url(#clip0_810_616)">
<path d="M81.3854 47.8135C81.2457 47.8136 81.1073 47.786 80.9782 47.7323C80.8492 47.6786 80.7321 47.5998 80.6337 47.5005L65.3366 32.2047C65.2377 32.1058 65.1592 31.9884 65.1057 31.8592C65.0522 31.73 65.0247 31.5915 65.0247 31.4517C65.0247 31.3118 65.0522 31.1733 65.1057 31.0441C65.1592 30.9149 65.2377 30.7975 65.3366 30.6986C65.4355 30.5997 65.5529 30.5213 65.6821 30.4678C65.8113 30.4143 65.9497 30.3867 66.0896 30.3867C66.2294 30.3867 66.3679 30.4143 66.4971 30.4678C66.6263 30.5213 66.7437 30.5997 66.8426 30.6986L82.1385 45.9957C82.2868 46.1448 82.3877 46.3345 82.4285 46.5409C82.4692 46.7473 82.448 46.9611 82.3675 47.1555C82.287 47.3498 82.1508 47.516 81.9761 47.6331C81.8013 47.7502 81.5958 47.813 81.3854 47.8135Z" fill="#463B32"/>
<path d="M81.3854 48.0603C81.2131 48.0608 81.0425 48.0271 80.8834 47.9611C80.7243 47.8951 80.5799 47.7981 80.4586 47.6758L65.1628 32.3788C64.9186 32.1331 64.7816 31.8008 64.7816 31.4544C64.7816 31.1081 64.9186 30.7758 65.1628 30.5301C65.4083 30.2857 65.7407 30.1484 66.0871 30.1484C66.4336 30.1484 66.7659 30.2857 67.0114 30.5301L82.3122 45.8247C82.4954 46.0081 82.6201 46.2416 82.6706 46.4959C82.7212 46.7502 82.6952 47.0137 82.596 47.2532C82.4968 47.4927 82.3289 47.6974 82.1134 47.8415C81.8979 47.9856 81.6446 48.0626 81.3854 48.0628V48.0603ZM66.0896 30.6336C65.9279 30.6339 65.7699 30.682 65.6356 30.772C65.5013 30.8619 65.3966 30.9896 65.3347 31.139C65.2729 31.2884 65.2567 31.4527 65.2882 31.6113C65.3196 31.7699 65.3974 31.9156 65.5116 32.03L80.8074 47.327C80.9632 47.4758 81.1705 47.5588 81.386 47.5588C81.6015 47.5588 81.8087 47.4758 81.9646 47.327C82.1177 47.1736 82.2037 46.9657 82.2037 46.749C82.2037 46.5323 82.1177 46.3244 81.9646 46.171L66.6688 30.874C66.593 30.7975 66.5028 30.7369 66.4033 30.6956C66.3039 30.6544 66.1972 30.6333 66.0896 30.6336Z" fill="#463B32"/>
<path d="M93.1182 33.7313C92.9785 33.7318 92.8401 33.7044 92.711 33.6509C92.5819 33.5974 92.4648 33.5187 92.3664 33.4195L80.975 22.0367C80.7753 21.837 80.6631 21.5661 80.6631 21.2837C80.6631 21.0012 80.7753 20.7304 80.975 20.5307C81.1747 20.3309 81.4456 20.2188 81.728 20.2188C82.0104 20.2188 82.2813 20.3309 82.481 20.5307L93.8663 31.9159C94.0152 32.0648 94.1167 32.2546 94.1578 32.4612C94.1989 32.6677 94.1778 32.8819 94.0972 33.0765C94.0166 33.271 93.8801 33.4374 93.7049 33.5544C93.5298 33.6714 93.3239 33.7338 93.1133 33.7338L93.1182 33.7313Z" fill="#463B32"/>
<path d="M93.1182 33.9806C92.9456 33.9813 92.7746 33.9476 92.6152 33.8814C92.4558 33.8151 92.3113 33.7177 92.1901 33.5948L80.805 22.2108C80.6217 22.0273 80.497 21.7936 80.4465 21.5393C80.396 21.2849 80.4221 21.0213 80.5214 20.7817C80.6207 20.5422 80.7888 20.3374 81.0045 20.1934C81.2202 20.0494 81.4737 19.9726 81.733 19.9727C81.9053 19.972 82.076 20.0057 82.2351 20.0717C82.3942 20.1377 82.5386 20.2348 82.6598 20.3572L94.0449 31.7424C94.2282 31.9258 94.3529 32.1594 94.4034 32.4137C94.4539 32.6679 94.428 32.9314 94.3288 33.1709C94.2296 33.4104 94.0617 33.6152 93.8462 33.7593C93.6307 33.9034 93.3774 33.9804 93.1182 33.9806ZM81.733 20.4656C81.5711 20.4656 81.4128 20.5137 81.2782 20.6037C81.1436 20.6937 81.0388 20.8216 80.9769 20.9712C80.915 21.1209 80.8989 21.2855 80.9306 21.4443C80.9623 21.603 81.0404 21.7488 81.155 21.8632L92.5402 33.2473C92.6956 33.3965 92.9027 33.4799 93.1182 33.4799C93.3336 33.4799 93.5408 33.3965 93.6962 33.2473C93.7723 33.1713 93.8327 33.0812 93.8739 32.9819C93.9151 32.8826 93.9363 32.7761 93.9363 32.6686C93.9363 32.5611 93.9151 32.4547 93.8739 32.3554C93.8327 32.2561 93.7723 32.1659 93.6962 32.09L82.3123 20.7047C82.2362 20.6287 82.1459 20.5684 82.0465 20.5274C81.9471 20.4863 81.8406 20.4653 81.733 20.4656Z" fill="#463B32"/>
<path d="M87.5131 44.8565C87.2326 44.857 86.9633 44.7467 86.7638 44.5497L68.9907 26.9948C68.7897 26.7964 68.6757 26.5262 68.6739 26.2438C68.672 25.9614 68.7824 25.6898 68.9808 25.4887C69.1792 25.2877 69.4494 25.1737 69.7318 25.1719C70.0143 25.17 70.2859 25.2805 70.4869 25.4789L88.2624 43.0362C88.4126 43.1845 88.5153 43.3742 88.5573 43.5811C88.5994 43.7879 88.5789 44.0026 88.4985 44.1978C88.4182 44.393 88.2816 44.5599 88.1061 44.6772C87.9306 44.7945 87.7242 44.8569 87.5131 44.8565Z" fill="#463B32"/>
<path d="M87.513 45.1065C87.1676 45.1072 86.836 44.9706 86.5912 44.7269L68.817 27.172C68.5695 26.9269 68.4296 26.5935 68.428 26.2452C68.4264 25.8969 68.5632 25.5622 68.8083 25.3148C69.0535 25.0673 69.3869 24.9274 69.7352 24.9258C70.0835 24.9242 70.4182 25.061 70.6656 25.3061L88.4349 42.8684C88.6199 43.0511 88.7464 43.2848 88.7983 43.5396C88.8502 43.7945 88.8252 44.059 88.7264 44.2996C88.6275 44.5401 88.4594 44.7459 88.2434 44.8907C88.0273 45.0354 87.7731 45.1127 87.513 45.1126V45.1065ZM69.7401 25.4208C69.6315 25.4208 69.5241 25.4427 69.4242 25.485C69.3243 25.5274 69.2339 25.5893 69.1583 25.6672C69.0051 25.8211 68.9191 26.0294 68.9191 26.2465C68.9191 26.4636 69.0051 26.6719 69.1583 26.8257L86.9375 44.3769C87.0943 44.5248 87.3022 44.6065 87.5178 44.6049C87.7334 44.6032 87.9401 44.5185 88.0947 44.3682C88.1706 44.2925 88.2309 44.2025 88.2719 44.1034C88.313 44.0043 88.3342 43.8981 88.3342 43.7908C88.3342 43.6836 88.313 43.5774 88.2719 43.4783C88.2309 43.3792 88.1706 43.2892 88.0947 43.2134L70.3144 25.6561C70.1616 25.5049 69.9551 25.4202 69.7401 25.4208Z" fill="#463B32"/>
<path d="M91.1599 40.0786C90.8837 40.0784 90.6184 39.9705 90.4204 39.7779L74.1264 23.9595C74.0202 23.8639 73.9343 23.7478 73.8739 23.6183C73.8136 23.4887 73.7799 23.3483 73.775 23.2054C73.7701 23.0626 73.7941 22.9202 73.8455 22.7868C73.8968 22.6534 73.9746 22.5318 74.074 22.4291C74.1734 22.3264 74.2926 22.2449 74.4242 22.1893C74.5559 22.1336 74.6974 22.1052 74.8404 22.1055C74.9833 22.1058 75.1247 22.1349 75.2562 22.1911C75.3876 22.2473 75.5063 22.3294 75.6053 22.4325L91.9006 38.2509C92.0528 38.3982 92.1575 38.5876 92.2013 38.7948C92.2452 39.002 92.2261 39.2176 92.1467 39.4139C92.0673 39.6102 91.931 39.7784 91.7555 39.8968C91.5799 40.0152 91.3729 40.0785 91.1611 40.0786H91.1599Z" fill="#463B32"/>
<path d="M91.16 40.3227C90.819 40.3231 90.4914 40.1904 90.2467 39.9529L73.9502 24.1321C73.8212 24.0135 73.7173 23.8703 73.6446 23.7108C73.5719 23.5514 73.5318 23.379 73.5269 23.2039C73.5219 23.0287 73.5521 22.8544 73.6157 22.6911C73.6793 22.5278 73.7749 22.3789 73.897 22.2532C74.0191 22.1275 74.1651 22.0275 74.3264 21.9592C74.4878 21.8909 74.6612 21.8556 74.8364 21.8555C75.0117 21.8553 75.1851 21.8903 75.3466 21.9583C75.5081 22.0263 75.6543 22.1259 75.7766 22.2514L92.0732 38.071C92.2603 38.2528 92.3889 38.4863 92.4426 38.7416C92.4962 38.9969 92.4725 39.2624 92.3745 39.5042C92.2764 39.746 92.1085 39.953 91.8921 40.0988C91.6758 40.2446 91.4209 40.3225 91.16 40.3227ZM74.8671 22.3759C74.7044 22.3758 74.5453 22.4242 74.4103 22.5151C74.2753 22.606 74.1705 22.7351 74.1093 22.8859C74.0481 23.0367 74.0334 23.2023 74.067 23.3615C74.1005 23.5208 74.1809 23.6664 74.2977 23.7796L90.5881 39.598C90.7459 39.7446 90.9541 39.8247 91.1694 39.8217C91.3847 39.8187 91.5905 39.7329 91.7442 39.582C91.895 39.4261 91.978 39.2167 91.9747 38.9998C91.9715 38.7828 91.8824 38.576 91.7269 38.4247L75.4365 22.6063C75.2843 22.4577 75.0798 22.3749 74.8671 22.3759Z" fill="#463B32"/>
<path d="M75.6927 51.2906C75.5514 51.291 75.4113 51.2631 75.2809 51.2085C75.1505 51.1539 75.0324 51.0737 74.9336 50.9726L62.8963 38.716C62.7984 38.6163 62.7211 38.4983 62.6688 38.3687C62.6165 38.2391 62.5902 38.1005 62.5915 37.9608C62.5927 37.821 62.6215 37.6829 62.6761 37.5543C62.7308 37.4257 62.8102 37.3091 62.9099 37.2112C63.0096 37.1133 63.1276 37.0359 63.2572 36.9836C63.3868 36.9313 63.5254 36.905 63.6651 36.9063C63.8049 36.9076 63.943 36.9363 64.0716 36.991C64.2002 37.0456 64.3168 37.125 64.4147 37.2247L76.4532 49.4801C76.5994 49.6301 76.6983 49.8198 76.7374 50.0256C76.7765 50.2314 76.754 50.4442 76.6729 50.6373C76.5918 50.8305 76.4556 50.9955 76.2812 51.1116C76.1069 51.2278 75.9022 51.29 75.6927 51.2906Z" fill="#463B32"/>
<path d="M75.6927 51.5355C75.5184 51.5361 75.3456 51.5017 75.1847 51.4344C75.0239 51.3671 74.8781 51.2682 74.7561 51.1436L62.7201 38.8882C62.4823 38.639 62.3522 38.3062 62.3578 37.9618C62.3635 37.6174 62.5044 37.289 62.7501 37.0477C62.9958 36.8063 63.3267 36.6713 63.6711 36.6719C64.0156 36.6724 64.3459 36.8085 64.5909 37.0507L76.6282 49.306C76.8095 49.4901 76.9324 49.7238 76.9813 49.9776C77.0302 50.2314 77.0029 50.494 76.9029 50.7323C76.8029 50.9706 76.6347 51.174 76.4193 51.317C76.204 51.4599 75.9512 51.5359 75.6927 51.5355ZM63.6542 37.1517C63.4932 37.1516 63.3356 37.1991 63.2015 37.2883C63.0673 37.3775 62.9625 37.5043 62.9002 37.6528C62.8379 37.8014 62.8209 37.965 62.8514 38.1232C62.8818 38.2814 62.9583 38.4271 63.0713 38.5419L75.1086 50.7973C75.263 50.9477 75.4696 51.0327 75.6852 51.0345C75.9008 51.0363 76.1088 50.9549 76.2658 50.8071C76.4204 50.6552 76.5084 50.4481 76.5104 50.2314C76.5125 50.0147 76.4285 49.806 76.2769 49.6511L64.2384 37.397C64.1624 37.3191 64.0715 37.2573 63.9712 37.2151C63.8709 37.173 63.7631 37.1514 63.6542 37.1517Z" fill="#463B32"/>
<path d="M69.6106 53.1807C69.4693 53.1807 69.3295 53.1525 69.1993 53.0977C69.0692 53.0429 68.9513 52.9625 68.8526 52.8615L60.7629 45.0441C60.665 44.9444 60.5877 44.8264 60.5354 44.6968C60.4831 44.5672 60.4568 44.4286 60.4581 44.2889C60.4593 44.1492 60.4881 44.011 60.5427 43.8824C60.5974 43.7538 60.6768 43.6372 60.7765 43.5393C60.8762 43.4414 60.9942 43.3641 61.1238 43.3117C61.2533 43.2594 61.392 43.2332 61.5317 43.2344C61.6714 43.2357 61.8095 43.2644 61.9382 43.3191C62.0668 43.3737 62.1834 43.4532 62.2813 43.5529L70.3759 51.3714C70.5229 51.5213 70.6223 51.7112 70.6616 51.9173C70.701 52.1234 70.6786 52.3366 70.5972 52.53C70.5159 52.7234 70.3791 52.8885 70.2043 53.0045C70.0294 53.1205 69.8241 53.1822 69.6143 53.1819L69.6106 53.1807Z" fill="#463B32"/>
<path d="M69.6108 53.4267C69.4366 53.4271 69.2641 53.3927 69.1034 53.3253C68.9428 53.258 68.7972 53.1593 68.6753 53.0348L60.588 45.2211C60.461 45.1 60.3596 44.9546 60.2898 44.7935C60.22 44.6324 60.1833 44.4589 60.1818 44.2834C60.1803 44.1079 60.2141 43.9338 60.2811 43.7715C60.3482 43.6093 60.4471 43.4622 60.572 43.3389C60.697 43.2156 60.8454 43.1186 61.0085 43.0537C61.1717 42.9889 61.3462 42.9574 61.5217 42.9612C61.6972 42.9651 61.8701 43.0041 62.0303 43.076C62.1904 43.1479 62.3345 43.2513 62.4539 43.3799L70.5425 51.1923C70.7247 51.3762 70.8485 51.6099 70.8981 51.864C70.9478 52.1181 70.9211 52.3812 70.8214 52.6201C70.7218 52.859 70.5537 53.0631 70.3382 53.2067C70.1228 53.3502 69.8696 53.4268 69.6108 53.4267ZM61.5185 43.4834C61.3574 43.4833 61.1999 43.5308 61.0657 43.62C60.9316 43.7092 60.8268 43.836 60.7645 43.9845C60.7022 44.1331 60.6852 44.2967 60.7156 44.4549C60.7461 44.6131 60.8226 44.7588 60.9356 44.8736L69.0204 52.6836C69.174 52.837 69.3814 52.9243 69.5985 52.9271C69.8156 52.9299 70.0252 52.8478 70.1826 52.6984C70.337 52.5462 70.4248 52.3391 70.4266 52.1224C70.4285 51.9057 70.3443 51.697 70.1925 51.5423L62.1064 43.7299C62.03 43.6514 61.9386 43.5891 61.8376 43.5468C61.7366 43.5044 61.628 43.4829 61.5185 43.4834Z" fill="#463B32"/>
<path d="M101.65 9.65539C101.589 9.5258 101.488 9.41914 101.362 9.35098C100.757 9.02192 100.006 9.35098 99.6366 9.85505C99.3569 10.2248 98.4978 10.979 98.1713 11.3056C97.205 12.2657 97.2518 12.2694 96.2881 13.2319C95.1481 14.3732 93.9896 15.507 92.8508 16.6421C91.8846 17.6108 90.9245 18.5869 89.9546 19.5519C89.485 20.0202 89.0006 20.4787 88.5409 20.9568C88.5321 20.9658 88.5239 20.9752 88.5163 20.9852C88.3249 21.1866 88.2198 21.4547 88.2234 21.7325C88.2269 22.0103 88.3389 22.2757 88.5355 22.4721C88.732 22.6684 88.9975 22.7802 89.2752 22.7836C89.553 22.7869 89.8211 22.6816 90.0223 22.49L101.325 11.1885C101.655 10.857 101.878 10.12 101.65 9.65539Z" fill="#463B32"/>
<path d="M89.2693 23.0467C89.009 23.0479 88.7543 22.9715 88.5377 22.8273C88.321 22.6831 88.1522 22.4777 88.0528 22.2372C87.9533 21.9967 87.9278 21.732 87.9794 21.4769C88.031 21.2218 88.1574 20.9879 88.3425 20.8049C88.3481 20.7964 88.3547 20.7885 88.3622 20.7815C88.6654 20.466 88.9784 20.1567 89.2865 19.8584C89.4529 19.6957 89.6181 19.5343 89.7795 19.3716C90.344 18.8088 90.9068 18.2435 91.4679 17.6758C91.8689 17.2715 92.2707 16.8673 92.6733 16.463C93.2731 15.8616 93.8761 15.2626 94.4825 14.6661C95.0248 14.1288 95.5658 13.591 96.1056 13.0529C96.5752 12.5833 96.8056 12.3418 97.0275 12.1076C97.274 11.8611 97.4933 11.6146 97.9888 11.1216C98.0886 11.0218 98.2353 10.8826 98.4041 10.7273C98.7677 10.405 99.1114 10.0609 99.4332 9.69694C99.5977 9.47817 99.809 9.2989 100.052 9.17224C100.294 9.04559 100.562 8.97474 100.836 8.96488C101.06 8.96332 101.281 9.01843 101.478 9.12509C101.649 9.21751 101.786 9.36215 101.87 9.53796C102.148 10.1098 101.896 10.954 101.5 11.3546L90.1973 22.656C90.0765 22.7798 89.9321 22.8781 89.7728 22.9451C89.6134 23.0122 89.4422 23.0468 89.2693 23.0467ZM100.838 9.46648C100.641 9.47693 100.448 9.53044 100.273 9.62327C100.099 9.71609 99.9467 9.84598 99.8276 10.0038C99.6205 10.2787 99.1337 10.7322 98.7443 11.0958C98.5816 11.2486 98.4362 11.3829 98.34 11.4803C97.8471 11.9671 97.624 12.2037 97.3874 12.4527C97.1507 12.7016 96.9314 12.9333 96.4569 13.4066C95.9171 13.9464 95.3752 14.4846 94.8313 15.0211C94.2274 15.6184 93.6251 16.2165 93.0245 16.8155L91.8204 18.027C91.2568 18.5939 90.6932 19.16 90.1295 19.7253C89.9644 19.8892 89.798 20.0507 89.6365 20.2183C89.3346 20.5141 89.0203 20.8209 88.7233 21.129C88.7171 21.1377 88.7061 21.15 88.6962 21.1611C88.6201 21.237 88.5597 21.3272 88.5184 21.4265C88.4772 21.5258 88.456 21.6322 88.456 21.7397C88.456 21.8472 88.4772 21.9537 88.5184 22.053C88.5597 22.1523 88.6201 22.2424 88.6962 22.3183C88.8524 22.4666 89.0595 22.5492 89.2748 22.5492C89.4901 22.5492 89.6973 22.4666 89.8534 22.3183L101.155 11.0169C101.424 10.747 101.605 10.1172 101.435 9.76473C101.395 9.68137 101.33 9.61303 101.249 9.57C101.123 9.50069 100.982 9.46503 100.838 9.46648Z" fill="#463B32"/>
<path d="M92.47 25.8689C92.1945 25.8696 91.9295 25.7636 91.7305 25.5731L91.5974 25.4499C91.4568 25.3147 91.3561 25.1434 91.3062 24.9548C91.2563 24.7662 91.2591 24.5676 91.3145 24.3805C91.3698 24.1934 91.4754 24.0251 91.6199 23.894C91.7643 23.7629 91.942 23.674 92.1335 23.637L111.429 4.34069C111.539 4.23454 111.628 4.10737 111.689 3.96663C111.749 3.82588 111.782 3.6744 111.783 3.52105C111.785 3.3677 111.756 3.21558 111.698 3.07359C111.64 2.9316 111.554 2.80261 111.446 2.69417C111.337 2.58573 111.208 2.50003 111.066 2.44208C110.924 2.38414 110.772 2.35512 110.619 2.35672C110.466 2.35833 110.314 2.39053 110.173 2.45143C110.033 2.51233 109.905 2.60072 109.799 2.7114L106.602 5.91574C106.401 6.10843 106.132 6.21461 105.854 6.21155C105.575 6.2085 105.308 6.09644 105.111 5.89938C104.914 5.70232 104.802 5.43593 104.799 5.15726C104.796 4.87859 104.902 4.60981 105.095 4.40847L108.299 1.21153C108.603 0.90258 108.965 0.656828 109.364 0.488449C109.763 0.320071 110.192 0.232402 110.625 0.2305C111.058 0.228599 111.487 0.312502 111.888 0.477369C112.288 0.642236 112.652 0.884803 112.959 1.19107C113.265 1.49734 113.508 1.86124 113.673 2.26178C113.838 2.66232 113.922 3.09157 113.92 3.52475C113.918 3.95793 113.831 4.38647 113.662 4.78564C113.494 5.1848 113.248 5.54669 112.94 5.85042L93.2218 25.5571C93.0223 25.7565 92.752 25.8686 92.47 25.8689Z" fill="#463B32"/>
<path d="M92.4699 26.1177C92.132 26.1179 91.8071 25.9876 91.5629 25.7541L91.4285 25.6309C91.1786 25.3892 91.0345 25.0584 91.0278 24.7108C91.0211 24.3632 91.1524 24.0271 91.3928 23.776C91.5604 23.6005 91.7739 23.4754 92.009 23.4149L111.254 4.16919C111.423 3.9988 111.518 3.76843 111.518 3.52832C111.518 3.28821 111.423 3.05783 111.254 2.88745C111.081 2.72297 110.852 2.63122 110.613 2.63122C110.375 2.63122 110.146 2.72297 109.973 2.88745L106.776 6.09179C106.659 6.22947 106.514 6.34136 106.351 6.42042C106.189 6.49947 106.011 6.54399 105.83 6.55116C105.65 6.55832 105.469 6.52799 105.301 6.46207C105.132 6.39615 104.979 6.29606 104.851 6.16811C104.723 6.04016 104.623 5.88711 104.557 5.71859C104.491 5.55007 104.461 5.36973 104.468 5.18892C104.475 5.00811 104.52 4.83074 104.599 4.66797C104.678 4.5052 104.79 4.36055 104.927 4.24313L108.132 1.04496C108.448 0.676661 108.837 0.377668 109.275 0.166703C109.712 -0.0442615 110.188 -0.162653 110.673 -0.181059C111.159 -0.199464 111.643 -0.117486 112.095 0.0597406C112.547 0.236968 112.957 0.505627 113.301 0.848893C113.644 1.19216 113.913 1.60264 114.09 2.05462C114.268 2.50661 114.35 2.99036 114.332 3.47559C114.314 3.96083 114.196 4.43708 113.985 4.87453C113.774 5.31199 113.475 5.70122 113.107 6.01784L93.3955 25.7368C93.274 25.8583 93.1297 25.9545 92.9708 26.0199C92.812 26.0852 92.6417 26.1185 92.4699 26.1177ZM110.613 2.1295C110.889 2.13002 111.159 2.21247 111.389 2.36644C111.619 2.52041 111.798 2.739 111.903 2.99458C112.009 3.25016 112.036 3.53127 111.982 3.80241C111.928 4.07355 111.794 4.32256 111.599 4.51797L92.3134 23.8093C92.2795 23.843 92.2368 23.8664 92.1902 23.8771C92.0244 23.908 91.8726 23.9904 91.7564 24.1125C91.6061 24.269 91.5241 24.4788 91.5282 24.6957C91.5324 24.9126 91.6224 25.1191 91.7785 25.2698L91.9116 25.393C92.0682 25.5361 92.2732 25.6144 92.4853 25.6121C92.6974 25.6099 92.9007 25.5271 93.0541 25.3807L112.766 5.66906C113.054 5.38872 113.283 5.054 113.44 4.68434C113.598 4.31468 113.68 3.91744 113.683 3.51567C113.686 3.11389 113.608 2.71559 113.456 2.34387C113.303 1.97216 113.079 1.63443 112.794 1.35028C112.51 1.06614 112.173 0.841243 111.801 0.68864C111.429 0.536038 111.031 0.458771 110.629 0.461323C110.228 0.463875 109.83 0.546195 109.461 0.703506C109.091 0.860817 108.756 1.08999 108.476 1.37771L105.277 4.58205C105.124 4.73568 105.038 4.94376 105.038 5.16068C105.038 5.37761 105.124 5.58569 105.277 5.73931C105.434 5.88783 105.641 5.97066 105.856 5.97066C106.072 5.97066 106.279 5.88783 106.435 5.73931L109.632 2.53497C109.892 2.2756 110.245 2.12985 110.613 2.1295Z" fill="#463B32"/>
<path d="M71.792 80.2107H71.6441C68.5828 80.1626 67.0841 78.8143 66.3742 77.6916C65.0185 75.5668 65.1837 72.3761 66.8302 68.7071C67.8692 66.3938 68.722 64.8101 69.4085 63.5395C69.8892 62.6472 70.3045 61.8769 70.6718 61.0672L72.0274 58.0859L73.3129 61.0956C73.9833 62.6645 74.7228 64.2099 75.4388 65.7049C76.1783 67.2467 76.8746 68.7022 77.4477 70.0825C78.6432 72.959 78.5816 75.6186 77.2764 77.5745C76.1364 79.274 74.1891 80.2107 71.792 80.2107ZM71.9017 64.9814C71.2128 66.257 70.4339 67.71 69.4578 69.8853C68.2747 72.5215 68.0245 74.9198 68.8034 76.1449C69.2963 76.909 70.2614 77.3083 71.6885 77.3305H71.792C72.7854 77.3305 74.1337 77.0938 74.8731 75.9748C75.6126 74.8557 75.583 73.1168 74.7819 71.1855C74.2372 69.8767 73.5557 68.4544 72.8347 66.9484C72.5278 66.3026 72.2135 65.6469 71.9017 64.9814Z" fill="#463B32"/>
<path d="M93.149 72.6323H85.5794C85.3261 72.6325 85.0773 72.5658 84.8581 72.439C84.6389 72.3122 84.457 72.1297 84.3309 71.9101L80.0248 64.423C79.8994 64.2046 79.8334 63.957 79.8334 63.7051C79.8334 63.4532 79.8994 63.2057 80.0248 62.9872L84.3309 55.5002C84.457 55.2805 84.6389 55.0981 84.8581 54.9713C85.0773 54.8444 85.3261 54.7778 85.5794 54.778H93.4361C93.6288 54.7723 93.8206 54.8054 94.0003 54.8752C94.1799 54.9451 94.3437 55.0502 94.482 55.1845C94.6203 55.3188 94.7302 55.4795 94.8053 55.657C94.8803 55.8345 94.919 56.0253 94.919 56.2181C94.919 56.4108 94.8803 56.6016 94.8053 56.7791C94.7302 56.9566 94.6203 57.1173 94.482 57.2516C94.3437 57.3859 94.1799 57.4911 94.0003 57.5609C93.8206 57.6307 93.6288 57.6638 93.4361 57.6582H86.4113L82.9346 63.7045L86.4125 69.7533H93.149C93.5308 69.7533 93.8969 69.905 94.1669 70.1749C94.4368 70.4449 94.5885 70.811 94.5885 71.1928C94.5885 71.5746 94.4368 71.9407 94.1669 72.2107C93.8969 72.4806 93.5308 72.6323 93.149 72.6323Z" fill="#463B32"/>
<path d="M107.257 79.3885C107.005 79.3883 106.757 79.3219 106.539 79.1959C106.32 79.07 106.139 78.8889 106.012 78.6707C105.886 78.4526 105.819 78.2051 105.818 77.953C105.818 77.7009 105.883 77.453 106.008 77.2341C106.956 75.5765 108.503 72.4856 109.184 71.1089L105.271 64.4341C105.078 64.1046 105.024 63.7119 105.12 63.3423C105.216 62.9727 105.456 62.6566 105.785 62.4634C106.115 62.2702 106.507 62.2159 106.877 62.3122C107.247 62.4086 107.563 62.6479 107.756 62.9773L112.062 70.3202C112.182 70.5254 112.25 70.7572 112.258 70.9948C112.267 71.2324 112.217 71.4685 112.113 71.682C112.019 71.8743 109.792 76.4183 108.508 78.6613C108.382 78.8824 108.2 79.0662 107.98 79.194C107.761 79.3217 107.511 79.3888 107.257 79.3885Z" fill="#463B32"/>
<path d="M106.685 80.1207H97.9039C97.6506 80.1208 97.4019 80.0541 97.1827 79.9272C96.9635 79.8004 96.7816 79.6181 96.6554 79.3985L92.3493 71.9102C92.2234 71.6921 92.1571 71.4447 92.1571 71.1929C92.1571 70.9411 92.2234 70.6937 92.3493 70.4757L96.6554 62.9874C96.8458 62.6564 97.1599 62.4146 97.5285 62.3153C97.8972 62.2159 98.2902 62.267 98.6211 62.4574C98.9521 62.6478 99.1938 62.9619 99.2932 63.3305C99.3926 63.6992 99.3415 64.0922 99.1511 64.4231L95.2578 71.1929L98.7357 77.2405H106.685C107.06 77.2515 107.415 77.408 107.676 77.6769C107.937 77.9457 108.084 78.3058 108.084 78.6806C108.084 79.0554 107.937 79.4155 107.676 79.6843C107.415 79.9532 107.06 80.1098 106.685 80.1207Z" fill="#463B32"/>
<path d="M110.995 72.379C110.613 72.379 110.247 72.2274 109.977 71.9574C109.707 71.6875 109.555 71.3213 109.555 70.9396C109.555 70.5578 109.707 70.1916 109.977 69.9217C110.247 69.6517 110.613 69.5001 110.995 69.5001H119.098L122.525 63.0076L118.771 57.3458L110.957 57.4555C110.768 57.4581 110.58 57.4235 110.404 57.3537C110.228 57.2838 110.068 57.18 109.933 57.0482C109.797 56.9164 109.689 56.7592 109.614 56.5856C109.539 56.412 109.499 56.2253 109.497 56.0363C109.494 55.8473 109.529 55.6596 109.599 55.4839C109.668 55.3082 109.772 55.148 109.904 55.0125C110.036 54.8769 110.193 54.7686 110.367 54.6938C110.54 54.619 110.727 54.5792 110.916 54.5765L119.517 54.4532C119.758 54.4502 119.996 54.5077 120.209 54.6202C120.422 54.7328 120.604 54.897 120.737 55.0978L125.397 62.1227C125.54 62.338 125.622 62.5878 125.635 62.8459C125.648 63.1039 125.591 63.3607 125.471 63.5893L121.24 71.6001C121.118 71.8317 120.934 72.0255 120.71 72.1608C120.486 72.296 120.229 72.3677 119.967 72.3679H110.996L110.995 72.379Z" fill="#463B32"/>
<path d="M106.514 65.4337H97.9039C97.6505 65.4338 97.4016 65.3669 97.1823 65.2398C96.9631 65.1128 96.7813 64.9301 96.6554 64.7102L92.3493 57.2232C92.2234 57.0049 92.1571 56.7573 92.1571 56.5053C92.1571 56.2533 92.2234 56.0057 92.3493 55.7874L96.6554 48.3003C96.7814 48.0806 96.9632 47.8981 97.1825 47.7713C97.4017 47.6444 97.6506 47.5778 97.9039 47.5781H106.514C106.767 47.5781 107.016 47.6448 107.235 47.7716C107.454 47.8984 107.636 48.0808 107.762 48.3003L112.068 55.7874C112.194 56.0059 112.26 56.2534 112.26 56.5053C112.26 56.7572 112.194 57.0047 112.068 57.2232L107.762 64.7102C107.636 64.9299 107.454 65.1125 107.235 65.2395C107.016 65.3665 106.767 65.4335 106.514 65.4337ZM98.7358 62.5535H105.681L109.158 56.5059L105.681 50.4583H98.7358L95.2578 56.5059L98.7358 62.5535Z" fill="#463B32"/>
<path d="M73.9399 96.2956C76.3339 96.2956 78.0699 94.6856 78.0699 92.4176C78.0699 90.1496 76.3339 88.5396 73.9399 88.5396C71.5459 88.5396 69.7959 90.1496 69.7959 92.4176C69.7959 94.6856 71.5459 96.2956 73.9399 96.2956ZM73.9399 94.5036C72.8479 94.5036 72.0079 93.7196 72.0079 92.4176C72.0079 91.1156 72.8479 90.3316 73.9399 90.3316C75.0319 90.3316 75.8579 91.1156 75.8579 92.4176C75.8579 93.7196 75.0319 94.5036 73.9399 94.5036ZM81.6158 89.6456V88.6516H79.5298V96.1836H81.7138V92.6276C81.7138 91.1856 82.5118 90.5276 83.7158 90.5276C83.8838 90.5276 84.0238 90.5416 84.2058 90.5556V88.5396C83.0438 88.5396 82.1478 88.9176 81.6158 89.6456ZM91.134 88.6516V89.6176C90.56 88.8896 89.692 88.5396 88.642 88.5396C86.556 88.5396 84.876 89.9816 84.876 92.1796C84.876 94.3776 86.556 95.8196 88.642 95.8196C89.622 95.8196 90.448 95.5116 91.022 94.8816V95.2036C91.022 96.5616 90.35 97.2616 88.81 97.2616C87.844 97.2616 86.794 96.9256 86.15 96.4076L85.282 97.9756C86.164 98.6616 87.55 99.0116 88.978 99.0116C91.694 99.0116 93.206 97.7236 93.206 94.9236V88.6516H91.134ZM89.076 94.0276C87.928 94.0276 87.088 93.2856 87.088 92.1796C87.088 91.0736 87.928 90.3316 89.076 90.3316C90.224 90.3316 91.05 91.0736 91.05 92.1796C91.05 93.2856 90.224 94.0276 89.076 94.0276ZM98.2767 88.5396C97.0727 88.5396 95.8547 88.8616 95.0287 89.4496L95.8127 90.9756C96.3587 90.5416 97.1847 90.2756 97.9827 90.2756C99.1587 90.2756 99.7187 90.8216 99.7187 91.7596H97.9827C95.6867 91.7596 94.7487 92.6836 94.7487 94.0136C94.7487 95.3156 95.7987 96.2956 97.5627 96.2956C98.6687 96.2956 99.4527 95.9316 99.8587 95.2456V96.1836H101.903V91.8856C101.903 89.6036 100.573 88.5396 98.2767 88.5396ZM98.1087 94.8256C97.3387 94.8256 96.8767 94.4616 96.8767 93.9156C96.8767 93.4116 97.1987 93.0336 98.2207 93.0336H99.7187V93.8036C99.4667 94.4896 98.8367 94.8256 98.1087 94.8256ZM108.457 88.5396C107.435 88.5396 106.553 88.8896 105.965 89.5336V88.6516H103.879V96.1836H106.063V92.4596C106.063 91.0736 106.819 90.4296 107.869 90.4296C108.835 90.4296 109.395 90.9896 109.395 92.2076V96.1836H111.579V91.8716C111.579 89.5756 110.235 88.5396 108.457 88.5396ZM114.651 87.6016C115.463 87.6016 116.009 87.0696 116.009 86.3416C116.009 85.6696 115.463 85.1656 114.651 85.1656C113.839 85.1656 113.293 85.6976 113.293 86.3836C113.293 87.0696 113.839 87.6016 114.651 87.6016ZM113.559 96.1836H115.743V88.6516H113.559V96.1836ZM121.41 96.2956C122.992 96.2956 124.238 95.5956 124.784 94.3916L123.09 93.4676C122.684 94.1956 122.082 94.5036 121.396 94.5036C120.29 94.5036 119.422 93.7336 119.422 92.4176C119.422 91.1016 120.29 90.3316 121.396 90.3316C122.082 90.3316 122.684 90.6536 123.09 91.3676L124.784 90.4576C124.238 89.2256 122.992 88.5396 121.41 88.5396C118.96 88.5396 117.21 90.1496 117.21 92.4176C117.21 94.6856 118.96 96.2956 121.41 96.2956ZM70.4193 105.54C69.4813 105.54 68.7113 105.834 68.1513 106.45V102.796H65.9673V113.184H68.0533V112.316C68.5993 112.974 69.4113 113.296 70.4193 113.296C72.5333 113.296 74.1713 111.784 74.1713 109.418C74.1713 107.052 72.5333 105.54 70.4193 105.54ZM70.0413 111.504C68.9493 111.504 68.1233 110.72 68.1233 109.418C68.1233 108.116 68.9493 107.332 70.0413 107.332C71.1333 107.332 71.9593 108.116 71.9593 109.418C71.9593 110.72 71.1333 111.504 70.0413 111.504ZM83.0113 109.446C83.0113 107.024 81.3033 105.54 79.0913 105.54C76.7953 105.54 75.0733 107.164 75.0733 109.418C75.0733 111.658 76.7673 113.296 79.3713 113.296C80.7293 113.296 81.7793 112.876 82.4793 112.078L81.3173 110.818C80.7993 111.308 80.2253 111.546 79.4273 111.546C78.2793 111.546 77.4813 110.972 77.2713 110.034H82.9693C82.9833 109.852 83.0113 109.614 83.0113 109.446ZM79.1053 107.192C80.0853 107.192 80.7993 107.808 80.9533 108.76H77.2433C77.3973 107.794 78.1113 107.192 79.1053 107.192ZM91.8433 109.446C91.8433 107.024 90.1353 105.54 87.9233 105.54C85.6273 105.54 83.9053 107.164 83.9053 109.418C83.9053 111.658 85.5993 113.296 88.2033 113.296C89.5613 113.296 90.6113 112.876 91.3113 112.078L90.1493 110.818C89.6313 111.308 89.0573 111.546 88.2593 111.546C87.1113 111.546 86.3133 110.972 86.1033 110.034H91.8013C91.8153 109.852 91.8433 109.614 91.8433 109.446ZM87.9373 107.192C88.9173 107.192 89.6313 107.808 89.7853 108.76H86.0753C86.2293 107.794 86.9433 107.192 87.9373 107.192ZM95.8313 113.296C98.0853 113.296 99.3873 112.302 99.3873 110.902C99.3873 107.934 94.8373 109.18 94.8373 107.892C94.8373 107.5 95.2573 107.192 96.2373 107.192C96.9233 107.192 97.6653 107.332 98.4073 107.752L99.1353 106.198C98.4213 105.778 97.2733 105.54 96.2373 105.54C94.0393 105.54 92.7513 106.548 92.7513 107.976C92.7513 110.986 97.3013 109.726 97.3013 110.958C97.3013 111.378 96.9233 111.644 95.9153 111.644C94.9913 111.644 93.9693 111.35 93.2973 110.916L92.5693 112.484C93.2693 112.946 94.5573 113.296 95.8313 113.296ZM110.762 105.652L108.928 110.748L107.136 105.652H105.288L103.44 110.748L101.662 105.652H99.6041L102.32 113.184H104.42L106.17 108.508L107.864 113.184H109.964L112.694 105.652H110.762ZM116.501 105.54C115.297 105.54 114.079 105.862 113.253 106.45L114.037 107.976C114.583 107.542 115.409 107.276 116.207 107.276C117.383 107.276 117.943 107.822 117.943 108.76H116.207C113.911 108.76 112.973 109.684 112.973 111.014C112.973 112.316 114.023 113.296 115.787 113.296C116.893 113.296 117.677 112.932 118.083 112.246V113.184H120.127V108.886C120.127 106.604 118.797 105.54 116.501 105.54ZM116.333 111.826C115.563 111.826 115.101 111.462 115.101 110.916C115.101 110.412 115.423 110.034 116.445 110.034H117.943V110.804C117.691 111.49 117.061 111.826 116.333 111.826ZM129.37 113.184L126.458 109.334L129.258 105.652H126.934L125.296 107.85L123.7 105.652H121.25L124.05 109.39L121.152 113.184H123.532L125.24 110.874L126.892 113.184H129.37Z" fill="#BA9174"/>
</g>
<defs>
<clipPath id="clip0_810_616">
<rect width="192.018" height="130" fill="white"/>
</clipPath>
</defs>
</svg>
