<svg width="123" height="83" viewBox="0 0 123 83" fill="none" xmlns="http://www.w3.org/2000/svg">
<g clip-path="url(#clip0_758_1764)">
<path d="M51.9614 30.5287C51.8722 30.5287 51.7838 30.5111 51.7014 30.4768C51.619 30.4425 51.5442 30.3922 51.4814 30.3288L41.7148 20.563C41.6517 20.4999 41.6016 20.4249 41.5675 20.3425C41.5333 20.26 41.5157 20.1715 41.5157 20.0823C41.5157 19.993 41.5333 19.9046 41.5675 19.8221C41.6016 19.7396 41.6517 19.6646 41.7148 19.6015C41.778 19.5383 41.8529 19.4883 41.9354 19.4541C42.0179 19.4199 42.1063 19.4023 42.1956 19.4023C42.2849 19.4023 42.3733 19.4199 42.4558 19.4541C42.5383 19.4883 42.6133 19.5383 42.6764 19.6015L52.4422 29.3681C52.5369 29.4633 52.6013 29.5844 52.6273 29.7162C52.6534 29.8479 52.6398 29.9844 52.5884 30.1085C52.537 30.2326 52.4501 30.3387 52.3385 30.4135C52.2269 30.4882 52.0957 30.5283 51.9614 30.5287Z" fill="#463B32"/>
<path d="M51.9614 30.686C51.8514 30.6864 51.7424 30.6648 51.6409 30.6227C51.5393 30.5805 51.4471 30.5186 51.3696 30.4405L41.6039 20.674C41.448 20.5171 41.3605 20.305 41.3605 20.0838C41.3605 19.8627 41.448 19.6505 41.6039 19.4937C41.7606 19.3376 41.9728 19.25 42.194 19.25C42.4152 19.25 42.6274 19.3376 42.7842 19.4937L52.5531 29.2587C52.6701 29.3758 52.7497 29.5249 52.782 29.6872C52.8142 29.8495 52.7976 30.0178 52.7343 30.1707C52.671 30.3236 52.5638 30.4543 52.4262 30.5463C52.2886 30.6383 52.1269 30.6875 51.9614 30.6876V30.686ZM42.1956 19.5598C42.0924 19.5599 41.9915 19.5907 41.9058 19.6481C41.82 19.7055 41.7531 19.7871 41.7137 19.8824C41.6742 19.9778 41.6638 20.0827 41.6839 20.184C41.704 20.2852 41.7537 20.3782 41.8266 20.4513L51.5923 30.2179C51.6919 30.3129 51.8242 30.3659 51.9618 30.3659C52.0994 30.3659 52.2317 30.3129 52.3312 30.2179C52.4289 30.1199 52.4838 29.9872 52.4838 29.8488C52.4838 29.7105 52.4289 29.5777 52.3312 29.4798L42.5654 19.7132C42.517 19.6644 42.4594 19.6257 42.3959 19.5994C42.3324 19.573 42.2643 19.5596 42.1956 19.5598Z" fill="#463B32"/>
<path d="M59.4523 21.5374C59.3631 21.5377 59.2747 21.5203 59.1923 21.4861C59.1099 21.4519 59.0352 21.4017 58.9723 21.3383L51.6994 14.0708C51.5719 13.9433 51.5002 13.7704 51.5002 13.5901C51.5002 13.4097 51.5719 13.2368 51.6994 13.1093C51.8269 12.9818 51.9998 12.9102 52.1801 12.9102C52.3605 12.9102 52.5334 12.9818 52.6609 13.1093L59.9299 20.3783C60.025 20.4734 60.0898 20.5946 60.1161 20.7265C60.1423 20.8584 60.1288 20.9951 60.0774 21.1193C60.0259 21.2435 59.9388 21.3497 59.8269 21.4244C59.7151 21.4991 59.5837 21.539 59.4492 21.539L59.4523 21.5374Z" fill="#463B32"/>
<path d="M59.4523 21.6935C59.3421 21.694 59.233 21.6725 59.1312 21.6302C59.0295 21.5879 58.9372 21.5257 58.8598 21.4472L51.5908 14.179C51.4738 14.0618 51.3941 13.9126 51.3619 13.7502C51.3296 13.5878 51.3463 13.4195 51.4097 13.2666C51.4731 13.1136 51.5805 12.9829 51.7182 12.891C51.8559 12.799 52.0177 12.75 52.1833 12.75C52.2933 12.7496 52.4023 12.7711 52.5038 12.8133C52.6054 12.8554 52.6976 12.9174 52.775 12.9955L60.044 20.2646C60.161 20.3816 60.2407 20.5308 60.2729 20.6931C60.3052 20.8554 60.2886 21.0237 60.2253 21.1766C60.162 21.3295 60.0547 21.4602 59.9172 21.5522C59.7796 21.6442 59.6178 21.6934 59.4523 21.6935ZM52.1833 13.0648C52.0799 13.0648 51.9789 13.0954 51.8929 13.1529C51.807 13.2104 51.74 13.292 51.7005 13.3875C51.661 13.4831 51.6507 13.5882 51.671 13.6896C51.6912 13.7909 51.7411 13.884 51.8143 13.9571L59.0833 21.2253C59.1825 21.3206 59.3147 21.3739 59.4523 21.3739C59.5899 21.3739 59.7221 21.3206 59.8214 21.2253C59.87 21.1769 59.9085 21.1193 59.9348 21.0559C59.9612 20.9925 59.9747 20.9245 59.9747 20.8559C59.9747 20.7872 59.9612 20.7193 59.9348 20.6559C59.9085 20.5925 59.87 20.5349 59.8214 20.4865L52.5531 13.2174C52.5046 13.1688 52.4469 13.1304 52.3834 13.1042C52.32 13.078 52.252 13.0646 52.1833 13.0648Z" fill="#463B32"/>
<path d="M55.8737 28.6382C55.6946 28.6385 55.5227 28.5681 55.3953 28.4423L44.0479 17.2342C43.9196 17.1075 43.8468 16.935 43.8456 16.7547C43.8444 16.5744 43.9149 16.401 44.0416 16.2726C44.1683 16.1443 44.3407 16.0715 44.5211 16.0703C44.7014 16.0691 44.8748 16.1396 45.0032 16.2663L56.3521 27.476C56.448 27.5707 56.5135 27.6918 56.5404 27.8239C56.5672 27.9559 56.5542 28.093 56.5029 28.2176C56.4516 28.3423 56.3643 28.4488 56.2523 28.5237C56.1402 28.5986 56.0085 28.6384 55.8737 28.6382Z" fill="#463B32"/>
<path d="M55.8737 28.7987C55.6531 28.7991 55.4414 28.7119 55.2851 28.5563L43.9369 17.3482C43.779 17.1917 43.6896 16.9788 43.6886 16.7565C43.6876 16.5341 43.7749 16.3204 43.9314 16.1624C44.088 16.0044 44.3008 15.9151 44.5232 15.9141C44.7456 15.913 44.9593 16.0004 45.1172 16.1569L56.4623 27.3697C56.5804 27.4864 56.6612 27.6356 56.6943 27.7983C56.7275 27.961 56.7115 28.1299 56.6484 28.2835C56.5853 28.4371 56.4779 28.5684 56.34 28.6609C56.2021 28.7533 56.0397 28.8026 55.8737 28.8026V28.7987ZM44.5263 16.2301C44.457 16.2301 44.3884 16.2441 44.3246 16.2711C44.2608 16.2981 44.2031 16.3377 44.1549 16.3875C44.0571 16.4857 44.0021 16.6187 44.0021 16.7573C44.0021 16.8959 44.0571 17.0289 44.1549 17.1271L55.5062 28.3328C55.6064 28.4273 55.7391 28.4794 55.8768 28.4784C56.0144 28.4774 56.1464 28.4233 56.2451 28.3273C56.2936 28.2789 56.332 28.2215 56.3582 28.1582C56.3845 28.095 56.398 28.0272 56.398 27.9587C56.398 27.8902 56.3845 27.8224 56.3582 27.7591C56.332 27.6959 56.2936 27.6384 56.2451 27.59L44.893 16.3804C44.7954 16.2838 44.6636 16.2297 44.5263 16.2301Z" fill="#463B32"/>
<path d="M58.202 25.5884C58.0257 25.5883 57.8563 25.5194 57.7299 25.3964L47.3268 15.297C47.2589 15.236 47.2041 15.1619 47.1656 15.0791C47.127 14.9964 47.1056 14.9068 47.1024 14.8156C47.0993 14.7244 47.1146 14.6335 47.1474 14.5483C47.1802 14.4631 47.2298 14.3855 47.2933 14.3199C47.3568 14.2544 47.4329 14.2023 47.5169 14.1668C47.601 14.1313 47.6914 14.1131 47.7826 14.1133C47.8739 14.1135 47.9642 14.1321 48.0481 14.168C48.132 14.2038 48.2078 14.2563 48.271 14.3221L58.6749 24.4215C58.7721 24.5156 58.8389 24.6365 58.8669 24.7688C58.8949 24.9011 58.8828 25.0387 58.8321 25.164C58.7814 25.2894 58.6944 25.3967 58.5823 25.4723C58.4702 25.548 58.338 25.5884 58.2028 25.5884H58.202Z" fill="#463B32"/>
<path d="M58.202 25.7437C57.9843 25.744 57.7751 25.6593 57.6189 25.5076L47.2143 15.4067C47.1319 15.331 47.0656 15.2395 47.0191 15.1377C46.9727 15.0359 46.9472 14.9259 46.944 14.814C46.9408 14.7022 46.9601 14.5909 47.0007 14.4866C47.0413 14.3824 47.1024 14.2873 47.1803 14.2071C47.2582 14.1268 47.3515 14.063 47.4545 14.0194C47.5575 13.9758 47.6682 13.9532 47.7801 13.9531C47.892 13.953 48.0027 13.9753 48.1058 14.0188C48.2089 14.0622 48.3023 14.1258 48.3804 14.2059L58.7851 24.3061C58.9045 24.4222 58.9866 24.5713 59.0209 24.7343C59.0552 24.8973 59.04 25.0668 58.9774 25.2212C58.9148 25.3755 58.8076 25.5077 58.6695 25.6008C58.5313 25.6938 58.3686 25.7436 58.202 25.7437ZM47.7997 14.2854C47.6958 14.2853 47.5942 14.3163 47.508 14.3743C47.4218 14.4323 47.3549 14.5147 47.3159 14.611C47.2768 14.7073 47.2674 14.813 47.2888 14.9147C47.3103 15.0164 47.3616 15.1093 47.4362 15.1816L57.8369 25.281C57.9376 25.3746 58.0705 25.4258 58.208 25.4239C58.3455 25.422 58.4769 25.3671 58.575 25.2708C58.6713 25.1713 58.7243 25.0376 58.7222 24.8991C58.7201 24.7606 58.6632 24.6286 58.564 24.5319L48.1632 14.4325C48.0661 14.3376 47.9355 14.2848 47.7997 14.2854Z" fill="#463B32"/>
<path d="M48.3268 32.7463C48.2366 32.7466 48.1472 32.7288 48.0639 32.6939C47.9807 32.659 47.9053 32.6078 47.8421 32.5433L40.1568 24.7179C40.0943 24.6543 40.0449 24.5789 40.0115 24.4962C39.9782 24.4135 39.9614 24.325 39.9622 24.2358C39.963 24.1466 39.9813 24.0584 40.0162 23.9763C40.0511 23.8941 40.1018 23.8197 40.1655 23.7572C40.2291 23.6947 40.3045 23.6453 40.3872 23.6119C40.4699 23.5785 40.5584 23.5617 40.6477 23.5625C40.7369 23.5633 40.8251 23.5817 40.9072 23.6166C40.9893 23.6515 41.0637 23.7022 41.1262 23.7658L48.8123 31.5904C48.9057 31.6862 48.9688 31.8073 48.9938 31.9387C49.0188 32.0701 49.0044 32.2059 48.9526 32.3293C48.9009 32.4526 48.8139 32.5579 48.7026 32.6321C48.5913 32.7062 48.4606 32.746 48.3268 32.7463Z" fill="#463B32"/>
<path d="M48.3269 32.9039C48.2155 32.9043 48.1052 32.8823 48.0025 32.8393C47.8998 32.7964 47.8068 32.7332 47.7289 32.6537L40.0443 24.8291C39.8925 24.67 39.8095 24.4575 39.8131 24.2376C39.8167 24.0177 39.9066 23.8081 40.0635 23.654C40.2204 23.4999 40.4316 23.4137 40.6515 23.4141C40.8714 23.4144 41.0824 23.5013 41.2388 23.6559L48.9241 31.4805C49.0399 31.598 49.1184 31.7472 49.1496 31.9092C49.1808 32.0713 49.1634 32.2389 49.0995 32.3911C49.0357 32.5432 48.9283 32.6731 48.7908 32.7644C48.6533 32.8556 48.4919 32.9042 48.3269 32.9039ZM40.6408 23.7204C40.5379 23.7204 40.4373 23.7507 40.3517 23.8076C40.266 23.8645 40.1991 23.9455 40.1593 24.0404C40.1196 24.1352 40.1087 24.2397 40.1282 24.3407C40.1476 24.4417 40.1964 24.5347 40.2686 24.608L47.9539 32.4326C48.0525 32.5286 48.1844 32.5829 48.3221 32.584C48.4597 32.5852 48.5925 32.5332 48.6928 32.4389C48.7914 32.3419 48.8476 32.2097 48.8489 32.0713C48.8503 31.9329 48.7966 31.7997 48.6998 31.7008L41.0137 23.877C40.9652 23.8273 40.9072 23.7878 40.8431 23.7609C40.7791 23.734 40.7103 23.7202 40.6408 23.7204Z" fill="#463B32"/>
<path d="M44.4437 33.9519C44.3535 33.9519 44.2642 33.9339 44.1811 33.8989C44.098 33.8639 44.0227 33.8126 43.9597 33.7481L38.7948 28.757C38.7323 28.6934 38.6829 28.618 38.6495 28.5353C38.6161 28.4525 38.5993 28.364 38.6001 28.2748C38.6009 28.1856 38.6193 28.0974 38.6542 28.0153C38.6891 27.9332 38.7398 27.8588 38.8034 27.7962C38.8671 27.7337 38.9424 27.6844 39.0252 27.651C39.1079 27.6176 39.1964 27.6008 39.2856 27.6016C39.3748 27.6024 39.463 27.6208 39.5451 27.6556C39.6272 27.6905 39.7017 27.7412 39.7642 27.8049L44.9323 32.7968C45.0261 32.8924 45.0896 33.0137 45.1147 33.1453C45.1399 33.2769 45.1256 33.4129 45.0736 33.5364C45.0217 33.6599 44.9344 33.7653 44.8227 33.8394C44.7111 33.9134 44.58 33.9528 44.446 33.9527L44.4437 33.9519Z" fill="#463B32"/>
<path d="M44.4437 34.1117C44.3325 34.112 44.2224 34.09 44.1198 34.047C44.0172 34.004 43.9243 33.9409 43.8465 33.8615L38.6831 28.8727C38.6019 28.7954 38.5372 28.7025 38.4926 28.5997C38.4481 28.4968 38.4247 28.3861 38.4237 28.274C38.4227 28.1619 38.4443 28.0508 38.4871 27.9472C38.5299 27.8436 38.5931 27.7497 38.6728 27.671C38.7526 27.5923 38.8474 27.5304 38.9515 27.4889C39.0557 27.4475 39.1671 27.4274 39.2791 27.4299C39.3912 27.4323 39.5016 27.4572 39.6039 27.5032C39.7061 27.5491 39.7981 27.615 39.8744 27.6972L45.0386 32.6851C45.1549 32.8025 45.2339 32.9517 45.2656 33.1139C45.2973 33.2762 45.2803 33.4441 45.2167 33.5967C45.1531 33.7493 45.0457 33.8796 44.9082 33.9712C44.7706 34.0629 44.609 34.1117 44.4437 34.1117ZM39.2771 27.7633C39.1743 27.7632 39.0737 27.7935 38.9881 27.8505C38.9024 27.9074 38.8355 27.9884 38.7957 28.0832C38.7559 28.1781 38.7451 28.2826 38.7645 28.3835C38.784 28.4845 38.8328 28.5775 38.9049 28.6509L44.0668 33.6372C44.1649 33.7352 44.2973 33.7909 44.4359 33.7927C44.5745 33.7945 44.7083 33.7421 44.8088 33.6467C44.9074 33.5496 44.9634 33.4173 44.9646 33.2789C44.9658 33.1406 44.912 33.0074 44.8151 32.9086L39.6525 27.9206C39.6037 27.8705 39.5453 27.8308 39.4808 27.8037C39.4163 27.7767 39.3471 27.7629 39.2771 27.7633Z" fill="#463B32"/>
<path d="M64.8998 6.1655C64.8607 6.08276 64.7962 6.01466 64.7157 5.97114C64.3293 5.76105 63.8501 5.97114 63.6141 6.29297C63.4355 6.52903 62.887 7.01059 62.6785 7.21911C62.0616 7.83208 62.0915 7.83444 61.4762 8.44898C60.7483 9.17762 60.0087 9.90153 59.2816 10.6262C58.6647 11.2447 58.0517 11.8679 57.4325 12.484C57.1327 12.783 56.8234 13.0757 56.5299 13.381C56.5243 13.3867 56.519 13.3928 56.5142 13.3991C56.392 13.5277 56.3249 13.6989 56.3272 13.8763C56.3295 14.0536 56.401 14.2231 56.5264 14.3484C56.6519 14.4738 56.8214 14.5452 56.9988 14.5473C57.1761 14.5495 57.3473 14.4822 57.4757 14.3599L64.6921 7.14436C64.903 6.93269 65.0454 6.46215 64.8998 6.1655Z" fill="#463B32"/>
<path d="M56.995 14.7134C56.8288 14.7141 56.6662 14.6654 56.5279 14.5733C56.3895 14.4813 56.2818 14.3501 56.2183 14.1965C56.1548 14.043 56.1385 13.874 56.1714 13.7111C56.2044 13.5483 56.2851 13.3989 56.4033 13.2821C56.4069 13.2766 56.4111 13.2716 56.4158 13.2671C56.6094 13.0657 56.8093 12.8682 57.006 12.6778C57.1122 12.5739 57.2177 12.4708 57.3207 12.367C57.6811 12.0076 58.0405 11.6467 58.3987 11.2842C58.6547 11.0261 58.9113 10.7681 59.1683 10.51C59.5512 10.126 59.9363 9.74355 60.3234 9.36271C60.6696 9.01964 61.0151 8.6763 61.3597 8.33271C61.6595 8.03291 61.8066 7.87868 61.9483 7.72918C62.1057 7.57181 62.2457 7.41444 62.562 7.09969C62.6258 7.03595 62.7194 6.94704 62.8272 6.84789C63.0594 6.64214 63.2788 6.42247 63.4842 6.19007C63.5893 6.05039 63.7242 5.93594 63.8791 5.85507C64.034 5.77421 64.205 5.72897 64.3797 5.72268C64.5228 5.72168 64.6638 5.75687 64.7896 5.82497C64.899 5.88398 64.9866 5.97632 65.0399 6.08857C65.2177 6.45367 65.0564 6.99268 64.8038 7.24841L57.5875 14.464C57.5104 14.5429 57.4182 14.6057 57.3164 14.6485C57.2147 14.6914 57.1054 14.7134 56.995 14.7134ZM64.3813 6.04293C64.2552 6.0496 64.1321 6.08377 64.0207 6.14303C63.9092 6.2023 63.8121 6.28523 63.736 6.386C63.6038 6.56147 63.293 6.85104 63.0444 7.08317C62.9405 7.18074 62.8477 7.2665 62.7863 7.32867C62.4715 7.63948 62.3291 7.79056 62.178 7.9495C62.027 8.10845 61.8869 8.25638 61.584 8.55854C61.2393 8.90318 60.8934 9.24678 60.5461 9.58933C60.1605 9.9707 59.776 10.3526 59.3926 10.735L58.6238 11.5085C58.2639 11.8704 57.9041 12.2319 57.5442 12.5928C57.4388 12.6974 57.3325 12.8005 57.2295 12.9075C57.0367 13.0964 56.836 13.2923 56.6464 13.489C56.6425 13.4945 56.6354 13.5024 56.6291 13.5095C56.5805 13.558 56.5419 13.6155 56.5156 13.6789C56.4893 13.7423 56.4757 13.8103 56.4757 13.8789C56.4757 13.9476 56.4893 14.0155 56.5156 14.0789C56.5419 14.1423 56.5805 14.1999 56.6291 14.2484C56.7288 14.343 56.861 14.3958 56.9985 14.3958C57.136 14.3958 57.2682 14.343 57.3679 14.2484L64.5835 7.03281C64.755 6.86048 64.8707 6.4584 64.7621 6.23335C64.737 6.18013 64.6953 6.1365 64.6433 6.10903C64.5631 6.06477 64.4728 6.042 64.3813 6.04293Z" fill="#463B32"/>
<path d="M59.0385 16.5176C58.8626 16.518 58.6934 16.4503 58.5664 16.3287L58.4814 16.2501C58.3916 16.1637 58.3273 16.0544 58.2954 15.934C58.2636 15.8136 58.2654 15.6867 58.3007 15.5673C58.336 15.4479 58.4035 15.3404 58.4957 15.2567C58.5879 15.173 58.7014 15.1162 58.8237 15.0926L71.1428 2.77265C71.2135 2.70488 71.2699 2.62369 71.3088 2.53383C71.3477 2.44397 71.3682 2.34725 71.3693 2.24935C71.3703 2.15144 71.3517 2.05431 71.3148 1.96366C71.2778 1.87301 71.223 1.79065 71.1538 1.72142C71.0846 1.65218 71.0022 1.59746 70.9116 1.56047C70.8209 1.52347 70.7238 1.50494 70.6259 1.50597C70.528 1.50699 70.4312 1.52755 70.3414 1.56644C70.2515 1.60532 70.1703 1.66175 70.1026 1.73242L68.0614 3.77826C67.9329 3.90129 67.7613 3.96908 67.5834 3.96713C67.4054 3.96518 67.2354 3.89363 67.1096 3.76782C66.9837 3.642 66.9122 3.47192 66.9102 3.294C66.9083 3.11608 66.9761 2.94448 67.0991 2.81593L69.1449 0.774804C69.3388 0.577554 69.5698 0.420651 69.8247 0.313148C70.0795 0.205645 70.3531 0.149672 70.6296 0.148458C70.9062 0.147243 71.1803 0.200813 71.436 0.306074C71.6918 0.411335 71.9242 0.566205 72.1198 0.761744C72.3154 0.957284 72.4703 1.18962 72.5756 1.44535C72.6809 1.70108 72.7346 1.97514 72.7334 2.25171C72.7323 2.52828 72.6764 2.80188 72.569 3.05674C72.4615 3.31159 72.3047 3.54264 72.1075 3.73656L59.5185 16.3185C59.3911 16.4458 59.2185 16.5174 59.0385 16.5176Z" fill="#463B32"/>
<path d="M59.0385 16.6752C58.8227 16.6753 58.6152 16.5921 58.4593 16.443L58.3736 16.3643C58.214 16.2101 58.122 15.9989 58.1177 15.7769C58.1134 15.555 58.1972 15.3404 58.3507 15.1801C58.4578 15.068 58.5941 14.9881 58.7442 14.9496L71.0311 2.6619C71.1391 2.55311 71.1997 2.40603 71.1997 2.25273C71.1997 2.09942 71.1391 1.95234 71.0311 1.84356C70.9209 1.73854 70.7745 1.67996 70.6223 1.67996C70.4701 1.67996 70.3237 1.73854 70.2135 1.84356L68.1724 3.8894C68.0974 3.97731 68.0051 4.04874 67.9011 4.09922C67.7972 4.14969 67.684 4.17811 67.5685 4.18269C67.4531 4.18727 67.338 4.1679 67.2304 4.12581C67.1228 4.08373 67.025 4.01982 66.9434 3.93813C66.8617 3.85644 66.7978 3.75872 66.7557 3.65113C66.7136 3.54354 66.6942 3.4284 66.6988 3.31296C66.7034 3.19752 66.7318 3.08427 66.7823 2.98035C66.8327 2.87643 66.9042 2.78408 66.9921 2.70911L69.0379 0.667195C69.24 0.432052 69.4884 0.241156 69.7676 0.106464C70.0468 -0.0282292 70.3509 -0.103818 70.6607 -0.115569C70.9705 -0.12732 71.2794 -0.0749805 71.568 0.0381721C71.8566 0.151325 72.1188 0.322853 72.338 0.542015C72.5573 0.761177 72.729 1.02325 72.8423 1.31183C72.9556 1.6004 73.0081 1.90926 72.9965 2.21906C72.9849 2.52887 72.9094 2.83294 72.7749 3.11223C72.6403 3.39153 72.4495 3.64004 72.2145 3.84219L59.6294 16.432C59.5518 16.5096 59.4597 16.571 59.3583 16.6127C59.2568 16.6545 59.1481 16.6757 59.0385 16.6752ZM70.6219 1.35963C70.7984 1.35997 70.9709 1.41261 71.1175 1.51091C71.2642 1.60922 71.3784 1.74877 71.4457 1.91195C71.5131 2.07513 71.5306 2.25461 71.496 2.42773C71.4614 2.60084 71.3763 2.75982 71.2514 2.88458L58.9385 15.2014C58.9168 15.2228 58.8896 15.2378 58.8598 15.2446C58.754 15.2644 58.6571 15.317 58.5829 15.3949C58.4869 15.4949 58.4346 15.6288 58.4372 15.7673C58.4399 15.9058 58.4973 16.0376 58.597 16.1338L58.682 16.2125C58.7819 16.3039 58.9129 16.3539 59.0483 16.3524C59.1837 16.3509 59.3135 16.2981 59.4114 16.2046L71.9965 3.61951C72.1803 3.44052 72.3267 3.22682 72.4272 2.9908C72.5277 2.75479 72.5803 2.50116 72.582 2.24465C72.5837 1.98813 72.5345 1.73383 72.4371 1.4965C72.3397 1.25918 72.1962 1.04355 72.0148 0.862134C71.8335 0.68072 71.6179 0.537131 71.3806 0.4397C71.1433 0.34227 70.889 0.292938 70.6325 0.294567C70.376 0.296196 70.1223 0.348754 69.8863 0.449191C69.6503 0.549628 69.4365 0.695944 69.2575 0.879648L67.2155 2.92549C67.1178 3.02358 67.0629 3.15643 67.0629 3.29493C67.0629 3.43343 67.1178 3.56628 67.2155 3.66436C67.3152 3.75918 67.4475 3.81207 67.585 3.81207C67.7225 3.81207 67.8548 3.75918 67.9544 3.66436L69.9955 1.61851C70.162 1.45292 70.3871 1.35985 70.6219 1.35963Z" fill="#463B32"/>
<path d="M45.8364 51.2117H45.742C43.7874 51.181 42.8306 50.3202 42.3774 49.6034C41.5118 48.2468 41.6173 46.2096 42.6685 43.8671C43.3319 42.3902 43.8764 41.3791 44.3146 40.5678C44.6215 39.9981 44.8867 39.5063 45.1212 38.9894L45.9867 37.0859L46.8074 39.0075C47.2355 40.0091 47.7076 40.9959 48.1648 41.9503C48.6369 42.9347 49.0815 43.864 49.4474 44.7453C50.2106 46.5818 50.1713 48.2799 49.338 49.5286C48.6101 50.6137 47.3669 51.2117 45.8364 51.2117ZM45.9065 41.4884C45.4666 42.3028 44.9693 43.2306 44.3461 44.6194C43.5907 46.3025 43.431 47.8337 43.9283 48.6159C44.243 49.1037 44.8592 49.3587 45.7703 49.3728H45.8364C46.4706 49.3728 47.3315 49.2217 47.8036 48.5073C48.2757 47.7928 48.2568 46.6825 47.7454 45.4495C47.3976 44.6139 46.9624 43.7058 46.5021 42.7443C46.3062 42.332 46.1055 41.9133 45.9065 41.4884Z" fill="#463B32"/>
<path d="M59.472 46.3724H54.6391C54.4774 46.3725 54.3185 46.3299 54.1786 46.249C54.0386 46.168 53.9225 46.0515 53.842 45.9113L51.0927 41.1311C51.0126 40.9916 50.9705 40.8335 50.9705 40.6727C50.9705 40.5119 51.0126 40.3538 51.0927 40.2144L53.842 35.4342C53.9225 35.2939 54.0386 35.1774 54.1786 35.0965C54.3185 35.0155 54.4774 34.9729 54.6391 34.973H59.6553C59.7783 34.9695 59.9008 34.9906 60.0155 35.0352C60.1302 35.0797 60.2348 35.1469 60.3231 35.2326C60.4114 35.3184 60.4815 35.4209 60.5295 35.5343C60.5774 35.6476 60.6021 35.7694 60.6021 35.8925C60.6021 36.0156 60.5774 36.1374 60.5295 36.2507C60.4815 36.3641 60.4114 36.4666 60.3231 36.5524C60.2348 36.6381 60.1302 36.7053 60.0155 36.7498C59.9008 36.7944 59.7783 36.8156 59.6553 36.812H55.1702L52.9505 40.6723L55.171 44.5342H59.472C59.7157 44.5342 59.9495 44.6311 60.1219 44.8034C60.2942 44.9758 60.391 45.2096 60.391 45.4533C60.391 45.6971 60.2942 45.9308 60.1219 46.1032C59.9495 46.2755 59.7157 46.3724 59.472 46.3724Z" fill="#463B32"/>
<path d="M68.4793 50.6862C68.3183 50.6861 68.1602 50.6437 68.0208 50.5633C67.8813 50.4828 67.7654 50.3672 67.6847 50.2279C67.604 50.0887 67.5613 49.9307 67.5609 49.7697C67.5604 49.6087 67.6022 49.4505 67.6822 49.3107C68.2873 48.2524 69.2748 46.279 69.7099 45.4L67.2116 41.1384C67.0883 40.928 67.0536 40.6773 67.1151 40.4413C67.1766 40.2054 67.3294 40.0035 67.5398 39.8802C67.7501 39.7568 68.0008 39.7221 68.2368 39.7837C68.4728 39.8452 68.6746 39.9979 68.798 40.2083L71.5473 44.8964C71.6239 45.0275 71.667 45.1754 71.6726 45.3271C71.6782 45.4788 71.6462 45.6296 71.5795 45.7659C71.5197 45.8887 70.0979 48.7898 69.2779 50.2219C69.1978 50.3631 69.0817 50.4804 68.9414 50.562C68.801 50.6436 68.6416 50.6864 68.4793 50.6862Z" fill="#463B32"/>
<path d="M68.1141 51.1537H62.5078C62.3461 51.1538 62.1872 51.1111 62.0473 51.0302C61.9073 50.9492 61.7912 50.8328 61.7107 50.6926L58.9614 45.9116C58.881 45.7724 58.8387 45.6144 58.8387 45.4536C58.8387 45.2929 58.881 45.1349 58.9614 44.9957L61.7107 40.2147C61.8322 40.0034 62.0327 39.849 62.2681 39.7856C62.5035 39.7221 62.7544 39.7548 62.9657 39.8763C63.177 39.9979 63.3314 40.1984 63.3948 40.4338C63.4583 40.6692 63.4256 40.9201 63.3041 41.1314L60.8184 45.4536L63.0389 49.3148H68.1141C68.3533 49.3218 68.5804 49.4217 68.7471 49.5934C68.9138 49.7651 69.0071 49.995 69.0071 50.2343C69.0071 50.4736 68.9138 50.7034 68.7471 50.8751C68.5804 51.0468 68.3533 51.1467 68.1141 51.1537Z" fill="#463B32"/>
<path d="M70.8658 46.2106C70.6221 46.2106 70.3883 46.1138 70.2159 45.9414C70.0436 45.7691 69.9468 45.5353 69.9468 45.2916C69.9468 45.0478 70.0436 44.8141 70.2159 44.6417C70.3883 44.4693 70.6221 44.3725 70.8658 44.3725H76.0394L78.2277 40.2273L75.8309 36.6125L70.8414 36.6825C70.7207 36.6842 70.6009 36.6621 70.4887 36.6175C70.3766 36.5729 70.2743 36.5066 70.1877 36.4225C70.1012 36.3384 70.0321 36.238 69.9843 36.1271C69.9365 36.0163 69.9111 35.8971 69.9094 35.7764C69.9077 35.6557 69.9298 35.5359 69.9744 35.4237C70.019 35.3116 70.0852 35.2093 70.1694 35.1227C70.2535 35.0362 70.3539 34.9671 70.4647 34.9193C70.5756 34.8715 70.6948 34.8461 70.8154 34.8444L76.307 34.7657C76.4609 34.7638 76.6128 34.8004 76.7488 34.8723C76.8849 34.9442 77.0008 35.049 77.086 35.1772L80.0611 39.6624C80.1523 39.7998 80.2048 39.9593 80.2131 40.1241C80.2214 40.2888 80.1852 40.4528 80.1083 40.5987L77.407 45.7133C77.3288 45.8612 77.2119 45.9849 77.0686 46.0713C76.9254 46.1576 76.7614 46.2034 76.5942 46.2036H70.8666L70.8658 46.2106Z" fill="#463B32"/>
<path d="M68.0048 41.779H62.5078C62.346 41.779 62.1871 41.7363 62.0471 41.6552C61.9071 41.5741 61.7911 41.4575 61.7107 41.3171L58.9614 36.5369C58.881 36.3975 58.8387 36.2395 58.8387 36.0786C58.8387 35.9177 58.881 35.7596 58.9614 35.6202L61.7107 30.84C61.7911 30.6997 61.9072 30.5832 62.0472 30.5022C62.1871 30.4212 62.346 30.3787 62.5078 30.3789H68.0048C68.1665 30.3789 68.3253 30.4215 68.4652 30.5024C68.6052 30.5834 68.7213 30.6998 68.8019 30.84L71.5512 35.6202C71.6312 35.7597 71.6734 35.9177 71.6734 36.0786C71.6734 36.2394 71.6312 36.3974 71.5512 36.5369L68.8019 41.3171C68.7213 41.4574 68.6053 41.5739 68.4653 41.655C68.3254 41.7361 68.1665 41.7789 68.0048 41.779ZM63.0389 39.9401H67.4729L69.6934 36.0789L67.4729 32.2178H63.0389L60.8184 36.0789L63.0389 39.9401Z" fill="#463B32"/>
<path d="M47.1055 61.5447C48.6445 61.5447 49.7605 60.5097 49.7605 59.0517C49.7605 57.5937 48.6445 56.5587 47.1055 56.5587C45.5665 56.5587 44.4415 57.5937 44.4415 59.0517C44.4415 60.5097 45.5665 61.5447 47.1055 61.5447ZM47.1055 60.3927C46.4035 60.3927 45.8635 59.8887 45.8635 59.0517C45.8635 58.2147 46.4035 57.7107 47.1055 57.7107C47.8075 57.7107 48.3385 58.2147 48.3385 59.0517C48.3385 59.8887 47.8075 60.3927 47.1055 60.3927ZM52.04 57.2697V56.6307H50.699V61.4727H52.103V59.1867C52.103 58.2597 52.616 57.8367 53.39 57.8367C53.498 57.8367 53.588 57.8457 53.705 57.8547V56.5587C52.958 56.5587 52.382 56.8017 52.04 57.2697ZM58.1589 56.6307V57.2517C57.7899 56.7837 57.2319 56.5587 56.5569 56.5587C55.2159 56.5587 54.1359 57.4857 54.1359 58.8987C54.1359 60.3117 55.2159 61.2387 56.5569 61.2387C57.1869 61.2387 57.7179 61.0407 58.0869 60.6357V60.8427C58.0869 61.7157 57.6549 62.1657 56.6649 62.1657C56.0439 62.1657 55.3689 61.9497 54.9549 61.6167L54.3969 62.6247C54.9639 63.0657 55.8549 63.2907 56.7729 63.2907C58.5189 63.2907 59.4909 62.4627 59.4909 60.6627V56.6307H58.1589ZM56.8359 60.0867C56.0979 60.0867 55.5579 59.6097 55.5579 58.8987C55.5579 58.1877 56.0979 57.7107 56.8359 57.7107C57.5739 57.7107 58.1049 58.1877 58.1049 58.8987C58.1049 59.6097 57.5739 60.0867 56.8359 60.0867ZM62.7506 56.5587C61.9766 56.5587 61.1936 56.7657 60.6626 57.1437L61.1666 58.1247C61.5176 57.8457 62.0486 57.6747 62.5616 57.6747C63.3176 57.6747 63.6776 58.0257 63.6776 58.6287H62.5616C61.0856 58.6287 60.4826 59.2227 60.4826 60.0777C60.4826 60.9147 61.1576 61.5447 62.2916 61.5447C63.0026 61.5447 63.5066 61.3107 63.7676 60.8697V61.4727H65.0816V58.7097C65.0816 57.2427 64.2266 56.5587 62.7506 56.5587ZM62.6426 60.5997C62.1476 60.5997 61.8506 60.3657 61.8506 60.0147C61.8506 59.6907 62.0576 59.4477 62.7146 59.4477H63.6776V59.9427C63.5156 60.3837 63.1106 60.5997 62.6426 60.5997ZM69.2953 56.5587C68.6383 56.5587 68.0713 56.7837 67.6933 57.1977V56.6307H66.3523V61.4727H67.7563V59.0787C67.7563 58.1877 68.2423 57.7737 68.9173 57.7737C69.5383 57.7737 69.8983 58.1337 69.8983 58.9167V61.4727H71.3023V58.7007C71.3023 57.2247 70.4383 56.5587 69.2953 56.5587ZM73.277 55.9557C73.799 55.9557 74.15 55.6137 74.15 55.1457C74.15 54.7137 73.799 54.3897 73.277 54.3897C72.755 54.3897 72.404 54.7317 72.404 55.1727C72.404 55.6137 72.755 55.9557 73.277 55.9557ZM72.575 61.4727H73.979V56.6307H72.575V61.4727ZM77.622 61.5447C78.639 61.5447 79.44 61.0947 79.791 60.3207L78.702 59.7267C78.441 60.1947 78.054 60.3927 77.613 60.3927C76.902 60.3927 76.344 59.8977 76.344 59.0517C76.344 58.2057 76.902 57.7107 77.613 57.7107C78.054 57.7107 78.441 57.9177 78.702 58.3767L79.791 57.7917C79.44 56.9997 78.639 56.5587 77.622 56.5587C76.047 56.5587 74.922 57.5937 74.922 59.0517C74.922 60.5097 76.047 61.5447 77.622 61.5447ZM44.8422 67.5587C44.2392 67.5587 43.7442 67.7477 43.3842 68.1437V65.7947H41.9802V72.4727H43.3212V71.9147C43.6722 72.3377 44.1942 72.5447 44.8422 72.5447C46.2012 72.5447 47.2542 71.5727 47.2542 70.0517C47.2542 68.5307 46.2012 67.5587 44.8422 67.5587ZM44.5992 71.3927C43.8972 71.3927 43.3662 70.8887 43.3662 70.0517C43.3662 69.2147 43.8972 68.7107 44.5992 68.7107C45.3012 68.7107 45.8322 69.2147 45.8322 70.0517C45.8322 70.8887 45.3012 71.3927 44.5992 71.3927ZM52.9371 70.0697C52.9371 68.5127 51.8391 67.5587 50.4171 67.5587C48.9411 67.5587 47.8341 68.6027 47.8341 70.0517C47.8341 71.4917 48.9231 72.5447 50.5971 72.5447C51.4701 72.5447 52.1451 72.2747 52.5951 71.7617L51.8481 70.9517C51.5151 71.2667 51.1461 71.4197 50.6331 71.4197C49.8951 71.4197 49.3821 71.0507 49.2471 70.4477H52.9101C52.9191 70.3307 52.9371 70.1777 52.9371 70.0697ZM50.4261 68.6207C51.0561 68.6207 51.5151 69.0167 51.6141 69.6287H49.2291C49.3281 69.0077 49.7871 68.6207 50.4261 68.6207ZM58.6148 70.0697C58.6148 68.5127 57.5168 67.5587 56.0948 67.5587C54.6188 67.5587 53.5118 68.6027 53.5118 70.0517C53.5118 71.4917 54.6008 72.5447 56.2748 72.5447C57.1478 72.5447 57.8228 72.2747 58.2728 71.7617L57.5258 70.9517C57.1928 71.2667 56.8238 71.4197 56.3108 71.4197C55.5728 71.4197 55.0598 71.0507 54.9248 70.4477H58.5878C58.5968 70.3307 58.6148 70.1777 58.6148 70.0697ZM56.1038 68.6207C56.7338 68.6207 57.1928 69.0167 57.2918 69.6287H54.9068C55.0058 69.0077 55.4648 68.6207 56.1038 68.6207ZM61.1786 72.5447C62.6276 72.5447 63.4646 71.9057 63.4646 71.0057C63.4646 69.0977 60.5396 69.8987 60.5396 69.0707C60.5396 68.8187 60.8096 68.6207 61.4396 68.6207C61.8806 68.6207 62.3576 68.7107 62.8346 68.9807L63.3026 67.9817C62.8436 67.7117 62.1056 67.5587 61.4396 67.5587C60.0266 67.5587 59.1986 68.2067 59.1986 69.1247C59.1986 71.0597 62.1236 70.2497 62.1236 71.0417C62.1236 71.3117 61.8806 71.4827 61.2326 71.4827C60.6386 71.4827 59.9816 71.2937 59.5496 71.0147L59.0816 72.0227C59.5316 72.3197 60.3596 72.5447 61.1786 72.5447ZM70.7769 67.6307L69.5979 70.9067L68.4459 67.6307H67.2579L66.0699 70.9067L64.9269 67.6307H63.6039L65.3499 72.4727H66.6999L67.8249 69.4667L68.9139 72.4727H70.2639L72.0189 67.6307H70.7769ZM74.4664 67.5587C73.6924 67.5587 72.9094 67.7657 72.3784 68.1437L72.8824 69.1247C73.2334 68.8457 73.7644 68.6747 74.2774 68.6747C75.0334 68.6747 75.3934 69.0257 75.3934 69.6287H74.2774C72.8014 69.6287 72.1984 70.2227 72.1984 71.0777C72.1984 71.9147 72.8734 72.5447 74.0074 72.5447C74.7184 72.5447 75.2224 72.3107 75.4834 71.8697V72.4727H76.7974V69.7097C76.7974 68.2427 75.9424 67.5587 74.4664 67.5587ZM74.3584 71.5997C73.8634 71.5997 73.5664 71.3657 73.5664 71.0147C73.5664 70.6907 73.7734 70.4477 74.4304 70.4477H75.3934V70.9427C75.2314 71.3837 74.8264 71.5997 74.3584 71.5997ZM82.7391 72.4727L80.8671 69.9977L82.6671 67.6307H81.1731L80.1201 69.0437L79.0941 67.6307H77.5191L79.3191 70.0337L77.4561 72.4727H78.9861L80.0841 70.9877L81.1461 72.4727H82.7391Z" fill="#BA9174"/>
</g>
<defs>
<clipPath id="clip0_758_1764">
<rect width="122.596" height="83" fill="white"/>
</clipPath>
</defs>
</svg>
