<svg width="110" height="92" viewBox="0 0 110 92" fill="none" xmlns="http://www.w3.org/2000/svg">
<g clip-path="url(#clip0_1212_2792)">
<path d="M15.5147 60.9693C15.2216 60.9711 14.9371 60.8712 14.7095 60.6866C14.4819 60.502 14.3255 60.2441 14.2668 59.957C14.2081 59.67 14.2508 59.3714 14.3876 59.1123C14.5244 58.8532 14.7469 58.6495 15.0171 58.5361C15.2873 58.4227 15.5885 58.4066 15.8692 58.4904C16.15 58.5743 16.393 58.7529 16.5568 58.9959C16.7205 59.2389 16.7949 59.5312 16.7673 59.8229C16.7396 60.1146 16.6116 60.3877 16.4051 60.5956C16.1692 60.8327 15.8491 60.967 15.5147 60.9693Z" fill="#463B32"/>
<path d="M93.2642 58.1635C92.9482 58.0535 92.6888 57.8224 92.5431 57.5213C92.3973 57.2201 92.3771 56.8733 92.4869 56.5572C92.597 56.2408 92.8282 55.9811 93.1298 55.8352C93.4313 55.6892 93.7785 55.6691 94.0949 55.7791C94.4109 55.8892 94.6703 56.1201 94.8162 56.4213C94.9621 56.7224 94.9826 57.0692 94.8731 57.3854C94.7868 57.6332 94.6257 57.848 94.4119 58.0002C94.1981 58.1523 93.9424 58.2342 93.68 58.2346C93.5384 58.2344 93.3978 58.2104 93.2642 58.1635ZM12.8407 56.1098C12.741 55.7907 12.7722 55.4451 12.9273 55.149C13.0825 54.8528 13.3489 54.6305 13.668 54.5307C13.987 54.4313 14.3324 54.4624 14.6284 54.6173C14.9245 54.7723 15.147 55.0383 15.2471 55.3571C15.3463 55.6761 15.315 56.0214 15.1601 56.3174C15.0052 56.6134 14.7393 56.8359 14.4207 56.9362C14.2982 56.9756 14.1704 56.9957 14.0417 56.9959C13.7734 56.9949 13.5123 56.9085 13.2964 56.7492C13.0804 56.5899 12.9208 56.3659 12.8407 56.1098ZM94.6187 53.9684C94.457 53.9309 94.3043 53.8619 94.1694 53.7653C94.0344 53.6688 93.9197 53.5466 93.832 53.4057C93.7442 53.2649 93.6851 53.1081 93.658 52.9444C93.6309 52.7807 93.6362 52.6132 93.6738 52.4516C93.7502 52.1255 93.9528 51.8431 94.2372 51.6663C94.5216 51.4895 94.8645 51.4328 95.1906 51.5085C95.5166 51.5847 95.799 51.7871 95.9758 52.0713C96.1527 52.3556 96.2094 52.6984 96.1337 53.0244C96.069 53.3018 95.9125 53.5492 95.6896 53.7264C95.4667 53.9037 95.1903 54.0004 94.9055 54.0009C94.809 54.0009 94.7128 53.99 94.6187 53.9684ZM11.716 51.7173C11.6834 51.5547 11.6832 51.3872 11.7153 51.2245C11.7475 51.0618 11.8114 50.907 11.9033 50.769C11.9953 50.631 12.1136 50.5125 12.2514 50.4202C12.3892 50.3279 12.5438 50.2637 12.7065 50.2312C12.869 50.1985 13.0364 50.1981 13.199 50.2302C13.3617 50.2622 13.5164 50.326 13.6544 50.4179C13.7923 50.5098 13.9108 50.6281 14.003 50.7658C14.0952 50.9036 14.1593 51.0582 14.1917 51.2208C14.2573 51.5494 14.1897 51.8906 14.0039 52.1695C13.818 52.4483 13.529 52.6419 13.2004 52.7077C13.1183 52.7239 13.0349 52.7318 12.9512 52.7314C12.66 52.7307 12.378 52.6293 12.1529 52.4445C11.9278 52.2597 11.7735 52.0028 11.716 51.7173ZM95.5188 49.6539C95.1873 49.6129 94.8856 49.4421 94.6798 49.179C94.4741 48.9159 94.3811 48.5819 94.4213 48.2503C94.4417 48.0857 94.4943 47.9268 94.5762 47.7825C94.658 47.6383 94.7675 47.5116 94.8983 47.4096C95.0292 47.3077 95.1788 47.2326 95.3387 47.1885C95.4986 47.1445 95.6656 47.1323 95.8302 47.1528C96.1617 47.1939 96.4635 47.3646 96.6694 47.6277C96.8752 47.8908 96.9684 48.2248 96.9285 48.5565C96.8905 48.8618 96.7425 49.1427 96.5122 49.3467C96.2819 49.5506 95.9852 49.6636 95.6775 49.6645C95.6244 49.6644 95.5714 49.6609 95.5188 49.6539ZM11.0598 47.2292C11.0291 46.8958 11.1319 46.5638 11.3458 46.3062C11.5596 46.0487 11.867 45.8865 12.2003 45.8553C12.5337 45.8246 12.8656 45.9274 13.1232 46.1413C13.3808 46.3551 13.543 46.6625 13.5741 46.9958C13.6049 47.3292 13.502 47.6611 13.2882 47.9187C13.0743 48.1763 12.767 48.3385 12.4337 48.3696C12.3942 48.3696 12.3556 48.3749 12.3152 48.3749C12.0009 48.3743 11.6982 48.2566 11.466 48.0447C11.2339 47.8328 11.0891 47.5421 11.0598 47.2292ZM95.9635 45.2746C95.7979 45.2714 95.6344 45.2356 95.4826 45.1692C95.3308 45.1029 95.1935 45.0072 95.0786 44.8878C94.9638 44.7684 94.8735 44.6275 94.8131 44.4732C94.7527 44.3189 94.7233 44.1542 94.7266 43.9885C94.7297 43.8228 94.7654 43.6592 94.8317 43.5073C94.898 43.3554 94.9936 43.218 95.1131 43.103C95.2325 42.9881 95.3734 42.8978 95.5278 42.8373C95.6821 42.7769 95.8469 42.7474 96.0126 42.7507C96.1786 42.7539 96.3424 42.7897 96.4945 42.8562C96.6466 42.9228 96.7841 43.0186 96.8991 43.1383C97.0142 43.258 97.1045 43.3992 97.1649 43.5538C97.2254 43.7084 97.2548 43.8734 97.2514 44.0394C97.2447 44.3698 97.1088 44.6844 96.8727 44.9156C96.6367 45.1469 96.3194 45.2764 95.989 45.2763H95.9635V45.2746ZM12.1257 43.9762C11.7912 43.9723 11.4719 43.8357 11.238 43.5966C11.0041 43.3574 10.8747 43.0352 10.8782 42.7007C10.88 42.5349 10.9144 42.3711 10.9795 42.2186C11.0446 42.0661 11.1391 41.928 11.2577 41.8121C11.3763 41.6963 11.5165 41.6049 11.6704 41.5433C11.8244 41.4817 11.9889 41.4511 12.1547 41.4532C12.3205 41.4547 12.4844 41.4889 12.6369 41.5538C12.7895 41.6188 12.9277 41.7132 13.0437 41.8318C13.1597 41.9503 13.2511 42.0905 13.3128 42.2444C13.3745 42.3983 13.4051 42.5629 13.403 42.7287C13.3993 43.061 13.2647 43.3784 13.0283 43.612C12.7919 43.8456 12.473 43.9765 12.1406 43.9762H12.1275H12.1257ZM94.5897 39.7206C94.5756 39.5553 94.5943 39.3888 94.6446 39.2308C94.6948 39.0727 94.7758 38.9261 94.8828 38.7993C94.9897 38.6726 95.1206 38.5681 95.268 38.492C95.4154 38.4158 95.5763 38.3694 95.7416 38.3555C95.9068 38.3413 96.0732 38.3598 96.2313 38.41C96.3894 38.4602 96.536 38.5411 96.6628 38.648C96.7895 38.7549 96.894 38.8857 96.9702 39.033C97.0463 39.1804 97.0927 39.3412 97.1066 39.5065C97.1346 39.8406 97.0288 40.1721 96.8124 40.4282C96.5961 40.6843 96.287 40.8441 95.953 40.8724C95.9179 40.8724 95.8828 40.8768 95.8477 40.8768C95.5311 40.8769 95.226 40.7581 94.9927 40.544C94.7594 40.3299 94.615 40.036 94.588 39.7206H94.5897ZM12.2722 39.5776C11.9398 39.5386 11.6363 39.3695 11.4283 39.1072C11.2203 38.8449 11.1247 38.5109 11.1625 38.1783C11.2008 37.8457 11.3696 37.5419 11.6318 37.3338C11.8941 37.1257 12.2283 37.0303 12.5609 37.0686C12.7257 37.0874 12.8853 37.1386 13.0304 37.2191C13.1755 37.2996 13.3033 37.408 13.4065 37.5379C13.5097 37.6678 13.5863 37.8168 13.632 37.9764C13.6776 38.136 13.6913 38.3029 13.6724 38.4678C13.6363 38.7754 13.4887 39.059 13.2575 39.265C13.0262 39.471 12.7275 39.585 12.4179 39.5855C12.3686 39.5854 12.3194 39.5828 12.2705 39.5776H12.2722ZM94.009 35.4912C93.9457 35.1626 94.0155 34.8223 94.203 34.5451C94.3905 34.2679 94.6805 34.0765 95.0091 34.013C95.3381 33.9503 95.6787 34.0207 95.9558 34.2089C96.233 34.3971 96.4241 34.6876 96.4873 35.0166C96.5184 35.1796 96.5172 35.3471 96.4837 35.5096C96.4501 35.672 96.3848 35.8263 96.2917 35.9636C96.1985 36.1009 96.0791 36.2184 95.9405 36.3096C95.8019 36.4007 95.6466 36.4637 95.4837 36.4948C95.4047 36.5095 95.3245 36.5169 95.2442 36.5167C94.951 36.516 94.6672 36.4133 94.4415 36.2262C94.2158 36.0391 94.0622 35.7792 94.0072 35.4912H94.009ZM12.8767 35.2149C12.7147 35.179 12.5614 35.1114 12.4256 35.0161C12.2897 34.9208 12.1741 34.7997 12.0852 34.6595C11.9964 34.5194 11.9361 34.3631 11.9078 34.1996C11.8795 34.0361 11.8838 33.8687 11.9204 33.7068C11.9934 33.3812 12.1924 33.0978 12.4739 32.9185C12.7554 32.7393 13.0964 32.6789 13.4223 32.7506C13.7491 32.8241 14.0332 33.0243 14.2124 33.3073C14.3915 33.5902 14.451 33.9327 14.3777 34.2595C14.3155 34.5391 14.1601 34.7893 13.9369 34.9688C13.7136 35.1484 13.436 35.2466 13.1495 35.2473C13.057 35.2471 12.9649 35.2362 12.8749 35.2149H12.8767ZM92.9852 31.3478C92.937 31.1892 92.9207 31.0226 92.9369 30.8577C92.9532 30.6927 93.0019 30.5325 93.0801 30.3864C93.1583 30.2402 93.2645 30.1109 93.3928 30.0058C93.521 29.9007 93.6687 29.822 93.8274 29.774C93.9859 29.7257 94.1524 29.7092 94.3173 29.7253C94.4822 29.7414 94.6423 29.7899 94.7885 29.8679C94.9347 29.946 95.0641 30.0521 95.1692 30.1802C95.2743 30.3083 95.3531 30.4558 95.4012 30.6144C95.4499 30.7732 95.4669 30.9401 95.451 31.1055C95.4352 31.2708 95.3869 31.4314 95.3089 31.5781C95.231 31.7248 95.1248 31.8546 94.9966 31.9602C94.8684 32.0658 94.7206 32.1451 94.5616 32.1935C94.4418 32.2293 94.3174 32.2473 94.1923 32.247C93.9209 32.2471 93.6567 32.1597 93.4389 31.9977C93.2211 31.8357 93.0614 31.6078 92.9834 31.3478H92.9852ZM13.9356 30.9408C13.6187 30.8329 13.3576 30.6038 13.2096 30.3036C13.0615 30.0034 13.0387 29.6568 13.146 29.3397C13.2537 29.0232 13.4825 28.7622 13.7823 28.6142C14.0822 28.4662 14.4285 28.4432 14.7453 28.5502C15.0618 28.6584 15.3226 28.8876 15.4706 29.1877C15.6186 29.4877 15.6417 29.8342 15.5348 30.1512C15.4502 30.4015 15.2893 30.619 15.0746 30.7731C14.86 30.9272 14.6024 31.01 14.3382 31.0101C14.2005 31.0094 14.0639 30.986 13.9338 30.9408H13.9356ZM91.5306 27.336C91.4659 27.1834 91.4319 27.0195 91.4306 26.8537C91.4292 26.6879 91.4606 26.5235 91.5228 26.3698C91.5851 26.2162 91.677 26.0763 91.7933 25.9582C91.9097 25.8401 92.0482 25.7461 92.2009 25.6815C92.5092 25.5509 92.8567 25.5481 93.1671 25.6736C93.4775 25.7991 93.7254 26.0427 93.8563 26.3509C93.9868 26.6593 93.9896 27.0069 93.8639 27.3173C93.7382 27.6277 93.4944 27.8756 93.1861 28.0063C93.0306 28.0732 92.8631 28.1075 92.6939 28.1072C92.4454 28.1075 92.2023 28.0345 91.9951 27.8973C91.7879 27.7602 91.6257 27.5649 91.5289 27.336H91.5306ZM15.4401 26.8027C15.1367 26.6616 14.9017 26.406 14.7865 26.0919C14.6714 25.7777 14.6856 25.4308 14.826 25.1271C14.9661 24.825 15.2198 24.5904 15.532 24.4745C15.8441 24.3585 16.1894 24.3704 16.4928 24.5077C16.7971 24.6483 17.0331 24.9039 17.1491 25.2184C17.2651 25.5329 17.2515 25.8806 17.1113 26.1851C17.0101 26.4036 16.8486 26.5887 16.6458 26.7186C16.443 26.8486 16.2073 26.9179 15.9664 26.9185C15.7847 26.9186 15.605 26.8791 15.4401 26.8027ZM89.6577 23.5015C89.5771 23.3564 89.526 23.1969 89.5071 23.0321C89.4882 22.8673 89.5019 22.7004 89.5475 22.5409C89.5932 22.3814 89.6698 22.2324 89.7729 22.1025C89.8761 21.9726 90.0039 21.8643 90.1489 21.7838C90.2941 21.7033 90.4537 21.6522 90.6186 21.6335C90.7835 21.6147 90.9504 21.6286 91.1099 21.6744C91.2695 21.7202 91.4184 21.7969 91.5482 21.9003C91.6781 22.0037 91.7863 22.1316 91.8667 22.2768C92.0281 22.5699 92.0669 22.915 91.9745 23.2366C91.8821 23.5582 91.666 23.8301 91.3736 23.9927C91.1858 24.0971 90.9744 24.1515 90.7595 24.1507C90.5347 24.1506 90.3139 24.0903 90.1202 23.9762C89.9264 23.862 89.7667 23.6981 89.6577 23.5015ZM17.3701 22.8444C17.2275 22.7596 17.1031 22.6476 17.0039 22.5147C16.9046 22.3818 16.8326 22.2307 16.7919 22.0699C16.7511 21.9091 16.7425 21.7419 16.7664 21.5778C16.7904 21.4137 16.8465 21.2559 16.9315 21.1135C17.1029 20.8257 17.3817 20.6178 17.7065 20.5356C18.0312 20.4533 18.3754 20.5034 18.6632 20.6749C18.8058 20.7596 18.9302 20.8717 19.0294 21.0046C19.1286 21.1375 19.2007 21.2886 19.2414 21.4494C19.2822 21.6101 19.2908 21.7774 19.2669 21.9415C19.2429 22.1056 19.1868 22.2633 19.1018 22.4058C18.9893 22.5934 18.83 22.7487 18.6395 22.8563C18.4489 22.964 18.2337 23.0203 18.0149 23.0198C17.788 23.0211 17.5651 22.9604 17.3701 22.8444ZM87.396 19.881C87.3006 19.7452 87.2329 19.592 87.1968 19.43C87.1607 19.2681 87.1569 19.1006 87.1857 18.9372C87.2144 18.7738 87.2752 18.6176 87.3644 18.4778C87.4537 18.3379 87.5697 18.217 87.7057 18.122C87.9796 17.9309 88.3181 17.8561 88.647 17.9142C88.9759 17.9722 89.2684 18.1583 89.4603 18.4317C89.5558 18.5675 89.6235 18.7208 89.6596 18.8828C89.6957 19.0448 89.6995 19.2124 89.6707 19.3759C89.642 19.5394 89.5812 19.6956 89.4919 19.8355C89.4027 19.9755 89.2867 20.0965 89.1506 20.1915C88.9392 20.3403 88.6871 20.4203 88.4286 20.4205C88.2261 20.42 88.0266 20.3708 87.8472 20.2768C87.6678 20.1829 87.5136 20.0471 87.3978 19.881H87.396ZM19.708 19.1133C19.4397 18.9129 19.262 18.614 19.2139 18.2825C19.1659 17.951 19.2515 17.614 19.4519 17.3456C19.5512 17.2127 19.6758 17.1007 19.8184 17.0159C19.9611 16.9311 20.119 16.8753 20.2833 16.8516C20.4475 16.8279 20.6148 16.8368 20.7756 16.8777C20.9364 16.9187 21.0876 16.9909 21.2205 17.0903C21.354 17.1895 21.4666 17.3141 21.5518 17.4569C21.637 17.5997 21.6932 17.7579 21.7171 17.9225C21.741 18.0871 21.7321 18.2548 21.691 18.416C21.6499 18.5771 21.5773 18.7285 21.4775 18.8616C21.3603 19.0192 21.2077 19.1471 21.032 19.235C20.8563 19.3229 20.6624 19.3684 20.466 19.3677C20.1931 19.3669 19.9277 19.2777 19.7098 19.1133H19.708ZM84.766 16.5175C84.5463 16.2648 84.4361 15.9352 84.4594 15.6012C84.4828 15.2673 84.6379 14.9563 84.8905 14.7366C85.0156 14.6276 85.1609 14.5444 85.3181 14.4917C85.4753 14.439 85.6414 14.4178 85.8068 14.4294C85.9723 14.4409 86.1338 14.485 86.2821 14.5591C86.4305 14.6332 86.5628 14.7359 86.6714 14.8612C86.7803 14.9862 86.8635 15.1314 86.9163 15.2886C86.969 15.4458 86.9902 15.6119 86.9787 15.7773C86.9672 15.9427 86.9233 16.1042 86.8493 16.2526C86.7753 16.4009 86.6729 16.5333 86.5477 16.6421C86.3182 16.8426 86.0235 16.9526 85.7187 16.9517C85.5384 16.9515 85.3602 16.9127 85.1961 16.8377C85.0321 16.7628 84.886 16.6536 84.7677 16.5175H84.766ZM22.4232 15.6455C22.3016 15.5327 22.2035 15.3971 22.1343 15.2464C22.0652 15.0957 22.0264 14.9328 22.0202 14.7671C22.014 14.6014 22.0405 14.4361 22.0982 14.2806C22.1559 14.1252 22.2437 13.9826 22.3565 13.8611C22.469 13.7394 22.6043 13.6411 22.7548 13.5717C22.9052 13.5024 23.0679 13.4633 23.2335 13.4569C23.399 13.4505 23.5642 13.4767 23.7197 13.5342C23.8751 13.5917 24.0176 13.6792 24.1392 13.7918C24.261 13.9044 24.3595 14.0399 24.429 14.1906C24.4984 14.3413 24.5375 14.5042 24.5439 14.67C24.5504 14.8359 24.524 15.0013 24.4665 15.1569C24.4089 15.3126 24.3212 15.4553 24.2085 15.577C24.0905 15.7049 23.9474 15.8069 23.7881 15.8766C23.6288 15.9464 23.4568 15.9824 23.2829 15.9823C22.9641 15.9827 22.6569 15.8624 22.4232 15.6455ZM81.8034 13.447C81.6819 13.334 81.5839 13.1981 81.515 13.0472C81.4461 12.8962 81.4076 12.7331 81.4019 12.5673C81.3961 12.4015 81.4231 12.2361 81.4813 12.0807C81.5395 11.9253 81.6278 11.783 81.7411 11.6618C81.9696 11.4171 82.2859 11.273 82.6204 11.2614C82.955 11.2497 83.2805 11.3713 83.5255 11.5995C83.7701 11.8282 83.9139 12.1446 83.9256 12.4792C83.9373 12.8139 83.8158 13.1395 83.5878 13.3847C83.4694 13.5113 83.3262 13.6123 83.1671 13.6812C83.0081 13.7502 82.8365 13.7857 82.6631 13.7856C82.3439 13.7865 82.0363 13.6654 81.8034 13.447ZM25.4823 12.482C25.373 12.3573 25.2895 12.2123 25.2363 12.0554C25.1831 11.8984 25.1614 11.7324 25.1724 11.567C25.1834 11.4016 25.2269 11.24 25.3004 11.0915C25.3739 10.9429 25.4759 10.8103 25.6007 10.7011C25.8523 10.4805 26.1812 10.3687 26.5151 10.3904C26.849 10.4121 27.1607 10.5655 27.3816 10.8169C27.6024 11.0689 27.7142 11.3983 27.6925 11.7326C27.6708 12.067 27.5173 12.3791 27.2658 12.6004C27.0358 12.8022 26.7401 12.9132 26.4341 12.9128C26.2543 12.9126 26.0766 12.8739 25.913 12.7993C25.7495 12.7247 25.6038 12.6159 25.4858 12.4803L25.4823 12.482ZM78.5321 10.7029C78.265 10.5008 78.0889 10.201 78.0426 9.8693C77.9962 9.53759 78.0832 9.20104 78.2847 8.93343C78.4869 8.66654 78.7867 8.49067 79.1183 8.4443C79.4499 8.39793 79.7864 8.48485 80.0541 8.68603C80.321 8.88829 80.4969 9.18804 80.5432 9.51968C80.5896 9.85131 80.5027 10.1878 80.3015 10.4555C80.1836 10.6115 80.0311 10.738 79.8561 10.825C79.681 10.9121 79.4882 10.9574 79.2926 10.9573C79.0182 10.9577 78.7511 10.8683 78.5321 10.7029ZM28.8624 9.65016C28.6711 9.37713 28.5953 9.03955 28.6517 8.71094C28.708 8.38232 28.8919 8.08928 29.1633 7.89561C29.2986 7.79981 29.4515 7.73164 29.6132 7.695C29.7749 7.65836 29.9422 7.65397 30.1056 7.68208C30.269 7.7102 30.4252 7.77026 30.5653 7.85883C30.7055 7.94741 30.8268 8.06275 30.9223 8.19827C31.0182 8.33354 31.0865 8.48639 31.1233 8.64807C31.16 8.80976 31.1646 8.97711 31.1366 9.14056C31.1087 9.30401 31.0488 9.46034 30.9604 9.60062C30.872 9.7409 30.7568 9.86237 30.6213 9.95809C30.4086 10.1084 30.1546 10.1893 29.8941 10.1897C29.6915 10.1889 29.4921 10.1394 29.3125 10.0456C29.133 9.95168 28.9787 9.81608 28.8624 9.65016ZM74.9975 8.30881C74.7122 8.13559 74.507 7.85658 74.4267 7.53266C74.3463 7.20873 74.3973 6.86617 74.5685 6.57969C74.7413 6.29323 75.0207 6.087 75.3453 6.00625C75.67 5.92549 76.0134 5.97682 76.3003 6.14895C76.5869 6.32158 76.7933 6.60095 76.8741 6.92567C76.9548 7.25039 76.9034 7.59389 76.731 7.8807C76.619 8.0681 76.4603 8.22322 76.2704 8.33087C76.0805 8.43852 75.8659 8.495 75.6476 8.49479C75.4175 8.49442 75.1918 8.43133 74.9949 8.31231L74.9975 8.30881ZM32.5119 7.19379C32.3489 6.90142 32.3085 6.5564 32.3994 6.23428C32.4904 5.91217 32.7052 5.63921 32.997 5.4752C33.2893 5.31203 33.6344 5.27147 33.9566 5.36242C34.2788 5.45336 34.5518 5.6684 34.7156 5.96034C34.879 6.2526 34.9197 6.59779 34.8287 6.92004C34.7378 7.24229 34.5226 7.51525 34.2305 7.67892C34.043 7.78457 33.8315 7.84016 33.6164 7.84034C33.3914 7.84069 33.1704 7.78095 32.9762 7.66728C32.782 7.55362 32.6217 7.39015 32.5119 7.19379ZM71.2252 6.30862C71.0747 6.23878 70.9393 6.13997 70.827 6.01782C70.7147 5.89567 70.6275 5.75259 70.5704 5.59674C70.5134 5.44089 70.4877 5.27533 70.4946 5.10952C70.5016 4.94371 70.5412 4.7809 70.6111 4.63039C70.681 4.47984 70.7798 4.34453 70.9019 4.23218C71.0241 4.11983 71.1671 4.03266 71.323 3.97563C71.4788 3.9186 71.6444 3.89284 71.8102 3.89982C71.976 3.90679 72.1388 3.94637 72.2893 4.01629C72.5932 4.15751 72.8286 4.41361 72.9438 4.7283C73.0589 5.04299 73.0444 5.39052 72.9034 5.69452C72.8016 5.91265 72.6396 6.09716 72.4365 6.22631C72.2334 6.35546 71.9976 6.42389 71.7568 6.42354C71.5732 6.42425 71.3917 6.38441 71.2252 6.30686V6.30862ZM36.3973 5.13044C36.3318 4.97821 36.297 4.81456 36.2947 4.64885C36.2925 4.48313 36.323 4.31861 36.3845 4.16469C36.4459 4.01077 36.5371 3.87048 36.6528 3.75183C36.7685 3.63319 36.9065 3.53853 37.0588 3.47326C37.3665 3.34152 37.7139 3.33738 38.0247 3.46175C38.3355 3.58612 38.5841 3.82882 38.716 4.13648C38.8474 4.4432 38.8518 4.78949 38.7283 5.09947C38.6048 5.40944 38.3635 5.65781 38.0571 5.79015C37.9004 5.85785 37.7314 5.89278 37.5606 5.89279C37.3138 5.89276 37.0723 5.82036 36.8662 5.68456C36.6601 5.54875 36.4983 5.35548 36.4008 5.12868L36.3973 5.13044ZM67.2626 4.71285C67.1053 4.65948 66.96 4.57561 66.8352 4.46604C66.7104 4.35647 66.6084 4.22336 66.535 4.07433C66.4617 3.92529 66.4184 3.76326 66.4078 3.5975C66.3972 3.43173 66.4193 3.2655 66.473 3.10831C66.5266 2.95129 66.6107 2.80639 66.7204 2.68193C66.8302 2.55747 66.9634 2.4559 67.1124 2.38303C67.2615 2.31017 67.4235 2.26745 67.5891 2.25732C67.7547 2.2472 67.9207 2.26987 68.0775 2.32403C68.2344 2.37765 68.3791 2.46166 68.5034 2.57127C68.6277 2.68088 68.7292 2.81392 68.802 2.96279C68.8749 3.11166 68.9177 3.27343 68.9279 3.43885C68.9382 3.60427 68.9157 3.77008 68.8618 3.92681C68.7767 4.17565 68.6159 4.39167 68.402 4.5447C68.1881 4.69773 67.9317 4.78014 67.6687 4.7804C67.5317 4.77891 67.3957 4.75551 67.2661 4.7111L67.2626 4.71285ZM40.4819 3.48467C40.433 3.32615 40.4158 3.15953 40.4313 2.99435C40.4467 2.82917 40.4946 2.66866 40.5722 2.522C40.6498 2.37535 40.7555 2.24542 40.8833 2.13964C41.0111 2.03387 41.1585 1.95433 41.3171 1.90557C41.6369 1.80709 41.9827 1.83942 42.2787 1.99548C42.5747 2.15154 42.7968 2.41859 42.8962 2.7381C42.9943 3.05825 42.9615 3.40425 42.805 3.70026C42.6484 3.99626 42.3809 4.21812 42.061 4.3172C41.9406 4.35476 41.8152 4.37399 41.6891 4.37422C41.42 4.37348 41.1581 4.28689 40.9417 4.12706C40.7252 3.96723 40.5654 3.74249 40.4854 3.48554L40.4819 3.48467ZM63.1578 3.53993C62.9961 3.50318 62.8432 3.4349 62.7079 3.33902C62.5727 3.24313 62.4576 3.12152 62.3694 2.98113C62.2811 2.84074 62.2214 2.68433 62.1937 2.52085C62.1659 2.35737 62.1707 2.19003 62.2077 2.02839C62.2823 1.70188 62.4836 1.41839 62.7672 1.24022C63.0508 1.06206 63.3936 1.00382 63.7201 1.0783C63.8818 1.11525 64.0345 1.18369 64.1697 1.2797C64.3049 1.37572 64.4199 1.49742 64.508 1.63787C64.5962 1.77832 64.6558 1.93476 64.6835 2.09825C64.7111 2.26174 64.7063 2.42909 64.6693 2.59072C64.6059 2.86913 64.4499 3.11778 64.2268 3.29596C64.0037 3.47413 63.7267 3.57129 63.4411 3.57152C63.3479 3.57174 63.2549 3.56144 63.1639 3.54081L63.1578 3.53993ZM44.7209 2.28104C44.6891 2.11837 44.6895 1.951 44.7224 1.78851C44.7552 1.62603 44.8198 1.4716 44.9123 1.33408C45.0049 1.19655 45.1236 1.07861 45.2618 0.987003C45.4 0.895397 45.5548 0.83192 45.7175 0.800201C46.0462 0.736351 46.3867 0.80566 46.6643 0.992883C46.9418 1.1801 47.1336 1.46991 47.1975 1.79854C47.2294 1.96127 47.2289 2.12869 47.1961 2.29124C47.1632 2.45378 47.0987 2.60826 47.0062 2.74586C46.9136 2.88346 46.7949 3.00148 46.6567 3.09317C46.5185 3.18486 46.3636 3.24844 46.2009 3.28026C46.1203 3.29606 46.0383 3.30371 45.9561 3.30307C45.6637 3.30229 45.3806 3.19993 45.1553 3.0135C44.93 2.82708 44.7765 2.56816 44.7209 2.28104ZM58.9556 2.80741C58.6235 2.76701 58.3209 2.59658 58.1142 2.33347C57.9075 2.07036 57.8135 1.73604 57.8529 1.40377C57.8726 1.23913 57.9245 1.07998 58.0057 0.935411C58.0869 0.790842 58.1958 0.663684 58.3261 0.5612C58.4564 0.458716 58.6057 0.382914 58.7653 0.338123C58.925 0.293332 59.0919 0.28043 59.2565 0.300153C59.5889 0.340109 59.8917 0.510424 60.0985 0.773644C60.3053 1.03686 60.3991 1.37144 60.3593 1.70379C60.323 2.0104 60.1755 2.29306 59.9448 2.49823C59.7141 2.7034 59.4161 2.81684 59.1074 2.81706C59.0559 2.81794 59.0043 2.81618 58.953 2.81179L58.9556 2.80741ZM49.0591 1.5336C49.0299 1.20012 49.1342 0.868678 49.3492 0.612076C49.5642 0.355473 49.8722 0.194694 50.2057 0.165053C50.3712 0.150491 50.5379 0.168735 50.6963 0.218741C50.8547 0.268746 51.0017 0.349528 51.1289 0.456456C51.256 0.563384 51.3608 0.694355 51.4372 0.84186C51.5136 0.989366 51.5602 1.1505 51.5742 1.31604C51.5892 1.48119 51.5713 1.64766 51.5218 1.80591C51.4723 1.96416 51.392 2.11107 51.2855 2.23821C51.1791 2.36536 51.0486 2.47024 50.9015 2.54684C50.7544 2.62344 50.5937 2.67025 50.4285 2.68459C50.3917 2.6881 50.3539 2.68985 50.3153 2.68985C49.9992 2.68923 49.6949 2.57014 49.4623 2.35608C49.2297 2.14202 49.0858 1.84855 49.0591 1.5336ZM54.6956 2.5258C54.3606 2.52003 54.0415 2.3817 53.8084 2.14112C53.5752 1.90055 53.4469 1.57735 53.4516 1.24235C53.4576 0.90775 53.5959 0.589161 53.8363 0.356338C54.0767 0.123515 54.3995 -0.00457063 54.7342 0.000124679C54.9 0.00252502 55.0637 0.0375967 55.216 0.103333C55.3682 0.169069 55.506 0.26418 55.6215 0.383224C55.7369 0.502269 55.8278 0.64291 55.8888 0.797101C55.9499 0.951293 55.9799 1.11601 55.9773 1.28183C55.9727 1.6132 55.8378 1.92945 55.6019 2.16223C55.3661 2.395 55.048 2.5256 54.7166 2.5258H54.6956Z" fill="#463B32"/>
<path d="M91.9912 62.3564C91.6987 62.3568 91.4151 62.2557 91.1887 62.0704C90.9624 61.8851 90.8073 61.627 90.75 61.3401C90.6926 61.0532 90.7366 60.7554 90.8743 60.4973C91.012 60.2391 91.2349 60.0368 91.5051 59.9247C91.7753 59.8125 92.076 59.7976 92.356 59.8824C92.636 59.9672 92.8779 60.1465 93.0405 60.3897C93.2031 60.6329 93.2763 60.9249 93.2476 61.2161C93.219 61.5072 93.0903 61.7794 92.8834 61.9862C92.646 62.2217 92.3256 62.3547 91.9912 62.3564Z" fill="#463B32"/>
<path d="M44.7629 25.8307C44.5123 25.8298 44.2708 25.7359 44.0854 25.5672C43.9 25.3985 43.7837 25.167 43.7591 24.9175C43.7346 24.6681 43.8034 24.4183 43.9524 24.2167C44.1014 24.0151 44.3199 23.8759 44.5656 23.8261C45.0542 23.727 45.5735 23.6393 46.0762 23.555C47.1965 23.3673 48.3571 23.1726 49.2739 22.8357C50.8066 22.2747 52.3042 21.622 53.7585 20.8811C55.3324 20.0775 56.4886 19.1266 57.5063 17.8106C57.7756 17.4597 58.0326 17.1044 58.2958 16.7272C58.4713 16.4851 58.6467 16.2421 58.8222 16.0026L58.9161 15.8499C58.1519 15.8008 57.4247 15.8052 56.7229 15.8087C56.479 15.8087 56.236 15.8087 55.9938 15.8087C54.5187 15.7921 53.0467 15.9472 51.6075 16.271C49.4143 16.7781 46.3763 17.9203 44.3559 20.4819C43.0935 22.083 41.2047 23.9709 39.3554 23.8595C39.099 23.8291 38.8639 23.7019 38.6981 23.5039C38.5324 23.3059 38.4486 23.0521 38.4638 22.7943C38.479 22.5366 38.5922 22.2944 38.7801 22.1173C38.968 21.9402 39.2165 21.8416 39.4747 21.8417C40.1879 21.8847 41.4854 20.8601 42.7689 19.2318C44.6533 16.8456 47.5527 15.1349 51.1504 14.3015C52.742 13.9437 54.3696 13.7712 56.0009 13.7874C56.2386 13.7874 56.4755 13.7874 56.7132 13.7874C57.9625 13.7804 59.2573 13.7734 60.7864 14.0305C60.9636 14.0601 61.1296 14.1364 61.2676 14.2515C61.4055 14.3665 61.5103 14.5162 61.5713 14.6852C61.6323 14.8541 61.6472 15.0362 61.6146 15.2129C61.582 15.3895 61.5029 15.5543 61.3856 15.6903C61.2979 15.8289 61.0522 16.2333 60.9031 16.4798C60.6267 16.9421 60.5311 17.1 60.4644 17.1939C60.289 17.4299 60.1206 17.6676 59.9495 17.9063C59.6863 18.2809 59.4038 18.6677 59.1126 19.0467C57.9019 20.6162 56.5351 21.7373 54.6823 22.6839C53.1539 23.4644 51.5795 24.1514 49.9678 24.7411C48.8739 25.1412 47.6211 25.3552 46.4096 25.5552C45.9008 25.643 45.42 25.7219 44.9656 25.814C44.8988 25.8264 44.8309 25.832 44.7629 25.8307ZM61.0935 15.9227C61.0318 15.9557 60.9668 15.9819 60.8996 16.0008C60.9669 15.9821 61.032 15.956 61.0935 15.9227Z" fill="#463B32"/>
<path d="M33.9454 34.5174C32.6167 34.5059 31.3047 34.2213 30.0906 33.6814C28.794 33.1068 27.9685 32.2392 27.3289 30.7811C26.528 28.9529 27.6105 27.7107 28.4001 26.8053C28.551 26.6299 28.708 26.4544 28.8528 26.2711C29.1835 25.8754 29.5455 25.5069 29.9353 25.1692C30.23 24.9122 30.5073 24.6358 30.7652 24.3419C30.9708 24.0815 31.1606 23.8091 31.3337 23.5261C31.5722 23.1342 31.84 22.7609 32.1347 22.4093C32.813 21.62 33.7198 21.0608 34.7296 20.8091C35.2367 20.6846 35.728 20.7153 36.1614 20.7425C36.4947 20.7635 36.8395 20.7846 37.0185 20.7118C38.2931 20.1933 39.3204 18.8537 40.3144 17.5579C40.7179 17.0316 41.0987 16.5359 41.5022 16.0806C43.112 14.2682 45.2991 12.8575 48.0028 11.8881C49.5421 11.3488 51.138 10.9877 52.7594 10.8117C52.9989 10.7845 53.2393 10.7547 53.4814 10.724C54.743 10.5678 56.0457 10.4073 57.5485 10.4924C57.7273 10.5025 57.9002 10.5598 58.0496 10.6585C58.199 10.7573 58.3196 10.8939 58.399 11.0544C58.4784 11.215 58.5137 11.3937 58.5015 11.5724C58.4892 11.751 58.4298 11.9233 58.3293 12.0715C58.2547 12.2188 58.0661 12.6443 57.9468 12.9066C57.7231 13.4058 57.645 13.576 57.5862 13.6795C57.4423 13.9304 57.3011 14.1857 57.1607 14.4419L56.8976 14.9121C56.8326 15.0282 56.7455 15.1303 56.6411 15.2127C56.5367 15.2951 56.4171 15.3561 56.2891 15.3923C56.1611 15.4284 56.0273 15.4391 55.8952 15.4235C55.7631 15.4079 55.6354 15.3665 55.5194 15.3016C55.4033 15.2367 55.3011 15.1495 55.2187 15.0451C55.1364 14.9407 55.0753 14.8211 55.0392 14.6932C55.003 14.5652 54.9924 14.4313 55.0079 14.2993C55.0235 14.1672 55.0649 14.0395 55.1298 13.9234L55.3851 13.4628C55.529 13.1996 55.6729 12.9408 55.8238 12.682C55.8387 12.6531 55.8668 12.5943 55.901 12.5171C55.1527 12.5584 54.4342 12.647 53.7297 12.7338C53.4814 12.7645 53.2349 12.7952 52.9902 12.8215C51.524 12.9806 50.0808 13.307 48.6889 13.7944C46.3088 14.648 44.4007 15.8692 43.0199 17.4246C42.6637 17.8255 42.3041 18.294 41.9242 18.7896C40.8197 20.2301 39.5678 21.8601 37.7834 22.5874C37.1772 22.8339 36.5719 22.7962 36.0385 22.7628C35.721 22.7435 35.4245 22.7251 35.2139 22.776C34.6094 22.9291 34.0674 23.2663 33.6629 23.741C33.4345 24.0181 33.2263 24.3113 33.04 24.6183C32.8234 24.9707 32.5852 25.3094 32.3268 25.6324C32.0103 25.9995 31.6682 26.3437 31.303 26.6623C30.9926 26.9309 30.7029 27.2223 30.4363 27.5343C30.2652 27.7484 30.0941 27.944 29.9283 28.1344C29.0958 29.0906 28.9265 29.374 29.187 29.967C29.6257 30.9583 30.0897 31.4584 30.9126 31.8286C32.6075 32.5795 35.2288 32.9375 37.0386 31.4777L37.0799 31.4443C37.2068 31.3369 37.3437 31.2417 37.4887 31.1601C37.7226 31.0282 37.9994 30.9946 38.2581 31.0667C38.5168 31.1389 38.7363 31.3108 38.8682 31.5448C39.0001 31.7787 39.0337 32.0555 38.9616 32.3142C38.8894 32.5729 38.7175 32.7924 38.4835 32.9243C38.4378 32.9484 38.3951 32.9779 38.3563 33.012L38.3107 33.0489C36.9974 34.1121 35.4534 34.5174 33.9454 34.5174ZM58.0705 12.3346C58.0121 12.375 57.9498 12.4094 57.8845 12.4373C57.9497 12.4092 58.012 12.3749 58.0705 12.3346Z" fill="#463B32"/>
<path d="M71.0795 50.0335H71.026C70.7579 50.0192 70.5065 49.8991 70.3269 49.6996C70.1473 49.5001 70.0542 49.2375 70.068 48.9694C70.0961 48.4193 70.2215 47.6587 70.3426 46.9227C70.4303 46.3797 70.5181 45.87 70.5523 45.5033C70.9506 41.4678 70.9532 38.1464 69.6671 35.0347C67.9757 30.9449 65.2351 28.4332 61.5225 27.5673C59.003 26.9804 55.8983 27.3989 53.7375 27.8542C53.1901 27.97 52.6234 28.1244 52.0234 28.2867C50.9075 28.5902 49.7521 28.9008 48.5678 29.0078C45.65 29.2631 44.7639 27.1594 44.0507 25.4689L43.9805 25.3031C43.8806 25.0568 43.8815 24.781 43.9832 24.5354C44.0848 24.2898 44.279 24.094 44.5238 23.9903C44.7686 23.8866 45.0443 23.8834 45.2915 23.9813C45.5386 24.0792 45.7373 24.2704 45.8447 24.5135L45.9158 24.6829C46.6922 26.5251 47.0562 27.1094 48.3914 26.9918C49.395 26.9041 50.4618 26.6137 51.4926 26.3339C52.0935 26.1707 52.7155 26.0014 53.32 25.8742C55.6816 25.3768 59.1012 24.925 61.9822 25.5961C66.3063 26.6041 69.6145 29.6009 71.5383 34.2618C72.9858 37.763 72.9964 41.3678 72.5674 45.7033C72.5253 46.1323 72.4349 46.6762 72.3402 47.2517C72.2287 47.9333 72.1121 48.6378 72.0901 49.0755C72.0762 49.3342 71.9637 49.5777 71.7757 49.7559C71.5877 49.9341 71.3385 50.0334 71.0795 50.0335Z" fill="#463B32"/>
<path d="M76.6916 49.4093C76.5493 49.4085 76.4087 49.3779 76.279 49.3195C76.1492 49.261 76.0332 49.176 75.9383 49.07C75.8434 48.9639 75.7718 48.8392 75.7281 48.7038C75.6843 48.5684 75.6695 48.4253 75.6844 48.2838C75.8187 47.0784 75.6415 45.7195 75.2721 45.1256C75.1331 44.8903 74.9408 44.6909 74.7108 44.5434C74.4807 44.396 74.2193 44.3045 73.9474 44.2764C73.6844 44.2547 73.42 44.2959 73.176 44.3964C72.9319 44.4969 72.7153 44.6539 72.5438 44.8545C72.4546 44.9531 72.3469 45.0332 72.2268 45.0902C72.1066 45.1472 71.9765 45.1799 71.8437 45.1866C71.7109 45.1933 71.5781 45.1738 71.4529 45.1291C71.3276 45.0845 71.2124 45.0156 71.1138 44.9264C71.0152 44.8373 70.9351 44.7296 70.8781 44.6094C70.8211 44.4893 70.7884 44.3591 70.7817 44.2264C70.775 44.0936 70.7945 43.9608 70.8392 43.8355C70.8838 43.7103 70.9527 43.5951 71.0419 43.4965C71.4245 43.0636 71.9032 42.7262 72.4395 42.5114C72.9759 42.2966 73.5551 42.2104 74.1308 42.2595C74.7156 42.315 75.2794 42.5067 75.7768 42.8194C76.2742 43.132 76.6914 43.5568 76.9951 44.0597C77.7443 45.2712 77.8417 47.2179 77.6969 48.511C77.6685 48.7579 77.5505 48.9858 77.3651 49.1514C77.1798 49.317 76.9401 49.4088 76.6916 49.4093Z" fill="#463B32"/>
<path d="M52.5094 49.3954C52.3539 49.3954 52.2004 49.3597 52.0609 49.291C51.9214 49.2222 51.7996 49.1222 51.7049 48.9988C50.9505 48.0128 50.3241 46.6574 50.11 45.545C49.7144 43.4948 49.5705 41.3078 51.1803 39.2084C53.6516 35.9862 58.2494 33.9202 61.9006 36.4397C62.1216 36.5923 62.273 36.8263 62.3215 37.0905C62.3699 37.3546 62.3115 37.6272 62.159 37.8482C62.0065 38.0692 61.7724 38.2206 61.5082 38.2691C61.2441 38.3175 60.9715 38.2591 60.7505 38.1066C58.1283 36.2967 54.6903 37.9583 52.7866 40.4401C51.7225 41.828 51.7339 43.2755 52.0979 45.1625C52.2287 45.8406 52.655 46.9083 53.313 47.7671C53.4275 47.9172 53.4979 48.0962 53.5162 48.2841C53.5344 48.472 53.4998 48.6613 53.4163 48.8306C53.3328 48.9998 53.2036 49.1424 53.0433 49.2422C52.8831 49.342 52.6982 49.3951 52.5094 49.3954Z" fill="#463B32"/>
<path d="M52.5093 49.4766C52.3408 49.4771 52.1744 49.4385 52.0233 49.3639C51.8721 49.2894 51.7403 49.1808 51.6382 49.0467C50.8758 48.0519 50.2442 46.6781 50.0275 45.5587C49.6274 43.4874 49.4836 41.2793 51.1135 39.1546C52.9699 36.7342 55.7289 35.2305 58.3134 35.2305C59.6139 35.2258 60.884 35.6243 61.9488 36.371C62.1883 36.5362 62.3522 36.7897 62.4047 37.0758C62.4572 37.3619 62.3939 37.6571 62.2287 37.8966C62.0635 38.136 61.81 38.3 61.5239 38.3524C61.2378 38.4049 60.9425 38.3416 60.7031 38.1764C59.9953 37.6836 59.1522 37.4222 58.2897 37.4281C56.415 37.4281 54.2814 38.6308 52.8506 40.4924C51.8057 41.8548 51.8189 43.283 52.1777 45.142C52.3066 45.8105 52.7269 46.8641 53.3769 47.7124C53.5013 47.8748 53.5778 48.0688 53.5977 48.2723C53.6176 48.4759 53.5802 48.681 53.4897 48.8644C53.3991 49.0479 53.2591 49.2023 53.0854 49.3103C52.9117 49.4184 52.7112 49.4757 52.5067 49.4757L52.5093 49.4766ZM58.3134 35.3972C55.7807 35.3972 53.0725 36.8763 51.246 39.2572C49.6573 41.3293 49.8011 43.4953 50.1933 45.5271C50.4056 46.6281 51.0249 47.9694 51.7724 48.9485C51.8456 49.0475 51.9378 49.131 52.0437 49.1941C52.1495 49.2572 52.2668 49.2985 52.3888 49.3158C52.5108 49.333 52.635 49.3258 52.7542 49.2946C52.8734 49.2633 52.9851 49.2087 53.0829 49.1338C53.1808 49.0589 53.2627 48.9653 53.324 48.8584C53.3853 48.7515 53.4246 48.6335 53.4398 48.5113C53.455 48.389 53.4457 48.2649 53.4125 48.1463C53.3793 48.0277 53.3227 47.9169 53.2462 47.8203C52.5804 46.95 52.1487 45.8666 52.018 45.1797C51.6496 43.2699 51.639 41.8031 52.7198 40.3906C54.1779 38.4887 56.365 37.2605 58.2897 37.2605C59.1864 37.2541 60.063 37.526 60.7987 38.0387C61.0015 38.1709 61.2479 38.2187 61.4854 38.1718C61.7229 38.1249 61.9327 37.9871 62.07 37.7877C62.2074 37.5884 62.2614 37.3432 62.2205 37.1046C62.1797 36.866 62.0473 36.6528 61.8515 36.5105C60.8152 35.7836 59.5792 35.3956 58.3134 35.3998V35.3972Z" fill="#463B32"/>
<path d="M42.9962 48.3686C42.7421 48.3683 42.4974 48.2724 42.3108 48.1C42.1242 47.9275 42.0094 47.6911 41.9891 47.4378C41.9674 47.1305 41.8985 46.8284 41.7847 46.5421C41.4539 45.785 40.6574 45.2262 39.8143 44.6411C39.5029 44.4244 39.1809 44.2024 38.8747 43.9585C37.3887 42.8102 36.2063 41.3158 35.4306 39.6055C35.0016 38.6809 34.5656 37.6843 34.3515 36.5684C34.241 35.992 34.3103 35.4963 34.3717 35.0595C34.4208 34.7042 34.4594 34.4243 34.4041 34.1418C34.3523 33.8783 34.4072 33.605 34.5568 33.382C34.7064 33.159 34.9385 33.0046 35.202 32.9527C35.4655 32.9008 35.7388 32.9557 35.9618 33.1053C36.1849 33.255 36.3393 33.4871 36.3912 33.7506C36.5122 34.3647 36.4377 34.9059 36.3771 35.3393C36.3306 35.6753 36.2894 35.9402 36.3403 36.1868C36.5105 37.0772 36.8921 37.9413 37.2685 38.7537C37.9074 40.1766 38.8899 41.4186 40.1275 42.368C40.3907 42.5725 40.6723 42.7707 40.9732 42.9821C41.9601 43.6717 43.0787 44.4525 43.641 45.7333C43.8433 46.2249 43.9667 46.7454 44.0068 47.2755C44.0286 47.5431 43.9433 47.8084 43.7696 48.013C43.5959 48.2177 43.348 48.345 43.0804 48.3669C43.0523 48.3677 43.0243 48.3686 42.9962 48.3686Z" fill="#463B32"/>
<path d="M48.273 48.7768C48.1032 48.7766 47.9362 48.7337 47.7874 48.6521C47.6385 48.5705 47.5125 48.4528 47.421 48.3099C47.3295 48.1669 47.2753 48.0032 47.2636 47.8339C47.2518 47.6645 47.2827 47.495 47.3536 47.3407C47.6143 46.7745 47.8378 46.1919 48.0229 45.5967C48.1536 45.1764 48.2326 44.2202 48.13 43.4034C48.1047 43.141 48.1826 42.879 48.3474 42.6732C48.5121 42.4673 48.7506 42.3338 49.0122 42.3009C49.2737 42.268 49.5379 42.3384 49.7484 42.4971C49.959 42.6558 50.0994 42.8903 50.1398 43.1508C50.2688 44.1825 50.1933 45.4317 49.9565 46.195C49.7447 46.8733 49.4895 47.5373 49.1923 48.1829C49.1122 48.3596 48.9829 48.5096 48.8199 48.6149C48.6569 48.7202 48.467 48.7764 48.273 48.7768Z" fill="#463B32"/>
<path d="M57.3063 69.3934C56.3999 69.3862 55.4978 69.2683 54.62 69.0425C54.1718 68.9302 53.0023 68.5398 50.8013 67.8011C46.6202 66.3975 36.8306 63.1094 35.398 63.3086C34.483 63.4358 33.3566 63.792 32.0512 64.3666C31.805 64.4753 31.5256 64.4818 31.2745 64.3846C31.0234 64.2874 30.8213 64.0944 30.7125 63.8481C30.6037 63.6018 30.5973 63.3224 30.6945 63.0714C30.7917 62.8203 30.9847 62.6182 31.231 62.5094C32.7092 61.8593 34.0163 61.4566 35.1173 61.2996C36.7017 61.0803 42.3031 62.812 51.4425 65.8781C53.1971 66.4677 54.7165 66.9765 55.1078 67.0747C56.8624 67.5134 57.9282 67.3379 58.0853 67.3107C60.6934 66.4887 63.5367 64.0165 67.4651 60.6004C69.3776 58.9336 71.5453 57.0518 74.1052 54.9859C75.3738 53.9621 76.4932 53.0672 77.4161 52.3303C78.603 51.3811 79.6461 50.5477 80.0014 50.2371C80.018 50.0751 79.9756 49.9125 79.8821 49.7792C79.6189 49.4134 78.9171 49.2151 77.9626 49.2309C75.951 49.2669 69.1495 53.5199 63.47 57.7028C61.6277 59.0626 60.611 60.0539 60.6022 60.0635C60.5075 60.157 60.3954 60.2308 60.2722 60.2809C60.149 60.331 60.0172 60.3564 59.8842 60.3555C59.7512 60.3547 59.6197 60.3276 59.4972 60.276C59.3746 60.2243 59.2635 60.149 59.17 60.0543C59.0766 59.9597 59.0027 59.8476 58.9526 59.7244C58.9025 59.6012 58.8772 59.4693 58.878 59.3363C58.8789 59.2033 58.9059 59.0718 58.9576 58.9493C59.0093 58.8268 59.0846 58.7156 59.1792 58.6222C59.224 58.5783 60.2925 57.5282 62.269 56.0728C65.0763 54.0086 74.4851 47.2684 77.9258 47.207H78.0766C80.6207 47.207 81.5103 48.3957 81.8156 49.1134C82.1867 49.9906 82.0656 51.0434 81.5331 51.5785C81.2699 51.8417 80.4699 52.483 78.6802 53.9138C77.7591 54.6499 76.6432 55.5412 75.3764 56.5632C72.8463 58.6055 70.6926 60.4785 68.7968 62.1295C64.6622 65.7264 61.6742 68.324 58.6467 69.26L58.5994 69.2732C58.1746 69.364 57.7405 69.4044 57.3063 69.3934Z" fill="#BD967A"/>
<path d="M57.3063 69.4822C56.3929 69.4722 55.4841 69.3511 54.5999 69.1216C54.1464 69.0084 52.977 68.6172 50.775 67.8785L50.6873 67.8487C46.7044 66.5126 37.3763 63.3824 35.549 63.3824C35.5036 63.3818 35.4581 63.3841 35.413 63.3895C34.505 63.5158 33.3865 63.8693 32.0881 64.4422C31.8234 64.5505 31.5269 64.5511 31.2617 64.444C30.9964 64.3369 30.7835 64.1305 30.6683 63.8687C30.553 63.6069 30.5445 63.3105 30.6445 63.0426C30.7445 62.7746 30.9452 62.5563 31.2038 62.4341C32.6882 61.7814 34.0032 61.3717 35.1112 61.2182C36.7201 60.9936 42.2566 62.7096 51.4751 65.8002C53.2375 66.3915 54.7473 66.8977 55.1342 66.9951C55.8446 67.1802 56.5749 67.2783 57.3089 67.2872C57.5657 67.2917 57.8224 67.2726 58.0757 67.2302C60.6584 66.4152 63.4929 63.95 67.4152 60.5383C69.3329 58.8715 71.4998 56.9871 74.0579 54.9237C75.3273 53.9 76.4467 53.006 77.3696 52.2682C78.5373 51.3348 79.5497 50.5259 79.926 50.1996C79.9329 50.0686 79.8955 49.9392 79.8199 49.832C79.5777 49.4925 78.9031 49.3056 77.9697 49.3188C75.9765 49.3548 69.1969 53.5999 63.5253 57.774C61.6874 59.1285 60.6768 60.1172 60.6663 60.1269C60.4582 60.3257 60.1804 60.4348 59.8926 60.4306C59.6049 60.4264 59.3303 60.3093 59.1282 60.1045C58.926 59.8997 58.8125 59.6236 58.812 59.3358C58.8116 59.048 58.9243 58.7716 59.1258 58.5662C59.1705 58.5214 60.247 57.4652 62.2252 56.008C65.0325 53.9403 74.4641 47.1888 77.9285 47.1265C80.6401 47.0756 81.5814 48.3371 81.8973 49.0828C82.2815 49.9855 82.1525 51.0856 81.5972 51.6401C81.334 51.9033 80.5305 52.5481 78.7364 53.9807C77.8153 54.7176 76.7003 55.6089 75.4344 56.6309C72.9078 58.6697 70.7567 60.5401 68.8601 62.1893C64.7105 65.7976 61.7181 68.4005 58.6731 69.3418L58.6205 69.3567C58.1889 69.4501 57.7478 69.4922 57.3063 69.4822ZM35.5499 63.214C37.4044 63.214 46.4132 66.2362 50.7417 67.6881L50.8294 67.7179C53.027 68.4557 54.1946 68.8461 54.6411 68.9575C55.5122 69.1835 56.4074 69.3028 57.3072 69.3128C57.7346 69.3224 58.1616 69.2812 58.5792 69.19L58.6231 69.1777C61.6339 68.2469 64.6158 65.6537 68.7425 62.0648C70.6471 60.4085 72.799 58.5372 75.3282 56.4958C76.5941 55.4747 77.7109 54.5825 78.632 53.8464C80.4208 52.4165 81.2217 51.7743 81.4788 51.5173C81.9876 51.0084 82.1008 49.9882 81.742 49.1486C81.4411 48.4415 80.5506 47.2458 77.9311 47.2941C74.515 47.3555 65.1228 54.0833 62.3226 56.144C60.354 57.5942 59.2863 58.6416 59.2416 58.6881C59.0754 58.8629 58.9838 59.0956 58.9861 59.3367C58.9885 59.5779 59.0846 59.8087 59.2542 59.9803C59.4238 60.1518 59.6535 60.2505 59.8946 60.2556C60.1358 60.2607 60.3694 60.1718 60.5461 60.0076C60.5549 59.9988 61.5716 59.0031 63.4227 57.6389C69.1136 53.4482 75.9353 49.1872 77.9644 49.1504C78.9645 49.1337 79.6751 49.3425 79.9541 49.7338C80.0601 49.8837 80.1078 50.0671 80.0883 50.2496C80.0858 50.2705 80.0758 50.2898 80.0602 50.304C79.7023 50.6172 78.6689 51.4445 77.4723 52.3998C76.5485 53.1367 75.43 54.0307 74.1614 55.0553C71.605 57.1178 69.4399 59.0031 67.5283 60.6629C63.5806 64.093 60.7391 66.567 58.1143 67.3951C57.8475 67.4411 57.577 67.462 57.3063 67.4574C56.5591 67.4471 55.8159 67.3464 55.0929 67.1574C54.699 67.0591 53.1857 66.5512 51.4347 65.9634C42.9707 63.1236 37.3474 61.3665 35.4314 61.3665C35.332 61.3658 35.2327 61.3717 35.134 61.384C34.0401 61.5358 32.7408 61.9411 31.274 62.5876C31.0795 62.6739 30.9206 62.8243 30.8237 63.0138C30.7268 63.2032 30.6978 63.4201 30.7417 63.6283C30.7856 63.8365 30.8996 64.0234 31.0646 64.1576C31.2297 64.2919 31.4358 64.3654 31.6486 64.3659C31.7773 64.366 31.9047 64.3391 32.0223 64.2869C33.3382 63.7088 34.4691 63.3509 35.392 63.2228C35.4432 63.2166 35.4948 63.2136 35.5464 63.214H35.5499Z" fill="#BD967A"/>
<path d="M29.1835 65.8669C28.6572 65.8669 28.3641 65.4283 28.3484 65.4002C28.294 65.3125 27.8439 64.5501 28.7624 63.9229C28.8772 63.8506 29.0053 63.8018 29.1391 63.7795C29.2729 63.7572 29.4099 63.7618 29.5419 63.793C29.674 63.8241 29.7985 63.8813 29.9082 63.9611C30.018 64.0408 30.1107 64.1417 30.1811 64.2577C30.2514 64.3737 30.298 64.5026 30.318 64.6368C30.338 64.7709 30.3311 64.9078 30.2977 65.0393C30.2643 65.1708 30.2051 65.2943 30.1234 65.4027C30.0418 65.511 29.9394 65.602 29.8222 65.6704C29.6311 65.7928 29.4103 65.8607 29.1835 65.8669Z" fill="#BD967A"/>
<path d="M29.1835 65.9489C28.6186 65.9489 28.3106 65.4953 28.2773 65.4436C28.2185 65.3506 27.7325 64.5224 28.7159 63.8504C28.9286 63.7057 29.1854 63.6402 29.4414 63.6655C29.6974 63.6908 29.9364 63.8052 30.1167 63.9888C30.2969 64.1723 30.4069 64.4134 30.4275 64.6699C30.4481 64.9263 30.3779 65.1818 30.2292 65.3918C30.138 65.5358 30.0138 65.6561 29.8669 65.7427C29.662 65.8721 29.4258 65.9434 29.1835 65.9489ZM29.3327 63.8276C29.1448 63.8268 28.9611 63.8834 28.8063 63.9899C27.9764 64.5601 28.3361 65.2251 28.4238 65.3567C28.4343 65.3734 28.7037 65.784 29.1879 65.784C29.3994 65.777 29.6051 65.7134 29.7836 65.5997C29.9086 65.5257 30.0144 65.4232 30.0924 65.3006C30.1917 65.1617 30.2508 64.9982 30.2633 64.8279C30.2757 64.6577 30.241 64.4873 30.163 64.3354C30.0849 64.1836 29.9665 64.0562 29.8208 63.9673C29.6752 63.8783 29.5078 63.8312 29.337 63.8311L29.3327 63.8276Z" fill="#BD967A"/>
<path d="M57.5212 57.2426C53.7147 57.2426 49.3625 57.0671 48.0554 57.0154C47.9226 57.0096 47.7922 56.9778 47.6717 56.9216C47.5511 56.8654 47.4429 56.7861 47.353 56.6881C47.2632 56.5901 47.1935 56.4754 47.148 56.3504C47.1025 56.2255 47.082 56.0929 47.0878 55.96C47.0935 55.8272 47.1254 55.6968 47.1815 55.5763C47.2377 55.4558 47.317 55.3475 47.415 55.2576C47.513 55.1678 47.6278 55.0981 47.7527 55.0526C47.8776 55.0071 48.0103 54.9866 48.1431 54.9924C53.5533 55.2222 61.7014 55.3626 62.8814 54.9538C63.5586 54.7195 63.963 54.0028 63.963 53.0369C63.963 52.2246 62.998 51.7447 62.5717 51.5719C61.2856 51.1499 44.2805 48.2277 40.9188 49.0173C39.2905 49.3989 34.5541 51.4008 30.8424 53.1001C30.7214 53.1554 30.5907 53.1863 30.4578 53.1911C30.3249 53.1959 30.1923 53.1745 30.0677 53.1281C29.9431 53.0816 29.8288 53.0111 29.7314 52.9205C29.634 52.8299 29.5554 52.721 29.5001 52.6C29.4448 52.4791 29.4139 52.3484 29.4091 52.2155C29.4043 52.0826 29.4257 51.95 29.4722 51.8254C29.5186 51.7007 29.5891 51.5865 29.6797 51.4891C29.7703 51.3917 29.8792 51.3131 30.0002 51.2578C30.8073 50.8885 37.9615 47.6303 40.4564 47.0469C44.4717 46.1056 62.1655 49.2296 63.3112 49.6875C65.0123 50.3683 65.9878 51.5894 65.9878 53.0378C65.9878 54.8801 65.0517 56.346 63.5446 56.868C62.7147 57.1531 60.2609 57.2426 57.5212 57.2426Z" fill="#BD967A"/>
<path d="M57.5213 57.3265C53.6973 57.3265 49.3056 57.151 48.052 57.0984C47.7611 57.0868 47.4868 56.9601 47.2894 56.7462C47.092 56.5323 46.9876 56.2488 46.9993 55.9579C47.0109 55.6671 47.1376 55.3928 47.3515 55.1954C47.5653 54.998 47.8489 54.8936 48.1397 54.9052C51.3611 55.0421 55.0448 55.1272 57.7538 55.1272C60.6032 55.1272 62.3639 55.0394 62.842 54.8719C63.4833 54.6491 63.8658 53.9621 63.8658 53.034C63.8658 52.2699 62.9306 51.8058 62.5279 51.6461C61.3743 51.2689 47.9739 48.9634 42.6181 48.9634C41.8698 48.9634 41.3022 49.0082 40.9259 49.0959C39.302 49.4766 34.5726 51.4768 30.8653 53.1735C30.7223 53.2397 30.5666 53.2738 30.4091 53.2735C30.1586 53.2738 29.9156 53.1884 29.7204 53.0314C29.5252 52.8745 29.3897 52.6554 29.3363 52.4107C29.2828 52.166 29.3148 51.9104 29.4268 51.6864C29.5389 51.4624 29.7242 51.2835 29.952 51.1794C30.7609 50.8092 37.9203 47.5484 40.4249 46.9606C40.9285 46.8422 41.6707 46.7852 42.6304 46.7852C48.8635 46.7852 62.3314 49.2091 63.3341 49.6082C65.0685 50.3022 66.0634 51.5523 66.0634 53.0366C66.0634 54.914 65.1062 56.4124 63.5649 56.9466C62.8411 57.1967 60.8067 57.3265 57.5213 57.3265ZM48.1002 55.0754C47.8575 55.0752 47.6243 55.17 47.4507 55.3397C47.2771 55.5093 47.1768 55.7403 47.1714 55.9829C47.166 56.2256 47.2559 56.4608 47.4218 56.638C47.5878 56.8152 47.8165 56.9203 48.059 56.9308C49.3126 56.9835 53.6999 57.1581 57.5213 57.1581C60.7874 57.1581 62.8034 57.0335 63.5122 56.787C64.9843 56.2773 65.8975 54.8403 65.8975 53.0366C65.8975 51.6242 64.9422 50.4311 63.2745 49.7644C62.2797 49.367 48.8556 46.9571 42.6374 46.9571C41.6909 46.9571 40.9618 47.0159 40.4706 47.1326C37.9817 47.7159 30.8363 50.9715 30.031 51.3435C29.8386 51.432 29.6823 51.5836 29.5879 51.7731C29.4934 51.9626 29.4666 52.1786 29.5117 52.3855C29.5569 52.5923 29.6713 52.7776 29.8361 52.9105C30.0009 53.0434 30.2061 53.1161 30.4178 53.1165C30.5514 53.1157 30.6831 53.0858 30.8039 53.0287C34.5191 51.3277 39.2617 49.3231 40.8925 48.9397C41.2794 48.852 41.8619 48.8029 42.6234 48.8029C47.9915 48.8029 61.4278 51.1154 62.5902 51.4961C63.0288 51.6716 64.0395 52.176 64.0395 53.0419C64.0395 54.0455 63.614 54.7921 62.899 55.0386C62.3928 55.214 60.662 55.3017 57.7529 55.3017C55.0421 55.3017 51.3549 55.214 48.1327 55.0789L48.1002 55.0754Z" fill="#BD967A"/>
<path d="M27.7825 54.4388C27.5712 54.4415 27.3643 54.3784 27.1906 54.2581C27.0169 54.1378 26.8849 53.9664 26.8131 53.7677C26.7807 53.6799 26.5228 52.872 27.4544 52.4412C27.5751 52.3854 27.7056 52.3539 27.8384 52.3485C27.9713 52.3431 28.1039 52.3639 28.2287 52.4098C28.3535 52.4557 28.4681 52.5257 28.5658 52.6158C28.6636 52.7059 28.7426 52.8145 28.7984 52.9351C28.8372 53.021 28.8647 53.1115 28.88 53.2045C28.9327 53.4584 28.886 53.7228 28.7493 53.9432C28.6127 54.1636 28.3966 54.3231 28.1457 54.3888C28.0273 54.4209 27.9052 54.4377 27.7825 54.4388Z" fill="#BD967A"/>
<path d="M27.7825 54.5216C27.5532 54.5255 27.3284 54.4575 27.1396 54.3273C26.9508 54.197 26.8075 54.011 26.7297 53.7952C26.6946 53.6969 26.4157 52.8249 27.4149 52.3635C27.5589 52.2964 27.7158 52.2616 27.8746 52.2617C28.144 52.2669 28.4026 52.3687 28.6035 52.5484C28.8043 52.7281 28.9339 52.9739 28.9688 53.2411C29.0038 53.5083 28.9417 53.7792 28.7939 54.0045C28.646 54.2298 28.4223 54.3946 28.1632 54.469C28.0391 54.5026 27.9111 54.5203 27.7825 54.5216ZM27.8781 52.4293C27.7437 52.4295 27.6109 52.4594 27.4895 52.517C26.6262 52.9162 26.8622 53.6575 26.892 53.7391C26.9581 53.9213 27.0794 54.0785 27.239 54.1886C27.3986 54.2986 27.5886 54.3562 27.7825 54.3532C27.8981 54.3522 28.0131 54.3362 28.1246 54.3058C28.3547 54.2457 28.553 54.0995 28.6782 53.8973C28.8035 53.6951 28.8462 53.4525 28.7975 53.2197C28.7839 53.133 28.7585 53.0486 28.722 52.9688C28.6471 52.808 28.5279 52.6719 28.3785 52.5764C28.229 52.4809 28.0555 52.4298 27.8781 52.4293Z" fill="#BD967A"/>
<path d="M59.754 60.2158C59.5413 60.216 59.3339 60.1487 59.1618 60.0237C58.167 59.3043 55.4843 57.8621 53.942 57.2164C53.8193 57.1651 53.7079 57.0902 53.6142 56.9959C53.5205 56.9016 53.4462 56.7897 53.3957 56.6667C53.2937 56.4183 53.2946 56.1395 53.3981 55.8917C53.5016 55.6439 53.6994 55.4474 53.9478 55.3454C54.1962 55.2434 54.475 55.2443 54.7228 55.3478C56.2484 55.9856 59.1443 57.5112 60.3479 58.3823C60.5213 58.5077 60.6505 58.6849 60.7169 58.8884C60.7833 59.0918 60.7836 59.3111 60.7176 59.5147C60.6516 59.7183 60.5228 59.8957 60.3497 60.0215C60.1766 60.1473 59.968 60.2151 59.754 60.2149V60.2158Z" fill="#BD967A"/>
<path d="M59.7539 60.2994C59.5235 60.2997 59.299 60.2269 59.1126 60.0915C58.1213 59.3739 55.4465 57.9369 53.9095 57.2948C53.7764 57.2392 53.6556 57.1581 53.5539 57.0558C53.4522 56.9536 53.3717 56.8324 53.3168 56.699C53.262 56.5657 53.234 56.4228 53.2344 56.2786C53.2348 56.1344 53.2635 55.9917 53.3191 55.8587C53.3746 55.7256 53.4558 55.6048 53.558 55.5031C53.6602 55.4014 53.7815 55.3209 53.9148 55.2661C54.0482 55.2112 54.191 55.1832 54.3352 55.1836C54.4794 55.184 54.6221 55.2128 54.7552 55.2683C56.2851 55.9078 59.1898 57.4378 60.3978 58.3115C60.5857 58.4474 60.7258 58.6394 60.7978 58.8598C60.8697 59.0803 60.87 59.3179 60.7984 59.5385C60.7269 59.7591 60.5872 59.9514 60.3995 60.0876C60.2118 60.2239 59.9858 60.2971 59.7539 60.2968V60.2994ZM54.3323 55.356C54.1175 55.3556 53.9092 55.4297 53.743 55.5657C53.5767 55.7017 53.4627 55.8911 53.4205 56.1017C53.3783 56.3123 53.4104 56.531 53.5114 56.7206C53.6124 56.9102 53.776 57.0588 53.9744 57.1413C55.5193 57.7869 58.2116 59.2344 59.2108 59.9564C59.3096 60.0278 59.4215 60.0791 59.5401 60.1073C59.6587 60.1355 59.7817 60.14 59.9021 60.1207C60.0224 60.1013 60.1378 60.0585 60.2416 59.9945C60.3454 59.9306 60.4356 59.8469 60.507 59.7481C60.5784 59.6493 60.6297 59.5374 60.6579 59.4188C60.6861 59.3002 60.6906 59.1772 60.6713 59.0568C60.6519 58.9365 60.6091 58.8211 60.5451 58.7173C60.4812 58.6135 60.3974 58.5233 60.2987 58.4519C59.0994 57.5852 56.2123 56.064 54.6902 55.4279C54.577 55.3803 54.4552 55.3558 54.3323 55.356Z" fill="#BD967A"/>
<path d="M72.6166 26.7878C72.3967 26.7881 72.1828 26.7168 72.007 26.5847C71.8313 26.4526 71.7033 26.2669 71.6425 26.0556C71.5817 25.8443 71.5912 25.619 71.6698 25.4137C71.7484 25.2083 71.8916 25.0342 72.0779 24.9175C73.7246 23.8858 77.5784 21.4698 77.7364 18.5774C77.8118 17.2018 76.6187 15.7631 75.3282 15.6727C74.9458 15.6464 74.6177 15.6771 74.4264 15.7604C73.8123 16.0236 73.3044 16.4517 73.2421 16.6202C73.2074 16.7503 73.147 16.8722 73.0646 16.9787C72.9822 17.0852 72.8794 17.1742 72.7621 17.2404C72.6449 17.3067 72.5156 17.3489 72.3818 17.3646C72.2481 17.3803 72.1126 17.3691 71.9832 17.3318C71.8538 17.2944 71.7332 17.2316 71.6283 17.1471C71.5235 17.0625 71.4366 16.9579 71.3727 16.8393C71.3089 16.7208 71.2693 16.5907 71.2563 16.4566C71.2433 16.3226 71.2572 16.1873 71.2972 16.0587C71.6604 14.7919 73.3088 14.0357 73.636 13.8962C74.1325 13.6857 74.7484 13.605 75.4695 13.655C77.8495 13.8217 79.8936 16.2219 79.7576 18.6897C79.569 22.1628 76.3125 24.6551 73.1526 26.6352C72.9921 26.736 72.8061 26.7889 72.6166 26.7878Z" fill="#BD967A"/>
<path d="M72.6165 26.8699C72.3785 26.8701 72.1469 26.7928 71.9566 26.6497C71.7664 26.5066 71.6279 26.3055 71.562 26.0768C71.4961 25.848 71.5064 25.6041 71.5914 25.3817C71.6764 25.1594 71.8315 24.9707 72.0331 24.8443C73.6684 23.8196 77.4968 21.4229 77.6521 18.57C77.7249 17.2365 76.5713 15.8416 75.3221 15.7548C74.9545 15.7285 74.6352 15.7592 74.4597 15.8338C73.8517 16.0917 73.371 16.511 73.3192 16.6444C73.2528 16.8721 73.1143 17.0722 72.9245 17.2146C72.7346 17.3569 72.5038 17.4339 72.2665 17.4339C72.1642 17.4338 72.0623 17.4197 71.9638 17.3918C71.6844 17.3108 71.4485 17.1225 71.3076 16.868C71.1667 16.6135 71.1323 16.3135 71.212 16.0338C71.5866 14.7301 73.2666 13.9581 73.5991 13.8169C74.107 13.602 74.7396 13.5177 75.4712 13.5695C77.8942 13.7388 79.976 16.1803 79.8383 18.6928C79.647 22.2019 76.3722 24.7127 73.1947 26.705C73.0212 26.813 72.8209 26.8701 72.6165 26.8699ZM75.0729 15.5767C75.1606 15.5767 75.2484 15.5767 75.3361 15.5864C76.6687 15.6793 77.8995 17.1655 77.8214 18.5796C77.6618 21.5167 73.786 23.9477 72.1244 24.9837C71.9158 25.1145 71.7677 25.3228 71.7127 25.5627C71.6576 25.8027 71.7002 26.0547 71.8309 26.2633C71.9617 26.4718 72.17 26.6199 72.4099 26.675C72.6499 26.73 72.9019 26.6875 73.1104 26.5567C76.252 24.5881 79.4883 22.1115 79.676 18.6779C79.8085 16.2531 77.8021 13.895 75.4651 13.7318C74.7632 13.6827 74.1491 13.7625 73.6702 13.9669C73.3499 14.1029 71.7322 14.8442 71.3796 16.0724C71.3458 16.1897 71.3354 16.3125 71.3491 16.4339C71.3628 16.5552 71.4003 16.6726 71.4594 16.7795C71.5402 16.9242 71.658 17.0448 71.8007 17.129C71.9435 17.2131 72.106 17.2578 72.2718 17.2584C72.4729 17.2578 72.6683 17.192 72.829 17.0711C72.9896 16.9501 73.1068 16.7804 73.1631 16.5873C73.2429 16.3698 73.7974 15.9276 74.3913 15.6732C74.6091 15.5983 74.8393 15.5655 75.0694 15.5767H75.0729Z" fill="#BD967A"/>
<path d="M72.2227 26.7865C72.0329 26.7866 71.847 26.7327 71.6867 26.6312C69.1996 25.0723 65.036 22.4641 64.8281 18.6866C64.693 16.217 66.738 13.8177 69.118 13.651C69.8383 13.601 70.4541 13.6826 70.9506 13.8922C71.2779 14.0317 72.9272 14.7879 73.2904 16.0547C73.357 16.3102 73.3212 16.5816 73.1906 16.8111C73.0599 17.0406 72.8448 17.2099 72.5911 17.283C72.3374 17.3562 72.0652 17.3273 71.8325 17.2025C71.5998 17.0778 71.425 16.8671 71.3454 16.6153C71.2814 16.446 70.7778 16.0188 70.1593 15.7565C69.969 15.6757 69.6417 15.645 69.2593 15.6687C67.9688 15.7565 66.7748 17.1978 66.8502 18.5734C67.0003 21.3026 70.6068 23.5625 72.7614 24.9135C72.9477 25.0302 73.0909 25.2044 73.1695 25.4097C73.2481 25.615 73.2576 25.8404 73.1968 26.0516C73.136 26.2629 73.008 26.4486 72.8323 26.5807C72.6565 26.7128 72.4426 26.7841 72.2227 26.7838V26.7865Z" fill="#BD967A"/>
<path d="M72.2227 26.8725C72.0172 26.8725 71.8159 26.8144 71.642 26.705C69.1409 25.1373 64.9545 22.5133 64.7439 18.6928C64.6071 16.1803 66.6889 13.7388 69.1119 13.5695C69.8436 13.5177 70.4761 13.602 70.9831 13.8169C71.3165 13.9581 73.0009 14.731 73.372 16.0338C73.4516 16.3133 73.4172 16.613 73.2763 16.8672C73.1354 17.1215 72.8994 17.3095 72.6201 17.39C72.5217 17.4182 72.4199 17.4326 72.3175 17.433C72.0804 17.4322 71.85 17.3549 71.6603 17.2127C71.4707 17.0704 71.3319 16.8708 71.2647 16.6435C71.2147 16.5119 70.7428 16.0996 70.1243 15.8381C69.9488 15.7644 69.6313 15.7337 69.2628 15.7601C68.0136 15.8478 66.859 17.2418 66.931 18.5752C67.0792 21.2615 70.6621 23.5064 72.8026 24.8486C73.0046 24.9749 73.16 25.1635 73.2453 25.386C73.3306 25.6084 73.3411 25.8526 73.2753 26.0815C73.2095 26.3105 73.0709 26.5118 72.8806 26.655C72.6902 26.7981 72.4583 26.8754 72.2201 26.8752L72.2227 26.8725ZM69.5216 13.723C69.3935 13.723 69.2584 13.7274 69.1242 13.7371C66.7871 13.9002 64.7799 16.2584 64.9132 18.6831C65.1185 22.4177 69.2584 25.0118 71.7315 26.562C71.94 26.6928 72.1921 26.7355 72.4321 26.6805C72.6721 26.6256 72.8805 26.4775 73.0114 26.269C73.1423 26.0604 73.1849 25.8083 73.13 25.5683C73.075 25.3283 72.927 25.1199 72.7184 24.989C70.548 23.6292 66.9196 21.3545 66.7669 18.5849C66.6897 17.1672 67.9214 15.6846 69.2549 15.5916C69.6558 15.5644 69.9909 15.5978 70.1936 15.6794C70.7901 15.932 71.3455 16.3742 71.4218 16.5856C71.4771 16.7799 71.5942 16.951 71.7553 17.073C71.9164 17.195 72.1128 17.2613 72.3148 17.262C72.4014 17.2621 72.4876 17.2502 72.571 17.2269C72.6882 17.1932 72.7976 17.1369 72.8929 17.0609C72.9883 16.985 73.0678 16.8911 73.1269 16.7844C73.1859 16.6778 73.2234 16.5606 73.2372 16.4394C73.2509 16.3183 73.2407 16.1957 73.207 16.0785C72.8561 14.8503 71.2358 14.1064 70.9147 13.973C70.4716 13.7979 69.998 13.7129 69.5216 13.723Z" fill="#BD967A"/>
<path d="M21.8004 83.1858C21.1124 83.1858 20.4924 83.0458 19.9404 82.7658C19.3964 82.4778 18.9684 82.0818 18.6564 81.5778C18.3524 81.0738 18.2004 80.5018 18.2004 79.8618C18.2004 79.2218 18.3524 78.6498 18.6564 78.1458C18.9684 77.6418 19.3964 77.2498 19.9404 76.9698C20.4924 76.6818 21.1124 76.5378 21.8004 76.5378C22.4804 76.5378 23.0724 76.6818 23.5764 76.9698C24.0884 77.2498 24.4604 77.6538 24.6924 78.1818L23.2404 78.9618C22.9044 78.3698 22.4204 78.0738 21.7884 78.0738C21.3004 78.0738 20.8964 78.2338 20.5764 78.5538C20.2564 78.8738 20.0964 79.3098 20.0964 79.8618C20.0964 80.4138 20.2564 80.8498 20.5764 81.1698C20.8964 81.4898 21.3004 81.6498 21.7884 81.6498C22.4284 81.6498 22.9124 81.3538 23.2404 80.7618L24.6924 81.5538C24.4604 82.0658 24.0884 82.4658 23.5764 82.7538C23.0724 83.0418 22.4804 83.1858 21.8004 83.1858ZM27.5583 77.4858C27.7823 77.1738 28.0823 76.9378 28.4583 76.7778C28.8423 76.6178 29.2823 76.5378 29.7783 76.5378V78.2658C29.5703 78.2498 29.4303 78.2418 29.3583 78.2418C28.8223 78.2418 28.4023 78.3938 28.0983 78.6978C27.7943 78.9938 27.6423 79.4418 27.6423 80.0418V83.0898H25.7703V76.6338H27.5583V77.4858ZM37.4422 76.6338V83.0898H35.6662V82.3218C35.4182 82.6018 35.1222 82.8178 34.7782 82.9698C34.4342 83.1138 34.0622 83.1858 33.6622 83.1858C32.8142 83.1858 32.1422 82.9418 31.6462 82.4538C31.1502 81.9658 30.9022 81.2418 30.9022 80.2818V76.6338H32.7742V80.0058C32.7742 81.0458 33.2102 81.5658 34.0822 81.5658C34.5302 81.5658 34.8902 81.4218 35.1622 81.1338C35.4342 80.8378 35.5702 80.4018 35.5702 79.8258V76.6338H37.4422ZM45.5005 79.8858C45.5005 79.9098 45.4885 80.0778 45.4645 80.3898H40.5805C40.6685 80.7898 40.8765 81.1058 41.2045 81.3378C41.5325 81.5698 41.9405 81.6858 42.4285 81.6858C42.7645 81.6858 43.0605 81.6378 43.3165 81.5418C43.5805 81.4378 43.8245 81.2778 44.0485 81.0618L45.0445 82.1418C44.4365 82.8378 43.5485 83.1858 42.3805 83.1858C41.6525 83.1858 41.0085 83.0458 40.4485 82.7658C39.8885 82.4778 39.4565 82.0818 39.1525 81.5778C38.8485 81.0738 38.6965 80.5018 38.6965 79.8618C38.6965 79.2298 38.8445 78.6618 39.1405 78.1578C39.4445 77.6458 39.8565 77.2498 40.3765 76.9698C40.9045 76.6818 41.4925 76.5378 42.1405 76.5378C42.7725 76.5378 43.3445 76.6738 43.8565 76.9458C44.3685 77.2178 44.7685 77.6098 45.0565 78.1218C45.3525 78.6258 45.5005 79.2138 45.5005 79.8858ZM42.1525 77.9538C41.7285 77.9538 41.3725 78.0738 41.0845 78.3138C40.7965 78.5538 40.6205 78.8818 40.5565 79.2978H43.7365C43.6725 78.8898 43.4965 78.5658 43.2085 78.3258C42.9205 78.0778 42.5685 77.9538 42.1525 77.9538ZM46.7468 74.1858H48.6188V83.0898H46.7468V74.1858ZM54.9889 82.7778C54.8049 82.9138 54.5769 83.0178 54.3049 83.0898C54.0409 83.1538 53.7609 83.1858 53.4649 83.1858C52.6969 83.1858 52.1009 82.9898 51.6769 82.5978C51.2609 82.2058 51.0529 81.6298 51.0529 80.8698V78.2178H50.0569V76.7778H51.0529V75.2058H52.9249V76.7778H54.5329V78.2178H52.9249V80.8458C52.9249 81.1178 52.9929 81.3298 53.1289 81.4818C53.2729 81.6258 53.4729 81.6978 53.7289 81.6978C54.0249 81.6978 54.2769 81.6178 54.4849 81.4578L54.9889 82.7778ZM62.3306 76.6338L59.4146 83.4858C59.1186 84.2298 58.7506 84.7538 58.3106 85.0578C57.8786 85.3618 57.3546 85.5138 56.7386 85.5138C56.4026 85.5138 56.0706 85.4618 55.7426 85.3578C55.4146 85.2538 55.1466 85.1098 54.9386 84.9258L55.6226 83.5938C55.7666 83.7218 55.9306 83.8218 56.1146 83.8938C56.3066 83.9658 56.4946 84.0018 56.6786 84.0018C56.9346 84.0018 57.1426 83.9378 57.3026 83.8098C57.4626 83.6898 57.6066 83.4858 57.7346 83.1978L57.7586 83.1378L54.9626 76.6338H56.8946L58.7066 81.0138L60.5306 76.6338H62.3306ZM68.5449 76.7778H70.2009V78.2178H68.5929V83.0898H66.7209V78.2178H65.7249V76.7778H66.7209V76.4898C66.7209 75.7538 66.9369 75.1698 67.3689 74.7378C67.8089 74.3058 68.4249 74.0898 69.2169 74.0898C69.4969 74.0898 69.7609 74.1218 70.0089 74.1858C70.2649 74.2418 70.4769 74.3258 70.6449 74.4378L70.1529 75.7938C69.9369 75.6418 69.6849 75.5658 69.3969 75.5658C68.8289 75.5658 68.5449 75.8778 68.5449 76.5018V76.7778ZM73.8825 77.4858C74.1065 77.1738 74.4065 76.9378 74.7825 76.7778C75.1665 76.6178 75.6065 76.5378 76.1025 76.5378V78.2658C75.8945 78.2498 75.7545 78.2418 75.6825 78.2418C75.1465 78.2418 74.7265 78.3938 74.4225 78.6978C74.1185 78.9938 73.9665 79.4418 73.9665 80.0418V83.0898H72.0945V76.6338H73.8825V77.4858ZM83.481 79.8858C83.481 79.9098 83.469 80.0778 83.445 80.3898H78.561C78.649 80.7898 78.857 81.1058 79.185 81.3378C79.513 81.5698 79.921 81.6858 80.409 81.6858C80.745 81.6858 81.041 81.6378 81.297 81.5418C81.561 81.4378 81.805 81.2778 82.029 81.0618L83.025 82.1418C82.417 82.8378 81.529 83.1858 80.361 83.1858C79.633 83.1858 78.989 83.0458 78.429 82.7658C77.869 82.4778 77.437 82.0818 77.133 81.5778C76.829 81.0738 76.677 80.5018 76.677 79.8618C76.677 79.2298 76.825 78.6618 77.121 78.1578C77.425 77.6458 77.837 77.2498 78.357 76.9698C78.885 76.6818 79.473 76.5378 80.121 76.5378C80.753 76.5378 81.325 76.6738 81.837 76.9458C82.349 77.2178 82.749 77.6098 83.037 78.1218C83.333 78.6258 83.481 79.2138 83.481 79.8858ZM80.133 77.9538C79.709 77.9538 79.353 78.0738 79.065 78.3138C78.777 78.5538 78.601 78.8818 78.537 79.2978H81.717C81.653 78.8898 81.477 78.5658 81.189 78.3258C80.901 78.0778 80.549 77.9538 80.133 77.9538ZM91.0513 79.8858C91.0513 79.9098 91.0393 80.0778 91.0153 80.3898H86.1313C86.2193 80.7898 86.4273 81.1058 86.7553 81.3378C87.0833 81.5698 87.4913 81.6858 87.9793 81.6858C88.3153 81.6858 88.6113 81.6378 88.8673 81.5418C89.1313 81.4378 89.3753 81.2778 89.5993 81.0618L90.5953 82.1418C89.9873 82.8378 89.0993 83.1858 87.9313 83.1858C87.2033 83.1858 86.5593 83.0458 85.9993 82.7658C85.4393 82.4778 85.0073 82.0818 84.7033 81.5778C84.3993 81.0738 84.2473 80.5018 84.2473 79.8618C84.2473 79.2298 84.3953 78.6618 84.6913 78.1578C84.9953 77.6458 85.4073 77.2498 85.9273 76.9698C86.4553 76.6818 87.0433 76.5378 87.6913 76.5378C88.3233 76.5378 88.8953 76.6738 89.4073 76.9458C89.9193 77.2178 90.3193 77.6098 90.6073 78.1218C90.9033 78.6258 91.0513 79.2138 91.0513 79.8858ZM87.7033 77.9538C87.2793 77.9538 86.9233 78.0738 86.6353 78.3138C86.3473 78.5538 86.1713 78.8818 86.1073 79.2978H89.2873C89.2233 78.8898 89.0473 78.5658 88.7593 78.3258C88.4713 78.0778 88.1193 77.9538 87.7033 77.9538Z" fill="#463B32"/>
</g>
<defs>
<clipPath id="clip0_1212_2792">
<rect width="109.053" height="92" fill="white"/>
</clipPath>
</defs>
</svg>
