<svg width="89" height="90" viewBox="0 0 89 90" fill="none" xmlns="http://www.w3.org/2000/svg">
<path d="M61.0492 29.8198C61.0542 29.8526 61.067 29.8836 61.0867 29.9103C61.1063 29.937 61.132 29.9586 61.1618 29.9731C61.9 30.3404 61.9975 31.5187 62.7575 32.1689C62.7972 32.2039 62.8487 32.2223 62.9016 32.2204C62.9544 32.2184 63.0045 32.1963 63.0414 32.1585L71.1317 24.0133C71.3319 23.8066 71.4669 23.5455 71.5196 23.2626C71.5724 22.9797 71.5406 22.6875 71.4284 22.4225C71.3161 22.1575 71.1283 21.9314 70.8884 21.7725C70.6485 21.6136 70.3671 21.5289 70.0793 21.5289C69.8834 21.528 69.6893 21.5668 69.5089 21.6431C69.3285 21.7194 69.1655 21.8316 69.0297 21.9728C69.0297 21.9728 65.5552 25.3308 61.1097 29.639C61.0859 29.6621 61.068 29.6906 61.0574 29.722C61.0469 29.7535 61.0441 29.787 61.0492 29.8198Z" fill="#463B32"/>
<path d="M26.055 87.3074C26.4077 87.3068 26.7497 87.1863 27.0248 86.9655C27.2999 86.7448 27.4918 86.4371 27.5689 86.0929C27.6459 85.7487 27.6036 85.3886 27.4489 85.0716C27.2942 84.7547 27.0363 84.4998 26.7175 84.3488C23.063 82.615 19.6849 80.3506 16.6926 77.629C16.7229 77.629 16.7523 77.6347 16.7825 77.6347H16.8535C17.1591 77.6199 17.4524 77.5097 17.6921 77.3195C17.7546 77.2693 22.6288 71.9853 22.837 71.76C22.8957 71.6966 25.7758 68.5137 25.737 68.4361C25.5098 67.9979 25.2637 67.5332 25.0035 67.0732C24.8293 66.7703 22.8664 68.1928 22.6421 67.8701C22.6243 67.8447 22.601 67.8236 22.574 67.8083C22.547 67.7931 22.5168 67.7841 22.4859 67.7821C22.4225 67.7821 21.2555 69.126 21.2157 69.1724C18.0546 72.6374 16.0159 74.8625 15.8588 75.0319C15.6695 75.1867 15.522 75.3865 15.4297 75.613C15.3375 75.8395 15.3034 76.0855 15.3307 76.3285C7.66439 68.6926 3.10532 58.1841 3.10532 47.0831C3.10532 38.5471 4.82124 32.3355 9.73619 25.3658C9.8577 25.1992 9.94486 25.0102 9.99259 24.8096C10.0403 24.6091 10.0477 24.401 10.0142 24.1976C9.98075 23.9942 9.90716 23.7994 9.7977 23.6247C9.68825 23.45 9.54513 23.2988 9.37667 23.18C9.20822 23.0611 9.0178 22.977 8.81651 22.9324C8.61522 22.8879 8.40708 22.8838 8.2042 22.9205C8.00133 22.9572 7.80779 23.0339 7.63485 23.1461C7.4619 23.2583 7.31301 23.4038 7.19685 23.5741C1.91184 31.0691 0 37.9025 0 47.0831C0.00785206 55.4806 2.39761 63.7037 6.89178 70.7974C11.3859 77.8912 17.8002 83.5645 25.3896 87.1588C25.5978 87.2567 25.8249 87.3075 26.055 87.3074Z" fill="#463B32"/>
<path d="M81.4197 22.6334C81.1812 22.297 80.8189 22.0692 80.4125 21.9999C80.006 21.9307 79.5887 22.0258 79.2523 22.2643C78.916 22.5027 78.6881 22.865 78.6189 23.2715C78.5497 23.678 78.6448 24.0953 78.8832 24.4316C83.8237 31.4117 85.5529 38.5234 85.5529 47.0841C85.5529 62.2141 77.2629 76.109 63.9188 83.3475C63.7316 83.4403 63.5651 83.5699 63.4291 83.7286C63.2932 83.8872 63.1906 84.0717 63.1276 84.2709C63.0645 84.4701 63.0423 84.6799 63.0622 84.8879C63.0821 85.0959 63.1438 85.2978 63.2435 85.4814C63.3432 85.665 63.4789 85.8266 63.6425 85.9566C63.8061 86.0865 63.9942 86.1822 64.1956 86.2378C64.397 86.2934 64.6076 86.3078 64.8147 86.2802C65.0218 86.2526 65.2212 86.1835 65.401 86.0771C72.4315 82.2762 78.3043 76.646 82.3984 69.7821C86.4924 62.9181 88.6556 55.0754 88.6591 47.0831C88.6591 37.8741 86.7331 30.1416 81.4197 22.6334Z" fill="#463B32"/>
<path d="M63.3708 59.6076C63.2501 59.6077 63.1306 59.5832 63.0197 59.5356C62.8955 59.4888 62.7822 59.4169 62.687 59.3244C62.5917 59.2319 62.5165 59.1208 62.466 58.998C62.4394 58.9298 62.4213 58.8586 62.4121 58.786C62.3632 58.5787 62.3887 58.3608 62.4842 58.1704C62.5796 57.98 62.739 57.8291 62.9343 57.7442C63.1297 57.6593 63.3487 57.6458 63.553 57.706C63.7573 57.7661 63.934 57.8961 64.0522 58.0733C64.0745 58.1068 64.0948 58.1415 64.1128 58.1774C64.2082 58.3135 64.2644 58.473 64.2754 58.6387C64.2864 58.8044 64.2518 58.97 64.1753 59.1174C64.0988 59.2648 63.9834 59.3885 63.8415 59.4749C63.6997 59.5613 63.5369 59.6072 63.3708 59.6076Z" fill="#BD967A"/>
<path d="M44.6187 36.2642C43.7065 36.2572 42.8335 35.8917 42.1886 35.2464C41.5436 34.6012 41.1784 33.7282 41.1718 32.8159C41.1652 31.9036 41.5178 31.0254 42.1534 30.3709C42.789 29.7165 43.6565 29.3383 44.5686 29.3182L56.7778 29.1421C57.4597 29.1433 58.1261 29.3451 58.694 29.7225C59.2619 30.0999 59.7061 30.6362 59.9712 31.2643C60.2364 31.8925 60.3107 32.5849 60.185 33.255C60.0592 33.9252 59.739 34.5435 59.2642 35.0329C58.9479 35.3615 58.5695 35.624 58.151 35.8051C57.7325 35.9863 57.2821 36.0825 56.8261 36.0882L44.6187 36.2642ZM56.7788 30.9584H56.7532L44.5951 31.1335C44.1654 31.1507 43.7592 31.3344 43.4624 31.6456C43.1656 31.9568 43.0014 32.3712 43.0044 32.8012C43.0075 33.2313 43.1776 33.6433 43.4789 33.9502C43.7801 34.2571 44.1888 34.4349 44.6187 34.4461H44.6424L56.8015 34.27C57.2397 34.2613 57.6567 34.0797 57.9617 33.7649C58.2666 33.45 58.4347 33.0274 58.4294 32.5891C58.4212 32.1557 58.2441 31.7427 57.9358 31.438C57.6274 31.1334 57.2122 30.9613 56.7788 30.9584Z" fill="#BD967A"/>
<path d="M47.0587 30.788C46.8201 30.7875 46.5912 30.6933 46.4214 30.5257C46.2516 30.358 46.1545 30.1303 46.151 29.8917L46.0857 25.3847C46.0824 25.1438 46.1749 24.9114 46.3427 24.7386C46.5106 24.5658 46.7402 24.4666 46.9811 24.4629L54.2877 24.3578H54.3C54.5384 24.3578 54.7673 24.4516 54.9371 24.619C55.107 24.7863 55.2042 25.0138 55.2076 25.2522L55.2739 29.7611C55.2769 30.0017 55.1845 30.2337 55.0169 30.4063C54.8492 30.5789 54.6201 30.678 54.3795 30.682L47.0719 30.788H47.0587ZM47.9152 26.2659L47.954 28.9585L53.4434 28.879L53.4046 26.1864L47.9152 26.2659Z" fill="#BD967A"/>
<path d="M45.8027 40.7561C45.5645 40.7561 45.3357 40.6624 45.1659 40.4953C44.9961 40.3281 44.8988 40.1009 44.8951 39.8626L44.8307 35.3537C44.829 35.2345 44.8507 35.1162 44.8947 35.0054C44.9387 34.8946 45.0041 34.7935 45.0872 34.708C45.1702 34.6225 45.2693 34.5542 45.3788 34.507C45.4882 34.4598 45.6059 34.4346 45.7251 34.4328C45.8443 34.4311 45.9627 34.4528 46.0735 34.4968C46.1843 34.5408 46.2853 34.6062 46.3708 34.6893C46.4563 34.7724 46.5247 34.8714 46.5719 34.9809C46.6191 35.0903 46.6443 35.208 46.646 35.3272L46.7113 39.8361C46.7131 39.9553 46.6913 40.0736 46.6473 40.1843C46.6033 40.2951 46.5379 40.3961 46.4548 40.4815C46.3718 40.5669 46.2727 40.6352 46.1632 40.6823C46.0538 40.7294 45.9361 40.7545 45.8169 40.7561H45.8027Z" fill="#BD967A"/>
<path d="M55.908 40.6113C55.6694 40.6113 55.4404 40.5174 55.2705 40.3498C55.1007 40.1822 55.0036 39.9545 55.0004 39.7159L54.9351 35.208C54.9384 34.9716 55.0338 34.7458 55.201 34.5785C55.3681 34.4113 55.5939 34.3158 55.8303 34.3124C56.0668 34.3089 56.2952 34.3978 56.4672 34.5601C56.6392 34.7223 56.7411 34.9453 56.7514 35.1815L56.8148 39.6894C56.8167 39.8087 56.795 39.9272 56.7511 40.0381C56.7071 40.149 56.6417 40.2501 56.5587 40.3358C56.4756 40.4214 56.3765 40.4898 56.2669 40.5371C56.1574 40.5843 56.0396 40.6096 55.9204 40.6113H55.908Z" fill="#BD967A"/>
<path d="M39.6612 67.4527C39.5372 67.4531 39.4145 67.4281 39.3006 67.3792C39.1866 67.3304 39.0839 67.2588 38.9987 67.1688C36.7649 64.793 35.2701 61.819 34.6964 58.6088C34.1227 55.3987 34.4948 52.091 35.7674 49.0885C37.04 46.0861 39.1582 43.5185 41.8641 41.6985C44.5699 39.8784 47.7466 38.8844 51.0073 38.8376H51.2515C53.6068 38.8378 55.9358 39.3325 58.0879 40.2897C60.24 41.2469 62.1671 42.6452 63.7446 44.3942C63.8245 44.4828 63.8861 44.5862 63.926 44.6986C63.9659 44.811 63.9833 44.9301 63.9771 45.0492C63.971 45.1683 63.9414 45.285 63.8902 45.3926C63.8389 45.5003 63.7669 45.5968 63.6784 45.6767C63.5898 45.7565 63.4864 45.8182 63.374 45.8581C63.2617 45.898 63.1425 45.9153 63.0234 45.9092C62.9044 45.903 62.7876 45.8735 62.68 45.8222C62.5723 45.771 62.4758 45.699 62.3959 45.6104C61.0649 44.1511 59.4587 42.9691 57.6696 42.1322C55.8805 41.2953 53.9437 40.82 51.9704 40.7337C49.9971 40.6474 48.0262 40.9516 46.1708 41.629C44.3154 42.3064 42.6121 43.3436 41.1587 44.6811C39.7052 46.0186 38.5303 47.63 37.7013 49.4227C36.8723 51.2155 36.4055 53.1544 36.3278 55.128C36.2502 57.1017 36.5631 59.0712 37.2487 60.9236C37.9342 62.776 38.9789 64.4747 40.3228 65.9223C40.4441 66.0515 40.5249 66.2134 40.5554 66.3881C40.5858 66.5627 40.5645 66.7424 40.4941 66.9051C40.4237 67.0677 40.3072 67.2063 40.1591 67.3036C40.0109 67.4009 39.8375 67.4527 39.6602 67.4527H39.6612Z" fill="#BD967A"/>
<path d="M18.4275 68.7162C18.1917 68.7094 17.9677 68.6111 17.8031 68.4421C17.6384 68.2731 17.546 68.0468 17.5452 67.8108C17.5445 67.5749 17.6355 67.348 17.7991 67.178C17.9627 67.008 18.186 66.9083 18.4218 66.9C30.6254 66.8167 54.1268 66.6529 54.1268 66.6529L54.1401 68.4701L18.4341 68.7162H18.4275Z" fill="#BD967A"/>
<path d="M22.3041 67.836C22.1843 67.8363 22.0656 67.8128 21.955 67.7669C21.8443 67.7209 21.7439 67.6533 21.6596 67.5681C19.4168 65.3056 18.0453 62.3236 17.7872 59.1483C17.5291 55.973 18.401 52.8086 20.2489 50.2136C22.0969 47.6185 24.8021 45.7597 27.8872 44.9651C30.9723 44.1705 34.2389 44.4912 37.1105 45.8707C37.2179 45.9225 37.314 45.9949 37.3934 46.0838C37.4728 46.1727 37.5339 46.2764 37.5733 46.3889C37.6126 46.5015 37.6294 46.6207 37.6226 46.7397C37.6159 46.8587 37.5858 46.9752 37.534 47.0826C37.4823 47.19 37.4099 47.2862 37.3209 47.3656C37.232 47.445 37.1283 47.5061 37.0158 47.5454C36.9033 47.5847 36.7841 47.6015 36.665 47.5948C36.546 47.588 36.4295 47.5579 36.3221 47.5062C33.8362 46.3117 31.0082 46.0339 28.3373 46.7218C25.6665 47.4096 23.3245 49.019 21.7249 51.2657C20.1253 53.5124 19.3708 56.2521 19.5947 59.0009C19.8187 61.7498 21.0065 64.3313 22.9487 66.2895C23.0752 66.4166 23.1613 66.5783 23.1959 66.7543C23.2305 66.9303 23.2121 67.1125 23.1432 67.2781C23.0742 67.4436 22.9576 67.585 22.8083 67.6843C22.6589 67.7836 22.4835 67.8364 22.3041 67.836Z" fill="#BD967A"/>
<path d="M27.8438 46.148C27.6053 46.1478 27.3765 46.0537 27.2069 45.8862C27.0372 45.7187 26.9403 45.4911 26.937 45.2527L26.8869 41.8322C26.8851 41.713 26.9069 41.5946 26.9509 41.4838C26.9949 41.3731 27.0603 41.272 27.1434 41.1865C27.2264 41.101 27.3255 41.0327 27.435 40.9855C27.5444 40.9382 27.6621 40.913 27.7813 40.9113C27.9005 40.9095 28.0189 40.9313 28.1296 40.9753C28.2404 41.0193 28.3415 41.0847 28.427 41.1678C28.5125 41.2508 28.5808 41.3499 28.628 41.4594C28.6753 41.5688 28.7005 41.6865 28.7022 41.8057L28.7524 45.2262C28.7541 45.3455 28.7323 45.464 28.6883 45.5749C28.6443 45.6858 28.5788 45.7869 28.4956 45.8725C28.4125 45.9581 28.3133 46.0265 28.2037 46.0738C28.0942 46.1211 27.9763 46.1463 27.857 46.148H27.8438Z" fill="#BD967A"/>
<path d="M35.1494 46.042C34.911 46.0418 34.6822 45.9477 34.5126 45.7802C34.3429 45.6126 34.246 45.3851 34.2428 45.1466L34.1926 41.7271C34.1874 41.6057 34.2065 41.4845 34.249 41.3706C34.2915 41.2567 34.3563 41.1525 34.4398 41.0641C34.5232 40.9758 34.6235 40.905 34.7348 40.8561C34.8461 40.8073 34.966 40.7812 35.0875 40.7795C35.2091 40.7778 35.3297 40.8004 35.4423 40.8462C35.5549 40.8919 35.6572 40.9598 35.7431 41.0458C35.829 41.1318 35.8968 41.2341 35.9424 41.3468C35.988 41.4594 36.0106 41.5801 36.0088 41.7016L36.058 45.1201C36.06 45.2392 36.0385 45.3575 35.9948 45.4683C35.9511 45.5791 35.886 45.6801 35.8032 45.7657C35.7204 45.8513 35.6216 45.9198 35.5123 45.9672C35.4031 46.0146 35.2855 46.04 35.1665 46.042H35.1494Z" fill="#BD967A"/>
<path d="M26.1676 41.818C25.4896 41.8152 24.8397 41.547 24.357 41.071C23.8743 40.595 23.5971 39.9489 23.5847 39.2711V39.202C23.5743 38.5165 23.8366 37.855 24.3138 37.3628C24.7911 36.8707 25.4443 36.5882 26.1297 36.5775L36.3401 36.4308C37.0182 36.4334 37.6683 36.7014 38.1512 37.1774C38.6342 37.6535 38.9115 38.2997 38.9239 38.9777V39.0458C38.9292 39.3852 38.8674 39.7223 38.7423 40.0378C38.6171 40.3534 38.431 40.6411 38.1945 40.8846C37.9581 41.1281 37.6759 41.3226 37.3642 41.4569C37.0525 41.5913 36.7173 41.6628 36.3779 41.6675L26.1676 41.818ZM36.3401 38.2508L26.1562 38.3975C26.0553 38.3986 25.9555 38.4197 25.8627 38.4595C25.77 38.4993 25.686 38.5571 25.6156 38.6295C25.5452 38.7019 25.4899 38.7874 25.4527 38.8813C25.4155 38.9752 25.3973 39.0755 25.3991 39.1764V39.2465C25.4028 39.4479 25.4851 39.6399 25.6286 39.7814C25.772 39.9229 25.9651 40.0027 26.1666 40.0037H26.1789L36.3514 39.8569C36.555 39.8537 36.749 39.7699 36.8909 39.6239C37.0329 39.4779 37.1111 39.2816 37.1086 39.078V39.0099C37.1061 38.8077 37.024 38.6146 36.8802 38.4725C36.7363 38.3305 36.5423 38.2508 36.3401 38.2508Z" fill="#BD967A"/>
<path d="M32.6631 57.3389C31.3466 57.3389 30.048 56.9319 28.846 56.5571C27.946 56.2732 27.096 56.0091 26.3133 55.9258C24.0532 55.6845 21.5252 55.5993 19.9257 56.7899C19.8301 56.8612 19.7213 56.9128 19.6057 56.942C19.4901 56.9712 19.3699 56.9774 19.2519 56.9601C19.1339 56.9428 19.0205 56.9025 18.9181 56.8414C18.8157 56.7803 18.7263 56.6996 18.6551 56.604C18.5839 56.5083 18.5322 56.3996 18.503 56.284C18.4738 56.1684 18.4677 56.0481 18.4849 55.9301C18.5022 55.8122 18.5425 55.6987 18.6036 55.5963C18.6647 55.4939 18.7454 55.4046 18.8411 55.3334C20.9422 53.7689 23.8951 53.8417 26.5074 54.12C27.4671 54.2222 28.4447 54.5279 29.3902 54.8232C31.1667 55.3788 32.8448 55.9041 34.3033 55.1403C34.5167 55.0284 34.7657 55.006 34.9956 55.0778C35.2256 55.1496 35.4176 55.3098 35.5294 55.5231C35.6413 55.7365 35.6637 55.9855 35.5919 56.2155C35.5201 56.4454 35.3599 56.6374 35.1466 56.7492C34.3801 57.1477 33.5269 57.3503 32.6631 57.3389Z" fill="#BD967A"/>
<path d="M62.2351 57.9011C62.0738 57.9012 61.9154 57.8585 61.7762 57.7771C61.637 57.6958 61.5219 57.5788 61.4429 57.4383C57.7403 50.8699 51.8676 54.0765 51.6187 54.2203C51.5045 54.2848 51.3776 54.3237 51.2469 54.3345C51.1162 54.3453 50.9848 54.3276 50.8615 54.2828C49.9993 53.9657 45.5614 52.3804 42.7684 52.2006C39.9754 52.0208 37.6518 52.1675 36.5511 52.5953C36.3267 52.6831 36.0766 52.6782 35.8558 52.5817C35.635 52.4851 35.4616 52.3048 35.3737 52.0804C35.2859 51.856 35.2908 51.6059 35.3873 51.3851C35.4839 51.1643 35.6642 50.9909 35.8886 50.903C37.7436 50.1809 41.0657 50.2698 42.882 50.3881C45.603 50.5642 49.5071 51.8712 51.1104 52.4438C52.0673 51.9952 54.636 51.0137 57.4517 51.7917C59.7232 52.4183 61.5943 54.0206 63.0216 56.5514C63.0981 56.6892 63.1374 56.8444 63.1358 57.0019C63.1341 57.1595 63.0916 57.3139 63.0122 57.45C62.9329 57.5861 62.8196 57.6992 62.6833 57.7783C62.5471 57.8574 62.3926 57.8997 62.2351 57.9011Z" fill="#BD967A"/>
<path d="M59.0532 60.2559C55.8731 60.2559 53.8107 59.0766 52.5813 57.9787C50.9552 56.5269 50.3959 54.898 50.3732 54.8298C50.3047 54.6036 50.3271 54.3595 50.4357 54.1495C50.5442 53.9395 50.7303 53.7801 50.9545 53.7051C51.1787 53.6301 51.4233 53.6454 51.6364 53.7478C51.8494 53.8501 52.0142 54.0315 52.0957 54.2535C52.1658 54.456 53.9347 59.318 60.8817 58.3005C60.9998 58.2832 61.1201 58.2894 61.2358 58.3186C61.3515 58.3479 61.4603 58.3996 61.556 58.4709C61.6517 58.5421 61.7325 58.6316 61.7936 58.734C61.8548 58.8365 61.8951 58.95 61.9124 59.0681C61.9297 59.1862 61.9236 59.3065 61.8943 59.4222C61.8651 59.5379 61.8134 59.6467 61.7421 59.7424C61.6708 59.8381 61.5814 59.9189 61.4789 59.98C61.3764 60.0412 61.2629 60.0815 61.1448 60.0988C60.4523 60.2013 59.7533 60.2538 59.0532 60.2559Z" fill="#BD967A"/>
<path d="M54.7685 69.3939C54.582 69.393 54.4004 69.3349 54.248 69.2274C54.0957 69.1199 53.98 68.9682 53.9167 68.7929C53.8665 68.6519 52.6787 65.2768 54.2404 62.2813C55.1868 60.4594 56.9198 59.2006 59.3806 58.5381C59.613 58.4753 59.8608 58.5075 60.0696 58.6274C60.2783 58.7474 60.4308 58.9454 60.4936 59.1779C60.5563 59.4103 60.5242 59.6582 60.4042 59.8669C60.2842 60.0756 60.0862 60.2281 59.8538 60.2909C57.9041 60.8171 56.5573 61.7683 55.8522 63.1208C55.0174 64.7203 55.2313 66.528 55.4414 67.4925C57.1242 67.2085 61.2148 66.0056 61.7666 61.0566C61.7798 60.9381 61.8162 60.8233 61.8738 60.7189C61.9314 60.6145 62.009 60.5224 62.1022 60.448C62.1953 60.3735 62.3022 60.3182 62.4168 60.285C62.5313 60.2519 62.6513 60.2417 62.7698 60.2549C62.8883 60.2682 63.0031 60.3046 63.1075 60.3622C63.2119 60.4198 63.304 60.4974 63.3784 60.5905C63.4528 60.6837 63.5082 60.7906 63.5413 60.9051C63.5745 61.0197 63.5847 61.1397 63.5714 61.2582C63.1257 65.2711 60.7529 67.2757 58.8392 68.2506C57.583 68.8863 56.2153 69.2721 54.812 69.3863C54.7977 69.3899 54.7832 69.3924 54.7685 69.3939Z" fill="#BD967A"/>
<path d="M60.3251 49.9376C60.1217 49.9374 59.9243 49.8689 59.7646 49.7431C59.6048 49.6173 59.4919 49.4415 59.444 49.2439C58.7729 46.4812 55.4159 45.2385 55.3827 45.2262C55.1576 45.1438 54.9741 44.9757 54.8724 44.7586C54.7706 44.5415 54.7588 44.293 54.8394 44.0672C54.9201 43.8414 55.0868 43.6567 55.303 43.5533C55.5193 43.4498 55.7678 43.4361 55.9941 43.515C56.1692 43.5793 60.3043 45.0908 61.2072 48.8151C61.2359 48.9307 61.2415 49.0508 61.2238 49.1686C61.206 49.2864 61.1652 49.3995 61.1036 49.5015C61.0421 49.6035 60.9611 49.6923 60.8651 49.7629C60.7692 49.8335 60.6603 49.8845 60.5447 49.913C60.4727 49.9299 60.399 49.9381 60.3251 49.9376Z" fill="#BD967A"/>
<path d="M70.3812 62.0476C67.3923 62.0476 64.9041 60.5152 64.7782 60.4386C64.5814 60.3079 64.4432 60.1057 64.393 59.8749C64.3427 59.644 64.3844 59.4027 64.5091 59.202C64.6338 59.0014 64.8317 58.8572 65.061 58.8C65.2902 58.7428 65.5327 58.7772 65.737 58.8958C65.7673 58.9148 68.8962 60.8257 71.9249 60.0411C73.5471 59.6208 74.8835 58.4822 75.9 56.6584C76.02 56.4534 76.2156 56.3035 76.4448 56.241C76.674 56.1784 76.9186 56.2081 77.1262 56.3237C77.3337 56.4393 77.4877 56.6316 77.5552 56.8594C77.6227 57.0872 77.5983 57.3324 77.4872 57.5424C76.2161 59.8224 74.4945 61.2554 72.3669 61.8015C71.7179 61.9661 71.0508 62.0487 70.3812 62.0476Z" fill="#BD967A"/>
<path d="M76.6959 58.009C76.489 58.0086 76.2885 57.937 76.128 57.8065C73.6776 55.8255 71.4308 54.9813 69.4527 55.2955C67.2181 55.6514 66.0455 57.4269 66.0332 57.444C65.9039 57.6472 65.6992 57.7907 65.4641 57.843C65.229 57.8952 64.9828 57.852 64.7796 57.7227C64.5764 57.5934 64.4329 57.3887 64.3806 57.1536C64.3283 56.9185 64.3716 56.6723 64.5009 56.4691C64.5643 56.3688 66.0909 54.0083 69.1319 53.5076C71.6494 53.094 74.3884 54.0642 77.2713 56.3943C77.417 56.5123 77.5226 56.6725 77.5737 56.8529C77.6247 57.0333 77.6188 57.225 77.5566 57.4019C77.4944 57.5787 77.379 57.732 77.2263 57.8407C77.0735 57.9494 76.8909 58.0082 76.7034 58.009H76.6959Z" fill="#BD967A"/>
<path d="M62.2616 57.8264C62.1376 57.8268 62.0149 57.8019 61.9009 57.7531C61.787 57.7042 61.6842 57.6325 61.5991 57.5424C61.5044 57.4478 59.2841 55.0655 59.4166 51.5362C59.5112 48.9051 60.8769 46.3818 63.4655 44.0393C63.6441 43.8778 63.8795 43.7938 64.12 43.8059C64.3605 43.818 64.5864 43.9251 64.7479 44.1037C64.9095 44.2823 64.9934 44.5177 64.9813 44.7582C64.9693 44.9987 64.8622 45.2246 64.6836 45.3861C62.4802 47.3803 61.3189 49.4644 61.2319 51.5797C61.1173 54.3377 62.8995 56.2732 62.9175 56.2931C63.0388 56.4223 63.1197 56.5843 63.1501 56.7589C63.1805 56.9335 63.1592 57.1132 63.0888 57.2759C63.0184 57.4385 62.9019 57.5771 62.7538 57.6744C62.6056 57.7717 62.4322 57.8235 62.255 57.8235L62.2616 57.8264Z" fill="#BD967A"/>
<path d="M70.2147 70.9338C70.1783 70.9338 70.142 70.9319 70.1058 70.9281C66.8642 70.5429 64.5085 69.1857 63.102 66.8943C61.9076 64.9427 61.707 62.7857 61.7486 61.3197C61.752 61.2005 61.7788 61.0831 61.8275 60.9743C61.8762 60.8654 61.9459 60.7673 62.0325 60.6854C62.1192 60.6034 62.2211 60.5394 62.3325 60.4969C62.4439 60.4544 62.5626 60.4342 62.6818 60.4376C62.801 60.4409 62.9184 60.4677 63.0272 60.5164C63.1361 60.5652 63.2342 60.6348 63.3161 60.7215C63.3981 60.8081 63.4621 60.9101 63.5046 61.0215C63.5471 61.1329 63.5673 61.2516 63.5639 61.3708C63.4929 63.8439 64.2009 68.0168 69.5436 69.0077C70.1361 66.4428 69.626 64.2755 68.0198 62.5482C67.1937 61.6707 66.1894 60.9802 65.0745 60.5228C64.8477 60.4418 64.6623 60.2741 64.5592 60.0565C64.4561 59.8389 64.4436 59.5892 64.5246 59.3624C64.6055 59.1356 64.7732 58.9503 64.9909 58.8471C65.2085 58.744 65.4581 58.7316 65.6849 58.8125C67.0737 59.3688 68.3244 60.2215 69.3496 61.3112C70.8857 62.9608 72.4313 65.8541 71.0769 70.2902C71.021 70.4756 70.907 70.6382 70.7518 70.754C70.5966 70.8699 70.4083 70.9329 70.2147 70.9338Z" fill="#BD967A"/>
<path d="M65.3035 57.6332C65.1364 57.6335 64.9725 57.5877 64.8299 57.5007C64.6873 57.4138 64.5714 57.2891 64.4951 57.1405C64.4189 56.9919 64.3852 56.8251 64.3977 56.6585C64.4102 56.4919 64.4685 56.3321 64.5662 56.1965C64.7365 55.9552 68.7211 50.2197 63.827 45.3549C63.6647 45.1833 63.5756 44.9553 63.5785 44.7192C63.5815 44.4831 63.6762 44.2574 63.8427 44.0899C64.0092 43.9224 64.2343 43.8264 64.4704 43.822C64.7065 43.8177 64.935 43.9055 65.1075 44.0668C68.2488 47.1901 68.3302 50.6276 67.8456 52.9634C67.523 54.4964 66.9104 55.9536 66.0407 57.2566C65.9568 57.3736 65.8461 57.4689 65.7178 57.5344C65.5896 57.5999 65.4475 57.6338 65.3035 57.6332Z" fill="#BD967A"/>
<path d="M14.883 53.1338C14.8817 53.0152 14.904 52.8976 14.9484 52.7877C14.9927 52.6777 15.0584 52.5777 15.1416 52.4932C15.2249 52.4088 15.324 52.3416 15.4332 52.2956C15.5425 52.2496 15.6598 52.2257 15.7784 52.2252C16.2809 52.2195 16.6926 52.5281 16.6974 53.1338C16.6926 53.3712 16.5968 53.5976 16.4299 53.7664C16.2629 53.9351 16.0374 54.0333 15.8001 54.0405H15.7869C15.5476 54.0373 15.3192 53.9407 15.1503 53.7712C14.9814 53.6018 14.8854 53.373 14.883 53.1338ZM16.208 50.8803C16.1016 50.8264 16.0068 50.7521 15.9291 50.6615C15.8514 50.571 15.7923 50.466 15.7552 50.3526C15.7181 50.2392 15.7037 50.1196 15.7129 50.0007C15.7221 49.8817 15.7546 49.7657 15.8086 49.6594C15.9178 49.4452 16.1073 49.283 16.3358 49.2082C16.5642 49.1333 16.8129 49.1519 17.0277 49.26C17.1341 49.314 17.2288 49.3885 17.3064 49.4791C17.384 49.5698 17.443 49.6749 17.48 49.7883C17.517 49.9018 17.5313 50.0215 17.5221 50.1405C17.5128 50.2594 17.4802 50.3754 17.4261 50.4818C17.3508 50.6317 17.2352 50.7576 17.0922 50.8454C16.9493 50.9332 16.7847 50.9793 16.6169 50.9787C16.4745 50.9784 16.3341 50.9447 16.2071 50.8803H16.208ZM17.87 48.1299C17.7564 47.9172 17.7319 47.6682 17.8018 47.4375C17.8717 47.2068 18.0304 47.0133 18.2429 46.8995C18.3485 46.8431 18.4641 46.8081 18.5833 46.7966C18.7024 46.7851 18.8226 46.7973 18.937 46.8325C19.0514 46.8677 19.1576 46.9252 19.2497 47.0017C19.3417 47.0782 19.4177 47.1721 19.4733 47.2781C19.587 47.4906 19.6117 47.7395 19.5419 47.9702C19.4722 48.2009 19.3137 48.3945 19.1014 48.5085C18.9699 48.5785 18.8234 48.6156 18.6745 48.6164C18.5086 48.6166 18.3458 48.5714 18.2038 48.4856C18.0618 48.3999 17.9461 48.2768 17.8691 48.1299H17.87Z" fill="#BD967A"/>
<path d="M69.5909 49.5004C69.5886 49.2592 69.6817 49.0269 69.8499 48.854C70.0182 48.6812 70.2479 48.5818 70.4891 48.5776C70.7307 48.5768 70.9629 48.6716 71.1351 48.8412C71.3072 49.0109 71.4053 49.2417 71.4081 49.4833C71.4101 49.6031 71.3884 49.722 71.3444 49.8334C71.3004 49.9447 71.2348 50.0463 71.1515 50.1323C71.0681 50.2183 70.9686 50.287 70.8587 50.3344C70.7488 50.3819 70.6306 50.4073 70.5108 50.409H70.4985C70.2583 50.4068 70.0286 50.3103 69.8588 50.1403C69.6891 49.9704 69.5928 49.7406 69.5909 49.5004ZM68.8678 46.8437C68.8141 46.7372 68.782 46.6212 68.7733 46.5023C68.7645 46.3834 68.7794 46.2639 68.8169 46.1507C68.8545 46.0375 68.914 45.9329 68.9921 45.8428C69.0701 45.7527 69.1653 45.6789 69.2719 45.6256C69.3783 45.5717 69.4943 45.5394 69.6133 45.5304C69.7322 45.5215 69.8517 45.5361 69.965 45.5735C70.0783 45.6109 70.183 45.6702 70.2733 45.7482C70.3635 45.8262 70.4375 45.9212 70.4909 46.0278C70.5988 46.2431 70.617 46.4922 70.5417 46.7209C70.4663 46.9495 70.3034 47.139 70.0887 47.2478C69.9618 47.3102 69.8222 47.3426 69.6808 47.3425C69.5123 47.3431 69.347 47.2967 69.2034 47.2086C69.0598 47.1205 68.9436 46.9941 68.8678 46.8437ZM67.239 44.5949C67.239 44.2637 66.831 43.6901 67.1632 43.3134C67.4964 42.9348 67.9952 42.9036 68.4485 43.2358C68.7514 43.569 68.8214 44.1425 68.4911 44.5192C68.4091 44.6147 68.3074 44.6914 68.1931 44.7442C68.0788 44.7969 67.9545 44.8245 67.8286 44.8249C67.6094 44.8289 67.3975 44.7463 67.239 44.5949Z" fill="#BD967A"/>
<path d="M8.94306 13.7968C8.48111 13.2866 8.50388 12.828 8.94671 12.4271C9.17775 12.2179 9.45055 12.0935 9.7188 12.0609L9.12858 10.6157C8.67508 10.6759 8.1538 10.9902 7.73022 11.3737C6.44024 12.5417 6.41643 13.9472 7.47108 15.112L7.68027 15.3431L6.88125 16.0665L7.92718 17.2217L8.7262 16.4983L12.2649 20.4067L13.7667 19.047L10.228 15.1386L11.518 13.9706L10.472 12.8154L9.14354 14.0182L8.94306 13.7968Z" fill="#463B32"/>
<path d="M14.1342 10.826L13.6018 10.0733L12.022 11.1906L16.0566 16.8946L17.7105 15.7248L15.8057 13.0318C15.0333 11.9398 15.2852 11.014 16.197 10.3691C16.3242 10.2791 16.4377 10.2147 16.5831 10.1278L15.5032 8.6011C14.6232 9.22353 14.1471 9.98974 14.1342 10.826Z" fill="#463B32"/>
<path d="M20.4537 5.83085C19.4503 6.32131 18.5665 7.08581 18.1176 7.91231L19.3926 8.86465C19.6709 8.28055 20.2509 7.7224 20.9159 7.39733C21.8959 6.91827 22.585 7.14517 22.9671 7.92686L21.5204 8.63404C19.607 9.56933 19.2017 10.7215 19.7435 11.8298C20.2739 12.9149 21.5481 13.3038 23.0182 12.5853C23.9399 12.1347 24.4449 11.512 24.5038 10.7749L24.8859 11.5566L26.5893 10.724L24.8385 7.1422C23.9089 5.24046 22.3671 4.89555 20.4537 5.83085ZM22.8744 11.1378C22.2327 11.4515 21.6994 11.3363 21.477 10.8813C21.2717 10.4613 21.386 10.0151 22.2377 9.59879L23.4861 8.98857L23.7998 9.63026C23.8692 10.3046 23.4811 10.8412 22.8744 11.1378Z" fill="#463B32"/>
<path d="M32.5262 1.50883L32.7451 2.37774C32.0638 1.85298 31.2037 1.73485 30.2592 1.97279C28.3829 2.44548 27.1985 4.12325 27.6966 6.10033C28.1947 8.07741 30.0326 8.99379 31.9089 8.52109C32.7904 8.29902 33.4636 7.8348 33.8372 7.13805L33.9101 7.42768C34.2179 8.64919 33.772 9.43112 32.3868 9.78009C31.5179 9.99899 30.4973 9.93469 29.8006 9.61469L29.3752 11.2218C30.324 11.639 31.65 11.6397 32.9345 11.3161C35.3775 10.7007 36.4457 9.1995 35.8112 6.68092L34.3899 1.03931L32.5262 1.50883ZM31.8932 6.81085C30.8606 7.07099 29.9369 6.59392 29.6863 5.59908C29.4356 4.60424 30.0231 3.74647 31.0557 3.48633C32.0883 3.22619 32.9994 3.70644 33.2501 4.70127C33.5007 5.69611 32.9258 6.55071 31.8932 6.81085Z" fill="#463B32"/>
<path d="M40.5442 1.19385L40.4787 0.274145L38.5487 0.41148L39.0445 7.38052L41.0653 7.23673L40.8312 3.94652C40.7362 2.61229 41.4313 1.95094 42.5453 1.87167C42.7007 1.86061 42.8312 1.86435 43.0005 1.86532L42.8678 0C41.7926 0.076502 40.9885 0.485238 40.5442 1.19385Z" fill="#463B32"/>
<path d="M48.5229 0.128415C47.4104 0.0297185 46.2586 0.227392 45.4472 0.702974L46.0465 2.17722C46.5866 1.82097 47.3716 1.64291 48.1089 1.70832C49.1955 1.80472 49.6682 2.35511 49.5913 3.22179L47.9873 3.07949C45.8658 2.89128 44.9234 3.66813 44.8144 4.89701C44.7076 6.10001 45.5975 7.09157 47.2273 7.23617C48.2493 7.32684 49.0035 7.05478 49.4348 6.45422L49.358 7.3209L51.2466 7.48846L51.5989 3.51725C51.7859 1.40875 50.6443 0.316626 48.5229 0.128415ZM47.8523 5.9227C47.1409 5.85958 46.7439 5.48538 46.7886 4.9809C46.8299 4.51522 47.1584 4.19236 48.1027 4.27613L49.4868 4.39893L49.4237 5.11038C49.1346 5.72357 48.525 5.98238 47.8523 5.9227Z" fill="#463B32"/>
<path d="M60.0936 2.20358C59.1861 1.92944 58.3091 2.00364 57.6142 2.41776L57.8508 1.63458L55.9985 1.07503L53.9781 7.76319L55.9174 8.34902L56.9164 5.04224C57.2881 3.81152 58.1322 3.44246 59.0645 3.72411C59.9223 3.98323 60.2694 4.6307 59.9426 5.71224L58.8761 9.24279L60.8154 9.82863L61.9721 5.99972C62.588 3.96095 61.6724 2.68051 60.0936 2.20358Z" fill="#463B32"/>
<path d="M66.4839 12.6108C67.7722 13.3135 69.0978 13.2969 70.0772 12.559L69.1082 11.0541C68.4542 11.4666 67.8271 11.45 67.2685 11.1453C66.3678 10.654 66.003 9.64143 66.5876 8.56977C67.1721 7.49811 68.221 7.25662 69.1216 7.74788C69.6803 8.05259 70.0275 8.5822 70.0409 9.34397L71.8246 9.35537C71.9272 8.10959 71.2173 6.99751 69.929 6.29482C67.9339 5.20658 65.7937 5.74034 64.7863 7.58724C63.7789 9.43415 64.4888 11.5225 66.4839 12.6108Z" fill="#463B32"/>
<path d="M78.5171 16.7513C79.9419 15.0143 79.5899 12.9452 78.0035 11.6439C76.3568 10.2932 74.1664 10.445 72.8405 12.0615C71.5227 13.668 71.7741 15.8393 73.6416 17.3712C74.6156 18.1701 75.6157 18.4865 76.5872 18.326L76.495 16.7388C75.8353 16.7855 75.2836 16.6185 74.7113 16.149C73.8879 15.4737 73.6533 14.5926 74.0545 13.7963L78.1411 17.1483C78.2582 17.026 78.4183 16.8718 78.5171 16.7513ZM77.0417 12.837C77.7445 13.4135 77.8942 14.2753 77.4447 15.0486L74.7839 12.8662C75.4626 12.2639 76.3288 12.2522 77.0417 12.837Z" fill="#463B32"/>
<path d="M34.1497 81.7787C34.3291 81.1142 34.7272 80.8854 35.3039 81.0411C35.6048 81.1223 35.8569 81.2846 36.0294 81.4926L36.926 80.2146C36.6301 79.8657 36.0839 79.5972 35.5322 79.4482C33.8522 78.9946 32.657 79.7346 32.2474 81.2516L32.1662 81.5525L31.1256 81.2715L30.7193 82.776L31.7599 83.057L30.3855 88.1471L32.3414 88.6752L33.7158 83.585L35.3958 84.0387L35.802 82.5342L34.0718 82.067L34.1497 81.7787Z" fill="#463B32"/>
<path d="M38.8323 83.7457L38.9273 82.8286L37.0026 82.6293L36.2832 89.5789L38.2983 89.7875L38.6379 86.5065C38.7757 85.176 39.5748 84.6451 40.6857 84.7601C40.8407 84.7761 40.9685 84.8024 41.1351 84.8327L41.3277 82.9726C40.2555 82.8616 39.3927 83.1248 38.8323 83.7457Z" fill="#463B32"/>
<path d="M49.8787 86.07C49.647 83.8353 47.9291 82.6295 45.8882 82.8412C43.7698 83.0608 42.3364 84.724 42.552 86.8036C42.7663 88.8703 44.486 90.2196 46.8886 89.9704C48.1415 89.8405 49.0701 89.3525 49.6396 88.5493L48.447 87.4979C48.0159 87.9996 47.5091 88.2741 46.7728 88.3504C45.7136 88.4603 44.9224 88.007 44.6389 87.1617L49.8962 86.6165C49.8917 86.4473 49.8948 86.225 49.8787 86.07ZM46.0592 84.364C46.9634 84.2703 47.6811 84.7703 47.9142 85.6339L44.4912 85.9889C44.5409 85.0829 45.1421 84.4591 46.0592 84.364Z" fill="#463B32"/>
<path d="M59.1399 83.1134C58.3483 81.0108 56.3806 80.2807 54.4603 81.0037C52.4671 81.754 51.503 83.7266 52.2396 85.6834C52.9717 87.6279 54.9776 88.4963 57.2382 87.6452C58.4171 87.2014 59.1914 86.4937 59.5382 85.5721L58.1177 84.8581C57.8282 85.4527 57.4076 85.8469 56.7149 86.1077C55.7183 86.4829 54.8379 86.2454 54.3491 85.4998L59.2956 83.6376C59.2483 83.475 59.1948 83.2592 59.1399 83.1134ZM55.0124 82.4332C55.8631 82.1129 56.6843 82.4143 57.1291 83.1904L53.9084 84.4029C53.7264 83.514 54.1495 82.7581 55.0124 82.4332Z" fill="#463B32"/>
</svg>
