<svg width="53" height="50" viewBox="0 0 53 50" fill="none" xmlns="http://www.w3.org/2000/svg">
<g clip-path="url(#clip0_827_10)">
<path d="M30.0907 27.0872L24.5139 17.4262H13.3592L9.05154 13.1211L7.9531 14.2195L12.5551 18.8185L8.18565 26.387H2.43909V27.944H8.27533L12.5445 35.3413L7.60958 40.2772L8.70853 41.3766L13.3511 36.7351L13.3592 36.7488H23.9834L29.0257 41.787L30.1257 40.6881L25.1254 35.6909L30.0907 27.0872ZM14.3862 19.2016H23.4899L28.0423 27.0872L23.5852 34.8032L23.4154 34.9729H14.3847L9.82876 27.0872L14.3862 19.2016Z" fill="#CDAF9A"/>
<path d="M52.4376 16.1814H47.0518L42.28 7.9177L46.2923 3.63842L45.2536 2.70312L41.0301 7.2185H31.1258L27.6653 2.84904L26.5522 3.69618L30.1394 8.23031L25.1442 16.8806L30.7256 26.5411H41.8813L47.0553 17.5782H52.4391V16.1814H52.4376ZM40.8512 24.7647H31.7485L27.1936 16.8801L31.7485 8.99537H40.8517L45.4046 16.8801L40.8512 24.7647Z" fill="#CDAF9A"/>
<path d="M21.9324 22.0732V20.6758H15.6346L12.3428 26.7562L13.5755 27.4225L16.4675 22.0732H21.9324Z" fill="#CDAF9A"/>
<path d="M33.9474 21.9234V23.3193H40.2685L43.1955 17.2089L41.9329 16.6055L39.3879 21.9234H33.9474Z" fill="#CDAF9A"/>
</g>
<path d="M30.5092 29.2382C30.5092 39.9991 21.7465 44.3927 14.0093 44.3927C6.2722 44.3927 1.55943e-05 35.6693 1.55943e-05 24.9084C1.55943e-05 14.1475 8.76275 9.75389 16.4999 9.75389C24.237 9.75389 30.5092 18.4773 30.5092 29.2382Z" fill="#CC9966" fill-opacity="0.1"/>
<defs>
<clipPath id="clip0_827_10">
<rect width="50" height="50" fill="white" transform="translate(2.43909)"/>
</clipPath>
</defs>
</svg>
