<svg width="61" height="49" viewBox="0 0 61 49" fill="none" xmlns="http://www.w3.org/2000/svg">
<circle cx="3.89845" cy="3.89846" r="2.82275" transform="rotate(57.4261 3.89845 3.89846)" fill="#CDAF9A"/>
<circle cx="17.1997" cy="4.07814" r="2.82275" transform="rotate(57.4261 17.1997 4.07814)" fill="#CDAF9A"/>
<circle cx="30.4995" cy="4.07814" r="2.82275" transform="rotate(57.4261 30.4995 4.07814)" fill="#CDAF9A"/>
<circle cx="43.8018" cy="4.07814" r="2.82275" transform="rotate(57.4261 43.8018 4.07814)" fill="#CDAF9A"/>
<circle cx="57.1016" cy="4.07814" r="2.82275" transform="rotate(57.4261 57.1016 4.07814)" fill="#CDAF9A"/>
<circle r="2.82275" transform="matrix(0.538377 0.842704 -0.842691 0.538397 3.89844 13.9298)" fill="#CDAF9A"/>
<circle cx="17.1997" cy="14.1094" r="2.82275" transform="rotate(57.4261 17.1997 14.1094)" fill="#CDAF9A"/>
<circle cx="30.4995" cy="14.1094" r="2.82275" transform="rotate(57.4261 30.4995 14.1094)" fill="#CDAF9A"/>
<circle cx="43.8018" cy="14.1094" r="2.82275" transform="rotate(57.4261 43.8018 14.1094)" fill="#CDAF9A"/>
<circle cx="57.1016" cy="14.1094" r="2.82275" transform="rotate(57.4261 57.1016 14.1094)" fill="#CDAF9A"/>
<circle cx="3.89845" cy="24.2735" r="2.82275" transform="rotate(57.4261 3.89845 24.2735)" fill="#CDAF9A"/>
<circle cx="17.1997" cy="24.4531" r="2.82275" transform="rotate(57.4261 17.1997 24.4531)" fill="#CDAF9A"/>
<circle cx="30.4995" cy="24.4531" r="2.82275" transform="rotate(57.4261 30.4995 24.4531)" fill="#CDAF9A"/>
<circle cx="43.8018" cy="24.4531" r="2.82275" transform="rotate(57.4261 43.8018 24.4531)" fill="#CDAF9A"/>
<circle cx="57.1016" cy="24.4531" r="2.82275" transform="rotate(57.4261 57.1016 24.4531)" fill="#CDAF9A"/>
<circle cx="3.89845" cy="34.6211" r="2.82275" transform="rotate(57.4261 3.89845 34.6211)" fill="#CDAF9A"/>
<circle cx="17.1997" cy="34.7969" r="2.82275" transform="rotate(57.4261 17.1997 34.7969)" fill="#CDAF9A"/>
<circle cx="3.89845" cy="44.293" r="2.82275" transform="rotate(57.4261 3.89845 44.293)" fill="#CDAF9A"/>
<circle cx="17.1997" cy="44.4727" r="2.82275" transform="rotate(57.4261 17.1997 44.4727)" fill="#CDAF9A"/>
<circle cx="30.4995" cy="44.4727" r="2.82275" transform="rotate(57.4261 30.4995 44.4727)" fill="#CDAF9A"/>
<circle cx="43.8018" cy="44.4727" r="2.82275" transform="rotate(57.4261 43.8018 44.4727)" fill="#CDAF9A"/>
<circle cx="57.1016" cy="44.4727" r="2.82275" transform="rotate(57.4261 57.1016 44.4727)" fill="#CDAF9A"/>
<circle cx="30.4995" cy="34.7969" r="2.82275" transform="rotate(57.4261 30.4995 34.7969)" fill="#CDAF9A"/>
<circle cx="43.8018" cy="34.7969" r="2.82275" transform="rotate(57.4261 43.8018 34.7969)" fill="#CDAF9A"/>
<circle cx="57.1016" cy="34.7969" r="2.82275" transform="rotate(57.4261 57.1016 34.7969)" fill="#CDAF9A"/>
</svg>
