<svg width="75" height="144" viewBox="0 0 75 144" fill="none" xmlns="http://www.w3.org/2000/svg">
<ellipse cx="75" cy="71.8385" rx="75" ry="71.8385" fill="#C7A58D" fill-opacity="0.4"/>
<g opacity="0.5">
<circle cx="71.5" cy="50.5" r="2.5" transform="rotate(90 71.5 50.5)" fill="#BD967A"/>
<circle cx="59.5" cy="50.5" r="2.5" transform="rotate(90 59.5 50.5)" fill="#BD967A"/>
<circle cx="47.5" cy="50.5" r="2.5" transform="rotate(90 47.5 50.5)" fill="#BD967A"/>
<circle cx="35.5" cy="50.5" r="2.5" transform="rotate(90 35.5 50.5)" fill="#BD967A"/>
<circle cx="23.5" cy="50.5" r="2.5" transform="rotate(90 23.5 50.5)" fill="#BD967A"/>
<circle cx="71.5" cy="84.5" r="2.5" transform="rotate(90 71.5 84.5)" fill="#BD967A"/>
<circle cx="59.5" cy="84.5" r="2.5" transform="rotate(90 59.5 84.5)" fill="#BD967A"/>
<circle cx="47.5" cy="84.5" r="2.5" transform="rotate(90 47.5 84.5)" fill="#BD967A"/>
<circle cx="35.5" cy="84.5" r="2.5" transform="rotate(90 35.5 84.5)" fill="#BD967A"/>
<circle cx="23.5" cy="84.5" r="2.5" transform="rotate(90 23.5 84.5)" fill="#BD967A"/>
<circle cx="71.5" cy="67.5" r="2.5" transform="rotate(90 71.5 67.5)" fill="#BD967A"/>
<circle cx="59.5" cy="67.5" r="2.5" transform="rotate(90 59.5 67.5)" fill="#BD967A"/>
<circle cx="47.5" cy="67.5" r="2.5" transform="rotate(90 47.5 67.5)" fill="#BD967A"/>
<circle cx="35.5" cy="67.5" r="2.5" transform="rotate(90 35.5 67.5)" fill="#BD967A"/>
<circle cx="23.5" cy="67.5" r="2.5" transform="rotate(90 23.5 67.5)" fill="#BD967A"/>
<circle cx="71.5" cy="101.5" r="2.5" transform="rotate(90 71.5 101.5)" fill="#BD967A"/>
<circle cx="59.5" cy="101.5" r="2.5" transform="rotate(90 59.5 101.5)" fill="#BD967A"/>
<circle cx="47.5" cy="101.5" r="2.5" transform="rotate(90 47.5 101.5)" fill="#BD967A"/>
<circle cx="35.5" cy="101.5" r="2.5" transform="rotate(90 35.5 101.5)" fill="#BD967A"/>
<circle cx="23.5" cy="101.5" r="2.5" transform="rotate(90 23.5 101.5)" fill="#BD967A"/>
</g>
</svg>
