<svg width="93" height="256" viewBox="0 0 93 256" fill="none" xmlns="http://www.w3.org/2000/svg">
<g opacity="0.5">
<circle cx="86.5" cy="100.5" r="2.5" transform="rotate(90 86.5 100.5)" fill="#BD967A"/>
<circle cx="74.5" cy="100.5" r="2.5" transform="rotate(90 74.5 100.5)" fill="#BD967A"/>
<circle cx="62.5" cy="100.5" r="2.5" transform="rotate(90 62.5 100.5)" fill="#BD967A"/>
<circle cx="50.5" cy="100.5" r="2.5" transform="rotate(90 50.5 100.5)" fill="#BD967A"/>
<circle cx="38.5" cy="100.5" r="2.5" transform="rotate(90 38.5 100.5)" fill="#BD967A"/>
<circle cx="86.5" cy="134.5" r="2.5" transform="rotate(90 86.5 134.5)" fill="#BD967A"/>
<circle cx="74.5" cy="134.5" r="2.5" transform="rotate(90 74.5 134.5)" fill="#BD967A"/>
<circle cx="62.5" cy="134.5" r="2.5" transform="rotate(90 62.5 134.5)" fill="#BD967A"/>
<circle cx="50.5" cy="134.5" r="2.5" transform="rotate(90 50.5 134.5)" fill="#BD967A"/>
<circle cx="38.5" cy="134.5" r="2.5" transform="rotate(90 38.5 134.5)" fill="#BD967A"/>
<circle cx="86.5" cy="117.5" r="2.5" transform="rotate(90 86.5 117.5)" fill="#BD967A"/>
<circle cx="74.5" cy="117.5" r="2.5" transform="rotate(90 74.5 117.5)" fill="#BD967A"/>
<circle cx="62.5" cy="117.5" r="2.5" transform="rotate(90 62.5 117.5)" fill="#BD967A"/>
<circle cx="50.5" cy="117.5" r="2.5" transform="rotate(90 50.5 117.5)" fill="#BD967A"/>
<circle cx="38.5" cy="117.5" r="2.5" transform="rotate(90 38.5 117.5)" fill="#BD967A"/>
<circle cx="86.5" cy="151.5" r="2.5" transform="rotate(90 86.5 151.5)" fill="#BD967A"/>
<circle cx="74.5" cy="151.5" r="2.5" transform="rotate(90 74.5 151.5)" fill="#BD967A"/>
<circle cx="62.5" cy="151.5" r="2.5" transform="rotate(90 62.5 151.5)" fill="#BD967A"/>
<circle cx="50.5" cy="151.5" r="2.5" transform="rotate(90 50.5 151.5)" fill="#BD967A"/>
<circle cx="38.5" cy="151.5" r="2.5" transform="rotate(90 38.5 151.5)" fill="#BD967A"/>
</g>
<circle cx="128" cy="128" r="128" fill="#CC9966" fill-opacity="0.2"/>
</svg>
