<svg width="100" height="160" viewBox="0 0 100 160" fill="none" xmlns="http://www.w3.org/2000/svg">
<path fill-rule="evenodd" clip-rule="evenodd" d="M150.78 61.0811C156.679 81.1114 143.094 100.623 129.978 116.871C117.853 131.889 102.117 144.662 82.8238 145.257C63.7682 145.844 47.6458 133.881 34.7882 119.805C21.4168 105.166 9.18655 87.5597 12.2262 67.9676C15.3439 47.8724 31.2004 32.1661 49.6964 23.7143C66.8202 15.8895 85.6569 19.8158 103.316 26.3437C122.663 33.4958 144.952 41.2943 150.78 61.0811Z" fill="#E9D4C0"/>
<g opacity="0.5">
<circle cx="101.168" cy="59.5" r="2.5" transform="rotate(90 101.168 59.5)" fill="white"/>
<circle cx="89.168" cy="59.5" r="2.5" transform="rotate(90 89.168 59.5)" fill="white"/>
<circle cx="77.168" cy="59.5" r="2.5" transform="rotate(90 77.168 59.5)" fill="white"/>
<circle cx="65.168" cy="59.5" r="2.5" transform="rotate(90 65.168 59.5)" fill="white"/>
<circle cx="53.168" cy="59.5" r="2.5" transform="rotate(90 53.168 59.5)" fill="white"/>
<circle cx="101.168" cy="93.5" r="2.5" transform="rotate(90 101.168 93.5)" fill="white"/>
<circle cx="89.168" cy="93.5" r="2.5" transform="rotate(90 89.168 93.5)" fill="white"/>
<circle cx="77.168" cy="93.5" r="2.5" transform="rotate(90 77.168 93.5)" fill="white"/>
<circle cx="65.168" cy="93.5" r="2.5" transform="rotate(90 65.168 93.5)" fill="white"/>
<circle cx="53.168" cy="93.5" r="2.5" transform="rotate(90 53.168 93.5)" fill="white"/>
<circle cx="101.168" cy="76.5" r="2.5" transform="rotate(90 101.168 76.5)" fill="white"/>
<circle cx="89.168" cy="76.5" r="2.5" transform="rotate(90 89.168 76.5)" fill="white"/>
<circle cx="77.168" cy="76.5" r="2.5" transform="rotate(90 77.168 76.5)" fill="white"/>
<circle cx="65.168" cy="76.5" r="2.5" transform="rotate(90 65.168 76.5)" fill="white"/>
<circle cx="53.168" cy="76.5" r="2.5" transform="rotate(90 53.168 76.5)" fill="white"/>
<circle cx="101.168" cy="110.5" r="2.5" transform="rotate(90 101.168 110.5)" fill="white"/>
<circle cx="89.168" cy="110.5" r="2.5" transform="rotate(90 89.168 110.5)" fill="white"/>
<circle cx="77.168" cy="110.5" r="2.5" transform="rotate(90 77.168 110.5)" fill="white"/>
<circle cx="65.168" cy="110.5" r="2.5" transform="rotate(90 65.168 110.5)" fill="white"/>
<circle cx="53.168" cy="110.5" r="2.5" transform="rotate(90 53.168 110.5)" fill="white"/>
</g>
</svg>
