<svg width="68.41px" height="77px" viewBox="0 0 59 60" fill="none" xmlns="http://www.w3.org/2000/svg">
                    <path
                        d="M40.1277 19.257C40.131 19.2785 40.1395 19.2989 40.1524 19.3165C40.1653 19.334 40.1822 19.3482 40.2018 19.3578C40.687 19.5991 40.7511 20.3737 41.2506 20.801C41.2767 20.824 41.3106 20.8361 41.3453 20.8349C41.3801 20.8336 41.413 20.819 41.4373 20.7942L46.755 15.4403C46.8867 15.3045 46.9753 15.1328 47.01 14.9469C47.0447 14.7609 47.0238 14.5689 46.95 14.3947C46.8763 14.2205 46.7528 14.0719 46.5951 13.9675C46.4374 13.863 46.2524 13.8073 46.0633 13.8073C45.9345 13.8067 45.807 13.8323 45.6884 13.8824C45.5698 13.9326 45.4626 14.0063 45.3733 14.0991C45.3733 14.0991 43.0896 16.3063 40.1676 19.1382C40.1519 19.1533 40.1401 19.172 40.1332 19.1927C40.1262 19.2134 40.1244 19.2354 40.1277 19.257Z"
                        fill="#463B32" />
                    <path
                        d="M17.126 57.0437C17.3578 57.0433 17.5826 56.9641 17.7634 56.819C17.9443 56.674 18.0704 56.4717 18.1211 56.2455C18.1717 56.0192 18.1439 55.7825 18.0422 55.5741C17.9405 55.3658 17.771 55.1983 17.5614 55.099C15.1594 53.9594 12.9389 52.471 10.9721 50.6821C10.992 50.6821 11.0113 50.6858 11.0312 50.6858H11.0779C11.2787 50.6761 11.4715 50.6037 11.629 50.4786C11.6701 50.4457 14.8739 46.9724 15.0108 46.8244C15.0494 46.7827 16.9425 44.6906 16.9169 44.6395C16.7676 44.3515 16.6059 44.0461 16.4348 43.7437C16.3203 43.5446 15.0301 44.4797 14.8827 44.2675C14.871 44.2508 14.8557 44.2369 14.8379 44.2269C14.8201 44.2169 14.8004 44.211 14.78 44.2097C14.7383 44.2097 13.9713 45.0931 13.9451 45.1236C11.8673 47.4011 10.5273 48.8637 10.424 48.975C10.2996 49.0768 10.2026 49.2081 10.142 49.357C10.0813 49.5058 10.059 49.6675 10.0769 49.8273C5.03782 44.8081 2.04113 37.9009 2.04113 30.6042C2.04113 24.9934 3.16901 20.9105 6.39961 16.3293C6.47948 16.2199 6.53677 16.0956 6.56815 15.9638C6.59952 15.8319 6.60435 15.6952 6.58236 15.5615C6.56037 15.4278 6.51199 15.2998 6.44005 15.1849C6.3681 15.0701 6.27403 14.9707 6.1633 14.8926C6.05258 14.8145 5.92742 14.7592 5.79511 14.7299C5.6628 14.7006 5.52598 14.698 5.39264 14.7221C5.25929 14.7462 5.13207 14.7966 5.0184 14.8703C4.90472 14.9441 4.80685 15.0397 4.7305 15.1517C1.25665 20.0782 0 24.5698 0 30.6042C0.00516117 36.1239 1.57595 41.5289 4.52998 46.1917C7.484 50.8544 11.7001 54.5835 16.6886 56.9461C16.8254 57.0104 16.9748 57.0438 17.126 57.0437Z"
                        fill="#463B32" />
                    <path
                        d="M53.5173 14.5333C53.3606 14.3122 53.1224 14.1625 52.8553 14.117C52.5881 14.0715 52.3138 14.134 52.0927 14.2907C51.8716 14.4474 51.7219 14.6856 51.6764 14.9528C51.6309 15.2199 51.6934 15.4942 51.8501 15.7153C55.0975 20.3034 56.2341 24.9779 56.2341 30.6048C56.2341 40.5498 50.7851 49.683 42.014 54.4408C41.8909 54.5019 41.7815 54.5871 41.6921 54.6913C41.6027 54.7956 41.5353 54.9169 41.4939 55.0478C41.4524 55.1787 41.4378 55.3167 41.4509 55.4534C41.464 55.5901 41.5045 55.7228 41.5701 55.8435C41.6356 55.9641 41.7248 56.0704 41.8323 56.1558C41.9399 56.2412 42.0635 56.3041 42.1959 56.3407C42.3283 56.3772 42.4667 56.3867 42.6028 56.3685C42.7389 56.3504 42.87 56.305 42.9882 56.235C47.6094 53.7367 51.4696 50.036 54.1606 45.5243C56.8517 41.0126 58.2735 35.8575 58.2758 30.6042C58.2758 24.5511 57.0098 19.4685 53.5173 14.5333Z"
                        fill="#463B32" />
                    <path
                        d="M41.6538 38.8365C41.5744 38.8366 41.4959 38.8205 41.423 38.7893C41.3413 38.7585 41.2669 38.7112 41.2043 38.6504C41.1417 38.5896 41.0922 38.5166 41.059 38.4359C41.0416 38.3911 41.0296 38.3443 41.0236 38.2966C40.9915 38.1603 41.0082 38.017 41.071 37.8919C41.1337 37.7667 41.2385 37.6676 41.3669 37.6118C41.4953 37.556 41.6392 37.5471 41.7735 37.5866C41.9078 37.6262 42.024 37.7116 42.1017 37.8281C42.1163 37.8501 42.1296 37.8729 42.1415 37.8965C42.2042 37.9859 42.2411 38.0908 42.2484 38.1997C42.2556 38.3086 42.2328 38.4175 42.1826 38.5144C42.1323 38.6113 42.0564 38.6925 41.9632 38.7493C41.8699 38.8061 41.7629 38.8363 41.6538 38.8365Z"
                        fill="#9C6137" fill-opacity="0.69" />
                    <path
                        d="M29.328 23.4929C28.7283 23.4883 28.1546 23.248 27.7306 22.8239C27.3067 22.3998 27.0666 21.826 27.0623 21.2263C27.058 20.6267 27.2897 20.0494 27.7075 19.6192C28.1253 19.189 28.6955 18.9405 29.295 18.9273L37.3202 18.8115C37.7684 18.8123 38.2064 18.945 38.5797 19.193C38.953 19.4411 39.2449 19.7936 39.4192 20.2065C39.5935 20.6194 39.6424 21.0745 39.5597 21.515C39.4771 21.9555 39.2666 22.3619 38.9544 22.6835C38.7466 22.8995 38.4979 23.0721 38.2228 23.1911C37.9477 23.3102 37.6516 23.3735 37.3519 23.3772L29.328 23.4929ZM37.3208 20.0054H37.304L29.3124 20.1205C29.03 20.1318 28.763 20.2525 28.5679 20.4571C28.3728 20.6616 28.2649 20.934 28.2669 21.2167C28.2689 21.4993 28.3807 21.7701 28.5787 21.9719C28.7767 22.1736 29.0454 22.2905 29.328 22.2978H29.3435L37.3357 22.1821C37.6238 22.1764 37.8979 22.057 38.0983 21.8501C38.2987 21.6431 38.4093 21.3653 38.4058 21.0773C38.4004 20.7924 38.284 20.5209 38.0813 20.3206C37.8786 20.1204 37.6057 20.0073 37.3208 20.0054Z"
                        fill="#9C6137" fill-opacity="0.69" />
                    <path
                        d="M30.9318 19.8934C30.7749 19.8931 30.6245 19.8311 30.5129 19.7209C30.4013 19.6107 30.3374 19.4611 30.3352 19.3043L30.2922 16.3418C30.2901 16.1834 30.3508 16.0307 30.4612 15.9171C30.5715 15.8035 30.7224 15.7383 30.8808 15.7358L35.6834 15.6668H35.6915C35.8482 15.6668 35.9987 15.7284 36.1103 15.8384C36.2219 15.9485 36.2858 16.098 36.2881 16.2547L36.3316 19.2184C36.3336 19.3765 36.2729 19.529 36.1627 19.6425C36.0525 19.7559 35.9019 19.8211 35.7438 19.8237L30.9405 19.8934H30.9318ZM31.4948 16.921L31.5203 18.6909L35.1285 18.6386L35.103 16.8687L31.4948 16.921Z"
                        fill="#9C6137" fill-opacity="0.69" />
                    <path
                        d="M30.1062 26.4454C29.9496 26.4454 29.7993 26.3839 29.6876 26.274C29.576 26.1641 29.5121 26.0148 29.5096 25.8581L29.4673 22.8944C29.4662 22.8161 29.4805 22.7383 29.5094 22.6655C29.5383 22.5926 29.5813 22.5262 29.6359 22.47C29.6905 22.4138 29.7556 22.3689 29.8276 22.3379C29.8995 22.3068 29.9769 22.2903 30.0552 22.2891C30.1336 22.288 30.2114 22.3023 30.2842 22.3312C30.357 22.3601 30.4234 22.4031 30.4796 22.4577C30.5358 22.5123 30.5807 22.5774 30.6118 22.6494C30.6428 22.7213 30.6594 22.7987 30.6605 22.877L30.7034 25.8407C30.7046 25.919 30.6903 25.9968 30.6614 26.0696C30.6324 26.1424 30.5895 26.2088 30.5348 26.2649C30.4802 26.3211 30.4151 26.3659 30.3432 26.3969C30.2712 26.4279 30.1939 26.4444 30.1156 26.4454H30.1062Z"
                        fill="#9C6137" fill-opacity="0.69" />
                    <path
                        d="M36.7485 26.3502C36.5916 26.3502 36.4411 26.2885 36.3294 26.1784C36.2178 26.0682 36.154 25.9185 36.1519 25.7617L36.1089 22.7986C36.1111 22.6432 36.1738 22.4948 36.2837 22.3849C36.3936 22.275 36.542 22.2122 36.6974 22.2099C36.8528 22.2077 37.0029 22.2661 37.116 22.3727C37.229 22.4794 37.296 22.6259 37.3028 22.7812L37.3444 25.7443C37.3457 25.8227 37.3314 25.9006 37.3026 25.9735C37.2737 26.0464 37.2307 26.1129 37.1761 26.1691C37.1215 26.2254 37.0563 26.2704 36.9843 26.3014C36.9124 26.3325 36.835 26.3491 36.7565 26.3502H36.7485Z"
                        fill="#9C6137" fill-opacity="0.69" />
                    <path
                        d="M26.0694 43.9932C25.9879 43.9934 25.9072 43.977 25.8323 43.9449C25.7575 43.9128 25.6899 43.8657 25.6339 43.8065C24.166 42.2449 23.1839 40.2903 22.807 38.1805C22.4301 36.0707 22.6747 33.8969 23.5111 31.9236C24.3475 29.9504 25.7395 28.2629 27.5177 27.0666C29.2959 25.8703 31.3836 25.2168 33.5266 25.1856H33.6871C35.2352 25.1858 36.7661 25.511 38.1807 26.1401C39.5953 26.7693 40.862 27.6884 41.8989 28.838C42.0049 28.9556 42.0599 29.1104 42.0517 29.2685C42.0435 29.4266 41.9729 29.575 41.8553 29.681C41.7971 29.7335 41.7291 29.774 41.6553 29.8002C41.5814 29.8264 41.5031 29.8378 41.4248 29.8338C41.2668 29.8256 41.1184 29.755 41.0124 29.6374C40.1407 28.6665 39.085 27.8782 37.9064 27.3183C36.7277 26.7584 35.4497 26.438 34.1464 26.3758C32.843 26.3136 31.5402 26.5107 30.3137 26.9558C29.0871 27.4008 27.961 28.085 27.0008 28.9685C26.0406 29.852 25.2654 30.9174 24.72 32.1028C24.1747 33.2882 23.8701 34.5701 23.8239 35.8741C23.7777 37.1782 23.9908 38.4784 24.4509 39.6994C24.911 40.9204 25.609 42.038 26.5042 42.9872C26.584 43.0722 26.6371 43.1786 26.6571 43.2934C26.6771 43.4082 26.6631 43.5263 26.6168 43.6332C26.5706 43.7401 26.494 43.8312 26.3966 43.8952C26.2992 43.9591 26.1853 43.9932 26.0688 43.9932H26.0694Z"
                        fill="#9C6137" fill-opacity="0.69" />
                    <path
                        d="M12.1124 44.8237C11.9574 44.8192 11.8102 44.7546 11.702 44.6435C11.5938 44.5325 11.533 44.3837 11.5325 44.2286C11.532 44.0735 11.5919 43.9243 11.6994 43.8126C11.8069 43.7009 11.9537 43.6353 12.1087 43.6299C20.1301 43.5751 35.5777 43.4675 35.5777 43.4675L35.5864 44.6619L12.1168 44.8237H12.1124Z"
                        fill="#9C6137" fill-opacity="0.69" />
                    <path
                        d="M14.6606 44.2451C14.5818 44.2454 14.5038 44.2299 14.431 44.1997C14.3583 44.1695 14.2923 44.1251 14.2369 44.0691C12.7627 42.5819 11.8612 40.6218 11.6916 38.5347C11.5219 36.4476 12.095 34.3676 13.3097 32.6619C14.5243 30.9561 16.3025 29.7343 18.3303 29.212C20.3581 28.6897 22.5053 28.9006 24.3928 29.8073C24.5354 29.876 24.6448 29.9985 24.697 30.1479C24.7492 30.2973 24.7399 30.4613 24.6712 30.6039C24.6025 30.7464 24.4799 30.8559 24.3305 30.9081C24.1812 30.9603 24.0171 30.951 23.8746 30.8823C22.2406 30.0971 20.3817 29.9145 18.6262 30.3667C16.8706 30.8188 15.3313 31.8767 14.2798 33.3534C13.2284 34.8302 12.7325 36.631 12.8797 38.4378C13.0268 40.2447 13.8076 41.9415 15.0842 43.2286C15.1674 43.3121 15.2239 43.4185 15.2467 43.5341C15.2695 43.6498 15.2574 43.7696 15.212 43.8784C15.1667 43.9872 15.0901 44.0802 14.9919 44.1454C14.8938 44.2107 14.7784 44.2454 14.6606 44.2451Z"
                        fill="#9C6137" fill-opacity="0.69" />
                    <path
                        d="M18.3018 29.9896C18.145 29.9894 17.9946 29.9276 17.8831 29.8175C17.7716 29.7073 17.7079 29.5578 17.7058 29.401L17.6728 27.1528C17.6717 27.0744 17.686 26.9966 17.7149 26.9238C17.7438 26.851 17.7868 26.7845 17.8414 26.7283C17.896 26.6721 17.9611 26.6272 18.0331 26.5962C18.105 26.5652 18.1823 26.5486 18.2607 26.5474C18.339 26.5463 18.4168 26.5606 18.4897 26.5895C18.5625 26.6184 18.6289 26.6614 18.6851 26.716C18.7413 26.7706 18.7862 26.8357 18.8173 26.9077C18.8483 26.9796 18.8649 27.057 18.866 27.1353L18.899 29.3836C18.9001 29.4621 18.8858 29.5399 18.8569 29.6128C18.8279 29.6857 18.7849 29.7522 18.7302 29.8085C18.6756 29.8648 18.6104 29.9097 18.5384 29.9408C18.4663 29.9718 18.3889 29.9884 18.3105 29.9896H18.3018Z"
                        fill="#9C6137" fill-opacity="0.69" />
                    <path
                        d="M23.1038 29.9199C22.9471 29.9197 22.7967 29.8579 22.6852 29.7478C22.5737 29.6377 22.5099 29.4881 22.5078 29.3314L22.4748 27.0837C22.4714 27.0039 22.484 26.9242 22.5119 26.8493C22.5398 26.7745 22.5825 26.706 22.6373 26.6479C22.6922 26.5898 22.7581 26.5433 22.8313 26.5112C22.9044 26.4791 22.9832 26.4619 23.0631 26.4608C23.143 26.4597 23.2223 26.4746 23.2963 26.5046C23.3703 26.5347 23.4375 26.5793 23.494 26.6358C23.5505 26.6924 23.595 26.7596 23.625 26.8337C23.655 26.9077 23.6699 26.987 23.6687 27.0669L23.701 29.3139C23.7023 29.3922 23.6882 29.47 23.6595 29.5428C23.6307 29.6156 23.5879 29.682 23.5335 29.7383C23.4791 29.7946 23.4141 29.8396 23.3423 29.8707C23.2705 29.9019 23.1933 29.9186 23.115 29.9199H23.1038Z"
                        fill="#9C6137" fill-opacity="0.69" />
                    <path
                        d="M17.2 27.1434C16.7544 27.1415 16.3272 26.9653 16.0099 26.6524C15.6926 26.3395 15.5104 25.9149 15.5023 25.4693V25.4239C15.4955 24.9734 15.6678 24.5385 15.9815 24.215C16.2952 23.8915 16.7246 23.7059 17.1751 23.6988L23.8864 23.6024C24.3321 23.6041 24.7595 23.7803 25.0769 24.0932C25.3943 24.4061 25.5766 24.8308 25.5848 25.2765V25.3213C25.5882 25.5443 25.5477 25.7659 25.4654 25.9733C25.3831 26.1807 25.2608 26.3698 25.1053 26.5299C24.9499 26.6899 24.7644 26.8178 24.5596 26.9061C24.3547 26.9944 24.1344 27.0414 23.9113 27.0445L17.2 27.1434ZM23.8864 24.7987L17.1925 24.8951C17.1262 24.8959 17.0606 24.9097 16.9996 24.9359C16.9386 24.962 16.8834 25 16.8372 25.0476C16.7909 25.0952 16.7545 25.1514 16.7301 25.2131C16.7057 25.2748 16.6937 25.3408 16.6949 25.4071V25.4532C16.6973 25.5856 16.7514 25.7118 16.8457 25.8048C16.94 25.8978 17.0669 25.9502 17.1994 25.9508H17.2075L23.8939 25.8544C24.0277 25.8523 24.1552 25.7972 24.2485 25.7012C24.3418 25.6053 24.3932 25.4762 24.3916 25.3424V25.2976C24.3899 25.1647 24.336 25.0378 24.2414 24.9444C24.1469 24.8511 24.0193 24.7987 23.8864 24.7987Z"
                        fill="#9C6137" fill-opacity="0.69" />
                    <path
                        d="M21.4695 37.3454C20.6042 37.3454 19.7506 37.0778 18.9606 36.8315C18.3689 36.6449 17.8103 36.4713 17.2958 36.4165C15.8102 36.2579 14.1486 36.2019 13.0972 36.9845C13.0343 37.0313 12.9629 37.0653 12.8869 37.0845C12.8109 37.1037 12.7319 37.1077 12.6543 37.0964C12.5767 37.085 12.5022 37.0585 12.4349 37.0183C12.3676 36.9782 12.3088 36.9251 12.262 36.8623C12.2152 36.7994 12.1813 36.728 12.1621 36.652C12.1429 36.576 12.1388 36.4969 12.1502 36.4194C12.1615 36.3418 12.188 36.2673 12.2282 36.2C12.2684 36.1327 12.3214 36.0739 12.3843 36.0271C13.7654 34.9988 15.7063 35.0467 17.4233 35.2296C18.0542 35.2967 18.6968 35.4977 19.3183 35.6918C20.486 36.057 21.589 36.4022 22.5476 35.9002C22.6171 35.8638 22.693 35.8414 22.7711 35.8344C22.8492 35.8273 22.9279 35.8357 23.0027 35.8591C23.0776 35.8825 23.1471 35.9203 23.2073 35.9706C23.2675 36.0208 23.3172 36.0824 23.3536 36.1518C23.39 36.2213 23.4123 36.2972 23.4194 36.3753C23.4264 36.4534 23.418 36.5321 23.3947 36.6069C23.3713 36.6818 23.3334 36.7513 23.2832 36.8115C23.233 36.8717 23.1714 36.9214 23.1019 36.9578C22.5981 37.2197 22.0373 37.3528 21.4695 37.3454Z"
                        fill="#9C6137" fill-opacity="0.69" />
                    <path
                        d="M40.9072 37.7149C40.8013 37.715 40.6971 37.6869 40.6056 37.6334C40.5141 37.5799 40.4385 37.5031 40.3865 37.4107C37.9529 33.0932 34.0927 35.2009 33.9291 35.2955C33.854 35.3379 33.7706 35.3635 33.6847 35.3706C33.5988 35.3776 33.5124 35.366 33.4314 35.3366C32.8647 35.1282 29.9476 34.0861 28.1118 33.9679C26.2759 33.8497 24.7486 33.9462 24.0251 34.2273C23.9521 34.2559 23.8741 34.2699 23.7957 34.2683C23.7173 34.2668 23.64 34.2498 23.5681 34.2184C23.4962 34.187 23.4313 34.1417 23.3769 34.0852C23.3225 34.0287 23.2798 33.962 23.2512 33.8889C23.2226 33.8159 23.2087 33.7379 23.2102 33.6595C23.2118 33.5811 23.2287 33.5037 23.2602 33.4319C23.2916 33.36 23.3369 33.295 23.3934 33.2407C23.4499 33.1863 23.5166 33.1436 23.5897 33.115C24.809 32.6404 26.9926 32.6988 28.1864 32.7766C29.975 32.8923 32.5412 33.7514 33.595 34.1278C34.224 33.8329 35.9123 33.1878 37.7631 33.6992C39.2562 34.111 40.4861 35.1642 41.4242 36.8278C41.4745 36.9183 41.5004 37.0203 41.4993 37.1239C41.4982 37.2274 41.4702 37.3289 41.4181 37.4184C41.3659 37.5078 41.2914 37.5822 41.2019 37.6342C41.1123 37.6862 41.0108 37.714 40.9072 37.7149Z"
                        fill="#9C6137" fill-opacity="0.69" />
                    <path
                        d="M38.8157 39.2627C36.7254 39.2627 35.3699 38.4875 34.5618 37.7659C33.493 36.8116 33.1253 35.7409 33.1104 35.6961C33.0654 35.5474 33.0801 35.387 33.1515 35.249C33.2228 35.1109 33.3451 35.0061 33.4925 34.9568C33.6399 34.9075 33.8006 34.9176 33.9407 34.9849C34.0807 35.0522 34.189 35.1714 34.2426 35.3173C34.2887 35.4504 35.4514 38.6462 40.0176 37.9774C40.1744 37.9545 40.3338 37.9947 40.4609 38.0894C40.5879 38.184 40.6722 38.3252 40.6951 38.4819C40.718 38.6387 40.6778 38.7981 40.5832 38.9252C40.4885 39.0522 40.3473 39.1365 40.1906 39.1594C39.7354 39.2268 39.2759 39.2613 38.8157 39.2627Z"
                        fill="#9C6137" fill-opacity="0.69" />
                    <path
                        d="M35.9994 45.2691C35.8769 45.2685 35.7575 45.2303 35.6574 45.1597C35.5572 45.089 35.4812 44.9893 35.4395 44.8741C35.4066 44.7814 34.6258 42.563 35.6523 40.594C36.2744 39.3964 37.4135 38.569 39.031 38.1336C39.1837 38.0923 39.3467 38.1134 39.4839 38.1923C39.6211 38.2712 39.7213 38.4013 39.7626 38.5541C39.8038 38.7069 39.7827 38.8698 39.7038 39.007C39.6249 39.1442 39.4948 39.2445 39.342 39.2857C38.0605 39.6316 37.1752 40.2568 36.7118 41.1458C36.1631 42.1972 36.3036 43.3854 36.4418 44.0193C37.5479 43.8327 40.2366 43.042 40.5993 39.789C40.608 39.7111 40.632 39.6357 40.6698 39.567C40.7077 39.4984 40.7587 39.4379 40.8199 39.389C40.8811 39.34 40.9514 39.3036 41.0267 39.2819C41.102 39.2601 41.1808 39.2534 41.2587 39.2621C41.3366 39.2708 41.412 39.2947 41.4807 39.3326C41.5493 39.3704 41.6098 39.4214 41.6588 39.4827C41.7077 39.5439 41.7441 39.6142 41.7659 39.6895C41.7876 39.7648 41.7944 39.8436 41.7857 39.9215C41.4926 42.5592 39.933 43.8769 38.6751 44.5176C37.8494 44.9355 36.9504 45.1891 36.0281 45.2642C36.0186 45.2665 36.0091 45.2681 35.9994 45.2691Z"
                        fill="#9C6137" fill-opacity="0.69" />
                    <path
                        d="M39.6518 32.4805C39.5182 32.4803 39.3884 32.4353 39.2834 32.3526C39.1784 32.2699 39.1041 32.1544 39.0726 32.0245C38.6316 30.2085 36.425 29.3917 36.4032 29.3836C36.2552 29.3295 36.1346 29.219 36.0677 29.0763C36.0008 28.9336 35.993 28.7703 36.0461 28.6218C36.0991 28.4734 36.2086 28.352 36.3508 28.284C36.493 28.216 36.6563 28.207 36.8051 28.2589C36.9202 28.3012 39.6381 29.2947 40.2316 31.7427C40.2505 31.8186 40.2542 31.8976 40.2425 31.975C40.2309 32.0524 40.204 32.1268 40.1636 32.1938C40.1231 32.2608 40.0699 32.3192 40.0068 32.3656C39.9438 32.4121 39.8722 32.4456 39.7962 32.4643C39.7489 32.4754 39.7004 32.4808 39.6518 32.4805Z"
                        fill="#9C6137" fill-opacity="0.69" />
                    <path
                        d="M46.2617 40.4403C44.2971 40.4403 42.6616 39.4331 42.5788 39.3827C42.4495 39.2969 42.3587 39.164 42.3256 39.0122C42.2926 38.8605 42.32 38.7019 42.4019 38.57C42.4839 38.4381 42.614 38.3433 42.7647 38.3057C42.9154 38.2682 43.0747 38.2908 43.209 38.3687C43.2289 38.3812 45.2856 39.6372 47.2764 39.1215C48.3427 38.8452 49.2211 38.0969 49.8892 36.8981C49.9681 36.7633 50.0967 36.6648 50.2473 36.6237C50.398 36.5826 50.5588 36.6021 50.6952 36.6781C50.8316 36.7541 50.9328 36.8805 50.9772 37.0302C51.0216 37.1799 51.0055 37.3411 50.9325 37.4791C50.097 38.9778 48.9654 39.9196 47.5669 40.2786C47.1403 40.3868 46.7018 40.4411 46.2617 40.4403Z"
                        fill="#9C6137" fill-opacity="0.69" />
                    <path
                        d="M50.4124 37.7858C50.2764 37.7855 50.1446 37.7385 50.0392 37.6527C48.4285 36.3506 46.9516 35.7957 45.6514 36.0022C44.1826 36.2361 43.4118 37.4032 43.4038 37.4144C43.3188 37.548 43.1842 37.6423 43.0297 37.6767C42.8752 37.711 42.7133 37.6826 42.5798 37.5976C42.4462 37.5126 42.3519 37.3781 42.3175 37.2236C42.2832 37.069 42.3116 36.9072 42.3966 36.7736C42.4382 36.7077 43.4417 35.1562 45.4405 34.8271C47.0953 34.5552 48.8957 35.1929 50.7907 36.7245C50.8864 36.802 50.9558 36.9073 50.9894 37.0259C51.023 37.1444 51.019 37.2705 50.9782 37.3867C50.9373 37.503 50.8614 37.6037 50.761 37.6752C50.6606 37.7466 50.5406 37.7853 50.4174 37.7858H50.4124Z"
                        fill="#9C6137" fill-opacity="0.69" />
                    <path
                        d="M40.9247 37.6657C40.8432 37.666 40.7625 37.6496 40.6876 37.6175C40.6127 37.5854 40.5452 37.5383 40.4892 37.4791C40.427 37.4169 38.9675 35.851 39.0546 33.5312C39.1168 31.8018 40.0145 30.1432 41.716 28.6035C41.8334 28.4973 41.9881 28.4421 42.1462 28.4501C42.3043 28.458 42.4528 28.5284 42.5589 28.6458C42.6651 28.7632 42.7203 28.918 42.7124 29.076C42.7044 29.2341 42.634 29.3826 42.5166 29.4888C41.0684 30.7995 40.305 32.1694 40.2478 33.5598C40.1725 35.3726 41.344 36.6449 41.3558 36.6579C41.4355 36.7429 41.4887 36.8493 41.5087 36.9641C41.5287 37.0789 41.5147 37.197 41.4684 37.3039C41.4221 37.4108 41.3456 37.5019 41.2482 37.5658C41.1508 37.6298 41.0368 37.6639 40.9203 37.6639L40.9247 37.6657Z"
                        fill="#9C6137" fill-opacity="0.69" />
                    <path
                        d="M46.1522 46.2813C46.1283 46.2813 46.1045 46.2801 46.0807 46.2776C43.95 46.0244 42.4015 45.1323 41.4771 43.6261C40.692 42.3434 40.5601 40.9256 40.5875 39.9619C40.5919 39.8037 40.6591 39.6537 40.7741 39.545C40.8891 39.4363 41.0426 39.3777 41.2009 39.3821C41.3591 39.3866 41.5091 39.4537 41.6178 39.5687C41.7266 39.6838 41.7851 39.8373 41.7807 39.9955C41.734 41.6211 42.1994 44.364 45.7112 45.0153C46.1006 43.3294 45.7653 41.9048 44.7096 40.7694C44.1665 40.1927 43.5064 39.7388 42.7736 39.4381C42.6245 39.3849 42.5027 39.2747 42.4349 39.1316C42.3671 38.9886 42.3589 38.8245 42.4121 38.6754C42.4653 38.5263 42.5756 38.4045 42.7186 38.3367C42.8616 38.269 43.0257 38.2608 43.1748 38.314C44.0877 38.6796 44.9098 39.2401 45.5836 39.9563C46.5933 41.0407 47.6092 42.9424 46.719 45.8583C46.6822 45.9801 46.6073 46.087 46.5053 46.1632C46.4033 46.2393 46.2795 46.2807 46.1522 46.2813Z"
                        fill="#9C6137" fill-opacity="0.69" />
                    <path
                        d="M42.9241 37.5388C42.8143 37.539 42.7066 37.5089 42.6128 37.4517C42.5191 37.3946 42.4429 37.3126 42.3928 37.215C42.3427 37.1173 42.3205 37.0076 42.3287 36.8981C42.337 36.7886 42.3753 36.6836 42.4395 36.5945C42.5515 36.4358 45.1705 32.6659 41.9536 29.4682C41.847 29.3555 41.7884 29.2056 41.7903 29.0504C41.7922 28.8952 41.8545 28.7468 41.9639 28.6368C42.0734 28.5267 42.2214 28.4635 42.3766 28.4607C42.5317 28.4578 42.6819 28.5155 42.7953 28.6215C44.8601 30.6745 44.9136 32.934 44.5951 34.4693C44.3831 35.477 43.9804 36.4348 43.4087 37.2912C43.3536 37.3682 43.2808 37.4308 43.1965 37.4738C43.1122 37.5169 43.0188 37.5392 42.9241 37.5388Z"
                        fill="#9C6137" fill-opacity="0.69" />
                    <path
                        d="M9.78263 34.5813C9.7818 34.5034 9.7964 34.4261 9.82558 34.3538C9.85476 34.2816 9.89794 34.2158 9.95263 34.1603C10.0073 34.1048 10.0725 34.0606 10.1443 34.0304C10.2161 34.0002 10.2932 33.9844 10.3711 33.9841C10.7015 33.9804 10.9721 34.1832 10.9752 34.5813C10.9721 34.7373 10.9091 34.8862 10.7994 34.9971C10.6896 35.108 10.5414 35.1726 10.3854 35.1773H10.3767C10.2195 35.1752 10.0693 35.1117 9.95831 35.0003C9.84729 34.8889 9.78424 34.7386 9.78263 34.5813ZM10.6536 33.1001C10.5836 33.0647 10.5213 33.0158 10.4702 32.9563C10.4191 32.8968 10.3803 32.8278 10.3559 32.7533C10.3315 32.6787 10.3221 32.6001 10.3281 32.5219C10.3341 32.4437 10.3555 32.3675 10.391 32.2976C10.4628 32.1568 10.5874 32.0502 10.7375 32.001C10.8877 31.9518 11.0512 31.964 11.1923 32.035C11.2623 32.0706 11.3245 32.1195 11.3755 32.1791C11.4266 32.2387 11.4653 32.3078 11.4897 32.3824C11.514 32.4569 11.5234 32.5356 11.5173 32.6138C11.5112 32.692 11.4898 32.7683 11.4542 32.8382C11.4047 32.9367 11.3287 33.0195 11.2347 33.0772C11.1408 33.1348 11.0326 33.1652 10.9223 33.1648C10.8287 33.1646 10.7365 33.1424 10.653 33.1001H10.6536ZM11.746 31.2923C11.6713 31.1525 11.6552 30.9888 11.7012 30.8372C11.7471 30.6855 11.8514 30.5583 11.9911 30.4835C12.0605 30.4464 12.1365 30.4235 12.2148 30.4159C12.2931 30.4083 12.3721 30.4164 12.4473 30.4395C12.5225 30.4626 12.5923 30.5004 12.6528 30.5507C12.7134 30.601 12.7633 30.6627 12.7998 30.7324C12.8746 30.872 12.8908 31.0357 12.8449 31.1873C12.7991 31.3389 12.6949 31.4662 12.5554 31.5411C12.469 31.5871 12.3727 31.6115 12.2748 31.612C12.1657 31.6122 12.0587 31.5825 11.9654 31.5261C11.8721 31.4697 11.796 31.3888 11.7454 31.2923H11.746Z"
                        fill="#9C6137" fill-opacity="0.69" />
                    <path
                        d="M45.7423 32.1931C45.7407 32.0345 45.802 31.8818 45.9125 31.7682C46.0231 31.6546 46.1741 31.5893 46.3326 31.5865C46.4915 31.586 46.6441 31.6483 46.7573 31.7598C46.8704 31.8713 46.9349 32.023 46.9367 32.1819C46.938 32.2606 46.9238 32.3387 46.8949 32.4119C46.8659 32.4851 46.8228 32.5519 46.768 32.6084C46.7133 32.6649 46.6479 32.7101 46.5756 32.7413C46.5033 32.7725 46.4256 32.7891 46.3469 32.7903H46.3389C46.181 32.7888 46.03 32.7254 45.9184 32.6137C45.8068 32.502 45.7435 32.3509 45.7423 32.1931ZM45.267 30.4468C45.2317 30.3768 45.2106 30.3006 45.2048 30.2224C45.1991 30.1442 45.2088 30.0657 45.2335 29.9913C45.2582 29.9169 45.2973 29.8481 45.3486 29.7889C45.4 29.7297 45.4625 29.6812 45.5326 29.6462C45.6025 29.6107 45.6788 29.5895 45.757 29.5836C45.8351 29.5777 45.9137 29.5873 45.9882 29.6119C46.0626 29.6365 46.1315 29.6755 46.1908 29.7267C46.2501 29.778 46.2988 29.8405 46.3339 29.9105C46.4048 30.052 46.4168 30.2158 46.3672 30.3661C46.3177 30.5163 46.2106 30.6409 46.0695 30.7124C45.986 30.7534 45.8943 30.7747 45.8014 30.7747C45.6906 30.7751 45.582 30.7446 45.4876 30.6867C45.3932 30.6288 45.3168 30.5457 45.267 30.4468ZM44.1963 28.9687C44.1963 28.7509 43.9282 28.3739 44.1465 28.1263C44.3655 27.8775 44.6934 27.857 44.9914 28.0753C45.1904 28.2943 45.2365 28.6713 45.0194 28.9189C44.9654 28.9817 44.8986 29.0321 44.8235 29.0668C44.7484 29.1015 44.6666 29.1196 44.5839 29.1199C44.4398 29.1225 44.3005 29.0682 44.1963 28.9687Z"
                        fill="#9C6137" fill-opacity="0.69" />
                    <path
                        d="M6.37571 8.72242C6.01783 8.32715 6.03547 7.9719 6.37853 7.66129C6.55752 7.49923 6.76886 7.40289 6.97667 7.37759L6.51942 6.25801C6.1681 6.30467 5.76427 6.54816 5.43612 6.84526C4.43678 7.75008 4.41833 8.83892 5.23537 9.74132L5.39742 9.9203L4.77843 10.4807L5.58871 11.3757L6.20771 10.8152L8.94916 13.8431L10.1126 12.7897L7.37112 9.76188L8.37047 8.85706L7.56019 7.96212L6.53101 8.89395L6.37571 8.72242Z"
                        fill="#463B32" />
                    <path
                        d="M9.85979 6.9701L9.44477 6.38335L8.21342 7.25431L11.3582 11.7004L12.6474 10.7885L11.1627 8.68943C10.5606 7.83823 10.7569 7.11664 11.4676 6.61394C11.5668 6.5438 11.6553 6.49361 11.7686 6.42589L10.9269 5.23586C10.2409 5.72102 9.86986 6.31825 9.85979 6.9701Z"
                        fill="#463B32" />
                    <path
                        d="M14.0156 3.6428C13.2369 4.02342 12.551 4.61672 12.2026 5.25813L13.1921 5.9972C13.408 5.54391 13.8581 5.11075 14.3742 4.85847C15.1348 4.4867 15.6696 4.66278 15.9661 5.26942L14.8434 5.81823C13.3585 6.54407 13.0439 7.43819 13.4644 8.29835C13.876 9.1404 14.8649 9.44226 16.0057 8.8846C16.721 8.53496 17.113 8.0517 17.1587 7.47969L17.4552 8.08632L18.7771 7.44015L17.4184 4.66048C16.697 3.18462 15.5005 2.91695 14.0156 3.6428ZM15.8941 7.76129C15.3961 8.00471 14.9823 7.91535 14.8097 7.56224C14.6503 7.23628 14.7391 6.89002 15.4 6.56693L16.3689 6.09336L16.6123 6.59135C16.6662 7.11468 16.3649 7.53114 15.8941 7.76129Z"
                        fill="#463B32" />
                    <path
                        d="M22.1939 0.856896L22.3638 1.53122C21.8351 1.12398 21.1676 1.0323 20.4346 1.21695C18.9785 1.58379 18.0594 2.88583 18.4459 4.42015C18.8324 5.95448 20.2587 6.66564 21.7149 6.2988C22.399 6.12646 22.9214 5.7662 23.2113 5.22548L23.2679 5.45025C23.5068 6.39821 23.1608 7.00503 22.0858 7.27585C21.4114 7.44573 20.6194 7.39583 20.0787 7.14749L19.7486 8.39469C20.4849 8.71845 21.514 8.71903 22.5108 8.4679C24.4067 7.99027 25.2357 6.82528 24.7432 4.87072L23.6403 0.492518L22.1939 0.856896ZM21.7027 4.97156C20.9013 5.17344 20.1845 4.80321 19.99 4.03116C19.7955 3.25911 20.2514 2.59343 21.0527 2.39154C21.8541 2.18966 22.5612 2.56236 22.7557 3.33441C22.9502 4.10646 22.5041 4.76967 21.7027 4.97156Z"
                        fill="#463B32" />
                    <path
                        d="M27.026 0.926494L26.9752 0.212751L25.4774 0.31933L25.8622 5.72769L27.4304 5.6161L27.2487 3.06272C27.1751 2.02729 27.7144 1.51404 28.579 1.45252C28.6996 1.44394 28.8009 1.44684 28.9323 1.44759L28.8293 0C27.9949 0.0593697 27.3708 0.376571 27.026 0.926494Z"
                        fill="#463B32" />
                    <path
                        d="M32.3037 0.167693C31.4404 0.0910991 30.5465 0.244504 29.9169 0.613582L30.3819 1.75768C30.8011 1.48121 31.4103 1.34302 31.9825 1.39379C32.8257 1.4686 33.1925 1.89574 33.1329 2.56833L31.8881 2.45789C30.2417 2.31183 29.5103 2.91471 29.4257 3.86839C29.3429 4.80198 30.0335 5.57149 31.2983 5.68371C32.0914 5.75407 32.6767 5.54294 33.0115 5.07687L32.9518 5.74946L34.4175 5.8795L34.6909 2.79762C34.8361 1.16131 33.9501 0.313757 32.3037 0.167693ZM31.7834 4.66438C31.2312 4.6154 30.9231 4.325 30.9579 3.93349C30.9899 3.5721 31.2449 3.32154 31.9777 3.38655L33.0518 3.48185L33.0028 4.03398C32.7785 4.50984 32.3054 4.71069 31.7834 4.66438Z"
                        fill="#463B32" />
                    <path
                        d="M39.9917 1.64347C39.2854 1.43012 38.6028 1.48787 38.062 1.81017L38.2461 1.20064L36.8046 0.765164L35.2322 5.97032L36.7415 6.42625L37.5189 3.8527C37.8083 2.89487 38.4651 2.60765 39.1908 2.82685C39.8583 3.02851 40.1284 3.53242 39.8742 4.37414L39.0441 7.12184L40.5534 7.57778L41.4536 4.59788C41.9329 3.01118 41.2204 2.01465 39.9917 1.64347Z"
                        fill="#463B32" />
                    <path
                        d="M43.561 9.28624C44.5632 9.83288 45.5944 9.81998 46.3563 9.24593L45.6025 8.07526C45.0937 8.39614 44.6059 8.38324 44.1714 8.14621C43.4707 7.76404 43.1869 6.97634 43.6417 6.14267C44.0964 5.30901 44.9123 5.12115 45.6129 5.50332C46.0475 5.74036 46.3176 6.15235 46.3281 6.74494L47.7156 6.75381C47.7955 5.7847 47.2432 4.91959 46.241 4.37295C44.689 3.52639 43.0241 3.94161 42.2404 5.37835C41.4567 6.81509 42.009 8.43968 43.561 9.28624Z"
                        fill="#463B32" />
                    <path
                        d="M51.804 11.8864C52.9098 10.5383 52.6366 8.93259 51.4055 7.92274C50.1275 6.87454 48.4277 6.99228 47.3987 8.24682C46.376 9.49357 46.5711 11.1786 48.0204 12.3674C48.7763 12.9874 49.5524 13.233 50.3064 13.1084L50.2348 11.8766C49.7228 11.9129 49.2947 11.7833 48.8505 11.419C48.2116 10.8949 48.0295 10.2111 48.3408 9.59313L51.5122 12.1945C51.6031 12.0996 51.7273 11.9799 51.804 11.8864ZM50.6591 8.84861C51.2045 9.29601 51.3207 9.96483 50.9718 10.565L48.9069 8.87126C49.4336 8.40391 50.1058 8.39481 50.6591 8.84861Z"
                        fill="#463B32" />
                    <path
                        d="M22.7083 53.8785C22.8475 53.3629 23.1564 53.1853 23.604 53.3061C23.8375 53.3692 24.0332 53.4951 24.167 53.6565L24.8628 52.6648C24.6332 52.394 24.2093 52.1856 23.7812 52.07C22.4774 51.718 21.5499 52.2922 21.232 53.4695L21.1689 53.703L20.3614 53.485L20.0461 54.6525L20.8537 54.8706L19.7871 58.8208L21.3049 59.2307L22.3715 55.2804L23.6753 55.6324L23.9905 54.4649L22.6478 54.1023L22.7083 53.8785Z"
                        fill="#463B32" />
                    <path
                        d="M25.811 55.2459L25.8847 54.5342L24.391 54.3796L23.8327 59.7728L25.3965 59.9347L25.6601 57.3884C25.767 56.3559 26.3872 55.9439 27.2493 56.0331C27.3696 56.0456 27.4688 56.066 27.5981 56.0895L27.7475 54.646C26.9155 54.5598 26.2459 54.7641 25.811 55.2459Z"
                        fill="#463B32" />
                    <path
                        d="M33.7887 56.9501C33.6089 55.2159 32.2757 54.2801 30.6919 54.4443C29.0479 54.6148 27.9354 55.9055 28.1028 57.5194C28.2691 59.1233 29.6037 60.1704 31.4682 59.9771C32.4406 59.8762 33.1612 59.4975 33.6032 58.8742L32.6776 58.0583C32.3431 58.4476 31.9498 58.6606 31.3784 58.7199C30.5564 58.8051 29.9424 58.4533 29.7224 57.7973L33.8023 57.3742C33.7988 57.2429 33.8012 57.0704 33.7887 56.9501ZM30.8245 55.6262C31.5263 55.5534 32.0832 55.9415 32.2642 56.6117L29.6077 56.8872C29.6463 56.184 30.1128 55.7 30.8245 55.6262Z"
                        fill="#463B32" />
                    <path
                        d="M40.026 54.7283C39.4117 53.0966 37.8846 52.53 36.3944 53.091C34.8475 53.6734 34.0993 55.2042 34.671 56.7228C35.2391 58.2319 36.7958 58.9057 38.5502 58.2453C39.4651 57.9009 40.0659 57.3516 40.3351 56.6364L39.2327 56.0823C39.008 56.5438 38.6817 56.8497 38.144 57.0521C37.3706 57.3433 36.6874 57.159 36.308 56.5803L40.1468 55.1351C40.1101 55.0089 40.0686 54.8415 40.026 54.7283ZM36.8228 54.2005C37.483 53.9519 38.1203 54.1858 38.4655 54.7881L35.966 55.7291C35.8248 55.0392 36.1531 54.4526 36.8228 54.2005Z"
                        fill="#463B32" />
                </svg>