<svg width="33" height="43" viewBox="0 0 33 43" fill="none" xmlns="http://www.w3.org/2000/svg">
<path d="M16.5127 43L6.11214 36.1136C2.28399 33.5802 0 29.3262 0 24.7367V1.73772L1.07962 3.12704C2.68831 5.20026 5.11424 6.38742 7.73373 6.38742C9.57469 6.38742 11.321 5.80244 12.7878 4.70131C14.2072 3.63459 15.2696 2.11623 15.7858 0.425826L15.9148 0H16.9557L17.0848 0.425826C17.6009 2.11623 18.6633 3.63459 20.0828 4.70131C21.5495 5.80674 23.2958 6.38742 25.1368 6.38742C27.7563 6.38742 30.1822 5.20026 31.7909 3.12704L32.8705 1.73772V24.7754C32.8705 29.3391 30.6037 33.5802 26.81 36.1179L16.5127 43ZM1.20006 5.04111V24.7367C1.20006 28.9219 3.28189 32.8016 6.77454 35.1114L16.5084 41.5548L26.1347 35.12C29.5929 32.8059 31.6576 28.9391 31.6576 24.7797V5.04111C29.894 6.6756 27.5885 7.59178 25.1282 7.59178C23.0248 7.59178 21.0247 6.92508 19.3472 5.6605C18.0999 4.72282 17.0891 3.47544 16.4224 2.06892C15.7557 3.47544 14.7491 4.71851 13.4975 5.6605C11.82 6.92077 9.82417 7.59178 7.71653 7.59178C5.27339 7.59178 2.9679 6.6756 1.20006 5.04111Z" fill="#D0AF94"/>
<path d="M8.23638 33.0746C5.18676 31.0573 3.36731 27.6679 3.36731 24.0118V12.5273H4.57167V24.0118C4.57167 27.2636 6.18896 30.2745 8.90308 32.0724L8.23638 33.0746Z" fill="#D0AF94"/>
<path d="M18.883 27.9363H13.9795V22.8049H8.84375V17.9014H13.9795V12.7656H18.883V17.8971H24.0144V22.8006H18.883V27.9363ZM15.1839 26.7319H17.6786V21.6005H22.8101V19.1057H17.6786V13.97H15.1839V19.1014H10.0481V21.5962H15.1839V26.7319Z" fill="#D0AF94"/>
</svg>
