<svg width="45" height="45" viewBox="0 0 45 45" fill="none" xmlns="http://www.w3.org/2000/svg">
<path d="M42.2122 24.9288C42.2122 35.5899 32.1077 39.9428 23.1858 39.9428C14.2639 39.9428 7.03127 31.3002 7.03127 20.6391C7.03127 9.97789 17.1358 5.62499 26.0577 5.62499C34.9796 5.62499 42.2122 14.2676 42.2122 24.9288Z" fill="#CC9966" fill-opacity="0.1"/>
<path d="M22.5 4.21875V40.7812" stroke="#D0AF94" stroke-width="2" stroke-miterlimit="10" stroke-linecap="round" stroke-linejoin="round"/>
<path d="M22.5 32.3438C17.0578 32.3438 12.6562 27.9422 12.6562 22.5C12.6562 17.0578 17.0578 12.6562 22.5 12.6562" stroke="#D0AF94" stroke-width="2" stroke-miterlimit="10" stroke-linecap="round" stroke-linejoin="round"/>
<path d="M9.57654 9.57812L12.5578 12.5594" stroke="#D0AF94" stroke-width="2" stroke-miterlimit="10" stroke-linecap="round" stroke-linejoin="round"/>
<path d="M4.21875 22.5H8.4375" stroke="#D0AF94" stroke-width="2" stroke-miterlimit="10" stroke-linecap="round" stroke-linejoin="round"/>
<path d="M9.57654 35.4227L12.5578 32.4414" stroke="#D0AF94" stroke-width="2" stroke-miterlimit="10" stroke-linecap="round" stroke-linejoin="round"/>
<path d="M22.5 17.6484C24.1875 14.6672 27.3938 12.6562 31.0641 12.6562C31.2891 12.6562 31.5 12.6703 31.725 12.6844C29.3766 13.9219 27.7875 16.3828 27.7875 19.2094C27.7875 23.2875 31.0922 26.5922 35.1703 26.5922C37.4203 26.5922 39.4313 25.5797 40.7812 23.9906C40.05 28.7297 35.9859 32.3438 31.0641 32.3438C27.3938 32.3438 24.1875 30.3328 22.5 27.3516" stroke="#D0AF94" stroke-width="2" stroke-miterlimit="10" stroke-linecap="round" stroke-linejoin="round"/>
</svg>
