<svg width="39" height="44" viewBox="0 0 39 44" fill="none" xmlns="http://www.w3.org/2000/svg">
<path d="M38.7544 24.75C38.7544 38.419 27.6235 44 17.7954 44C7.96727 44 0 32.9191 0 19.25C0 5.581 11.1309 0 20.959 0C30.7871 0 38.7544 11.0809 38.7544 24.75Z" fill="#CC9966" fill-opacity="0.1"/>
<path d="M20.5884 4.95129C20.5286 4.54228 19.7475 4.54228 19.69 4.95129C17.7361 18.4714 7.74536 21.2583 7.74536 30.656C7.74536 36.4639 13.4189 41.1704 20.1392 41.1704C26.8572 41.1704 32.5308 36.462 32.5308 30.656C32.5308 21.2583 22.5423 18.4714 20.5884 4.95129ZM18.7009 19.8982C18.5703 20.3148 18.4287 20.7428 18.2826 21.188C17.3953 23.8969 16.3885 26.9692 16.3885 30.521C16.3885 32.4461 15.0653 33.1291 13.8305 33.1291C13.4931 33.1279 13.1594 33.0695 12.8482 32.9573C12.5371 32.8452 12.2547 32.6815 12.0172 32.4755C11.7796 32.2695 11.5916 32.0253 11.4639 31.7569C11.3361 31.4884 11.2711 31.201 11.2725 30.9109C11.2725 26.7124 13.6225 23.9692 15.6981 21.5513C16.3509 20.7942 16.9638 20.077 17.4617 19.3636C17.6896 19.0364 18.3026 19.0516 18.5814 19.375C18.7119 19.5272 18.7562 19.7212 18.7009 19.8982Z" fill="#E6D6C8"/>
</svg>
