<svg width="93" height="78" viewBox="0 0 93 78" fill="none" xmlns="http://www.w3.org/2000/svg">
<g clip-path="url(#clip0_758_1642)">
<path d="M13.1537 51.6934C12.9053 51.6949 12.664 51.6102 12.4711 51.4537C12.2781 51.2972 12.1455 51.0786 12.0957 50.8352C12.0459 50.5918 12.0821 50.3387 12.1981 50.119C12.3142 49.8993 12.5028 49.7267 12.7319 49.6305C12.9609 49.5344 13.2163 49.5207 13.4543 49.5918C13.6924 49.6628 13.8984 49.8143 14.0372 50.0203C14.1761 50.2263 14.2391 50.4741 14.2157 50.7215C14.1923 50.9688 14.0837 51.2003 13.9086 51.3766C13.7086 51.5776 13.4373 51.6915 13.1537 51.6934Z" fill="#463B32"/>
<path d="M79.0717 49.3126C78.8038 49.2192 78.584 49.0234 78.4604 48.768C78.3368 48.5127 78.3197 48.2187 78.4128 47.9507C78.5061 47.6824 78.7021 47.4622 78.9578 47.3385C79.2135 47.2148 79.5078 47.1977 79.7761 47.291C80.044 47.3843 80.2639 47.5801 80.3876 47.8355C80.5113 48.0908 80.5287 48.3847 80.4358 48.6528C80.3627 48.8629 80.2261 49.0451 80.0448 49.1741C79.8636 49.3031 79.6467 49.3725 79.4243 49.3728C79.3042 49.3726 79.1851 49.3523 79.0717 49.3126ZM10.8867 47.5714C10.8022 47.3008 10.8286 47.0078 10.9601 46.7567C11.0916 46.5057 11.3175 46.3171 11.588 46.2326C11.8585 46.1483 12.1514 46.1747 12.4024 46.306C12.6533 46.4374 12.842 46.6629 12.9268 46.9332C13.011 47.2037 12.9845 47.4964 12.8531 47.7474C12.7218 47.9983 12.4964 48.187 12.2262 48.272C12.1224 48.3054 12.014 48.3225 11.9049 48.3226C11.6774 48.3218 11.4561 48.2485 11.273 48.1134C11.0899 47.9784 10.9546 47.7885 10.8867 47.5714ZM80.2201 45.7558C80.0831 45.724 79.9536 45.6655 79.8392 45.5837C79.7248 45.5018 79.6276 45.3982 79.5532 45.2788C79.4788 45.1594 79.4287 45.0265 79.4057 44.8876C79.3826 44.7488 79.3872 44.6069 79.4191 44.4698C79.4838 44.1934 79.6556 43.954 79.8967 43.8041C80.1378 43.6542 80.4285 43.606 80.7051 43.6703C80.9814 43.7348 81.2209 43.9065 81.3708 44.1475C81.5207 44.3884 81.5688 44.6791 81.5046 44.9555C81.4498 45.1907 81.3171 45.4004 81.1281 45.5507C80.9391 45.701 80.7048 45.7829 80.4633 45.7833C80.3815 45.7834 80.2999 45.7742 80.2201 45.7558ZM9.93314 43.8473C9.9055 43.7094 9.9053 43.5674 9.93254 43.4295C9.95979 43.2915 10.014 43.1603 10.0919 43.0433C10.1699 42.9263 10.2702 42.8258 10.387 42.7476C10.5039 42.6693 10.635 42.6149 10.7729 42.5873C10.9107 42.5596 11.0526 42.5593 11.1905 42.5864C11.3283 42.6136 11.4595 42.6677 11.5765 42.7456C11.6935 42.8236 11.7939 42.9238 11.8721 43.0406C11.9503 43.1574 12.0046 43.2885 12.0321 43.4263C12.0877 43.7049 12.0304 43.9942 11.8728 44.2306C11.7152 44.467 11.4702 44.6312 11.1916 44.687C11.122 44.7007 11.0513 44.7074 10.9804 44.7071C10.7335 44.7065 10.4944 44.6205 10.3035 44.4638C10.1127 44.3072 9.98184 44.0894 9.93314 43.8473ZM80.9833 42.0979C80.7022 42.0631 80.4464 41.9183 80.272 41.6953C80.0976 41.4722 80.0187 41.189 80.0528 40.9079C80.0701 40.7683 80.1147 40.6336 80.1841 40.5113C80.2535 40.389 80.3463 40.2815 80.4572 40.1951C80.5682 40.1087 80.695 40.045 80.8306 40.0077C80.9662 39.9703 81.1078 39.96 81.2473 39.9774C81.5284 40.0122 81.7842 40.157 81.9588 40.38C82.1333 40.6031 82.2123 40.8862 82.1785 41.1675C82.1463 41.4263 82.0208 41.6645 81.8255 41.8374C81.6303 42.0103 81.3787 42.1061 81.1179 42.1068C81.0729 42.1068 81.0279 42.1038 80.9833 42.0979ZM9.3768 40.0421C9.35073 39.7595 9.43793 39.4781 9.61922 39.2597C9.80052 39.0413 10.0611 38.9038 10.3437 38.8774C10.6264 38.8513 10.9078 38.9385 11.1262 39.1198C11.3446 39.3011 11.4821 39.5617 11.5085 39.8443C11.5345 40.1269 11.4473 40.4083 11.266 40.6267C11.0847 40.8451 10.8242 40.9826 10.5416 41.009C10.5081 41.009 10.4754 41.0135 10.4411 41.0135C10.1747 41.013 9.918 40.9132 9.72119 40.7336C9.52438 40.5539 9.40159 40.3074 9.3768 40.0421ZM81.3603 38.385C81.2199 38.3823 81.0813 38.3519 80.9526 38.2957C80.8239 38.2394 80.7075 38.1583 80.6101 38.057C80.5127 37.9558 80.4362 37.8363 80.385 37.7055C80.3338 37.5747 80.3089 37.4351 80.3116 37.2946C80.3142 37.1541 80.3445 37.0154 80.4007 36.8866C80.457 36.7578 80.538 36.6413 80.6393 36.5439C80.7406 36.4464 80.86 36.3699 80.9909 36.3186C81.1218 36.2673 81.2615 36.2424 81.402 36.2451C81.5427 36.2478 81.6815 36.2783 81.8105 36.3346C81.9395 36.391 82.056 36.4723 82.1536 36.5738C82.2511 36.6752 82.3277 36.7949 82.3789 36.926C82.4302 37.0571 82.4551 37.197 82.4522 37.3377C82.4466 37.6179 82.3313 37.8846 82.1312 38.0807C81.9311 38.2767 81.6621 38.3865 81.3819 38.3865H81.3603V38.385ZM10.2805 37.2842C9.99688 37.2809 9.7262 37.1651 9.52789 36.9623C9.32958 36.7595 9.21986 36.4864 9.22284 36.2027C9.22429 36.0622 9.25346 35.9233 9.30866 35.794C9.36387 35.6648 9.44402 35.5477 9.54454 35.4494C9.64507 35.3512 9.76398 35.2737 9.89448 35.2215C10.025 35.1693 10.1645 35.1433 10.305 35.1451C10.4456 35.1464 10.5846 35.1754 10.7139 35.2304C10.8432 35.2855 10.9604 35.3656 11.0588 35.4661C11.1571 35.5665 11.2346 35.6854 11.2869 35.8159C11.3392 35.9464 11.3652 36.086 11.3634 36.2265C11.3603 36.5083 11.2461 36.7774 11.0457 36.9754C10.8453 37.1734 10.5749 37.2844 10.2931 37.2842H10.282H10.2805ZM80.1956 33.6761C80.1837 33.536 80.1995 33.3949 80.2421 33.2609C80.2847 33.1269 80.3533 33.0026 80.444 32.8951C80.5347 32.7876 80.6457 32.6991 80.7707 32.6345C80.8956 32.5699 81.032 32.5306 81.1722 32.5188C81.3123 32.5068 81.4533 32.5225 81.5874 32.565C81.7214 32.6076 81.8457 32.6761 81.9532 32.7668C82.0607 32.8574 82.1492 32.9683 82.2138 33.0932C82.2784 33.2181 82.3177 33.3545 82.3295 33.4946C82.3532 33.7779 82.2635 34.0589 82.0801 34.2761C81.8967 34.4932 81.6346 34.6287 81.3514 34.6527C81.3217 34.6527 81.2919 34.6564 81.2622 34.6564C80.9937 34.6565 80.735 34.5558 80.5372 34.3743C80.3395 34.1927 80.217 33.9436 80.1941 33.6761H80.1956ZM10.4047 33.5549C10.1228 33.5219 9.86552 33.3785 9.68917 33.1561C9.51281 32.9338 9.43178 32.6506 9.46382 32.3686C9.49628 32.0866 9.63943 31.829 9.86176 31.6526C10.0841 31.4762 10.3674 31.3953 10.6494 31.4277C10.7892 31.4437 10.9245 31.487 11.0475 31.5553C11.1705 31.6236 11.2789 31.7154 11.3664 31.8256C11.4539 31.9358 11.5188 32.0621 11.5575 32.1974C11.5962 32.3327 11.6078 32.4742 11.5918 32.614C11.5612 32.8748 11.436 33.1152 11.24 33.2899C11.044 33.4645 10.7907 33.5612 10.5282 33.5616C10.4864 33.5616 10.4447 33.5593 10.4032 33.5549H10.4047ZM79.7032 30.0904C79.6495 29.8118 79.7087 29.5232 79.8677 29.2882C80.0267 29.0532 80.2725 28.8909 80.5511 28.8371C80.8301 28.7839 81.1188 28.8437 81.3538 29.0032C81.5888 29.1628 81.7509 29.409 81.8044 29.688C81.8308 29.8262 81.8298 29.9682 81.8013 30.1059C81.7729 30.2437 81.7176 30.3745 81.6385 30.4909C81.5595 30.6073 81.4584 30.7069 81.3408 30.7842C81.2233 30.8615 81.0917 30.9148 80.9535 30.9413C80.8865 30.9537 80.8186 30.96 80.7505 30.9599C80.5019 30.9593 80.2613 30.8722 80.0699 30.7135C79.8785 30.5549 79.7484 30.3345 79.7017 30.0904H79.7032ZM10.9172 29.8561C10.7798 29.8257 10.6498 29.7684 10.5347 29.6876C10.4195 29.6068 10.3215 29.5041 10.2461 29.3853C10.1708 29.2665 10.1197 29.1339 10.0957 28.9953C10.0718 28.8567 10.0754 28.7147 10.1064 28.5775C10.1683 28.3015 10.337 28.0611 10.5757 27.9092C10.8143 27.7573 11.1035 27.7061 11.3798 27.7668C11.6568 27.8291 11.8977 27.9989 12.0496 28.2388C12.2015 28.4787 12.2519 28.7691 12.1898 29.0461C12.1371 29.2832 12.0053 29.4953 11.816 29.6475C11.6268 29.7997 11.3913 29.883 11.1485 29.8836C11.0701 29.8834 10.992 29.8742 10.9157 29.8561H10.9172ZM78.8352 26.5775C78.7944 26.443 78.7805 26.3018 78.7943 26.1619C78.8081 26.0221 78.8494 25.8863 78.9157 25.7624C78.982 25.6384 79.0721 25.5288 79.1808 25.4397C79.2895 25.3506 79.4147 25.2838 79.5492 25.2432C79.6836 25.2022 79.8248 25.1882 79.9646 25.2019C80.1044 25.2155 80.2402 25.2566 80.3641 25.3228C80.4881 25.389 80.5977 25.4789 80.6869 25.5875C80.776 25.6961 80.8428 25.8213 80.8836 25.9557C80.9249 26.0904 80.9393 26.2318 80.9258 26.372C80.9124 26.5122 80.8715 26.6484 80.8054 26.7728C80.7393 26.8971 80.6493 27.0072 80.5406 27.0967C80.4318 27.1863 80.3065 27.2535 80.1718 27.2945C80.0702 27.3248 79.9647 27.3401 79.8587 27.3399C79.6285 27.34 79.4045 27.2659 79.2199 27.1285C79.0352 26.9912 78.8998 26.7979 78.8337 26.5775H78.8352ZM11.8149 26.2324C11.5463 26.141 11.3249 25.9467 11.1994 25.6922C11.0739 25.4377 11.0545 25.1438 11.1455 24.875C11.2368 24.6066 11.4308 24.3854 11.685 24.2599C11.9392 24.1344 12.2328 24.1149 12.5014 24.2056C12.7698 24.2974 12.9909 24.4917 13.1164 24.7461C13.2418 25.0005 13.2614 25.2942 13.1708 25.563C13.0991 25.7752 12.9626 25.9596 12.7807 26.0902C12.5987 26.2209 12.3803 26.2911 12.1563 26.2912C12.0395 26.2906 11.9237 26.2707 11.8134 26.2324H11.8149ZM77.602 23.1762C77.5471 23.0468 77.5183 22.9079 77.5172 22.7673C77.516 22.6267 77.5426 22.4873 77.5954 22.357C77.6482 22.2268 77.7261 22.1082 77.8248 22.008C77.9234 21.9079 78.0408 21.8282 78.1703 21.7735C78.4317 21.6627 78.7263 21.6603 78.9895 21.7667C79.2526 21.8732 79.4628 22.0797 79.5738 22.341C79.6845 22.6024 79.6868 22.8972 79.5802 23.1603C79.4737 23.4235 79.267 23.6336 79.0055 23.7445C78.8738 23.8012 78.7318 23.8303 78.5883 23.83C78.3776 23.8303 78.1715 23.7684 77.9958 23.6521C77.8201 23.5358 77.6826 23.3703 77.6005 23.1762H77.602ZM13.0905 22.724C12.8333 22.6044 12.634 22.3877 12.5364 22.1214C12.4388 21.855 12.4508 21.5609 12.5698 21.3034C12.6886 21.0473 12.9037 20.8484 13.1684 20.7501C13.433 20.6518 13.7258 20.6619 13.983 20.7783C14.241 20.8975 14.4411 21.1142 14.5394 21.3808C14.6377 21.6475 14.6262 21.9422 14.5074 22.2004C14.4216 22.3857 14.2846 22.5426 14.1127 22.6528C13.9408 22.7629 13.7409 22.8217 13.5367 22.8222C13.3826 22.8223 13.2303 22.7888 13.0905 22.724ZM76.0141 19.9252C75.9458 19.8022 75.9024 19.667 75.8864 19.5272C75.8704 19.3875 75.882 19.246 75.9207 19.1107C75.9594 18.9755 76.0243 18.8492 76.1118 18.7391C76.1993 18.6289 76.3076 18.5371 76.4306 18.4688C76.5536 18.4006 76.6889 18.3573 76.8287 18.3414C76.9685 18.3255 77.1101 18.3373 77.2454 18.3761C77.3806 18.4149 77.5069 18.48 77.6169 18.5677C77.727 18.6553 77.8188 18.7638 77.8869 18.8869C78.0238 19.1353 78.0567 19.4279 77.9783 19.7006C77.9 19.9733 77.7168 20.2038 77.4689 20.3417C77.3097 20.4302 77.1304 20.4763 76.9483 20.4756C76.7576 20.4755 76.5704 20.4244 76.4062 20.3276C76.2419 20.2308 76.1065 20.0919 76.0141 19.9252ZM14.7268 19.3681C14.6059 19.2962 14.5004 19.2012 14.4163 19.0886C14.3322 18.9759 14.2711 18.8478 14.2366 18.7115C14.202 18.5752 14.1947 18.4334 14.215 18.2942C14.2353 18.1551 14.2828 18.0213 14.3549 17.9006C14.5003 17.6566 14.7367 17.4804 15.012 17.4106C15.2873 17.3409 15.5791 17.3834 15.8231 17.5287C15.944 17.6006 16.0495 17.6955 16.1336 17.8082C16.2177 17.9209 16.2788 18.049 16.3134 18.1853C16.3479 18.3216 16.3552 18.4634 16.3349 18.6025C16.3146 18.7417 16.2671 18.8754 16.195 18.9962C16.0996 19.1553 15.9645 19.2869 15.803 19.3782C15.6415 19.4695 15.459 19.5172 15.2735 19.5168C15.0811 19.5179 14.8921 19.4665 14.7268 19.3681ZM74.0966 16.8556C74.0157 16.7405 73.9583 16.6106 73.9277 16.4733C73.8971 16.336 73.8939 16.194 73.9183 16.0554C73.9426 15.9169 73.9942 15.7845 74.0698 15.6659C74.1455 15.5473 74.2438 15.4448 74.3592 15.3643C74.5914 15.2023 74.8784 15.1389 75.1572 15.1881C75.4361 15.2373 75.684 15.3951 75.8467 15.6269C75.9277 15.742 75.9851 15.872 76.0157 16.0093C76.0463 16.1467 76.0495 16.2888 76.0251 16.4274C76.0007 16.566 75.9492 16.6984 75.8736 16.8171C75.7979 16.9357 75.6996 17.0383 75.5842 17.1189C75.405 17.2451 75.1912 17.3129 74.972 17.313C74.8003 17.3126 74.6312 17.2709 74.4791 17.1912C74.327 17.1116 74.1963 16.9965 74.0981 16.8556H74.0966ZM16.709 16.2048C16.4815 16.0348 16.3308 15.7814 16.2901 15.5004C16.2493 15.2194 16.3219 14.9336 16.4918 14.7061C16.576 14.5934 16.6816 14.4984 16.8026 14.4265C16.9235 14.3547 17.0574 14.3073 17.1967 14.2872C17.3359 14.2671 17.4778 14.2747 17.6141 14.3094C17.7504 14.3441 17.8786 14.4054 17.9912 14.4896C18.1044 14.5737 18.1999 14.6793 18.2722 14.8004C18.3444 14.9215 18.3921 15.0556 18.4123 15.1952C18.4326 15.3347 18.425 15.4769 18.3902 15.6135C18.3553 15.7502 18.2938 15.8785 18.2092 15.9913C18.1098 16.125 17.9804 16.2334 17.8314 16.308C17.6825 16.3825 17.5181 16.421 17.3516 16.4205C17.1202 16.4198 16.8952 16.3441 16.7104 16.2048H16.709ZM71.8668 14.004C71.6806 13.7897 71.5871 13.5103 71.6069 13.2271C71.6267 12.944 71.7582 12.6803 71.9724 12.4941C72.0784 12.4017 72.2016 12.3311 72.3349 12.2864C72.4682 12.2417 72.609 12.2238 72.7492 12.2336C72.8895 12.2434 73.0264 12.2808 73.1522 12.3436C73.278 12.4064 73.3902 12.4935 73.4823 12.5997C73.5746 12.7057 73.6451 12.8288 73.6898 12.9621C73.7345 13.0954 73.7525 13.2361 73.7428 13.3764C73.733 13.5166 73.6958 13.6535 73.6331 13.7793C73.5704 13.9051 73.4835 14.0174 73.3774 14.1096C73.1828 14.2796 72.9329 14.3729 72.6745 14.3721C72.5216 14.3719 72.3705 14.339 72.2314 14.2755C72.0924 14.212 71.9685 14.1194 71.8683 14.004H71.8668ZM19.011 13.2646C18.9079 13.169 18.8247 13.054 18.766 12.9263C18.7074 12.7985 18.6745 12.6604 18.6693 12.5199C18.664 12.3794 18.6865 12.2393 18.7354 12.1075C18.7844 11.9757 18.8588 11.8548 18.9544 11.7518C19.0498 11.6486 19.1645 11.5652 19.2921 11.5064C19.4196 11.4476 19.5576 11.4146 19.6979 11.4091C19.8383 11.4037 19.9784 11.4259 20.1101 11.4746C20.2419 11.5234 20.3627 11.5976 20.4658 11.693C20.5691 11.7885 20.6526 11.9034 20.7115 12.0312C20.7704 12.1589 20.8035 12.2971 20.809 12.4376C20.8144 12.5782 20.7921 12.7185 20.7433 12.8504C20.6945 12.9824 20.6202 13.1034 20.5245 13.2066C20.4246 13.315 20.3032 13.4015 20.1682 13.4606C20.0331 13.5198 19.8873 13.5503 19.7399 13.5502C19.4695 13.5506 19.2091 13.4485 19.011 13.2646ZM69.355 11.4007C69.252 11.3049 69.1689 11.1897 69.1105 11.0617C69.0521 10.9337 69.0195 10.7955 69.0146 10.6549C69.0097 10.5143 69.0326 10.3741 69.0819 10.2424C69.1313 10.1106 69.2061 9.98991 69.3022 9.88714C69.4959 9.67968 69.7641 9.55759 70.0477 9.54769C70.3314 9.53778 70.6074 9.64088 70.8151 9.83433C71.0224 10.0283 71.1444 10.2965 71.1543 10.5802C71.1642 10.8639 71.0612 11.14 70.8679 11.3479C70.7675 11.4553 70.6461 11.5408 70.5112 11.5993C70.3764 11.6578 70.2309 11.6879 70.0839 11.6878C69.8132 11.6886 69.5525 11.5859 69.355 11.4007ZM21.6045 10.5826C21.5119 10.4769 21.441 10.3539 21.396 10.2208C21.3509 10.0877 21.3325 9.94705 21.3418 9.80683C21.3511 9.66661 21.388 9.5296 21.4503 9.40364C21.5126 9.27767 21.5991 9.16522 21.7049 9.07271C21.9182 8.88561 22.197 8.79085 22.4802 8.80926C22.7633 8.82767 23.0275 8.95774 23.2148 9.17088C23.402 9.38454 23.4968 9.66375 23.4784 9.94724C23.46 10.2307 23.3299 10.4953 23.1166 10.683C22.9216 10.8541 22.6709 10.9482 22.4115 10.9478C22.2591 10.9477 22.1084 10.9149 21.9697 10.8516C21.831 10.7884 21.7075 10.6961 21.6075 10.5811L21.6045 10.5826ZM66.5815 9.07419C66.3551 8.90284 66.2058 8.64868 66.1665 8.36745C66.1272 8.08622 66.201 7.80088 66.3717 7.57399C66.5432 7.34772 66.7974 7.19861 67.0785 7.1593C67.3597 7.11999 67.645 7.19368 67.8719 7.36425C68.0982 7.53572 68.2473 7.78986 68.2866 8.07103C68.3259 8.3522 68.2522 8.63749 68.0817 8.86445C67.9817 8.99668 67.8525 9.10392 67.704 9.17774C67.5556 9.25156 67.3921 9.28995 67.2263 9.28989C66.9936 9.29021 66.7672 9.21447 66.5815 9.07419ZM24.4703 8.18166C24.308 7.95018 24.2438 7.66397 24.2916 7.38536C24.3394 7.10675 24.4953 6.8583 24.7254 6.6941C24.8401 6.61288 24.9697 6.55509 25.1068 6.52402C25.2439 6.49296 25.3857 6.48924 25.5243 6.51307C25.6628 6.53691 25.7952 6.58783 25.9141 6.66293C26.0329 6.73802 26.1357 6.83582 26.2167 6.95071C26.298 7.06539 26.3559 7.19498 26.3871 7.33206C26.4183 7.46915 26.4221 7.61103 26.3984 7.74961C26.3747 7.88818 26.324 8.02073 26.249 8.13966C26.174 8.25859 26.0764 8.36158 25.9616 8.44273C25.7812 8.57019 25.5658 8.63877 25.345 8.63908C25.1732 8.63839 25.0041 8.59649 24.8519 8.51689C24.6997 8.43729 24.5688 8.32233 24.4703 8.18166ZM63.5848 7.04442C63.3429 6.89756 63.169 6.66102 63.1008 6.38639C63.0327 6.11175 63.0759 5.82132 63.2211 5.57844C63.3676 5.33556 63.6044 5.16072 63.8797 5.09225C64.1549 5.02379 64.4461 5.0673 64.6893 5.21324C64.9323 5.3596 65.1073 5.59646 65.1758 5.87176C65.2443 6.14707 65.2007 6.4383 65.0545 6.68146C64.9596 6.84035 64.825 6.97186 64.664 7.06313C64.503 7.1544 64.321 7.20228 64.1359 7.20211C63.9409 7.20179 63.7495 7.1483 63.5826 7.0474L63.5848 7.04442ZM27.5644 6.09908C27.4262 5.85121 27.392 5.55869 27.4691 5.28559C27.5462 5.01249 27.7283 4.78107 27.9757 4.64202C28.2235 4.50368 28.5161 4.46929 28.7893 4.5464C29.0624 4.6235 29.2939 4.80581 29.4328 5.05333C29.5713 5.30112 29.6058 5.59378 29.5287 5.86699C29.4516 6.14021 29.2691 6.37162 29.0215 6.51039C28.8625 6.59996 28.6832 6.6471 28.5008 6.64725C28.3101 6.64755 28.1227 6.59689 27.958 6.50052C27.7934 6.40415 27.6575 6.26556 27.5644 6.09908ZM60.3866 5.34861C60.2589 5.2894 60.1442 5.20563 60.0489 5.10207C59.9537 4.99851 59.8798 4.87719 59.8314 4.74506C59.7831 4.61293 59.7612 4.47256 59.7672 4.33198C59.7731 4.1914 59.8066 4.05337 59.8659 3.92576C59.9251 3.79813 60.0089 3.6834 60.1125 3.58815C60.216 3.4929 60.3373 3.41899 60.4695 3.37064C60.6016 3.32229 60.742 3.30045 60.8825 3.30637C61.0231 3.31228 61.1612 3.34584 61.2888 3.40512C61.5464 3.52485 61.746 3.74197 61.8436 4.00878C61.9412 4.27558 61.9289 4.57023 61.8094 4.82797C61.7231 5.0129 61.5857 5.16933 61.4135 5.27883C61.2413 5.38833 61.0414 5.44635 60.8373 5.44605C60.6816 5.44665 60.5277 5.41287 60.3866 5.34712V5.34861ZM30.8586 4.34972C30.803 4.22066 30.7735 4.08191 30.7716 3.94141C30.7697 3.80092 30.7956 3.66143 30.8477 3.53094C30.8997 3.40044 30.9771 3.28149 31.0752 3.1809C31.1733 3.08031 31.2902 3.00006 31.4194 2.94472C31.6803 2.83303 31.9748 2.82952 32.2383 2.93496C32.5018 3.04041 32.7126 3.24618 32.8244 3.50702C32.9358 3.76706 32.9395 4.06066 32.8348 4.32346C32.7301 4.58627 32.5255 4.79684 32.2658 4.90904C32.1329 4.96644 31.9896 4.99605 31.8448 4.99606C31.6356 4.99604 31.4309 4.93466 31.2561 4.81952C31.0813 4.70437 30.9442 4.54052 30.8616 4.34823L30.8586 4.34972ZM57.0269 3.99568C56.8936 3.95043 56.7704 3.87932 56.6646 3.78643C56.5588 3.69353 56.4723 3.58068 56.4101 3.45432C56.3479 3.32797 56.3113 3.19059 56.3022 3.05005C56.2932 2.90951 56.312 2.76858 56.3575 2.63531C56.403 2.50218 56.4743 2.37933 56.5673 2.27381C56.6603 2.16829 56.7733 2.08217 56.8997 2.0204C57.026 1.95862 57.1634 1.9224 57.3038 1.91382C57.4442 1.90523 57.5849 1.92445 57.7179 1.97037C57.8508 2.01583 57.9735 2.08706 58.0789 2.17999C58.1843 2.27292 58.2704 2.38572 58.3321 2.51193C58.3939 2.63815 58.4302 2.7753 58.4389 2.91555C58.4476 3.05579 58.4285 3.19638 58.3828 3.32925C58.3106 3.54022 58.1743 3.72337 57.993 3.85311C57.8116 3.98286 57.5943 4.05272 57.3713 4.05295C57.2551 4.05168 57.1398 4.03185 57.0299 3.99419L57.0269 3.99568ZM34.3216 2.95439C34.2801 2.81999 34.2655 2.67873 34.2786 2.53869C34.2918 2.39864 34.3324 2.26256 34.3981 2.13822C34.4639 2.01388 34.5535 1.90372 34.6619 1.81405C34.7703 1.72437 34.8952 1.65693 35.0297 1.61559C35.3008 1.5321 35.594 1.55951 35.845 1.69182C36.0959 1.82413 36.2842 2.05055 36.3685 2.32144C36.4517 2.59287 36.4239 2.88621 36.2911 3.13717C36.1584 3.38813 35.9316 3.57623 35.6604 3.66024C35.5583 3.69208 35.452 3.70838 35.3451 3.70858C35.1169 3.70795 34.8949 3.63454 34.7114 3.49903C34.5279 3.36352 34.3923 3.17298 34.3246 2.95513L34.3216 2.95439ZM53.5468 3.00125C53.4097 2.97008 53.2801 2.9122 53.1654 2.83091C53.0507 2.74961 52.9532 2.64651 52.8783 2.52748C52.8035 2.40846 52.7529 2.27585 52.7294 2.13725C52.7059 1.99864 52.7099 1.85676 52.7413 1.71972C52.8046 1.4429 52.9752 1.20254 53.2156 1.05149C53.4561 0.900443 53.7467 0.851062 54.0235 0.914209C54.1606 0.945539 54.2901 1.00356 54.4047 1.08497C54.5194 1.16637 54.6168 1.26955 54.6916 1.38863C54.7663 1.50771 54.8168 1.64034 54.8403 1.77895C54.8638 1.91757 54.8597 2.05944 54.8283 2.19648C54.7746 2.43253 54.6423 2.64333 54.4531 2.7944C54.264 2.94546 54.0291 3.02783 53.787 3.02802C53.708 3.02822 53.6291 3.01948 53.552 3.00199L53.5468 3.00125ZM37.9156 1.93393C37.8885 1.79601 37.8889 1.65411 37.9168 1.51635C37.9446 1.37859 37.9993 1.24766 38.0778 1.13106C38.1563 1.01446 38.257 0.914473 38.3741 0.836807C38.4912 0.759141 38.6225 0.705324 38.7605 0.678431C39.0391 0.624298 39.3278 0.68306 39.5631 0.841792C39.7985 1.00052 39.9611 1.24622 40.0152 1.52485C40.0423 1.66282 40.0419 1.80476 40.014 1.94257C39.9862 2.08038 39.9315 2.21135 39.853 2.32801C39.7746 2.44467 39.6739 2.54473 39.5567 2.62247C39.4396 2.70021 39.3083 2.75411 39.1703 2.78109C39.102 2.79449 39.0324 2.80097 38.9628 2.80043C38.7148 2.79977 38.4748 2.71298 38.2838 2.55493C38.0928 2.39687 37.9626 2.17736 37.9156 1.93393ZM49.9841 2.38019C49.7025 2.34594 49.4459 2.20145 49.2707 1.97838C49.0954 1.75531 49.0158 1.47186 49.0492 1.19015C49.0658 1.05057 49.1099 0.915636 49.1787 0.793066C49.2475 0.670496 49.3399 0.562689 49.4504 0.4758C49.5609 0.388912 49.6874 0.324645 49.8228 0.28667C49.9581 0.248695 50.0996 0.237756 50.2392 0.254478C50.521 0.288354 50.7777 0.43275 50.9531 0.655916C51.1284 0.879081 51.2079 1.16274 51.1741 1.44452C51.1434 1.70447 51.0183 1.94411 50.8227 2.11806C50.6271 2.29201 50.3745 2.38819 50.1128 2.38838C50.0691 2.38912 50.0254 2.38763 49.9819 2.38391L49.9841 2.38019ZM41.5935 1.30023C41.5688 1.01749 41.6572 0.736488 41.8395 0.518934C42.0218 0.30138 42.2829 0.165067 42.5656 0.139936C42.706 0.12759 42.8473 0.143058 42.9816 0.185454C43.1159 0.22785 43.2406 0.296339 43.3484 0.386995C43.4562 0.477652 43.545 0.588692 43.6098 0.713751C43.6746 0.83881 43.7141 0.975428 43.7259 1.11577C43.7386 1.25579 43.7235 1.39693 43.6815 1.5311C43.6395 1.66526 43.5714 1.78982 43.4812 1.89762C43.3909 2.00541 43.2803 2.09434 43.1556 2.15928C43.0309 2.22422 42.8946 2.26391 42.7546 2.27607C42.7233 2.27904 42.6913 2.28053 42.6586 2.28053C42.3906 2.28 42.1326 2.17903 41.9354 1.99755C41.7382 1.81606 41.6162 1.56725 41.5935 1.30023ZM46.3723 2.14144C46.0883 2.13655 45.8178 2.01927 45.6201 1.8153C45.4224 1.61134 45.3136 1.33732 45.3176 1.0533C45.3227 0.769614 45.44 0.499506 45.6438 0.302113C45.8476 0.10472 46.1213 -0.0038751 46.405 0.000105706C46.5456 0.00214078 46.6844 0.0318755 46.8135 0.0876085C46.9426 0.143341 47.0594 0.223979 47.1573 0.324908C47.2552 0.425837 47.3322 0.545076 47.384 0.675803C47.4357 0.806531 47.4612 0.946181 47.459 1.08676C47.4551 1.36771 47.3407 1.63584 47.1408 1.83319C46.9408 2.03055 46.6711 2.14127 46.3902 2.14144H46.3723Z" fill="#463B32"/>
<path d="M77.9925 52.8662C77.7445 52.8665 77.5041 52.7808 77.3122 52.6237C77.1203 52.4666 76.9888 52.2478 76.9402 52.0045C76.8916 51.7613 76.9288 51.5088 77.0455 51.29C77.1623 51.0711 77.3513 50.8996 77.5804 50.8045C77.8095 50.7094 78.0644 50.6968 78.3018 50.7687C78.5392 50.8406 78.7443 50.9925 78.8821 51.1987C79.02 51.4049 79.082 51.6525 79.0578 51.8994C79.0335 52.1462 78.9243 52.377 78.7489 52.5523C78.5477 52.752 78.2761 52.8647 77.9925 52.8662Z" fill="#463B32"/>
<path d="M37.9512 21.9C37.7387 21.8993 37.534 21.8196 37.3768 21.6766C37.2196 21.5336 37.121 21.3373 37.1002 21.1258C37.0794 20.9143 37.1377 20.7026 37.2641 20.5316C37.3904 20.3607 37.5756 20.2427 37.7839 20.2005C38.1982 20.1164 38.6385 20.0421 39.0647 19.9707C40.0145 19.8115 40.9985 19.6464 41.7757 19.3608C43.0752 18.8851 44.3449 18.3318 45.5779 17.7036C46.9123 17.0223 47.8926 16.2161 48.7554 15.1004C48.9837 14.8029 49.2016 14.5017 49.4248 14.1818C49.5735 13.9766 49.7223 13.7705 49.871 13.5675L49.9506 13.4381C49.3028 13.3964 48.6862 13.4001 48.0912 13.4031C47.8844 13.4031 47.6784 13.4031 47.4731 13.4031C46.2224 13.389 44.9744 13.5206 43.7542 13.7951C41.8948 14.225 39.319 15.1934 37.6061 17.3652C36.5358 18.7226 34.9345 20.3232 33.3666 20.2288C33.1492 20.203 32.9499 20.0952 32.8093 19.9273C32.6688 19.7595 32.5977 19.5443 32.6107 19.3257C32.6236 19.1072 32.7195 18.9019 32.8788 18.7517C33.0382 18.6016 33.2488 18.518 33.4677 18.5181C34.0724 18.5545 35.1725 17.6858 36.2606 16.3053C37.8583 14.2823 40.3165 12.8319 43.3667 12.1253C44.7161 11.8219 46.096 11.6757 47.479 11.6894C47.6806 11.6894 47.8814 11.6894 48.083 11.6894C49.1421 11.6835 50.2399 11.6775 51.5363 11.8955C51.6865 11.9206 51.8273 11.9853 51.9443 12.0829C52.0612 12.1804 52.1501 12.3073 52.2018 12.4505C52.2535 12.5938 52.2662 12.7482 52.2385 12.898C52.2108 13.0477 52.1438 13.1874 52.0443 13.3027C51.97 13.4202 51.7617 13.7631 51.6353 13.9721C51.401 14.3641 51.3199 14.4979 51.2634 14.5775C51.1146 14.7776 50.9718 14.9792 50.8268 15.1815C50.6036 15.4991 50.3642 15.8271 50.1172 16.1484C49.0908 17.479 47.932 18.4296 46.3611 19.2321C45.0653 19.8938 43.7305 20.4763 42.3641 20.9763C41.4366 21.3154 40.3745 21.4969 39.3473 21.6665C38.9159 21.7409 38.5083 21.8078 38.1231 21.8859C38.0664 21.8964 38.0088 21.9011 37.9512 21.9ZM51.7967 13.4998C51.7444 13.5277 51.6893 13.5499 51.6323 13.566C51.6894 13.5502 51.7445 13.528 51.7967 13.4998Z" fill="#463B32"/>
<path d="M37.9513 21.97C37.7835 21.9697 37.6191 21.924 37.4752 21.8378C37.3314 21.7515 37.2135 21.628 37.1342 21.4803C37.0548 21.3325 37.0169 21.1661 37.0244 20.9985C37.032 20.831 37.0847 20.6686 37.177 20.5286C37.2442 20.4266 37.331 20.3389 37.4324 20.2707C37.5338 20.2025 37.6477 20.1552 37.7675 20.1314C38.1811 20.0474 38.6214 19.973 39.0468 19.9016C39.9996 19.7417 40.9807 19.5773 41.749 19.2947C43.0455 18.8212 44.3122 18.2698 45.5422 17.6435C46.8669 16.9674 47.839 16.1708 48.6959 15.0603C48.919 14.768 49.1347 14.4705 49.3601 14.1552C49.5148 13.9387 49.6628 13.7327 49.813 13.5289C49.8167 13.523 49.8219 13.5155 49.8271 13.5058C49.3705 13.4798 48.9413 13.4768 48.5776 13.4768C48.4184 13.4768 48.2608 13.4768 48.1038 13.4768H47.5713H47.3585C46.1502 13.4708 44.945 13.6015 43.7661 13.8666C41.9186 14.2943 39.3585 15.256 37.6589 17.4137C36.6177 18.7339 35.0505 20.3077 33.4938 20.3084C33.4484 20.3084 33.4023 20.3084 33.3562 20.304C33.1098 20.2889 32.8795 20.1765 32.716 19.9917C32.5524 19.8068 32.469 19.5645 32.4841 19.3181C32.4992 19.0717 32.6115 18.8414 32.7964 18.6779C32.9813 18.5143 33.2236 18.4309 33.47 18.446H33.5042C34.0992 18.446 35.1554 17.5884 36.2034 16.2601C37.8129 14.2169 40.2852 12.7643 43.3518 12.0525C44.6753 11.7551 46.0281 11.6084 47.3846 11.6152H47.5787H48.083C48.257 11.6152 48.4318 11.6152 48.6036 11.6152C49.5886 11.6006 50.573 11.6705 51.546 11.8242C51.7088 11.8514 51.8614 11.9214 51.9882 12.0271C52.1149 12.1328 52.2113 12.2703 52.2673 12.4255C52.3233 12.5807 52.337 12.7481 52.307 12.9104C52.277 13.0727 52.2043 13.224 52.0964 13.3489C52.0287 13.4516 51.8458 13.7565 51.6948 14.0109C51.4583 14.4058 51.3772 14.5404 51.3169 14.6223C51.1816 14.8052 51.0499 14.9889 50.9175 15.1734L50.8803 15.2255C50.6572 15.5423 50.4185 15.8703 50.1693 16.1924C49.1362 17.5312 47.9707 18.4884 46.3887 19.2962C45.0907 19.9563 43.7542 20.5378 42.3864 21.0373C41.453 21.3795 40.3864 21.558 39.3562 21.7313H39.3399C38.9152 21.8057 38.5143 21.8696 38.135 21.947C38.0746 21.9604 38.0131 21.9681 37.9513 21.97ZM48.5806 13.3311C48.9778 13.3311 49.4523 13.3355 49.9581 13.3682C49.9702 13.3693 49.9819 13.3733 49.9922 13.3799C50.0024 13.3865 50.0109 13.3955 50.0168 13.4062C50.0225 13.4169 50.0255 13.4289 50.0255 13.4411C50.0255 13.4533 50.0225 13.4653 50.0168 13.4761C49.9804 13.5363 49.9506 13.5847 49.935 13.6077C49.7862 13.8145 49.6375 14.0198 49.4887 14.2251C49.2544 14.5523 49.0425 14.8513 48.8126 15.1451C47.9432 16.2734 46.9532 17.0827 45.6144 17.7684C44.3775 18.3974 43.1038 18.9513 41.8003 19.4271C41.0164 19.7142 40.0316 19.8793 39.0788 20.0392C38.6482 20.1136 38.2093 20.188 37.798 20.269C37.6068 20.3077 37.4368 20.416 37.3209 20.573C37.2051 20.7299 37.1516 20.9243 37.171 21.1184C37.1904 21.3126 37.2812 21.4926 37.4257 21.6235C37.5703 21.7545 37.7584 21.8271 37.9535 21.8272C38.0062 21.8272 38.0588 21.822 38.1104 21.8116C38.4927 21.7335 38.8951 21.6666 39.3205 21.5952H39.3377C40.3611 21.4226 41.4202 21.2449 42.3418 20.9079C43.7043 20.4104 45.0356 19.8312 46.3284 19.1734C47.8904 18.3761 49.0417 17.4308 50.0607 16.1098C50.3084 15.787 50.5427 15.4605 50.7695 15.1429L50.806 15.0908C50.9383 14.9064 51.0707 14.719 51.2061 14.5382C51.2626 14.4638 51.343 14.3285 51.578 13.9387C51.6464 13.8234 51.7208 13.6985 51.79 13.5854L51.7766 13.5914C51.7382 13.6083 51.6987 13.6228 51.6583 13.6345C51.6421 13.6346 51.6264 13.6293 51.6134 13.6196C51.6005 13.6099 51.591 13.5962 51.5866 13.5806C51.5821 13.5651 51.5829 13.5485 51.5887 13.5334C51.5945 13.5182 51.6051 13.5055 51.6189 13.4969C51.6534 13.487 51.6872 13.4748 51.7201 13.4605L51.7684 13.4374C51.7849 13.4295 51.8037 13.4279 51.8213 13.433C51.8388 13.4381 51.8539 13.4495 51.8636 13.4649C51.9172 13.3787 51.9618 13.3065 51.9901 13.2634C52.1259 13.1082 52.1961 12.9063 52.1857 12.7003C52.1769 12.5213 52.1071 12.3506 51.9877 12.2169C51.8683 12.0831 51.7066 11.9944 51.5297 11.9655C50.5645 11.8135 49.588 11.7443 48.6111 11.7587C48.4355 11.7587 48.2615 11.7587 48.0904 11.7587H47.5839H47.3898C46.0419 11.7532 44.6977 11.9007 43.3831 12.1983C40.3477 12.9004 37.9036 14.3374 36.3172 16.3553C35.2015 17.7684 34.1029 18.6335 33.464 18.594H33.4187C33.2142 18.5942 33.0179 18.674 32.8712 18.8164C32.7245 18.9589 32.6391 19.1528 32.6329 19.3571C32.6267 19.5615 32.7003 19.7602 32.8381 19.9113C32.9758 20.0623 33.167 20.1538 33.3711 20.1664C33.4149 20.1664 33.4573 20.1708 33.5005 20.1708C34.9992 20.1708 36.5306 18.626 37.5526 17.3304C39.2782 15.1407 41.8665 14.1656 43.7401 13.7327C44.9295 13.4653 46.1454 13.3333 47.3645 13.3392H47.5772H48.0979L48.5806 13.3311Z" fill="#463B32"/>
<path d="M28.7797 29.2641C27.6533 29.2543 26.5409 29.013 25.5116 28.5553C24.4123 28.0681 23.7124 27.3325 23.1702 26.0964C22.4911 24.5463 23.4089 23.4932 24.0783 22.7256C24.2062 22.5768 24.3394 22.4281 24.4621 22.2726C24.7425 21.9371 25.0494 21.6247 25.3799 21.3384C25.6298 21.1205 25.8648 20.8862 26.0835 20.637C26.2578 20.4163 26.4187 20.1853 26.5655 19.9453C26.7677 19.6131 26.9947 19.2966 27.2446 18.9985C27.8197 18.3293 28.5885 17.8552 29.4447 17.6419C29.8746 17.5362 30.2911 17.5623 30.6585 17.5853C30.9411 17.6032 31.2335 17.621 31.3852 17.5593C32.4659 17.1197 33.3369 15.984 34.1796 14.8854C34.5217 14.4391 34.8445 14.0189 35.1866 13.6329C36.5515 12.0962 38.4057 10.9003 40.698 10.0784C42.003 9.62117 43.3561 9.31497 44.7308 9.16576C44.9339 9.1427 45.1376 9.11741 45.3429 9.09138C46.4125 8.95899 47.517 8.82288 48.7911 8.89503C48.9427 8.90358 49.0893 8.95219 49.216 9.03591C49.3426 9.11962 49.4448 9.23544 49.5121 9.37155C49.5794 9.50766 49.6094 9.65919 49.599 9.81067C49.5887 9.96215 49.5383 10.1082 49.453 10.2338C49.3898 10.3588 49.2299 10.7195 49.1288 10.9419C48.9391 11.3651 48.8729 11.5094 48.8231 11.5972C48.7011 11.8099 48.5813 12.0263 48.4623 12.2435L48.2392 12.6422C48.1842 12.7406 48.1103 12.8272 48.0218 12.897C47.9333 12.9669 47.8319 13.0186 47.7234 13.0493C47.6149 13.08 47.5014 13.089 47.3894 13.0758C47.2774 13.0626 47.1691 13.0275 47.0707 12.9724C46.9723 12.9174 46.8857 12.8435 46.8159 12.755C46.746 12.6665 46.6943 12.5651 46.6636 12.4566C46.6329 12.3481 46.6239 12.2346 46.6371 12.1226C46.6503 12.0106 46.6854 11.9023 46.7405 11.8039L46.9569 11.4135C47.0789 11.1903 47.2009 10.9709 47.3288 10.7515C47.3415 10.727 47.3653 10.6771 47.3943 10.6117C46.7598 10.6466 46.1507 10.7217 45.5534 10.7954C45.3429 10.8214 45.1339 10.8474 44.9264 10.8698C43.6833 11.0046 42.4598 11.2813 41.2797 11.6946C39.2618 12.4183 37.6441 13.4536 36.4734 14.7724C36.1714 15.1123 35.8665 15.5094 35.5444 15.9297C34.608 17.151 33.5466 18.5329 32.0338 19.1495C31.5198 19.3585 31.0066 19.3265 30.5544 19.2982C30.2851 19.2819 30.0337 19.2663 29.8552 19.3094C29.3427 19.4392 28.8832 19.7251 28.5402 20.1276C28.3466 20.3625 28.1701 20.6111 28.0122 20.8713C27.8285 21.1701 27.6266 21.4573 27.4075 21.7311C27.1392 22.0424 26.8491 22.3342 26.5395 22.6043C26.2763 22.832 26.0307 23.0791 25.8046 23.3437C25.6596 23.5251 25.5145 23.691 25.374 23.8524C24.6681 24.6631 24.5246 24.9034 24.7455 25.4061C25.1174 26.2466 25.5108 26.6706 26.2085 26.9844C27.6455 27.6211 29.8679 27.9246 31.4023 26.6869L31.4372 26.6587C31.5449 26.5675 31.6609 26.4868 31.7839 26.4177C31.9822 26.3058 32.2169 26.2774 32.4362 26.3385C32.6555 26.3997 32.8416 26.5455 32.9534 26.7438C33.0653 26.9422 33.0938 27.1768 33.0326 27.3962C32.9714 27.6155 32.8256 27.8016 32.6273 27.9134C32.5885 27.9339 32.5523 27.9588 32.5194 27.9878L32.4808 28.019C31.3673 28.9205 30.0583 29.2641 28.7797 29.2641ZM49.2336 10.457C49.1841 10.4912 49.1313 10.5203 49.076 10.544C49.1312 10.5202 49.184 10.491 49.2336 10.457Z" fill="#463B32"/>
<path d="M28.7797 29.3335C27.6436 29.3223 26.5218 29.0788 25.4833 28.618C24.3676 28.1234 23.6558 27.3774 23.1032 26.1234C22.4063 24.5317 23.3405 23.4592 24.0225 22.6767L24.0433 22.6529C24.1646 22.5138 24.2895 22.3703 24.4048 22.226C24.6875 21.8876 24.9969 21.5725 25.3301 21.2836C25.5776 21.0684 25.8102 20.8365 26.0262 20.5897C26.1989 20.3717 26.3581 20.1434 26.503 19.9061C26.7076 19.5706 26.9371 19.2508 27.1895 18.9496C27.7738 18.2689 28.5554 17.7869 29.4261 17.5707C29.6639 17.5151 29.9077 17.4886 30.152 17.4918C30.3305 17.4918 30.506 17.5022 30.6615 17.5119C30.7931 17.5201 30.9292 17.529 31.0497 17.529C31.1536 17.5346 31.2576 17.5218 31.3569 17.4911C32.419 17.0597 33.284 15.9291 34.1208 14.8417C34.4674 14.3888 34.7902 13.9693 35.1323 13.5833C36.5046 12.0377 38.3685 10.8313 40.672 10.0094C41.9823 9.55028 43.3408 9.24259 44.7211 9.09234C44.9227 9.07003 45.1242 9.04474 45.328 9.01796C46.1953 8.91086 47.0871 8.80078 48.0726 8.80078C48.3143 8.80078 48.5575 8.80747 48.7933 8.82086C48.9574 8.83029 49.116 8.88301 49.2531 8.97366C49.3902 9.06431 49.5008 9.18965 49.5738 9.33693C49.6467 9.48422 49.6793 9.64819 49.6683 9.81217C49.6573 9.97615 49.603 10.1343 49.511 10.2705C49.4567 10.3783 49.3117 10.7004 49.192 10.9681C49.0038 11.3869 48.9361 11.5364 48.8833 11.6294C48.7613 11.8413 48.6423 12.0578 48.5226 12.2742C48.4482 12.4074 48.3738 12.5405 48.2994 12.6729C48.2404 12.7806 48.1607 12.8755 48.0649 12.9522C47.969 13.0289 47.8589 13.0859 47.7409 13.1198C47.6229 13.1537 47.4993 13.1639 47.3774 13.1499C47.2554 13.1358 47.1374 13.0977 47.0303 13.0378C46.9231 12.9778 46.8289 12.8973 46.753 12.8008C46.6771 12.7042 46.6212 12.5936 46.5883 12.4753C46.5554 12.3571 46.5462 12.2334 46.5614 12.1116C46.5765 11.9897 46.6156 11.8721 46.6765 11.7655C46.7509 11.6361 46.8253 11.5059 46.8929 11.3757C47.0149 11.1526 47.1369 10.9295 47.2648 10.713C47.2696 10.7044 47.2738 10.6954 47.2775 10.6863C46.6862 10.7234 46.1149 10.7941 45.5608 10.8625L45.5169 10.8685C45.3213 10.8923 45.1272 10.9161 44.9331 10.9384C43.6947 11.0716 42.4757 11.3461 41.2997 11.7566C39.2915 12.4758 37.6857 13.5052 36.5224 14.815C36.2249 15.1541 35.9185 15.5498 35.5972 15.9686C34.66 17.2003 33.5897 18.5926 32.0568 19.2137C31.7369 19.3377 31.3957 19.3971 31.0527 19.3885C30.8764 19.3885 30.7083 19.378 30.5462 19.3676C30.2591 19.3505 30.0099 19.3416 29.8679 19.3766C29.37 19.5033 28.9237 19.781 28.5901 20.1717C28.3994 20.4048 28.2254 20.6511 28.0694 20.9087C27.8844 21.2104 27.6804 21.5001 27.4588 21.776C27.191 22.087 26.9017 22.3788 26.593 22.6492C26.3295 22.8764 26.0836 23.1233 25.8574 23.3878C25.7087 23.5752 25.5599 23.747 25.4253 23.898C24.7321 24.6938 24.6027 24.9088 24.8072 25.3766C25.1679 26.1992 25.5547 26.6165 26.2352 26.9185C27.0339 27.2722 27.8966 27.4587 28.77 27.4666C29.7972 27.4666 30.6667 27.1847 31.3547 26.6291L31.3889 26.6016C31.4996 26.5076 31.6191 26.4247 31.7459 26.3539C31.9605 26.2345 32.2136 26.2048 32.4501 26.2714C32.6865 26.338 32.8869 26.4954 33.0077 26.7093C33.1284 26.9231 33.1596 27.1761 33.0945 27.4129C33.0293 27.6497 32.8731 27.8511 32.66 27.9731C32.6241 27.9935 32.5911 28.0185 32.5618 28.0475L32.5224 28.0788C31.5057 28.8984 30.2107 29.3335 28.7797 29.3335ZM30.1542 17.6339C29.9215 17.6302 29.6892 17.6552 29.4625 17.7083C28.6195 17.9179 27.8626 18.3844 27.2966 19.0433C27.0508 19.3394 26.827 19.6531 26.6272 19.982C26.4791 20.2246 26.3164 20.4581 26.14 20.6811C25.9206 20.9325 25.684 21.1684 25.432 21.387C25.1037 21.6715 24.7987 21.9819 24.5201 22.3152C24.4033 22.464 24.2769 22.6068 24.1549 22.7466L24.1341 22.7704C23.4766 23.5246 22.5766 24.5555 23.2378 26.0654C23.7719 27.2844 24.4613 28.0088 25.5435 28.4878C26.5641 28.9405 27.6663 29.1797 28.7827 29.1907C30.181 29.1907 31.4447 28.7668 32.4369 27.965L32.4763 27.9337C32.512 27.9006 32.5517 27.8721 32.5946 27.8489C32.7765 27.7459 32.9101 27.5747 32.9659 27.3732C33.0217 27.1716 32.9951 26.9561 32.8921 26.7742C32.789 26.5922 32.6179 26.4586 32.4163 26.4028C32.2147 26.347 31.9993 26.3736 31.8173 26.4767C31.6978 26.5438 31.5849 26.6223 31.4804 26.711L31.4454 26.7392C30.7418 27.3075 29.8173 27.6079 28.7715 27.6079C27.8789 27.6001 26.9973 27.4098 26.181 27.0486C25.4632 26.731 25.0571 26.2929 24.6808 25.4339C24.4457 24.8976 24.6064 24.6299 25.3211 23.8043C25.4521 23.6555 25.6016 23.4837 25.7496 23.2985C25.9778 23.0316 26.2265 22.7829 26.4933 22.5547C26.8 22.2862 27.0875 21.9967 27.3539 21.6882C27.5699 21.4168 27.7686 21.1321 27.9489 20.8359C28.1099 20.5714 28.2896 20.3189 28.4867 20.0802C28.8393 19.6674 29.3112 19.374 29.8374 19.2404C29.9414 19.2178 30.0478 19.2079 30.1542 19.2107C30.2784 19.2107 30.4123 19.2189 30.5544 19.2271C30.7195 19.2375 30.8846 19.2479 31.0564 19.2479C31.381 19.2565 31.7041 19.2006 32.007 19.0835C33.5012 18.4766 34.5559 17.1013 35.4864 15.8853C35.8106 15.4628 36.1156 15.0671 36.4198 14.722C37.5987 13.3944 39.2261 12.3523 41.2544 11.6242C42.4407 11.21 43.6704 10.9327 44.9197 10.7978C45.1131 10.7755 45.3072 10.751 45.5028 10.7234L45.546 10.7182C46.141 10.6439 46.7531 10.5695 47.3913 10.5345C47.4036 10.5335 47.4159 10.5358 47.427 10.5412C47.4382 10.5465 47.4476 10.5548 47.4545 10.565C47.4612 10.5753 47.4652 10.587 47.4662 10.5992C47.4673 10.6114 47.4653 10.6237 47.4604 10.6349C47.4314 10.7004 47.4061 10.7525 47.3942 10.7777C47.2671 11.0009 47.1451 11.2203 47.0224 11.4412L46.8067 11.8324C46.7562 11.9226 46.724 12.0219 46.7119 12.1245C46.6998 12.2272 46.7081 12.3312 46.7362 12.4306C46.7643 12.5301 46.8117 12.623 46.8758 12.7042C46.9398 12.7853 47.0192 12.853 47.1094 12.9035C47.1996 12.9539 47.2988 12.9861 47.4015 12.9982C47.5041 13.0103 47.6081 13.002 47.7076 12.9739C47.807 12.9458 47.9 12.8984 47.9811 12.8344C48.0622 12.7703 48.13 12.6909 48.1804 12.6007L48.4036 12.2021C48.5226 11.9849 48.6423 11.7685 48.7643 11.555C48.8126 11.4709 48.8781 11.3281 49.067 10.9064L49.2329 10.5382C49.1924 10.563 49.1502 10.5847 49.1064 10.603C49.0889 10.6096 49.0695 10.6094 49.0521 10.6024C49.0347 10.5953 49.0207 10.582 49.0127 10.565C49.0061 10.5475 49.0063 10.5281 49.0133 10.5107C49.0203 10.4934 49.0337 10.4793 49.0506 10.4713C49.1029 10.4501 49.1528 10.4235 49.1994 10.3917C49.2146 10.3821 49.2327 10.3783 49.2505 10.381C49.2683 10.3838 49.2845 10.3928 49.2961 10.4066C49.3377 10.3159 49.3705 10.2407 49.3957 10.1954C49.5122 10.0262 49.5583 9.81847 49.5244 9.61596C49.4958 9.43964 49.4076 9.27845 49.2746 9.15923C49.1415 9.04 48.9717 8.96994 48.7933 8.96069C48.5597 8.94731 48.3202 8.94061 48.0807 8.94061C47.1042 8.94061 46.2161 9.04995 45.3585 9.15631C45.1495 9.1816 44.9472 9.20688 44.7449 9.23068C43.3758 9.37936 42.0282 9.68431 40.7285 10.1396C38.4473 10.9577 36.6035 12.1478 35.2469 13.674C34.9077 14.0563 34.5879 14.4743 34.248 14.9169C33.3941 16.0325 32.5172 17.1735 31.4216 17.6198C31.3054 17.658 31.1831 17.6744 31.0609 17.6681C30.9359 17.6681 30.7968 17.6592 30.6637 17.651C30.4949 17.6443 30.3283 17.6339 30.1542 17.6339Z" fill="#463B32"/>
<path d="M60.2631 42.4176H60.2177C59.9904 42.4055 59.7772 42.3037 59.625 42.1345C59.4727 41.9654 59.3937 41.7427 59.4055 41.5154C59.4293 41.049 59.5357 40.4042 59.6383 39.7802C59.7127 39.3198 59.7871 38.8876 59.8161 38.5767C60.1537 35.1553 60.156 32.3394 59.0656 29.7012C57.6316 26.2337 55.308 24.1043 52.1604 23.3702C50.0243 22.8726 47.392 23.2274 45.5601 23.6134C45.096 23.7116 44.6155 23.8425 44.1068 23.9801C43.1607 24.2374 42.1811 24.5007 41.177 24.5915C38.7032 24.8079 37.952 23.0243 37.3473 21.5911L37.2878 21.4505C37.2031 21.2417 37.2039 21.0079 37.2901 20.7996C37.3763 20.5914 37.5409 20.4254 37.7485 20.3375C37.956 20.2496 38.1897 20.2469 38.3993 20.3299C38.6088 20.4129 38.7773 20.5749 38.8683 20.7811L38.9286 20.9246C39.5868 22.4866 39.8955 22.9819 41.0275 22.8823C41.8784 22.8079 42.7828 22.5617 43.6568 22.3244C44.1663 22.1861 44.6936 22.0425 45.2061 21.9347C47.2083 21.513 50.1076 21.1299 52.5501 21.6989C56.2162 22.5535 59.021 25.0943 60.6521 29.046C61.8793 32.0144 61.8882 35.0706 61.5245 38.7463C61.4888 39.11 61.4122 39.5712 61.3319 40.0591C61.2374 40.637 61.1385 41.2342 61.1199 41.6054C61.1081 41.8247 61.0127 42.0311 60.8533 42.1822C60.6939 42.3333 60.4827 42.4175 60.2631 42.4176Z" fill="#463B32"/>
<path d="M60.2631 42.4879H60.2147C59.9685 42.475 59.7375 42.3649 59.5724 42.1818C59.4072 41.9987 59.3215 41.7575 59.3341 41.5113C59.3579 41.042 59.4643 40.3956 59.5669 39.7723C59.6413 39.309 59.7157 38.8798 59.7447 38.5696C60.0823 35.1609 60.0846 32.3524 59.0009 29.7284C57.5766 26.2839 55.2701 24.1679 52.1455 23.439C51.37 23.2692 50.5778 23.1879 49.784 23.1965C48.524 23.1965 47.1064 23.3601 45.5765 23.6829C45.1183 23.7796 44.6438 23.9061 44.141 24.0451H44.1268C43.1785 24.3032 42.193 24.5703 41.1852 24.658C41.0468 24.6707 40.91 24.6766 40.7791 24.6766C38.5745 24.6766 37.859 22.9801 37.2833 21.616L37.2231 21.4739C37.1698 21.3607 37.14 21.2379 37.1353 21.1128C37.1306 20.9878 37.1513 20.8631 37.1959 20.7462C37.2406 20.6293 37.3084 20.5227 37.3953 20.4326C37.4822 20.3426 37.5863 20.271 37.7015 20.2222C37.8167 20.1733 37.9406 20.1483 38.0657 20.1484C38.1908 20.1486 38.3146 20.1741 38.4297 20.2232C38.5448 20.2724 38.6487 20.3443 38.7353 20.4346C38.8219 20.5249 38.8894 20.6317 38.9338 20.7487L38.994 20.8915C39.5965 22.3188 39.8866 22.8179 40.7679 22.8179C40.8468 22.8179 40.9301 22.8179 41.0208 22.806C41.8665 22.7316 42.7665 22.4877 43.6367 22.2504C44.1491 22.1113 44.678 21.9685 45.1904 21.8599C46.8416 21.5118 48.3887 21.3393 49.784 21.3393C50.719 21.33 51.652 21.427 52.565 21.6286C56.2549 22.4884 59.0738 25.0433 60.7175 29.018C61.95 31.9991 61.9596 35.0657 61.5944 38.7526C61.5595 39.1126 61.4844 39.5708 61.4055 40.0475V40.0698C61.3096 40.6522 61.2129 41.2428 61.1935 41.608C61.181 41.846 61.0773 42.0701 60.9042 42.2339C60.731 42.3976 60.5014 42.4886 60.2631 42.4879ZM49.7825 23.0552C50.5873 23.0465 51.3905 23.1288 52.1767 23.3006C55.3482 24.0444 57.6889 26.185 59.1318 29.6741C60.2281 32.3264 60.2266 35.1542 59.8875 38.5838C59.8562 38.8954 59.7848 39.3275 59.709 39.7917C59.6056 40.4164 59.5007 41.0561 59.4762 41.5195C59.4658 41.7276 59.5382 41.9314 59.6776 42.0863C59.8169 42.2413 60.0119 42.3348 60.2199 42.3465H60.2616C60.4628 42.3465 60.6563 42.2693 60.8024 42.131C60.9484 41.9927 61.036 41.8036 61.047 41.6028C61.0664 41.2309 61.1638 40.6359 61.2583 40.0594L61.2642 40.0267C61.3386 39.5484 61.413 39.0962 61.4516 38.7407C61.8146 35.0746 61.8057 32.0289 60.5851 29.0716C58.96 25.1415 56.1745 22.6156 52.5323 21.767C51.6288 21.5675 50.7055 21.4717 49.7803 21.4813C48.3931 21.4813 46.8572 21.6569 45.2165 22.002C44.7062 22.1098 44.1811 22.2526 43.6724 22.391C42.794 22.6297 41.8873 22.8759 41.0297 22.951C40.9338 22.96 40.8475 22.9637 40.7642 22.9637C39.7973 22.9637 39.4753 22.4118 38.8587 20.9503L38.7984 20.8075C38.7383 20.6649 38.6374 20.5432 38.5084 20.4577C38.3794 20.3722 38.228 20.3267 38.0732 20.327C37.944 20.3281 37.817 20.3609 37.7035 20.4227C37.59 20.4844 37.4934 20.5731 37.4222 20.681C37.3511 20.7889 37.3076 20.9127 37.2955 21.0413C37.2835 21.17 37.3033 21.2997 37.3533 21.4189L37.4135 21.5602C37.9721 22.8863 38.6683 24.5353 40.7769 24.5353C40.904 24.5353 41.0364 24.5293 41.1703 24.5174C42.17 24.4304 43.1443 24.1649 44.0874 23.909L44.1015 23.9046C44.6058 23.7677 45.0826 23.6383 45.5445 23.5409C47.0871 23.2173 48.5129 23.0552 49.7825 23.0552Z" fill="#463B32"/>
<path d="M65.0211 41.8896C64.9004 41.8889 64.7813 41.8629 64.6713 41.8134C64.5613 41.7638 64.4629 41.6918 64.3825 41.6019C64.302 41.512 64.2413 41.4062 64.2042 41.2914C64.1671 41.1766 64.1545 41.0553 64.1672 40.9353C64.281 39.9134 64.1308 38.7613 63.8177 38.2577C63.6998 38.0582 63.5368 37.8892 63.3417 37.7642C63.1467 37.6391 62.925 37.5616 62.6945 37.5377C62.4715 37.5194 62.2474 37.5543 62.0405 37.6395C61.8336 37.7247 61.6499 37.8578 61.5045 38.0279C61.4289 38.1115 61.3376 38.1794 61.2357 38.2277C61.1339 38.276 61.0235 38.3038 60.9109 38.3095C60.7984 38.3151 60.6858 38.2986 60.5796 38.2607C60.4734 38.2229 60.3757 38.1645 60.2921 38.0889C60.2085 38.0133 60.1406 37.9219 60.0923 37.8201C60.044 37.7183 60.0162 37.6079 60.0105 37.4953C60.0049 37.3827 60.0214 37.2702 60.0593 37.164C60.0971 37.0578 60.1555 36.9601 60.2311 36.8765C60.5555 36.5095 60.9614 36.2235 61.4161 36.0414C61.8708 35.8593 62.3619 35.7861 62.85 35.8278C63.3459 35.8748 63.8238 36.0374 64.2455 36.3024C64.6672 36.5675 65.021 36.9276 65.2784 37.354C65.9136 38.3812 65.9962 40.0316 65.8735 41.128C65.8494 41.3373 65.7493 41.5305 65.5922 41.6709C65.435 41.8113 65.2318 41.8891 65.0211 41.8896Z" fill="#463B32"/>
<path d="M65.0211 41.9609C64.9863 41.9608 64.9515 41.9588 64.9169 41.955C64.6725 41.9266 64.4493 41.8026 64.296 41.6102C64.1427 41.4177 64.0718 41.1724 64.0988 40.9278C64.2111 39.9193 64.066 38.7872 63.7603 38.2934C63.6481 38.1032 63.4929 37.942 63.3072 37.8227C63.1215 37.7033 62.9104 37.6291 62.6908 37.6061C62.4787 37.5894 62.2657 37.6231 62.0691 37.7044C61.8725 37.7857 61.6979 37.9123 61.5595 38.0739C61.3935 38.2547 61.1629 38.3625 60.9178 38.3738C60.6727 38.3852 60.433 38.2992 60.251 38.1346C60.0691 37.97 59.9595 37.7401 59.9463 37.4951C59.9331 37.2501 60.0173 37.0098 60.1805 36.8266C60.48 36.4866 60.8483 36.214 61.2611 36.0271C61.6739 35.8401 62.1216 35.743 62.5748 35.7422C62.6692 35.7422 62.7644 35.7459 62.8581 35.7548C63.3653 35.8027 63.8542 35.969 64.2854 36.2403C64.7166 36.5116 65.0782 36.8803 65.3409 37.3168C65.9865 38.3581 66.0705 40.0256 65.9471 41.1361C65.9213 41.3634 65.8125 41.5733 65.6417 41.7255C65.4708 41.8776 65.2499 41.9615 65.0211 41.9609ZM62.5666 37.4581C62.6097 37.4581 62.6536 37.4581 62.6975 37.464C62.9391 37.489 63.1715 37.5702 63.3761 37.7012C63.5807 37.8322 63.7518 38.0092 63.8756 38.2182C64.1962 38.7389 64.3509 39.9074 64.2349 40.9434C64.223 41.1447 64.2887 41.3428 64.4186 41.497C64.5485 41.6511 64.7326 41.7496 64.9329 41.772C65.1332 41.7944 65.3345 41.7391 65.4953 41.6175C65.656 41.4958 65.764 41.3171 65.7968 41.1182C65.9181 40.0301 65.8377 38.4005 65.2115 37.3897C64.9601 36.9724 64.6144 36.62 64.202 36.3608C63.7897 36.1015 63.3222 35.9426 62.8373 35.8969C62.7473 35.8887 62.6566 35.8842 62.5666 35.8842C62.1331 35.8859 61.705 35.9796 61.3104 36.1591C60.9159 36.3386 60.564 36.5998 60.278 36.9255C60.2087 37.0022 60.1551 37.0918 60.1205 37.1892C60.0858 37.2865 60.0706 37.3897 60.0758 37.493C60.081 37.5962 60.1065 37.6974 60.1508 37.7907C60.1952 37.8841 60.2574 37.9678 60.3341 38.0371C60.4108 38.1064 60.5004 38.1599 60.5977 38.1946C60.6951 38.2293 60.7983 38.2445 60.9015 38.2393C61.0048 38.234 61.1059 38.2086 61.1993 38.1642C61.2927 38.1199 61.3764 38.0576 61.4457 37.981C61.585 37.8188 61.7573 37.6883 61.9512 37.5982C62.145 37.508 62.3558 37.4602 62.5695 37.4581H62.5666Z" fill="#463B32"/>
<path d="M44.5188 41.8818C44.387 41.8819 44.2569 41.8516 44.1386 41.7933C44.0203 41.735 43.9171 41.6503 43.8368 41.5456C43.1972 40.7096 42.6661 39.5605 42.4846 38.6174C42.1492 36.8792 42.0272 35.0249 43.392 33.2451C45.4872 30.5132 49.3854 28.7616 52.481 30.8977C52.6684 31.027 52.7967 31.2255 52.8378 31.4494C52.8789 31.6733 52.8293 31.9044 52.7 32.0918C52.5707 32.2792 52.3722 32.4076 52.1483 32.4487C51.9244 32.4898 51.6933 32.4402 51.5059 32.3109C49.2827 30.7765 46.3679 32.1852 44.7539 34.2893C43.8517 35.466 43.8613 36.6932 44.17 38.2931C44.2808 38.868 44.6423 39.7732 45.2001 40.5014C45.2973 40.6286 45.357 40.7804 45.3724 40.9397C45.3879 41.099 45.3586 41.2594 45.2877 41.403C45.2169 41.5465 45.1074 41.6673 44.9715 41.752C44.8357 41.8366 44.6789 41.8815 44.5188 41.8818Z" fill="#463B32"/>
<path d="M44.5188 41.9493C44.3759 41.9497 44.2349 41.917 44.1067 41.8538C43.9786 41.7906 43.8668 41.6985 43.7802 41.5849C43.1339 40.7414 42.5984 39.5767 42.4147 38.6276C42.0755 36.8716 41.9535 34.9995 43.3355 33.198C44.9093 31.146 47.2485 29.8711 49.4396 29.8711C50.5423 29.8672 51.6191 30.205 52.5219 30.838C52.7248 30.9781 52.8639 31.193 52.9084 31.4356C52.9529 31.6782 52.8992 31.9285 52.7591 32.1315C52.6191 32.3345 52.4041 32.4735 52.1615 32.518C51.919 32.5625 51.6687 32.5088 51.4657 32.3687C50.8656 31.9509 50.1508 31.7293 49.4196 31.7343C47.8301 31.7343 46.0212 32.754 44.8081 34.3323C43.9223 35.4874 43.9334 36.6983 44.2377 38.2743C44.347 38.8411 44.7033 39.7344 45.2544 40.4536C45.3598 40.5913 45.4247 40.7557 45.4416 40.9283C45.4584 41.1009 45.4267 41.2748 45.35 41.4303C45.2732 41.5859 45.1545 41.7168 45.0072 41.8084C44.86 41.9 44.69 41.9485 44.5166 41.9486L44.5188 41.9493ZM49.4396 30.0124C47.2924 30.0124 44.9963 31.2665 43.4478 33.2851C42.1008 35.0419 42.2228 36.8783 42.5552 38.6008C42.7352 39.5343 43.2603 40.6715 43.894 41.5016C43.9561 41.5856 44.0343 41.6564 44.124 41.7098C44.2138 41.7633 44.3132 41.7984 44.4167 41.813C44.5201 41.8276 44.6254 41.8215 44.7264 41.795C44.8275 41.7685 44.9222 41.7222 45.0051 41.6587C45.0881 41.5952 45.1576 41.5158 45.2095 41.4252C45.2615 41.3346 45.2948 41.2345 45.3077 41.1309C45.3206 41.0272 45.3127 40.9221 45.2846 40.8215C45.2564 40.7209 45.2084 40.6269 45.1436 40.5451C44.579 39.8073 44.2131 38.8887 44.1023 38.3063C43.7899 36.6871 43.781 35.4435 44.6973 34.246C45.9335 32.6335 47.7877 31.5922 49.4196 31.5922C50.1798 31.5868 50.923 31.8173 51.5468 32.252C51.7187 32.3641 51.9276 32.4046 52.129 32.3648C52.3303 32.3251 52.5082 32.2082 52.6246 32.0392C52.741 31.8702 52.7868 31.6624 52.7522 31.4601C52.7176 31.2578 52.6053 31.077 52.4393 30.9563C51.5607 30.3401 50.5128 30.0111 49.4396 30.0147V30.0124Z" fill="#463B32"/>
<path d="M36.4533 41.0081C36.2379 41.0078 36.0304 40.9265 35.8722 40.7803C35.714 40.6341 35.6166 40.4337 35.5994 40.2189C35.5811 39.9584 35.5226 39.7023 35.4261 39.4595C35.1457 38.8177 34.4704 38.3439 33.7556 37.8478C33.4916 37.6641 33.2186 37.4759 32.959 37.2691C31.6992 36.2956 30.6966 35.0285 30.0389 33.5785C29.6752 32.7946 29.3056 31.9496 29.1241 31.0035C29.0304 30.5149 29.0891 30.0946 29.1412 29.7242C29.1829 29.423 29.2156 29.1857 29.1687 28.9462C29.1247 28.7228 29.1713 28.4911 29.2981 28.302C29.425 28.113 29.6218 27.982 29.8452 27.9381C30.0686 27.8941 30.3003 27.9406 30.4894 28.0675C30.6785 28.1943 30.8094 28.3911 30.8534 28.6145C30.956 29.1352 30.8928 29.5941 30.8415 29.9615C30.8021 30.2464 30.7671 30.471 30.8102 30.68C30.9545 31.4349 31.2781 32.1675 31.5972 32.8563C32.1389 34.0627 32.9718 35.1157 34.0211 35.9206C34.2443 36.0939 34.483 36.262 34.7381 36.4413C35.5749 37.0259 36.5232 37.6879 37 38.7738C37.1715 39.1906 37.2762 39.6319 37.3101 40.0813C37.3286 40.3082 37.2563 40.5331 37.109 40.7066C36.9617 40.8801 36.7515 40.988 36.5247 41.0066C36.5009 41.0073 36.4771 41.0081 36.4533 41.0081Z" fill="#463B32"/>
<path d="M36.4533 41.0781C36.2203 41.0767 35.9962 40.9883 35.825 40.8302C35.6538 40.672 35.5479 40.4557 35.528 40.2235C35.5106 39.9706 35.4542 39.722 35.3607 39.4864C35.0885 38.8631 34.4213 38.3975 33.7147 37.9051C33.4484 37.7192 33.1755 37.5288 32.9151 37.3242C31.646 36.3434 30.6365 35.0665 29.975 33.6053C29.609 32.8177 29.2364 31.969 29.0542 31.014C28.9582 30.5142 29.0177 30.0873 29.0705 29.7109C29.1115 29.4134 29.1449 29.1843 29.0988 28.9575C29.0511 28.7155 29.1014 28.4645 29.2387 28.2597C29.376 28.0549 29.5891 27.913 29.8311 27.8652C30.073 27.8175 30.324 27.8678 30.5288 28.0052C30.7337 28.1425 30.8756 28.3556 30.9233 28.5975C31.0289 29.1338 30.9642 29.5964 30.9121 29.9683C30.8727 30.2472 30.8422 30.4666 30.8802 30.6637C31.023 31.4075 31.3443 32.1401 31.6619 32.8207C32.1979 34.0185 33.0238 35.0639 34.065 35.8627C34.2815 36.0338 34.5195 36.1996 34.7716 36.3752C35.6232 36.9702 36.5812 37.6396 37.0639 38.7419C37.2391 39.1659 37.346 39.615 37.3808 40.0725C37.4003 40.3183 37.3217 40.5618 37.1621 40.7497C37.0025 40.9376 36.7749 41.0546 36.5292 41.0751C36.5046 41.0766 36.4793 41.0781 36.4533 41.0781ZM30.0129 27.9913C29.9612 27.9916 29.9097 27.9969 29.859 28.0069C29.6539 28.0475 29.4734 28.1679 29.3571 28.3415C29.2408 28.5152 29.1982 28.7279 29.2386 28.9329C29.2885 29.1828 29.255 29.4246 29.2119 29.731C29.1605 30.1029 29.1025 30.5135 29.1948 30.9902C29.374 31.9289 29.7422 32.7686 30.1037 33.5481C30.7571 34.9882 31.7529 36.2466 33.0044 37.2134C33.2617 37.4157 33.5332 37.6046 33.7958 37.7883C34.5202 38.2941 35.2038 38.7709 35.4923 39.4306C35.5915 39.681 35.6517 39.9452 35.6708 40.2138C35.6878 40.4219 35.7868 40.6148 35.9459 40.7499C36.1051 40.8851 36.3114 40.9515 36.5195 40.9345C36.7276 40.9176 36.9205 40.8186 37.0556 40.6595C37.1908 40.5003 37.2572 40.294 37.2402 40.0859C37.2066 39.644 37.1034 39.2103 36.9345 38.8006C36.4682 37.7341 35.528 37.0773 34.698 36.4986C34.4377 36.3172 34.1974 36.1498 33.978 35.978C32.9202 35.1653 32.081 34.1023 31.5362 32.8846C31.2149 32.1937 30.8898 31.4551 30.744 30.692C30.7017 30.4688 30.7336 30.2457 30.7738 29.9519C30.8251 29.589 30.8876 29.139 30.7872 28.6272C30.7517 28.448 30.6551 28.2866 30.5139 28.1706C30.3727 28.0547 30.1956 27.9913 30.0129 27.9913Z" fill="#463B32"/>
<path d="M40.9271 41.3526C40.7832 41.3524 40.6416 41.3161 40.5154 41.2469C40.3892 41.1777 40.2824 41.078 40.2048 40.9567C40.1272 40.8355 40.0813 40.6968 40.0713 40.5532C40.0613 40.4096 40.0876 40.2658 40.1476 40.1351C40.3686 39.655 40.5582 39.1611 40.7151 38.6564C40.8259 38.3001 40.8929 37.4894 40.8059 36.797C40.7844 36.5745 40.8505 36.3524 40.9902 36.1778C41.1298 36.0033 41.332 35.8901 41.5538 35.8622C41.7756 35.8343 41.9995 35.894 42.178 36.0285C42.3565 36.163 42.4756 36.3619 42.5099 36.5828C42.6192 37.4574 42.5552 38.5166 42.3544 39.1637C42.1749 39.7388 41.9585 40.3018 41.7066 40.8491C41.6387 40.999 41.529 41.1261 41.3908 41.2154C41.2526 41.3047 41.0916 41.3523 40.9271 41.3526Z" fill="#463B32"/>
<path d="M40.9271 41.4302C40.7713 41.43 40.6179 41.3906 40.4813 41.3157C40.3446 41.2407 40.2289 41.1327 40.1449 41.0014C40.0608 40.8701 40.0111 40.7198 40.0003 40.5644C39.9895 40.4089 40.0179 40.2531 40.0829 40.1115C40.3022 39.6342 40.4905 39.1433 40.6467 38.6418C40.756 38.2922 40.8208 37.4949 40.7352 36.8151C40.72 36.6939 40.7289 36.5709 40.7612 36.4532C40.7935 36.3354 40.8487 36.2252 40.9237 36.1288C41.075 35.9341 41.2975 35.8074 41.5422 35.7768C41.7869 35.7461 42.0338 35.8139 42.2285 35.9652C42.3249 36.0402 42.4056 36.1333 42.466 36.2395C42.5264 36.3456 42.5653 36.4626 42.5805 36.5838C42.6913 37.4681 42.6259 38.5414 42.4221 39.1944C42.2423 39.7727 42.0251 40.3386 41.772 40.8887C41.6975 41.0501 41.5783 41.1869 41.4286 41.2828C41.2789 41.3787 41.1049 41.4299 40.9271 41.4302ZM41.6605 35.9121C41.6269 35.9121 41.5934 35.9144 41.5601 35.9188C41.353 35.945 41.1648 36.0523 41.0368 36.2171C40.9088 36.382 40.8514 36.5909 40.8773 36.798C40.9643 37.4964 40.8966 38.3205 40.7836 38.6842C40.6256 39.1919 40.4348 39.6888 40.2124 40.1717C40.1691 40.2657 40.1448 40.3672 40.1408 40.4705C40.1369 40.5738 40.1532 40.6768 40.1891 40.7738C40.2249 40.8708 40.2795 40.9597 40.3498 41.0356C40.42 41.1115 40.5045 41.1728 40.5984 41.216C40.6923 41.2592 40.7938 41.2835 40.8971 41.2875C41.0004 41.2915 41.1035 41.2751 41.2004 41.2393C41.2974 41.2034 41.3864 41.1488 41.4622 41.0786C41.5381 41.0084 41.5994 40.9239 41.6426 40.83C41.8929 40.2853 42.1078 39.7251 42.286 39.1528C42.4838 38.5168 42.5471 37.4681 42.4385 36.6024C42.4158 36.4118 42.3241 36.236 42.1808 36.1083C42.0375 35.9807 41.8524 35.9098 41.6605 35.9091V35.9121Z" fill="#463B32"/>
<path d="M48.5858 58.8336C47.8174 58.8275 47.0525 58.7276 46.3083 58.5361C45.9283 58.4409 44.9368 58.1099 43.0707 57.4836C39.5258 56.2936 31.226 53.5059 30.0114 53.6747C29.2357 53.7826 28.2807 54.0846 27.1739 54.5717C26.9651 54.664 26.7282 54.6695 26.5154 54.587C26.3025 54.5046 26.1311 54.341 26.0389 54.1322C25.9467 53.9234 25.9412 53.6865 26.0236 53.4736C26.1061 53.2608 26.2697 53.0894 26.4785 52.9972C27.7318 52.446 28.84 52.1046 29.7734 51.9715C31.1167 51.7855 35.8657 53.2538 43.6144 55.8533C45.1019 56.3531 46.3902 56.7845 46.7219 56.8678C48.2094 57.2397 49.1131 57.0909 49.2463 57.0679C51.4575 56.3709 53.8681 54.275 57.1987 51.3787C58.8202 49.9655 60.658 48.3701 62.8284 46.6185C63.9039 45.7505 64.8529 44.9919 65.6354 44.3671C66.6417 43.5623 67.5261 42.8557 67.8273 42.5925C67.8414 42.4551 67.8055 42.3172 67.7261 42.2042C67.503 41.894 66.908 41.7259 66.0988 41.7393C64.3933 41.7698 58.6268 45.3757 53.8116 48.922C52.2496 50.0749 51.3876 50.9153 51.3802 50.9235C51.2999 51.0027 51.2049 51.0654 51.1004 51.1078C50.996 51.1503 50.8842 51.1718 50.7714 51.1711C50.6587 51.1704 50.5472 51.1474 50.4433 51.1036C50.3394 51.0598 50.2451 50.9959 50.1659 50.9157C50.0867 50.8355 50.0241 50.7404 49.9816 50.636C49.9391 50.5315 49.9176 50.4197 49.9184 50.307C49.9191 50.1942 49.942 50.0827 49.9858 49.9788C50.0297 49.8749 50.0935 49.7807 50.1737 49.7015C50.2117 49.6643 51.1176 48.774 52.7933 47.5401C55.1734 45.79 63.1504 40.0755 66.0675 40.0234H66.1955C68.3524 40.0234 69.1066 41.0313 69.3654 41.6397C69.6801 42.3834 69.5774 43.276 69.1259 43.7297C68.9028 43.9528 68.2245 44.4965 66.7072 45.7096C65.9262 46.3337 64.9801 47.0893 63.9061 47.9558C61.7611 49.6874 59.9351 51.2753 58.3278 52.6751C54.8224 55.7246 52.2891 57.9269 49.7223 58.7205L49.6821 58.7317C49.322 58.8087 48.954 58.8429 48.5858 58.8336Z" fill="#BD967A"/>
<path d="M48.5858 58.9081C47.8114 58.8997 47.0408 58.797 46.2912 58.6024C45.9067 58.5065 44.9152 58.1747 43.0484 57.5485L42.974 57.5232C39.5972 56.3904 31.6886 53.7366 30.1393 53.7366C30.1008 53.736 30.0623 53.738 30.0241 53.7426C29.2543 53.8497 28.3059 54.1494 27.2051 54.6351C26.9807 54.7269 26.7293 54.7274 26.5044 54.6366C26.2796 54.5458 26.0991 54.3708 26.0014 54.1489C25.9036 53.9269 25.8964 53.6756 25.9812 53.4485C26.066 53.2213 26.2362 53.0362 26.4554 52.9326C27.7139 52.3792 28.8288 52.0319 29.7682 51.9017C31.1323 51.7113 35.8263 53.1661 43.6419 55.7865C45.1361 56.2878 46.4162 56.7169 46.7442 56.7995C47.3465 56.9565 47.9656 57.0397 48.588 57.0472C48.8057 57.051 49.0233 57.0348 49.2381 56.9988C51.4278 56.3079 53.8309 54.2178 57.1563 51.3253C58.7822 49.9121 60.6194 48.3145 62.7882 46.5651C63.8645 45.6971 64.8135 44.9392 65.596 44.3137C66.5859 43.5223 67.4443 42.8365 67.7633 42.5599C67.7692 42.4488 67.7375 42.339 67.6733 42.2482C67.4681 41.9604 66.8961 41.8019 66.1047 41.8131C64.4149 41.8436 58.6669 45.4427 53.8584 48.9816C52.3002 50.13 51.4434 50.9683 51.4344 50.9764C51.2581 51.145 51.0225 51.2375 50.7785 51.234C50.5346 51.2304 50.3018 51.1311 50.1304 50.9575C49.959 50.7838 49.8627 50.5498 49.8624 50.3058C49.862 50.0618 49.9575 49.8274 50.1284 49.6533C50.1663 49.6153 51.0789 48.7198 52.7561 47.4844C55.1362 45.7313 63.1326 40.0072 66.0698 39.9544C68.3688 39.9113 69.1669 40.9808 69.4346 41.613C69.7604 42.3784 69.6511 43.3111 69.1802 43.7811C68.9571 44.0043 68.2758 44.5509 66.7548 45.7655C65.9738 46.3903 65.0285 47.146 63.9552 48.0125C61.8131 49.741 59.9894 51.3268 58.3813 52.7251C54.8633 55.7842 52.3262 57.991 49.7446 58.7891L49.7 58.8017C49.334 58.8809 48.9601 58.9166 48.5858 58.9081ZM30.1401 53.5938C31.7124 53.5938 39.3503 56.1561 43.0201 57.3871L43.0945 57.4124C44.9576 58.0379 45.9476 58.3689 46.3262 58.4633C47.0647 58.6549 47.8237 58.756 48.5865 58.7646C48.9489 58.7727 49.3109 58.7377 49.665 58.6604L49.7022 58.65C52.2548 57.8609 54.7829 55.6623 58.2817 52.6195C59.8964 51.2152 61.7209 49.6287 63.8652 47.8979C64.9385 47.0322 65.8853 46.2758 66.6663 45.6517C68.1828 44.4394 68.8619 43.8949 69.0798 43.677C69.5112 43.2456 69.6072 42.3806 69.303 41.6688C69.0478 41.0693 68.2929 40.0555 66.072 40.0965C63.1757 40.1485 55.2128 45.8526 52.8387 47.5997C51.1697 48.8292 50.2645 49.7172 50.2265 49.7567C50.0856 49.9049 50.008 50.1021 50.01 50.3066C50.0119 50.5111 50.0935 50.7067 50.2372 50.8521C50.381 50.9976 50.5758 51.0813 50.7802 51.0856C50.9847 51.0899 51.1828 51.0145 51.3326 50.8753C51.34 50.8679 52.202 50.0237 53.7714 48.8671C58.5963 45.3141 64.3799 41.7015 66.1003 41.6703C66.9482 41.6562 67.5506 41.8332 67.7871 42.1649C67.877 42.292 67.9175 42.4475 67.9009 42.6022C67.8988 42.62 67.8904 42.6363 67.8771 42.6484C67.5737 42.9139 66.6975 43.6153 65.683 44.4252C64.8998 45.05 63.9515 45.8079 62.876 46.6767C60.7086 48.4253 58.873 50.0237 57.2523 51.4309C53.9053 54.3391 51.4962 56.4365 49.2708 57.1387C49.0446 57.1777 48.8153 57.1954 48.5858 57.1915C47.9523 57.1828 47.3222 57.0974 46.7092 56.9371C46.3753 56.8538 45.0923 56.4231 43.6077 55.9248C36.4317 53.5172 31.6641 52.0274 30.0397 52.0274C29.9554 52.0268 29.8712 52.0318 29.7875 52.0423C28.86 52.171 27.7585 52.5146 26.5149 53.0627C26.35 53.1359 26.2152 53.2634 26.1331 53.424C26.051 53.5846 26.0264 53.7686 26.0636 53.9451C26.1008 54.1216 26.1974 54.28 26.3374 54.3938C26.4773 54.5076 26.6521 54.57 26.8325 54.5704C26.9417 54.5705 27.0496 54.5477 27.1494 54.5035C28.265 54.0133 29.2238 53.7098 30.0062 53.6012C30.0496 53.596 30.0934 53.5935 30.1371 53.5938H30.1401Z" fill="#BD967A"/>
<path d="M24.7425 55.844C24.2962 55.844 24.0478 55.4722 24.0344 55.4484C23.9883 55.374 23.6068 54.7276 24.3855 54.1958C24.4828 54.1345 24.5914 54.0932 24.7049 54.0743C24.8183 54.0554 24.9344 54.0592 25.0464 54.0857C25.1583 54.1121 25.2639 54.1605 25.3569 54.2282C25.45 54.2958 25.5286 54.3813 25.5883 54.4797C25.6479 54.5781 25.6874 54.6873 25.7044 54.8011C25.7213 54.9148 25.7155 55.0309 25.6872 55.1423C25.6589 55.2538 25.6086 55.3586 25.5394 55.4504C25.4702 55.5423 25.3833 55.6195 25.284 55.6774C25.122 55.7812 24.9348 55.8388 24.7425 55.844Z" fill="#BD967A"/>
<path d="M24.7425 55.9131C24.2635 55.9131 24.0025 55.5286 23.9742 55.4847C23.9244 55.4059 23.5123 54.7037 24.3461 54.134C24.5264 54.0112 24.7441 53.9557 24.9611 53.9772C25.1782 53.9986 25.3809 54.0956 25.5337 54.2513C25.6865 54.4069 25.7797 54.6113 25.7972 54.8287C25.8146 55.0461 25.7551 55.2628 25.6291 55.4408C25.5517 55.5629 25.4464 55.6649 25.3219 55.7383C25.1482 55.848 24.9479 55.9084 24.7425 55.9131ZM24.869 54.1146C24.7096 54.1139 24.5539 54.1619 24.4227 54.2522C23.7191 54.7357 24.024 55.2995 24.0984 55.4111C24.1073 55.4252 24.3357 55.7733 24.7462 55.7733C24.9255 55.7674 25.0999 55.7135 25.2513 55.6171C25.3573 55.5543 25.447 55.4674 25.5131 55.3635C25.5973 55.2457 25.6474 55.1071 25.6579 54.9627C25.6685 54.8184 25.6391 54.6739 25.5729 54.5452C25.5067 54.4165 25.4064 54.3085 25.2829 54.233C25.1593 54.1576 25.0174 54.1177 24.8727 54.1176L24.869 54.1146Z" fill="#BD967A"/>
<path d="M48.768 48.5315C45.5408 48.5315 41.8509 48.3828 40.7427 48.3389C40.63 48.334 40.5195 48.307 40.4173 48.2594C40.3151 48.2117 40.2233 48.1445 40.1471 48.0614C40.071 47.9783 40.0119 47.881 39.9733 47.7751C39.9347 47.6692 39.9174 47.5567 39.9223 47.4441C39.9272 47.3315 39.9542 47.2209 40.0018 47.1188C40.0494 47.0166 40.1167 46.9248 40.1997 46.8486C40.2828 46.7724 40.3801 46.7134 40.486 46.6748C40.5919 46.6362 40.7044 46.6188 40.817 46.6237C45.4039 46.8186 52.3121 46.9376 53.3125 46.591C53.8867 46.3924 54.2296 45.7847 54.2296 44.9658C54.2296 44.2771 53.4114 43.8703 53.0499 43.7237C51.9596 43.366 37.5422 40.8884 34.692 41.5578C33.3116 41.8814 29.2959 43.5787 26.149 45.0194C26.0464 45.0663 25.9356 45.0925 25.823 45.0966C25.7103 45.1006 25.5979 45.0825 25.4922 45.0431C25.3865 45.0037 25.2896 44.9439 25.2071 44.8671C25.1245 44.7903 25.0579 44.698 25.011 44.5954C24.9641 44.4929 24.9379 44.3821 24.9338 44.2694C24.9298 44.1567 24.9479 44.0443 24.9873 43.9386C25.0267 43.833 25.0865 43.7361 25.1633 43.6535C25.2401 43.571 25.3324 43.5043 25.435 43.4575C26.1192 43.1443 32.1847 40.3819 34.3 39.8873C37.7043 39.0892 52.7056 41.7378 53.677 42.1261C55.1191 42.7033 55.9462 43.7386 55.9462 44.9666C55.9462 46.5285 55.1526 47.7714 53.8748 48.2139C53.1712 48.4556 51.0908 48.5315 48.768 48.5315Z" fill="#BD967A"/>
<path d="M48.768 48.6052C45.5259 48.6052 41.8025 48.4564 40.7397 48.4118C40.4931 48.4019 40.2605 48.2945 40.0932 48.1132C39.9258 47.9319 39.8373 47.6915 39.8471 47.4449C39.857 47.1983 39.9644 46.9658 40.1457 46.7984C40.3271 46.631 40.5675 46.5425 40.8141 46.5524C43.5452 46.6684 46.6683 46.7405 48.9651 46.7405C51.3809 46.7405 52.8737 46.6662 53.279 46.5241C53.8227 46.3352 54.147 45.7528 54.147 44.9659C54.147 44.3181 53.3541 43.9246 53.0128 43.7892C52.0347 43.4694 40.6735 41.5148 36.1327 41.5148C35.4983 41.5148 35.0171 41.5527 34.698 41.6271C33.3212 41.9499 29.3115 43.6457 26.1683 45.0842C26.0471 45.1403 25.9151 45.1692 25.7816 45.1689C25.5692 45.1692 25.3632 45.0968 25.1977 44.9637C25.0322 44.8307 24.9173 44.6449 24.872 44.4375C24.8267 44.23 24.8538 44.0133 24.9488 43.8234C25.0438 43.6335 25.2009 43.4818 25.3941 43.3935C26.0798 43.0797 32.1498 40.3151 34.2733 39.8167C34.7002 39.7163 35.3294 39.668 36.1431 39.668C41.4277 39.668 52.8461 41.723 53.6963 42.0614C55.1667 42.6498 56.0102 43.7097 56.0102 44.9681C56.0102 46.5598 55.1987 47.8302 53.8919 48.2831C53.2783 48.4951 51.5535 48.6052 48.768 48.6052ZM40.7806 46.6967C40.5748 46.6965 40.3771 46.7769 40.2299 46.9207C40.0827 47.0646 39.9977 47.2603 39.9931 47.4661C39.9885 47.6718 40.0647 47.8712 40.2054 48.0214C40.3461 48.1717 40.54 48.2608 40.7456 48.2697C41.8085 48.3144 45.5281 48.4624 48.768 48.4624C51.5371 48.4624 53.2463 48.3568 53.8473 48.1478C55.0953 47.7156 55.8696 46.4973 55.8696 44.9681C55.8696 43.7706 55.0596 42.7591 53.6457 42.1938C52.8023 41.8569 41.421 39.8138 36.1491 39.8138C35.3465 39.8138 34.7285 39.8636 34.3119 39.9625C32.2019 40.4571 26.1438 43.2173 25.461 43.5326C25.2979 43.6077 25.1654 43.7362 25.0853 43.8968C25.0053 44.0575 24.9825 44.2407 25.0208 44.4161C25.059 44.5914 25.1561 44.7485 25.2958 44.8612C25.4355 44.9739 25.6095 45.0355 25.789 45.0358C25.9022 45.0352 26.0139 45.0098 26.1163 44.9614C29.2662 43.5192 33.287 41.8197 34.6697 41.4947C34.9977 41.4203 35.4916 41.3787 36.1372 41.3787C40.6884 41.3787 52.0801 43.3393 53.0656 43.6621C53.4374 43.8108 54.2943 44.2385 54.2943 44.9726C54.2943 45.8235 53.9335 46.4564 53.3274 46.6654C52.8982 46.8142 51.4307 46.8886 48.9644 46.8886C46.6661 46.8886 43.54 46.8142 40.8081 46.6996L40.7806 46.6967Z" fill="#BD967A"/>
<path d="M23.5547 46.1557C23.3756 46.158 23.2002 46.1045 23.0529 46.0025C22.9056 45.9006 22.7937 45.7552 22.7328 45.5867C22.7053 45.5124 22.4866 44.8273 23.2765 44.4621C23.3788 44.4148 23.4895 44.3881 23.6021 44.3835C23.7147 44.3789 23.8272 44.3966 23.933 44.4355C24.0388 44.4744 24.1359 44.5337 24.2188 44.6101C24.3017 44.6866 24.3687 44.7786 24.416 44.8809C24.4489 44.9537 24.4722 45.0304 24.4852 45.1092C24.5299 45.3245 24.4902 45.5487 24.3744 45.7356C24.2585 45.9224 24.0753 46.0577 23.8626 46.1133C23.7622 46.1405 23.6587 46.1548 23.5547 46.1557Z" fill="#BD967A"/>
<path d="M23.5547 46.2246C23.3603 46.2279 23.1697 46.1703 23.0096 46.0598C22.8496 45.9494 22.7281 45.7917 22.6621 45.6087C22.6324 45.5254 22.3959 44.7861 23.243 44.3949C23.3651 44.338 23.4981 44.3085 23.6328 44.3086C23.8612 44.313 24.0805 44.3993 24.2507 44.5516C24.421 44.704 24.5309 44.9124 24.5605 45.139C24.5901 45.3655 24.5375 45.5952 24.4122 45.7862C24.2868 45.9772 24.0971 46.1169 23.8775 46.18C23.7722 46.2085 23.6637 46.2235 23.5547 46.2246ZM23.6358 44.4507C23.5218 44.4508 23.4092 44.4762 23.3063 44.525C22.5744 44.8635 22.7745 45.492 22.7997 45.5611C22.8558 45.7157 22.9586 45.8489 23.0939 45.9422C23.2292 46.0356 23.3903 46.0843 23.5547 46.0818C23.6527 46.0809 23.7502 46.0674 23.8448 46.0416C24.0399 45.9907 24.2079 45.8667 24.3141 45.6953C24.4203 45.5239 24.4565 45.3182 24.4152 45.1208C24.4037 45.0473 24.3822 44.9758 24.3513 44.9081C24.2877 44.7718 24.1867 44.6564 24.06 44.5754C23.9333 44.4944 23.7861 44.4511 23.6358 44.4507Z" fill="#BD967A"/>
<path d="M50.6609 51.053C50.4806 51.0531 50.3048 50.9961 50.1589 50.8901C49.3154 50.2802 47.041 49.0574 45.7334 48.51C45.6294 48.4665 45.5349 48.403 45.4555 48.323C45.376 48.2431 45.313 48.1482 45.2702 48.0439C45.1837 47.8333 45.1845 47.597 45.2723 47.3869C45.36 47.1768 45.5277 47.0102 45.7383 46.9237C45.9489 46.8372 46.1853 46.838 46.3954 46.9257C47.6888 47.4665 50.144 48.7599 51.1645 49.4985C51.3115 49.6048 51.421 49.755 51.4773 49.9275C51.5336 50.1 51.5339 50.2859 51.4779 50.4585C51.422 50.6311 51.3128 50.7816 51.166 50.8882C51.0192 50.9949 50.8424 51.0523 50.6609 51.0522V51.053Z" fill="#BD967A"/>
<path d="M50.6609 51.1225C50.4656 51.1227 50.2752 51.061 50.1172 50.9462C49.2768 50.3378 47.009 49.1195 45.7059 48.5751C45.5931 48.528 45.4906 48.4592 45.4044 48.3725C45.3182 48.2858 45.2499 48.183 45.2034 48.07C45.157 47.9569 45.1332 47.8358 45.1335 47.7136C45.1339 47.5913 45.1583 47.4703 45.2053 47.3575C45.2524 47.2447 45.3213 47.1423 45.4079 47.0561C45.4946 46.9698 45.5974 46.9016 45.7104 46.8551C45.8235 46.8086 45.9446 46.7848 46.0669 46.7852C46.1891 46.7855 46.3101 46.8099 46.4229 46.857C47.72 47.3992 50.1827 48.6963 51.2069 49.4371C51.3662 49.5523 51.4849 49.7151 51.546 49.902C51.607 50.0889 51.6072 50.2904 51.5465 50.4774C51.4859 50.6644 51.3675 50.8274 51.2083 50.9429C51.0492 51.0584 50.8576 51.1205 50.6609 51.1203V51.1225ZM46.0644 46.9313C45.8823 46.931 45.7057 46.9938 45.5647 47.1091C45.4238 47.2244 45.3271 47.385 45.2913 47.5636C45.2555 47.7421 45.2828 47.9276 45.3684 48.0883C45.454 48.249 45.5928 48.375 45.7609 48.4449C47.0707 48.9923 49.3534 50.2196 50.2005 50.8317C50.2843 50.8922 50.3792 50.9357 50.4797 50.9596C50.5803 50.9835 50.6845 50.9874 50.7866 50.971C50.8886 50.9546 50.9864 50.9182 51.0744 50.864C51.1624 50.8098 51.2389 50.7388 51.2995 50.655C51.36 50.5713 51.4035 50.4764 51.4274 50.3759C51.4513 50.2753 51.4551 50.171 51.4387 50.069C51.4223 49.9669 51.386 49.8691 51.3318 49.7811C51.2776 49.6931 51.2066 49.6167 51.1228 49.5561C50.1061 48.8213 47.6583 47.5316 46.3679 46.9923C46.2718 46.9519 46.1686 46.9312 46.0644 46.9313Z" fill="#BD967A"/>
<path d="M61.5662 22.709C61.3798 22.7093 61.1984 22.6488 61.0494 22.5368C60.9004 22.4248 60.7919 22.2674 60.7403 22.0882C60.6887 21.9091 60.6969 21.7181 60.7635 21.544C60.8301 21.3699 60.9515 21.2222 61.1095 21.1233C62.5056 20.2486 65.773 18.2002 65.9069 15.748C65.9708 14.5818 64.9593 13.362 63.8652 13.2854C63.5409 13.263 63.2627 13.2891 63.1006 13.3597C62.5799 13.5829 62.1493 13.9458 62.0965 14.0886C62.067 14.199 62.0159 14.3023 61.946 14.3926C61.8761 14.4829 61.789 14.5583 61.6896 14.6145C61.5902 14.6707 61.4806 14.7065 61.3672 14.7198C61.2538 14.7331 61.1388 14.7236 61.0291 14.6919C60.9195 14.6603 60.8172 14.607 60.7283 14.5354C60.6395 14.4637 60.5658 14.375 60.5116 14.2745C60.4574 14.1739 60.4239 14.0636 60.4129 13.95C60.4019 13.8364 60.4137 13.7217 60.4475 13.6126C60.7555 12.5386 62.153 11.8975 62.4304 11.7792C62.8514 11.6007 63.3736 11.5323 63.9849 11.5747C66.0028 11.716 67.7358 13.751 67.6205 15.8432C67.4606 18.7878 64.6997 20.9009 62.0206 22.5796C61.8845 22.6651 61.7269 22.71 61.5662 22.709Z" fill="#BD967A"/>
<path d="M61.5662 22.7812C61.3644 22.7813 61.168 22.7158 61.0067 22.5945C60.8454 22.4732 60.7279 22.3027 60.6721 22.1087C60.6162 21.9148 60.625 21.708 60.6971 21.5195C60.7691 21.3309 60.9006 21.171 61.0716 21.0638C62.458 20.195 65.7038 18.163 65.8355 15.7443C65.8972 14.6137 64.9191 13.4311 63.86 13.3575C63.5483 13.3352 63.2776 13.3612 63.1288 13.4244C62.6134 13.6431 62.2058 13.9986 62.1619 14.1117C62.1056 14.3048 61.9882 14.4744 61.8272 14.5951C61.6663 14.7158 61.4706 14.7811 61.2694 14.7811C61.1826 14.781 61.0963 14.769 61.0128 14.7454C60.7759 14.6767 60.5759 14.5171 60.4564 14.3013C60.3369 14.0855 60.3078 13.8312 60.3754 13.594C60.693 12.4888 62.1173 11.8342 62.3992 11.7145C62.8298 11.5323 63.3661 11.4609 63.9864 11.5047C66.0407 11.6483 67.8057 13.7182 67.6889 15.8484C67.5268 18.8235 64.7503 20.9522 62.0563 22.6413C61.9093 22.7329 61.7394 22.7814 61.5662 22.7812ZM63.6487 13.2065C63.7231 13.2065 63.7975 13.2065 63.8719 13.2147C65.0017 13.2935 66.0452 14.5535 65.979 15.7525C65.8436 18.2426 62.5576 20.3036 61.1489 21.182C60.9721 21.2929 60.8465 21.4695 60.7999 21.6729C60.7532 21.8764 60.7893 22.09 60.9001 22.2668C61.011 22.4437 61.1876 22.5692 61.391 22.6159C61.5944 22.6626 61.8081 22.6265 61.9849 22.5156C64.6484 20.8466 67.3922 18.7469 67.5513 15.8358C67.6636 13.78 65.9626 11.7807 63.9812 11.6423C63.3862 11.6007 62.8656 11.6684 62.4594 11.8417C62.188 11.957 60.8164 12.5855 60.5175 13.6267C60.4888 13.7262 60.48 13.8304 60.4916 13.9332C60.5032 14.0361 60.535 14.1357 60.5851 14.2262C60.6536 14.3489 60.7535 14.4512 60.8745 14.5226C60.9955 14.5939 61.1334 14.6318 61.2739 14.6323C61.4444 14.6318 61.6101 14.576 61.7463 14.4735C61.8825 14.3709 61.9819 14.227 62.0295 14.0633C62.0972 13.8789 62.5673 13.504 63.0708 13.2883C63.2555 13.2248 63.4507 13.197 63.6458 13.2065H63.6487Z" fill="#BD967A"/>
<path d="M61.2323 22.7112C61.0714 22.7113 60.9137 22.6656 60.7778 22.5795C58.6692 21.2579 55.1392 19.0466 54.9629 15.8439C54.8484 13.7502 56.5821 11.7159 58.6 11.5746C59.2107 11.5322 59.7328 11.6014 60.1538 11.7791C60.4312 11.8974 61.8295 12.5385 62.1374 13.6126C62.1939 13.8292 62.1636 14.0593 62.0528 14.2538C61.9421 14.4484 61.7597 14.5919 61.5446 14.6539C61.3295 14.7159 61.0987 14.6914 60.9014 14.5857C60.7041 14.4799 60.5559 14.3013 60.4885 14.0878C60.4342 13.9443 60.0072 13.5821 59.4829 13.3597C59.3215 13.2912 59.044 13.2652 58.7198 13.2853C57.6257 13.3597 56.6134 14.5817 56.6773 15.7479C56.8045 18.0618 59.8622 19.9778 61.6889 21.1232C61.8469 21.2222 61.9684 21.3698 62.035 21.5439C62.1016 21.718 62.1097 21.9091 62.0581 22.0882C62.0065 22.2673 61.898 22.4247 61.749 22.5367C61.6001 22.6487 61.4186 22.7092 61.2323 22.709V22.7112Z" fill="#BD967A"/>
<path d="M61.2322 22.7834C61.058 22.7834 60.8873 22.7341 60.7399 22.6413C58.6194 21.3122 55.07 19.0876 54.8915 15.8484C54.7755 13.7182 56.5405 11.6483 58.5948 11.5047C59.2151 11.4609 59.7514 11.5323 60.1813 11.7145C60.4639 11.8342 61.892 12.4895 62.2066 13.594C62.2741 13.831 62.2449 14.0851 62.1255 14.3007C62.006 14.5162 61.8059 14.6756 61.5692 14.7439C61.4857 14.7678 61.3994 14.78 61.3126 14.7803C61.1116 14.7796 60.9162 14.7141 60.7554 14.5935C60.5946 14.4729 60.477 14.3037 60.42 14.1109C60.3776 13.9994 59.9775 13.6498 59.4531 13.4282C59.3044 13.3657 59.0351 13.3396 58.7227 13.362C57.6636 13.4363 56.6848 14.6182 56.7458 15.7487C56.8715 18.0262 59.9091 19.9295 61.7239 21.0675C61.8952 21.1745 62.0269 21.3345 62.0992 21.523C62.1715 21.7116 62.1805 21.9186 62.1247 22.1128C62.0689 22.3069 61.9514 22.4775 61.79 22.5989C61.6285 22.7203 61.432 22.7859 61.23 22.7856L61.2322 22.7834ZM58.9421 11.6349C58.8336 11.6349 58.719 11.6386 58.6052 11.6468C56.6238 11.7852 54.922 13.7844 55.0351 15.8402C55.2091 19.0065 58.719 21.2058 60.8157 22.5201C60.9926 22.6311 61.2063 22.6672 61.4098 22.6206C61.6133 22.574 61.7899 22.4485 61.9009 22.2717C62.0119 22.0948 62.048 21.8812 62.0014 21.6776C61.9548 21.4741 61.8293 21.2975 61.6525 21.1865C59.8124 20.0336 56.7361 18.105 56.6067 15.7569C56.5412 14.555 57.5855 13.298 58.716 13.2192C59.056 13.1961 59.3401 13.2244 59.5119 13.2935C60.0177 13.5077 60.4885 13.8826 60.5532 14.0619C60.6001 14.2266 60.6994 14.3717 60.8359 14.4751C60.9725 14.5785 61.139 14.6348 61.3103 14.6353C61.3838 14.6354 61.4568 14.6254 61.5275 14.6056C61.6269 14.577 61.7196 14.5292 61.8005 14.4649C61.8813 14.4005 61.9487 14.3209 61.9988 14.2304C62.0489 14.14 62.0807 14.0407 62.0923 13.938C62.104 13.8353 62.0953 13.7313 62.0668 13.632C61.7692 12.5907 60.3955 11.9599 60.1233 11.8469C59.7476 11.6984 59.346 11.6263 58.9421 11.6349Z" fill="#BD967A"/>
<path d="M18.32 73.955C19.45 73.955 20.34 73.455 20.73 72.595L19.52 71.935C19.23 72.455 18.8 72.675 18.31 72.675C17.52 72.675 16.9 72.125 16.9 71.185C16.9 70.245 17.52 69.695 18.31 69.695C18.8 69.695 19.23 69.925 19.52 70.435L20.73 69.785C20.34 68.905 19.45 68.415 18.32 68.415C16.57 68.415 15.32 69.565 15.32 71.185C15.32 72.805 16.57 73.955 18.32 73.955ZM23.1182 69.205V68.495H21.6282V73.875H23.1882V71.335C23.1882 70.305 23.7582 69.835 24.6182 69.835C24.7382 69.835 24.8382 69.845 24.9682 69.855V68.415C24.1382 68.415 23.4982 68.685 23.1182 69.205ZM29.7948 68.495V71.155C29.7948 72.145 29.2748 72.605 28.5548 72.605C27.8648 72.605 27.4648 72.205 27.4648 71.305V68.495H25.9048V71.535C25.9048 73.195 26.8548 73.955 28.2048 73.955C28.8648 73.955 29.4648 73.705 29.8748 73.235V73.875H31.3548V68.495H29.7948ZM38.0701 71.205C38.0701 69.475 36.8501 68.415 35.2701 68.415C33.6301 68.415 32.4001 69.575 32.4001 71.185C32.4001 72.785 33.6101 73.955 35.4701 73.955C36.4401 73.955 37.1901 73.655 37.6901 73.085L36.8601 72.185C36.4901 72.535 36.0801 72.705 35.5101 72.705C34.6901 72.705 34.1201 72.295 33.9701 71.625H38.0401C38.0501 71.495 38.0701 71.325 38.0701 71.205ZM35.2801 69.595C35.9801 69.595 36.4901 70.035 36.6001 70.715H33.9501C34.0601 70.025 34.5701 69.595 35.2801 69.595ZM39.1087 73.875H40.6687V66.455H39.1087V73.875ZM45.5571 72.515C45.3871 72.645 45.1571 72.715 44.9271 72.715C44.5071 72.715 44.2571 72.465 44.2571 72.005V69.815H45.5971V68.615H44.2571V67.305H42.6971V68.615H41.8671V69.815H42.6971V72.025C42.6971 73.305 43.4371 73.955 44.7071 73.955C45.1871 73.955 45.6571 73.845 45.9771 73.615L45.5571 72.515ZM50.5952 68.495L49.0752 72.145L47.5652 68.495H45.9552L48.2852 73.915L48.2652 73.965C48.0552 74.445 47.8152 74.635 47.3852 74.635C47.0752 74.635 46.7452 74.505 46.5052 74.295L45.9352 75.405C46.2852 75.715 46.8852 75.895 47.4352 75.895C48.4052 75.895 49.1452 75.505 49.6652 74.205L52.0952 68.495H50.5952ZM57.2738 68.385C57.2738 67.855 57.5238 67.605 57.9838 67.605C58.2238 67.605 58.4438 67.675 58.6138 67.795L59.0238 66.665C58.7338 66.465 58.2738 66.375 57.8338 66.375C56.4938 66.375 55.7538 67.165 55.7538 68.375V68.615H54.9238V69.815H55.7538V73.875H57.3138V69.815H58.6538V68.615H57.2738V68.385ZM61.7217 69.205V68.495H60.2317V73.875H61.7917V71.335C61.7917 70.305 62.3617 69.835 63.2217 69.835C63.3417 69.835 63.4417 69.845 63.5717 69.855V68.415C62.7417 68.415 62.1017 68.685 61.7217 69.205ZM69.7205 71.205C69.7205 69.475 68.5005 68.415 66.9205 68.415C65.2805 68.415 64.0505 69.575 64.0505 71.185C64.0505 72.785 65.2605 73.955 67.1205 73.955C68.0905 73.955 68.8405 73.655 69.3405 73.085L68.5105 72.185C68.1405 72.535 67.7305 72.705 67.1605 72.705C66.3405 72.705 65.7705 72.295 65.6205 71.625H69.6905C69.7005 71.495 69.7205 71.325 69.7205 71.205ZM66.9305 69.595C67.6305 69.595 68.1405 70.035 68.2505 70.715H65.6005C65.7105 70.025 66.2205 69.595 66.9305 69.595ZM76.0291 71.205C76.0291 69.475 74.8091 68.415 73.2291 68.415C71.5891 68.415 70.3591 69.575 70.3591 71.185C70.3591 72.785 71.5691 73.955 73.4291 73.955C74.3991 73.955 75.1491 73.655 75.6491 73.085L74.8191 72.185C74.4491 72.535 74.0391 72.705 73.4691 72.705C72.6491 72.705 72.0791 72.295 71.9291 71.625H75.9991C76.0091 71.495 76.0291 71.325 76.0291 71.205ZM73.2391 69.595C73.9391 69.595 74.4491 70.035 74.5591 70.715H71.9091C72.0191 70.025 72.5291 69.595 73.2391 69.595Z" fill="#463B32"/>
</g>
<defs>
<clipPath id="clip0_758_1642">
<rect width="92.4583" height="78" fill="white"/>
</clipPath>
</defs>
</svg>
