<svg width="100px" viewBox="0 0 61 60" fill="none" xmlns="http://www.w3.org/2000/svg">
                    <path
                        d="M15.4991 30.2392C15.4991 29.7475 15.1143 28.9559 14.5108 28.9559H10.44C10.1757 28.9559 9.9483 29.2386 9.73871 29.4476C9.52912 29.6566 9.45044 30.042 9.4529 30.2804C9.4529 30.4034 9.49961 33.2983 11.7357 36.1459C13.7228 38.677 17.8993 41.7047 26.5073 41.7047C26.5503 41.7042 26.5925 41.693 26.6303 41.6724C26.668 41.6517 26.7 41.6221 26.7237 41.5861C26.7353 41.5809 26.7466 41.575 26.7575 41.5683C26.7971 41.5635 26.8347 41.548 26.8663 41.5234C27.0506 41.5234 27.2553 41.5068 27.4274 41.339C27.6278 41.1399 27.7163 40.9401 27.7145 40.6906C27.7147 40.4479 27.6196 40.2147 27.4496 40.0415C28.2379 40.2095 29.063 40.3437 29.9247 40.4441C30.0455 40.457 30.1676 40.4474 30.2849 40.4158C30.4885 40.4132 30.692 40.4247 30.894 40.4503C30.9318 40.45 30.9695 40.4477 31.0071 40.4435C32.0086 40.3304 33.0025 40.1584 33.9838 39.9284C33.7115 40.0753 33.5425 40.2972 33.54 40.6254C33.54 41.1417 33.9408 41.4699 34.5234 41.4699L34.7472 41.5062C43.3663 41.5062 47.5366 38.5191 49.517 35.9966C51.7377 33.1692 51.7973 30.3032 51.7985 30.1815C51.7985 29.9055 51.6909 29.5379 51.5133 29.3572C51.3099 29.1513 51.0671 28.9583 50.8114 28.9583H46.7437C46.1875 28.9583 45.756 29.6855 45.756 30.2417C45.756 30.798 46.1862 31.5251 46.7437 31.5251H49.6743C49.4721 32.1668 48.9982 33.7255 47.9201 35.0802C45.4812 38.1386 40.9255 39.7588 34.7441 39.7588C34.7043 39.759 34.6645 39.7612 34.6249 39.7656C38.5881 38.701 41.5162 36.6924 43.3527 33.7648C47.4899 27.1765 44.5304 18.4406 44.4019 18.0718C44.3553 17.9378 44.2803 17.8154 44.1821 17.7129C44.0839 17.6105 43.9647 17.5304 43.8328 17.4781C43.7007 17.4275 43.5594 17.4052 43.4182 17.4128C43.2769 17.4203 43.1388 17.4574 43.0128 17.5217C43.0128 17.5217 41.5033 18.3109 39.9974 19.1075C39.2599 19.4966 38.4983 19.9022 37.9267 20.2139C37.639 20.3687 37.4012 20.5003 37.234 20.5943C36.5204 20.9988 36.3047 21.4899 36.5911 22.0547C36.7097 22.288 36.9161 22.4647 37.1649 22.5461C37.4136 22.6274 37.6845 22.6068 37.9181 22.4886C37.9741 22.4609 38.0269 22.4271 38.0754 22.3878C38.4553 22.1586 40.6969 20.9686 42.8537 19.8365C43.3933 22.0018 44.5433 28.1581 41.6803 32.7175C40.1388 35.1717 37.6292 36.8896 34.2124 37.83C36.1701 35.8829 38.2168 32.8779 38.1406 28.8631C38.0023 21.6484 31.441 16.0208 31.162 15.7848C30.9834 15.6356 30.7578 15.5546 30.5252 15.5561C30.2709 15.5547 30.0257 15.6505 29.8399 15.8241C24.6111 20.8359 22.27 25.7389 22.8815 30.3941C23.3167 33.7021 25.1649 36.2105 26.849 37.862C23.3628 36.9302 20.8065 35.2019 19.2447 32.7187C16.3823 28.1661 17.5311 22.0012 18.0689 19.834C20.1685 20.9367 22.471 22.1586 22.8311 22.3749C22.8848 22.4178 22.9427 22.455 23.0039 22.4862C23.1421 22.5558 23.2947 22.5922 23.4495 22.5925C23.6323 22.593 23.8116 22.5425 23.9672 22.4468C24.1229 22.351 24.2488 22.2137 24.3309 22.0504C24.6173 21.4862 24.4009 20.9951 23.6873 20.5894C23.5202 20.496 23.2823 20.3651 22.9953 20.2096C22.5189 19.9514 21.8606 19.5998 20.9233 19.1032C19.7555 18.4855 18.5877 17.8739 18.1206 17.6281L17.914 17.5193H17.9091C17.7829 17.455 17.6445 17.418 17.503 17.4107C17.3616 17.4033 17.2201 17.4259 17.088 17.4769C16.956 17.5293 16.837 17.6095 16.7389 17.7121C16.6408 17.8146 16.5659 17.9371 16.5194 18.0712C16.3916 18.44 13.4315 27.174 17.5686 33.7642C19.3953 36.6721 22.2983 38.6746 26.2252 39.744C20.0499 39.666 15.7149 38.1054 13.3307 35.1183C12.3399 33.8742 11.8395 32.4858 11.5894 31.5232H14.5108C15.1143 31.5226 15.4991 30.7297 15.4991 30.2392ZM30.5418 17.9004C32.0219 19.365 36.0699 23.8286 36.167 28.8975C36.2647 33.999 32.0188 37.2965 30.5215 38.2972C29.1908 37.4207 25.42 34.5718 24.8392 30.1372C24.3395 26.3338 26.2578 22.2176 30.5418 17.9004Z"
                        fill="#9C6137" fill-opacity="0.69" />
                    <path
                        d="M3.16944 40.7398C3.3469 40.7397 3.52163 40.6961 3.67833 40.6128C3.83503 40.5295 3.96893 40.4091 4.06829 40.262C4.16765 40.115 4.22944 39.9459 4.24826 39.7694C4.26707 39.5929 4.24234 39.4146 4.17622 39.2499C2.51436 35.0943 1.8711 30.6014 2.3002 26.1465C2.7293 21.6916 4.21829 17.4041 6.64276 13.6421C6.72017 13.5224 6.77324 13.3887 6.79895 13.2484C6.82466 13.1082 6.82249 12.9643 6.79259 12.825C6.76268 12.6856 6.70561 12.5535 6.62464 12.4361C6.54368 12.3188 6.44039 12.2186 6.32069 12.1412C6.20099 12.0638 6.06722 12.0107 5.92701 11.985C5.7868 11.9593 5.64289 11.9615 5.50352 11.9914C5.36414 12.0213 5.23202 12.0783 5.1147 12.1593C4.99738 12.2403 4.89715 12.3436 4.81974 12.4633C2.20644 16.5173 0.60153 21.138 0.139167 25.9391C-0.323196 30.7403 0.370423 35.5823 2.16204 40.0606C2.24301 40.2614 2.38221 40.4334 2.56174 40.5544C2.74127 40.6755 2.95292 40.74 3.16944 40.7398Z"
                        fill="#463B32" />
                    <path
                        d="M58.1582 29.2872C58.1079 32.6301 57.4571 35.9368 56.2368 39.0495C56.1321 39.3175 56.138 39.6161 56.2532 39.8798C56.3684 40.1435 56.5836 40.3506 56.8515 40.4558C56.9776 40.5059 57.1122 40.5315 57.2479 40.5314C57.4661 40.5313 57.6793 40.4656 57.8596 40.3427C58.04 40.2198 58.1791 40.0455 58.259 39.8424C60.0582 35.2413 60.702 30.2693 60.1341 25.3617C59.5662 20.454 57.8039 15.7605 55.0014 11.6919C54.9233 11.5681 54.821 11.4613 54.7006 11.3781C54.5802 11.2949 54.4442 11.2369 54.3008 11.2076C54.1574 11.1783 54.0095 11.1783 53.8661 11.2077C53.7227 11.237 53.5867 11.2951 53.4664 11.3784C53.346 11.4617 53.2438 11.5685 53.1658 11.6924C53.0878 11.8162 53.0356 11.9546 53.0125 12.0991C52.9894 12.2437 52.9958 12.3914 53.0312 12.5334C53.0667 12.6754 53.1306 12.8088 53.2189 12.9255C56.5425 17.7254 58.2706 23.4499 58.1582 29.2872Z"
                        fill="#463B32" />
                    <path
                        d="M13.0923 10.8688C14.537 9.88222 14.9211 8.1952 13.9865 6.82654C13.0518 5.45788 11.3406 5.20174 9.89594 6.18835C8.45124 7.17497 8.05869 8.86776 8.99338 10.2364C9.92807 11.6051 11.6476 11.8555 13.0923 10.8688ZM12.3538 9.78743C11.6948 10.2375 10.8648 10.1105 10.3282 9.32481C9.79166 8.5391 9.97547 7.7198 10.6345 7.26977C11.2934 6.81973 12.115 6.95244 12.6516 7.73815C13.1882 8.52386 13.0128 9.33739 12.3538 9.78743Z"
                        fill="#463B32" />
                    <path
                        d="M16.0068 3.72352L15.7145 3.05856L14.319 3.67201L16.534 8.71075L17.9951 8.06848L16.9493 5.6896C16.5253 4.72493 16.8656 4.05007 17.6711 3.696C17.7835 3.64659 17.8812 3.61479 18.0071 3.57063L17.4142 2.22197C16.6369 2.56369 16.1486 3.08006 16.0068 3.72352Z"
                        fill="#463B32" />
                    <path
                        d="M23.4193 0.66066L23.5746 1.35246C23.0465 0.923384 22.3686 0.812279 21.6167 0.981085C20.1228 1.31645 19.1515 2.61922 19.5048 4.19331C19.8582 5.76741 21.2932 6.53 22.7871 6.19464C23.4889 6.03709 24.0309 5.68372 24.3407 5.14026L24.3925 5.37086C24.6108 6.34339 24.2421 6.95273 23.1392 7.20031C22.4474 7.35562 21.6414 7.2838 21.0969 7.01637L20.7274 8.27883C21.4693 8.62831 22.5182 8.65614 23.5408 8.42656C25.4859 7.98992 26.3616 6.82444 25.9115 4.81923L24.9032 0.327549L23.4193 0.66066ZM22.8098 4.84153C21.9876 5.02609 21.2668 4.62975 21.089 3.83769C20.9112 3.04564 21.3934 2.37921 22.2156 2.19465C23.0377 2.01009 23.7485 2.40867 23.9263 3.20073C24.1041 3.99279 23.6319 4.65697 22.8098 4.84153Z"
                        fill="#463B32" />
                    <path
                        d="M29.5994 0.00106568C28.7195 0.0186624 27.8342 0.271769 27.2391 0.71353L27.8344 1.81722C28.227 1.49208 28.8267 1.28563 29.4099 1.27397C30.2693 1.25678 30.6865 1.64759 30.7002 2.33305L29.4316 2.35842C27.7537 2.39197 27.0818 3.08091 27.1012 4.05282C27.1203 5.00428 27.9019 5.70508 29.191 5.6793C29.9992 5.66313 30.5668 5.38568 30.8534 4.87844L30.8671 5.56389L32.3608 5.53402L32.298 2.3932C32.2647 0.725602 31.2772 -0.0324909 29.5994 0.00106568ZM29.5685 4.5971C29.0058 4.60835 28.6628 4.3491 28.6549 3.95011C28.6475 3.5818 28.8773 3.30087 29.6241 3.28593L30.7188 3.26404L30.7301 3.82673C30.5559 4.33171 30.1005 4.58646 29.5685 4.5971Z"
                        fill="#463B32" />
                    <path
                        d="M38.1808 0.966814C37.4515 0.805678 36.767 0.916357 36.2459 1.28318L36.3849 0.653823L34.8965 0.324928L33.7089 5.69939L35.2673 6.04374L35.8545 3.38648C36.073 2.3975 36.714 2.05717 37.4632 2.22272C38.1525 2.37502 38.4638 2.86291 38.2718 3.73201L37.6449 6.56909L39.2033 6.91344L39.8831 3.83661C40.2451 2.19829 39.4495 1.24715 38.1808 0.966814Z"
                        fill="#463B32" />
                    <path
                        d="M43.6046 1.977C44.1565 2.20249 44.6753 1.99255 44.8774 1.4978C45.064 1.0411 44.8329 0.54696 44.2811 0.321475C43.7292 0.0959912 43.2104 0.305925 43.0199 0.772137C42.8294 1.23835 43.0528 1.75152 43.6046 1.977ZM40.4793 7.50617L41.9636 8.11265L44.0552 2.99383L42.5709 2.38736L40.4793 7.50617Z"
                        fill="#463B32" />
                    <path
                        d="M45.5607 10.0669C46.5549 10.6565 47.5989 10.681 48.3907 10.1278L47.6705 8.91576C47.144 9.22196 46.6509 9.19117 46.2198 8.9355C45.5247 8.52331 45.2662 7.7159 45.7566 6.88885C46.2471 6.06181 47.0795 5.90139 47.7746 6.31358C48.2057 6.56925 48.4641 6.99597 48.4531 7.596L49.8569 7.65544C49.9729 6.67769 49.4455 5.7822 48.4513 5.19261C46.9116 4.27952 45.2117 4.63913 44.3665 6.06447C43.5212 7.4898 44.021 9.15382 45.5607 10.0669Z"
                        fill="#463B32" />
                    <path
                        d="M9.39805 40.8313C9.66507 41.3594 10.1906 41.5396 10.6641 41.3002C11.1011 41.0792 11.2494 40.5584 10.9824 40.0303C10.7153 39.5022 10.1898 39.322 9.74364 39.5476C9.29748 39.7732 9.13103 40.3032 9.39805 40.8313ZM3.4574 42.9432L4.17559 44.3637L9.07424 41.8868L8.35605 40.4664L3.4574 42.9432Z"
                        fill="#463B32" />
                    <path
                        d="M11.5593 45.3726C11.1043 44.7804 10.5087 44.4252 9.87376 44.3712L10.3848 43.9785L9.45601 42.7698L5.09164 46.1235L6.0641 47.389L8.22195 45.7308C9.02505 45.1137 9.73483 45.265 10.2024 45.8734C10.6325 46.4332 10.5574 47.007 9.85159 47.5493L7.54773 49.3197L8.52018 50.5852L11.0187 48.6652C12.3491 47.6429 12.351 46.4028 11.5593 45.3726Z"
                        fill="#463B32" />
                    <path
                        d="M16.7938 50.3361L16.3674 50.8987C16.3545 50.2213 16.0035 49.6344 15.392 49.1709C14.1771 48.2501 12.5622 48.3483 11.592 49.6284C10.6218 50.9085 10.9636 52.4898 12.1785 53.4106C12.7492 53.8432 13.3662 54.0284 13.9786 53.9149L13.8365 54.1024C13.237 54.8933 12.5367 55.0043 11.6398 54.3246C11.0772 53.8982 10.614 53.239 10.4676 52.6531L9.27 53.1831C9.48086 53.9719 10.1335 54.7876 10.9652 55.4179C12.5469 56.6168 13.996 56.5341 15.232 54.9034L18.0005 51.2507L16.7938 50.3361ZM13.2223 52.5586C12.5537 52.0518 12.392 51.2489 12.8802 50.6048C13.3684 49.9607 14.1851 49.8993 14.8537 50.4061C15.5223 50.9128 15.6758 51.7095 15.1876 52.3537C14.6994 52.9978 13.8908 53.0653 13.2223 52.5586Z"
                        fill="#463B32" />
                    <path
                        d="M19.9339 52.891L20.2385 52.2316L18.8546 51.5924L16.5468 56.5893L17.9957 57.2585L19.0853 54.8993C19.5271 53.9427 20.2581 53.7507 21.0569 54.1196C21.1683 54.1711 21.2569 54.2232 21.3734 54.2883L21.9911 52.9508C21.2202 52.5948 20.51 52.571 19.9339 52.891Z"
                        fill="#463B32" />
                    <path
                        d="M26.9631 57.1414C27.3654 55.4178 26.3965 54.078 24.8224 53.7106C23.1885 53.3292 21.6933 54.1988 21.3188 55.8028C20.9467 57.3968 21.8801 58.8439 23.7332 59.2765C24.6995 59.5021 25.5165 59.3776 26.1472 58.926L25.5296 57.8363C25.0796 58.099 24.6316 58.173 24.0637 58.0404C23.2468 57.8497 22.7743 57.3087 22.7806 56.6063L26.8355 57.5529C26.8757 57.4257 26.9352 57.261 26.9631 57.1414ZM24.5579 54.8885C25.2553 55.0513 25.6611 55.6083 25.6125 56.3113L22.9724 55.695C23.2424 55.0332 23.8505 54.7234 24.5579 54.8885Z"
                        fill="#463B32" />
                    <path
                        d="M32.088 52.284L32.1602 54.9533C31.7492 54.5141 31.1707 54.3148 30.4957 54.3331C28.9412 54.3751 27.7746 55.512 27.8213 57.2404C27.8681 58.9687 29.0945 60.0409 30.649 59.9988C31.3854 59.9789 31.9619 59.7279 32.3478 59.2364L32.3649 59.8705L33.8888 59.8293L33.6834 52.2409L32.088 52.284ZM30.8897 58.6823C30.092 58.7039 29.4629 58.1478 29.4372 57.1967C29.4114 56.2456 30.0096 55.6562 30.8073 55.6347C31.5947 55.6134 32.2239 56.1695 32.2496 57.1206C32.2753 58.0717 31.6772 58.661 30.8897 58.6823Z"
                        fill="#463B32" />
                    <path
                        d="M35.2702 53.1084C35.8499 52.9817 36.1567 52.5167 36.043 51.9969C35.9382 51.5172 35.4697 51.2426 34.89 51.3693C34.3104 51.496 34.0036 51.961 34.1106 52.4508C34.2177 52.9405 34.6905 53.2351 35.2702 53.1084ZM35.8298 59.4055L37.389 59.0647L36.2136 53.6876L34.6544 54.0284L35.8298 59.4055Z"
                        fill="#463B32" />
                    <path
                        d="M43.2043 54.0491C42.5279 52.4136 40.96 51.8885 39.4663 52.5063C37.9158 53.1476 37.2066 54.7252 37.8361 56.2473C38.4617 57.7599 40.0631 58.3929 41.8216 57.6656C42.7386 57.2863 43.3304 56.7094 43.5802 55.975L42.4436 55.4487C42.2306 55.9243 41.9095 56.2453 41.3706 56.4682C40.5954 56.7888 39.8962 56.6241 39.4924 56.0493L43.3402 54.4579C43.2988 54.3311 43.2512 54.1625 43.2043 54.0491ZM39.9371 53.618C40.5989 53.3442 41.2531 53.5608 41.623 54.1607L39.1177 55.1968C38.9519 54.5015 39.2659 53.8956 39.9371 53.618Z"
                        fill="#463B32" />
                    <path
                        d="M45.1856 49.1414C44.5904 49.5925 44.2312 50.1856 44.1731 50.8203L43.7837 50.3066L42.5689 51.2274L45.8936 55.6139L47.1655 54.6498L45.5217 52.481C44.9099 51.6739 45.0659 50.9651 45.6774 50.5016C46.24 50.0752 46.8133 50.1542 47.351 50.8635L49.106 53.1791L50.3779 52.215L48.4746 49.7038C47.4611 48.3666 46.2211 48.3565 45.1856 49.1414Z"
                        fill="#463B32" />
                    <path
                        d="M52.7206 47.4505C52.7086 47.6691 52.6101 47.8945 52.4572 48.0734C52.1779 48.3999 51.8172 48.4281 51.4596 48.1222L49.7568 46.6658L50.6479 45.6239L49.7148 44.8259L48.8237 45.8678L47.8052 44.9967L46.7678 46.2096L47.7864 47.0808L47.2344 47.7261L48.1674 48.5241L48.7194 47.8788L50.4377 49.3484C51.433 50.1996 52.4305 50.0565 53.275 49.069C53.5942 48.6958 53.8212 48.2572 53.8552 47.8554L52.7206 47.4505Z"
                        fill="#463B32" />
                    <path
                        d="M56.0352 45.1188C56.8587 43.6858 56.7025 42.4948 55.8124 41.9833C53.9255 40.8988 53.0552 44.2468 52.2363 43.7762C51.9871 43.633 51.9447 43.2534 52.3028 42.6304C52.5535 42.1942 52.9136 41.7737 53.4517 41.4554L52.7297 40.4247C52.2018 40.7252 51.6311 41.3681 51.2525 42.0268C50.4494 43.4242 50.6197 44.6113 51.5275 45.1331C53.4412 46.2329 54.3026 42.8798 55.0859 43.33C55.3529 43.4834 55.3839 43.8209 55.0156 44.4618C54.678 45.0492 54.1176 45.5915 53.5962 45.8602L54.327 46.896C54.8765 46.6197 55.5697 45.9287 56.0352 45.1188Z"
                        fill="#463B32" />
                </svg>