<svg width="141" height="222" viewBox="0 0 141 222" fill="none" xmlns="http://www.w3.org/2000/svg">
<path fill-rule="evenodd" clip-rule="evenodd" d="M112.268 84.37C120.417 112.037 101.653 138.989 83.5351 161.431C66.7875 182.176 45.0512 199.818 18.4023 200.64C-7.91874 201.451 -30.1882 184.927 -47.9481 165.484C-66.4178 145.263 -83.3111 120.944 -79.1125 93.882C-74.8061 66.1251 -52.9039 44.4303 -27.3558 32.756C-3.70317 21.9478 22.3156 27.3711 46.7074 36.3879C73.4318 46.267 104.218 57.0389 112.268 84.37Z" fill="#F3EBE5"/>
<g opacity="0.5">
<circle cx="68.4999" cy="89.5" r="2.5" transform="rotate(90 68.4999 89.5)" fill="white"/>
<circle cx="56.4999" cy="89.5" r="2.5" transform="rotate(90 56.4999 89.5)" fill="white"/>
<circle cx="44.4999" cy="89.5" r="2.5" transform="rotate(90 44.4999 89.5)" fill="white"/>
<circle cx="32.4999" cy="89.5" r="2.5" transform="rotate(90 32.4999 89.5)" fill="white"/>
<circle cx="20.4999" cy="89.5" r="2.5" transform="rotate(90 20.4999 89.5)" fill="white"/>
<circle cx="8.49988" cy="89.5" r="2.5" transform="rotate(90 8.49988 89.5)" fill="white"/>
<circle cx="68.4999" cy="123.5" r="2.5" transform="rotate(90 68.4999 123.5)" fill="white"/>
<circle cx="56.4999" cy="123.5" r="2.5" transform="rotate(90 56.4999 123.5)" fill="white"/>
<circle cx="44.4999" cy="123.5" r="2.5" transform="rotate(90 44.4999 123.5)" fill="white"/>
<circle cx="32.4999" cy="123.5" r="2.5" transform="rotate(90 32.4999 123.5)" fill="white"/>
<circle cx="20.4999" cy="123.5" r="2.5" transform="rotate(90 20.4999 123.5)" fill="white"/>
<circle cx="8.49988" cy="123.5" r="2.5" transform="rotate(90 8.49988 123.5)" fill="white"/>
<circle cx="68.4999" cy="106.5" r="2.5" transform="rotate(90 68.4999 106.5)" fill="white"/>
<circle cx="56.4999" cy="106.5" r="2.5" transform="rotate(90 56.4999 106.5)" fill="white"/>
<circle cx="44.4999" cy="106.5" r="2.5" transform="rotate(90 44.4999 106.5)" fill="white"/>
<circle cx="32.4999" cy="106.5" r="2.5" transform="rotate(90 32.4999 106.5)" fill="white"/>
<circle cx="20.4999" cy="106.5" r="2.5" transform="rotate(90 20.4999 106.5)" fill="white"/>
<circle cx="8.49988" cy="106.5" r="2.5" transform="rotate(90 8.49988 106.5)" fill="white"/>
<circle cx="68.4999" cy="140.5" r="2.5" transform="rotate(90 68.4999 140.5)" fill="white"/>
<circle cx="56.4999" cy="140.5" r="2.5" transform="rotate(90 56.4999 140.5)" fill="white"/>
<circle cx="44.4999" cy="140.5" r="2.5" transform="rotate(90 44.4999 140.5)" fill="white"/>
<circle cx="32.4999" cy="140.5" r="2.5" transform="rotate(90 32.4999 140.5)" fill="white"/>
<circle cx="20.4999" cy="140.5" r="2.5" transform="rotate(90 20.4999 140.5)" fill="white"/>
<circle cx="8.49988" cy="140.5" r="2.5" transform="rotate(90 8.49988 140.5)" fill="white"/>
</g>
</svg>
