<svg width="50" height="40" viewBox="0 0 50 40" fill="none" xmlns="http://www.w3.org/2000/svg">
<circle cx="3.19545" cy="3.19546" r="2.31373" transform="rotate(57.4261 3.19545 3.19546)" fill="#CDAF9A"/>
<circle cx="14.098" cy="3.3439" r="2.31373" transform="rotate(57.4261 14.098 3.3439)" fill="#CDAF9A"/>
<circle cx="24.9997" cy="3.3439" r="2.31373" transform="rotate(57.4261 24.9997 3.3439)" fill="#CDAF9A"/>
<circle cx="35.9028" cy="3.3439" r="2.31373" transform="rotate(57.4261 35.9028 3.3439)" fill="#CDAF9A"/>
<circle cx="46.8045" cy="3.3439" r="2.31373" transform="rotate(57.4261 46.8045 3.3439)" fill="#CDAF9A"/>
<circle r="2.31373" transform="matrix(0.538377 0.842704 -0.842691 0.538397 3.19544 11.4182)" fill="#CDAF9A"/>
<circle cx="14.098" cy="11.5666" r="2.31373" transform="rotate(57.4261 14.098 11.5666)" fill="#CDAF9A"/>
<circle cx="24.9997" cy="11.5666" r="2.31373" transform="rotate(57.4261 24.9997 11.5666)" fill="#CDAF9A"/>
<circle cx="35.9028" cy="11.5666" r="2.31373" transform="rotate(57.4261 35.9028 11.5666)" fill="#CDAF9A"/>
<circle cx="46.8045" cy="11.5666" r="2.31373" transform="rotate(57.4261 46.8045 11.5666)" fill="#CDAF9A"/>
<circle cx="3.19545" cy="19.8947" r="2.31373" transform="rotate(57.4261 3.19545 19.8947)" fill="#CDAF9A"/>
<circle r="2.31373" transform="matrix(0.538369 0.842709 -0.842687 0.538404 14.0979 20.0432)" fill="#CDAF9A"/>
<circle r="2.31373" transform="matrix(0.538374 0.842706 -0.84269 0.5384 24.9997 20.0432)" fill="#CDAF9A"/>
<circle r="2.31373" transform="matrix(0.538369 0.842709 -0.842687 0.538404 35.9028 20.0432)" fill="#CDAF9A"/>
<circle r="2.31373" transform="matrix(0.538374 0.842706 -0.84269 0.5384 46.8045 20.0432)" fill="#CDAF9A"/>
<circle r="2.31373" transform="matrix(0.538374 0.842706 -0.84269 0.5384 3.19544 28.3791)" fill="#CDAF9A"/>
<circle r="2.31373" transform="matrix(0.538369 0.842709 -0.842687 0.538404 14.0979 28.5197)" fill="#CDAF9A"/>
<circle r="2.31373" transform="matrix(0.538374 0.842706 -0.84269 0.5384 3.19544 36.3088)" fill="#CDAF9A"/>
<circle r="2.31373" transform="matrix(0.538405 0.842686 -0.842709 0.538369 14.098 36.4493)" fill="#CDAF9A"/>
<circle r="2.31373" transform="matrix(0.538403 0.842687 -0.842708 0.53837 24.9997 36.4493)" fill="#CDAF9A"/>
<circle r="2.31373" transform="matrix(0.538405 0.842686 -0.842709 0.538369 35.9028 36.4493)" fill="#CDAF9A"/>
<circle r="2.31373" transform="matrix(0.538403 0.842687 -0.842708 0.53837 46.8045 36.4493)" fill="#CDAF9A"/>
<circle r="2.31373" transform="matrix(0.538374 0.842706 -0.84269 0.5384 24.9997 28.5197)" fill="#CDAF9A"/>
<circle r="2.31373" transform="matrix(0.538369 0.842709 -0.842687 0.538404 35.9028 28.5197)" fill="#CDAF9A"/>
<circle r="2.31373" transform="matrix(0.538374 0.842706 -0.84269 0.5384 46.8045 28.5197)" fill="#CDAF9A"/>
</svg>
