<svg width="99" height="100" viewBox="0 0 99 100" fill="none" xmlns="http://www.w3.org/2000/svg">
<g opacity="0.5">
<circle cx="98.5" cy="35.5" r="2.5" transform="rotate(90 98.5 35.5)" fill="#D0AF94"/>
<circle cx="86.5" cy="35.5" r="2.5" transform="rotate(90 86.5 35.5)" fill="#D0AF94"/>
<circle cx="74.5" cy="35.5" r="2.5" transform="rotate(90 74.5 35.5)" fill="#D0AF94"/>
<circle cx="62.5" cy="35.5" r="2.5" transform="rotate(90 62.5 35.5)" fill="#D0AF94"/>
<circle cx="50.5" cy="35.5" r="2.5" transform="rotate(90 50.5 35.5)" fill="#D0AF94"/>
<circle cx="38.5" cy="35.5" r="2.5" transform="rotate(90 38.5 35.5)" fill="#D0AF94"/>
<circle cx="26.5" cy="35.5" r="2.5" transform="rotate(90 26.5 35.5)" fill="#D0AF94"/>
<circle cx="14.5" cy="35.5" r="2.5" transform="rotate(90 14.5 35.5)" fill="#D0AF94"/>
<circle cx="98.5" cy="69.5" r="2.5" transform="rotate(90 98.5 69.5)" fill="#D0AF94"/>
<circle cx="86.5" cy="69.5" r="2.5" transform="rotate(90 86.5 69.5)" fill="#D0AF94"/>
<circle cx="74.5" cy="69.5" r="2.5" transform="rotate(90 74.5 69.5)" fill="#D0AF94"/>
<circle cx="62.5" cy="69.5" r="2.5" transform="rotate(90 62.5 69.5)" fill="#D0AF94"/>
<circle cx="50.5" cy="69.5" r="2.5" transform="rotate(90 50.5 69.5)" fill="#D0AF94"/>
<circle cx="38.5" cy="69.5" r="2.5" transform="rotate(90 38.5 69.5)" fill="#D0AF94"/>
<circle cx="26.5" cy="69.5" r="2.5" transform="rotate(90 26.5 69.5)" fill="#D0AF94"/>
<circle cx="14.5" cy="69.5" r="2.5" transform="rotate(90 14.5 69.5)" fill="#D0AF94"/>
<circle cx="98.5" cy="52.5" r="2.5" transform="rotate(90 98.5 52.5)" fill="#D0AF94"/>
<circle cx="86.5" cy="52.5" r="2.5" transform="rotate(90 86.5 52.5)" fill="#D0AF94"/>
<circle cx="74.5" cy="52.5" r="2.5" transform="rotate(90 74.5 52.5)" fill="#D0AF94"/>
<circle cx="62.5" cy="52.5" r="2.5" transform="rotate(90 62.5 52.5)" fill="#D0AF94"/>
<circle cx="50.5" cy="52.5" r="2.5" transform="rotate(90 50.5 52.5)" fill="#D0AF94"/>
<circle cx="38.5" cy="52.5" r="2.5" transform="rotate(90 38.5 52.5)" fill="#D0AF94"/>
<circle cx="26.5" cy="52.5" r="2.5" transform="rotate(90 26.5 52.5)" fill="#D0AF94"/>
<circle cx="14.5" cy="52.5" r="2.5" transform="rotate(90 14.5 52.5)" fill="#D0AF94"/>
<circle cx="98.5" cy="86.5" r="2.5" transform="rotate(90 98.5 86.5)" fill="#D0AF94"/>
<circle cx="86.5" cy="86.5" r="2.5" transform="rotate(90 86.5 86.5)" fill="#D0AF94"/>
<circle cx="74.5" cy="86.5" r="2.5" transform="rotate(90 74.5 86.5)" fill="#D0AF94"/>
<circle cx="62.5" cy="86.5" r="2.5" transform="rotate(90 62.5 86.5)" fill="#D0AF94"/>
<circle cx="50.5" cy="86.5" r="2.5" transform="rotate(90 50.5 86.5)" fill="#D0AF94"/>
<circle cx="38.5" cy="86.5" r="2.5" transform="rotate(90 38.5 86.5)" fill="#D0AF94"/>
<circle cx="26.5" cy="86.5" r="2.5" transform="rotate(90 26.5 86.5)" fill="#D0AF94"/>
<circle cx="14.5" cy="86.5" r="2.5" transform="rotate(90 14.5 86.5)" fill="#D0AF94"/>
</g>
</svg>
