<svg width="69" height="78" viewBox="0 0 69 78" fill="none" xmlns="http://www.w3.org/2000/svg">
<g clip-path="url(#clip0_758_1675)">
<path d="M9.71748 39.1602C10.0217 49.0952 14.3652 53.5715 17.949 55.5772C20.6594 57.0916 23.6408 57.631 26.3303 57.631C28.9939 57.631 31.3703 57.1024 32.9125 56.4635C32.9233 56.4635 32.9355 56.4635 32.9477 56.4635C32.9836 56.4635 33.0195 56.4601 33.0555 56.4567C33.1655 56.641 33.3228 56.7926 33.511 56.8959C33.6992 56.9992 33.9115 57.0504 34.1261 57.0443C34.3407 57.0381 34.5498 56.9749 34.7318 56.861C34.9138 56.7471 35.0621 56.5867 35.1614 56.3964C35.2075 56.412 35.2536 56.4248 35.3003 56.4357C36.8392 57.0855 39.2426 57.6283 41.9408 57.6283C44.6391 57.6283 47.6158 57.0862 50.3228 55.5744C53.9093 53.5687 58.2507 49.0925 58.5543 39.1575C58.5357 38.8614 58.4344 38.5764 58.2621 38.3348C58.0898 38.0932 57.8532 37.9048 57.5792 37.7908C48.0874 34.8466 42.4626 37.492 39.3985 40.2302C37.5405 41.8896 36.3283 43.9244 35.339 45.9796V42.2393C37.6462 40.7377 41.8968 36.4519 42.5053 30.9328C42.9037 27.3192 41.9036 21.899 34.9263 16.5921C34.6782 16.435 34.3906 16.3516 34.0969 16.3516C33.8033 16.3516 33.5156 16.435 33.2675 16.5921C26.2882 21.899 25.2095 27.3185 25.6072 30.9315C26.2171 36.4512 30.3945 40.7377 32.7017 42.2393V45.7784C31.7131 43.7916 30.6012 41.8368 28.8042 40.2308C25.7394 37.4906 20.1397 34.8453 10.6444 37.7915C10.3613 37.8827 10.1241 38.0792 9.98175 38.3403C9.79352 38.5706 9.69914 38.8634 9.71748 39.1602ZM40.9895 42.036C44.6262 38.7835 49.7095 38.0598 56.1048 39.8778C55.7416 46.5183 53.4032 51.088 49.1444 53.4691C45.0727 55.7459 40.1886 55.445 37.3487 54.6129C38.8462 52.3003 42.5927 47.3389 47.9871 45.8272C48.1399 45.7844 48.2827 45.7119 48.4075 45.6139C48.5323 45.5159 48.6365 45.3942 48.7143 45.2559C48.7921 45.1176 48.8418 44.9654 48.8608 44.8078C48.8797 44.6503 48.8674 44.4906 48.8246 44.3378C48.7818 44.185 48.7093 44.0421 48.6113 43.9174C48.5133 43.7926 48.3917 43.6883 48.2534 43.6106C48.1151 43.5328 47.9628 43.483 47.8053 43.4641C47.6477 43.4452 47.488 43.4575 47.3352 43.5003C41.9652 45.0052 38.1368 49.3012 36.1162 52.1146C36.415 49.1555 37.7743 44.9083 40.9895 42.036ZM28.008 30.6713C27.5499 26.5135 29.6119 22.5963 34.0461 19.0213C38.4803 22.597 40.5402 26.5142 40.0815 30.676C39.6634 34.4706 37.3176 37.618 35.3383 39.2815V28.3762C35.3383 27.7088 34.6871 27.1681 34.0197 27.1681C33.3522 27.1681 32.7011 27.7101 32.7011 28.3762V39.2788C30.7245 37.614 28.4261 34.4692 28.008 30.6713ZM27.2843 42.0367C30.3674 44.7931 31.7436 48.8127 32.1116 51.7487C30.0327 48.9407 26.3038 44.9415 21.1615 43.5003C20.8529 43.4138 20.5227 43.4535 20.2434 43.6106C19.9641 43.7676 19.7586 44.0292 19.6721 44.3378C19.5857 44.6463 19.6254 44.9766 19.7824 45.2559C19.9395 45.5352 20.2011 45.7407 20.5096 45.8272C25.8437 47.3179 29.5834 52.2169 31.1107 54.556C28.3014 55.4308 23.2905 55.7967 19.1273 53.4718C14.87 51.0908 12.5302 46.5197 12.1677 39.8805C18.5663 38.0598 23.6483 38.7835 27.2843 42.0367Z" fill="#BD967A"/>
<path d="M10.4073 15.1958C10.4249 15.2134 10.4439 15.2303 10.4628 15.2479C10.6966 15.4549 11.0029 15.5607 11.3145 15.542C11.6262 15.5233 11.9177 15.3817 12.125 15.1483C12.6298 14.5764 12.4916 13.9104 12.1494 13.5329C12.1338 13.5167 12.1182 13.4991 12.102 13.4835L12.0586 13.4408C11.9445 13.3365 11.8109 13.2558 11.6656 13.2032C11.5203 13.1505 11.366 13.127 11.2116 13.134C11.0572 13.141 10.9057 13.1783 10.7657 13.2439C10.6257 13.3094 10.5 13.4019 10.3958 13.516C9.8774 14.0818 10.0089 14.7533 10.351 15.1368C10.3673 15.1572 10.3876 15.1754 10.4073 15.1958ZM10.3632 13.5858L11.2441 14.3677L10.3632 13.5872C10.3632 13.5872 10.3632 13.5865 10.3632 13.5858Z" fill="#463B32"/>
<path d="M9.41866 16.361C9.29457 16.2689 9.15354 16.2021 9.00363 16.1646C8.85371 16.127 8.69786 16.1194 8.54499 16.1421C8.39212 16.1648 8.24523 16.2174 8.11272 16.297C7.98021 16.3765 7.86469 16.4814 7.77277 16.6057C3.71006 22.0802 1.47227 28.694 1.37621 35.5107C1.07807 53.5404 15.5089 68.4571 33.5412 68.7539C33.7265 68.757 33.9108 68.7586 34.0942 68.7586C42.6265 68.7586 50.6805 65.5061 56.8277 59.5548C63.1063 53.4794 66.6434 45.3211 66.7884 36.5841C66.9074 29.0451 64.4233 21.6957 59.7549 15.7749C59.5614 15.5302 59.2785 15.3723 58.9686 15.3361C58.6586 15.2999 58.347 15.3883 58.1022 15.5818C57.8575 15.7753 57.6996 16.0582 57.6634 16.3681C57.6272 16.6781 57.7156 16.9897 57.9091 17.2345C62.2412 22.7293 64.5461 29.5498 64.4351 36.5461C64.2996 44.6529 61.0186 52.2238 55.1913 57.8635C49.4879 63.3839 42.0113 66.406 34.0948 66.4053C33.9248 66.4053 33.7561 66.4053 33.5826 66.4012C16.8452 66.1241 3.45577 52.2834 3.72681 35.546C3.8163 29.2215 5.89237 23.0852 9.66124 18.0056C9.8471 17.7553 9.92595 17.4415 9.88046 17.1331C9.83497 16.8247 9.66886 16.547 9.41866 16.361Z" fill="#463B32"/>
<path d="M56.3629 14.2458C56.5032 14.1394 56.6187 14.0039 56.7017 13.8487C56.8941 13.474 56.9314 12.8675 56.4049 12.3878C56.1959 12.1979 55.9256 12.0895 55.6433 12.0824C55.3611 12.0753 55.0857 12.17 54.8674 12.3492C54.7183 12.4568 54.5959 12.5973 54.5096 12.7598C54.3158 13.1298 54.2704 13.7321 54.7807 14.2153C54.9934 14.4166 55.2737 14.5313 55.5666 14.537C55.8594 14.5426 56.1439 14.4388 56.3642 14.2458H56.3629Z" fill="#463B32"/>
<path d="M17.6239 6.38642L17.8122 10.3527L14.8899 7.69265L13.4372 8.38673L17.7958 12.2668L19.2485 11.5728L18.9774 5.73977L17.6239 6.38642Z" fill="#463B32"/>
<path d="M27.1945 6.17097C26.776 4.49236 25.3358 3.75899 23.8027 4.14122C22.2114 4.53798 21.2986 5.96108 21.6881 7.52326C22.0751 9.07573 23.5323 9.91825 25.337 9.46828C26.2782 9.23361 26.9333 8.76108 27.2806 8.08705L26.2575 7.41458C25.9832 7.8437 25.6265 8.10784 25.0734 8.24573C24.2778 8.44411 23.6255 8.18418 23.3179 7.57037L27.267 6.58575C27.2452 6.45719 27.2235 6.2874 27.1945 6.17097ZM24.0979 5.28375C24.7771 5.11441 25.3784 5.41796 25.6496 6.05115L23.0783 6.69224C23.0181 5.99613 23.409 5.45552 24.0979 5.28375Z" fill="#463B32"/>
<path d="M33.9741 2.90125L33.9902 3.59106C33.5682 3.08079 32.9425 2.84536 32.1927 2.8629C30.7031 2.89774 29.5275 3.95552 29.5643 5.5251C29.601 7.09467 30.8247 8.09632 32.3143 8.06148C33.0141 8.04511 33.5988 7.81137 33.9982 7.35191L34.0036 7.58184C34.0262 8.55158 33.5581 9.06267 32.4584 9.08839C31.7686 9.10453 31.0132 8.88213 30.5446 8.52299L29.951 9.65718C30.5923 10.1323 31.5879 10.3591 32.6076 10.3352C34.547 10.2899 35.6052 9.34487 35.5585 7.34542L35.4537 2.86664L33.9741 2.90125ZM32.5943 6.77458C31.7745 6.79375 31.1623 6.27793 31.1438 5.48815C31.1253 4.69836 31.7128 4.15448 32.5326 4.1353C33.3523 4.11612 33.9546 4.63218 33.973 5.42197C33.9915 6.21175 33.4141 6.7554 32.5943 6.77458Z" fill="#463B32"/>
<path d="M41.3926 3.46081C40.5483 3.29686 39.6504 3.35679 38.9912 3.65661L39.3331 4.83337C39.7751 4.60341 40.3905 4.52937 40.95 4.63803C41.7746 4.79817 42.0929 5.25727 41.9652 5.91498L40.7479 5.67859C39.138 5.36595 38.3545 5.88611 38.1734 6.81869C37.9961 7.73164 38.5989 8.56178 39.8358 8.80198C40.6113 8.95258 41.2106 8.80411 41.5887 8.37838L41.461 9.03609L42.8942 9.31442L43.4794 6.30073C43.7902 4.70062 43.0025 3.77345 41.3926 3.46081ZM40.4188 7.84559C39.8789 7.74073 39.6045 7.42259 39.6788 7.03975C39.7475 6.68635 40.0247 6.46515 40.7413 6.60431L41.7917 6.80829L41.6869 7.34821C41.4168 7.79491 40.9293 7.94472 40.4188 7.84559Z" fill="#463B32"/>
<path d="M50.4681 6.17239C49.7987 5.88132 49.1212 5.85939 48.5527 6.11377L48.8039 5.53602L47.4374 4.94192L45.2923 9.87576L46.7229 10.4978L47.7835 8.05836C48.1783 7.15046 48.8569 6.94392 49.5447 7.24297C50.1775 7.51809 50.3848 8.04441 50.0379 8.84226L48.9055 11.4467L50.3362 12.0688L51.5642 9.24418C52.2181 7.74018 51.6328 6.67877 50.4681 6.17239Z" fill="#463B32"/>
</g>
<defs>
<clipPath id="clip0_758_1675">
<rect width="68.3022" height="78" fill="white"/>
</clipPath>
</defs>
</svg>
