<svg width="36" height="35" viewBox="0 0 36 35" fill="none" xmlns="http://www.w3.org/2000/svg">
<path d="M26.0186 16.9681L13.767 9.03209C13.5787 8.91 13.3381 8.90105 13.1409 9.00727C12.9436 9.1143 12.8203 9.32023 12.8203 9.54366V25.4158C12.8203 25.6396 12.9432 25.8455 13.1409 25.9522C13.2324 26.0014 13.3328 26.0262 13.4329 26.0262C13.5493 26.0262 13.6657 25.9933 13.7665 25.9277L26.0182 17.9917C26.1921 17.8794 26.2971 17.6865 26.2971 17.4797C26.2971 17.273 26.1925 17.0805 26.0186 16.9681ZM14.0459 24.2913V10.6685L24.561 17.4797L14.0459 24.2913Z" fill="#463B32"/>
<path d="M17.713 0C8.03013 0 0.152344 7.85058 0.152344 17.5C0.152344 27.1494 8.03013 35 17.713 35C27.3958 35 35.2736 27.1494 35.2736 17.5C35.2736 7.85058 27.3958 0 17.713 0ZM17.713 33.7791C8.7056 33.7791 1.3775 26.4763 1.3775 17.5C1.3775 8.52372 8.7056 1.22093 17.713 1.22093C26.7204 1.22093 34.0485 8.52372 34.0485 17.5C34.0485 26.4763 26.7204 33.7791 17.713 33.7791Z" fill="#463B32"/>
</svg>
