<svg width="36" height="35" viewBox="0 0 36 35" fill="none" xmlns="http://www.w3.org/2000/svg">
<path d="M9.25487 18.0319L21.5065 25.9679C21.6948 26.09 21.9353 26.099 22.1325 25.9927C22.3298 25.8857 22.4531 25.6798 22.4531 25.4563L22.4531 9.58424C22.4531 9.36041 22.3302 9.15448 22.1325 9.04785C22.0411 8.9986 21.9406 8.97378 21.8405 8.97378C21.7242 8.97378 21.6078 9.00674 21.5069 9.07227L9.25528 17.0083C9.08131 17.1206 8.97635 17.3135 8.97635 17.5203C8.97635 17.727 9.0809 17.9195 9.25487 18.0319ZM21.2276 10.7087V24.3315L10.7124 17.5203L21.2276 10.7087Z" fill="#463B32"/>
<path d="M17.5605 35C27.2433 35 35.1211 27.1494 35.1211 17.5C35.1211 7.85058 27.2433 1.2517e-06 17.5605 1.2517e-06C7.8776 1.2517e-06 -0.000183582 7.85058 -0.000183582 17.5C-0.000183582 27.1494 7.8776 35 17.5605 35ZM17.5605 1.22093C26.5678 1.22093 33.8959 8.52372 33.8959 17.5C33.8959 26.4763 26.5678 33.7791 17.5605 33.7791C8.55307 33.7791 1.22498 26.4763 1.22498 17.5C1.22498 8.52372 8.55307 1.22093 17.5605 1.22093Z" fill="#463B32"/>
</svg>
