<svg width="52" height="43" viewBox="0 0 52 43" fill="none" xmlns="http://www.w3.org/2000/svg">
<g clip-path="url(#clip0_1143_4344)">
<path d="M39.6792 32.1888C39.0411 32.1888 38.5239 31.7533 38.5239 31.216C38.5239 30.6787 39.0411 30.2431 39.6792 30.2431C41.8154 30.2431 43.5534 28.7796 43.5534 26.9807C43.5534 26.4434 44.0706 26.0078 44.7086 26.0078C45.3467 26.0078 45.8639 26.4434 45.8639 26.9807C45.8639 29.8525 43.0894 32.1888 39.6792 32.1888Z" fill="#D0AF94"/>
<path d="M39.6794 36.5665C38.1432 36.5665 36.6522 36.313 35.2481 35.8127C34.6606 35.6034 34.3856 35.0326 34.6342 34.5378C34.8827 34.043 35.5604 33.8115 36.1482 34.0208C37.266 34.4189 38.4541 34.6208 39.6794 34.6208C44.6821 34.6208 48.7522 31.1934 48.7522 26.9805C48.7522 23.148 42.9037 13.9413 39.6821 9.30622C38.705 10.7157 37.1313 13.047 35.5733 15.6137C35.2829 16.092 34.587 16.2816 34.0188 16.0372C33.4508 15.7926 33.2256 15.2066 33.5159 14.7281C36.0703 10.52 38.6676 6.93295 38.6936 6.89725C38.9034 6.60802 39.2769 6.43164 39.6794 6.43164C40.0819 6.43164 40.4552 6.60802 40.6652 6.89725C41.0897 7.48222 51.0627 21.2908 51.0627 26.9805C51.0627 32.2663 45.9561 36.5665 39.6794 36.5665Z" fill="#D0AF94"/>
<path d="M25.5312 32.1888C24.8932 32.1888 24.376 31.7533 24.376 31.216C24.376 30.6787 24.8932 30.2431 25.5312 30.2431C27.6674 30.2431 29.4054 28.7796 29.4054 26.9807C29.4054 26.4434 29.9226 26.0078 30.5607 26.0078C31.1987 26.0078 31.7159 26.4434 31.7159 26.9807C31.7159 29.8525 28.9416 32.1888 25.5312 32.1888Z" fill="#D0AF94"/>
<path d="M25.5314 36.5667C23.9231 36.5667 22.368 36.2896 20.9094 35.7432C20.3265 35.5248 20.0641 34.9499 20.3234 34.459C20.5826 33.968 21.2655 33.747 21.8484 33.9655C23.0097 34.4004 24.2488 34.621 25.5314 34.621C30.5341 34.621 34.6042 31.1936 34.6042 26.9807C34.6042 23.1482 28.7557 13.9415 25.5342 9.30641C24.557 10.7159 22.9833 13.0471 21.4255 15.6138C21.135 16.0922 20.4391 16.2819 19.871 16.0373C19.3028 15.7927 19.0776 15.2067 19.3681 14.7282C21.9223 10.5201 24.5197 6.93305 24.5456 6.89725C24.7554 6.60802 25.1289 6.43164 25.5314 6.43164C25.9339 6.43164 26.3073 6.60802 26.5172 6.89725C26.9417 7.48232 36.9147 21.2909 36.9147 26.9806C36.9147 32.2665 31.8083 36.5667 25.5314 36.5667Z" fill="#D0AF94"/>
<path d="M11.3834 36.5666C5.1066 36.5666 0 32.2664 0 26.9806C0 21.2909 9.97301 7.48232 10.3976 6.89725C10.6074 6.60802 10.9809 6.43164 11.3834 6.43164C11.7858 6.43164 12.1592 6.60802 12.3691 6.89725C12.7937 7.48232 22.7668 21.2909 22.7668 26.9806C22.7668 32.2664 17.6602 36.5666 11.3834 36.5666ZM11.3835 9.30223C8.16249 13.9358 2.31052 23.147 2.31052 26.9806C2.31052 31.1935 6.38062 34.6209 11.3834 34.6209C16.3862 34.6209 20.4563 31.1935 20.4563 26.9806C20.4563 23.1454 14.6046 13.9354 11.3835 9.30223Z" fill="#D0AF94"/>
<path d="M11.3833 32.1888C10.7452 32.1888 10.228 31.7533 10.228 31.216C10.228 30.6787 10.7452 30.2431 11.3833 30.2431C13.5196 30.2431 15.2576 28.7796 15.2576 26.9807C15.2576 26.4434 15.7748 26.0078 16.4128 26.0078C17.0509 26.0078 17.5681 26.4434 17.5681 26.9807C17.5681 29.8525 14.7936 32.1888 11.3833 32.1888Z" fill="#D0AF94"/>
</g>
<defs>
<clipPath id="clip0_1143_4344">
<rect width="51.0625" height="43" fill="white"/>
</clipPath>
</defs>
</svg>
