<svg width="42" height="42" viewBox="0 0 42 42" fill="none" xmlns="http://www.w3.org/2000/svg">
<g clip-path="url(#clip0_1143_4312)">
<path d="M34.6339 20.596C34.6339 13.2803 28.6828 7.33008 21.368 7.33008C14.0531 7.33008 8.10205 13.2803 8.10205 20.596C8.10205 27.9108 14.0531 33.8611 21.368 33.8611C28.6828 33.8603 34.6339 27.9108 34.6339 20.596ZM21.368 32.0935C15.0286 32.0935 9.87122 26.9361 9.87122 20.596C9.87122 14.2575 15.0295 9.09843 21.368 9.09843C27.7065 9.09843 32.8647 14.2567 32.8647 20.596C32.8647 26.9361 27.7073 32.0935 21.368 32.0935Z" fill="#BD967A"/>
<path d="M5.85554 21.1108V20.8897C5.85554 19.9134 5.08556 19.3041 4.1345 19.5292L0.723406 20.3343C-0.227654 20.5602 -0.243152 20.9778 0.689964 21.269L4.16713 22.3522C5.09943 22.6426 5.85554 22.0871 5.85554 21.1108Z" fill="#BD967A"/>
<path d="M41.3099 20.7305L37.832 19.6473C36.8997 19.3569 36.1436 19.9132 36.1436 20.8896V21.1106C36.1436 22.0861 36.9144 22.6962 37.8646 22.4711L41.2765 21.6652C42.2276 21.4401 42.2431 21.0217 41.3099 20.7305Z" fill="#BD967A"/>
<path d="M6.80743 26.2827L6.73076 26.0756C6.39797 25.1596 5.46485 24.8504 4.64756 25.3855L1.71853 27.3105C0.901234 27.8464 1.03092 28.2452 2.00727 28.1987L5.64512 28.0266C6.62065 27.9826 7.14022 27.2004 6.80743 26.2827Z" fill="#BD967A"/>
<path d="M35.1922 15.7168L35.2689 15.9239C35.6017 16.8424 36.5348 17.1523 37.3521 16.6148L40.2811 14.6915C41.0984 14.154 40.9696 13.7567 39.9924 13.8024L36.3546 13.9721C35.379 14.0169 34.8586 14.7983 35.1922 15.7168Z" fill="#BD967A"/>
<path d="M9.32871 30.651C8.70065 29.9022 7.71778 29.9307 7.13458 30.7138L5.04078 33.5262C4.45677 34.3092 4.71452 34.6379 5.61501 34.2603L8.97553 32.8541C9.87602 32.4789 10.0979 31.5669 9.46982 30.8182L9.32871 30.651Z" fill="#BD967A"/>
<path d="M32.6726 11.3502C33.3015 12.099 34.2827 12.0704 34.8651 11.2874L36.9606 8.47581C37.5438 7.69196 37.2852 7.36325 36.3839 7.74008L33.025 9.14465C32.1245 9.52067 31.901 10.4326 32.5291 11.1814L32.6726 11.3502Z" fill="#BD967A"/>
<path d="M13.5234 34.1688L13.3325 34.0595C12.4867 33.5701 11.574 33.9339 11.2926 34.8695L10.286 38.2283C10.0054 39.1647 10.3603 39.3858 11.078 38.7234L13.7567 36.2536C14.4736 35.5913 14.3692 34.6582 13.5234 34.1688Z" fill="#BD967A"/>
<path d="M28.4765 7.82872L28.6673 7.93883C29.5132 8.42823 30.4259 8.06526 30.7065 7.12888L31.7146 3.77162C31.9952 2.83525 31.6396 2.6142 30.921 3.2757L28.244 5.74471C27.5262 6.40702 27.6306 7.34014 28.4765 7.82872Z" fill="#BD967A"/>
<path d="M18.4789 35.9309L18.2612 35.8942C17.2987 35.7238 16.5654 36.3771 16.6217 37.3534L16.824 40.8518C16.8803 41.8274 17.2897 41.9146 17.7375 41.0459L19.4096 37.8094C19.8582 36.9432 19.4414 36.1014 18.4789 35.9309Z" fill="#BD967A"/>
<path d="M23.5209 6.06706L23.7387 6.10458C24.702 6.27505 25.4353 5.62171 25.3798 4.64618L25.1759 1.14618C25.1204 0.170649 24.711 0.0833735 24.2624 0.952052L22.5911 4.18778C22.1417 5.05564 22.5585 5.89659 23.5209 6.06706Z" fill="#BD967A"/>
<path d="M23.7364 35.8944L23.5194 35.9328C22.5569 36.1033 22.0912 36.9687 22.4778 37.8651L23.8652 41.0837C24.2527 41.9817 24.6662 41.923 24.791 40.954L25.2535 37.3398C25.3783 36.3708 24.6997 35.724 23.7364 35.8944Z" fill="#BD967A"/>
<path d="M18.2616 6.10334L18.4794 6.06582C19.4418 5.89534 19.9076 5.03074 19.5218 4.13352L18.1335 0.914103C17.7477 0.0168761 17.3325 0.074788 17.2086 1.04379L16.7453 4.65717C16.6205 5.62617 17.2991 6.27381 18.2616 6.10334Z" fill="#BD967A"/>
<path d="M30.5871 34.9011C30.3718 33.9476 29.512 33.5707 28.667 34.0601L28.4762 34.1702C27.6311 34.6596 27.4884 35.6311 28.1572 36.3415L30.5626 38.8937C31.2315 39.6042 31.601 39.4084 31.3864 38.4541L30.5871 34.9011Z" fill="#BD967A"/>
<path d="M11.4121 7.09565C11.6274 8.04916 12.4863 8.426 13.333 7.93741L13.523 7.82648C14.3689 7.33872 14.5116 6.36645 13.8419 5.65601L11.4374 3.10462C10.7677 2.39418 10.3982 2.59076 10.6127 3.54345L11.4121 7.09565Z" fill="#BD967A"/>
<path d="M34.7623 30.7829C34.2354 29.9607 33.2982 29.9012 32.671 30.6492L32.5307 30.8188C31.9018 31.5668 32.1025 32.5292 32.9752 32.9689L36.1057 34.5431C36.9777 34.9811 37.2591 34.6704 36.7313 33.8474L34.7623 30.7829Z" fill="#BD967A"/>
<path d="M7.23547 11.2158C7.76238 12.038 8.69876 12.0975 9.32764 11.3496L9.46875 11.1799C10.0968 10.4319 9.89778 9.46946 9.02503 9.03064L5.89452 7.45478C5.02176 7.01596 4.74118 7.32754 5.26891 8.14972L7.23547 11.2158Z" fill="#BD967A"/>
<path d="M40.1751 27.6929L37.2795 25.4857C36.5022 24.8935 35.6017 25.1586 35.2673 26.0763L35.1923 26.2826C34.8587 27.2002 35.375 28.0363 36.344 28.1513L39.8252 28.5591C40.7942 28.6733 40.9524 28.2859 40.1751 27.6929Z" fill="#BD967A"/>
<path d="M1.82211 14.3042L4.71771 16.5113C5.49503 17.1035 6.39552 16.8392 6.72913 15.9216L6.8058 15.7144C7.1394 14.796 6.62309 13.9599 5.65327 13.8449L2.17203 13.4379C1.20221 13.3237 1.04479 13.7112 1.82211 14.3042Z" fill="#BD967A"/>
</g>
<defs>
<clipPath id="clip0_1143_4312">
<rect width="42" height="42" fill="white"/>
</clipPath>
</defs>
</svg>
