<svg width="190" height="254" viewBox="0 0 190 254" fill="none" xmlns="http://www.w3.org/2000/svg">
<path fill-rule="evenodd" clip-rule="evenodd" d="M263.364 96.9663C272.729 128.764 251.163 159.739 230.341 185.532C211.093 209.374 186.111 229.651 155.484 230.595C125.233 231.528 99.6389 212.536 79.2275 190.19C58.0003 166.951 38.5849 139.001 43.4104 107.898C48.3597 75.9974 73.5318 51.0637 102.894 37.6463C130.078 25.2245 159.981 31.4576 188.015 41.8206C218.729 53.1746 254.112 65.5547 263.364 96.9663Z" fill="#E4DEDC"/>
<g opacity="0.5">
<circle cx="180.5" cy="99.5" r="2.5" transform="rotate(90 180.5 99.5)" fill="white"/>
<circle cx="168.5" cy="99.5" r="2.5" transform="rotate(90 168.5 99.5)" fill="white"/>
<circle cx="156.5" cy="99.5" r="2.5" transform="rotate(90 156.5 99.5)" fill="white"/>
<circle cx="144.5" cy="99.5" r="2.5" transform="rotate(90 144.5 99.5)" fill="white"/>
<circle cx="132.5" cy="99.5" r="2.5" transform="rotate(90 132.5 99.5)" fill="white"/>
<circle cx="120.5" cy="99.5" r="2.5" transform="rotate(90 120.5 99.5)" fill="white"/>
<circle cx="108.5" cy="99.5" r="2.5" transform="rotate(90 108.5 99.5)" fill="white"/>
<circle cx="96.5" cy="99.5" r="2.5" transform="rotate(90 96.5 99.5)" fill="white"/>
<circle cx="180.5" cy="133.5" r="2.5" transform="rotate(90 180.5 133.5)" fill="white"/>
<circle cx="168.5" cy="133.5" r="2.5" transform="rotate(90 168.5 133.5)" fill="white"/>
<circle cx="156.5" cy="133.5" r="2.5" transform="rotate(90 156.5 133.5)" fill="white"/>
<circle cx="144.5" cy="133.5" r="2.5" transform="rotate(90 144.5 133.5)" fill="white"/>
<circle cx="132.5" cy="133.5" r="2.5" transform="rotate(90 132.5 133.5)" fill="white"/>
<circle cx="120.5" cy="133.5" r="2.5" transform="rotate(90 120.5 133.5)" fill="white"/>
<circle cx="108.5" cy="133.5" r="2.5" transform="rotate(90 108.5 133.5)" fill="white"/>
<circle cx="96.5" cy="133.5" r="2.5" transform="rotate(90 96.5 133.5)" fill="white"/>
<circle cx="180.5" cy="116.5" r="2.5" transform="rotate(90 180.5 116.5)" fill="white"/>
<circle cx="168.5" cy="116.5" r="2.5" transform="rotate(90 168.5 116.5)" fill="white"/>
<circle cx="156.5" cy="116.5" r="2.5" transform="rotate(90 156.5 116.5)" fill="white"/>
<circle cx="144.5" cy="116.5" r="2.5" transform="rotate(90 144.5 116.5)" fill="white"/>
<circle cx="132.5" cy="116.5" r="2.5" transform="rotate(90 132.5 116.5)" fill="white"/>
<circle cx="120.5" cy="116.5" r="2.5" transform="rotate(90 120.5 116.5)" fill="white"/>
<circle cx="108.5" cy="116.5" r="2.5" transform="rotate(90 108.5 116.5)" fill="white"/>
<circle cx="96.5" cy="116.5" r="2.5" transform="rotate(90 96.5 116.5)" fill="white"/>
<circle cx="180.5" cy="150.5" r="2.5" transform="rotate(90 180.5 150.5)" fill="white"/>
<circle cx="168.5" cy="150.5" r="2.5" transform="rotate(90 168.5 150.5)" fill="white"/>
<circle cx="156.5" cy="150.5" r="2.5" transform="rotate(90 156.5 150.5)" fill="white"/>
<circle cx="144.5" cy="150.5" r="2.5" transform="rotate(90 144.5 150.5)" fill="white"/>
<circle cx="132.5" cy="150.5" r="2.5" transform="rotate(90 132.5 150.5)" fill="white"/>
<circle cx="120.5" cy="150.5" r="2.5" transform="rotate(90 120.5 150.5)" fill="white"/>
<circle cx="108.5" cy="150.5" r="2.5" transform="rotate(90 108.5 150.5)" fill="white"/>
<circle cx="96.5" cy="150.5" r="2.5" transform="rotate(90 96.5 150.5)" fill="white"/>
</g>
</svg>
