<svg width="261" height="150" viewBox="0 0 261 150" fill="none" xmlns="http://www.w3.org/2000/svg">
<g opacity="0.5">
<circle cx="162.5" cy="35.5" r="2.5" transform="rotate(90 162.5 35.5)" fill="#BD967A"/>
<circle cx="150.5" cy="35.5" r="2.5" transform="rotate(90 150.5 35.5)" fill="#BD967A"/>
<circle cx="138.5" cy="35.5" r="2.5" transform="rotate(90 138.5 35.5)" fill="#BD967A"/>
<circle cx="126.5" cy="35.5" r="2.5" transform="rotate(90 126.5 35.5)" fill="#BD967A"/>
<circle cx="114.5" cy="35.5" r="2.5" transform="rotate(90 114.5 35.5)" fill="#BD967A"/>
<circle cx="102.5" cy="35.5" r="2.5" transform="rotate(90 102.5 35.5)" fill="#BD967A"/>
<circle cx="90.5" cy="35.5" r="2.5" transform="rotate(90 90.5 35.5)" fill="#BD967A"/>
<circle cx="78.5" cy="35.5" r="2.5" transform="rotate(90 78.5 35.5)" fill="#BD967A"/>
<circle cx="162.5" cy="69.5" r="2.5" transform="rotate(90 162.5 69.5)" fill="#BD967A"/>
<circle cx="150.5" cy="69.5" r="2.5" transform="rotate(90 150.5 69.5)" fill="#BD967A"/>
<circle cx="138.5" cy="69.5" r="2.5" transform="rotate(90 138.5 69.5)" fill="#BD967A"/>
<circle cx="126.5" cy="69.5" r="2.5" transform="rotate(90 126.5 69.5)" fill="#BD967A"/>
<circle cx="114.5" cy="69.5" r="2.5" transform="rotate(90 114.5 69.5)" fill="#BD967A"/>
<circle cx="102.5" cy="69.5" r="2.5" transform="rotate(90 102.5 69.5)" fill="#BD967A"/>
<circle cx="90.5" cy="69.5" r="2.5" transform="rotate(90 90.5 69.5)" fill="#BD967A"/>
<circle cx="78.5" cy="69.5" r="2.5" transform="rotate(90 78.5 69.5)" fill="#BD967A"/>
<circle cx="162.5" cy="52.5" r="2.5" transform="rotate(90 162.5 52.5)" fill="#BD967A"/>
<circle cx="150.5" cy="52.5" r="2.5" transform="rotate(90 150.5 52.5)" fill="#BD967A"/>
<circle cx="138.5" cy="52.5" r="2.5" transform="rotate(90 138.5 52.5)" fill="#BD967A"/>
<circle cx="126.5" cy="52.5" r="2.5" transform="rotate(90 126.5 52.5)" fill="#BD967A"/>
<circle cx="114.5" cy="52.5" r="2.5" transform="rotate(90 114.5 52.5)" fill="#BD967A"/>
<circle cx="102.5" cy="52.5" r="2.5" transform="rotate(90 102.5 52.5)" fill="#BD967A"/>
<circle cx="90.5" cy="52.5" r="2.5" transform="rotate(90 90.5 52.5)" fill="#BD967A"/>
<circle cx="78.5" cy="52.5" r="2.5" transform="rotate(90 78.5 52.5)" fill="#BD967A"/>
<circle cx="162.5" cy="86.5" r="2.5" transform="rotate(90 162.5 86.5)" fill="#BD967A"/>
<circle cx="150.5" cy="86.5" r="2.5" transform="rotate(90 150.5 86.5)" fill="#BD967A"/>
<circle cx="138.5" cy="86.5" r="2.5" transform="rotate(90 138.5 86.5)" fill="#BD967A"/>
<circle cx="126.5" cy="86.5" r="2.5" transform="rotate(90 126.5 86.5)" fill="#BD967A"/>
<circle cx="114.5" cy="86.5" r="2.5" transform="rotate(90 114.5 86.5)" fill="#BD967A"/>
<circle cx="102.5" cy="86.5" r="2.5" transform="rotate(90 102.5 86.5)" fill="#BD967A"/>
<circle cx="90.5" cy="86.5" r="2.5" transform="rotate(90 90.5 86.5)" fill="#BD967A"/>
<circle cx="78.5" cy="86.5" r="2.5" transform="rotate(90 78.5 86.5)" fill="#BD967A"/>
<path d="M261 61C261 83.0914 243.091 101 221 101C198.909 101 181 83.0914 181 61C181 38.9086 198.909 21 221 21C243.091 21 261 38.9086 261 61Z" fill="#CC9966" fill-opacity="0.2"/>
</g>
</svg>
