<svg width="160" height="105" viewBox="0 0 160 105" fill="none" xmlns="http://www.w3.org/2000/svg">
<g opacity="0.5">
<circle cx="87.5" cy="51.5" r="2.5" transform="rotate(90 87.5 51.5)" fill="#82AEB4"/>
<circle cx="75.5" cy="51.5" r="2.5" transform="rotate(90 75.5 51.5)" fill="#82AEB4"/>
<circle cx="63.5" cy="51.5" r="2.5" transform="rotate(90 63.5 51.5)" fill="#82AEB4"/>
<circle cx="51.5" cy="51.5" r="2.5" transform="rotate(90 51.5 51.5)" fill="#82AEB4"/>
<circle cx="39.5" cy="51.5" r="2.5" transform="rotate(90 39.5 51.5)" fill="#82AEB4"/>
<circle cx="27.5" cy="51.5" r="2.5" transform="rotate(90 27.5 51.5)" fill="#82AEB4"/>
<circle cx="15.5" cy="51.5" r="2.5" transform="rotate(90 15.5 51.5)" fill="#82AEB4"/>
<circle cx="3.5" cy="51.5" r="2.5" transform="rotate(90 3.5 51.5)" fill="#82AEB4"/>
<circle cx="87.5" cy="85.5" r="2.5" transform="rotate(90 87.5 85.5)" fill="#82AEB4"/>
<circle cx="75.5" cy="85.5" r="2.5" transform="rotate(90 75.5 85.5)" fill="#82AEB4"/>
<circle cx="63.5" cy="85.5" r="2.5" transform="rotate(90 63.5 85.5)" fill="#82AEB4"/>
<circle cx="51.5" cy="85.5" r="2.5" transform="rotate(90 51.5 85.5)" fill="#82AEB4"/>
<circle cx="39.5" cy="85.5" r="2.5" transform="rotate(90 39.5 85.5)" fill="#82AEB4"/>
<circle cx="27.5" cy="85.5" r="2.5" transform="rotate(90 27.5 85.5)" fill="#82AEB4"/>
<circle cx="15.5" cy="85.5" r="2.5" transform="rotate(90 15.5 85.5)" fill="#82AEB4"/>
<circle cx="3.5" cy="85.5" r="2.5" transform="rotate(90 3.5 85.5)" fill="#82AEB4"/>
<circle cx="87.5" cy="68.5" r="2.5" transform="rotate(90 87.5 68.5)" fill="#82AEB4"/>
<circle cx="75.5" cy="68.5" r="2.5" transform="rotate(90 75.5 68.5)" fill="#82AEB4"/>
<circle cx="63.5" cy="68.5" r="2.5" transform="rotate(90 63.5 68.5)" fill="#82AEB4"/>
<circle cx="51.5" cy="68.5" r="2.5" transform="rotate(90 51.5 68.5)" fill="#82AEB4"/>
<circle cx="39.5" cy="68.5" r="2.5" transform="rotate(90 39.5 68.5)" fill="#82AEB4"/>
<circle cx="27.5" cy="68.5" r="2.5" transform="rotate(90 27.5 68.5)" fill="#82AEB4"/>
<circle cx="15.5" cy="68.5" r="2.5" transform="rotate(90 15.5 68.5)" fill="#82AEB4"/>
<circle cx="3.5" cy="68.5" r="2.5" transform="rotate(90 3.5 68.5)" fill="#82AEB4"/>
<circle cx="87.5" cy="102.5" r="2.5" transform="rotate(90 87.5 102.5)" fill="#82AEB4"/>
<circle cx="75.5" cy="102.5" r="2.5" transform="rotate(90 75.5 102.5)" fill="#82AEB4"/>
<circle cx="63.5" cy="102.5" r="2.5" transform="rotate(90 63.5 102.5)" fill="#82AEB4"/>
<circle cx="51.5" cy="102.5" r="2.5" transform="rotate(90 51.5 102.5)" fill="#82AEB4"/>
<circle cx="39.5" cy="102.5" r="2.5" transform="rotate(90 39.5 102.5)" fill="#82AEB4"/>
<circle cx="27.5" cy="102.5" r="2.5" transform="rotate(90 27.5 102.5)" fill="#82AEB4"/>
<circle cx="15.5" cy="102.5" r="2.5" transform="rotate(90 15.5 102.5)" fill="#82AEB4"/>
<circle cx="3.5" cy="102.5" r="2.5" transform="rotate(90 3.5 102.5)" fill="#82AEB4"/>
</g>
</svg>
