<svg width="39" height="39" viewBox="0 0 39 39" fill="none" xmlns="http://www.w3.org/2000/svg">
<path d="M15.6877 13.2402C17.9638 13.2402 18.9849 14.5159 19.3867 15.2653C19.4372 15.3593 19.5741 15.3592 19.6244 15.265C20.0248 14.5157 21.0404 13.2402 23.3161 13.2402C25.9087 13.2402 28.1892 15.0099 28.1892 18.2416C28.1892 19.5493 27.9228 20.6696 27.1832 21.9199C25.6758 24.4678 20.7103 27.7708 19.6903 28.4216C19.5776 28.4936 19.4347 28.4939 19.3218 28.4221C18.301 27.7743 13.3345 24.4878 11.8154 21.9199C11.0757 20.6696 10.811 19.5493 10.811 18.2416C10.8109 15.0099 13.095 13.2402 15.6877 13.2402Z" fill="#D0AF94"/>
<path d="M19.505 29.5826C19.23 29.5826 18.9617 29.5046 18.729 29.3571C18.1063 28.9618 12.5954 25.4121 10.8634 22.4844C10.0623 21.1302 9.70508 19.8223 9.70508 18.2433C9.70508 16.41 10.3317 14.8485 11.5171 13.7277C12.6022 12.7017 14.0831 12.1367 15.6871 12.1367C17.5575 12.1367 18.7639 12.8672 19.504 13.6024C20.2428 12.8671 21.447 12.1367 23.3157 12.1367C24.9196 12.1367 26.4 12.7018 27.4842 13.7281C28.6681 14.8488 29.294 16.4103 29.294 18.2434C29.294 19.8202 28.9362 21.1283 28.1338 22.4845C26.414 25.3915 20.9066 28.9581 20.2842 29.3552C20.0507 29.5039 19.7814 29.5826 19.505 29.5826ZM15.6873 14.3471C13.81 14.3471 11.9157 15.5518 11.9157 18.2432C11.9157 19.4352 12.1621 20.3378 12.7661 21.3587C13.8834 23.2474 17.4505 25.8797 19.504 27.2261C21.5569 25.8733 25.1221 23.2336 26.2313 21.3587C26.8366 20.3355 27.0834 19.4329 27.0834 18.2432C27.0834 15.5516 25.191 14.3471 23.3156 14.3471C21.7061 14.3471 20.9498 15.1303 20.5985 15.7876C20.3828 16.1914 19.9637 16.4426 19.5048 16.4426C19.0468 16.4426 18.628 16.1921 18.4119 15.789C18.0594 15.1313 17.3003 14.3471 15.6873 14.3471Z" fill="#D0AF94"/>
<path d="M19.4998 38.9999C19.3284 38.9999 19.157 38.9602 18.9999 38.8804C17.1999 37.9674 14.4979 36.5066 11.8477 34.7323C9.34311 33.0556 7.31816 31.3999 5.82893 29.8112C4.39134 28.2776 3.59961 26.2739 3.59961 24.1693V8.31386C3.59961 7.76154 4.0072 7.29407 4.55435 7.21889C9.83914 6.49252 14.8741 4.0391 18.7318 0.310495C19.1602 -0.103498 19.8396 -0.103498 20.268 0.310495C22.3317 2.30505 24.712 3.92964 27.3424 5.1391C27.897 5.39404 28.1399 6.05042 27.885 6.60502C27.63 7.15978 26.9738 7.40269 26.4191 7.14752C23.8821 5.98118 21.5588 4.45858 19.4997 2.61431C15.6587 6.04981 10.863 8.37822 5.81019 9.25991V24.1694C5.81019 25.7102 6.3897 27.177 7.44179 28.2995C8.81615 29.7657 10.7124 31.3121 13.0776 32.8955C15.4022 34.4518 17.776 35.7623 19.5 36.6529C21.224 35.7621 23.5978 34.4517 25.9224 32.8955C28.2877 31.3119 30.1838 29.7657 31.5582 28.2995C32.6104 27.177 33.1898 25.7102 33.1898 24.1694V8.31386C33.1898 7.70342 33.6846 7.20861 34.2951 7.20861C34.9055 7.20861 35.4003 7.70342 35.4003 8.31386V24.1694C35.4003 26.2739 34.6086 28.2775 33.171 29.8113C31.6818 31.4 29.6568 33.0557 27.1521 34.7324C24.502 36.5067 21.8001 37.9675 20 38.8804C19.8427 38.9601 19.6712 38.9999 19.4998 38.9999Z" fill="#D0AF94"/>
</svg>
