<svg width="90" height="90" viewBox="0 0 90 90" fill="none" xmlns="http://www.w3.org/2000/svg">
<path d="M32.3306 51.8176L31.1612 50.1463L28.5852 53.3961L28.5725 53.4119C26.4003 56.2327 24.7388 58.5243 23.6968 60.5354C22.0991 63.6181 22.2206 66.8261 24.0203 69.1176C24.9594 70.3154 25.9033 71.1882 27.6991 71.8437C28.0492 71.9651 28.41 72.0565 28.7773 72.1167C28.9557 72.1483 29.1345 72.1758 29.3135 72.1993C29.39 72.2096 29.4811 72.2216 29.5576 72.2291C30.1515 72.2987 30.7504 72.3229 31.3485 72.3015C31.9585 72.2542 32.5657 72.178 33.1678 72.0731C34.1262 71.8982 35.0394 71.5481 35.8565 71.0424C36.6676 70.5184 37.378 69.8668 37.9571 69.1158C39.7862 66.7852 39.9029 63.5716 38.2698 60.5187C37.3514 58.8037 35.6781 56.4852 34.0617 54.2429C33.4422 53.3877 32.8619 52.5827 32.3306 51.8176ZM35.5575 67.4259C34.4469 68.84 33.2187 69.3971 31.025 69.4788L30.7054 69.4909L30.1408 69.4389C29.6755 69.4065 29.2153 69.3259 28.7685 69.1984C27.6207 68.7796 27.0943 68.2931 26.416 67.4259C25.2975 66.0015 25.2828 63.892 26.3777 61.7796C27.3237 59.9551 28.9018 57.787 30.9789 55.086L31.0162 55.0396L31.5925 55.8371C33.155 58.0052 34.7724 60.2466 35.6026 61.7963C36.7103 63.8697 36.6926 65.9737 35.5536 67.4259H35.5575Z" fill="#463B32"/>
<path d="M61.3002 29.603C61.3054 29.6344 61.3185 29.6642 61.3385 29.6897C61.3584 29.7153 61.3846 29.7359 61.4148 29.7497C62.2387 30.1518 63.008 30.6472 63.7056 31.2251C63.7438 31.2562 63.7925 31.2734 63.8429 31.2734C63.8705 31.2735 63.898 31.2684 63.9236 31.2583C63.9492 31.2483 63.9724 31.2335 63.9919 31.2149L72.2091 23.3829C72.4119 23.1841 72.5484 22.9331 72.6017 22.6612C72.6549 22.3893 72.6225 22.1086 72.5085 21.8541C72.3944 21.5995 72.2038 21.3824 71.9604 21.2298C71.717 21.0771 71.4316 20.9957 71.1396 20.9957C70.9406 20.9949 70.7435 21.0323 70.5602 21.1057C70.3768 21.1791 70.2112 21.287 70.0732 21.4229C70.0732 21.4229 65.8749 25.2873 61.3619 29.4294C61.3376 29.4515 61.3193 29.4788 61.3085 29.509C61.2978 29.5393 61.2949 29.5715 61.3002 29.603Z" fill="#463B32"/>
<path d="M43.2111 46.0766C43.0838 45.7986 42.9374 45.5288 42.773 45.2688L42.7396 45.2215C42.7228 45.1958 42.7 45.1741 42.673 45.158C42.646 45.1419 42.6155 45.1319 42.5838 45.1286C42.5522 45.1258 42.5203 45.1296 42.4904 45.1399C42.4606 45.1502 42.4336 45.1666 42.4113 45.1881C41.2801 46.2893 38.7599 48.8482 34.9243 52.7888C34.8964 52.8177 34.878 52.8536 34.8714 52.8922C34.8648 52.9308 34.8702 52.9704 34.8871 53.0061C34.9273 53.0888 35.136 53.3775 35.6399 54.0553C35.9526 54.4769 36.2751 54.9123 36.4319 55.1417C36.4489 55.1677 36.4719 55.1895 36.4993 55.2057C36.5267 55.2218 36.5576 55.2317 36.5897 55.2345H36.6083C36.6373 55.2347 36.666 55.229 36.6925 55.218C36.719 55.2069 36.7427 55.1908 36.7622 55.1705C39.7274 52.1333 42.0711 49.7387 43.7218 48.0544C43.7462 48.0301 43.7637 48.0002 43.7724 47.9677C43.7812 47.9352 43.781 47.9011 43.7718 47.8687L43.7551 47.8065C43.7306 47.7136 43.7052 47.6282 43.6767 47.5335C43.5836 47.215 43.4866 46.8835 43.3729 46.566C43.3621 46.5344 43.3248 46.4434 43.2817 46.3376L43.2258 46.1974C43.234 46.1566 43.2289 46.1145 43.2111 46.0766Z" fill="#463B32"/>
<path d="M53.7211 68.9561C53.3564 71.5717 52.8683 73.0647 52.8604 73.0879C52.7424 73.4723 52.7876 73.8852 52.9865 74.2384C53.1854 74.5916 53.5222 74.8572 53.925 74.9784C54.3278 75.0996 54.7647 75.0668 55.1423 74.8871C55.5199 74.7074 55.8084 74.3949 55.9462 74.0164C55.9991 73.8586 57.2479 70.0879 57.3479 63.8734C57.4391 58.2318 56.5539 49.3951 51.8587 39.2391L54.5876 39.8891C54.8588 39.9538 55.143 39.951 55.4127 39.8809C55.6824 39.8108 55.9283 39.6757 56.1266 39.4889L57.0195 38.6467L57.6528 39.7489C57.758 39.9299 57.9007 40.089 58.0723 40.2166C58.2439 40.3442 58.441 40.4378 58.6516 40.4917L68.2745 42.9569C68.4121 42.9926 68.5542 43.0107 68.6969 43.0107C68.9301 43.0107 69.1605 42.9629 69.3724 42.8708C69.5844 42.7786 69.7727 42.6441 69.9247 42.4766C70.0767 42.3091 70.1887 42.1125 70.2531 41.9002C70.3174 41.6879 70.3326 41.4649 70.2976 41.2465C70.0036 39.3895 69.09 37.422 67.7344 35.7061C67.607 35.5448 67.4474 35.4088 67.2646 35.306C67.0817 35.2031 66.8793 35.1354 66.6689 35.1067C66.4584 35.0779 66.244 35.0888 66.038 35.1386C65.8319 35.1884 65.6383 35.2762 65.4681 35.3969C65.424 35.4285 65.3828 35.461 65.3436 35.4953C65.3769 35.4582 65.4122 35.4229 65.4416 35.3821C65.5653 35.2181 65.6537 35.0327 65.7017 34.8365C65.7497 34.6402 65.7564 34.4368 65.7215 34.2381C65.6865 34.0393 65.6106 33.8491 65.498 33.6781C65.3854 33.5072 65.2383 33.3589 65.0652 33.2419C64.8767 33.1171 64.6637 33.0293 64.4389 32.9836C64.214 32.938 63.9818 32.9353 63.7559 32.9759C63.5299 33.0165 63.3148 33.0994 63.1232 33.2199C62.9316 33.3404 62.7674 33.4959 62.6401 33.6773C62.4063 34.0185 62.325 34.4336 62.4139 34.8315C62.5029 35.2295 62.7549 35.5777 63.1146 35.7999C63.3918 35.9763 63.7177 36.0715 64.0517 36.0738C64.3879 36.0738 64.7162 35.9766 64.9927 35.7953C65.0289 35.772 65.0632 35.746 65.0976 35.72C65.1319 35.694 65.1769 35.6551 65.2152 35.6216C64.9725 35.8861 64.8328 36.2214 64.8192 36.5716C64.8057 36.9218 64.9191 37.2658 65.1407 37.5464C65.5673 38.0856 65.9403 38.6609 66.2552 39.2651L60.1641 37.7033L58.8271 35.3821C58.7067 35.173 58.5366 34.9933 58.3302 34.8572C58.1239 34.7212 57.8869 34.6325 57.6381 34.5983C57.3893 34.5641 57.1354 34.5852 56.8967 34.66C56.658 34.7348 56.441 34.8612 56.2628 35.0292L54.4896 36.7006L46.737 34.8435C50.157 32.8602 55.8727 32.6207 60.3327 34.2762C60.7285 34.4069 61.1625 34.3871 61.5432 34.2209C61.9239 34.0547 62.2218 33.7552 62.3742 33.3852C62.5265 33.0153 62.5215 32.6038 62.3601 32.2373C62.1988 31.8708 61.8937 31.5779 61.509 31.4201C59.5891 30.72 57.5693 30.2969 55.5169 30.1648L55.5747 29.8862L57.345 30.1323C57.6136 30.1696 57.8879 30.1424 58.1426 30.0532C58.3972 29.9639 58.6242 29.8155 58.8026 29.6216L63.9781 23.9837C64.1602 23.7855 64.2855 23.5464 64.342 23.2892C64.3984 23.0319 64.3841 22.7653 64.3005 22.5148C64.2168 22.2643 64.0666 22.0384 63.8643 21.8587C63.6619 21.6791 63.4142 21.5517 63.145 21.4888C58.1399 20.3161 53.627 20.9187 50.0923 23.2316C47.379 25.0078 45.6195 27.5157 44.6128 29.8788C42.2476 26.8518 38.5198 24.7228 34.1705 24.0115C28.5156 23.083 22.9489 24.6829 19.2848 28.2827C19.0847 28.4794 18.9437 28.7233 18.8764 28.989C18.8091 29.2546 18.8179 29.5325 18.9019 29.7939C18.986 30.0553 19.1422 30.2906 19.3545 30.4757C19.5667 30.6607 19.8273 30.7886 20.1092 30.8463L30.2506 32.9206C30.4928 32.9729 30.7444 32.9717 30.9861 32.9173C31.2278 32.8629 31.453 32.7567 31.6445 32.6068L32.3257 32.058L32.3659 32.3821C32.4056 32.7023 32.5508 33.0026 32.781 33.2401C33.0112 33.4776 33.3146 33.6404 33.6481 33.7052L35.8791 34.1397C32.9384 35.1462 30.1349 36.7841 28.0186 38.8751C24.6859 42.1583 23.3939 46.2438 24.3722 50.3803C24.4314 50.6293 24.5552 50.8603 24.7324 51.0525C24.9095 51.2448 25.1345 51.3921 25.387 51.4813C25.6394 51.5704 25.9113 51.5985 26.1781 51.563C26.4449 51.5276 26.6981 51.4297 26.9149 51.2782L36.4045 44.6319C36.875 44.3032 37.1171 44.1017 37.0514 43.2187C37.5797 43.6597 38.1591 43.279 38.5845 42.9401L45.2696 37.6365C45.3592 37.6754 45.4524 37.7065 45.548 37.7293L49.0964 38.5789C48.876 38.7986 48.7292 39.0752 48.6746 39.3738C48.62 39.6724 48.66 39.9797 48.7896 40.2567C49.56 41.9067 50.2227 43.5177 50.7951 45.085L47.4967 45.5985C47.3163 44.5362 47.0987 43.4459 46.8438 42.3273C46.7443 41.9382 46.488 41.6014 46.1299 41.3889C45.7717 41.1763 45.34 41.1048 44.9269 41.1896C44.5138 41.2745 44.1522 41.509 43.9191 41.843C43.6861 42.177 43.6002 42.5841 43.6797 42.9773C45.7979 52.215 44.954 59.3813 43.8757 63.7676C42.7093 68.5132 41.0193 71.1186 40.9978 71.152C40.769 71.4967 40.6942 71.9135 40.7898 72.3105C40.8854 72.7075 41.1435 73.0523 41.5075 73.269C41.8715 73.4857 42.3114 73.5566 42.7305 73.466C43.1496 73.3755 43.5136 73.1309 43.7424 72.7862C43.8493 72.6246 44.7893 71.178 45.7822 68.5596L53.7211 68.9561ZM51.9351 25.7692C54.0916 24.3588 56.6794 23.7803 59.6524 24.0366L56.9421 26.9893L54.5288 26.6531C54.1184 26.5957 53.7003 26.6896 53.3609 26.9156C53.0214 27.1416 52.7865 27.4824 52.7046 27.8676L52.2145 30.1889C50.637 30.3042 49.0816 30.6113 47.5868 31.1026C48.4063 29.1481 49.858 27.1267 51.9351 25.7692ZM35.186 28.8565C35.1518 28.5806 35.0392 28.3186 34.8601 28.0986C34.6811 27.8786 34.4423 27.7087 34.1693 27.6071C33.8964 27.5055 33.5994 27.476 33.3101 27.5217C33.0208 27.5674 32.75 27.6867 32.5267 27.8667L30.1506 29.7785L24.135 28.5473C26.8336 27.0431 30.1947 26.4842 33.6177 27.045C37.4102 27.6671 40.5979 29.5845 42.423 32.2827L35.4399 30.9234L35.186 28.8565ZM37.1886 40.0497L35.2282 39.4545C34.9512 39.3705 34.6555 39.3586 34.3721 39.4202C34.0886 39.4818 33.8279 39.6145 33.6173 39.8045C33.4067 39.9945 33.254 40.2347 33.1753 40.4999C33.0965 40.765 33.0946 41.0454 33.1697 41.3115L33.5883 42.7869L27.2992 47.1871C27.458 44.4657 28.9489 42.3756 30.3506 40.9949C33.3011 38.084 38.1561 36.1323 42.1927 36.0785L37.1886 40.0497ZM46.7693 65.5401C47.0928 64.3739 47.3918 63.074 47.6349 61.6459L54.0789 61.268C54.1122 62.1324 54.122 62.9393 54.1122 63.6905C54.1024 64.4686 54.072 65.2049 54.0279 65.8994L46.7693 65.5401ZM53.3231 54.398C53.5623 55.7369 53.7358 57.008 53.8593 58.2048L48.0446 58.5456C48.1544 57.3859 48.225 56.1612 48.2407 54.8715L53.3231 54.398ZM51.7881 48.0414C52.1357 49.1834 52.4373 50.2943 52.6928 51.3738L48.1838 51.7953C48.1328 50.7789 48.0469 49.7266 47.926 48.6384L51.7881 48.0414Z" fill="#9C6137" fill-opacity="0.69"/>
<path d="M26.4493 84.2458C26.8076 84.2462 27.1554 84.1311 27.4354 83.9193C27.7154 83.7075 27.9109 83.4117 27.9897 83.0806C28.0686 82.7495 28.0261 82.4029 27.8692 82.0977C27.7123 81.7926 27.4504 81.5471 27.1266 81.4018C23.4172 79.733 19.9884 77.5544 16.9509 74.9366C16.9813 74.9366 17.0117 74.9412 17.0421 74.9412H17.1146C17.4247 74.9266 17.7222 74.8204 17.9655 74.6376C18.0282 74.5893 22.9774 69.5085 23.1881 69.2922C23.2171 69.262 23.2357 69.2241 23.2415 69.1837C23.2473 69.1432 23.2399 69.102 23.2204 69.0656C22.9901 68.6441 22.7441 68.1975 22.4755 67.7555C22.299 67.4639 22.0981 67.1343 21.8707 66.827C21.8525 66.8026 21.8288 66.7824 21.8014 66.7677C21.7739 66.7531 21.7433 66.7445 21.7119 66.7425C21.6804 66.7409 21.6489 66.7458 21.6197 66.7569C21.5904 66.7679 21.564 66.7849 21.5423 66.8066C18.3282 70.139 16.2589 72.2848 16.1011 72.4445C15.9103 72.5935 15.7617 72.7852 15.6688 73.0023C15.5758 73.2193 15.5415 73.4549 15.5688 73.6877C7.77997 66.3451 3.15429 56.2401 3.15429 45.565C3.1386 37.4018 5.80412 29.4361 10.7814 22.772C10.9008 22.6116 10.9857 22.4306 11.0312 22.2392C11.0767 22.0478 11.082 21.8497 11.0467 21.6564C11.0115 21.463 10.9363 21.2781 10.8256 21.1123C10.7149 20.9465 10.5708 20.8029 10.4016 20.6898C10.2323 20.5767 10.0412 20.4963 9.8391 20.4532C9.63702 20.41 9.42795 20.405 9.22383 20.4385C9.01972 20.4719 8.82455 20.543 8.64947 20.6479C8.47439 20.7528 8.32282 20.8892 8.20342 21.0496C3.0451 27.9826 0.191661 36.2176 0.00931928 44.6977C-0.173022 53.1778 2.32406 61.516 7.18007 68.6422C11.7396 75.3332 18.1787 80.687 25.7739 84.1019C25.985 84.1966 26.2157 84.2458 26.4493 84.2458Z" fill="#463B32"/>
<path d="M11.1833 17.4693C10.9652 17.6956 10.817 17.9744 10.7549 18.2752C10.6781 18.6014 10.7189 18.9426 10.8709 19.2443C11.0228 19.546 11.2771 19.7908 11.5931 19.9395C11.9091 20.0882 12.2686 20.1323 12.6142 20.0647C12.9598 19.9972 13.2715 19.8218 13.4996 19.5668C13.6947 19.3568 13.8315 19.104 13.8975 18.8314C13.9869 18.506 13.9578 18.1616 13.8149 17.8538C13.672 17.546 13.4237 17.2929 13.1102 17.1354C12.7966 16.9779 12.4361 16.9251 12.087 16.9857C11.7378 17.0463 11.4205 17.2167 11.1862 17.4693H11.1833Z" fill="#463B32"/>
<path d="M81.7545 20.9957C81.6401 20.8241 81.49 20.6764 81.3134 20.5615C81.1367 20.4466 80.9372 20.3671 80.727 20.3277C80.5168 20.2882 80.3004 20.2898 80.0908 20.3323C79.8813 20.3747 79.6831 20.4572 79.5083 20.5746C79.3336 20.692 79.1859 20.842 79.0743 21.0152C78.9628 21.1885 78.8896 21.3815 78.8594 21.5824C78.8292 21.7834 78.8425 21.988 78.8985 22.1839C78.9545 22.3798 79.0521 22.5628 79.1853 22.7218C82.5989 27.2974 84.9487 32.507 86.0795 38.0064C87.2103 43.5059 87.0964 49.1701 85.7453 54.6247C84.3941 60.0794 81.8365 65.2004 78.2414 69.6495C74.6463 74.0986 70.0956 77.7744 64.8897 80.4343C64.545 80.6339 64.2943 80.9511 64.1892 81.3207C64.0842 81.6902 64.1329 82.0838 64.3252 82.4204C64.5176 82.7569 64.8389 83.0107 65.223 83.1294C65.6071 83.2481 66.0246 83.2226 66.3895 83.0583C71.9871 80.197 76.8802 76.2432 80.7454 71.4582C84.6107 66.6732 87.3603 61.1659 88.8125 55.2999C90.2646 49.434 90.3864 43.3429 89.1698 37.429C87.9531 31.5152 85.4257 25.9132 81.7545 20.993V20.9957Z" fill="#463B32"/>
<path d="M75.733 15.5742C75.4086 15.7107 75.1413 15.9456 74.9733 16.2418C74.7744 16.5249 74.6835 16.8638 74.7155 17.2025C74.7476 17.5412 74.9008 17.8593 75.1497 18.1044C75.302 18.2607 75.4868 18.3856 75.6924 18.4713C75.898 18.5569 76.12 18.6014 76.3446 18.602C76.6328 18.6033 76.9158 18.5303 77.1635 18.3908C77.4111 18.2512 77.614 18.0505 77.7503 17.81C77.9466 17.5303 78.0378 17.196 78.0092 16.8612C77.9806 16.5263 77.8338 16.2103 77.5925 15.9641C77.3657 15.7215 77.0636 15.5531 76.7296 15.4831C76.3956 15.413 76.0467 15.4449 75.733 15.5742Z" fill="#463B32"/>
<path d="M17.2579 8.96988C16.3366 9.48643 15.7686 10.1813 15.6255 11.0308L15.1559 10.2793L13.2492 11.3483L18.7933 20.2212L20.7896 19.102L18.8885 16.0595C19.7336 16.3059 20.5965 16.1659 21.4539 15.6852C23.3862 14.6019 24.0654 12.4533 22.7854 10.4048C21.5054 8.35628 19.1902 7.88656 17.2579 8.96988ZM20.1389 14.3273C19.1408 14.8869 17.9616 14.6314 17.2573 13.5041C16.5529 12.3768 16.8837 11.2747 17.8819 10.7151C18.88 10.1555 20.0591 10.4111 20.7635 11.5384C21.4679 12.6656 21.137 13.7677 20.1389 14.3273Z" fill="#463B32"/>
<path d="M26.3452 4.98298C25.1431 5.38272 24.0399 6.09164 23.4213 6.92198L24.739 8.10488C25.132 7.51315 25.8634 6.98734 26.6602 6.72239C27.8343 6.33194 28.5848 6.66239 28.9136 7.54949L27.1803 8.12587C24.888 8.88818 24.2753 10.0735 24.7415 11.3313C25.1979 12.5627 26.5897 13.1409 28.3509 12.5552C29.4551 12.188 30.1103 11.5834 30.2752 10.7999L30.604 11.687L32.6447 11.0083L31.1383 6.94354C30.3384 4.78536 28.6376 4.22067 26.3452 4.98298ZM28.3808 10.9837C27.612 11.2393 27.0232 11.0485 26.8318 10.5321C26.6551 10.0554 26.8441 9.59104 27.8645 9.25173L29.3601 8.75437L29.63 9.48259C29.6189 10.215 29.1076 10.742 28.3808 10.9837Z" fill="#463B32"/>
<path d="M34.5168 10.6799L36.7877 10.2313L34.5351 0L32.2643 0.448596L34.5168 10.6799Z" fill="#463B32"/>
<path d="M48.5884 1.73562C47.3841 1.75414 46.3513 2.2349 45.7253 3.01933C45.146 2.19708 44.1875 1.80329 43.0724 1.82044C42.0465 1.83621 41.1602 2.18794 40.5766 2.84493L40.5616 1.97174L38.3463 2.00581L38.4761 9.5828L40.7955 9.54714L40.7304 5.74456C40.7072 4.39253 41.4249 3.74756 42.4508 3.73179C43.4172 3.71693 43.977 4.27181 43.998 5.49709L44.0665 9.49684L46.3859 9.46118L46.3208 5.6586C46.2976 4.30657 47.0153 3.6616 48.056 3.6456C48.9927 3.63119 49.5822 4.18562 49.6032 5.4109L49.6717 9.41066L51.9912 9.37499L51.9168 5.03723C51.8772 2.72751 50.4915 1.70636 48.5884 1.73562Z" fill="#463B32"/>
<path d="M60.5726 11.776C62.9948 12.5091 65.2716 11.4977 66.0048 9.3241C66.738 7.15051 65.5021 5.07593 63.08 4.34283C60.6579 3.60972 58.3668 4.61681 57.6336 6.7904C56.9004 8.96399 58.1505 11.0429 60.5726 11.776ZM61.152 10.0586C60.0471 9.72416 59.4507 8.71557 59.8716 7.46777C60.2925 6.21997 61.3959 5.72583 62.5007 6.06023C63.6055 6.39463 64.1878 7.39893 63.7669 8.64673C63.346 9.89453 62.2568 10.393 61.152 10.0586Z" fill="#463B32"/>
<path d="M70.9448 6.30408C71.7212 6.6599 72.4893 6.41735 72.8261 5.75803C73.137 5.14942 72.8481 4.4537 72.0718 4.09788C71.2954 3.74206 70.5273 3.98461 70.2099 4.6059C69.8926 5.22718 70.1685 5.94826 70.9448 6.30408ZM65.9306 13.598L68.0188 14.555L71.5032 7.73355L69.415 6.77651L65.9306 13.598Z" fill="#463B32"/>
<path d="M69.7807 15.4548L71.7714 16.5829L77.4359 7.61392L75.4452 6.48583L69.7807 15.4548Z" fill="#463B32"/>
<path d="M34.7528 80.8269C34.9787 80.1117 35.4414 79.8753 36.0967 80.0611C36.4386 80.158 36.7222 80.3413 36.9132 80.5719L37.979 79.2126C37.6512 78.8256 37.0342 78.5184 36.4074 78.3407C34.4985 77.7996 33.1075 78.5668 32.5917 80.1996L32.4893 80.5235L31.3069 80.1883L30.7954 81.8076L31.9778 82.1428L30.247 87.6214L32.4693 88.2514L34.2001 82.7727L36.1091 83.3139L36.6206 81.6945L34.6547 81.1373L34.7528 80.8269Z" fill="#463B32"/>
<path d="M39.6394 82.9678L39.7903 81.978L37.5975 81.6779L36.4537 89.1781L38.7496 89.4922L39.2896 85.9513C39.5086 84.5154 40.4474 83.9749 41.713 84.1481C41.8897 84.1723 42.0347 84.2064 42.2239 84.2465L42.53 82.239C41.3085 82.0719 40.3092 82.3194 39.6394 82.9678Z" fill="#463B32"/>
<path d="M51.6494 85.9751C51.5465 83.5383 49.6693 82.114 47.3199 82.203C44.8812 82.2954 43.1212 83.9986 43.2169 86.2664C43.3121 88.5201 45.181 90.0999 47.9468 89.9951C49.3892 89.9404 50.4866 89.4756 51.1962 88.6446L49.9084 87.4236C49.3791 87.9375 48.7795 88.2 47.9319 88.2321C46.7126 88.2783 45.8406 87.7329 45.5777 86.7977L51.6298 86.5684C51.6369 86.3847 51.6566 86.1441 51.6494 85.9751ZM47.4049 83.8645C48.4458 83.8251 49.2304 84.4161 49.4344 85.3677L45.4938 85.517C45.6164 84.5389 46.3492 83.9045 47.4049 83.8645Z" fill="#463B32"/>
<path d="M61.3185 83.5287C60.624 81.1894 58.4568 80.22 56.2013 80.8209C53.8602 81.4446 52.5701 83.481 53.2165 85.658C53.8589 87.8216 56.0559 88.9435 58.7111 88.2361C60.0958 87.8672 61.046 87.1763 61.5309 86.2154L59.9847 85.3141C59.597 85.9281 59.08 86.3139 58.2663 86.5306C57.0957 86.8425 56.1175 86.5049 55.6343 85.6559L61.4443 84.1081C61.4064 83.9285 61.3667 83.691 61.3185 83.5287ZM56.6894 82.4127C57.6886 82.1465 58.5933 82.5475 59.0233 83.4252L55.2404 84.433C55.1204 83.4582 55.6758 82.6828 56.6894 82.4127Z" fill="#463B32"/>
</svg>
