<svg width="73" height="89" viewBox="0 0 73 89" fill="none" xmlns="http://www.w3.org/2000/svg">
<path d="M10.0328 58.8275C12.7498 65.0412 17.7605 70.225 24.1433 73.4254C27.3096 75.0127 31.4343 75.9569 35.1068 75.9569C35.3623 75.9569 35.6139 75.9505 35.8646 75.9413C36.0198 75.9468 36.1779 75.9505 36.3467 75.9505C39.4879 75.9505 44.3367 75.0504 47.5782 73.4254C53.9609 70.225 58.9717 65.0421 61.6887 58.8275C64.5233 52.3456 64.4848 45.44 61.5923 39.3829C60.0708 36.2037 55.5383 29.6961 50.7387 22.8052C45.3327 15.0429 39.7405 7.01522 37.6261 2.64487L36.3457 0L33.1302 6.24046H33.1389C30.4904 11.2566 24.8703 18.7352 19.9116 25.3331C15.3925 31.3469 11.4915 36.5372 10.1302 39.3838C7.23285 45.44 7.19814 52.3456 10.0328 58.8275ZM12.7787 40.539C14.0215 37.9402 18.0295 32.6063 22.2728 26.9591C27.2942 20.2774 32.9856 12.702 35.7354 7.49334L36.3399 6.34733C39.0521 11.0521 43.7466 17.7928 48.3119 24.3465C53.045 31.1424 57.5168 37.5607 58.9408 40.539C64.1473 51.4143 58.5552 64.7777 46.2236 70.9629C43.7167 72.2186 39.9835 72.9896 37.2829 73.1416V73.1011L35.8598 73.1601L34.4347 73.1011V73.1582C31.4102 73.0495 28.0375 72.237 25.4979 70.9602C13.1615 64.7777 7.57609 51.4143 12.7787 40.539Z" fill="#463B32"/>
<path d="M19.1451 56.2157C17.9881 53.4972 17.4896 51.0642 17.4896 48.0785C17.4896 47.8959 17.452 47.7151 17.3788 47.5465C17.3057 47.3778 17.1986 47.2246 17.0635 47.0955C16.9284 46.9664 16.768 46.864 16.5914 46.7941C16.4149 46.7243 16.2257 46.6883 16.0347 46.6883C15.8436 46.6883 15.6544 46.7243 15.4779 46.7941C15.3014 46.864 15.141 46.9664 15.0059 47.0955C14.8708 47.2246 14.7636 47.3778 14.6905 47.5465C14.6174 47.7151 14.5798 47.8959 14.5798 48.0785C14.5798 51.4465 15.139 54.1945 16.4502 57.266C16.5224 57.4353 16.6288 57.5895 16.7633 57.7195C16.8978 57.8496 17.0578 57.9531 17.2342 58.0241C17.4106 58.0951 17.5998 58.1323 17.7912 58.1334C17.9826 58.1345 18.1724 58.0995 18.3496 58.0306C18.5269 57.9616 18.6882 57.86 18.8243 57.7315C18.9605 57.6029 19.0688 57.45 19.1431 57.2815C19.2174 57.113 19.2563 56.9321 19.2574 56.7493C19.2586 56.5664 19.2221 56.3851 19.1499 56.2157H19.1451Z" fill="#463B32"/>
<path d="M19.6262 61.5036C19.7563 61.503 19.8859 61.4869 20.0118 61.4557C20.085 61.4398 20.1566 61.4179 20.2259 61.3903C20.2954 61.3646 20.3628 61.3338 20.4274 61.2982C20.5979 61.1945 20.7446 61.0587 20.8585 60.8991C20.9725 60.7396 21.0512 60.5596 21.0901 60.37C21.129 60.1805 21.1271 59.9853 21.0846 59.7965C21.0421 59.6077 20.9599 59.429 20.843 59.2715C20.1256 58.3503 19.1778 58.587 18.7787 58.8422C18.7344 58.8704 18.6919 58.9012 18.6514 58.9343C18.3766 59.1522 18.1953 59.4591 18.1419 59.7964C18.0886 60.1338 18.167 60.4782 18.3622 60.7639C18.7565 61.3489 19.2318 61.5036 19.6262 61.5036Z" fill="#463B32"/>
<path d="M29.7557 65.7082C27.3822 64.8851 25.2096 63.6077 23.371 61.9541C23.2326 61.8247 23.0685 61.7229 22.8885 61.6548C22.7084 61.5866 22.5159 61.5535 22.3223 61.5573C22.1286 61.5612 21.9377 61.6019 21.7608 61.6771C21.5838 61.7523 21.4243 61.8605 21.2917 61.9953C21.159 62.1302 21.0558 62.289 20.9882 62.4624C20.9206 62.6358 20.8898 62.8204 20.8978 63.0053C20.9058 63.1902 20.9522 63.3717 21.0345 63.5392C21.1168 63.7067 21.2333 63.8569 21.3771 63.9809C23.5025 65.8947 26.0147 67.3734 28.7597 68.3263C28.9404 68.3937 29.1334 68.4259 29.3273 68.421C29.5212 68.4161 29.7122 68.3742 29.8889 68.2978C30.0656 68.2215 30.2246 68.1121 30.3565 67.9762C30.4884 67.8402 30.5905 67.6805 30.6569 67.5064C30.7233 67.3322 30.7525 67.1471 30.743 66.962C30.7334 66.7769 30.6853 66.5954 30.6013 66.4283C30.5174 66.2613 30.3993 66.1119 30.2541 65.989C30.1089 65.8661 29.9394 65.7722 29.7557 65.7128V65.7082Z" fill="#463B32"/>
<path d="M32.9268 53.5709C36.2753 53.5709 39.0627 50.6395 39.0627 47.0375V42.3391C39.0627 38.7362 36.2753 35.8057 32.9268 35.8057C29.5783 35.8057 26.7899 38.739 26.7899 42.3401V47.0384C26.7899 50.6395 29.5773 53.5709 32.9268 53.5709ZM28.8773 42.3401C28.8773 39.779 30.6658 37.6961 32.9268 37.6961C35.1878 37.6961 36.9763 39.779 36.9763 42.3401V47.0384C36.9763 49.5985 35.1868 51.6814 32.9268 51.6814C30.6668 51.6814 28.8773 49.5985 28.8773 47.0384V42.3401Z" fill="#9C6137" fill-opacity="0.69"/>
<path d="M42.5723 47.7993C42.632 47.7993 42.6928 47.8058 42.7526 47.8058C43.2619 47.8052 43.7604 47.6646 44.1883 47.4007C44.6163 47.1368 44.9557 46.7607 45.1661 46.3175C45.3764 45.8742 45.4488 45.3825 45.3746 44.901C45.3003 44.4195 45.0826 43.9686 44.7474 43.6022C44.4603 43.288 44.0966 43.0464 43.6884 42.8987C43.2802 42.7511 42.8402 42.7019 42.4074 42.7555C41.9746 42.8092 41.5623 42.964 41.207 43.2063C40.8518 43.4487 40.5646 43.771 40.3709 44.1447C40.1773 44.5184 40.0831 44.932 40.0967 45.3488C40.1103 45.7657 40.2313 46.1728 40.4491 46.5343C40.6668 46.8957 40.9744 47.2003 41.3448 47.421C41.7152 47.6416 42.1368 47.7716 42.5723 47.7993ZM42.7487 44.6257H42.795C42.974 44.631 43.1434 44.7041 43.266 44.8289C43.3886 44.9536 43.4543 45.1198 43.4487 45.2908C43.4431 45.4618 43.3666 45.6237 43.236 45.7408C43.1055 45.858 42.9316 45.9208 42.7526 45.9154C42.7365 45.9163 42.7204 45.9163 42.7044 45.9154C42.5259 45.9038 42.3596 45.825 42.2419 45.6963C42.1242 45.5676 42.0648 45.3996 42.0767 45.2291C42.0877 45.0658 42.1632 44.9126 42.288 44.8006C42.4128 44.6886 42.5775 44.626 42.7487 44.6257Z" fill="#9C6137" fill-opacity="0.69"/>
<path d="M45.8456 50.5354C45.799 51.2061 46.0331 51.8671 46.4962 52.373C46.9594 52.879 47.6139 53.1885 48.3158 53.2337C48.3756 53.2337 48.4353 53.2392 48.4941 53.2392C49.0114 53.239 49.5173 53.0944 49.9496 52.8231C50.3819 52.5518 50.7219 52.1657 50.9276 51.7123C51.1333 51.2589 51.1958 50.7579 51.1075 50.271C51.0191 49.784 50.7838 49.3324 50.4303 48.9716C50.0769 48.6107 49.6208 48.3565 49.1181 48.2401C48.6154 48.1237 48.0881 48.1502 47.601 48.3163C47.1139 48.4825 46.6882 48.781 46.3763 49.1753C46.0645 49.5695 45.88 50.0423 45.8456 50.5354ZM49.1662 50.7473C49.1573 50.8726 49.1104 50.9928 49.0311 51.093C48.9517 51.1932 48.8435 51.2691 48.7197 51.3113C48.5958 51.3535 48.4618 51.3603 48.334 51.3307C48.2062 51.3012 48.0902 51.2366 48.0003 51.1449C47.9104 51.0533 47.8505 50.9385 47.8279 50.8147C47.8053 50.6909 47.8211 50.5636 47.8732 50.4482C47.9254 50.3329 48.0116 50.2346 48.1214 50.1655C48.2312 50.0964 48.3598 50.0594 48.4912 50.0591H48.5375C48.6262 50.0647 48.7127 50.087 48.7923 50.1246C48.8719 50.1623 48.943 50.2146 49.0014 50.2785C49.0598 50.3425 49.1044 50.4168 49.1327 50.4972C49.1609 50.5776 49.1723 50.6626 49.1662 50.7473Z" fill="#9C6137" fill-opacity="0.69"/>
<path d="M42.148 52.7878C42.2549 52.8582 42.3753 52.9078 42.5023 52.9337C42.6293 52.9596 42.7603 52.9614 42.888 52.9389C43.0157 52.9164 43.1375 52.8701 43.2464 52.8026C43.3554 52.7351 43.4493 52.6477 43.5229 52.5455L49.2462 44.6026C49.3952 44.396 49.4521 44.1414 49.4046 43.8947C49.357 43.648 49.2088 43.4294 48.9926 43.2871C48.7764 43.1448 48.5099 43.0904 48.2517 43.1358C47.9935 43.1812 47.7648 43.3228 47.6158 43.5294L41.8935 51.4723C41.8195 51.5745 41.7673 51.6897 41.74 51.8113C41.7127 51.9329 41.7108 52.0584 41.7345 52.1806C41.7581 52.3029 41.8069 52.4195 41.8778 52.5237C41.9488 52.6279 42.0406 52.7176 42.148 52.7878Z" fill="#9C6137" fill-opacity="0.69"/>
<path d="M15.6761 81.9059C14.5235 81.9059 13.3576 82.2004 12.5669 82.7383L13.3174 84.134C13.84 83.7371 14.6308 83.4938 15.3947 83.4938C16.5204 83.4938 17.0565 83.9932 17.0565 84.8511H15.3947C13.1968 84.8511 12.2988 85.6963 12.2988 86.9128C12.2988 88.1036 13.304 89 14.9926 89C16.0514 89 16.8019 88.6671 17.1905 88.0396V88.8976H19.1472V84.9664C19.1472 82.8791 17.874 81.9059 15.6761 81.9059ZM15.5153 87.6555C14.7782 87.6555 14.3359 87.3225 14.3359 86.8231C14.3359 86.3621 14.6442 86.0164 15.6225 86.0164H17.0565V86.7207C16.8153 87.3481 16.2122 87.6555 15.5153 87.6555Z" fill="#463B32"/>
<path d="M25.1269 87.1561C24.8991 87.3225 24.5908 87.4121 24.2826 87.4121C23.7197 87.4121 23.3847 87.092 23.3847 86.503V83.6986H25.1805V82.162H23.3847V80.4845H21.294V82.162H20.1816V83.6986H21.294V86.5286C21.294 88.1677 22.2857 89 23.9878 89C24.6311 89 25.2609 88.8591 25.6898 88.5646L25.1269 87.1561Z" fill="#463B32"/>
<path d="M33.7037 85.4786C33.7037 83.2633 32.0687 81.9059 29.9512 81.9059C27.7533 81.9059 26.1048 83.3913 26.1048 85.453C26.1048 87.5018 27.7265 89 30.2192 89C31.5192 89 32.5243 88.6158 33.1944 87.8859L32.0821 86.7335C31.5862 87.1817 31.0367 87.3993 30.2728 87.3993C29.1739 87.3993 28.41 86.8743 28.2089 86.0164H33.6635C33.6769 85.8499 33.7037 85.6322 33.7037 85.4786ZM29.9646 83.4169C30.9027 83.4169 31.5862 83.9804 31.7336 84.8511H28.1821C28.3295 83.9676 29.013 83.4169 29.9646 83.4169Z" fill="#463B32"/>
<path d="M37.0925 82.9175V82.0084H35.0956V88.8976H37.1863V85.645C37.1863 84.3261 37.9502 83.7243 39.1027 83.7243C39.2636 83.7243 39.3976 83.7371 39.5718 83.7499V81.9059C38.4595 81.9059 37.6017 82.2517 37.0925 82.9175Z" fill="#463B32"/>
<path d="M46.9544 81.8675C46.9544 81.1888 47.2895 80.8687 47.906 80.8687C48.2276 80.8687 48.5225 80.9583 48.7503 81.112L49.2998 79.665C48.9111 79.4089 48.2946 79.2937 47.705 79.2937C45.9091 79.2937 44.9174 80.3053 44.9174 81.8547V82.162H43.805V83.6986H44.9174V88.8976H47.0081V83.6986H48.8039V82.162H46.9544V81.8675Z" fill="#463B32"/>
<path d="M52.9155 82.9175V82.0084H50.9187V88.8976H53.0094V85.645C53.0094 84.3261 53.7733 83.7243 54.9258 83.7243C55.0867 83.7243 55.2207 83.7371 55.3949 83.7499V81.9059C54.2825 81.9059 53.4248 82.2517 52.9155 82.9175Z" fill="#463B32"/>
<path d="M63.6353 85.4786C63.6353 83.2633 62.0003 81.9059 59.8828 81.9059C57.6849 81.9059 56.0365 83.3913 56.0365 85.453C56.0365 87.5018 57.6581 89 60.1509 89C61.4509 89 62.456 88.6158 63.1261 87.8859L62.0137 86.7335C61.5179 87.1817 60.9684 87.3993 60.2045 87.3993C59.1055 87.3993 58.3416 86.8743 58.1406 86.0164H63.5951C63.6085 85.8499 63.6353 85.6322 63.6353 85.4786ZM59.8962 83.4169C60.8344 83.4169 61.5179 83.9804 61.6653 84.8511H58.1138C58.2612 83.9676 58.9447 83.4169 59.8962 83.4169Z" fill="#463B32"/>
<path d="M72.09 85.4786C72.09 83.2633 70.455 81.9059 68.3375 81.9059C66.1396 81.9059 64.4912 83.3913 64.4912 85.453C64.4912 87.5018 66.1128 89 68.6056 89C69.9055 89 70.9107 88.6158 71.5808 87.8859L70.4684 86.7335C69.9725 87.1817 69.4231 87.3993 68.6592 87.3993C67.5602 87.3993 66.7963 86.8743 66.5953 86.0164H72.0498C72.0632 85.8499 72.09 85.6322 72.09 85.4786ZM68.3509 83.4169C69.289 83.4169 69.9725 83.9804 70.12 84.8511H66.5685C66.7159 83.9676 67.3994 83.4169 68.3509 83.4169Z" fill="#463B32"/>
<path d="M10.0409 82.4593L8.58846 86.4537L7.17389 82.4593H5.12782L3.67536 86.4175L2.27342 82.4593H0L2.43761 89H4.76155L6.10033 85.44L7.3886 89H9.71254L12.1502 82.4593H10.0409Z" fill="#463B32"/>
</svg>
