<svg width="61" height="140" viewBox="0 0 61 140" fill="none" xmlns="http://www.w3.org/2000/svg">
<path d="M60.8 -9.53674e-06H62.8V-2.00001H60.8V-9.53674e-06ZM60.8 140V142H62.8V140H60.8ZM28.4 140H26.4V142H28.4V140ZM28.4 26H30.4V24H28.4V26ZM0.4 26H-1.6V28H0.4V26ZM0.4 -9.53674e-06V-2.00001H-1.6V-9.53674e-06H0.4ZM58.8 -9.53674e-06V140H62.8V-9.53674e-06H58.8ZM60.8 138H28.4V142H60.8V138ZM30.4 140V26H26.4V140H30.4ZM28.4 24H0.4V28H28.4V24ZM2.4 26V-9.53674e-06H-1.6V26H2.4ZM0.4 1.99999H60.8V-2.00001H0.4V1.99999Z" fill="#9C6137" fill-opacity="0.66"/>
</svg>
