<svg width="113" height="143" viewBox="0 0 113 143" fill="none" xmlns="http://www.w3.org/2000/svg">
<path d="M112.4 116.6H114.4V114.6H112.4V116.6ZM112.4 143V145H114.4V143H112.4ZM6.6 143H4.6V145H6.6V143ZM6.6 122L5.22675 120.546L4.6 121.138V122H6.6ZM60.6 71L61.9733 72.454L61.9802 72.4475L60.6 71ZM72.2 57L73.9764 57.9188L73.9827 57.9067L73.9889 57.8944L72.2 57ZM69.4 32.4L68.1305 33.9454L68.1604 33.97L68.1912 33.9934L69.4 32.4ZM36.2 31.4L37.035 33.2173L37.0551 33.2081L37.0749 33.1985L36.2 31.4ZM23.8 41.8L22.717 43.4814L24.3196 44.5135L25.4275 42.9625L23.8 41.8ZM0.2 26.6L-1.4599 25.4843L-2.59764 27.1771L-0.882955 28.2814L0.2 26.6ZM22.8 7.59999L23.654 9.40849L23.6642 9.40366L23.6744 9.39873L22.8 7.59999ZM83 5.79999L82.1819 7.62501L82.2007 7.63345L82.2197 7.64149L83 5.79999ZM101.2 20.2L99.5468 21.3256L99.5606 21.3459L99.5749 21.3658L101.2 20.2ZM103 63.4L104.803 64.2655L103 63.4ZM84.4 86.2L83.0399 84.7337L83.0334 84.7397L83.027 84.7457L84.4 86.2ZM52.2 116.6L50.827 115.146L47.1682 118.6H52.2V116.6ZM110.4 116.6V143H114.4V116.6H110.4ZM112.4 141H6.6V145H112.4V141ZM8.6 143V122H4.6V143H8.6ZM7.97325 123.454L61.9732 72.454L59.2268 69.546L5.22675 120.546L7.97325 123.454ZM61.9802 72.4475C67.765 66.9317 71.8229 62.0823 73.9764 57.9188L70.4236 56.0811C68.5771 59.651 64.9017 64.135 59.2198 69.5525L61.9802 72.4475ZM73.9889 57.8944C76.1059 53.6602 77.2 49.4224 77.2 45.2H73.2C73.2 48.7109 72.2941 52.3398 70.4111 56.1056L73.9889 57.8944ZM77.2 45.2C77.2 39.0836 75.055 34.1796 70.6088 30.8066L68.1912 33.9934C71.4784 36.4871 73.2 40.1163 73.2 45.2H77.2ZM70.6695 30.8545C66.4341 27.3755 60.367 25.8 52.8 25.8V29.8C59.8997 29.8 64.8992 31.2912 68.1305 33.9454L70.6695 30.8545ZM52.8 25.8C46.3996 25.8 40.5617 27.054 35.3251 29.6015L37.0749 33.1985C41.705 30.946 46.9337 29.8 52.8 29.8V25.8ZM35.365 29.5826C30.097 32.0031 25.6966 35.7038 22.1725 40.6375L25.4275 42.9625C28.5701 38.5628 32.4364 35.3302 37.035 33.2173L35.365 29.5826ZM24.883 40.1186L1.28295 24.9186L-0.882955 28.2814L22.717 43.4814L24.883 40.1186ZM1.8599 27.7157C7.10867 19.9065 14.3521 13.8011 23.654 9.40849L21.946 5.7915C12.0479 10.4656 4.22467 17.0268 -1.4599 25.4843L1.8599 27.7157ZM23.6744 9.39873C32.9612 4.88433 43.6541 2.6 55.8 2.6V-1.4C43.1459 -1.4 31.8389 0.982323 21.9256 5.80125L23.6744 9.39873ZM55.8 2.6C65.9805 2.6 74.7574 4.29678 82.1819 7.62501L83.8181 3.97497C75.776 0.369873 66.4195 -1.4 55.8 -1.4V2.6ZM82.2197 7.64149C89.779 10.8446 95.523 15.4156 99.5468 21.3256L102.853 19.0744C98.3437 12.4511 91.9544 7.42208 83.7803 3.95849L82.2197 7.64149ZM99.5749 21.3658C103.704 27.1213 105.8 33.9689 105.8 42H109.8C109.8 33.2311 107.496 25.5454 102.825 19.0342L99.5749 21.3658ZM105.8 42C105.8 49.309 104.264 56.1456 101.197 62.5345L104.803 64.2655C108.136 57.3211 109.8 49.891 109.8 42H105.8ZM101.197 62.5345C98.1557 68.8704 92.166 76.2689 83.0399 84.7337L85.7601 87.6663C95.034 79.0645 101.444 71.2629 104.803 64.2655L101.197 62.5345ZM83.027 84.7457L50.827 115.146L53.573 118.054L85.773 87.6543L83.027 84.7457ZM52.2 118.6H112.4V114.6H52.2V118.6Z" fill="#9C6137" fill-opacity="0.66"/>
</svg>
