<svg width="131" height="141" viewBox="0 0 131 141" fill="none" xmlns="http://www.w3.org/2000/svg">
<path d="M130.5 84.4725H132.5V82.4725H130.5V84.4725ZM107.7 84.4725H105.7V86.4725H107.7V84.4725ZM107.7 58.2725H109.7V56.2725H107.7V58.2725ZM77.1 58.2725V56.2725H75.1V58.2725H77.1ZM77.1 84.4725V86.4725H79.1V84.4725H77.1ZM39.5 84.4725L37.8822 83.2966L35.5738 86.4725H39.5V84.4725ZM100.7 0.272453L102.318 1.44834L104.626 -1.72755H100.7V0.272453ZM66.7 0.272453V-1.72755H65.6946L65.0948 -0.920593L66.7 0.272453ZM0.7 89.0725L-0.90519 87.8794L-1.3 88.4106V89.0725H0.7ZM0.7 110.872H-1.3V112.872H0.7V110.872ZM76.1 110.872H78.1V108.872H76.1V110.872ZM76.1 140.272H74.1V142.272H76.1V140.272ZM107.7 140.272V142.272H109.7V140.272H107.7ZM107.7 110.872V108.872H105.7V110.872H107.7ZM130.5 110.872V112.872H132.5V110.872H130.5ZM130.5 82.4725H107.7V86.4725H130.5V82.4725ZM109.7 84.4725V58.2725H105.7V84.4725H109.7ZM107.7 56.2725H77.1V60.2725H107.7V56.2725ZM75.1 58.2725V84.4725H79.1V58.2725H75.1ZM77.1 82.4725H39.5V86.4725H77.1V82.4725ZM41.1178 85.6483L102.318 1.44834L99.0822 -0.903435L37.8822 83.2966L41.1178 85.6483ZM100.7 -1.72755H66.7V2.27245H100.7V-1.72755ZM65.0948 -0.920593L-0.90519 87.8794L2.30519 90.2655L68.3052 1.4655L65.0948 -0.920593ZM-1.3 89.0725V110.872H2.7V89.0725H-1.3ZM0.7 112.872H76.1V108.872H0.7V112.872ZM74.1 110.872V140.272H78.1V110.872H74.1ZM76.1 142.272H107.7V138.272H76.1V142.272ZM109.7 140.272V110.872H105.7V140.272H109.7ZM107.7 112.872H130.5V108.872H107.7V112.872ZM132.5 110.872V84.4725H128.5V110.872H132.5Z" fill="#9C6137" fill-opacity="0.66"/>
</svg>
