<svg width="163" height="98" viewBox="0 0 163 98" fill="none" xmlns="http://www.w3.org/2000/svg">
<g opacity="0.5">
<circle cx="90.5" cy="35.5" r="2.5" transform="rotate(90 90.5 35.5)" fill="#D0AF94"/>
<circle cx="78.5" cy="35.5" r="2.5" transform="rotate(90 78.5 35.5)" fill="#D0AF94"/>
<circle cx="66.5" cy="35.5" r="2.5" transform="rotate(90 66.5 35.5)" fill="#D0AF94"/>
<circle cx="54.5" cy="35.5" r="2.5" transform="rotate(90 54.5 35.5)" fill="#D0AF94"/>
<circle cx="42.5" cy="35.5" r="2.5" transform="rotate(90 42.5 35.5)" fill="#D0AF94"/>
<circle cx="30.5" cy="35.5" r="2.5" transform="rotate(90 30.5 35.5)" fill="#D0AF94"/>
<circle cx="18.5" cy="35.5" r="2.5" transform="rotate(90 18.5 35.5)" fill="#D0AF94"/>
<circle cx="6.5" cy="35.5" r="2.5" transform="rotate(90 6.5 35.5)" fill="#D0AF94"/>
<circle cx="90.5" cy="69.5" r="2.5" transform="rotate(90 90.5 69.5)" fill="#D0AF94"/>
<circle cx="78.5" cy="69.5" r="2.5" transform="rotate(90 78.5 69.5)" fill="#D0AF94"/>
<circle cx="66.5" cy="69.5" r="2.5" transform="rotate(90 66.5 69.5)" fill="#D0AF94"/>
<circle cx="54.5" cy="69.5" r="2.5" transform="rotate(90 54.5 69.5)" fill="#D0AF94"/>
<circle cx="42.5" cy="69.5" r="2.5" transform="rotate(90 42.5 69.5)" fill="#D0AF94"/>
<circle cx="90.5" cy="86.5" r="2.5" transform="rotate(90 90.5 86.5)" fill="#D0AF94"/>
<circle cx="78.5" cy="86.5" r="2.5" transform="rotate(90 78.5 86.5)" fill="#D0AF94"/>
<circle cx="66.5" cy="86.5" r="2.5" transform="rotate(90 66.5 86.5)" fill="#D0AF94"/>
<circle cx="54.5" cy="86.5" r="2.5" transform="rotate(90 54.5 86.5)" fill="#D0AF94"/>
<circle cx="42.5" cy="86.5" r="2.5" transform="rotate(90 42.5 86.5)" fill="#D0AF94"/>
<circle cx="90.5" cy="52.5" r="2.5" transform="rotate(90 90.5 52.5)" fill="#D0AF94"/>
<circle cx="78.5" cy="52.5" r="2.5" transform="rotate(90 78.5 52.5)" fill="#D0AF94"/>
<circle cx="66.5" cy="52.5" r="2.5" transform="rotate(90 66.5 52.5)" fill="#D0AF94"/>
<circle cx="54.5" cy="52.5" r="2.5" transform="rotate(90 54.5 52.5)" fill="#D0AF94"/>
<circle cx="42.5" cy="52.5" r="2.5" transform="rotate(90 42.5 52.5)" fill="#D0AF94"/>
</g>
</svg>
