<svg width="189" height="363" viewBox="0 0 189 363" fill="none" xmlns="http://www.w3.org/2000/svg">
<ellipse cx="150.5" cy="229.295" rx="150" ry="133.276" fill="#9C6137" fill-opacity="0.1"/>
<ellipse cx="61.3417" cy="101.251" rx="43.5331" ry="38.6795" fill="#9C6137" fill-opacity="0.15"/>
<g opacity="0.5">
<circle cx="191" cy="218.071" r="2.5" transform="rotate(90 191 218.071)" fill="#BD967A"/>
<circle cx="179" cy="218.071" r="2.5" transform="rotate(90 179 218.071)" fill="#BD967A"/>
<circle cx="167" cy="218.071" r="2.5" transform="rotate(90 167 218.071)" fill="#BD967A"/>
<circle cx="155" cy="218.071" r="2.5" transform="rotate(90 155 218.071)" fill="#BD967A"/>
<circle cx="191" cy="252.071" r="2.5" transform="rotate(90 191 252.071)" fill="#BD967A"/>
<circle cx="179" cy="252.071" r="2.5" transform="rotate(90 179 252.071)" fill="#BD967A"/>
<circle cx="167" cy="252.071" r="2.5" transform="rotate(90 167 252.071)" fill="#BD967A"/>
<circle cx="155" cy="252.071" r="2.5" transform="rotate(90 155 252.071)" fill="#BD967A"/>
<circle cx="191" cy="235.071" r="2.5" transform="rotate(90 191 235.071)" fill="#BD967A"/>
<circle cx="179" cy="235.071" r="2.5" transform="rotate(90 179 235.071)" fill="#BD967A"/>
<circle cx="167" cy="235.071" r="2.5" transform="rotate(90 167 235.071)" fill="#BD967A"/>
<circle cx="155" cy="235.071" r="2.5" transform="rotate(90 155 235.071)" fill="#BD967A"/>
<circle cx="191" cy="269.071" r="2.5" transform="rotate(90 191 269.071)" fill="#BD967A"/>
<circle cx="179" cy="269.071" r="2.5" transform="rotate(90 179 269.071)" fill="#BD967A"/>
<circle cx="167" cy="269.071" r="2.5" transform="rotate(90 167 269.071)" fill="#BD967A"/>
<circle cx="155" cy="269.071" r="2.5" transform="rotate(90 155 269.071)" fill="#BD967A"/>
</g>
<g opacity="0.5">
<circle cx="172.312" cy="3.07129" r="2.5" transform="rotate(90 172.312 3.07129)" fill="#BD967A"/>
<circle cx="160.312" cy="3.07129" r="2.5" transform="rotate(90 160.312 3.07129)" fill="#BD967A"/>
<circle cx="148.312" cy="3.07129" r="2.5" transform="rotate(90 148.312 3.07129)" fill="#BD967A"/>
<circle cx="136.312" cy="3.07129" r="2.5" transform="rotate(90 136.312 3.07129)" fill="#BD967A"/>
<circle cx="124.312" cy="3.07129" r="2.5" transform="rotate(90 124.312 3.07129)" fill="#BD967A"/>
<circle cx="112.312" cy="3.07129" r="2.5" transform="rotate(90 112.312 3.07129)" fill="#BD967A"/>
<circle cx="100.312" cy="3.07129" r="2.5" transform="rotate(90 100.312 3.07129)" fill="#BD967A"/>
<circle cx="88.3125" cy="3.07129" r="2.5" transform="rotate(90 88.3125 3.07129)" fill="#BD967A"/>
<circle cx="172.312" cy="37.0713" r="2.5" transform="rotate(90 172.312 37.0713)" fill="#BD967A"/>
<circle cx="160.312" cy="37.0713" r="2.5" transform="rotate(90 160.312 37.0713)" fill="#BD967A"/>
<circle cx="148.312" cy="37.0713" r="2.5" transform="rotate(90 148.312 37.0713)" fill="#BD967A"/>
<circle cx="136.312" cy="37.0713" r="2.5" transform="rotate(90 136.312 37.0713)" fill="#BD967A"/>
<circle cx="124.312" cy="37.0713" r="2.5" transform="rotate(90 124.312 37.0713)" fill="#BD967A"/>
<circle cx="112.312" cy="37.0713" r="2.5" transform="rotate(90 112.312 37.0713)" fill="#BD967A"/>
<circle cx="100.312" cy="37.0713" r="2.5" transform="rotate(90 100.312 37.0713)" fill="#BD967A"/>
<circle cx="88.3125" cy="37.0713" r="2.5" transform="rotate(90 88.3125 37.0713)" fill="#BD967A"/>
<circle cx="172.312" cy="20.0713" r="2.5" transform="rotate(90 172.312 20.0713)" fill="#BD967A"/>
<circle cx="160.312" cy="20.0713" r="2.5" transform="rotate(90 160.312 20.0713)" fill="#BD967A"/>
<circle cx="148.312" cy="20.0713" r="2.5" transform="rotate(90 148.312 20.0713)" fill="#BD967A"/>
<circle cx="136.312" cy="20.0713" r="2.5" transform="rotate(90 136.312 20.0713)" fill="#BD967A"/>
<circle cx="124.312" cy="20.0713" r="2.5" transform="rotate(90 124.312 20.0713)" fill="#BD967A"/>
<circle cx="112.312" cy="20.0713" r="2.5" transform="rotate(90 112.312 20.0713)" fill="#BD967A"/>
<circle cx="100.312" cy="20.0713" r="2.5" transform="rotate(90 100.312 20.0713)" fill="#BD967A"/>
<circle cx="88.3125" cy="20.0713" r="2.5" transform="rotate(90 88.3125 20.0713)" fill="#BD967A"/>
<circle cx="172.312" cy="54.0713" r="2.5" transform="rotate(90 172.312 54.0713)" fill="#BD967A"/>
<circle cx="160.312" cy="54.0713" r="2.5" transform="rotate(90 160.312 54.0713)" fill="#BD967A"/>
<circle cx="148.312" cy="54.0713" r="2.5" transform="rotate(90 148.312 54.0713)" fill="#BD967A"/>
<circle cx="136.312" cy="54.0713" r="2.5" transform="rotate(90 136.312 54.0713)" fill="#BD967A"/>
<circle cx="124.312" cy="54.0713" r="2.5" transform="rotate(90 124.312 54.0713)" fill="#BD967A"/>
<circle cx="112.312" cy="54.0713" r="2.5" transform="rotate(90 112.312 54.0713)" fill="#BD967A"/>
<circle cx="100.312" cy="54.0713" r="2.5" transform="rotate(90 100.312 54.0713)" fill="#BD967A"/>
<circle cx="88.3125" cy="54.0713" r="2.5" transform="rotate(90 88.3125 54.0713)" fill="#BD967A"/>
<rect x="201.312" y="131.071" width="99" height="127" transform="rotate(90 201.312 131.071)" stroke="#E6D6C8" stroke-opacity="0.65"/>
</g>
</svg>
