<svg width="180" height="706" viewBox="0 0 180 706" fill="none" xmlns="http://www.w3.org/2000/svg">
<path fill-rule="evenodd" clip-rule="evenodd" d="M228.266 568.681C236.415 596.348 217.651 623.299 199.533 645.741C182.786 666.486 161.049 684.129 134.401 684.95C108.079 685.762 85.8099 669.238 68.05 649.794C49.5804 629.574 32.6871 605.255 36.8857 578.193C41.1921 550.436 63.0943 528.741 88.6424 517.066C112.295 506.258 138.314 511.682 162.706 520.698C189.43 530.578 220.217 541.349 228.266 568.681Z" fill="#F3EBE5"/>
<path fill-rule="evenodd" clip-rule="evenodd" d="M294.839 119.751C306.375 158.919 279.811 197.073 254.163 228.843C230.454 258.211 199.682 283.187 161.956 284.35C124.694 285.499 93.1681 262.106 68.026 234.581C41.879 205.955 17.9637 171.528 23.9076 133.216C30.004 93.9218 61.0103 63.2092 97.178 46.6821C130.662 31.3813 167.496 39.059 202.027 51.8238C239.86 65.8093 283.444 81.0587 294.839 119.751Z" fill="#E9DDD5" stroke="#E6D6C8" stroke-opacity="0.65"/>
</svg>
