<svg width="91" height="91" viewBox="0 0 91 91" fill="none" xmlns="http://www.w3.org/2000/svg">
<path d="M45.1797 88.8712C68.997 88.8712 88.3048 69.5634 88.3048 45.7461C88.3048 21.9288 68.997 2.62109 45.1797 2.62109C21.3624 2.62109 2.05469 21.9288 2.05469 45.7461C2.05469 69.5634 21.3624 88.8712 45.1797 88.8712Z" stroke="#9F857D" stroke-width="4" stroke-linecap="round" stroke-linejoin="round"/>
<path d="M7.67969 45.7441C7.67969 52.0291 13.2747 57.1291 20.1822 57.1291C27.0897 57.1291 32.6772 52.0291 32.6772 45.7441C32.6772 39.4591 38.2797 34.3516 45.1797 34.3516C52.0797 34.3516 57.6822 39.4516 57.6822 45.7441C57.6822 52.0366 63.2772 57.1291 70.1772 57.1291C77.0772 57.1291 82.6797 52.0291 82.6797 45.7441" stroke="#9F857D" stroke-width="4" stroke-linecap="round" stroke-linejoin="round"/>
<path d="M45.1759 54.4691C48.6429 54.4691 51.4534 51.6585 51.4534 48.1916C51.4534 44.7246 48.6429 41.9141 45.1759 41.9141C41.709 41.9141 38.8984 44.7246 38.8984 48.1916C38.8984 51.6585 41.709 54.4691 45.1759 54.4691Z" stroke="#9F857D" stroke-width="4" stroke-linecap="round" stroke-linejoin="round"/>
</svg>
