<svg width="19" height="19" viewBox="0 0 19 19" fill="none" xmlns="http://www.w3.org/2000/svg">
<circle cx="9.5" cy="9.5" r="9.5" fill="white"/>
<path d="M9.596 6.512C9.348 6.512 9.14 6.428 8.972 6.26C8.804 6.092 8.72 5.884 8.72 5.636C8.72 5.388 8.804 5.18 8.972 5.012C9.14 4.844 9.348 4.76 9.596 4.76C9.836 4.76 10.04 4.844 10.208 5.012C10.376 5.18 10.46 5.388 10.46 5.636C10.46 5.884 10.376 6.092 10.208 6.26C10.04 6.428 9.836 6.512 9.596 6.512ZM10.268 7.388V14H8.9V7.388H10.268Z" fill="#9F857D"/>
</svg>
