<svg width="23" height="23" viewBox="0 0 23 23" fill="none" xmlns="http://www.w3.org/2000/svg">
<path d="M13.6653 18.9167C14.0558 19.3073 14.689 19.3073 15.0795 18.9167C15.47 18.5262 15.47 17.8931 15.0795 17.5025L13.6653 18.9167ZM7.66406 11.5013L6.95696 10.7942C6.56643 11.1847 6.56643 11.8179 6.95696 12.2084L7.66406 11.5013ZM15.0795 5.50008C15.47 5.10955 15.47 4.47639 15.0795 4.08586C14.689 3.69534 14.0558 3.69534 13.6653 4.08586L15.0795 5.50008ZM15.0795 17.5025L8.37117 10.7942L6.95696 12.2084L13.6653 18.9167L15.0795 17.5025ZM8.37117 12.2084L15.0795 5.50008L13.6653 4.08586L6.95696 10.7942L8.37117 12.2084Z" fill="#463B32"/>
</svg>
