<svg width="91" height="91" viewBox="0 0 91 91" fill="none" xmlns="http://www.w3.org/2000/svg">
<path d="M45.7266 88.8242C69.5438 88.8242 88.8516 69.5165 88.8516 45.6992C88.8516 21.8819 69.5438 2.57422 45.7266 2.57422C21.9093 2.57422 2.60156 21.8819 2.60156 45.6992C2.60156 69.5165 21.9093 88.8242 45.7266 88.8242Z" stroke="#9F857D" stroke-width="4" stroke-linecap="round" stroke-linejoin="round"/>
<path d="M8.22656 45.6992H83.2266" stroke="#9F857D" stroke-width="4" stroke-linecap="round" stroke-linejoin="round"/>
<path d="M45.7266 52.9531V81.6331" stroke="#9F857D" stroke-width="4" stroke-linecap="round" stroke-linejoin="round"/>
<path d="M59.0781 52.9531V79.9081" stroke="#9F857D" stroke-width="4" stroke-linecap="round" stroke-linejoin="round"/>
<path d="M72.4297 52.9531V70.1356" stroke="#9F857D" stroke-width="4" stroke-linecap="round" stroke-linejoin="round"/>
<path d="M32.375 52.9531V79.9081" stroke="#9F857D" stroke-width="4" stroke-linecap="round" stroke-linejoin="round"/>
<path d="M19.0234 52.9531V70.1356" stroke="#9F857D" stroke-width="4" stroke-linecap="round" stroke-linejoin="round"/>
<path d="M54.9069 28.9088C54.9069 30.1143 54.6694 31.308 54.2081 32.4218C53.7468 33.5356 53.0706 34.5476 52.2181 35.4C51.3657 36.2524 50.3537 36.9286 49.2399 37.39C48.1261 37.8513 46.9324 38.0887 45.7269 38.0887C44.5213 38.0887 43.3276 37.8513 42.2138 37.39C41.1001 36.9286 40.0881 36.2524 39.2356 35.4C38.3832 34.5476 37.707 33.5356 37.2457 32.4218C36.7843 31.308 36.5469 30.1143 36.5469 28.9088C36.5469 23.8388 45.7269 11.1562 45.7269 11.1562C45.7269 11.1562 54.9069 23.8388 54.9069 28.9088Z" stroke="#9F857D" stroke-width="4" stroke-linecap="round" stroke-linejoin="round"/>
</svg>
