<svg width="91" height="92" viewBox="0 0 91 92" fill="none" xmlns="http://www.w3.org/2000/svg">
<path d="M45.1954 89.047C69.0127 89.047 88.3204 69.7392 88.3204 45.9219C88.3204 22.1046 69.0127 2.79688 45.1954 2.79688C21.3781 2.79688 2.07031 22.1046 2.07031 45.9219C2.07031 69.7392 21.3781 89.047 45.1954 89.047Z" stroke="#9F857D" stroke-width="4" stroke-linecap="round" stroke-linejoin="round"/>
<path d="M20.6859 60.282C21.6386 60.282 22.4109 59.5097 22.4109 58.557C22.4109 57.6043 21.6386 56.832 20.6859 56.832C19.7332 56.832 18.9609 57.6043 18.9609 58.557C18.9609 59.5097 19.7332 60.282 20.6859 60.282Z" fill="#9F857D" stroke="#9F857D" stroke-width="4" stroke-linecap="round" stroke-linejoin="round"/>
<path d="M45.1938 60.282C46.1464 60.282 46.9188 59.5097 46.9188 58.557C46.9188 57.6043 46.1464 56.832 45.1938 56.832C44.2411 56.832 43.4688 57.6043 43.4688 58.557C43.4688 59.5097 44.2411 60.282 45.1938 60.282Z" fill="#9F857D" stroke="#9F857D" stroke-width="4" stroke-linecap="round" stroke-linejoin="round"/>
<path d="M69.7016 60.282C70.6542 60.282 71.4266 59.5097 71.4266 58.557C71.4266 57.6043 70.6542 56.832 69.7016 56.832C68.7489 56.832 67.9766 57.6043 67.9766 58.557C67.9766 59.5097 68.7489 60.282 69.7016 60.282Z" fill="#9F857D" stroke="#9F857D" stroke-width="4" stroke-linecap="round" stroke-linejoin="round"/>
<path d="M32.9438 71.9539C33.8964 71.9539 34.6688 71.1816 34.6688 70.2289C34.6688 69.2762 33.8964 68.5039 32.9438 68.5039C31.9911 68.5039 31.2188 69.2762 31.2188 70.2289C31.2188 71.1816 31.9911 71.9539 32.9438 71.9539Z" fill="#9F857D" stroke="#9F857D" stroke-width="4" stroke-linecap="round" stroke-linejoin="round"/>
<path d="M57.4516 71.9539C58.4043 71.9539 59.1766 71.1816 59.1766 70.2289C59.1766 69.2762 58.4043 68.5039 57.4516 68.5039C56.4989 68.5039 55.7266 69.2762 55.7266 70.2289C55.7266 71.1816 56.4989 71.9539 57.4516 71.9539Z" fill="#9F857D" stroke="#9F857D" stroke-width="4" stroke-linecap="round" stroke-linejoin="round"/>
<path d="M7.69531 45.9219H82.6953" stroke="#9F857D" stroke-width="4" stroke-linecap="round" stroke-linejoin="round"/>
</svg>
