<svg width="91" height="91" viewBox="0 0 91 91" fill="none" xmlns="http://www.w3.org/2000/svg">
<path d="M45.3282 88.8634C69.1455 88.8634 88.4532 69.5556 88.4532 45.7383C88.4532 21.921 69.1455 2.61328 45.3282 2.61328C21.5109 2.61328 2.20312 21.921 2.20312 45.7383C2.20312 69.5556 21.5109 88.8634 45.3282 88.8634Z" stroke="#9F857D" stroke-width="4" stroke-linecap="round" stroke-linejoin="round"/>
<path d="M8.95312 56.9883H81.7031" stroke="#9F857D" stroke-width="4" stroke-linecap="round" stroke-linejoin="round"/>
<path d="M31.5844 38.2608L38.5444 40.6158L31.5844 42.9633L29.2294 49.9233L26.8819 42.9633L19.9219 40.6158L26.8819 38.2608L29.2294 31.3008L31.5844 38.2608Z" stroke="#9F857D" stroke-width="4" stroke-linecap="round" stroke-linejoin="round"/>
<path d="M56.8969 28.0075L66.6544 31.3L56.8969 34.6L53.6044 44.35L50.3044 34.6L40.5469 31.3L50.3044 28.0075L53.6044 18.25L56.8969 28.0075Z" stroke="#9F857D" stroke-width="4" stroke-linecap="round" stroke-linejoin="round"/>
</svg>
