<svg width="91" height="92" viewBox="0 0 91 92" fill="none" xmlns="http://www.w3.org/2000/svg">
<path d="M45.375 89.1212C69.1924 89.1212 88.5001 69.8134 88.5001 45.9961C88.5001 22.1788 69.1924 2.87109 45.375 2.87109C21.5577 2.87109 2.25 22.1788 2.25 45.9961C2.25 69.8134 21.5577 89.1212 45.375 89.1212Z" stroke="#9F857D" stroke-width="4" stroke-linecap="round" stroke-linejoin="round"/>
<path d="M7.875 45.9961H82.875" stroke="#9F857D" stroke-width="4" stroke-linecap="round" stroke-linejoin="round"/>
<path d="M45.375 53.2383V81.9258" stroke="#9F857D" stroke-width="4" stroke-linecap="round" stroke-linejoin="round"/>
<path d="M58.7266 53.2383V80.2008" stroke="#9F857D" stroke-width="4" stroke-linecap="round" stroke-linejoin="round"/>
<path d="M72.0781 53.2383V70.4208" stroke="#9F857D" stroke-width="4" stroke-linecap="round" stroke-linejoin="round"/>
<path d="M32.0234 53.2383V80.2008" stroke="#9F857D" stroke-width="4" stroke-linecap="round" stroke-linejoin="round"/>
<path d="M18.6719 53.2383V70.4208" stroke="#9F857D" stroke-width="4" stroke-linecap="round" stroke-linejoin="round"/>
<path d="M69.8812 35.4344C70.8339 35.4344 71.6062 34.6621 71.6062 33.7094C71.6062 32.7567 70.8339 31.9844 69.8812 31.9844C68.9286 31.9844 68.1562 32.7567 68.1562 33.7094C68.1562 34.6621 68.9286 35.4344 69.8812 35.4344Z" fill="#9F857D" stroke="#9F857D" stroke-width="4" stroke-linecap="round" stroke-linejoin="round"/>
<path d="M45.3734 35.4344C46.3261 35.4344 47.0984 34.6621 47.0984 33.7094C47.0984 32.7567 46.3261 31.9844 45.3734 31.9844C44.4207 31.9844 43.6484 32.7567 43.6484 33.7094C43.6484 34.6621 44.4207 35.4344 45.3734 35.4344Z" fill="#9F857D" stroke="#9F857D" stroke-width="4" stroke-linecap="round" stroke-linejoin="round"/>
<path d="M20.8656 35.4344C21.8183 35.4344 22.5906 34.6621 22.5906 33.7094C22.5906 32.7567 21.8183 31.9844 20.8656 31.9844C19.9129 31.9844 19.1406 32.7567 19.1406 33.7094C19.1406 34.6621 19.9129 35.4344 20.8656 35.4344Z" fill="#9F857D" stroke="#9F857D" stroke-width="4" stroke-linecap="round" stroke-linejoin="round"/>
<path d="M57.6312 23.7664C58.5839 23.7664 59.3563 22.9941 59.3563 22.0414C59.3563 21.0887 58.5839 20.3164 57.6312 20.3164C56.6786 20.3164 55.9062 21.0887 55.9062 22.0414C55.9062 22.9941 56.6786 23.7664 57.6312 23.7664Z" fill="#9F857D" stroke="#9F857D" stroke-width="4" stroke-linecap="round" stroke-linejoin="round"/>
<path d="M33.1234 23.7664C34.0761 23.7664 34.8484 22.9941 34.8484 22.0414C34.8484 21.0887 34.0761 20.3164 33.1234 20.3164C32.1707 20.3164 31.3984 21.0887 31.3984 22.0414C31.3984 22.9941 32.1707 23.7664 33.1234 23.7664Z" fill="#9F857D" stroke="#9F857D" stroke-width="4" stroke-linecap="round" stroke-linejoin="round"/>
</svg>
