<svg width="91" height="91" viewBox="0 0 91 91" fill="none" xmlns="http://www.w3.org/2000/svg">
<path d="M45.5547 88.8242C69.372 88.8242 88.6797 69.5165 88.6797 45.6992C88.6797 21.8819 69.372 2.57422 45.5547 2.57422C21.7374 2.57422 2.42969 21.8819 2.42969 45.6992C2.42969 69.5165 21.7374 88.8242 45.5547 88.8242Z" stroke="#9F857D" stroke-width="4" stroke-linecap="round" stroke-linejoin="round"/>
<path d="M10.0547 32.7617H81.0647" stroke="#9F857D" stroke-width="4" stroke-linecap="round" stroke-linejoin="round"/>
<path d="M10.0547 42.75C13.3172 42.75 15.9722 45.165 15.9722 48.1425C15.9722 51.12 18.6197 53.5275 21.8897 53.5275C25.1597 53.5275 27.8072 51.12 27.8072 48.1425C27.8072 45.165 30.4547 42.75 33.7247 42.75C36.9947 42.75 39.6422 45.165 39.6422 48.1425C39.6422 51.12 42.2897 53.5275 45.5597 53.5275C48.8297 53.5275 51.4772 51.12 51.4772 48.1425C51.4772 45.165 54.1247 42.75 57.3947 42.75C60.6647 42.75 63.3122 45.165 63.3122 48.1425C63.3122 51.12 65.9597 53.5275 69.2297 53.5275C72.4997 53.5275 75.1772 51.12 75.1772 48.1425C75.1772 45.165 77.8247 42.75 81.0947 42.75" stroke="#9F857D" stroke-width="4" stroke-linecap="round" stroke-linejoin="round"/>
<path d="M21.0453 66.0594C21.998 66.0594 22.7703 65.2871 22.7703 64.3344C22.7703 63.3817 21.998 62.6094 21.0453 62.6094C20.0926 62.6094 19.3203 63.3817 19.3203 64.3344C19.3203 65.2871 20.0926 66.0594 21.0453 66.0594Z" fill="#9F857D" stroke="#9F857D" stroke-width="4" stroke-linecap="round" stroke-linejoin="round"/>
<path d="M45.5531 66.0594C46.5058 66.0594 47.2781 65.2871 47.2781 64.3344C47.2781 63.3817 46.5058 62.6094 45.5531 62.6094C44.6004 62.6094 43.8281 63.3817 43.8281 64.3344C43.8281 65.2871 44.6004 66.0594 45.5531 66.0594Z" fill="#9F857D" stroke="#9F857D" stroke-width="4" stroke-linecap="round" stroke-linejoin="round"/>
<path d="M70.0688 66.0594C71.0214 66.0594 71.7938 65.2871 71.7938 64.3344C71.7938 63.3817 71.0214 62.6094 70.0688 62.6094C69.1161 62.6094 68.3438 63.3817 68.3438 64.3344C68.3438 65.2871 69.1161 66.0594 70.0688 66.0594Z" fill="#9F857D" stroke="#9F857D" stroke-width="4" stroke-linecap="round" stroke-linejoin="round"/>
<path d="M33.3031 77.7313C34.2558 77.7313 35.0281 76.9589 35.0281 76.0063C35.0281 75.0536 34.2558 74.2812 33.3031 74.2812C32.3504 74.2812 31.5781 75.0536 31.5781 76.0063C31.5781 76.9589 32.3504 77.7313 33.3031 77.7313Z" fill="#9F857D" stroke="#9F857D" stroke-width="4" stroke-linecap="round" stroke-linejoin="round"/>
<path d="M57.8109 77.7313C58.7636 77.7313 59.5359 76.9589 59.5359 76.0063C59.5359 75.0536 58.7636 74.2812 57.8109 74.2812C56.8582 74.2812 56.0859 75.0536 56.0859 76.0063C56.0859 76.9589 56.8582 77.7313 57.8109 77.7313Z" fill="#9F857D" stroke="#9F857D" stroke-width="4" stroke-linecap="round" stroke-linejoin="round"/>
</svg>
