<svg width="31" height="31" viewBox="0 0 31 31" fill="none" xmlns="http://www.w3.org/2000/svg">
<path d="M28.52 18.2506C28.52 27.3032 20.3286 30.9994 13.0959 30.9994C5.86324 30.9994 0 23.6608 0 14.6081C0 5.55552 8.1914 1.85938 15.4241 1.85938C22.6567 1.85938 28.52 9.19798 28.52 18.2506Z" fill="#CC9966" fill-opacity="0.1"/>
<path d="M21.5313 14.5076L10.1876 7.97637C9.926 7.82537 9.6293 7.74595 9.32732 7.74609C9.02534 7.74625 8.72871 7.82596 8.46733 7.97721C8.20594 8.12847 7.98903 8.34592 7.8384 8.60769C7.68781 8.86942 7.60881 9.16625 7.60943 9.46824V11.5307C7.60943 11.7131 7.68186 11.888 7.81077 12.0169C7.93971 12.1458 8.11457 12.2182 8.29693 12.2182C9.29975 12.2182 10.2615 12.6166 10.9707 13.3257C11.6798 14.0349 12.0782 14.9966 12.0782 15.9995C12.0782 17.0023 11.6798 17.9641 10.9707 18.6732C10.2615 19.3824 9.29975 19.7807 8.29693 19.7807C8.11457 19.7807 7.93971 19.8532 7.81077 19.9821C7.68186 20.111 7.60943 20.2859 7.60943 20.4682V22.5307C7.60699 22.8336 7.68464 23.1317 7.83452 23.3949C7.98439 23.6581 8.20113 23.877 8.46282 24.0295C8.72452 24.182 9.02186 24.2626 9.32471 24.2632C9.62759 24.2638 9.92524 24.1844 10.1876 24.0329L21.5313 17.5017C21.7942 17.3513 22.0127 17.1341 22.1646 16.8721C22.3165 16.6102 22.3966 16.3127 22.3966 16.0098C22.3966 15.707 22.3165 15.4095 22.1646 15.1475C22.0127 14.8855 21.7942 14.6683 21.5313 14.5179V14.5076ZM20.8438 16.302L9.50005 22.8332C9.44777 22.8634 9.38851 22.8793 9.32818 22.8793C9.26782 22.8793 9.20855 22.8634 9.1563 22.8332C9.10333 22.8027 9.05947 22.7585 9.02925 22.7053C8.99904 22.6522 8.98357 22.5919 8.98443 22.5307V21.1042C10.2135 20.929 11.3382 20.3163 12.1517 19.3786C12.9653 18.4408 13.4133 17.241 13.4133 15.9995C13.4133 14.758 12.9653 13.5582 12.1517 12.6204C11.3382 11.6826 10.2135 11.0699 8.98443 10.8948V9.46824C8.98453 9.40732 9.00079 9.34755 9.03163 9.29499C9.06243 9.24246 9.10663 9.19901 9.15974 9.16917C9.21199 9.13899 9.27125 9.12311 9.33162 9.12311C9.39195 9.12311 9.45121 9.13899 9.50349 9.16917L20.8472 15.7004C20.9018 15.7299 20.9474 15.7735 20.9792 15.8268C21.0109 15.8801 21.0277 15.9409 21.0277 16.0029C21.0277 16.0649 21.0109 16.1258 20.9792 16.1791C20.9474 16.2323 20.9018 16.276 20.8472 16.3054L20.8438 16.302Z" fill="#9F857D"/>
</svg>
