<svg width="91" height="91" viewBox="0 0 91 91" fill="none" xmlns="http://www.w3.org/2000/svg">
<path d="M45.4297 88.3165C69.247 88.3165 88.5548 69.0088 88.5548 45.1915C88.5548 21.3741 69.247 2.06641 45.4297 2.06641C21.6124 2.06641 2.30469 21.3741 2.30469 45.1915C2.30469 69.0088 21.6124 88.3165 45.4297 88.3165Z" stroke="#9F857D" stroke-width="4" stroke-linecap="round" stroke-linejoin="round"/>
<path d="M9.92188 39.7148C13.1919 39.7148 15.8394 42.1298 15.8394 45.1073C15.8394 48.0848 18.4869 50.4998 21.7569 50.4998C25.0269 50.4998 27.6744 48.0848 27.6744 45.1073C27.6744 42.1298 30.3219 39.7148 33.5919 39.7148C36.8619 39.7148 39.5094 42.1298 39.5094 45.1073C39.5094 48.0848 42.1569 50.4998 45.4269 50.4998C48.6969 50.4998 51.3444 48.0848 51.3444 45.1073C51.3444 42.1298 53.9919 39.7148 57.2619 39.7148C60.5319 39.7148 63.1794 42.1298 63.1794 45.1073C63.1794 48.0848 65.8269 50.4998 69.0969 50.4998C72.3669 50.4998 75.0144 48.0848 75.0144 45.1073C75.0144 42.1298 77.6619 39.7148 80.9319 39.7148" stroke="#9F857D" stroke-width="4" stroke-linecap="round" stroke-linejoin="round"/>
</svg>
