<svg width="43" height="39" viewBox="0 0 43 39" fill="none" xmlns="http://www.w3.org/2000/svg">
<path d="M22.036 25.6579C21.4219 26.4146 21.084 27.3525 21.084 28.2998C21.084 30.7272 23.2199 32.703 25.844 32.703C28.4681 32.703 30.6039 30.7272 30.6039 28.2998C30.6039 27.3525 30.266 26.4146 29.6519 25.6585L25.844 20.9609L22.036 25.6579ZM29.244 28.2998C29.244 30.034 27.7187 31.4449 25.844 31.4449C23.9692 31.4449 22.444 30.034 22.444 28.2998C22.444 27.6236 22.6854 26.953 23.124 26.4127L25.844 23.0581L28.564 26.4133C29.0026 26.953 29.244 27.6236 29.244 28.2998Z" fill="#BD967A"/>
<path d="M21.4918 12.4554L17.6838 7.75781L13.8758 12.4548C13.2618 13.2115 12.9238 14.1494 12.9238 15.0968C12.9238 17.5242 15.0597 19.5 17.6838 19.5C20.3079 19.5 22.4438 17.5242 22.4438 15.0968C22.4438 14.1494 22.1058 13.2115 21.4918 12.4554ZM17.6838 18.2419C15.8091 18.2419 14.2838 16.831 14.2838 15.0968C14.2838 14.4205 14.5252 13.75 14.9638 13.2097L17.6838 9.85501L20.4038 13.2103C20.8424 13.75 21.0838 14.4205 21.0838 15.0968C21.0838 16.831 19.5586 18.2419 17.6838 18.2419Z" fill="#BD967A"/>
<path d="M39.4399 16.9839C37.9398 16.9839 36.7199 18.1124 36.7199 19.5C36.7199 19.7862 36.7831 20.0573 36.8783 20.314L33.9951 21.9142L26.5199 17.8809V9.79655L34.6799 5.39332V0H33.3199V4.67119L25.8399 8.70769L18.3599 4.67119V0H16.9999V4.67119L9.5322 8.70077L5.34682 6.28089C5.4019 6.08148 5.43998 5.87642 5.43998 5.66129C5.43998 4.27364 4.22006 3.14516 2.71999 3.14516C1.21992 3.14516 0 4.27364 0 5.66129C0 7.04894 1.21992 8.17742 2.71999 8.17742C3.49723 8.17742 4.1949 7.87045 4.6913 7.38547L8.83997 9.78397V17.8809L1.01728 22.1017L1.70271 23.1893L9.51997 18.9697L13.26 20.9877L16.9999 23.0056V31.0899L10.153 34.7842C9.65596 34.2854 8.95013 33.9677 8.15997 33.9677C6.6599 33.9677 5.43998 35.0962 5.43998 36.4839C5.43998 37.8715 6.6599 39 8.15997 39C9.66004 39 10.88 37.8715 10.88 36.4839C10.88 36.2801 10.8466 36.0844 10.797 35.8945L17.6799 32.18L25.1599 36.2159V39H26.5199V36.2159L29.8145 34.4376L34.0033 32.1775L38.4226 34.5137L39.0971 33.4217L34.6799 31.0868V23.0012L37.6297 21.3638C38.1118 21.7651 38.7422 22.0161 39.4399 22.0161C40.9399 22.0161 42.1598 20.8876 42.1598 19.5C42.1598 18.1124 40.9399 16.9839 39.4399 16.9839ZM2.71999 6.91935C1.96995 6.91935 1.36 6.35511 1.36 5.66129C1.36 4.96747 1.96995 4.40323 2.71999 4.40323C3.47003 4.40323 4.07999 4.96747 4.07999 5.66129C4.07999 6.35511 3.47003 6.91935 2.71999 6.91935ZM8.15997 37.7419C7.40993 37.7419 6.79997 37.1777 6.79997 36.4839C6.79997 35.79 7.40993 35.2258 8.15997 35.2258C8.91001 35.2258 9.51997 35.79 9.51997 36.4839C9.51997 37.1777 8.91001 37.7419 8.15997 37.7419ZM13.9399 19.8988L10.2 17.8809V9.79655L17.6799 5.76005L25.1599 9.79655V17.8809L21.4199 19.8988L17.6799 21.9167L13.9399 19.8988ZM33.3199 31.0905L29.125 33.3544L25.8399 35.127L18.3599 31.0905V23.0062L22.0999 20.9883L25.8399 18.9704L33.3199 23.0069V31.0905ZM39.4399 20.7581C38.6898 20.7581 38.0799 20.1938 38.0799 19.5C38.0799 18.8062 38.6898 18.2419 39.4399 18.2419C40.1899 18.2419 40.7999 18.8062 40.7999 19.5C40.7999 20.1938 40.1899 20.7581 39.4399 20.7581Z" fill="#BD967A"/>
<path d="M37.399 13.1973H36.0391V14.4554H37.399V13.1973Z" fill="#BD967A"/>
<path d="M34.6764 13.1973H33.3164V14.4554H34.6764V13.1973Z" fill="#BD967A"/>
<path d="M31.9635 13.1973H30.6035V14.4554H31.9635V13.1973Z" fill="#BD967A"/>
<path d="M12.9225 26.4316H11.5625V27.6896H12.9225V26.4316Z" fill="#BD967A"/>
<path d="M10.1978 26.4316H8.83789V27.6896H10.1978V26.4316Z" fill="#BD967A"/>
<path d="M7.47526 26.4316H6.11523V27.6896H7.47526V26.4316Z" fill="#BD967A"/>
</svg>
