<svg width="240" height="362" viewBox="0 0 240 362" fill="none" xmlns="http://www.w3.org/2000/svg">
<ellipse cx="79" cy="228.724" rx="150" ry="133.276" fill="#9C6137" fill-opacity="0.1"/>
<ellipse cx="-10.1583" cy="100.68" rx="43.5331" ry="38.6795" fill="#9C6137" fill-opacity="0.15"/>
<g opacity="0.5">
<circle cx="167.5" cy="217.5" r="2.5" transform="rotate(90 167.5 217.5)" fill="#BD967A"/>
<circle cx="155.5" cy="217.5" r="2.5" transform="rotate(90 155.5 217.5)" fill="#BD967A"/>
<circle cx="143.5" cy="217.5" r="2.5" transform="rotate(90 143.5 217.5)" fill="#BD967A"/>
<circle cx="131.5" cy="217.5" r="2.5" transform="rotate(90 131.5 217.5)" fill="#BD967A"/>
<circle cx="119.5" cy="217.5" r="2.5" transform="rotate(90 119.5 217.5)" fill="#BD967A"/>
<circle cx="107.5" cy="217.5" r="2.5" transform="rotate(90 107.5 217.5)" fill="#BD967A"/>
<circle cx="95.5" cy="217.5" r="2.5" transform="rotate(90 95.5 217.5)" fill="#BD967A"/>
<circle cx="83.5" cy="217.5" r="2.5" transform="rotate(90 83.5 217.5)" fill="#BD967A"/>
<circle cx="167.5" cy="251.5" r="2.5" transform="rotate(90 167.5 251.5)" fill="#BD967A"/>
<circle cx="155.5" cy="251.5" r="2.5" transform="rotate(90 155.5 251.5)" fill="#BD967A"/>
<circle cx="143.5" cy="251.5" r="2.5" transform="rotate(90 143.5 251.5)" fill="#BD967A"/>
<circle cx="131.5" cy="251.5" r="2.5" transform="rotate(90 131.5 251.5)" fill="#BD967A"/>
<circle cx="119.5" cy="251.5" r="2.5" transform="rotate(90 119.5 251.5)" fill="#BD967A"/>
<circle cx="107.5" cy="251.5" r="2.5" transform="rotate(90 107.5 251.5)" fill="#BD967A"/>
<circle cx="95.5" cy="251.5" r="2.5" transform="rotate(90 95.5 251.5)" fill="#BD967A"/>
<circle cx="83.5" cy="251.5" r="2.5" transform="rotate(90 83.5 251.5)" fill="#BD967A"/>
<circle cx="167.5" cy="234.5" r="2.5" transform="rotate(90 167.5 234.5)" fill="#BD967A"/>
<circle cx="155.5" cy="234.5" r="2.5" transform="rotate(90 155.5 234.5)" fill="#BD967A"/>
<circle cx="143.5" cy="234.5" r="2.5" transform="rotate(90 143.5 234.5)" fill="#BD967A"/>
<circle cx="131.5" cy="234.5" r="2.5" transform="rotate(90 131.5 234.5)" fill="#BD967A"/>
<circle cx="119.5" cy="234.5" r="2.5" transform="rotate(90 119.5 234.5)" fill="#BD967A"/>
<circle cx="107.5" cy="234.5" r="2.5" transform="rotate(90 107.5 234.5)" fill="#BD967A"/>
<circle cx="95.5" cy="234.5" r="2.5" transform="rotate(90 95.5 234.5)" fill="#BD967A"/>
<circle cx="83.5" cy="234.5" r="2.5" transform="rotate(90 83.5 234.5)" fill="#BD967A"/>
<circle cx="167.5" cy="268.5" r="2.5" transform="rotate(90 167.5 268.5)" fill="#BD967A"/>
<circle cx="155.5" cy="268.5" r="2.5" transform="rotate(90 155.5 268.5)" fill="#BD967A"/>
<circle cx="143.5" cy="268.5" r="2.5" transform="rotate(90 143.5 268.5)" fill="#BD967A"/>
<circle cx="131.5" cy="268.5" r="2.5" transform="rotate(90 131.5 268.5)" fill="#BD967A"/>
<circle cx="119.5" cy="268.5" r="2.5" transform="rotate(90 119.5 268.5)" fill="#BD967A"/>
<circle cx="107.5" cy="268.5" r="2.5" transform="rotate(90 107.5 268.5)" fill="#BD967A"/>
<circle cx="95.5" cy="268.5" r="2.5" transform="rotate(90 95.5 268.5)" fill="#BD967A"/>
<circle cx="83.5" cy="268.5" r="2.5" transform="rotate(90 83.5 268.5)" fill="#BD967A"/>
</g>
<g opacity="0.5">
<circle cx="100.812" cy="2.5" r="2.5" transform="rotate(90 100.812 2.5)" fill="#BD967A"/>
<circle cx="88.8125" cy="2.5" r="2.5" transform="rotate(90 88.8125 2.5)" fill="#BD967A"/>
<circle cx="76.8125" cy="2.5" r="2.5" transform="rotate(90 76.8125 2.5)" fill="#BD967A"/>
<circle cx="64.8125" cy="2.5" r="2.5" transform="rotate(90 64.8125 2.5)" fill="#BD967A"/>
<circle cx="52.8125" cy="2.5" r="2.5" transform="rotate(90 52.8125 2.5)" fill="#BD967A"/>
<circle cx="40.8125" cy="2.5" r="2.5" transform="rotate(90 40.8125 2.5)" fill="#BD967A"/>
<circle cx="28.8125" cy="2.5" r="2.5" transform="rotate(90 28.8125 2.5)" fill="#BD967A"/>
<circle cx="16.8125" cy="2.5" r="2.5" transform="rotate(90 16.8125 2.5)" fill="#BD967A"/>
<circle cx="100.812" cy="36.5" r="2.5" transform="rotate(90 100.812 36.5)" fill="#BD967A"/>
<circle cx="88.8125" cy="36.5" r="2.5" transform="rotate(90 88.8125 36.5)" fill="#BD967A"/>
<circle cx="76.8125" cy="36.5" r="2.5" transform="rotate(90 76.8125 36.5)" fill="#BD967A"/>
<circle cx="64.8125" cy="36.5" r="2.5" transform="rotate(90 64.8125 36.5)" fill="#BD967A"/>
<circle cx="52.8125" cy="36.5" r="2.5" transform="rotate(90 52.8125 36.5)" fill="#BD967A"/>
<circle cx="40.8125" cy="36.5" r="2.5" transform="rotate(90 40.8125 36.5)" fill="#BD967A"/>
<circle cx="28.8125" cy="36.5" r="2.5" transform="rotate(90 28.8125 36.5)" fill="#BD967A"/>
<circle cx="16.8125" cy="36.5" r="2.5" transform="rotate(90 16.8125 36.5)" fill="#BD967A"/>
<circle cx="100.812" cy="19.5" r="2.5" transform="rotate(90 100.812 19.5)" fill="#BD967A"/>
<circle cx="88.8125" cy="19.5" r="2.5" transform="rotate(90 88.8125 19.5)" fill="#BD967A"/>
<circle cx="76.8125" cy="19.5" r="2.5" transform="rotate(90 76.8125 19.5)" fill="#BD967A"/>
<circle cx="64.8125" cy="19.5" r="2.5" transform="rotate(90 64.8125 19.5)" fill="#BD967A"/>
<circle cx="52.8125" cy="19.5" r="2.5" transform="rotate(90 52.8125 19.5)" fill="#BD967A"/>
<circle cx="40.8125" cy="19.5" r="2.5" transform="rotate(90 40.8125 19.5)" fill="#BD967A"/>
<circle cx="28.8125" cy="19.5" r="2.5" transform="rotate(90 28.8125 19.5)" fill="#BD967A"/>
<circle cx="16.8125" cy="19.5" r="2.5" transform="rotate(90 16.8125 19.5)" fill="#BD967A"/>
<circle cx="100.812" cy="53.5" r="2.5" transform="rotate(90 100.812 53.5)" fill="#BD967A"/>
<circle cx="88.8125" cy="53.5" r="2.5" transform="rotate(90 88.8125 53.5)" fill="#BD967A"/>
<circle cx="76.8125" cy="53.5" r="2.5" transform="rotate(90 76.8125 53.5)" fill="#BD967A"/>
<circle cx="64.8125" cy="53.5" r="2.5" transform="rotate(90 64.8125 53.5)" fill="#BD967A"/>
<circle cx="52.8125" cy="53.5" r="2.5" transform="rotate(90 52.8125 53.5)" fill="#BD967A"/>
<circle cx="40.8125" cy="53.5" r="2.5" transform="rotate(90 40.8125 53.5)" fill="#BD967A"/>
<circle cx="28.8125" cy="53.5" r="2.5" transform="rotate(90 28.8125 53.5)" fill="#BD967A"/>
<circle cx="16.8125" cy="53.5" r="2.5" transform="rotate(90 16.8125 53.5)" fill="#BD967A"/>
<rect x="129.812" y="130.5" width="99" height="127" transform="rotate(90 129.812 130.5)" stroke="#E6D6C8" stroke-opacity="0.65"/>
</g>
</svg>
