<svg width="63" height="65" viewBox="0 0 63 65" fill="none" xmlns="http://www.w3.org/2000/svg">
<path d="M3.36609 44.265C3.15335 44.2663 2.94677 44.1937 2.78155 44.0597C2.61634 43.9257 2.50273 43.7385 2.46011 43.53C2.41749 43.3216 2.44849 43.1049 2.54783 42.9167C2.64717 42.7286 2.8087 42.5808 3.00486 42.4985C3.20102 42.4161 3.41966 42.4044 3.6235 42.4653C3.82734 42.5261 4.00375 42.6558 4.12265 42.8323C4.24154 43.0087 4.29556 43.2209 4.27548 43.4327C4.2554 43.6444 4.16247 43.8427 4.01254 43.9936C3.84126 44.1658 3.60891 44.2633 3.36609 44.265Z" fill="#BD967A"/>
<path d="M59.8123 42.2268C59.5829 42.1469 59.3946 41.9792 59.2888 41.7605C59.183 41.5419 59.1683 41.2901 59.248 41.0607C59.3279 40.8309 59.4958 40.6424 59.7148 40.5364C59.9337 40.4305 60.1857 40.4159 60.4155 40.4957C60.6449 40.5757 60.8332 40.7433 60.9391 40.962C61.0451 41.1806 61.0599 41.4323 60.9804 41.6619C60.9178 41.8418 60.8008 41.9978 60.6456 42.1082C60.4904 42.2187 60.3047 42.2782 60.1142 42.2784C60.0114 42.2783 59.9094 42.2608 59.8123 42.2268ZM1.4248 40.7358C1.35244 40.5042 1.37507 40.2533 1.4877 40.0383C1.60033 39.8233 1.79375 39.6618 2.0254 39.5894C2.25699 39.5172 2.50777 39.5398 2.7227 39.6523C2.93763 39.7648 3.09915 39.9579 3.17183 40.1894C3.24387 40.421 3.22117 40.6717 3.10871 40.8866C2.99626 41.1014 2.80321 41.263 2.57187 41.3358C2.48295 41.3644 2.39013 41.379 2.29673 41.3791C2.10191 41.3784 1.91238 41.3157 1.75561 41.2C1.59884 41.0844 1.48298 40.9218 1.4248 40.7358ZM60.7957 39.1812C60.6784 39.1539 60.5675 39.1038 60.4695 39.0337C60.3715 38.9636 60.2883 38.8749 60.2246 38.7727C60.1609 38.6704 60.118 38.5566 60.0983 38.4377C60.0786 38.3189 60.0825 38.1973 60.1098 38.08C60.1652 37.8433 60.3123 37.6382 60.5188 37.5099C60.7252 37.3815 60.9742 37.3403 61.211 37.3953C61.4476 37.4506 61.6527 37.5975 61.781 37.8039C61.9094 38.0103 61.9506 38.2591 61.8956 38.4958C61.8487 38.6972 61.7351 38.8768 61.5732 39.0055C61.4114 39.1342 61.2108 39.2044 61.004 39.2047C60.9339 39.2048 60.864 39.1969 60.7957 39.1812ZM0.608293 37.5469C0.584622 37.4288 0.584449 37.3072 0.60778 37.1891C0.631111 37.071 0.677489 36.9586 0.744267 36.8584C0.811045 36.7582 0.896913 36.6722 0.996962 36.6052C1.09701 36.5382 1.20928 36.4915 1.32736 36.468C1.44534 36.4442 1.56685 36.4439 1.68494 36.4672C1.80302 36.4905 1.91535 36.5368 2.01551 36.6035C2.11567 36.6702 2.20168 36.7561 2.26862 36.8561C2.33557 36.9561 2.38213 37.0683 2.40564 37.1864C2.45326 37.425 2.40421 37.6727 2.26925 37.8751C2.1343 38.0776 1.92449 38.2181 1.68594 38.2659C1.62636 38.2776 1.56577 38.2834 1.50505 38.2831C1.29362 38.2826 1.08886 38.209 0.925449 38.0748C0.762033 37.9407 0.649992 37.7542 0.608293 37.5469ZM61.4492 36.0489C61.2085 36.0191 60.9895 35.8951 60.8401 35.7041C60.6908 35.513 60.6233 35.2706 60.6524 35.0298C60.6672 34.9103 60.7054 34.7949 60.7649 34.6902C60.8243 34.5855 60.9038 34.4935 60.9988 34.4195C61.0937 34.3455 61.2024 34.2909 61.3185 34.259C61.4345 34.227 61.5558 34.2182 61.6753 34.2331C61.916 34.2628 62.1351 34.3868 62.2845 34.5778C62.434 34.7688 62.5017 35.0113 62.4727 35.2521C62.4451 35.4737 62.3376 35.6777 62.1704 35.8258C62.0033 35.9739 61.7878 36.0559 61.5645 36.0565C61.5259 36.0565 61.4874 36.0539 61.4492 36.0489ZM0.13189 34.2885C0.109569 34.0464 0.184233 33.8054 0.339481 33.6184C0.494728 33.4314 0.717863 33.3137 0.959865 33.2911C1.20189 33.2688 1.44289 33.3434 1.6299 33.4987C1.81691 33.6539 1.93465 33.877 1.95726 34.119C1.97958 34.3611 1.90491 34.6021 1.74966 34.7891C1.59442 34.9761 1.37128 35.0938 1.12928 35.1164C1.10062 35.1164 1.0726 35.1203 1.0433 35.1203C0.815136 35.1198 0.595325 35.0344 0.426796 34.8806C0.258267 34.7267 0.153122 34.5156 0.13189 34.2885ZM61.7721 32.8694C61.6518 32.8671 61.5332 32.8411 61.4229 32.7929C61.3127 32.7448 61.213 32.6753 61.1296 32.5886C61.0462 32.5019 60.9808 32.3996 60.9369 32.2876C60.893 32.1756 60.8717 32.056 60.8741 31.9357C60.8763 31.8154 60.9022 31.6967 60.9504 31.5864C60.9985 31.4761 61.0679 31.3763 61.1546 31.2929C61.2414 31.2094 61.3437 31.1439 61.4557 31.1C61.5678 31.0561 61.6874 31.0347 61.8078 31.0371C61.9283 31.0394 62.0471 31.0654 62.1576 31.1137C62.268 31.162 62.3678 31.2316 62.4513 31.3185C62.5349 31.4054 62.6004 31.5079 62.6443 31.6201C62.6882 31.7324 62.7095 31.8522 62.7071 31.9727C62.7022 32.2125 62.6035 32.4409 62.4322 32.6088C62.2608 32.7767 62.0305 32.8708 61.7906 32.8707H61.7721V32.8694ZM0.905728 31.9268C0.662874 31.924 0.431082 31.8248 0.261267 31.6512C0.0914525 31.4776 -0.00249793 31.2436 5.05246e-05 31.0008C0.00129738 30.8804 0.0262719 30.7615 0.0735429 30.6508C0.120814 30.5401 0.189453 30.4398 0.275532 30.3557C0.36161 30.2716 0.463438 30.2053 0.575182 30.1605C0.686927 30.1158 0.806394 30.0936 0.926745 30.0951C1.04712 30.0962 1.16611 30.121 1.27687 30.1682C1.38762 30.2153 1.48798 30.2839 1.57218 30.3699C1.65639 30.456 1.72278 30.5578 1.76754 30.6695C1.81231 30.7813 1.83457 30.9008 1.83306 31.0211C1.83038 31.2624 1.73261 31.4928 1.56101 31.6624C1.3894 31.832 1.15781 31.927 0.916556 31.9268H0.905728ZM60.7747 28.8372C60.7645 28.7172 60.778 28.5964 60.8145 28.4816C60.851 28.3669 60.9098 28.2604 60.9874 28.1684C61.0651 28.0764 61.1602 28.0005 61.2671 27.9452C61.3741 27.89 61.491 27.8563 61.611 27.8462C61.7309 27.8359 61.8517 27.8493 61.9665 27.8858C62.0812 27.9222 62.1877 27.9809 62.2797 28.0585C62.3718 28.1361 62.4476 28.2311 62.5029 28.3381C62.5582 28.445 62.5919 28.5618 62.602 28.6818C62.6223 28.9243 62.5454 29.165 62.3884 29.3509C62.2314 29.5369 62.007 29.6529 61.7644 29.6735C61.739 29.6735 61.7135 29.6766 61.688 29.6766C61.4581 29.6767 61.2366 29.5905 61.0673 29.435C60.8979 29.2796 60.793 29.0662 60.7734 28.8372H60.7747ZM1.01209 28.7334C0.770718 28.7051 0.550389 28.5823 0.399375 28.3919C0.248361 28.2015 0.178971 27.959 0.206407 27.7175C0.234204 27.4761 0.356779 27.2555 0.547168 27.1044C0.737557 26.9533 0.980166 26.8841 1.22163 26.9118C1.34133 26.9255 1.45716 26.9627 1.56251 27.0211C1.66785 27.0796 1.76064 27.1582 1.83558 27.2526C1.91052 27.3469 1.96613 27.4551 1.99925 27.5709C2.03237 27.6868 2.04234 27.808 2.02859 27.9277C2.0024 28.151 1.89522 28.3569 1.72736 28.5064C1.55951 28.656 1.34263 28.7388 1.11782 28.7391C1.08207 28.7391 1.04636 28.7372 1.01082 28.7334H1.01209ZM60.3531 25.7667C60.3071 25.5281 60.3578 25.281 60.4939 25.0798C60.6301 24.8785 60.8406 24.7396 61.0791 24.6935C61.3181 24.648 61.5653 24.6991 61.7665 24.8357C61.9677 24.9724 62.1065 25.1833 62.1523 25.4221C62.175 25.5404 62.1741 25.662 62.1497 25.78C62.1253 25.898 62.078 26.01 62.0103 26.1096C61.9426 26.2093 61.856 26.2946 61.7554 26.3608C61.6547 26.427 61.542 26.4727 61.4237 26.4953C61.3664 26.506 61.3082 26.5113 61.2498 26.5112C61.037 26.5107 60.8309 26.4361 60.6671 26.3003C60.5032 26.1644 60.3917 25.9758 60.3518 25.7667H60.3531ZM1.45092 25.5661C1.33331 25.54 1.22201 25.491 1.1234 25.4218C1.0248 25.3526 0.940829 25.2646 0.876322 25.1629C0.811816 25.0612 0.768042 24.9477 0.747513 24.829C0.726983 24.7103 0.730102 24.5887 0.756693 24.4712C0.809669 24.2348 0.954153 24.029 1.15851 23.8989C1.36287 23.7688 1.61046 23.725 1.84707 23.777C2.08427 23.8304 2.29058 23.9757 2.42064 24.1812C2.55069 24.3866 2.59387 24.6352 2.54066 24.8725C2.49554 25.0755 2.38267 25.2571 2.22061 25.3874C2.05855 25.5178 1.85696 25.5891 1.649 25.5896C1.58186 25.5895 1.51496 25.5816 1.44964 25.5661H1.45092ZM59.6098 22.7586C59.5749 22.6434 59.563 22.5225 59.5748 22.4027C59.5866 22.2829 59.6219 22.1667 59.6787 22.0606C59.7355 21.9544 59.8126 21.8606 59.9057 21.7843C59.9988 21.708 60.106 21.6508 60.2212 21.616C60.3363 21.5809 60.4572 21.5689 60.5769 21.5806C60.6967 21.5923 60.8129 21.6275 60.919 21.6842C61.0252 21.7408 61.1191 21.8179 61.1954 21.9109C61.2717 22.0039 61.3289 22.111 61.3638 22.2261C61.3992 22.3414 61.4115 22.4626 61.4 22.5826C61.3885 22.7027 61.3535 22.8193 61.2969 22.9258C61.2402 23.0323 61.1632 23.1265 61.0701 23.2032C60.977 23.2799 60.8697 23.3374 60.7543 23.3726C60.6673 23.3985 60.577 23.4116 60.4862 23.4114C60.2891 23.4115 60.0973 23.348 59.9392 23.2304C59.7811 23.1128 59.6651 22.9473 59.6085 22.7586H59.6098ZM2.21966 22.4631C1.98963 22.3848 1.80006 22.2184 1.69259 22.0005C1.58512 21.7825 1.56852 21.5309 1.64645 21.3007C1.7246 21.0709 1.89075 20.8814 2.10843 20.774C2.32611 20.6665 2.57754 20.6498 2.80752 20.7275C3.03735 20.8061 3.22669 20.9725 3.33412 21.1903C3.44155 21.4082 3.45831 21.6597 3.38074 21.8899C3.31933 22.0716 3.20248 22.2295 3.04665 22.3413C2.89081 22.4532 2.70382 22.5134 2.512 22.5134C2.41203 22.5129 2.31282 22.4959 2.21839 22.4631H2.21966ZM58.5538 19.846C58.5068 19.7352 58.4821 19.6162 58.4811 19.4959C58.4802 19.3755 58.5029 19.2561 58.5481 19.1446C58.5933 19.033 58.6601 18.9314 58.7445 18.8457C58.829 18.7599 58.9295 18.6917 59.0404 18.6448C59.2642 18.55 59.5165 18.548 59.7419 18.6391C59.9672 18.7302 60.1472 18.9071 60.2422 19.1308C60.337 19.3547 60.339 19.6071 60.2477 19.8324C60.1565 20.0578 59.9795 20.2377 59.7556 20.3326C59.6428 20.3812 59.5212 20.4061 59.3983 20.4059C59.2179 20.4061 59.0415 20.3531 58.891 20.2535C58.7406 20.1539 58.6228 20.0122 58.5525 19.846H58.5538ZM3.31195 19.4588C3.0917 19.3564 2.92107 19.1708 2.83748 18.9427C2.7539 18.7147 2.7642 18.4628 2.86612 18.2423C2.96784 18.023 3.15205 17.8527 3.37867 17.7685C3.60528 17.6843 3.85598 17.693 4.07624 17.7926C4.29714 17.8947 4.46851 18.0803 4.5527 18.3086C4.63689 18.537 4.62701 18.7894 4.52525 19.0104C4.45177 19.1691 4.33452 19.3035 4.18729 19.3978C4.04005 19.4921 3.86895 19.5424 3.69409 19.5429C3.56211 19.543 3.4317 19.5143 3.31195 19.4588ZM57.194 17.0621C57.1356 16.9568 57.0984 16.841 57.0847 16.7214C57.071 16.6017 57.081 16.4805 57.1141 16.3647C57.1472 16.2489 57.2028 16.1408 57.2777 16.0465C57.3526 15.9522 57.4454 15.8735 57.5507 15.8151C57.6561 15.7566 57.7719 15.7196 57.8916 15.7059C58.0113 15.6923 58.1326 15.7024 58.2484 15.7356C58.3642 15.7689 58.4723 15.8246 58.5666 15.8997C58.6608 15.9747 58.7394 16.0676 58.7978 16.173C58.915 16.3858 58.9431 16.6363 58.876 16.8698C58.809 17.1033 58.6521 17.3007 58.4398 17.4188C58.3035 17.4946 58.15 17.534 57.994 17.5334C57.8307 17.5334 57.6705 17.4896 57.5298 17.4067C57.3891 17.3239 57.2732 17.2049 57.194 17.0621ZM4.71314 16.5851C4.60964 16.5236 4.51929 16.4422 4.44726 16.3457C4.37523 16.2493 4.32293 16.1395 4.29335 16.0228C4.26377 15.9061 4.25749 15.7847 4.27488 15.6655C4.29227 15.5464 4.33298 15.4319 4.39469 15.3285C4.51919 15.1195 4.72159 14.9686 4.95736 14.9089C5.19314 14.8492 5.44298 14.8855 5.65194 15.01C5.75543 15.0715 5.84578 15.1529 5.91782 15.2494C5.98985 15.3458 6.04215 15.4556 6.07173 15.5723C6.1013 15.689 6.10758 15.8104 6.09019 15.9295C6.0728 16.0487 6.03209 16.1632 5.97039 16.2666C5.88869 16.4029 5.77302 16.5156 5.6347 16.5938C5.49638 16.6719 5.34013 16.7128 5.18126 16.7125C5.01654 16.7134 4.85469 16.6693 4.71314 16.5851ZM55.5521 14.4336C55.4828 14.3351 55.4336 14.2238 55.4074 14.1062C55.3812 13.9887 55.3785 13.8671 55.3994 13.7484C55.4202 13.6298 55.4644 13.5164 55.5291 13.4149C55.5939 13.3133 55.6781 13.2256 55.7769 13.1566C55.9757 13.0178 56.2215 12.9636 56.4603 13.0057C56.6991 13.0479 56.9114 13.183 57.0507 13.3814C57.12 13.48 57.1692 13.5913 57.1954 13.709C57.2216 13.8266 57.2244 13.9482 57.2035 14.0669C57.1826 14.1856 57.1385 14.299 57.0737 14.4006C57.0089 14.5022 56.9247 14.5901 56.8259 14.6591C56.6725 14.7671 56.4894 14.8252 56.3017 14.8253C56.1547 14.825 56.0099 14.7892 55.8796 14.721C55.7493 14.6528 55.6374 14.5543 55.5534 14.4336H55.5521ZM6.41049 13.8763C6.21569 13.7308 6.08666 13.5138 6.05178 13.2731C6.01691 13.0325 6.07904 12.7878 6.22451 12.593C6.29663 12.4965 6.38706 12.4151 6.49063 12.3536C6.5942 12.292 6.70888 12.2515 6.82812 12.2343C6.94735 12.2171 7.06881 12.2235 7.18556 12.2533C7.3023 12.283 7.41204 12.3355 7.50851 12.4076C7.60545 12.4796 7.6872 12.57 7.74908 12.6737C7.81096 12.7774 7.85174 12.8923 7.86908 13.0118C7.88642 13.1313 7.87998 13.253 7.85013 13.37C7.82028 13.487 7.7676 13.597 7.69512 13.6935C7.61001 13.808 7.49922 13.9008 7.37168 13.9647C7.24414 14.0285 7.10339 14.0615 6.96077 14.061C6.76261 14.0604 6.56999 13.9956 6.41176 13.8763H6.41049ZM53.6426 11.9917C53.4832 11.8083 53.4032 11.569 53.4201 11.3265C53.4371 11.0841 53.5497 10.8583 53.7331 10.6988C53.8239 10.6197 53.9293 10.5593 54.0435 10.521C54.1576 10.4827 54.2782 10.4673 54.3983 10.4757C54.5184 10.4841 54.6357 10.5162 54.7434 10.57C54.8511 10.6238 54.9471 10.6983 55.026 10.7892C55.1051 10.88 55.1655 10.9855 55.2038 11.0996C55.242 11.2137 55.2574 11.3342 55.2491 11.4543C55.2408 11.5744 55.2088 11.6917 55.1551 11.7994C55.1015 11.9071 55.0271 12.0032 54.9362 12.0822C54.7696 12.2277 54.5556 12.3076 54.3343 12.307C54.2034 12.3068 54.074 12.2786 53.9549 12.2242C53.8358 12.1699 53.7298 12.0906 53.6439 11.9917H53.6426ZM8.38171 11.3586C8.29345 11.2768 8.22218 11.1783 8.17198 11.0689C8.12178 10.9595 8.09363 10.8412 8.08914 10.7209C8.08464 10.6006 8.10389 10.4806 8.14579 10.3678C8.18768 10.2549 8.2514 10.1514 8.3333 10.0632C8.41494 9.97483 8.51318 9.90343 8.62243 9.85308C8.73167 9.80273 8.84977 9.77441 8.96997 9.76974C9.09016 9.76507 9.21011 9.78413 9.32293 9.82585C9.43575 9.86757 9.53924 9.93112 9.62749 10.0129C9.71597 10.0946 9.78748 10.193 9.8379 10.3024C9.88832 10.4118 9.91668 10.5301 9.92136 10.6505C9.92603 10.7709 9.90692 10.891 9.86513 11.004C9.82334 11.117 9.75969 11.2206 9.67781 11.309C9.5922 11.4018 9.4883 11.4758 9.37265 11.5265C9.25701 11.5771 9.13212 11.6032 9.00587 11.6032C8.77439 11.6035 8.55138 11.5161 8.38171 11.3586ZM51.4918 9.76256C51.4036 9.68051 51.3325 9.58186 51.2824 9.47227C51.2324 9.36267 51.2045 9.24429 51.2003 9.12389C51.1961 9.00349 51.2157 8.88345 51.258 8.77064C51.3002 8.65782 51.3643 8.55446 51.4466 8.46646C51.6125 8.2888 51.8421 8.18426 52.085 8.17578C52.3279 8.1673 52.5642 8.25558 52.7421 8.42124C52.9196 8.58731 53.0241 8.81699 53.0325 9.05994C53.041 9.3029 52.9528 9.5393 52.7873 9.71734C52.7013 9.80926 52.5974 9.88254 52.4819 9.93261C52.3664 9.98268 52.2419 10.0085 52.116 10.0084C51.8842 10.009 51.6609 9.9211 51.4918 9.76256ZM10.6026 9.06196C10.5233 8.97145 10.4626 8.86619 10.424 8.75221C10.3854 8.63823 10.3697 8.51776 10.3777 8.39769C10.3856 8.27761 10.4172 8.16029 10.4706 8.05243C10.5239 7.94456 10.598 7.84827 10.6886 7.76905C10.8712 7.60883 11.11 7.52769 11.3524 7.54345C11.5949 7.55922 11.8211 7.6706 11.9815 7.85312C12.1418 8.03608 12.223 8.27517 12.2072 8.51792C12.1915 8.76067 12.0801 8.98726 11.8974 9.14795C11.7304 9.29444 11.5158 9.37505 11.2936 9.37468C11.1631 9.37459 11.0341 9.34651 10.9153 9.29235C10.7966 9.23818 10.6908 9.15919 10.6051 9.06069L10.6026 9.06196ZM49.1168 7.77032C48.9229 7.62359 48.7951 7.40595 48.7614 7.16513C48.7278 6.92431 48.791 6.67997 48.9372 6.48569C49.084 6.29193 49.3017 6.16424 49.5424 6.13058C49.7832 6.09692 50.0275 6.16002 50.2218 6.30608C50.4156 6.45291 50.5433 6.67054 50.5769 6.9113C50.6106 7.15207 50.5475 7.39637 50.4014 7.59071C50.3158 7.70394 50.2052 7.79577 50.0781 7.85899C49.951 7.9222 49.8109 7.95507 49.669 7.95502C49.4697 7.9553 49.2758 7.89044 49.1168 7.77032ZM13.0566 7.00604C12.9177 6.80781 12.8627 6.56274 12.9036 6.32416C12.9445 6.08558 13.078 5.87283 13.275 5.73223C13.3733 5.66268 13.4843 5.61318 13.6016 5.58658C13.719 5.55998 13.8405 5.5568 13.9591 5.57721C14.0777 5.59762 14.1912 5.64122 14.2929 5.70553C14.3946 5.76983 14.4827 5.85358 14.552 5.95196C14.6217 6.05016 14.6712 6.16113 14.698 6.27852C14.7247 6.3959 14.728 6.5174 14.7077 6.63607C14.6874 6.75473 14.6439 6.86823 14.5797 6.97007C14.5155 7.07191 14.4319 7.1601 14.3336 7.22959C14.1791 7.33874 13.9947 7.39746 13.8056 7.39773C13.6585 7.39714 13.5137 7.36126 13.3834 7.2931C13.253 7.22494 13.141 7.12649 13.0566 7.00604ZM46.5507 6.03221C46.3436 5.90645 46.1946 5.7039 46.1363 5.46873C46.0779 5.23356 46.115 4.98485 46.2393 4.77687C46.3647 4.5689 46.5675 4.41917 46.8032 4.36055C47.0389 4.30192 47.2883 4.33918 47.4965 4.46415C47.7046 4.58948 47.8545 4.7923 47.9131 5.02805C47.9717 5.2638 47.9344 5.51318 47.8092 5.7214C47.728 5.85746 47.6127 5.97008 47.4749 6.04823C47.337 6.12638 47.1812 6.16739 47.0227 6.16723C46.8556 6.16696 46.6918 6.12116 46.5488 6.03476L46.5507 6.03221ZM15.7061 5.2227C15.5878 5.01045 15.5585 4.75996 15.6245 4.5261C15.6905 4.29224 15.8465 4.09408 16.0583 3.97501C16.2705 3.85654 16.5211 3.8271 16.755 3.89312C16.9889 3.95915 17.1871 4.11527 17.306 4.32722C17.4246 4.5394 17.4542 4.79001 17.3881 5.02396C17.3221 5.25792 17.1659 5.45609 16.9538 5.57491C16.8177 5.65161 16.6642 5.69197 16.508 5.6921C16.3446 5.69236 16.1842 5.64898 16.0432 5.56646C15.9022 5.48394 15.7858 5.36526 15.7061 5.2227ZM43.812 4.58007C43.7027 4.52937 43.6045 4.45763 43.5229 4.36895C43.4414 4.28027 43.3781 4.17639 43.3367 4.06324C43.2953 3.95009 43.2766 3.8299 43.2816 3.70952C43.2867 3.58914 43.3154 3.47094 43.3662 3.36167C43.4169 3.25237 43.4886 3.15414 43.5773 3.07257C43.666 2.99101 43.7699 2.92772 43.883 2.88631C43.9962 2.84491 44.1164 2.82621 44.2368 2.83127C44.3571 2.83634 44.4753 2.86508 44.5846 2.91584C44.8052 3.01836 44.9761 3.20429 45.0597 3.43275C45.1433 3.66122 45.1328 3.91353 45.0304 4.13424C44.9565 4.2926 44.8389 4.42655 44.6914 4.52031C44.544 4.61408 44.3728 4.66376 44.198 4.6635C44.0647 4.66402 43.9329 4.6351 43.812 4.57879V4.58007ZM18.5269 3.72471C18.4794 3.61419 18.4541 3.49538 18.4525 3.37507C18.4509 3.25476 18.473 3.13532 18.5176 3.02357C18.5622 2.91183 18.6284 2.80997 18.7124 2.72384C18.7964 2.6377 18.8966 2.56898 19.0072 2.52159C19.2306 2.42595 19.4828 2.42295 19.7084 2.51324C19.934 2.60353 20.1146 2.77973 20.2103 3.00309C20.3057 3.22577 20.3089 3.47718 20.2192 3.70222C20.1296 3.92727 19.9544 4.10758 19.732 4.20366C19.6181 4.25281 19.4955 4.27817 19.3715 4.27818C19.1923 4.27816 19.017 4.2256 18.8673 4.127C18.7177 4.0284 18.6002 3.88809 18.5295 3.72343L18.5269 3.72471ZM40.9351 3.42154C40.8209 3.38279 40.7155 3.3219 40.6249 3.24235C40.5342 3.16281 40.4602 3.06617 40.4069 2.95797C40.3537 2.84977 40.3223 2.73213 40.3146 2.61179C40.3069 2.49145 40.323 2.37076 40.3619 2.25664C40.4008 2.14264 40.4619 2.03745 40.5415 1.94709C40.6212 1.85673 40.7179 1.78299 40.8262 1.73009C40.9344 1.67719 41.052 1.64617 41.1722 1.63882C41.2925 1.63147 41.413 1.64793 41.5268 1.68725C41.6407 1.72618 41.7457 1.78717 41.836 1.86675C41.9263 1.94632 41.9999 2.04291 42.0528 2.15099C42.1057 2.25907 42.1368 2.37652 42.1442 2.49661C42.1516 2.6167 42.1353 2.73709 42.0962 2.85087C42.0344 3.03153 41.9177 3.18836 41.7624 3.29946C41.6071 3.41056 41.421 3.47039 41.23 3.47058C41.1305 3.4695 41.0318 3.45251 40.9377 3.42027L40.9351 3.42154ZM21.4924 2.52987C21.4568 2.41479 21.4443 2.29383 21.4556 2.1739C21.4668 2.05398 21.5016 1.93745 21.5579 1.83098C21.6142 1.72451 21.691 1.63018 21.7838 1.55339C21.8766 1.4766 21.9836 1.41885 22.0987 1.38345C22.3309 1.31195 22.5819 1.33542 22.7968 1.44872C23.0117 1.56202 23.1729 1.7559 23.2451 1.98787C23.3164 2.2203 23.2926 2.47149 23.1789 2.68639C23.0652 2.90129 22.871 3.06236 22.6388 3.1343C22.5514 3.16157 22.4603 3.17552 22.3688 3.17569C22.1734 3.17516 21.9833 3.11229 21.8261 2.99625C21.669 2.88022 21.5529 2.71705 21.4949 2.53051L21.4924 2.52987ZM37.9551 2.57C37.8377 2.54331 37.7267 2.49375 37.6285 2.42413C37.5303 2.35452 37.4467 2.26623 37.3827 2.16431C37.3186 2.06238 37.2753 1.94883 37.2551 1.83014C37.235 1.71146 37.2384 1.58996 37.2653 1.47261C37.3195 1.23557 37.4656 1.02975 37.6715 0.900404C37.8774 0.771058 38.1262 0.728773 38.3633 0.782846C38.4807 0.809675 38.5916 0.859361 38.6897 0.929067C38.7879 0.998773 38.8714 1.08713 38.9354 1.1891C38.9993 1.29106 39.0426 1.40464 39.0627 1.52333C39.0828 1.64203 39.0793 1.76352 39.0525 1.88087C39.0064 2.083 38.8932 2.26351 38.7312 2.39287C38.5692 2.52223 38.3681 2.59276 38.1608 2.59293C38.0931 2.59309 38.0256 2.58561 37.9595 2.57064L37.9551 2.57ZM24.5699 1.65604C24.5467 1.53794 24.5471 1.41643 24.5709 1.29846C24.5948 1.1805 24.6416 1.06839 24.7088 0.968541C24.776 0.868695 24.8622 0.783072 24.9626 0.716566C25.0629 0.65006 25.1753 0.603976 25.2934 0.580947C25.532 0.534593 25.7792 0.584911 25.9807 0.720835C26.1822 0.856758 26.3215 1.06715 26.3679 1.30574C26.391 1.42389 26.3907 1.54543 26.3668 1.66344C26.343 1.78145 26.2962 1.8936 26.229 1.9935C26.1618 2.0934 26.0756 2.17908 25.9753 2.24565C25.8749 2.31222 25.7625 2.35837 25.6444 2.38148C25.5858 2.39295 25.5263 2.3985 25.4667 2.39804C25.2543 2.39747 25.0488 2.32316 24.8852 2.18781C24.7217 2.05246 24.6102 1.86449 24.5699 1.65604ZM34.9043 2.03818C34.6632 2.00885 34.4435 1.88512 34.2934 1.6941C34.1433 1.50309 34.0751 1.26037 34.1037 1.01914C34.118 0.89961 34.1557 0.784068 34.2146 0.67911C34.2736 0.574153 34.3526 0.481836 34.4473 0.407433C34.5419 0.333029 34.6502 0.277996 34.7662 0.245478C34.8821 0.21296 35.0032 0.203593 35.1228 0.217912C35.364 0.24692 35.5839 0.370569 35.734 0.561667C35.8842 0.752765 35.9523 0.995667 35.9233 1.23696C35.897 1.45956 35.7899 1.66476 35.6224 1.81372C35.4549 1.96267 35.2386 2.04503 35.0145 2.04519C34.9771 2.04583 34.9397 2.04455 34.9024 2.04137L34.9043 2.03818ZM27.7194 1.1134C27.6982 0.87129 27.7739 0.630662 27.93 0.444368C28.0861 0.258074 28.3097 0.141349 28.5518 0.119829C28.672 0.109257 28.793 0.122502 28.908 0.158806C29.023 0.19511 29.1298 0.253758 29.2221 0.331388C29.3144 0.409018 29.3904 0.504103 29.4459 0.611192C29.5014 0.718282 29.5352 0.835269 29.5454 0.955447C29.5562 1.07534 29.5433 1.1962 29.5073 1.31109C29.4714 1.42598 29.4131 1.53264 29.3358 1.62495C29.2585 1.71726 29.1638 1.7934 29.057 1.84901C28.9502 1.90462 28.8335 1.93861 28.7136 1.94902C28.6868 1.95156 28.6595 1.95284 28.6314 1.95284C28.4019 1.95239 28.181 1.86593 28.0121 1.71052C27.8433 1.55511 27.7388 1.34205 27.7194 1.1134ZM31.8115 1.83374C31.5683 1.82955 31.3367 1.72912 31.1674 1.55446C30.9981 1.3798 30.905 1.14516 30.9084 0.901947C30.9127 0.659028 31.0132 0.427732 31.1877 0.258702C31.3622 0.0896725 31.5966 -0.00331829 31.8395 9.05174e-05C31.9599 0.00183317 32.0788 0.0272953 32.1893 0.07502C32.2998 0.122745 32.3999 0.191795 32.4837 0.278222C32.5675 0.364648 32.6335 0.466754 32.6778 0.578697C32.7221 0.69064 32.7439 0.810224 32.742 0.930608C32.7387 1.17119 32.6408 1.40079 32.4695 1.56978C32.2983 1.73878 32.0674 1.83359 31.8268 1.83374H31.8115Z" fill="#BD967A"/>
<path d="M58.8882 45.2706C58.6758 45.2709 58.4699 45.1975 58.3056 45.0629C58.1413 44.9284 58.0287 44.741 57.9871 44.5327C57.9454 44.3245 57.9773 44.1082 58.0773 43.9208C58.1773 43.7334 58.3391 43.5865 58.5353 43.5051C58.7314 43.4237 58.9498 43.4129 59.153 43.4744C59.3563 43.536 59.5319 43.6662 59.65 43.8427C59.768 44.0193 59.8212 44.2313 59.8004 44.4427C59.7796 44.654 59.6861 44.8517 59.5359 45.0018C59.3636 45.1728 59.131 45.2693 58.8882 45.2706Z" fill="#BD967A"/>
<path d="M24.6005 18.7518C24.4185 18.7512 24.2432 18.683 24.1086 18.5605C23.9739 18.4381 23.8895 18.27 23.8717 18.0889C23.8539 17.9078 23.9039 17.7265 24.012 17.5801C24.1202 17.4337 24.2788 17.3327 24.4572 17.2965C24.8119 17.2245 25.189 17.1608 25.5539 17.0997C26.3672 16.9634 27.2099 16.822 27.8754 16.5774C28.9882 16.1702 30.0754 15.6963 31.1313 15.1584C32.2739 14.575 33.1133 13.8846 33.8521 12.9293C34.0477 12.6745 34.2343 12.4165 34.4253 12.1427C34.5527 11.9669 34.6801 11.7905 34.8075 11.6166L34.8756 11.5058C34.3209 11.4701 33.7929 11.4733 33.2834 11.4758C33.1063 11.4758 32.9299 11.4758 32.7541 11.4758C31.6832 11.4638 30.6145 11.5764 29.5696 11.8115C27.9773 12.1796 25.7717 13.0089 24.3049 14.8686C23.3884 16.031 22.0172 17.4016 20.6746 17.3207C20.4884 17.2987 20.3177 17.2063 20.1974 17.0626C20.0771 16.9189 20.0162 16.7346 20.0273 16.5474C20.0383 16.3603 20.1205 16.1845 20.2569 16.0559C20.3933 15.9273 20.5737 15.8558 20.7612 15.8558C21.279 15.887 22.221 15.1431 23.1528 13.961C24.5208 12.2287 26.6258 10.9867 29.2378 10.3816C30.3933 10.1219 31.5749 9.99663 32.7592 10.0084C32.9318 10.0084 33.1038 10.0084 33.2764 10.0084C34.1833 10.0033 35.1234 9.99822 36.2335 10.1848C36.3621 10.2064 36.4827 10.2618 36.5828 10.3453C36.683 10.4288 36.7591 10.5375 36.8034 10.6601C36.8476 10.7828 36.8585 10.915 36.8348 11.0433C36.8111 11.1715 36.7537 11.2911 36.6685 11.3899C36.6048 11.4905 36.4265 11.7841 36.3182 11.9631C36.1176 12.2987 36.0482 12.4134 35.9998 12.4815C35.8724 12.6528 35.7501 12.8254 35.6259 12.9987C35.4348 13.2706 35.2298 13.5515 35.0183 13.8266C34.1394 14.9661 33.1471 15.78 31.8019 16.4673C30.6923 17.0339 29.5493 17.5327 28.3792 17.9608C27.585 18.2512 26.6755 18.4066 25.7959 18.5518C25.4265 18.6155 25.0775 18.6729 24.7476 18.7397C24.6991 18.7487 24.6498 18.7528 24.6005 18.7518Z" fill="#BD967A"/>
<path d="M24.6005 18.813C24.4569 18.8127 24.316 18.7735 24.1928 18.6997C24.0696 18.6259 23.9687 18.5201 23.9008 18.3936C23.8328 18.2671 23.8004 18.1245 23.8068 17.9811C23.8133 17.8376 23.8584 17.6986 23.9374 17.5787C23.995 17.4913 24.0693 17.4162 24.1561 17.3578C24.243 17.2994 24.3405 17.2589 24.4431 17.2385C24.7973 17.1666 25.1743 17.1029 25.5386 17.0417C26.3545 16.9048 27.1946 16.7641 27.8525 16.522C28.9627 16.1166 30.0474 15.6444 31.1007 15.1081C32.235 14.5292 33.0675 13.847 33.8012 12.8961C33.9923 12.6458 34.177 12.3911 34.3699 12.121C34.5024 11.9357 34.6292 11.7593 34.7578 11.5847C34.761 11.5796 34.7655 11.5733 34.7699 11.565C34.3789 11.5427 34.0114 11.5402 33.6999 11.5402C33.5636 11.5402 33.4286 11.5402 33.2942 11.5402H32.656C31.6213 11.535 30.5893 11.6469 29.5798 11.8739C27.9977 12.2401 25.8055 13.0636 24.3502 14.9113C23.4585 16.0418 22.1165 17.3895 20.7835 17.3901C20.7446 17.3901 20.7052 17.3901 20.6657 17.3863C20.4547 17.3734 20.2575 17.2772 20.1174 17.1189C19.9774 16.9605 19.906 16.7531 19.9189 16.5421C19.9318 16.3311 20.028 16.1339 20.1863 15.9939C20.3447 15.8538 20.5521 15.7824 20.7631 15.7953H20.7924C21.3019 15.7953 22.2063 15.061 23.1037 13.9235C24.482 12.1739 26.5991 10.93 29.225 10.3205C30.3583 10.0658 31.5168 9.94019 32.6783 9.94599H33.2764C33.4254 9.94599 33.5751 9.94599 33.7222 9.94599C34.5656 9.93352 35.4086 9.99339 36.2418 10.125C36.3812 10.1482 36.5119 10.2082 36.6204 10.2987C36.729 10.3892 36.8115 10.507 36.8594 10.6399C36.9074 10.7728 36.9192 10.9161 36.8934 11.0551C36.8677 11.1941 36.8055 11.3237 36.7131 11.4306C36.6552 11.5185 36.4985 11.7796 36.3692 11.9975C36.1666 12.3357 36.0972 12.4509 36.0456 12.521C35.9297 12.6777 35.817 12.835 35.7036 12.9929L35.6718 13.0375C35.4807 13.3088 35.2763 13.5897 35.0629 13.8655C34.1782 15.0119 33.1802 15.8316 31.8255 16.5233C30.7141 17.0886 29.5696 17.5865 28.3983 18.0143C27.599 18.3073 26.6857 18.4601 25.8036 18.6085H25.7896C25.4259 18.6722 25.0826 18.727 24.7578 18.7932C24.7061 18.8047 24.6534 18.8113 24.6005 18.813ZM33.7025 11.4153C34.0426 11.4153 34.4489 11.4191 34.882 11.4472C34.8924 11.448 34.9024 11.4515 34.9112 11.4571C34.92 11.4628 34.9272 11.4705 34.9323 11.4797C34.9372 11.4889 34.9398 11.4992 34.9398 11.5096C34.9398 11.52 34.9372 11.5303 34.9323 11.5395C34.9011 11.5911 34.8756 11.6325 34.8623 11.6523C34.7349 11.8293 34.6075 12.0051 34.4801 12.1809C34.2795 12.4611 34.098 12.7172 33.9012 12.9687C33.1566 13.9349 32.3089 14.6279 31.1625 15.2151C30.1033 15.7537 29.0127 16.228 27.8964 16.6354C27.2251 16.8812 26.3819 17.0226 25.566 17.1596C25.1972 17.2233 24.8215 17.287 24.4693 17.3564C24.3055 17.3895 24.1599 17.4822 24.0607 17.6166C23.9615 17.751 23.9158 17.9175 23.9323 18.0837C23.9489 18.25 24.0267 18.4041 24.1505 18.5163C24.2743 18.6284 24.4353 18.6906 24.6024 18.6907C24.6475 18.6907 24.6925 18.6862 24.7368 18.6773C25.0641 18.6104 25.4087 18.5531 25.773 18.492H25.7877C26.664 18.3442 27.571 18.192 28.3601 17.9035C29.5269 17.4775 30.6669 16.9815 31.7739 16.4182C33.1114 15.7355 34.0973 14.9259 34.9699 13.7948C35.182 13.5184 35.3826 13.2388 35.5769 12.9668L35.6081 12.9222C35.7214 12.7643 35.8348 12.6038 35.9507 12.449C35.9991 12.3853 36.0679 12.2694 36.2692 11.9357C36.3278 11.837 36.3915 11.73 36.4507 11.6331L36.4392 11.6382C36.4063 11.6528 36.3725 11.6651 36.338 11.6752C36.3241 11.6752 36.3106 11.6707 36.2995 11.6624C36.2884 11.6541 36.2804 11.6424 36.2765 11.629C36.2727 11.6157 36.2734 11.6015 36.2784 11.5886C36.2833 11.5756 36.2924 11.5647 36.3042 11.5574C36.3337 11.5489 36.3627 11.5384 36.3908 11.5261L36.4322 11.5064C36.4463 11.4996 36.4625 11.4983 36.4775 11.5026C36.4925 11.507 36.5054 11.5167 36.5138 11.53C36.5596 11.4561 36.5978 11.3943 36.622 11.3574C36.7384 11.2245 36.7985 11.0516 36.7895 10.8752C36.7821 10.7219 36.7222 10.5758 36.62 10.4612C36.5177 10.3467 36.3793 10.2707 36.2278 10.246C35.4013 10.1158 34.5652 10.0566 33.7286 10.0689C33.5783 10.0689 33.4292 10.0689 33.2827 10.0689H32.6828C31.5286 10.0642 30.3775 10.1905 29.2518 10.4453C26.6526 11.0466 24.5597 12.2771 23.2012 14.005C22.2458 15.2151 21.3051 15.9558 20.758 15.9221H20.7192C20.5441 15.9222 20.376 15.9905 20.2504 16.1125C20.1248 16.2345 20.0516 16.4005 20.0463 16.5755C20.041 16.7505 20.104 16.9207 20.222 17.05C20.34 17.1794 20.5037 17.2577 20.6784 17.2685C20.716 17.2685 20.7523 17.2723 20.7892 17.2723C22.0726 17.2723 23.384 15.9495 24.2591 14.84C25.7367 12.9649 27.9531 12.1299 29.5575 11.7593C30.576 11.5302 31.6172 11.4172 32.6611 11.4223H33.2891L33.7025 11.4153Z" fill="#BD967A"/>
<path d="M16.7468 25.0591C15.7822 25.0507 14.8297 24.8441 13.9482 24.4521C13.0069 24.0349 12.4076 23.405 11.9433 22.3465C11.3618 21.0192 12.1477 20.1173 12.7209 19.4601C12.8305 19.3327 12.9445 19.2053 13.0496 19.0722C13.2897 18.7849 13.5525 18.5174 13.8355 18.2722C14.0495 18.0856 14.2508 17.885 14.438 17.6716C14.5873 17.4826 14.7251 17.2848 14.8507 17.0793C15.0239 16.7948 15.2183 16.5238 15.4322 16.2685C15.9247 15.6955 16.583 15.2895 17.3162 15.1068C17.6843 15.0164 18.041 15.0387 18.3556 15.0584C18.5977 15.0737 18.848 15.089 18.9779 15.0361C19.9033 14.6597 20.6491 13.6872 21.3707 12.7465C21.6637 12.3643 21.9401 12.0045 22.2331 11.6739C23.4018 10.3581 24.9896 9.33392 26.9526 8.63014C28.07 8.23863 29.2287 7.97643 30.4059 7.84866C30.5797 7.82892 30.7542 7.80726 30.93 7.78497C31.8459 7.6716 32.7917 7.55505 33.8827 7.61683C34.0125 7.62415 34.1381 7.66578 34.2466 7.73747C34.355 7.80915 34.4425 7.90833 34.5002 8.02488C34.5578 8.14143 34.5835 8.27119 34.5746 8.4009C34.5657 8.53062 34.5226 8.65565 34.4496 8.76325C34.3954 8.87025 34.2585 9.17915 34.1719 9.36959C34.0095 9.73199 33.9528 9.85555 33.9101 9.9307C33.8057 10.1129 33.7031 10.2982 33.6012 10.4842L33.4101 10.8256C33.363 10.9098 33.2997 10.984 33.224 11.0438C33.1482 11.1036 33.0613 11.1479 32.9684 11.1742C32.8755 11.2004 32.7783 11.2081 32.6824 11.1968C32.5866 11.1855 32.4938 11.1555 32.4096 11.1083C32.3253 11.0612 32.2511 10.9979 32.1913 10.9221C32.1315 10.8464 32.0872 10.7595 32.0609 10.6666C32.0347 10.5737 32.027 10.4765 32.0383 10.3806C32.0496 10.2848 32.0796 10.192 32.1268 10.1078L32.3121 9.77339C32.4166 9.58231 32.521 9.39443 32.6306 9.20654C32.6414 9.18552 32.6618 9.14285 32.6866 9.0868C32.1433 9.11674 31.6217 9.18106 31.1103 9.24412C30.93 9.26641 30.7511 9.2887 30.5734 9.30781C29.5089 9.42325 28.4612 9.66024 27.4506 10.0141C25.7227 10.6338 24.3374 11.5204 23.3349 12.6496C23.0764 12.9407 22.8152 13.2808 22.5395 13.6407C21.7376 14.6865 20.8287 15.8698 19.5333 16.3978C19.0932 16.5768 18.6537 16.5494 18.2665 16.5252C18.0359 16.5112 17.8206 16.4978 17.6678 16.5348C17.2289 16.6459 16.8354 16.8907 16.5417 17.2354C16.3759 17.4365 16.2248 17.6494 16.0895 17.8723C15.9323 18.1281 15.7594 18.374 15.5717 18.6085C15.342 18.875 15.0936 19.1249 14.8285 19.3562C14.6031 19.5512 14.3928 19.7628 14.1992 19.9893C14.075 20.1447 13.9508 20.2868 13.8304 20.425C13.226 21.1192 13.1031 21.3249 13.2922 21.7555C13.6107 22.4752 13.9476 22.8382 14.545 23.107C15.7755 23.6522 17.6786 23.912 18.9925 22.8522L19.0225 22.828C19.1146 22.75 19.214 22.6809 19.3193 22.6217C19.4891 22.5259 19.69 22.5015 19.8779 22.5539C20.0657 22.6062 20.225 22.7311 20.3208 22.9009C20.4166 23.0708 20.441 23.2717 20.3886 23.4595C20.3362 23.6474 20.2114 23.8067 20.0415 23.9025C20.0083 23.92 19.9773 23.9413 19.9492 23.9662L19.916 23.9929C18.9626 24.7648 17.8416 25.0591 16.7468 25.0591Z" fill="#BD967A"/>
<path d="M16.7468 25.1202C15.7739 25.1106 14.8133 24.9021 13.924 24.5075C12.9687 24.084 12.3592 23.4452 11.8859 22.3714C11.2892 21.0084 12.0891 20.09 12.6731 19.4199L12.691 19.3996C12.7948 19.2805 12.9018 19.1575 13.0005 19.034C13.2426 18.7442 13.5076 18.4744 13.7928 18.227C14.0048 18.0427 14.204 17.8442 14.389 17.6328C14.5368 17.4461 14.6731 17.2507 14.7972 17.0475C14.9724 16.7601 15.1689 16.4863 15.3851 16.2284C15.8854 15.6455 16.5547 15.2328 17.3003 15.0476C17.504 15 17.7127 14.9773 17.9219 14.9801C18.0747 14.9801 18.225 14.989 18.3582 14.9973C18.4709 15.0043 18.5874 15.0119 18.6906 15.0119C18.7795 15.0167 18.8686 15.0057 18.9537 14.9794C19.8632 14.61 20.6039 13.6419 21.3204 12.7108C21.6172 12.3229 21.8936 11.9637 22.1866 11.6332C23.3617 10.3097 24.9578 9.2766 26.9302 8.57282C28.0523 8.17966 29.2156 7.91618 30.3976 7.78752C30.5702 7.76841 30.7428 7.74676 30.9173 7.72383C31.6599 7.63212 32.4235 7.53786 33.2674 7.53786C33.4744 7.53786 33.6827 7.54359 33.8846 7.55505C34.0251 7.56313 34.161 7.60827 34.2784 7.68589C34.3957 7.76352 34.4905 7.87085 34.5529 7.99697C34.6154 8.12309 34.6433 8.2635 34.6339 8.40391C34.6244 8.54433 34.578 8.67974 34.4992 8.79638C34.4527 8.88873 34.3285 9.16451 34.226 9.3938C34.0648 9.75237 34.0069 9.88039 33.9617 9.96C33.8572 10.1415 33.7553 10.3269 33.6528 10.5122C33.5891 10.6262 33.5254 10.7402 33.4617 10.8536C33.4112 10.9458 33.3429 11.0271 33.2608 11.0928C33.1787 11.1584 33.0845 11.2072 32.9834 11.2363C32.8824 11.2653 32.7766 11.2741 32.6721 11.262C32.5677 11.25 32.4667 11.2173 32.3749 11.166C32.2832 11.1147 32.2025 11.0457 32.1375 10.9631C32.0725 10.8804 32.0246 10.7857 31.9964 10.6844C31.9683 10.5831 31.9604 10.4773 31.9734 10.3729C31.9864 10.2686 32.0199 10.1679 32.072 10.0766C32.1357 9.96574 32.1994 9.85428 32.2573 9.74282C32.3618 9.55175 32.4662 9.36067 32.5758 9.17534C32.5799 9.16793 32.5835 9.16027 32.5866 9.15241C32.0803 9.18425 31.5911 9.24476 31.1166 9.30335L31.079 9.30845C30.9115 9.32883 30.7453 9.34921 30.5791 9.36832C29.5187 9.48242 28.4748 9.71748 27.4678 10.0689C25.7482 10.6848 24.3731 11.5663 23.377 12.6879C23.1222 12.9783 22.8598 13.3171 22.5847 13.6757C21.7822 14.7304 20.8656 15.9227 19.553 16.4545C19.2791 16.5607 18.9868 16.6116 18.6932 16.6042C18.5422 16.6042 18.3983 16.5953 18.2594 16.5864C18.0136 16.5717 17.8002 16.5641 17.6786 16.594C17.2523 16.7025 16.8701 16.9403 16.5844 17.2749C16.4211 17.4745 16.2721 17.6854 16.1385 17.906C15.9801 18.1644 15.8054 18.4124 15.6156 18.6487C15.3864 18.915 15.1387 19.1648 14.8743 19.3964C14.6486 19.5909 14.438 19.8024 14.2444 20.0288C14.117 20.1893 13.9896 20.3365 13.8744 20.4657C13.2808 21.1472 13.1699 21.3313 13.3451 21.7319C13.654 22.4363 13.9852 22.7936 14.5679 23.0522C15.2519 23.3551 15.9905 23.5149 16.7385 23.5216C17.6181 23.5216 18.3626 23.2802 18.9518 22.8045L18.9811 22.7809C19.0758 22.7004 19.1782 22.6294 19.2868 22.5688C19.4705 22.4665 19.6873 22.4411 19.8897 22.4981C20.0922 22.5551 20.2638 22.6899 20.3672 22.8731C20.4706 23.0562 20.4973 23.2728 20.4416 23.4756C20.3858 23.6784 20.252 23.8508 20.0695 23.9553C20.0388 23.9728 20.0105 23.9942 19.9854 24.019L19.9517 24.0458C19.081 24.7477 17.9722 25.1202 16.7468 25.1202ZM17.9238 15.1017C17.7245 15.0986 17.5256 15.12 17.3315 15.1654C16.6096 15.3449 15.9615 15.7444 15.4768 16.3087C15.2663 16.5622 15.0747 16.8308 14.9036 17.1124C14.7767 17.3202 14.6374 17.5202 14.4864 17.7111C14.2985 17.9264 14.0959 18.1283 13.8801 18.3156C13.5989 18.5592 13.3378 18.825 13.0992 19.1104C12.9992 19.2378 12.891 19.3601 12.7865 19.4798L12.7687 19.5002C12.2057 20.146 11.435 21.0288 12.0012 22.3217C12.4585 23.3656 13.0489 23.9859 13.9756 24.3961C14.8495 24.7837 15.7934 24.9885 16.7493 24.998C17.9467 24.998 19.0288 24.6349 19.8784 23.9483L19.9122 23.9216C19.9428 23.8932 19.9768 23.8688 20.0135 23.849C20.1693 23.7607 20.2837 23.6142 20.3315 23.4416C20.3792 23.269 20.3565 23.0845 20.2682 22.9287C20.18 22.7728 20.0334 22.6584 19.8608 22.6107C19.6882 22.5629 19.5037 22.5856 19.3479 22.6739C19.2455 22.7314 19.1489 22.7986 19.0594 22.8745L19.0295 22.8987C18.4269 23.3853 17.6353 23.6426 16.7398 23.6426C15.9754 23.6359 15.2205 23.4729 14.5214 23.1637C13.9068 22.8917 13.5591 22.5166 13.2368 21.781C13.0356 21.3217 13.1731 21.0925 13.7852 20.3855C13.8973 20.2581 14.0253 20.111 14.152 19.9524C14.3475 19.7239 14.5604 19.5109 14.7889 19.3155C15.0515 19.0856 15.2977 18.8376 15.5258 18.5735C15.7108 18.3411 15.881 18.0973 16.0354 17.8436C16.1732 17.6172 16.3271 17.4009 16.4958 17.1965C16.7978 16.843 17.2019 16.5918 17.6525 16.4774C17.7416 16.4581 17.8327 16.4495 17.9238 16.452C18.0301 16.452 18.1448 16.459 18.2664 16.466C18.4078 16.4749 18.5492 16.4838 18.6964 16.4838C18.9743 16.4912 19.251 16.4434 19.5103 16.3431C20.7899 15.8233 21.693 14.6457 22.4898 13.6044C22.7674 13.2426 23.0286 12.9038 23.2891 12.6083C24.2986 11.4714 25.6921 10.5791 27.4289 9.95554C28.4448 9.60087 29.4978 9.36346 30.5676 9.24794C30.7332 9.22884 30.8994 9.20782 31.0669 9.18425L31.1039 9.1798C31.6134 9.1161 32.1376 9.05241 32.684 9.02248C32.6946 9.02161 32.7051 9.02357 32.7147 9.02816C32.7242 9.03275 32.7323 9.03981 32.7382 9.04859C32.7439 9.05738 32.7473 9.06744 32.7482 9.07789C32.7491 9.08833 32.7474 9.09883 32.7433 9.10846C32.7184 9.16451 32.6968 9.20909 32.6866 9.23075C32.5777 9.42182 32.4732 9.60971 32.3681 9.79887L32.1834 10.1339C32.1402 10.2111 32.1127 10.2961 32.1023 10.384C32.092 10.4719 32.099 10.561 32.1231 10.6461C32.1472 10.7313 32.1878 10.8109 32.2426 10.8804C32.2974 10.9498 32.3654 11.0078 32.4427 11.051C32.5199 11.0942 32.6049 11.1218 32.6928 11.1321C32.7807 11.1425 32.8697 11.1354 32.9549 11.1114C33.0401 11.0873 33.1197 11.0467 33.1891 10.9918C33.2586 10.937 33.3166 10.869 33.3598 10.7918L33.5509 10.4504C33.6528 10.2644 33.7553 10.0791 33.8598 9.89631C33.9012 9.82434 33.9572 9.70206 34.119 9.34093L34.261 9.02566C34.2264 9.0469 34.1902 9.06542 34.1527 9.08107C34.1377 9.08677 34.1211 9.08659 34.1062 9.08056C34.0914 9.07454 34.0793 9.06312 34.0725 9.04859C34.0668 9.03358 34.067 9.01698 34.073 9.0021C34.079 8.98722 34.0904 8.97516 34.105 8.96834C34.1497 8.95022 34.1924 8.92738 34.2323 8.90019C34.2454 8.89195 34.2609 8.88869 34.2761 8.89104C34.2914 8.89338 34.3052 8.90116 34.3152 8.91293C34.3508 8.83523 34.3788 8.7709 34.4005 8.73205C34.5002 8.58722 34.5397 8.40932 34.5107 8.2359C34.4861 8.08492 34.4106 7.94689 34.2967 7.8448C34.1828 7.7427 34.0374 7.68271 33.8846 7.67479C33.6846 7.66333 33.4795 7.65759 33.2745 7.65759C32.4382 7.65759 31.6777 7.75122 30.9434 7.8423C30.7644 7.86395 30.5912 7.88561 30.4179 7.90599C29.2456 8.0333 28.0916 8.29443 26.9787 8.68428C25.0253 9.38488 23.4464 10.4039 22.2847 11.7109C21.9942 12.0382 21.7204 12.3962 21.4293 12.7751C20.6981 13.7305 19.9472 14.7075 19.0091 15.0896C18.9096 15.1224 18.8048 15.1365 18.7002 15.131C18.5932 15.131 18.4741 15.1234 18.3601 15.1164C18.2155 15.1106 18.0728 15.1017 17.9238 15.1017Z" fill="#BD967A"/>
<path d="M43.7063 36.3234H43.6674C43.4728 36.313 43.2903 36.2258 43.1599 36.081C43.0295 35.9361 42.9619 35.7455 42.9719 35.5508C42.9923 35.1515 43.0834 34.5993 43.1713 34.0649C43.235 33.6707 43.2987 33.3006 43.3235 33.0344C43.6127 30.1047 43.6146 27.6933 42.6809 25.4342C41.4529 22.465 39.4633 20.6415 36.7679 20.0129C34.9387 19.5868 32.6847 19.8906 31.116 20.2212C30.7186 20.3052 30.3071 20.4173 29.8715 20.5352C29.0614 20.7555 28.2226 20.981 27.3627 21.0587C25.2444 21.244 24.6011 19.7167 24.0833 18.4894L24.0324 18.3691C23.9598 18.1902 23.9605 17.99 24.0343 17.8117C24.1081 17.6334 24.2491 17.4912 24.4268 17.416C24.6045 17.3407 24.8047 17.3384 24.9841 17.4094C25.1636 17.4805 25.3078 17.6193 25.3858 17.7958L25.4374 17.9188C26.001 19.2563 26.2654 19.6804 27.2347 19.5951C27.9633 19.5314 28.7378 19.3206 29.4862 19.1174C29.9225 18.999 30.374 18.876 30.8128 18.7837C32.5274 18.4226 35.01 18.0945 37.1016 18.5818C40.2409 19.3136 42.6427 21.4892 44.0394 24.8731C45.0903 27.415 45.0979 30.032 44.7865 33.1796C44.7559 33.4911 44.6903 33.886 44.6215 34.3038C44.5406 34.7986 44.4559 35.3101 44.44 35.6279C44.4299 35.8157 44.3482 35.9924 44.2117 36.1218C44.0752 36.2512 43.8944 36.3233 43.7063 36.3234Z" fill="#BD967A"/>
<path d="M43.7063 36.3845H43.6649C43.4541 36.3735 43.2562 36.2792 43.1148 36.1224C42.9734 35.9656 42.9001 35.7591 42.9108 35.5483C42.9312 35.1464 43.0223 34.5929 43.1102 34.0592C43.1738 33.6624 43.2375 33.2949 43.2624 33.0293C43.5515 30.1104 43.5534 27.7054 42.6255 25.4584C41.4058 22.5089 39.4308 20.6969 36.7551 20.0728C36.0911 19.9274 35.4127 19.8578 34.733 19.8651C33.654 19.8651 32.4401 20.0053 31.13 20.2817C30.7377 20.3645 30.3313 20.4727 29.9008 20.5918H29.8887C29.0766 20.8129 28.2327 21.0415 27.3697 21.1167C27.2513 21.1275 27.1341 21.1326 27.022 21.1326C25.1342 21.1326 24.5215 19.6798 24.0285 18.5117L23.9769 18.3901C23.9313 18.2931 23.9058 18.188 23.9018 18.0809C23.8978 17.9738 23.9154 17.867 23.9537 17.767C23.9919 17.6669 24.05 17.5755 24.1244 17.4984C24.1988 17.4213 24.288 17.36 24.3866 17.3182C24.4853 17.2764 24.5913 17.2549 24.6985 17.2551C24.8056 17.2552 24.9116 17.277 25.0102 17.3191C25.1087 17.3612 25.1977 17.4228 25.2719 17.5001C25.346 17.5774 25.4038 17.6689 25.4418 17.7691L25.4934 17.8914C26.0093 19.1136 26.2577 19.541 27.0124 19.541C27.0799 19.541 27.1513 19.541 27.229 19.5308C27.9531 19.4671 28.7238 19.2582 29.469 19.055C29.9078 18.9359 30.3606 18.8136 30.7994 18.7206C32.2134 18.4226 33.5381 18.2748 34.733 18.2748C35.5336 18.2668 36.3325 18.3499 37.1143 18.5225C40.274 19.2588 42.6879 21.4466 44.0954 24.8502C45.1508 27.4029 45.1591 30.0289 44.8464 33.186C44.8164 33.4943 44.7521 33.8866 44.6846 34.2948V34.3139C44.6024 34.8126 44.5196 35.3183 44.5031 35.6311C44.4923 35.8349 44.4036 36.0268 44.2553 36.167C44.107 36.3073 43.9104 36.3851 43.7063 36.3845ZM34.7317 19.7441C35.4208 19.7367 36.1086 19.8072 36.7819 19.9543C39.4976 20.5912 41.502 22.4242 42.7376 25.4119C43.6764 27.6831 43.6751 30.1047 43.3847 33.0414C43.3579 33.3083 43.2968 33.6783 43.2318 34.0757C43.1433 34.6107 43.0535 35.1585 43.0325 35.5553C43.0236 35.7335 43.0856 35.908 43.2049 36.0407C43.3242 36.1734 43.4912 36.2535 43.6694 36.2635H43.705C43.8773 36.2634 44.043 36.1974 44.1681 36.0789C44.2932 35.9605 44.3682 35.7986 44.3776 35.6266C44.3942 35.3082 44.4776 34.7986 44.5585 34.305L44.5636 34.277C44.6273 33.8675 44.691 33.4802 44.7241 33.1758C45.0349 30.0365 45.0272 27.4284 43.9821 24.896C42.5905 21.5306 40.2052 19.3677 37.0863 18.641C36.3126 18.4702 35.522 18.3882 34.7298 18.3964C33.542 18.3964 32.2267 18.5467 30.8217 18.8423C30.3848 18.9346 29.9352 19.0569 29.4995 19.1754C28.7473 19.3798 27.971 19.5906 27.2366 19.655C27.1544 19.6626 27.0806 19.6658 27.0092 19.6658C26.1813 19.6658 25.9055 19.1932 25.3775 17.9417L25.3259 17.8194C25.2744 17.6973 25.188 17.5931 25.0776 17.5199C24.9671 17.4467 24.8374 17.4077 24.7049 17.408C24.5943 17.4089 24.4855 17.437 24.3883 17.4899C24.2911 17.5428 24.2084 17.6187 24.1474 17.7111C24.0865 17.8035 24.0493 17.9095 24.039 18.0197C24.0287 18.1298 24.0456 18.2409 24.0884 18.3429L24.14 18.4639C24.6183 19.5996 25.2144 21.0116 27.0201 21.0116C27.129 21.0116 27.2423 21.0065 27.357 20.9963C28.213 20.9218 29.0473 20.6944 29.8549 20.4753L29.867 20.4715C30.2988 20.3543 30.7071 20.2435 31.1026 20.16C32.4236 19.883 33.6445 19.7441 34.7317 19.7441Z" fill="#BD967A"/>
<path d="M47.7806 35.8712C47.6773 35.8706 47.5753 35.8484 47.4811 35.8059C47.3869 35.7635 47.3027 35.7018 47.2338 35.6248C47.1649 35.5478 47.1129 35.4573 47.0811 35.3589C47.0494 35.2606 47.0386 35.1568 47.0495 35.054C47.1469 34.1789 47.0183 33.1924 46.7501 32.7612C46.6492 32.5904 46.5096 32.4456 46.3426 32.3385C46.1755 32.2315 45.9857 32.1651 45.7884 32.1446C45.5974 32.1289 45.4055 32.1588 45.2283 32.2318C45.0511 32.3047 44.8938 32.4187 44.7693 32.5644C44.7046 32.636 44.6264 32.6941 44.5392 32.7355C44.452 32.7769 44.3575 32.8006 44.2611 32.8055C44.1647 32.8103 44.0683 32.7962 43.9773 32.7637C43.8864 32.7313 43.8028 32.6813 43.7312 32.6166C43.6596 32.5519 43.6014 32.4737 43.5601 32.3864C43.5187 32.2992 43.4949 32.2047 43.4901 32.1083C43.4852 32.0119 43.4994 31.9155 43.5318 31.8246C43.5642 31.7337 43.6142 31.65 43.679 31.5784C43.9567 31.2641 44.3042 31.0192 44.6937 30.8633C45.0831 30.7073 45.5036 30.6447 45.9215 30.6804C46.3461 30.7207 46.7554 30.8599 47.1165 31.0869C47.4776 31.3138 47.7805 31.6222 48.001 31.9873C48.5449 32.8669 48.6156 34.2802 48.5105 35.219C48.4899 35.3983 48.4042 35.5637 48.2697 35.6839C48.1351 35.8042 47.9611 35.8708 47.7806 35.8712Z" fill="#BD967A"/>
<path d="M47.7806 35.9323C47.7508 35.9322 47.7211 35.9305 47.6914 35.9272C47.4821 35.9029 47.291 35.7968 47.1597 35.632C47.0284 35.4672 46.9677 35.2571 46.9908 35.0477C47.087 34.184 46.9628 33.2146 46.701 32.7917C46.605 32.6289 46.4721 32.4909 46.313 32.3887C46.154 32.2865 45.9732 32.223 45.7852 32.2032C45.6036 32.189 45.4211 32.2178 45.2528 32.2874C45.0844 32.357 44.9349 32.4655 44.8164 32.6039C44.6743 32.7586 44.4768 32.8509 44.2669 32.8606C44.057 32.8704 43.8518 32.7967 43.696 32.6558C43.5402 32.5148 43.4464 32.318 43.4351 32.1082C43.4238 31.8984 43.4958 31.6926 43.6356 31.5358C43.8921 31.2446 44.2075 31.0112 44.5609 30.8511C44.9144 30.691 45.2978 30.6079 45.6858 30.6071C45.7667 30.6071 45.8482 30.6103 45.9285 30.618C46.3628 30.659 46.7814 30.8014 47.1507 31.0337C47.5199 31.266 47.8295 31.5817 48.0545 31.9555C48.6073 32.8471 48.6793 34.2751 48.5736 35.226C48.5515 35.4207 48.4583 35.6004 48.312 35.7307C48.1657 35.861 47.9765 35.9328 47.7806 35.9323ZM45.6788 32.0765C45.7158 32.0765 45.7533 32.0765 45.7909 32.0816C45.9978 32.103 46.1968 32.1725 46.372 32.2847C46.5472 32.3968 46.6937 32.5485 46.7998 32.7274C47.0743 33.1732 47.2068 34.1738 47.1074 35.061C47.0972 35.2334 47.1535 35.403 47.2647 35.535C47.3759 35.6671 47.5336 35.7513 47.7051 35.7705C47.8767 35.7897 48.049 35.7424 48.1867 35.6382C48.3243 35.534 48.4168 35.381 48.4449 35.2107C48.5487 34.2789 48.4799 32.8835 47.9437 32.0179C47.7284 31.6606 47.4324 31.3588 47.0793 31.1368C46.7262 30.9148 46.3259 30.7788 45.9106 30.7396C45.8336 30.7326 45.7559 30.7288 45.6788 30.7288C45.3076 30.7302 44.941 30.8104 44.6032 30.9641C44.2653 31.1179 43.964 31.3416 43.719 31.6205C43.6597 31.6861 43.6139 31.7628 43.5842 31.8462C43.5545 31.9296 43.5415 32.018 43.546 32.1064C43.5504 32.1947 43.5723 32.2814 43.6102 32.3613C43.6482 32.4413 43.7015 32.513 43.7671 32.5723C43.8328 32.6317 43.9095 32.6775 43.9929 32.7072C44.0762 32.7369 44.1646 32.7499 44.253 32.7454C44.3414 32.741 44.428 32.7191 44.508 32.6812C44.588 32.6432 44.6596 32.5899 44.719 32.5242C44.8383 32.3854 44.9859 32.2737 45.1518 32.1964C45.3178 32.1192 45.4983 32.0783 45.6814 32.0765H45.6788Z" fill="#BD967A"/>
<path d="M30.2244 35.8623C30.1114 35.8623 30 35.8364 29.8987 35.7865C29.7975 35.7365 29.709 35.664 29.6403 35.5744C29.0926 34.8585 28.6378 33.8745 28.4824 33.0669C28.1952 31.5784 28.0907 29.9906 29.2594 28.4665C31.0536 26.1272 34.3916 24.6273 37.0424 26.4565C37.2029 26.5672 37.3128 26.7371 37.3479 26.9289C37.3831 27.1207 37.3407 27.3185 37.23 27.479C37.1192 27.6395 36.9493 27.7494 36.7575 27.7846C36.5658 27.8197 36.3679 27.7773 36.2074 27.6666C34.3037 26.3526 31.8077 27.5589 30.4256 29.3607C29.6531 30.3683 29.6613 31.4192 29.9256 32.7892C30.0205 33.2815 30.3301 34.0566 30.8078 34.6802C30.8909 34.7891 30.942 34.9191 30.9553 35.0555C30.9685 35.1919 30.9434 35.3293 30.8828 35.4522C30.8221 35.5751 30.7283 35.6786 30.612 35.7511C30.4957 35.8235 30.3614 35.862 30.2244 35.8623Z" fill="#BD967A"/>
<path d="M30.2243 35.9215C30.102 35.9218 29.9812 35.8939 29.8715 35.8397C29.7617 35.7856 29.666 35.7067 29.5919 35.6094C29.0384 34.8872 28.5798 33.8898 28.4225 33.0771C28.1321 31.5734 28.0276 29.9703 29.211 28.4277C30.5587 26.6705 32.5618 25.5788 34.4381 25.5788C35.3823 25.5754 36.3043 25.8647 37.0774 26.4068C37.2512 26.5267 37.3703 26.7108 37.4084 26.9185C37.4465 27.1262 37.4005 27.3405 37.2806 27.5144C37.1606 27.6882 36.9766 27.8072 36.7689 27.8453C36.5612 27.8834 36.3468 27.8375 36.173 27.7175C35.6591 27.3598 35.047 27.17 34.4209 27.1743C33.0598 27.1743 31.5109 28.0475 30.4721 29.399C29.7135 30.3881 29.7231 31.425 29.9836 32.7746C30.0772 33.2599 30.3823 34.0248 30.8542 34.6407C30.9445 34.7586 31 34.8994 31.0145 35.0472C31.0289 35.195 31.0018 35.3439 30.9361 35.4771C30.8703 35.6102 30.7687 35.7224 30.6426 35.8008C30.5164 35.8792 30.3709 35.9208 30.2224 35.9209L30.2243 35.9215ZM34.4381 25.6998C32.5993 25.6998 30.6332 26.7736 29.3072 28.5022C28.1537 30.0066 28.2582 31.5791 28.5429 33.0542C28.697 33.8535 29.1467 34.8273 29.6893 35.5381C29.7425 35.61 29.8094 35.6706 29.8863 35.7164C29.9631 35.7622 30.0483 35.7922 30.1369 35.8047C30.2254 35.8173 30.3156 35.812 30.4021 35.7893C30.4886 35.7667 30.5698 35.727 30.6408 35.6726C30.7118 35.6182 30.7713 35.5503 30.8158 35.4727C30.8603 35.3951 30.8888 35.3094 30.8999 35.2207C30.9109 35.1319 30.9042 35.0418 30.88 34.9557C30.8559 34.8696 30.8149 34.7891 30.7593 34.719C30.2759 34.0872 29.9625 33.3006 29.8676 32.8019C29.6001 31.4154 29.5925 30.3505 30.3772 29.3251C31.4357 27.9443 33.0235 27.0526 34.4209 27.0526C35.0719 27.048 35.7083 27.2453 36.2424 27.6175C36.3896 27.7135 36.5685 27.7482 36.741 27.7142C36.9134 27.6801 37.0657 27.5801 37.1654 27.4353C37.2651 27.2906 37.3043 27.1127 37.2747 26.9394C37.245 26.7662 37.1489 26.6114 37.0067 26.5081C36.2544 25.9804 35.357 25.6987 34.4381 25.7017V25.6998Z" fill="#BD967A"/>
<path d="M23.3177 35.1145C23.1333 35.1143 22.9556 35.0447 22.8202 34.9195C22.6847 34.7943 22.6013 34.6227 22.5866 34.4388C22.5709 34.2157 22.5208 33.9963 22.4382 33.7885C22.1981 33.2389 21.6198 32.8332 21.0077 32.4083C20.7816 32.251 20.5478 32.0899 20.3256 31.9128C19.2467 31.0792 18.3883 29.9942 17.8251 28.7525C17.5136 28.0812 17.1971 27.3577 17.0417 26.5475C16.9614 26.1291 17.0118 25.7692 17.0563 25.4521C17.092 25.1941 17.12 24.9909 17.0799 24.7859C17.0422 24.5946 17.0821 24.3961 17.1907 24.2342C17.2994 24.0723 17.4679 23.9602 17.6592 23.9225C17.8505 23.8849 18.0489 23.9247 18.2108 24.0334C18.3727 24.142 18.4848 24.3105 18.5225 24.5018C18.6104 24.9476 18.5562 25.3406 18.5123 25.6552C18.4785 25.8992 18.4486 26.0915 18.4856 26.2705C18.6091 26.9169 18.8862 27.5443 19.1594 28.1341C19.6233 29.1672 20.3365 30.0688 21.2351 30.7581C21.4261 30.9065 21.6306 31.0505 21.849 31.204C22.5656 31.7046 23.3776 32.2714 23.7859 33.2013C23.9327 33.5582 24.0224 33.9361 24.0515 34.321C24.0673 34.5152 24.0054 34.7078 23.8792 34.8564C23.7531 35.005 23.5731 35.0974 23.3789 35.1133C23.3585 35.1139 23.3381 35.1145 23.3177 35.1145Z" fill="#BD967A"/>
<path d="M23.3178 35.1757C23.1182 35.1745 22.9263 35.0988 22.7797 34.9634C22.6331 34.828 22.5424 34.6427 22.5254 34.4439C22.5106 34.2273 22.4622 34.0144 22.3821 33.8127C22.149 33.279 21.5777 32.8803 20.9727 32.4586C20.7447 32.2994 20.5109 32.1364 20.288 31.9612C19.2012 31.1213 18.3368 30.0279 17.7703 28.7767C17.457 28.1022 17.1379 27.3755 16.9818 26.5577C16.8997 26.1297 16.9506 25.7642 16.9958 25.4419C17.0309 25.1871 17.0595 24.991 17.02 24.7967C16.9792 24.5895 17.0223 24.3746 17.1398 24.1992C17.2574 24.0238 17.4399 23.9023 17.6471 23.8614C17.8542 23.8205 18.0692 23.8636 18.2446 23.9812C18.42 24.0988 18.5415 24.2813 18.5824 24.4884C18.6728 24.9476 18.6174 25.3438 18.5728 25.6623C18.5391 25.9011 18.5129 26.089 18.5454 26.2578C18.6677 26.8947 18.9429 27.522 19.2148 28.1048C19.6739 29.1305 20.3811 30.0257 21.2727 30.7097C21.458 30.8562 21.6618 30.9982 21.8777 31.1485C22.607 31.6581 23.4273 32.2313 23.8407 33.1752C23.9906 33.5383 24.0822 33.9228 24.112 34.3146C24.1287 34.5251 24.0614 34.7336 23.9247 34.8945C23.788 35.0554 23.5931 35.1556 23.3827 35.1731C23.3617 35.1744 23.3401 35.1757 23.3178 35.1757ZM17.8028 23.9694C17.7585 23.9696 17.7144 23.9741 17.671 23.9827C17.4954 24.0175 17.3408 24.1206 17.2412 24.2693C17.1416 24.4179 17.1051 24.6001 17.1398 24.7757C17.1824 24.9897 17.1538 25.1967 17.1168 25.4591C17.0729 25.7775 17.0232 26.1291 17.1022 26.5374C17.2557 27.3411 17.571 28.0602 17.8805 28.7277C18.44 29.9609 19.2928 31.0384 20.3644 31.8663C20.5848 32.0396 20.8173 32.2013 21.0421 32.3587C21.6624 32.7917 22.2478 33.2 22.4949 33.7649C22.5798 33.9794 22.6313 34.2056 22.6477 34.4356C22.6623 34.6138 22.747 34.7789 22.8833 34.8947C23.0196 35.0104 23.1962 35.0673 23.3744 35.0528C23.5527 35.0382 23.7178 34.9535 23.8335 34.8172C23.9493 34.6809 24.0061 34.5043 23.9916 34.3261C23.9628 33.9477 23.8745 33.5763 23.7298 33.2255C23.3305 32.3122 22.5254 31.7498 21.8147 31.2543C21.5917 31.0989 21.386 30.9556 21.1981 30.8084C20.2923 30.1125 19.5737 29.2022 19.1072 28.1596C18.832 27.5679 18.5537 26.9354 18.4289 26.282C18.3926 26.0909 18.42 25.8998 18.4543 25.6482C18.4983 25.3374 18.5518 24.9521 18.4658 24.5139C18.4354 24.3604 18.3527 24.2222 18.2318 24.1229C18.1109 24.0236 17.9593 23.9693 17.8028 23.9694Z" fill="#BD967A"/>
<path d="M27.1487 35.412C27.0255 35.4118 26.9042 35.3807 26.7962 35.3214C26.6881 35.2622 26.5966 35.1768 26.5302 35.073C26.4638 34.9692 26.4244 34.8504 26.4159 34.7274C26.4073 34.6045 26.4298 34.4814 26.4812 34.3694C26.6705 33.9583 26.8328 33.5353 26.9672 33.1032C27.0621 32.7981 27.1194 32.1039 27.0449 31.5109C27.0265 31.3204 27.0831 31.1302 27.2027 30.9807C27.3223 30.8313 27.4955 30.7343 27.6854 30.7105C27.8753 30.6866 28.067 30.7377 28.2199 30.8529C28.3727 30.9681 28.4747 31.1383 28.504 31.3275C28.5977 32.0765 28.5429 32.9835 28.3709 33.5376C28.2172 34.0301 28.0319 34.5121 27.8162 34.9808C27.758 35.1091 27.6642 35.218 27.5458 35.2945C27.4275 35.3709 27.2896 35.4117 27.1487 35.412Z" fill="#BD967A"/>
<path d="M27.1487 35.4757C27.0153 35.4755 26.884 35.4417 26.7669 35.3776C26.6499 35.3134 26.5509 35.2209 26.4789 35.1085C26.4069 34.9961 26.3644 34.8674 26.3551 34.7342C26.3458 34.6011 26.3702 34.4677 26.4258 34.3464C26.6136 33.9377 26.7748 33.5173 26.9086 33.0879C27.0022 32.7886 27.0577 32.1058 26.9844 31.5237C26.9714 31.4199 26.979 31.3146 27.0066 31.2138C27.0343 31.113 27.0816 31.0186 27.1458 30.936C27.2754 30.7693 27.4659 30.6608 27.6754 30.6346C27.885 30.6083 28.0964 30.6663 28.2631 30.7959C28.3457 30.8601 28.4148 30.9399 28.4665 31.0308C28.5182 31.1217 28.5516 31.2218 28.5646 31.3256C28.6595 32.0829 28.6034 33.0019 28.4289 33.5611C28.2749 34.0563 28.089 34.5409 27.8722 35.012C27.8084 35.1502 27.7064 35.2673 27.5782 35.3494C27.45 35.4316 27.301 35.4754 27.1487 35.4757ZM27.7767 30.7505C27.748 30.7505 27.7192 30.7524 27.6907 30.7562C27.5134 30.7786 27.3523 30.8705 27.2426 31.0117C27.133 31.1528 27.0839 31.3317 27.1061 31.509C27.1806 32.1071 27.1226 32.8128 27.0258 33.1242C26.8906 33.559 26.7272 33.9845 26.5367 34.398C26.4997 34.4784 26.4789 34.5654 26.4754 34.6538C26.472 34.7423 26.4861 34.8306 26.5167 34.9136C26.5474 34.9966 26.5942 35.0728 26.6543 35.1378C26.7145 35.2027 26.7868 35.2552 26.8672 35.2922C26.9476 35.3293 27.0346 35.3501 27.123 35.3535C27.2115 35.3569 27.2997 35.3429 27.3828 35.3122C27.4658 35.2815 27.542 35.2347 27.607 35.1746C27.6719 35.1144 27.7244 35.0421 27.7614 34.9617C27.9757 34.4953 28.1597 34.0155 28.3123 33.5255C28.4818 32.9809 28.5359 32.0829 28.4429 31.3415C28.4235 31.1783 28.345 31.0278 28.2223 30.9185C28.0996 30.8092 27.9411 30.7485 27.7767 30.7479V30.7505Z" fill="#BD967A"/>
<path d="M33.7069 50.3792C33.0489 50.374 32.394 50.2885 31.7567 50.1245C31.4313 50.043 30.5823 49.7595 28.9843 49.2233C25.9488 48.2042 18.8416 45.8171 17.8015 45.9617C17.1372 46.054 16.3194 46.3126 15.3717 46.7298C15.1929 46.8088 14.9901 46.8135 14.8078 46.7429C14.6255 46.6723 14.4788 46.5322 14.3998 46.3534C14.3208 46.1746 14.3161 45.9717 14.3867 45.7895C14.4573 45.6072 14.5974 45.4604 14.7762 45.3815C15.8494 44.9095 16.7984 44.6172 17.5977 44.5032C18.748 44.3439 22.8146 45.6012 29.4499 47.8272C30.7237 48.2552 31.8268 48.6246 32.1108 48.6959C33.3846 49.0144 34.1585 48.887 34.2725 48.8672C36.166 48.2705 38.2302 46.4757 41.0823 43.9955C42.4707 42.7854 44.0445 41.4193 45.903 39.9194C46.8239 39.1761 47.6366 38.5264 48.3067 37.9914C49.1684 37.3023 49.9257 36.6973 50.1836 36.4718C50.1957 36.3542 50.1649 36.2361 50.097 36.1393C49.9059 35.8737 49.3964 35.7298 48.7034 35.7413C47.243 35.7674 42.3051 38.8551 38.1818 41.8918C36.8443 42.8791 36.1061 43.5988 36.0998 43.6058C36.0311 43.6736 35.9497 43.7272 35.8602 43.7636C35.7708 43.8 35.6751 43.8184 35.5785 43.8178C35.482 43.8171 35.3865 43.7975 35.2975 43.76C35.2085 43.7225 35.1278 43.6678 35.06 43.5991C34.9922 43.5304 34.9386 43.449 34.9022 43.3595C34.8658 43.2701 34.8474 43.1744 34.848 43.0778C34.8486 42.9813 34.8683 42.8858 34.9058 42.7968C34.9433 42.7079 34.998 42.6272 35.0667 42.5593C35.0992 42.5275 35.8749 41.7651 37.3099 40.7085C39.348 39.2098 46.1788 34.3165 48.6767 34.2719H48.7863C50.6333 34.2719 51.2791 35.1349 51.5007 35.6559C51.7701 36.2928 51.6823 37.0571 51.2957 37.4456C51.1046 37.6367 50.5237 38.1023 49.2244 39.1411C48.5557 39.6754 47.7455 40.3225 46.8259 41.0645C44.989 42.5472 43.4254 43.907 42.0491 45.1057C39.0474 47.717 36.8781 49.6029 34.6801 50.2824L34.6457 50.292C34.3373 50.3579 34.0222 50.3872 33.7069 50.3792Z" fill="#463B32"/>
<path d="M33.7069 50.4429C33.0438 50.4357 32.384 50.3478 31.7421 50.1812C31.4128 50.099 30.5638 49.815 28.9652 49.2787L28.9015 49.257C26.0099 48.287 19.2377 46.0145 17.9111 46.0145C17.8781 46.0141 17.8451 46.0158 17.8123 46.0196C17.1531 46.1114 16.3411 46.368 15.3985 46.7839C15.2063 46.8625 14.991 46.863 14.7985 46.7852C14.6059 46.7075 14.4513 46.5576 14.3677 46.3676C14.284 46.1775 14.2778 45.9623 14.3504 45.7678C14.423 45.5733 14.5687 45.4148 14.7565 45.326C15.8341 44.8522 16.7888 44.5548 17.5932 44.4433C18.7613 44.2802 22.7808 45.526 29.4734 47.7699C30.753 48.1991 31.8491 48.5666 32.1299 48.6373C32.6457 48.7718 33.1759 48.843 33.7088 48.8494C33.8953 48.8527 34.0816 48.8388 34.2655 48.808C36.1405 48.2163 38.1984 46.4266 41.046 43.9497C42.4382 42.7396 44.0114 41.3715 45.8686 39.8735C46.7902 39.1302 47.6029 38.4812 48.2729 37.9456C49.1206 37.2679 49.8556 36.6807 50.1288 36.4438C50.1338 36.3487 50.1067 36.2547 50.0518 36.1769C49.876 35.9304 49.3862 35.7948 48.7086 35.8043C47.2615 35.8304 42.3395 38.9124 38.2219 41.9428C36.8876 42.9262 36.1539 43.644 36.1463 43.651C35.9952 43.7953 35.7935 43.8745 35.5846 43.8715C35.3757 43.8684 35.1764 43.7834 35.0296 43.6347C34.8828 43.486 34.8004 43.2856 34.8001 43.0767C34.7997 42.8678 34.8815 42.6671 35.0279 42.5179C35.0603 42.4854 35.8418 41.7186 37.278 40.6607C39.3161 39.1595 46.1635 34.2579 48.6786 34.2127C50.6473 34.1757 51.3307 35.0916 51.56 35.633C51.8389 36.2884 51.7453 37.087 51.3422 37.4896C51.1511 37.6806 50.5677 38.1488 49.2652 39.1888C48.5965 39.7238 47.787 40.3709 46.8679 41.1129C45.0336 42.5931 43.4719 43.951 42.0949 45.1483C39.0824 47.7679 36.9099 49.6576 34.6992 50.341L34.661 50.3519C34.3477 50.4196 34.0274 50.4502 33.7069 50.4429ZM17.9117 45.8923C19.2581 45.8923 25.7985 48.0864 28.941 49.1405L29.0047 49.1621C30.6001 49.6978 31.4478 49.9812 31.772 50.0621C32.4044 50.2261 33.0543 50.3127 33.7076 50.32C34.0178 50.327 34.3278 50.2971 34.6311 50.2309L34.6629 50.2219C36.8488 49.5462 39.0136 47.6635 42.0096 45.0579C43.3923 43.8554 44.9546 42.4969 46.7908 41.0148C47.7099 40.2735 48.5207 39.6257 49.1894 39.0914C50.4881 38.0532 51.0696 37.587 51.2562 37.4004C51.6256 37.031 51.7077 36.2903 51.4472 35.6807C51.2288 35.1674 50.5823 34.2993 48.6805 34.3343C46.2004 34.3789 39.3817 39.2633 37.3487 40.7594C35.9195 41.8122 35.1444 42.5727 35.1119 42.6065C34.9913 42.7334 34.9247 42.9023 34.9265 43.0774C34.9282 43.2525 34.998 43.42 35.1211 43.5445C35.2442 43.6691 35.411 43.7408 35.586 43.7445C35.7611 43.7482 35.9307 43.6836 36.059 43.5644C36.0654 43.558 36.8035 42.8351 38.1474 41.8447C42.279 38.8022 47.2316 35.7088 48.7047 35.682C49.4308 35.6699 49.9467 35.8215 50.1492 36.1056C50.2262 36.2144 50.2608 36.3475 50.2467 36.4801C50.2449 36.4953 50.2376 36.5093 50.2263 36.5196C49.9664 36.7469 49.2162 37.3475 48.3474 38.0411C47.6768 38.5761 46.8647 39.2251 45.9438 39.969C44.0878 41.4664 42.5159 42.8351 41.1281 44.0401C38.2621 46.5304 36.1991 48.3265 34.2935 48.9277C34.0998 48.9612 33.9034 48.9763 33.7069 48.973C33.1644 48.9655 32.6249 48.8924 32.1 48.7551C31.814 48.6838 30.7154 48.315 29.4441 47.8883C23.2993 45.8267 19.2167 44.5509 17.8257 44.5509C17.7535 44.5504 17.6814 44.5547 17.6098 44.5637C16.8156 44.6739 15.8723 44.9681 14.8074 45.4375C14.6662 45.5001 14.5508 45.6094 14.4805 45.7469C14.4101 45.8844 14.3891 46.0419 14.421 46.1931C14.4528 46.3442 14.5356 46.4799 14.6554 46.5773C14.7753 46.6748 14.9249 46.7281 15.0794 46.7285C15.1728 46.7286 15.2653 46.7091 15.3507 46.6712C16.3061 46.2515 17.127 45.9916 17.7971 45.8986C17.8342 45.8941 17.8717 45.892 17.9091 45.8923H17.9117Z" fill="#463B32"/>
<path d="M13.2897 47.8182C12.9075 47.8182 12.6948 47.4998 12.6834 47.4794C12.6439 47.4157 12.3171 46.8622 12.984 46.4069C13.0673 46.3544 13.1603 46.319 13.2574 46.3028C13.3546 46.2866 13.454 46.2899 13.5499 46.3125C13.6458 46.3351 13.7362 46.3766 13.8158 46.4346C13.8955 46.4925 13.9628 46.5657 14.0139 46.6499C14.065 46.7341 14.0988 46.8277 14.1133 46.9251C14.1279 47.0225 14.1229 47.1219 14.0986 47.2174C14.0744 47.3128 14.0313 47.4025 13.9721 47.4812C13.9128 47.5598 13.8384 47.6259 13.7534 47.6756C13.6147 47.7644 13.4543 47.8137 13.2897 47.8182Z" fill="#463B32"/>
<path d="M13.2897 47.8794C12.8795 47.8794 12.656 47.5501 12.6318 47.5125C12.5891 47.445 12.2362 46.8438 12.9502 46.3559C13.1046 46.2508 13.291 46.2033 13.4769 46.2216C13.6628 46.24 13.8363 46.3231 13.9672 46.4563C14.098 46.5896 14.1779 46.7646 14.1928 46.9508C14.2078 47.137 14.1568 47.3225 14.0489 47.475C13.9826 47.5795 13.8925 47.6668 13.7858 47.7297C13.6371 47.8237 13.4656 47.8754 13.2897 47.8794ZM13.398 46.3393C13.2615 46.3387 13.1282 46.3798 13.0158 46.4572C12.4133 46.8712 12.6744 47.3539 12.7381 47.4495C12.7458 47.4616 12.9413 47.7597 13.2929 47.7597C13.4464 47.7546 13.5958 47.7084 13.7253 47.6259C13.8161 47.5721 13.8929 47.4977 13.9495 47.4087C14.0216 47.3079 14.0645 47.1892 14.0736 47.0656C14.0826 46.942 14.0574 46.8183 14.0008 46.708C13.9441 46.5978 13.8582 46.5053 13.7524 46.4407C13.6466 46.3761 13.5251 46.3419 13.4011 46.3419L13.398 46.3393Z" fill="#463B32"/>
<path d="M33.863 41.5594C31.0994 41.5594 27.9398 41.432 26.9908 41.3944C26.8943 41.3902 26.7997 41.3671 26.7122 41.3263C26.6247 41.2856 26.5461 41.228 26.4808 41.1568C26.4156 41.0857 26.365 41.0024 26.332 40.9117C26.2989 40.821 26.2841 40.7247 26.2883 40.6282C26.2924 40.5318 26.3156 40.4371 26.3563 40.3496C26.3971 40.2621 26.4547 40.1835 26.5259 40.1183C26.597 40.0531 26.6803 40.0025 26.771 39.9694C26.8617 39.9364 26.958 39.9215 27.0545 39.9257C30.9822 40.0926 36.8978 40.1945 37.7544 39.8977C38.2461 39.7276 38.5397 39.2073 38.5397 38.5061C38.5397 37.9163 37.8392 37.5679 37.5296 37.4424C36.5959 37.1361 24.2502 35.0146 21.8096 35.5878C20.6275 35.8648 17.1888 37.3182 14.4941 38.5519C14.4063 38.5921 14.3114 38.6145 14.2149 38.618C14.1184 38.6215 14.0221 38.6059 13.9317 38.5722C13.8412 38.5385 13.7582 38.4873 13.6875 38.4215C13.6168 38.3558 13.5598 38.2767 13.5196 38.1889C13.4795 38.1011 13.457 38.0062 13.4535 37.9097C13.45 37.8132 13.4656 37.717 13.4993 37.6265C13.533 37.536 13.5842 37.453 13.65 37.3823C13.7158 37.3116 13.7948 37.2546 13.8826 37.2144C14.4686 36.9463 19.6625 34.5808 21.4739 34.1573C24.389 33.4739 37.2347 35.7419 38.0665 36.0744C39.3015 36.5686 40.0097 37.4552 40.0097 38.5067C40.0097 39.8442 39.3301 40.9085 38.2359 41.2874C37.6334 41.4944 35.852 41.5594 33.863 41.5594Z" fill="#463B32"/>
<path d="M33.863 41.6205C31.0867 41.6205 27.8984 41.4931 26.9882 41.4549C26.7771 41.4465 26.5779 41.3545 26.4346 41.1992C26.2913 41.0439 26.2155 40.8381 26.2239 40.6269C26.2324 40.4158 26.3244 40.2167 26.4796 40.0733C26.6349 39.93 26.8408 39.8542 27.0519 39.8627C29.3906 39.962 32.065 40.0238 34.0317 40.0238C36.1004 40.0238 37.3787 39.9601 37.7258 39.8385C38.1914 39.6767 38.4691 39.178 38.4691 38.5041C38.4691 37.9494 37.7901 37.6125 37.4978 37.4966C36.6602 37.2227 26.9315 35.5489 23.0432 35.5489C22.5 35.5489 22.0879 35.5814 21.8146 35.6451C20.6357 35.9215 17.2022 37.3736 14.5106 38.6054C14.4069 38.6535 14.2938 38.6783 14.1794 38.678C13.9976 38.6783 13.8212 38.6162 13.6795 38.5023C13.5378 38.3883 13.4394 38.2293 13.4006 38.0517C13.3618 37.874 13.385 37.6884 13.4663 37.5258C13.5477 37.3632 13.6822 37.2333 13.8476 37.1577C14.4348 36.889 19.6326 34.5216 21.451 34.0949C21.8166 34.0089 22.3554 33.9675 23.0522 33.9675C27.5774 33.9675 37.3551 35.7272 38.0831 36.017C39.3422 36.5208 40.0645 37.4284 40.0645 38.5061C40.0645 39.869 39.3696 40.9569 38.2506 41.3447C37.7251 41.5263 36.2482 41.6205 33.863 41.6205ZM27.0232 39.9862C26.847 39.986 26.6777 40.0549 26.5517 40.1781C26.4256 40.3013 26.3528 40.4689 26.3489 40.6451C26.345 40.8213 26.4103 40.992 26.5307 41.1206C26.6512 41.2493 26.8172 41.3256 26.9933 41.3333C27.9035 41.3715 31.0886 41.4982 33.863 41.4982C36.2342 41.4982 37.6978 41.4078 38.2124 41.2288C39.2811 40.8588 39.9441 39.8155 39.9441 38.5061C39.9441 37.4806 39.2505 36.6145 38.0398 36.1304C37.3175 35.8419 27.5716 34.0923 23.0572 34.0923C22.37 34.0923 21.8408 34.135 21.4841 34.2197C19.6772 34.6432 14.4896 37.0068 13.9049 37.2768C13.7653 37.3411 13.6518 37.4511 13.5833 37.5887C13.5147 37.7263 13.4952 37.8831 13.528 38.0333C13.5607 38.1835 13.6438 38.318 13.7634 38.4145C13.8831 38.511 14.0321 38.5638 14.1858 38.564C14.2827 38.5635 14.3784 38.5417 14.4661 38.5003C17.1633 37.2654 20.6064 35.81 21.7904 35.5317C22.0713 35.468 22.4942 35.4324 23.0471 35.4324C26.9443 35.4324 36.6991 37.1112 37.543 37.3877C37.8614 37.515 38.5952 37.8813 38.5952 38.5099C38.5952 39.2385 38.2863 39.7805 37.7672 39.9595C37.3997 40.0869 36.1431 40.1505 34.0311 40.1505C32.0631 40.1505 29.3862 40.0868 27.0468 39.9888L27.0232 39.9862Z" fill="#463B32"/>
<path d="M12.2726 39.5226C12.1192 39.5245 11.969 39.4787 11.8428 39.3914C11.7167 39.304 11.6209 39.1796 11.5688 39.0353C11.5452 38.9716 11.358 38.385 12.0344 38.0723C12.122 38.0318 12.2167 38.0089 12.3132 38.005C12.4096 38.0011 12.5059 38.0162 12.5965 38.0495C12.6871 38.0828 12.7703 38.1336 12.8412 38.1991C12.9122 38.2645 12.9696 38.3433 13.0101 38.4309C13.0383 38.4932 13.0582 38.5589 13.0693 38.6264C13.1076 38.8108 13.0737 39.0028 12.9745 39.1628C12.8753 39.3228 12.7184 39.4386 12.5362 39.4863C12.4502 39.5095 12.3616 39.5217 12.2726 39.5226Z" fill="#463B32"/>
<path d="M12.2726 39.5837C12.1061 39.5865 11.9429 39.5372 11.8058 39.4426C11.6688 39.3481 11.5647 39.213 11.5083 39.0563C11.4828 38.985 11.2802 38.3519 12.0057 38.0169C12.1102 37.9682 12.2241 37.943 12.3394 37.943C12.535 37.9468 12.7228 38.0207 12.8686 38.1511C13.0144 38.2816 13.1085 38.4601 13.1339 38.6541C13.1592 38.8481 13.1141 39.0447 13.0068 39.2083C12.8995 39.3719 12.737 39.4915 12.549 39.5455C12.4588 39.5699 12.3659 39.5828 12.2726 39.5837ZM12.342 38.0647C12.2444 38.0648 12.148 38.0866 12.0598 38.1284C11.4331 38.4182 11.6044 38.9564 11.6261 39.0156C11.6741 39.1479 11.7621 39.262 11.878 39.3419C11.9939 39.4218 12.1318 39.4636 12.2726 39.4614C12.3565 39.4607 12.44 39.4491 12.5209 39.427C12.688 39.3834 12.8319 39.2772 12.9229 39.1305C13.0138 38.9837 13.0448 38.8075 13.0095 38.6385C12.9996 38.5756 12.9811 38.5143 12.9547 38.4564C12.9003 38.3397 12.8138 38.2409 12.7053 38.1715C12.5968 38.1021 12.4708 38.0651 12.342 38.0647Z" fill="#463B32"/>
<path d="M35.4839 43.7166C35.3294 43.7167 35.1789 43.6679 35.054 43.5771C34.3317 43.0548 32.3841 42.0078 31.2644 41.539C31.1753 41.5018 31.0944 41.4474 31.0264 41.3789C30.9583 41.3104 30.9044 41.2292 30.8678 41.1399C30.7937 40.9596 30.7943 40.7572 30.8695 40.5773C30.9447 40.3974 31.0882 40.2547 31.2686 40.1807C31.4489 40.1066 31.6513 40.1072 31.8312 40.1824C32.9388 40.6454 35.0412 41.753 35.9151 42.3854C36.041 42.4765 36.1348 42.6051 36.183 42.7528C36.2312 42.9005 36.2314 43.0597 36.1835 43.2075C36.1356 43.3554 36.0421 43.4842 35.9164 43.5755C35.7907 43.6669 35.6393 43.7167 35.4839 43.7166Z" fill="#463B32"/>
<path d="M35.4839 43.7777C35.3166 43.7779 35.1536 43.7251 35.0183 43.6268C34.2986 43.1058 32.3567 42.0625 31.2408 41.5963C31.1442 41.556 31.0565 41.4971 30.9827 41.4228C30.9089 41.3486 30.8504 41.2606 30.8106 41.1638C30.7708 41.067 30.7504 40.9633 30.7507 40.8586C30.751 40.7539 30.7719 40.6503 30.8122 40.5537C30.8525 40.4571 30.9115 40.3694 30.9857 40.2956C31.0599 40.2217 31.1479 40.1633 31.2447 40.1235C31.3416 40.0837 31.4453 40.0633 31.5499 40.0636C31.6546 40.0639 31.7582 40.0848 31.8548 40.1251C32.9656 40.5894 35.0744 41.7001 35.9514 42.3345C36.0878 42.4331 36.1895 42.5725 36.2417 42.7326C36.294 42.8926 36.2942 43.0651 36.2422 43.2253C36.1903 43.3855 36.0889 43.525 35.9526 43.6239C35.8164 43.7229 35.6523 43.776 35.4839 43.7758V43.7777ZM31.5478 40.1888C31.3919 40.1885 31.2407 40.2423 31.12 40.341C30.9993 40.4397 30.9165 40.5773 30.8859 40.7301C30.8552 40.883 30.8785 41.0418 30.9519 41.1795C31.0252 41.3171 31.144 41.425 31.288 41.4849C32.4096 41.9536 34.3642 43.0045 35.0896 43.5287C35.1614 43.5805 35.2426 43.6178 35.3287 43.6382C35.4148 43.6587 35.5041 43.662 35.5915 43.6479C35.6789 43.6339 35.7626 43.6028 35.838 43.5564C35.9133 43.5099 35.9788 43.4491 36.0307 43.3774C36.0825 43.3057 36.1197 43.2245 36.1402 43.1384C36.1607 43.0522 36.164 42.963 36.1499 42.8756C36.1359 42.7882 36.1048 42.7044 36.0583 42.6291C36.0119 42.5537 35.9511 42.4882 35.8794 42.4364C35.0088 41.8071 32.9127 40.7027 31.8077 40.241C31.7254 40.2064 31.6371 40.1886 31.5478 40.1888Z" fill="#463B32"/>
<path d="M44.8221 19.4473C44.6625 19.4475 44.5072 19.3958 44.3796 19.2999C44.252 19.204 44.1591 19.0691 44.1149 18.9157C44.0708 18.7624 44.0777 18.5988 44.1348 18.4497C44.1918 18.3006 44.2958 18.1742 44.4311 18.0894C45.6265 17.3404 48.4245 15.5864 48.5391 13.4865C48.5939 12.4879 47.7277 11.4434 46.7908 11.3778C46.5131 11.3586 46.2749 11.3809 46.1361 11.4414C45.6902 11.6325 45.3215 11.9433 45.2763 12.0656C45.251 12.1601 45.2072 12.2486 45.1474 12.3259C45.0876 12.4032 45.0129 12.4678 44.9278 12.5159C44.8427 12.564 44.7488 12.5947 44.6517 12.6061C44.5546 12.6174 44.4562 12.6093 44.3623 12.5822C44.2683 12.5551 44.1808 12.5095 44.1047 12.4481C44.0286 12.3867 43.9655 12.3108 43.9191 12.2247C43.8727 12.1387 43.844 12.0442 43.8346 11.9469C43.8251 11.8496 43.8352 11.7514 43.8642 11.658C44.1279 10.7383 45.3247 10.1893 45.5622 10.088C45.9227 9.93516 46.3698 9.87657 46.8934 9.91287C48.6213 10.0339 50.1053 11.7765 50.0065 13.5681C49.8696 16.0896 47.5054 17.899 45.2113 19.3365C45.0947 19.4097 44.9598 19.4481 44.8221 19.4473Z" fill="#463B32"/>
<path d="M44.8222 19.5085C44.6493 19.5086 44.4812 19.4525 44.3431 19.3486C44.2049 19.2447 44.1044 19.0987 44.0565 18.9327C44.0087 18.7666 44.0162 18.5895 44.0779 18.4281C44.1396 18.2666 44.2522 18.1297 44.3986 18.0379C45.5858 17.294 48.3652 15.5539 48.478 13.4827C48.5308 12.5146 47.6933 11.5019 46.7864 11.4389C46.5195 11.4198 46.2877 11.4421 46.1603 11.4962C45.7189 11.6835 45.3699 11.9879 45.3323 12.0847C45.2841 12.2501 45.1835 12.3953 45.0457 12.4987C44.9079 12.6021 44.7403 12.6579 44.568 12.6579C44.4937 12.6579 44.4198 12.6476 44.3483 12.6274C44.1454 12.5686 43.9741 12.4318 43.8718 12.2471C43.7696 12.0623 43.7446 11.8445 43.8025 11.6414C44.0744 10.695 45.2941 10.1345 45.5355 10.032C45.9042 9.87593 46.3635 9.81479 46.8946 9.85236C48.6538 9.97529 50.1651 11.7478 50.0651 13.5719C49.9263 16.1195 47.5487 17.9423 45.2419 19.3887C45.1159 19.4672 44.9705 19.5086 44.8222 19.5085ZM46.6055 11.3096C46.6692 11.3096 46.7329 11.3096 46.7965 11.3166C47.764 11.3841 48.6576 12.463 48.6009 13.4897C48.485 15.6221 45.6711 17.3869 44.4648 18.1391C44.3134 18.2341 44.2059 18.3853 44.1659 18.5595C44.126 18.7337 44.1569 18.9166 44.2518 19.0681C44.3467 19.2195 44.4979 19.327 44.6721 19.367C44.8463 19.4069 45.0293 19.376 45.1807 19.2811C47.4615 17.8519 49.811 16.0539 49.9473 13.5611C50.0435 11.8007 48.5869 10.0887 46.8902 9.97019C46.3806 9.93452 45.9348 9.99248 45.5871 10.1409C45.3546 10.2396 44.1802 10.7778 43.9241 11.6695C43.8996 11.7546 43.8921 11.8438 43.902 11.9319C43.9119 12.02 43.9392 12.1052 43.9821 12.1828C44.0407 12.2879 44.1262 12.3754 44.2299 12.4365C44.3335 12.4977 44.4515 12.5301 44.5718 12.5305C44.7178 12.53 44.8598 12.4823 44.9764 12.3945C45.093 12.3067 45.1781 12.1835 45.2189 12.0433C45.2769 11.8854 45.6794 11.5644 46.1106 11.3797C46.2688 11.3252 46.4359 11.3015 46.6029 11.3096H46.6055Z" fill="#463B32"/>
<path d="M44.5362 19.4473C44.3984 19.4474 44.2635 19.4083 44.1471 19.3346C42.3414 18.2028 39.3187 16.3093 39.1677 13.5668C39.0696 11.7739 40.5543 10.032 42.2822 9.91096C42.8051 9.87466 43.2522 9.93389 43.6127 10.0861C43.8503 10.1874 45.0477 10.7364 45.3113 11.6561C45.3597 11.8416 45.3337 12.0386 45.2389 12.2052C45.1441 12.3718 44.9879 12.4947 44.8037 12.5478C44.6195 12.6009 44.4219 12.5799 44.2529 12.4894C44.084 12.3988 43.9571 12.2458 43.8993 12.0631C43.8528 11.9401 43.4872 11.63 43.0382 11.4395C42.9 11.3809 42.6624 11.3586 42.3847 11.3758C41.4478 11.4395 40.581 12.486 40.6358 13.4846C40.7447 15.466 43.363 17.1067 44.9273 18.0875C45.0626 18.1723 45.1666 18.2987 45.2236 18.4478C45.2806 18.5969 45.2876 18.7605 45.2434 18.9138C45.1992 19.0672 45.1063 19.202 44.9788 19.298C44.8512 19.3939 44.6958 19.4456 44.5362 19.4454V19.4473Z" fill="#463B32"/>
<path d="M44.5362 19.5085C44.387 19.5085 44.2409 19.4663 44.1146 19.3868C42.2988 18.2487 39.2595 16.3437 39.1066 13.57C39.0072 11.7459 40.5186 9.97338 42.2778 9.85046C42.8089 9.81288 43.2681 9.87402 43.6363 10.0301C43.8783 10.1326 45.1011 10.6937 45.3706 11.6395C45.4284 11.8425 45.4034 12.0601 45.3011 12.2446C45.1988 12.4292 45.0275 12.5657 44.8247 12.6242C44.7533 12.6446 44.6793 12.6551 44.605 12.6554C44.4329 12.6548 44.2656 12.5987 44.1279 12.4954C43.9902 12.3921 43.8895 12.2472 43.8407 12.0822C43.8044 11.9866 43.4618 11.6873 43.0127 11.4975C42.8854 11.444 42.6548 11.4217 42.3873 11.4408C41.4803 11.5045 40.6422 12.5165 40.6944 13.4846C40.802 15.4348 43.4032 17.0647 44.9572 18.0391C45.1039 18.1308 45.2167 18.2677 45.2786 18.4292C45.3405 18.5907 45.3482 18.768 45.3004 18.9342C45.2526 19.1004 45.152 19.2466 45.0138 19.3505C44.8756 19.4545 44.7073 19.5106 44.5343 19.5104L44.5362 19.5085ZM42.5752 9.96191C42.4822 9.96191 42.3841 9.9651 42.2867 9.9721C40.5899 10.0906 39.1327 11.8026 39.2295 13.563C39.3786 16.2743 42.3841 18.1576 44.1795 19.283C44.331 19.378 44.514 19.409 44.6882 19.3691C44.8625 19.3292 45.0138 19.2217 45.1088 19.0703C45.2038 18.9188 45.2348 18.7359 45.1949 18.5616C45.155 18.3873 45.0475 18.2361 44.8961 18.141C43.3204 17.1538 40.6861 15.5023 40.5753 13.4916C40.5192 12.4624 41.4135 11.386 42.3816 11.3185C42.6726 11.2988 42.9159 11.323 43.063 11.3822C43.4961 11.5656 43.8993 11.8866 43.9547 12.0401C43.9949 12.1812 44.0799 12.3054 44.1969 12.394C44.3138 12.4826 44.4564 12.5307 44.6031 12.5312C44.666 12.5313 44.7285 12.5227 44.7891 12.5057C44.8741 12.4813 44.9536 12.4404 45.0228 12.3852C45.092 12.3301 45.1498 12.2619 45.1926 12.1845C45.2355 12.1071 45.2627 12.022 45.2727 11.934C45.2827 11.8461 45.2752 11.7571 45.2508 11.672C44.9961 10.7803 43.8197 10.2402 43.5866 10.1434C43.2649 10.0163 42.921 9.95455 42.5752 9.96191Z" fill="#463B32"/>
<path d="M11.5724 63.3803C12.5158 63.3803 13.2589 62.9628 13.5845 62.2448L12.5742 61.6938C12.3321 62.1279 11.9731 62.3116 11.564 62.3116C10.9044 62.3116 10.3868 61.8524 10.3868 61.0676C10.3868 60.2828 10.9044 59.8236 11.564 59.8236C11.9731 59.8236 12.3321 60.0156 12.5742 60.4414L13.5845 59.8988C13.2589 59.164 12.5158 58.7549 11.5724 58.7549C10.1113 58.7549 9.06765 59.7151 9.06765 61.0676C9.06765 62.4202 10.1113 63.3803 11.5724 63.3803Z" fill="#463B32"/>
<path d="M15.5784 59.4145V58.8217H14.3344V63.3135H15.6368V61.1928C15.6368 60.3329 16.1127 59.9405 16.8307 59.9405C16.9309 59.9405 17.0144 59.9488 17.1229 59.9572V58.7549C16.43 58.7549 15.8956 58.9804 15.5784 59.4145Z" fill="#463B32"/>
<path d="M21.1527 58.8217V61.0426C21.1527 61.8691 20.7186 62.2532 20.1174 62.2532C19.5414 62.2532 19.2074 61.9192 19.2074 61.1678V58.8217H17.9049V61.3598C17.9049 62.7458 18.6981 63.3803 19.8252 63.3803C20.3763 63.3803 20.8772 63.1716 21.2195 62.7792V63.3135H22.4552V58.8217H21.1527Z" fill="#463B32"/>
<path d="M28.0617 61.0843C28.0617 59.6399 27.0431 58.7549 25.724 58.7549C24.3548 58.7549 23.3278 59.7234 23.3278 61.0676C23.3278 62.4035 24.3381 63.3803 25.891 63.3803C26.7008 63.3803 27.327 63.1298 27.7445 62.6539L27.0515 61.9025C26.7426 62.1947 26.4003 62.3367 25.9244 62.3367C25.2398 62.3367 24.7639 61.9944 24.6386 61.435H28.0367C28.045 61.3264 28.0617 61.1845 28.0617 61.0843ZM25.7324 59.7401C26.3168 59.7401 26.7426 60.1075 26.8344 60.6752H24.6219C24.7138 60.0991 25.1396 59.7401 25.7324 59.7401Z" fill="#463B32"/>
<path d="M28.9288 63.3135H30.2313V57.1185H28.9288V63.3135Z" fill="#463B32"/>
<path d="M34.3127 62.178C34.1707 62.2866 33.9787 62.345 33.7867 62.345C33.436 62.345 33.2273 62.1363 33.2273 61.7522V59.9238H34.3461V58.9219H33.2273V57.8282H31.9248V58.9219H31.2319V59.9238H31.9248V61.7689C31.9248 62.8376 32.5427 63.3803 33.603 63.3803C34.0037 63.3803 34.3962 63.2885 34.6633 63.0964L34.3127 62.178Z" fill="#463B32"/>
<path d="M38.5189 58.8217L37.2499 61.8691L35.9892 58.8217H34.645L36.5903 63.3469L36.5736 63.3886C36.3983 63.7894 36.1979 63.948 35.8389 63.948C35.5801 63.948 35.3046 63.8395 35.1042 63.6642L34.6283 64.5909C34.9205 64.8497 35.4215 65 35.8806 65C36.6905 65 37.3083 64.6744 37.7425 63.589L39.7713 58.8217H38.5189Z" fill="#463B32"/>
<path d="M44.0949 58.7299C44.0949 58.2874 44.3036 58.0787 44.6877 58.0787C44.8881 58.0787 45.0717 58.1371 45.2137 58.2373L45.556 57.2939C45.3139 57.1269 44.9298 57.0517 44.5625 57.0517C43.4437 57.0517 42.8259 57.7113 42.8259 58.7215V58.9219H42.1329V59.9238H42.8259V63.3135H44.1283V59.9238H45.2471V58.9219H44.0949V58.7299Z" fill="#463B32"/>
<path d="M47.8085 59.4145V58.8217H46.5645V63.3135H47.867V61.1928C47.867 60.3329 48.3429 59.9405 49.0609 59.9405C49.1611 59.9405 49.2446 59.9488 49.3531 59.9572V58.7549C48.6601 58.7549 48.1258 58.9804 47.8085 59.4145Z" fill="#463B32"/>
<path d="M54.4867 61.0843C54.4867 59.6399 53.4681 58.7549 52.149 58.7549C50.7797 58.7549 49.7528 59.7234 49.7528 61.0676C49.7528 62.4035 50.763 63.3803 52.3159 63.3803C53.1258 63.3803 53.752 63.1298 54.1694 62.6539L53.4765 61.9025C53.1675 62.1947 52.8252 62.3367 52.3493 62.3367C51.6647 62.3367 51.1888 61.9944 51.0636 61.435H54.4616C54.47 61.3264 54.4867 61.1845 54.4867 61.0843ZM52.1573 59.7401C52.7417 59.7401 53.1675 60.1075 53.2594 60.6752H51.0469C51.1387 60.0991 51.5645 59.7401 52.1573 59.7401Z" fill="#463B32"/>
<path d="M59.7537 61.0843C59.7537 59.6399 58.7352 58.7549 57.416 58.7549C56.0468 58.7549 55.0199 59.7234 55.0199 61.0676C55.0199 62.4035 56.0301 63.3803 57.583 63.3803C58.3929 63.3803 59.019 63.1298 59.4365 62.6539L58.7435 61.9025C58.4346 62.1947 58.0923 62.3367 57.6164 62.3367C56.9318 62.3367 56.4559 61.9944 56.3307 61.435H59.7287C59.7371 61.3264 59.7537 61.1845 59.7537 61.0843ZM57.4244 59.7401C58.0088 59.7401 58.4346 60.1075 58.5264 60.6752H56.314C56.4058 60.0991 56.8316 59.7401 57.4244 59.7401Z" fill="#463B32"/>
</svg>
