<svg width="116" height="179" viewBox="0 0 116 179" fill="none" xmlns="http://www.w3.org/2000/svg">
<path fill-rule="evenodd" clip-rule="evenodd" d="M82.4139 159.86C62.6772 152.652 74.3639 120.129 63.1315 102.371C51.8939 84.6053 20.3517 81.2937 19.4331 60.2921C18.4969 38.8885 39.3744 21.0387 59.221 12.9702C76.8745 5.79324 95.6434 15.2983 113.457 22.0672C127.867 27.5424 139.657 36.0131 149.983 47.4578C163.446 62.3793 185.254 77.0489 180.735 96.6318C176.216 116.215 148.449 116.487 131.545 127.358C114.375 138.399 101.588 166.863 82.4139 159.86Z" fill="#E6D6C8" stroke="white" stroke-width="6"/>
<g opacity="0.5">
<circle cx="110.5" cy="40.541" r="2.5" transform="rotate(90 110.5 40.541)" fill="#C7A58D"/>
<circle cx="98.5" cy="40.541" r="2.5" transform="rotate(90 98.5 40.541)" fill="#C7A58D"/>
<circle cx="86.5" cy="40.541" r="2.5" transform="rotate(90 86.5 40.541)" fill="#C7A58D"/>
<circle cx="74.5" cy="40.541" r="2.5" transform="rotate(90 74.5 40.541)" fill="#C7A58D"/>
<circle cx="110.5" cy="74.541" r="2.5" transform="rotate(90 110.5 74.541)" fill="#C7A58D"/>
<circle cx="98.5" cy="74.541" r="2.5" transform="rotate(90 98.5 74.541)" fill="#C7A58D"/>
<circle cx="86.5" cy="74.541" r="2.5" transform="rotate(90 86.5 74.541)" fill="#C7A58D"/>
<circle cx="74.5" cy="74.541" r="2.5" transform="rotate(90 74.5 74.541)" fill="#C7A58D"/>
<circle cx="110.5" cy="57.541" r="2.5" transform="rotate(90 110.5 57.541)" fill="#C7A58D"/>
<circle cx="98.5" cy="57.541" r="2.5" transform="rotate(90 98.5 57.541)" fill="#C7A58D"/>
<circle cx="86.5" cy="57.541" r="2.5" transform="rotate(90 86.5 57.541)" fill="#C7A58D"/>
<circle cx="74.5" cy="57.541" r="2.5" transform="rotate(90 74.5 57.541)" fill="#C7A58D"/>
<circle cx="110.5" cy="91.541" r="2.5" transform="rotate(90 110.5 91.541)" fill="#C7A58D"/>
<circle cx="98.5" cy="91.541" r="2.5" transform="rotate(90 98.5 91.541)" fill="#C7A58D"/>
<circle cx="86.5" cy="91.541" r="2.5" transform="rotate(90 86.5 91.541)" fill="#C7A58D"/>
<circle cx="74.5" cy="91.541" r="2.5" transform="rotate(90 74.5 91.541)" fill="#C7A58D"/>
</g>
</svg>
