<svg width="30" height="38" viewBox="0 0 30 38" fill="none" xmlns="http://www.w3.org/2000/svg">
<path d="M14.5926 38L5.40143 31.9144C2.01841 29.6755 0 25.9162 0 21.8604V1.53566L0.954087 2.76343C2.37572 4.59558 4.51956 5.64469 6.83446 5.64469C8.46135 5.64469 10.0046 5.12774 11.3008 4.15465C12.5552 3.21196 13.4941 1.87016 13.9502 0.376311L14.0642 0H14.9841L15.0982 0.376311C15.5543 1.87016 16.4932 3.21196 17.7476 4.15465C19.0437 5.13154 20.587 5.64469 22.2139 5.64469C24.5288 5.64469 26.6726 4.59558 28.0943 2.76343L29.0484 1.53566V21.8946C29.0484 25.9276 27.0452 29.6755 23.6925 31.9182L14.5926 38ZM1.06052 4.45494V21.8604C1.06052 25.5589 2.90027 28.9875 5.98681 31.0287L14.5888 36.7228L23.0958 31.0363C26.1519 28.9913 27.9764 25.5741 27.9764 21.8984V4.45494C26.418 5.89937 24.3806 6.70901 22.2063 6.70901C20.3475 6.70901 18.58 6.11983 17.0976 5.0023C15.9952 4.17365 15.102 3.07132 14.5128 1.82835C13.9236 3.07132 13.0341 4.16985 11.928 5.0023C10.4455 6.11603 8.68182 6.70901 6.81926 6.70901C4.66021 6.70901 2.62279 5.89937 1.06052 4.45494Z" fill="#D0AF94"/>
<path d="M7.27946 29.2381C4.58445 27.4554 2.97656 24.4601 2.97656 21.2291V11.0801H4.04088V21.2291C4.04088 24.1028 5.47012 26.7636 7.86864 28.3525L7.27946 29.2381Z" fill="#D0AF94"/>
<path d="M16.698 24.6879H12.3647V20.1531H7.82617V15.8198H12.3647V11.2812H16.698V15.816H21.2328V20.1493H16.698V24.6879ZM13.4291 23.6236H15.6337V19.0888H20.1685V16.8841H15.6337V12.3456H13.4291V16.8803H8.89049V19.085H13.4291V23.6236Z" fill="#D0AF94"/>
</svg>
