<svg width="81" height="194" viewBox="0 0 81 194" fill="none" xmlns="http://www.w3.org/2000/svg">
<path fill-rule="evenodd" clip-rule="evenodd" d="M65.5671 179.581C49.9138 173.864 59.1826 148.07 50.2741 133.986C41.3615 119.896 16.3453 117.269 15.6167 100.613C14.8742 83.6377 31.4323 69.4809 47.1727 63.0817C61.1738 57.3897 76.0594 64.9281 90.1877 70.2966C101.616 74.6391 110.967 81.3572 119.156 90.434C129.834 102.268 147.13 113.903 143.546 129.434C139.962 144.965 117.939 145.182 104.533 153.803C90.9158 162.56 80.7743 185.135 65.5671 179.581Z" fill="#E6D6C8" fill-opacity="0.4"/>
<g opacity="0.5">
<circle cx="82.5" cy="36.2969" r="2.5" transform="rotate(90 82.5 36.2969)" fill="#F3EBE5"/>
<circle cx="70.5" cy="36.2969" r="2.5" transform="rotate(90 70.5 36.2969)" fill="#F3EBE5"/>
<circle cx="58.5" cy="36.2969" r="2.5" transform="rotate(90 58.5 36.2969)" fill="#F3EBE5"/>
<circle cx="46.5" cy="36.2969" r="2.5" transform="rotate(90 46.5 36.2969)" fill="#F3EBE5"/>
<circle cx="34.5" cy="36.2969" r="2.5" transform="rotate(90 34.5 36.2969)" fill="#F3EBE5"/>
<circle cx="22.5" cy="36.2969" r="2.5" transform="rotate(90 22.5 36.2969)" fill="#F3EBE5"/>
<circle cx="82.5" cy="70.2969" r="2.5" transform="rotate(90 82.5 70.2969)" fill="#F3EBE5"/>
<circle cx="70.5" cy="70.2969" r="2.5" transform="rotate(90 70.5 70.2969)" fill="#F3EBE5"/>
<circle cx="58.5" cy="70.2969" r="2.5" transform="rotate(90 58.5 70.2969)" fill="#F3EBE5"/>
<circle cx="46.5" cy="70.2969" r="2.5" transform="rotate(90 46.5 70.2969)" fill="#F3EBE5"/>
<circle cx="34.5" cy="70.2969" r="2.5" transform="rotate(90 34.5 70.2969)" fill="#F3EBE5"/>
<circle cx="22.5" cy="70.2969" r="2.5" transform="rotate(90 22.5 70.2969)" fill="#F3EBE5"/>
<circle cx="82.5" cy="53.2969" r="2.5" transform="rotate(90 82.5 53.2969)" fill="#F3EBE5"/>
<circle cx="70.5" cy="53.2969" r="2.5" transform="rotate(90 70.5 53.2969)" fill="#F3EBE5"/>
<circle cx="58.5" cy="53.2969" r="2.5" transform="rotate(90 58.5 53.2969)" fill="#F3EBE5"/>
<circle cx="46.5" cy="53.2969" r="2.5" transform="rotate(90 46.5 53.2969)" fill="#F3EBE5"/>
<circle cx="34.5" cy="53.2969" r="2.5" transform="rotate(90 34.5 53.2969)" fill="#F3EBE5"/>
<circle cx="22.5" cy="53.2969" r="2.5" transform="rotate(90 22.5 53.2969)" fill="#F3EBE5"/>
<circle cx="82.5" cy="87.2969" r="2.5" transform="rotate(90 82.5 87.2969)" fill="#F3EBE5"/>
<circle cx="70.5" cy="87.2969" r="2.5" transform="rotate(90 70.5 87.2969)" fill="#F3EBE5"/>
<circle cx="58.5" cy="87.2969" r="2.5" transform="rotate(90 58.5 87.2969)" fill="#F3EBE5"/>
<circle cx="46.5" cy="87.2969" r="2.5" transform="rotate(90 46.5 87.2969)" fill="#F3EBE5"/>
<circle cx="34.5" cy="87.2969" r="2.5" transform="rotate(90 34.5 87.2969)" fill="#F3EBE5"/>
<circle cx="22.5" cy="87.2969" r="2.5" transform="rotate(90 22.5 87.2969)" fill="#F3EBE5"/>
</g>
</svg>
