<svg width="91" height="90" viewBox="0 0 91 90" fill="none" xmlns="http://www.w3.org/2000/svg">
<path d="M23.2487 45.3589C23.2487 44.6213 22.6715 43.4338 21.7662 43.4338H15.66C15.2636 43.4338 14.9225 43.8579 14.6081 44.1714C14.2937 44.4849 14.1757 45.0629 14.1794 45.4206C14.1794 45.605 14.2494 49.9475 17.6035 54.2189C20.5842 58.0155 26.8489 62.5571 39.761 62.5571C39.8255 62.5562 39.8888 62.5396 39.9454 62.5085C40.002 62.4775 40.0501 62.4331 40.0855 62.3792C40.103 62.3714 40.1199 62.3624 40.1362 62.3524C40.1957 62.3452 40.2521 62.322 40.2994 62.2851C40.576 62.2851 40.883 62.2602 41.1412 62.0085C41.4417 61.7098 41.5745 61.4102 41.5717 61.0359C41.5721 60.6718 41.4294 60.3221 41.1743 60.0623C42.3569 60.3143 43.5945 60.5156 44.8871 60.6662C45.0682 60.6855 45.2514 60.6711 45.4273 60.6238C45.7327 60.6197 46.038 60.637 46.341 60.6754C46.3977 60.675 46.4543 60.6716 46.5106 60.6652C48.0129 60.4956 49.5038 60.2376 50.9757 59.8926C50.5673 60.113 50.3137 60.4458 50.31 60.9382C50.31 61.7126 50.9112 62.2049 51.7852 62.2049L52.1208 62.2593C65.0494 62.2593 71.3049 57.7786 74.2755 53.9949C77.6065 49.7539 77.6959 45.4548 77.6978 45.2722C77.6978 44.8582 77.5364 44.3069 77.27 44.0359C76.9648 43.727 76.6006 43.4375 76.2171 43.4375H70.1156C69.2812 43.4375 68.634 44.5282 68.634 45.3626C68.634 46.1969 69.2794 47.2876 70.1156 47.2876H74.5115C74.2082 48.2501 73.4973 50.5882 71.8802 52.6202C68.2219 57.2079 61.3883 59.6382 52.1162 59.6382C52.0564 59.6385 51.9967 59.6419 51.9373 59.6483C57.8821 58.0515 62.2743 55.0385 65.0291 50.6472C71.2348 40.7648 66.7956 27.6609 66.6029 27.1078C66.533 26.9067 66.4205 26.7231 66.2732 26.5694C66.1258 26.4157 65.9471 26.2955 65.7492 26.2171C65.551 26.1413 65.3392 26.1079 65.1273 26.1192C64.9154 26.1304 64.7083 26.1861 64.5193 26.2826C64.5193 26.2826 62.255 27.4664 59.9962 28.6613C58.8898 29.2449 57.7475 29.8534 56.8901 30.3208C56.4586 30.5531 56.1018 30.7504 55.851 30.8915C54.7806 31.4981 54.457 32.2348 54.8867 33.0821C55.0646 33.432 55.3742 33.6971 55.7473 33.8191C56.1205 33.9411 56.5268 33.9102 56.8772 33.733C56.9612 33.6914 57.0403 33.6407 57.1132 33.5818C57.683 33.2379 61.0453 31.453 64.2805 29.7547C65.09 33.0028 66.815 42.2371 62.5205 49.0762C60.2082 52.7576 56.4438 55.3345 51.3187 56.7451C54.2551 53.8243 57.3252 49.3168 57.2109 43.2946C57.0035 32.4726 47.1616 24.0312 46.743 23.6771C46.4752 23.4535 46.1368 23.3319 45.7878 23.3342C45.4064 23.332 45.0386 23.4758 44.7598 23.7362C36.9167 31.2538 33.405 38.6083 34.3223 45.5912C34.9751 50.5532 37.7474 54.3157 40.2736 56.793C35.0442 55.3953 31.2098 52.8028 28.8671 49.0781C24.5735 42.2491 26.2967 33.0019 27.1034 29.751C30.2528 31.405 33.7065 33.2379 34.2467 33.5624C34.3272 33.6267 34.414 33.6826 34.5058 33.7293C34.7132 33.8337 34.942 33.8883 35.1742 33.8888C35.4484 33.8895 35.7173 33.8138 35.9509 33.6701C36.1844 33.5265 36.3733 33.3206 36.4963 33.0756C36.9259 32.2292 36.6014 31.4926 35.531 30.8841C35.2803 30.744 34.9235 30.5476 34.4929 30.3143C33.7784 29.9271 32.791 29.3998 31.385 28.6548C29.6332 27.7282 27.8815 26.8109 27.1808 26.4421L26.8711 26.2789H26.8637C26.6743 26.1825 26.4668 26.1269 26.2546 26.116C26.0424 26.105 25.8302 26.1389 25.6319 26.2153C25.4341 26.2939 25.2555 26.4142 25.1083 26.5681C24.9612 26.7219 24.8489 26.9057 24.7791 27.1068C24.5874 27.66 20.1472 40.7611 26.3529 50.6463C29.093 55.0081 33.4474 58.0118 39.3378 59.6161C30.0749 59.499 23.5723 57.1581 19.996 52.6774C18.5098 50.8113 17.7593 48.7286 17.3841 47.2848H21.7662C22.6715 47.2839 23.2487 46.0946 23.2487 45.3589ZM45.8127 26.8505C48.0328 29.0476 54.1048 35.7428 54.2505 43.3462C54.3971 50.9985 48.0282 55.9448 45.7823 57.4458C43.7863 56.1311 38.13 51.8578 37.2588 45.2058C36.5092 39.5007 39.3867 33.3264 45.8127 26.8505Z" fill="#9C6137" fill-opacity="0.69"/>
<path d="M4.75416 61.1096C5.02035 61.1095 5.28244 61.0441 5.5175 60.9192C5.75255 60.7943 5.9534 60.6136 6.10243 60.3931C6.25147 60.1725 6.34416 59.9188 6.37239 59.6541C6.40061 59.3894 6.36351 59.1218 6.26433 58.8748C3.77154 52.6415 2.80666 45.9021 3.4503 39.2198C4.09395 32.5374 6.32743 26.1061 9.96415 20.4632C10.0803 20.2836 10.1599 20.083 10.1984 19.8727C10.237 19.6623 10.2337 19.4465 10.1889 19.2374C10.144 19.0284 10.0584 18.8302 9.93697 18.6542C9.81552 18.4782 9.66059 18.3279 9.48104 18.2118C9.30149 18.0957 9.10083 18.0161 8.89051 17.9775C8.6802 17.9389 8.46434 17.9422 8.25528 17.987C8.04621 18.0319 7.84803 18.1175 7.67205 18.239C7.49607 18.3604 7.34573 18.5153 7.22962 18.6949C3.30966 24.7759 0.902295 31.707 0.208751 38.9087C-0.484794 46.1104 0.555635 53.3735 3.24307 60.0909C3.36451 60.3921 3.57332 60.6501 3.84261 60.8316C4.11191 61.0132 4.42938 61.11 4.75416 61.1096Z" fill="#463B32"/>
<path d="M87.2373 43.9308C87.1619 48.9452 86.1857 53.9052 84.3553 58.5742C84.1981 58.9763 84.207 59.4242 84.3798 59.8197C84.5527 60.2152 84.8755 60.5259 85.2772 60.6837C85.4665 60.7588 85.6683 60.7973 85.8719 60.7971C86.1992 60.797 86.519 60.6984 86.7895 60.5141C87.06 60.3297 87.2687 60.0682 87.3885 59.7636C90.0873 52.8619 91.0531 45.4039 90.2012 38.0425C89.3493 30.6811 86.7058 23.6407 82.5021 17.5378C82.385 17.3521 82.2315 17.192 82.0509 17.0671C81.8703 16.9423 81.6663 16.8553 81.4512 16.8113C81.2361 16.7674 81.0143 16.7675 80.7992 16.8115C80.5841 16.8556 80.3801 16.9427 80.1996 17.0676C80.019 17.1926 79.8657 17.3528 79.7487 17.5386C79.6317 17.7244 79.5535 17.9319 79.5188 18.1487C79.4841 18.3655 79.4937 18.5871 79.5469 18.8001C79.6001 19.0131 79.6959 19.2132 79.8284 19.3882C84.8138 26.5882 87.406 35.1749 87.2373 43.9308Z" fill="#463B32"/>
<path d="M19.6385 16.3033C21.8056 14.8233 22.3817 12.2928 20.9797 10.2398C19.5777 8.18682 17.011 7.80261 14.8439 9.28253C12.6769 10.7625 12.088 13.3016 13.4901 15.3546C14.8921 17.4076 17.4715 17.7832 19.6385 16.3033ZM18.5307 14.6811C17.5423 15.3562 16.2972 15.1658 15.4924 13.9872C14.6875 12.8086 14.9632 11.5797 15.9517 10.9046C16.9402 10.2296 18.1725 10.4287 18.9774 11.6072C19.7823 12.7858 19.5192 14.0061 18.5307 14.6811Z" fill="#463B32"/>
<path d="M24.0103 5.58528L23.5718 4.58784L21.4786 5.50801L24.8011 13.0661L26.9926 12.1027L25.424 8.53439C24.7879 7.08739 25.2984 6.0751 26.5066 5.54399C26.6752 5.46989 26.8219 5.42218 27.0107 5.35594L26.1214 3.33295C24.9553 3.84553 24.223 4.62008 24.0103 5.58528Z" fill="#463B32"/>
<path d="M35.129 0.99099L35.3619 2.02869C34.5698 1.38508 33.5529 1.21842 32.425 1.47163C30.1842 1.97467 28.7272 3.92883 29.2573 6.28997C29.7873 8.65111 31.9398 9.795 34.1806 9.29196C35.2333 9.05563 36.0464 8.52558 36.511 7.7104L36.5887 8.0563C36.9162 9.51509 36.3631 10.4291 34.7088 10.8005C33.6711 11.0334 32.4621 10.9257 31.6454 10.5246L31.0911 12.4182C32.204 12.9425 33.7773 12.9842 35.3113 12.6398C38.2289 11.9849 39.5425 10.2367 38.8673 7.22884L37.3548 0.491323L35.129 0.99099ZM34.2147 7.26229C32.9814 7.53914 31.9002 6.94463 31.6335 5.75654C31.3667 4.56845 32.0902 3.56881 33.3234 3.29197C34.5566 3.01513 35.6228 3.61301 35.8895 4.8011C36.1562 5.98919 35.4479 6.98545 34.2147 7.26229Z" fill="#463B32"/>
<path d="M44.3991 0.00159853C43.0793 0.0279937 41.7513 0.407654 40.8587 1.07029L41.7516 2.72582C42.3405 2.23813 43.2401 1.92844 44.1149 1.91095C45.4039 1.88517 46.0297 2.47139 46.0503 3.49957L44.1474 3.53763C41.6306 3.58796 40.6227 4.62136 40.6519 6.07924C40.6804 7.50641 41.8528 8.55762 43.7864 8.51895C44.9988 8.4947 45.8502 8.07852 46.2802 7.31766L46.3007 8.34584L48.5413 8.30103L48.447 3.5898C48.397 1.0884 46.9158 -0.0487364 44.3991 0.00159853ZM44.3527 6.89564C43.5087 6.91252 42.9943 6.52366 42.9823 5.92516C42.9713 5.3727 43.3159 4.9513 44.4362 4.9289L46.0782 4.89606L46.0951 5.74009C45.8339 6.49757 45.1507 6.87968 44.3527 6.89564Z" fill="#463B32"/>
<path d="M57.2712 1.45022C56.1773 1.20852 55.1505 1.37454 54.3688 1.92476L54.5774 0.980735L52.3447 0.487392L50.5634 8.54909L52.901 9.06561L53.7817 5.07972C54.1095 3.59624 55.071 3.08575 56.1948 3.33408C57.2288 3.56254 57.6957 4.29436 57.4076 5.59802L56.4673 9.85364L58.8049 10.3702L59.8247 5.75491C60.3677 3.29744 59.1742 1.87072 57.2712 1.45022Z" fill="#463B32"/>
<path d="M65.4069 2.96551C66.2347 3.30373 67.0129 2.98883 67.3161 2.2467C67.5961 1.56165 67.2494 0.820439 66.4216 0.482213C65.5939 0.143987 64.8157 0.458888 64.5299 1.15821C64.2442 1.85752 64.5792 2.62728 65.4069 2.96551ZM60.719 11.2593L62.9454 12.169L66.0828 4.49075L63.8564 3.58103L60.719 11.2593Z" fill="#463B32"/>
<path d="M68.3411 15.1004C69.8324 15.9848 71.3983 16.0214 72.5861 15.1917L71.5057 13.3736C70.716 13.8329 69.9763 13.7867 69.3297 13.4033C68.2871 12.785 67.8993 11.5739 68.635 10.3333C69.3706 9.09271 70.6193 8.85208 71.662 9.47038C72.3086 9.85387 72.6961 10.494 72.6797 11.394L74.7853 11.4832C74.9594 10.0165 74.1683 8.6733 72.6769 7.78891C70.3674 6.41928 67.8176 6.95869 66.5497 9.0967C65.2818 11.2347 66.0315 13.7307 68.3411 15.1004Z" fill="#463B32"/>
<path d="M14.0971 61.247C14.4976 62.0391 15.2859 62.3094 15.9961 61.9503C16.6517 61.6188 16.8741 60.8376 16.4736 60.0454C16.073 59.2532 15.2847 58.983 14.6155 59.3214C13.9462 59.6597 13.6965 60.4548 14.0971 61.247ZM5.1861 64.4149L6.26339 66.5455L13.6114 62.8302L12.5341 60.6996L5.1861 64.4149Z" fill="#463B32"/>
<path d="M17.339 68.0589C16.6564 67.1706 15.7631 66.6378 14.8106 66.5568L15.5772 65.9677L14.184 64.1547L7.63747 69.1853L9.09616 71.0835L12.3329 68.5963C13.5376 67.6706 14.6023 67.8975 15.3036 68.8101C15.9487 69.6497 15.836 70.5105 14.7774 71.324L11.3216 73.9796L12.7803 75.8778L16.5281 72.9978C18.5237 71.4644 18.5265 69.6043 17.339 68.0589Z" fill="#463B32"/>
<path d="M25.1908 75.5042L24.5512 76.348C24.5317 75.332 24.0052 74.4515 23.088 73.7563C21.2657 72.3751 18.8433 72.5225 17.388 74.4426C15.9326 76.3627 16.4455 78.7347 18.2677 80.1159C19.1239 80.7648 20.0494 81.0427 20.9679 80.8724L20.7547 81.1537C19.8556 82.34 18.805 82.5065 17.4597 81.4869C16.6159 80.8473 15.9211 79.8585 15.7015 78.9796L13.905 79.7746C14.2213 80.9579 15.2003 82.1813 16.4478 83.1269C18.8204 84.9252 20.9941 84.8011 22.848 82.3551L27.0008 76.8761L25.1908 75.5042ZM19.8334 78.8378C18.8305 78.0777 18.588 76.8734 19.3203 75.9072C20.0526 74.941 21.2777 74.849 22.2806 75.6091C23.2834 76.3692 23.5137 77.5643 22.7814 78.5305C22.0491 79.4967 20.8363 79.598 19.8334 78.8378Z" fill="#463B32"/>
<path d="M29.9009 79.3365L30.3578 78.3473L28.2819 77.3886L24.8202 84.8839L26.9935 85.8877L28.6279 82.349C29.2907 80.914 30.3872 80.626 31.5853 81.1794C31.7525 81.2566 31.8854 81.3349 32.0601 81.4324L32.9867 79.4263C31.8303 78.8922 30.7649 78.8565 29.9009 79.3365Z" fill="#463B32"/>
<path d="M40.4446 85.7121C41.0482 83.1268 39.5948 81.1171 37.2336 80.5659C34.7827 79.9937 32.5399 81.2982 31.9782 83.7042C31.42 86.0952 32.8201 88.2658 35.5997 88.9147C37.0493 89.2531 38.2748 89.0665 39.2209 88.3891L38.2945 86.7545C37.6194 87.1485 36.9474 87.2595 36.0956 87.0607C34.8702 86.7746 34.1614 85.963 34.171 84.9094L40.2533 86.3293C40.3136 86.1385 40.4028 85.8914 40.4446 85.7121ZM36.8368 82.3328C37.8829 82.577 38.4916 83.4124 38.4188 84.467L34.4585 83.5425C34.8636 82.5498 35.7758 82.0851 36.8368 82.3328Z" fill="#463B32"/>
<path d="M48.132 78.4261L48.2404 82.4299C47.6238 81.7711 46.7561 81.4722 45.7436 81.4996C43.4119 81.5627 41.6619 83.2681 41.732 85.8606C41.8022 88.4531 43.6418 90.0613 45.9736 89.9982C47.0781 89.9683 47.9429 89.5918 48.5217 88.8547L48.5474 89.8058L50.8331 89.7439L50.5251 78.3613L48.132 78.4261ZM46.3346 88.0234C45.1381 88.0558 44.1944 87.2217 44.1558 85.795C44.1172 84.3683 45.0144 83.4844 46.2109 83.452C47.3921 83.42 48.3358 84.2542 48.3744 85.6808C48.413 87.1075 47.5158 87.9915 46.3346 88.0234Z" fill="#463B32"/>
<path d="M52.9053 79.6626C53.7748 79.4725 54.235 78.775 54.0646 77.9954C53.9073 77.2758 53.2046 76.8639 52.3351 77.054C51.4656 77.244 51.0054 77.9415 51.166 78.6761C51.3265 79.4108 52.0358 79.8526 52.9053 79.6626ZM53.7447 89.1083L56.0835 88.5971L54.3205 80.5314L51.9817 81.0426L53.7447 89.1083Z" fill="#463B32"/>
<path d="M64.8065 81.0737C63.7918 78.6204 61.44 77.8327 59.1994 78.7594C56.8738 79.7213 55.8099 82.0878 56.7542 84.3709C57.6926 86.6398 60.0947 87.5893 62.7324 86.4984C64.1079 85.9295 64.9956 85.0641 65.3703 83.9626L63.6654 83.1731C63.346 83.8864 62.8643 84.368 62.056 84.7023C60.8931 85.1833 59.8443 84.9361 59.2387 84.074L65.0103 81.6869C64.9482 81.4966 64.8769 81.2438 64.8065 81.0737ZM59.9057 80.4269C60.8984 80.0164 61.8797 80.3412 62.4345 81.241L58.6766 82.7953C58.4278 81.7523 58.8989 80.8434 59.9057 80.4269Z" fill="#463B32"/>
<path d="M67.7784 73.7121C66.8856 74.3887 66.3469 75.2785 66.2596 76.2304L65.6756 75.4599L63.8533 76.8411L68.8404 83.4208L70.7483 81.9748L68.2826 78.7216C67.3649 77.5108 67.5989 76.4477 68.5162 75.7524C69.36 75.1128 70.22 75.2312 71.0265 76.2953L73.6591 79.7686L75.5669 78.3225L72.7119 74.5557C71.1917 72.5499 69.3316 72.5348 67.7784 73.7121Z" fill="#463B32"/>
<path d="M79.0809 71.1758C79.063 71.5037 78.9152 71.8418 78.6858 72.11C78.2668 72.5999 77.7259 72.6421 77.1894 72.1833L74.6352 69.9987L75.9718 68.4359L74.5723 67.2389L73.2356 68.8018L71.7078 67.495L70.1517 69.3145L71.6796 70.6212L70.8516 71.5892L72.2512 72.7862L73.0791 71.8182L75.6566 74.0226C77.1495 75.2994 78.6457 75.0847 79.9125 73.6035C80.3913 73.0437 80.7319 72.3858 80.7828 71.7832L79.0809 71.1758Z" fill="#463B32"/>
<path d="M84.0528 67.6782C85.2881 65.5287 85.0538 63.7422 83.7187 62.9749C80.8883 61.3483 79.5828 66.3702 78.3545 65.6643C77.9807 65.4495 77.9171 64.8801 78.4542 63.9456C78.8302 63.2914 79.3704 62.6605 80.1776 62.1831L79.0946 60.6371C78.3028 61.0878 77.4466 62.0522 76.8788 63.0402C75.6742 65.1363 75.9295 66.917 77.2913 67.6997C80.1618 69.3494 81.4539 64.3197 82.6288 64.9949C83.0294 65.2251 83.0758 65.7314 82.5234 66.6927C82.017 67.5738 81.1765 68.3873 80.3943 68.7903L81.4906 70.3439C82.3148 69.9296 83.3545 68.8931 84.0528 67.6782Z" fill="#463B32"/>
</svg>
