<svg width="91" height="91" viewBox="0 0 91 91" fill="none" xmlns="http://www.w3.org/2000/svg">
<path d="M88.031 49.084C87.6272 49.0579 87.2296 49.1943 86.9257 49.4632C86.6217 49.732 86.4363 50.1114 86.4101 50.5178C85.8163 59.7859 82.1697 68.1495 76.4397 74.6063C76.3654 74.5601 76.2938 74.5139 76.2231 74.4668C72.6491 72.123 69.9324 70.0073 67.6873 67.815C66.2399 63.9035 64.5667 59.8459 62.6999 55.7533L62.3887 55.0687C60.688 51.3188 58.9294 47.4405 56.0557 44.2495C55.3426 43.4568 54.5872 42.6993 53.8529 41.9666L53.8208 41.9343C53.0195 41.1333 52.1907 40.3046 51.4271 39.4353C50.7846 38.7045 50.1311 37.9211 49.5529 37.2301C48.7957 36.3247 47.9375 35.2983 47.0693 34.3393L46.9031 34.1546C46.368 33.5541 45.5585 32.6478 44.6214 32.1489C43.8752 31.7516 43.1382 31.6685 42.4765 31.9041C42.2217 31.9907 41.987 32.1285 41.7867 32.309C41.5863 32.4896 41.4244 32.7091 41.3108 32.9545C41.0134 33.591 41.0474 34.3495 41.186 35.0368L40.6032 34.5176C40.0791 34.0529 39.5431 33.5365 38.9685 32.9822C37.4495 31.5151 35.8782 29.9982 34.0123 29.0096C32.6851 28.3038 31.3919 27.9611 30.0583 27.9611C29.9261 27.9611 29.7948 27.9611 29.6645 27.9703C29.182 27.6191 28.677 27.3003 28.1528 27.016C27.1809 26.4986 26.2805 26.2362 25.4774 26.2362C24.6774 26.2254 23.903 26.5194 23.3095 27.0594C22.6587 26.9301 22.0621 27.015 21.5482 27.3042C19.9465 28.2059 20.5854 30.327 20.7955 31.0236C21.2021 32.3817 21.8621 33.6391 22.3228 34.4659C23.2406 36.1177 24.0749 37.8647 24.8799 39.5554L25.2186 40.2621C26.2814 42.4886 27.4636 44.6477 28.6063 46.7374C29.2983 48.0031 30.005 49.2955 30.686 50.6009C29.6416 49.4193 27.4213 47.0497 25.638 46.1018C24.8028 45.6583 24.1089 45.5475 23.5077 45.7544C23.2736 45.8374 23.0592 45.9685 22.8783 46.1395C22.6974 46.3105 22.5538 46.5176 22.4568 46.7476C22.0787 47.5901 22.2944 48.5029 22.4504 49.1625L22.4908 49.3362C22.7269 50.3594 23.0576 51.3581 23.4783 52.3193C23.784 53.0261 24.0759 53.7522 24.3163 54.361C24.3308 54.4001 24.348 54.438 24.3677 54.4747C25.3939 56.387 26.3521 58.6117 27.3828 61.4756C27.3942 61.5072 27.4077 61.5381 27.4232 61.568L27.4333 61.5883L27.4911 61.7029C27.5002 61.7781 27.5175 61.8521 27.5425 61.9237C28.2914 64.0337 29.2955 65.7447 30.7026 67.3069C30.9402 67.5913 31.1483 67.8993 31.3239 68.2262C31.5177 68.5781 31.7412 68.9125 31.9921 69.2258C32.2234 69.5029 32.4657 69.7625 32.7016 70.0166C32.9889 70.3279 33.2872 70.6503 33.5524 70.982C35.5774 73.4914 37.9052 75.7371 40.482 77.667C42.9473 79.5055 45.7476 81.2303 49.5621 83.2609C50.1128 83.5559 50.6684 83.8472 51.2289 84.1349C52.7892 84.9442 54.4495 85.6999 55.9098 86.366L56.5871 86.6773C54.5265 87.1998 52.4283 87.559 50.3119 87.7517C28.4722 89.751 9.09324 73.4875 7.11074 51.5054C7.08228 51.1913 7.0575 50.8772 7.03639 50.5649C7.02605 50.3614 6.97557 50.1621 6.88791 49.9784C6.80025 49.7948 6.67715 49.6305 6.52579 49.4952C6.37443 49.36 6.19783 49.2564 6.0063 49.1905C5.81476 49.1246 5.6121 49.0977 5.41014 49.1114C5.20819 49.1252 5.01097 49.1792 4.82997 49.2704C4.64898 49.3617 4.48783 49.4882 4.35592 49.6428C4.22401 49.7973 4.12397 49.9767 4.06164 50.1706C3.99931 50.3644 3.97594 50.5688 3.99288 50.7719C4.01582 51.1081 4.04152 51.4453 4.07181 51.7826C6.09287 74.1397 24.8101 91 46.6874 91C47.977 91 49.2812 90.9409 50.59 90.8208C60.7524 89.8928 70.2517 85.3434 77.3775 77.9916C84.5032 70.6399 88.7873 60.9689 89.4582 50.7201C89.4716 50.5183 89.4454 50.3157 89.3808 50.1241C89.3163 49.9325 89.2149 49.7557 89.0822 49.6036C88.9496 49.4516 88.7885 49.3275 88.6081 49.2383C88.4277 49.1491 88.2316 49.0967 88.031 49.084ZM60.9945 85.2878C59.7188 84.655 58.4246 84.0693 57.1635 83.4993L57.1222 83.4808C55.6445 82.8119 54.1163 82.1199 52.6689 81.3716C52.0858 81.0705 51.5045 80.7653 50.9251 80.4561C47.1932 78.4717 44.4599 76.7773 42.0579 74.9666C39.2494 72.8417 36.6005 70.0157 33.9581 66.3138C31.9547 63.5117 30.2446 60.5086 28.855 57.3524C28.52 56.5903 28.2281 55.7921 27.9372 55.0096C27.6563 54.2483 27.3672 53.4621 27.0349 52.6944C26.9633 52.5281 26.8911 52.3624 26.8183 52.1974L26.7605 52.0653C26.4916 51.4537 26.2291 50.8642 26.0033 50.2637L26.074 50.3266C27.369 51.4592 28.5145 52.7988 29.4562 53.9582C30.0684 54.7093 30.664 55.5084 31.2441 56.2882C31.6112 56.7732 32.0169 57.3238 32.4281 57.8587L32.7034 58.2125C33.557 59.3073 34.44 60.4409 34.9457 61.6576C35.0255 61.8514 35.1425 62.0275 35.2899 62.1759C35.6445 63.5854 35.9112 65.0158 36.0884 66.4588C36.1168 66.714 36.207 66.9583 36.351 67.1702C36.495 67.3822 36.6885 67.5554 36.9144 67.6746C37.1526 67.8 37.4175 67.8653 37.6863 67.8649C38.0026 67.8683 38.3123 67.7741 38.5739 67.5952C38.7936 67.4421 38.9667 67.2304 39.0735 66.9838C39.1804 66.7372 39.2168 66.4655 39.1787 66.1992C38.1315 57.4846 33.9021 49.8397 30.1721 43.0956C29.0606 41.0844 28.0611 39.0205 27.1432 37.0795C26.6494 36.0411 26.1153 35.0258 25.5994 34.0446L25.5609 33.9716C25.2498 33.3795 24.9276 32.766 24.6119 32.1443C24.4026 31.7267 24.1768 31.2814 23.9923 30.8333C24.2677 31.0329 24.543 31.2481 24.8 31.4495L24.9221 31.5419C27.3084 33.4266 29.0798 36.0254 30.7962 38.5382L30.8173 38.5696C31.2588 39.2163 31.714 39.8824 32.1757 40.5291C32.582 41.1013 32.9935 41.6707 33.4102 42.2373C35.3137 44.8509 37.2843 47.555 38.4784 50.5732C38.6138 50.9256 38.8713 51.2167 39.2035 51.3927C39.496 51.5464 39.8279 51.6074 40.1556 51.5677C40.4832 51.528 40.7913 51.3893 41.0391 51.17C41.2636 50.9697 41.4198 50.7034 41.4857 50.4088C41.5516 50.1142 41.5238 49.8062 41.4063 49.5284C40.0442 46.0824 37.8937 43.1187 35.813 40.2529L35.7543 40.1707C35.3192 39.5711 34.8842 38.9697 34.4574 38.3682C34.0664 37.8139 33.6809 37.2541 33.2945 36.6915C32.3198 35.2743 31.3285 33.8331 30.2198 32.4778L30.5144 32.7457C33.9251 35.8748 37.0016 39.5147 39.8184 42.9829L40.203 43.4577C41.7137 45.3156 43.275 47.2354 44.6278 49.2336C44.7718 49.4463 44.9649 49.6207 45.1905 49.7418C45.4124 49.8592 45.6594 49.9204 45.91 49.9201C46.1385 49.9197 46.3643 49.8709 46.5727 49.7769C46.7811 49.6828 46.9675 49.5455 47.1197 49.3741C47.3445 49.1248 47.478 48.8059 47.4982 48.4699C47.5184 48.1339 47.4241 47.8011 47.2308 47.5264C45.6916 45.2537 43.9358 43.1076 42.2369 41.0326L41.7881 40.4829C41.0033 39.5203 40.1957 38.5429 39.3604 37.5608C43.3685 41.1098 47.1585 44.9009 50.7094 48.9131C50.8318 49.0515 50.9775 49.1672 51.1398 49.2549C51.3459 49.364 51.5752 49.4211 51.808 49.4212C52.0425 49.419 52.2734 49.3627 52.4828 49.2565C52.6922 49.1503 52.8746 48.9971 53.0159 48.8087C53.2509 48.5173 53.3745 48.1508 53.3642 47.7755C53.3539 47.4003 53.2105 47.0412 52.9599 46.7633C51.3188 44.9156 49.5584 43.0448 47.7283 41.2072C47.7049 40.9953 47.6384 40.7906 47.5328 40.6058C47.173 39.9665 46.7765 39.3475 46.3928 38.7489L45.9128 39.0593L46.3781 38.7258C45.9945 38.1271 45.6035 37.5183 45.2556 36.8929C45.9293 37.6319 46.5709 38.4274 47.1978 39.2025L47.2776 39.3013C47.664 39.7771 48.0624 40.2695 48.4644 40.7435C49.597 42.0775 50.8507 43.3506 51.9631 44.4749C52.359 44.8752 52.754 45.278 53.148 45.6833C54.7414 47.324 55.9502 48.9676 56.845 50.7072C57.7124 52.3914 58.5999 54.2317 59.7234 56.6771C60.7403 58.8823 61.7251 61.1476 62.6512 63.4083C63.1202 64.5539 63.5828 65.7179 64.028 66.8746C64.1308 67.1416 64.2115 67.4169 64.3033 67.706C64.4254 68.1387 64.5766 68.5625 64.7558 68.9745C65.1 69.7256 65.6736 70.2309 66.2243 70.7196C66.3277 70.8114 66.4308 70.9038 66.5336 70.9968C67.9421 72.2767 69.418 73.4794 70.9548 74.5998C71.992 75.3601 73.0988 76.1306 74.2489 76.8947C70.4311 80.5542 65.9246 83.4079 60.9945 85.2878Z" fill="#463B32"/>
<path d="M56.5174 36.3847C58.7734 36.3847 60.4852 35.168 61.2102 33.0478C61.7857 31.371 61.1249 29.6693 60.5935 28.302C60.5237 28.1227 60.3842 27.7818 60.2263 27.3984C59.9923 26.8284 59.7013 26.1198 59.5839 25.7836C59.5022 25.5627 59.4141 25.3299 59.3186 25.075C59.013 24.2647 58.633 23.2577 58.1172 21.6955C58.086 21.6005 58.0293 21.516 57.9533 21.4514C57.8773 21.3869 57.785 21.3448 57.6867 21.3299C57.5883 21.3149 57.4878 21.3277 57.3963 21.3668C57.3047 21.4059 57.2258 21.4698 57.1681 21.5514C56.6358 22.309 55.9649 23.2069 55.3738 23.9996C54.6615 24.953 54.0989 25.7078 53.8786 26.0699C53.7868 26.2252 53.5528 26.5485 53.3279 26.8617C53.0003 27.3236 52.6607 27.7948 52.4964 28.083C51.8346 29.2397 50.2835 31.9475 52.78 34.6978C53.2531 35.224 53.8295 35.6456 54.4728 35.936C55.1162 36.2264 55.8124 36.3792 56.5174 36.3847ZM56.4908 27.6793C56.645 27.428 56.8028 27.1582 56.9708 26.822C57.0828 27.1647 57.203 27.5093 57.3223 27.8502C57.4985 28.3528 57.6647 28.8267 57.7941 29.2702C57.8602 29.4947 57.9336 29.7099 58.0043 29.9169C58.2594 30.667 58.4788 31.3146 58.2796 32.0851C58.0153 33.0838 57.1782 33.2935 56.5211 33.2935C56.2407 33.2898 55.9642 33.2273 55.7092 33.1101C55.4541 32.9929 55.2261 32.8234 55.0397 32.6127C54.4036 31.9124 54.5945 30.9368 55.7684 28.8886C56.0218 28.4553 56.2549 28.0682 56.4908 27.6793Z" fill="#9C6137" fill-opacity="0.69"/>
<path d="M2.44843 38.9488C1.78579 38.8195 1.53383 38.4439 1.64533 37.865C1.70351 37.5629 1.84435 37.3032 2.03559 37.1185L0.722177 36.3268C0.401829 36.643 0.177802 37.1999 0.0711465 37.7536C-0.253667 39.44 0.554668 40.564 2.06749 40.8592L2.36755 40.9178L2.16636 41.9623L3.66668 42.2551L3.86787 41.2106L8.94394 42.2012L9.32208 40.238L4.24601 39.2474L4.57082 37.561L3.07051 37.2682L2.736 39.0049L2.44843 38.9488Z" fill="#463B32"/>
<path d="M11.0933 34.5712C11.8762 32.5215 11.0745 30.5053 9.14538 29.7588C7.21628 29.0122 5.27916 29.9686 4.49628 32.0182C3.7134 34.0678 4.51055 36.0961 6.43965 36.8426C8.36875 37.5891 10.3105 36.6208 11.0933 34.5712ZM9.5691 33.9813C9.212 34.9162 8.27046 35.3773 7.16301 34.9488C6.05556 34.5202 5.66341 33.543 6.02051 32.608C6.37761 31.6731 7.31458 31.224 8.42202 31.6526C9.52947 32.0811 9.9262 33.0464 9.5691 33.9813Z" fill="#463B32"/>
<path d="M9.00186 25.2655L8.23193 24.7914L7.24346 26.4178L13.0776 30.0103L14.1125 28.3076L11.3581 26.6114C10.2412 25.9237 10.1096 24.9876 10.6802 24.0489C10.7598 23.9179 10.8369 23.8155 10.934 23.6802L9.37248 22.7187C8.82185 23.6246 8.69006 24.5035 9.00186 25.2655Z" fill="#463B32"/>
<path d="M15.8344 15.1066C15.0288 15.8562 14.4129 16.8315 14.2239 17.7418L15.6925 18.2815C15.7894 17.6492 16.1776 16.9558 16.7115 16.4589C17.4985 15.7267 18.211 15.7458 18.7912 16.3776L17.6295 17.4585C16.0931 18.8881 16.037 20.0944 16.8597 20.9903C17.6651 21.8673 18.9739 21.8736 20.1543 20.7753C20.8944 20.0866 21.1939 19.3533 21.0412 18.6385L21.6214 19.2703L22.9892 17.9976L20.3306 15.1026C18.919 13.5656 17.3708 13.677 15.8344 15.1066ZM19.6104 19.4452C19.0951 19.9246 18.5608 19.9671 18.2231 19.5993C17.9113 19.2598 17.8929 18.8047 18.5768 18.1684L19.5792 17.2357L20.0555 17.7544C20.3113 18.3733 20.0975 18.9919 19.6104 19.4452Z" fill="#463B32"/>
<path d="M24.3854 17.075L26.0309 15.9481L20.7059 8.07017L19.0604 9.19705L24.3854 17.075Z" fill="#463B32"/>
<path d="M27.5748 15.0708L29.3262 14.1092L24.7824 5.7242L23.031 6.68577L27.5748 15.0708Z" fill="#463B32"/>
<path d="M37.0061 11.2182C38.9953 10.703 39.9186 9.52243 39.6007 8.27879C38.9267 5.64227 35.1941 7.78913 34.9017 6.64498C34.8126 6.29676 35.1134 5.92716 35.9782 5.70315C36.5836 5.54635 37.2703 5.50111 38.0205 5.7046L38.3101 4.15775C37.5846 3.94787 36.5174 3.99885 35.6031 4.23566C33.6633 4.73807 32.7555 5.9279 33.0798 7.19641C33.7633 9.87024 37.4927 7.71094 37.7724 8.80534C37.8678 9.17843 37.5946 9.50113 36.705 9.73153C35.8896 9.94274 34.9209 9.91518 34.2293 9.68325L33.9429 11.2425C34.6656 11.4929 35.8817 11.5094 37.0061 11.2182Z" fill="#463B32"/>
<path d="M46.3419 9.82567L48.7494 9.69019L45.4205 5.89044L48.1115 2.80656L45.7422 2.93989L42.9918 5.87277L42.6927 0.487746L40.7056 0.599572L41.234 10.1131L43.2211 10.0013L43.1236 8.24475L44.0262 7.2422L46.3419 9.82567Z" fill="#463B32"/>
<path d="M51.3567 2.23148C52.0929 2.30636 52.6367 1.8712 52.7034 1.20683C52.765 0.593558 52.3161 0.0832553 51.5799 0.00837574C50.8437 -0.0665038 50.2999 0.368652 50.2371 0.994698C50.1742 1.62075 50.6205 2.1566 51.3567 2.23148ZM49.5804 9.96275L51.5606 10.1641L52.2506 3.29041L50.2705 3.08901L49.5804 9.96275Z" fill="#463B32"/>
<path d="M59.1072 4.59778C58.2039 4.35405 57.3413 4.45511 56.669 4.88787L56.8779 4.10313L55.0341 3.60565L53.2495 10.3071L55.18 10.828L56.0623 7.51461C56.3907 6.28144 57.2116 5.88874 58.1397 6.13915C58.9936 6.36953 59.3559 7.00133 59.0673 8.08503L58.1253 11.6226L60.0558 12.1435L61.0774 8.30693C61.6214 6.2641 60.6789 5.02181 59.1072 4.59778Z" fill="#463B32"/>
<path d="M69.4627 15.3145C69.1904 15.3407 68.8937 15.2606 68.6443 15.1041C68.1888 14.8182 68.0868 14.3752 68.3978 13.8731L69.8786 11.4826L71.3317 12.3946L72.1431 11.0848L70.69 10.1728L71.5758 8.74289L69.8841 7.68115L68.9983 9.11106L68.0982 8.54616L67.2868 9.85599L68.1869 10.4209L66.6926 12.8332C65.8271 14.2303 66.1901 15.4435 67.5673 16.3078C68.0878 16.6345 68.6718 16.8343 69.1744 16.8011L69.4627 15.3145Z" fill="#463B32"/>
<path d="M78.2296 15.8503L73.6798 18.0426L75.3483 13.2563L73.8174 11.878L71.4232 19.0605L71.3617 19.0912C70.7537 19.3708 70.3639 19.3472 69.955 18.9791C69.6602 18.7137 69.457 18.3068 69.4074 17.9003L67.9213 18.4748C67.9904 19.0711 68.4079 19.7571 68.9309 20.2279C69.8533 21.0584 70.8887 21.3186 72.4888 20.5194L79.656 17.1344L78.2296 15.8503Z" fill="#463B32"/>
<path d="M83.5529 22.023C83.0115 21.2761 82.3382 20.8486 81.5606 20.7998L82.1995 20.3305L81.079 18.7849L73.5353 24.326L74.7085 25.9442L77.2952 24.0442C77.1426 24.7922 77.3398 25.5217 77.8437 26.2167C78.9792 27.783 80.9721 28.1791 82.7138 26.8998C84.4554 25.6205 84.6885 23.5893 83.5529 22.023ZM78.9597 24.9676C78.3731 24.1585 78.5065 23.1226 79.4649 22.4186C80.4234 21.7146 81.4442 21.9027 82.0308 22.7118C82.6174 23.521 82.484 24.5569 81.5255 25.2609C80.5671 25.9649 79.5463 25.7768 78.9597 24.9676Z" fill="#463B32"/>
<path d="M86.2868 34.8714C88.3082 33.9795 88.9219 31.9982 88.1127 30.1399C87.2727 28.2111 85.2873 27.3625 83.4061 28.1925C81.5365 29.0174 80.7892 31.0437 81.7419 33.2313C82.2387 34.3721 82.9734 35.0995 83.8955 35.3937L84.522 33.9535C83.9235 33.6988 83.5149 33.3043 83.2229 32.6339C82.8029 31.6695 82.9901 30.7877 83.6961 30.2659L85.7807 35.0527C85.9377 34.9974 86.1466 34.9333 86.2868 34.8714ZM86.739 30.76C87.0975 31.5833 86.8446 32.41 86.1064 32.8899L84.7491 29.7732C85.6117 29.5468 86.3754 29.925 86.739 30.76Z" fill="#463B32"/>
<path d="M83.8306 39.8075C84.2825 41.8336 85.4312 42.8034 86.6814 42.5209C89.332 41.9219 87.3071 38.0833 88.4573 37.8234C88.8074 37.7443 89.1666 38.0597 89.3631 38.9407C89.5006 39.5573 89.5244 40.2525 89.298 41.0043L90.8318 41.3451C91.0637 40.6185 91.0461 39.5386 90.8384 38.6073C90.3978 36.6315 89.2394 35.6771 87.9641 35.9653C85.276 36.5727 87.3134 40.4084 86.2132 40.657C85.8381 40.7418 85.5248 40.4557 85.3227 39.5496C85.1375 38.719 85.1951 37.741 85.448 37.0494L83.9018 36.7114C83.6295 37.4338 83.5752 38.6622 83.8306 39.8075Z" fill="#463B32"/>
</svg>
