<svg width="160" height="65" viewBox="0 0 160 65" fill="none" xmlns="http://www.w3.org/2000/svg">
<g opacity="0.5">
<circle cx="87.5" cy="11.5" r="2.5" transform="rotate(90 87.5 11.5)" fill="#BD967A"/>
<circle cx="75.5" cy="11.5" r="2.5" transform="rotate(90 75.5 11.5)" fill="#BD967A"/>
<circle cx="63.5" cy="11.5" r="2.5" transform="rotate(90 63.5 11.5)" fill="#BD967A"/>
<circle cx="51.5" cy="11.5" r="2.5" transform="rotate(90 51.5 11.5)" fill="#BD967A"/>
<circle cx="39.5" cy="11.5" r="2.5" transform="rotate(90 39.5 11.5)" fill="#BD967A"/>
<circle cx="27.5" cy="11.5" r="2.5" transform="rotate(90 27.5 11.5)" fill="#BD967A"/>
<circle cx="15.5" cy="11.5" r="2.5" transform="rotate(90 15.5 11.5)" fill="#BD967A"/>
<circle cx="3.5" cy="11.5" r="2.5" transform="rotate(90 3.5 11.5)" fill="#BD967A"/>
<circle cx="87.5" cy="45.5" r="2.5" transform="rotate(90 87.5 45.5)" fill="#BD967A"/>
<circle cx="75.5" cy="45.5" r="2.5" transform="rotate(90 75.5 45.5)" fill="#BD967A"/>
<circle cx="63.5" cy="45.5" r="2.5" transform="rotate(90 63.5 45.5)" fill="#BD967A"/>
<circle cx="51.5" cy="45.5" r="2.5" transform="rotate(90 51.5 45.5)" fill="#BD967A"/>
<circle cx="39.5" cy="45.5" r="2.5" transform="rotate(90 39.5 45.5)" fill="#BD967A"/>
<circle cx="27.5" cy="45.5" r="2.5" transform="rotate(90 27.5 45.5)" fill="#BD967A"/>
<circle cx="15.5" cy="45.5" r="2.5" transform="rotate(90 15.5 45.5)" fill="#BD967A"/>
<circle cx="3.5" cy="45.5" r="2.5" transform="rotate(90 3.5 45.5)" fill="#BD967A"/>
<circle cx="87.5" cy="28.5" r="2.5" transform="rotate(90 87.5 28.5)" fill="#BD967A"/>
<circle cx="75.5" cy="28.5" r="2.5" transform="rotate(90 75.5 28.5)" fill="#BD967A"/>
<circle cx="63.5" cy="28.5" r="2.5" transform="rotate(90 63.5 28.5)" fill="#BD967A"/>
<circle cx="51.5" cy="28.5" r="2.5" transform="rotate(90 51.5 28.5)" fill="#BD967A"/>
<circle cx="39.5" cy="28.5" r="2.5" transform="rotate(90 39.5 28.5)" fill="#BD967A"/>
<circle cx="27.5" cy="28.5" r="2.5" transform="rotate(90 27.5 28.5)" fill="#BD967A"/>
<circle cx="15.5" cy="28.5" r="2.5" transform="rotate(90 15.5 28.5)" fill="#BD967A"/>
<circle cx="3.5" cy="28.5" r="2.5" transform="rotate(90 3.5 28.5)" fill="#BD967A"/>
<circle cx="87.5" cy="62.5" r="2.5" transform="rotate(90 87.5 62.5)" fill="#BD967A"/>
<circle cx="75.5" cy="62.5" r="2.5" transform="rotate(90 75.5 62.5)" fill="#BD967A"/>
<circle cx="63.5" cy="62.5" r="2.5" transform="rotate(90 63.5 62.5)" fill="#BD967A"/>
<circle cx="51.5" cy="62.5" r="2.5" transform="rotate(90 51.5 62.5)" fill="#BD967A"/>
<circle cx="39.5" cy="62.5" r="2.5" transform="rotate(90 39.5 62.5)" fill="#BD967A"/>
<circle cx="27.5" cy="62.5" r="2.5" transform="rotate(90 27.5 62.5)" fill="#BD967A"/>
<circle cx="15.5" cy="62.5" r="2.5" transform="rotate(90 15.5 62.5)" fill="#BD967A"/>
<circle cx="3.5" cy="62.5" r="2.5" transform="rotate(90 3.5 62.5)" fill="#BD967A"/>
</g>
</svg>
