<svg width="45" height="45" viewBox="0 0 45 45" fill="none" xmlns="http://www.w3.org/2000/svg">
<path d="M43.2008 25.5945C43.2008 38.7354 31.31 44.1008 20.811 44.1008C10.3119 44.1008 1.80078 33.448 1.80078 20.3071C1.80078 7.16615 13.6915 1.80078 24.1906 1.80078C34.6896 1.80078 43.2008 12.4536 43.2008 25.5945Z" fill="#CC9966" fill-opacity="0.1"/>
<path d="M31.0772 13.3332C28.7505 12.1061 26.788 12.4932 24.8904 12.8693C24.1866 13.0218 23.4748 13.135 22.7584 13.2081C22.732 12.8337 22.6868 12.4609 22.623 12.091C23.2631 12.2949 23.9305 12.3995 24.6022 12.4014C26.1895 12.3965 27.7213 11.8172 28.9146 10.7706C30.1079 9.72394 30.882 8.28076 31.0939 6.70771C31.1174 6.53383 31.0825 6.35706 30.9947 6.20517C30.9068 6.05327 30.771 5.93486 30.6086 5.86854C29.7913 5.53205 28.9143 5.36435 28.0305 5.37552C27.1467 5.3867 26.2743 5.57653 25.4657 5.93358C24.6572 6.29064 23.9292 6.80755 23.3256 7.45322C22.722 8.09889 22.2552 8.85998 21.9533 9.69071C21.3682 8.17577 20.4971 6.78755 19.3875 5.60175C19.2356 5.46806 19.0382 5.39764 18.8359 5.40495C18.6337 5.41227 18.4419 5.49677 18.3 5.64109C18.1581 5.78541 18.0769 5.97859 18.073 6.18094C18.0691 6.38329 18.1429 6.57944 18.2792 6.72909C19.9107 8.52108 20.925 10.7887 21.1735 13.1994C20.4821 13.1253 19.795 13.0151 19.1152 12.8693C17.2152 12.4932 15.2566 12.1053 12.9283 13.3332C9.29692 15.2458 7.75 18.1995 7.75 23.2195C7.75 26.991 9.30404 32.6894 12.7169 36.2899C13.3751 37.0366 14.1872 37.6319 15.0974 38.0349C16.0075 38.4379 16.9941 38.6391 17.9894 38.6245C18.7955 38.608 19.5991 38.5286 20.3929 38.387C20.9236 38.2888 21.4607 38.2287 22 38.2073C22.5392 38.2279 23.0763 38.2872 23.6071 38.3847C25.701 38.7093 28.5661 39.1542 31.2863 36.2899C34.696 32.687 36.25 26.991 36.25 23.2195C36.25 18.1995 34.7031 15.2458 31.0772 13.3332ZM25.6258 7.62446C26.1912 7.2965 26.8159 7.08371 27.4639 6.99838C28.1118 6.91305 28.7703 6.95687 29.4013 7.1273C29.2321 7.75858 28.9402 8.35036 28.5422 8.86883C28.1443 9.38729 27.6481 9.8223 27.0821 10.149C26.516 10.4757 25.8912 10.6877 25.2432 10.7729C24.5952 10.8581 23.9367 10.8148 23.3055 10.6455C23.4735 10.0136 23.7651 9.42128 24.1633 8.90275C24.5616 8.38423 25.0587 7.94976 25.6258 7.62446ZM30.1336 35.2006C27.989 37.4632 25.8839 37.1362 23.8501 36.8203C23.2393 36.7081 22.6208 36.6425 22 36.624C21.3792 36.6425 20.7607 36.7081 20.1499 36.8203C18.1145 37.137 16.0118 37.4632 13.8664 35.2006C10.752 31.9152 9.33333 26.687 9.33333 23.2195C9.33333 18.0737 11.0639 16.104 13.6606 14.7336C14.4585 14.301 15.3528 14.0772 16.2604 14.0829C17.1165 14.1131 17.9676 14.2266 18.8017 14.4217C19.8515 14.6634 20.923 14.7984 22 14.8247C23.077 14.7984 24.1485 14.6634 25.1983 14.4217C26.974 14.0702 28.5075 13.767 30.3394 14.7328C32.9361 16.104 34.6667 18.0713 34.6667 23.2195C34.6667 26.687 33.248 31.9152 30.1336 35.2006Z" fill="#BD967A"/>
<path d="M16.2539 16.4572C15.7348 16.4513 15.2231 16.5812 14.7696 16.8341C12.7849 17.8822 11.709 19.2083 11.709 23.2188C11.709 23.4288 11.7924 23.6302 11.9409 23.7786C12.0893 23.9271 12.2907 24.0105 12.5007 24.0105C12.7106 24.0105 12.912 23.9271 13.0604 23.7786C13.2089 23.6302 13.2923 23.4288 13.2923 23.2188C13.2923 19.403 14.369 18.8354 15.509 18.2313C15.7348 18.0998 15.9927 18.0337 16.2539 18.0406C16.4639 18.0406 16.6653 17.9571 16.8137 17.8087C16.9622 17.6602 17.0456 17.4589 17.0456 17.2489C17.0456 17.0389 16.9622 16.8376 16.8137 16.6891C16.6653 16.5406 16.4639 16.4572 16.2539 16.4572Z" fill="#BD967A"/>
</svg>
