<svg width="90" height="90" viewBox="0 0 90 90" fill="none" xmlns="http://www.w3.org/2000/svg">
<path d="M11.4327 49.4576C11.8495 63.0673 17.7995 69.1992 22.7089 71.9468C26.4219 74.0214 30.5061 74.7602 34.1902 74.7602C37.8391 74.7602 41.0944 74.0362 43.2071 73.1609C43.2219 73.1609 43.2386 73.1609 43.2554 73.1609C43.3046 73.1609 43.3538 73.1563 43.4029 73.1516C43.5537 73.4041 43.7691 73.6118 44.027 73.7533C44.2848 73.8948 44.5757 73.965 44.8697 73.9566C45.1636 73.9481 45.45 73.8615 45.6993 73.7054C45.9486 73.5494 46.1518 73.3297 46.2879 73.069C46.351 73.0903 46.4141 73.108 46.4782 73.1228C48.5862 74.013 51.8786 74.7565 55.5749 74.7565C59.2711 74.7565 63.3488 74.0139 67.0571 71.9431C71.9702 69.1955 77.9174 63.0636 78.3333 49.4539C78.3078 49.0482 78.1691 48.6578 77.933 48.3269C77.6969 47.996 77.3729 47.7378 76.9976 47.5817C63.9949 43.5485 56.2896 47.1723 52.0921 50.9233C49.5469 53.1965 47.8863 55.984 46.5311 58.7993V53.6755C49.6917 51.6185 55.5145 45.7475 56.3481 38.187C56.8939 33.2368 55.5238 25.8119 45.9658 18.542C45.6259 18.3268 45.2319 18.2125 44.8296 18.2125C44.4274 18.2125 44.0334 18.3268 43.6935 18.542C34.1327 25.8119 32.6549 33.2359 33.1998 38.1852C34.0352 45.7466 39.7578 51.6185 42.9184 53.6755V58.5236C41.5641 55.8021 40.0409 53.1241 37.5792 50.9242C33.3808 47.1705 25.7099 43.5466 12.7026 47.5826C12.3147 47.7075 11.9897 47.9767 11.7948 48.3345C11.5369 48.6499 11.4076 49.051 11.4327 49.4576ZM54.2716 53.397C59.2535 48.9415 66.2171 47.9502 74.9777 50.4406C74.4802 59.5373 71.2769 65.7972 65.4429 69.0591C59.8652 72.1779 53.1745 71.7658 49.2842 70.6259C51.3356 67.4578 56.4678 60.6614 63.8575 58.5905C64.0668 58.5318 64.2625 58.4326 64.4334 58.2983C64.6043 58.164 64.7472 57.9974 64.8537 57.808C64.9602 57.6185 65.0284 57.4099 65.0543 57.1941C65.0803 56.9783 65.0634 56.7595 65.0048 56.5502C64.9462 56.3409 64.8469 56.1452 64.7126 55.9743C64.5783 55.8034 64.4117 55.6606 64.2223 55.554C64.0328 55.4475 63.8242 55.3793 63.6084 55.3534C63.3926 55.3275 63.1738 55.3443 62.9645 55.4029C55.6083 57.4645 50.3638 63.3495 47.5958 67.2035C48.0051 63.1499 49.8672 57.3318 54.2716 53.397ZM36.4885 37.8287C35.8611 32.1331 38.6857 26.767 44.76 21.8697C50.8344 26.768 53.6562 32.1341 53.0278 37.8352C52.4551 43.0333 49.2415 47.345 46.5302 49.6238V34.6848C46.5302 33.7705 45.6381 33.0298 44.7238 33.0298C43.8095 33.0298 42.9175 33.7724 42.9175 34.6848V49.6201C40.2098 47.3394 37.0613 43.0315 36.4885 37.8287ZM35.4972 53.3979C39.7206 57.174 41.6059 62.6802 42.1099 66.7023C39.2621 62.8557 34.154 57.3773 27.1097 55.4029C26.687 55.2845 26.2346 55.3389 25.8519 55.554C25.4693 55.7692 25.1878 56.1275 25.0694 56.5502C24.951 56.9729 25.0054 57.4253 25.2205 57.808C25.4357 58.1906 25.794 58.4721 26.2167 58.5905C33.5238 60.6326 38.6467 67.3437 40.7389 70.5479C36.8905 71.7463 30.0262 72.2475 24.3231 69.0628C18.491 65.801 15.2858 59.5391 14.7892 50.4443C23.5545 47.9502 30.5163 48.9415 35.4972 53.3979Z" fill="#BD967A"/>
<path d="M12.3777 16.6289C12.4018 16.653 12.4278 16.6762 12.4538 16.7004C12.774 16.9839 13.1936 17.1288 13.6205 17.1032C14.0474 17.0776 14.4467 16.8837 14.7308 16.5639C15.4223 15.7805 15.2329 14.8681 14.7642 14.351C14.7428 14.3288 14.7215 14.3046 14.6992 14.2833L14.6398 14.2248C14.4835 14.082 14.3005 13.9714 14.1014 13.8993C13.9024 13.8272 13.691 13.795 13.4795 13.8045C13.268 13.8141 13.0604 13.8652 12.8687 13.955C12.6769 14.0448 12.5047 14.1715 12.3619 14.3278C11.6518 15.1029 11.8319 16.0228 12.3006 16.5481C12.3229 16.576 12.3508 16.6011 12.3777 16.6289ZM12.3174 14.4234L13.5241 15.4946L12.3174 14.4253C12.3174 14.4253 12.3174 14.4244 12.3174 14.4234Z" fill="#463B32"/>
<path d="M11.0234 18.2217C10.8534 18.0955 10.6602 18.0041 10.4549 17.9526C10.2495 17.9011 10.036 17.8907 9.82658 17.9218C9.61716 17.9529 9.41594 18.025 9.23442 18.134C9.0529 18.2429 8.89466 18.3866 8.76873 18.5568C3.20331 26.0563 0.137807 35.1164 0.00621635 44.4545C-0.402206 69.1529 19.3663 89.5869 44.0684 89.9935C44.3222 89.9978 44.5746 90 44.8259 90C56.5142 90 67.5471 85.5445 75.9681 77.3918C84.5691 69.0693 89.4144 57.8934 89.6131 45.9248C89.776 35.5974 86.3731 25.5296 79.978 17.4188C79.7129 17.0835 79.3254 16.8673 78.9008 16.8177C78.4762 16.768 78.0494 16.8891 77.7141 17.1543C77.3788 17.4194 77.1625 17.8069 77.1129 18.2315C77.0633 18.656 77.1844 19.0829 77.4495 19.4182C83.384 26.9455 86.5414 36.2888 86.3893 45.8728C86.2037 56.9782 81.7092 67.3493 73.7264 75.075C65.9135 82.6373 55.6713 86.7772 44.8268 86.7763C44.5938 86.7763 44.3627 86.7763 44.1251 86.7707C21.1968 86.391 2.85496 67.431 3.22625 44.5027C3.34885 35.8389 6.19281 27.4331 11.3557 20.4746C11.6103 20.1317 11.7183 19.7018 11.656 19.2793C11.5937 18.8569 11.3661 18.4765 11.0234 18.2217Z" fill="#463B32"/>
<path d="M75.3313 15.3285C75.5235 15.1828 75.6818 14.9972 75.7954 14.7845C76.0591 14.2712 76.1101 13.4404 75.3889 12.7832C75.1026 12.5231 74.7323 12.3746 74.3456 12.3649C73.9589 12.3552 73.5816 12.4849 73.2827 12.7303C73.0784 12.8778 72.9107 13.0703 72.7925 13.2928C72.5271 13.7997 72.4649 14.6249 73.1638 15.2867C73.4553 15.5625 73.8392 15.7196 74.2404 15.7274C74.6416 15.7351 75.0313 15.5928 75.3331 15.3285H75.3313Z" fill="#463B32"/>
<path d="M22.6324 4.69396L22.9017 10.3669L18.7221 6.56224L16.6443 7.55496L22.8782 13.1046L24.956 12.1119L24.5683 3.76907L22.6324 4.69396Z" fill="#463B32"/>
<path d="M35.8323 4.60962C35.2337 2.20873 33.1738 1.15981 30.9811 1.70651C28.7051 2.27398 27.3995 4.30942 27.9566 6.54378C28.5102 8.76425 30.5943 9.96929 33.1756 9.3257C34.5217 8.99007 35.4588 8.31421 35.9555 7.35016L34.4922 6.38834C34.0998 7.00209 33.5896 7.37989 32.7986 7.57712C31.6606 7.86085 30.7277 7.48908 30.2877 6.61116L35.936 5.20287C35.9049 5.019 35.8738 4.77615 35.8323 4.60962ZM31.4033 3.34065C32.3747 3.09844 33.2347 3.5326 33.6227 4.43824L29.945 5.35519C29.8589 4.35955 30.4179 3.58632 31.4033 3.34065Z" fill="#463B32"/>
<path d="M44.9571 0.0561571L44.9802 1.04278C44.3766 0.312952 43.4817 -0.0237825 42.4093 0.00130313C40.2787 0.05114 38.5973 1.56406 38.6498 3.80899C38.7023 6.05392 40.4527 7.48657 42.5832 7.43673C43.5841 7.41332 44.4204 7.07901 44.9916 6.42185L44.9993 6.75072C45.0317 8.13772 44.3621 8.86872 42.7892 8.90551C41.8026 8.92859 40.7222 8.6105 40.052 8.09683L39.203 9.71904C40.1202 10.3986 41.5441 10.723 43.0026 10.6889C45.7766 10.624 47.2901 9.27235 47.2232 6.41257L47.0734 0.00665471L44.9571 0.0561571ZM42.9836 5.59611C41.8111 5.62353 40.9355 4.88576 40.909 3.75615C40.8826 2.62653 41.7228 1.84862 42.8953 1.82119C44.0679 1.79377 44.9292 2.53188 44.9556 3.66149C44.9821 4.7911 44.1562 5.56868 42.9836 5.59611Z" fill="#463B32"/>
<path d="M54.9429 0.854573C53.7354 0.62008 52.4511 0.705793 51.5082 1.13462L51.9973 2.81773C52.6294 2.48881 53.5096 2.38292 54.3099 2.53834C55.4893 2.76738 55.9446 3.42402 55.7619 4.36474L54.0209 4.02663C51.7182 3.57946 50.5976 4.32345 50.3385 5.65729C50.0849 6.96306 50.9471 8.1504 52.7162 8.49396C53.8254 8.70936 54.6826 8.497 55.2234 7.88809L55.0407 8.8288L57.0906 9.2269L57.9277 4.91646C58.3721 2.62786 57.2455 1.30174 54.9429 0.854573ZM53.5501 7.12604C52.7779 6.97608 52.3854 6.52104 52.4918 5.97346C52.5899 5.468 52.9865 5.15162 54.0114 5.35067L55.5138 5.64242L55.3638 6.41465C54.9775 7.05356 54.2802 7.26783 53.5501 7.12604Z" fill="#463B32"/>
<path d="M67.3679 4.61667C66.4104 4.20036 65.4414 4.169 64.6282 4.53284L64.9875 3.70649L63.0331 2.85676L59.9649 9.91354L62.0111 10.8032L63.5281 7.31415C64.0927 6.0156 65.0633 5.72019 66.0471 6.1479C66.9521 6.54141 67.2487 7.29419 66.7525 8.43534L65.1329 12.1605L67.1791 13.0501L68.9356 9.01019C69.8709 6.85906 69.0337 5.34094 67.3679 4.61667Z" fill="#463B32"/>
</svg>
