<svg width="89" height="89" viewBox="0 0 89 89" fill="none" xmlns="http://www.w3.org/2000/svg">
<g opacity="0.5">
<circle cx="87.5" cy="35.5" r="2.5" transform="rotate(90 87.5 35.5)" fill="#D0AF94"/>
<circle cx="75.5" cy="35.5" r="2.5" transform="rotate(90 75.5 35.5)" fill="#D0AF94"/>
<circle cx="63.5" cy="35.5" r="2.5" transform="rotate(90 63.5 35.5)" fill="#D0AF94"/>
<circle cx="51.5" cy="35.5" r="2.5" transform="rotate(90 51.5 35.5)" fill="#D0AF94"/>
<circle cx="39.5" cy="35.5" r="2.5" transform="rotate(90 39.5 35.5)" fill="#D0AF94"/>
<circle cx="27.5" cy="35.5" r="2.5" transform="rotate(90 27.5 35.5)" fill="#D0AF94"/>
<circle cx="15.5" cy="35.5" r="2.5" transform="rotate(90 15.5 35.5)" fill="#D0AF94"/>
<circle cx="3.5" cy="35.5" r="2.5" transform="rotate(90 3.5 35.5)" fill="#D0AF94"/>
<circle cx="87.5" cy="69.5" r="2.5" transform="rotate(90 87.5 69.5)" fill="#D0AF94"/>
<circle cx="75.5" cy="69.5" r="2.5" transform="rotate(90 75.5 69.5)" fill="#D0AF94"/>
<circle cx="63.5" cy="69.5" r="2.5" transform="rotate(90 63.5 69.5)" fill="#D0AF94"/>
<circle cx="51.5" cy="69.5" r="2.5" transform="rotate(90 51.5 69.5)" fill="#D0AF94"/>
<circle cx="39.5" cy="69.5" r="2.5" transform="rotate(90 39.5 69.5)" fill="#D0AF94"/>
<circle cx="27.5" cy="69.5" r="2.5" transform="rotate(90 27.5 69.5)" fill="#D0AF94"/>
<circle cx="15.5" cy="69.5" r="2.5" transform="rotate(90 15.5 69.5)" fill="#D0AF94"/>
<circle cx="3.5" cy="69.5" r="2.5" transform="rotate(90 3.5 69.5)" fill="#D0AF94"/>
<circle cx="87.5" cy="52.5" r="2.5" transform="rotate(90 87.5 52.5)" fill="#D0AF94"/>
<circle cx="75.5" cy="52.5" r="2.5" transform="rotate(90 75.5 52.5)" fill="#D0AF94"/>
<circle cx="63.5" cy="52.5" r="2.5" transform="rotate(90 63.5 52.5)" fill="#D0AF94"/>
<circle cx="51.5" cy="52.5" r="2.5" transform="rotate(90 51.5 52.5)" fill="#D0AF94"/>
<circle cx="39.5" cy="52.5" r="2.5" transform="rotate(90 39.5 52.5)" fill="#D0AF94"/>
<circle cx="27.5" cy="52.5" r="2.5" transform="rotate(90 27.5 52.5)" fill="#D0AF94"/>
<circle cx="15.5" cy="52.5" r="2.5" transform="rotate(90 15.5 52.5)" fill="#D0AF94"/>
<circle cx="3.5" cy="52.5" r="2.5" transform="rotate(90 3.5 52.5)" fill="#D0AF94"/>
<circle cx="87.5" cy="86.5" r="2.5" transform="rotate(90 87.5 86.5)" fill="#D0AF94"/>
<circle cx="75.5" cy="86.5" r="2.5" transform="rotate(90 75.5 86.5)" fill="#D0AF94"/>
<circle cx="63.5" cy="86.5" r="2.5" transform="rotate(90 63.5 86.5)" fill="#D0AF94"/>
<circle cx="51.5" cy="86.5" r="2.5" transform="rotate(90 51.5 86.5)" fill="#D0AF94"/>
<circle cx="39.5" cy="86.5" r="2.5" transform="rotate(90 39.5 86.5)" fill="#D0AF94"/>
<circle cx="27.5" cy="86.5" r="2.5" transform="rotate(90 27.5 86.5)" fill="#D0AF94"/>
<circle cx="15.5" cy="86.5" r="2.5" transform="rotate(90 15.5 86.5)" fill="#D0AF94"/>
<circle cx="3.5" cy="86.5" r="2.5" transform="rotate(90 3.5 86.5)" fill="#D0AF94"/>
</g>
</svg>
