<svg width="36" height="41" viewBox="0 0 36 41" fill="none" xmlns="http://www.w3.org/2000/svg">
<path d="M36 22.7722C36 35.349 25.6602 40.484 16.5306 40.484C7.40101 40.484 0 30.2885 0 17.7118C0 5.13502 10.3398 0 19.4694 0C28.599 0 36 10.1955 36 22.7722Z" fill="#CC9966" fill-opacity="0.1"/>
<path d="M19.1255 4.55568C19.07 4.17936 18.3444 4.17936 18.291 4.55568C16.476 16.9954 7.19531 19.5597 7.19531 28.2064C7.19531 33.5502 12.4657 37.8806 18.7083 37.8806C24.9488 37.8806 30.2191 33.5484 30.2191 28.2064C30.2191 19.5597 20.9405 16.9954 19.1255 4.55568ZM17.3722 18.3082C17.2509 18.6915 17.1193 19.0853 16.9837 19.4949C16.1594 21.9874 15.2242 24.8142 15.2242 28.0821C15.2242 29.8535 13.995 30.4818 12.848 30.4818C12.5346 30.4807 12.2245 30.427 11.9355 30.3238C11.6465 30.2206 11.3842 30.07 11.1635 29.8804C10.9429 29.6909 10.7682 29.4663 10.6495 29.2193C10.5308 28.9723 10.4705 28.7078 10.4718 28.4409C10.4718 24.5779 12.6548 22.0539 14.5828 19.8292C15.1892 19.1326 15.7586 18.4727 16.2211 17.8163C16.4328 17.5153 17.0022 17.5293 17.2612 17.8268C17.3824 17.9668 17.4236 18.1454 17.3722 18.3082Z" fill="#D0AF94"/>
</svg>
