<svg width="177" height="706" viewBox="0 0 177 706" fill="none" xmlns="http://www.w3.org/2000/svg">
<path fill-rule="evenodd" clip-rule="evenodd" d="M228.266 568.37C236.415 596.037 217.651 622.989 199.533 645.431C182.786 666.176 161.049 683.818 134.401 684.64C108.079 685.451 85.8099 668.927 68.05 649.484C49.5804 629.263 32.6871 604.944 36.8857 577.882C41.1921 550.125 63.0943 528.43 88.6424 516.756C112.295 505.948 138.314 511.371 162.706 520.388C189.43 530.267 220.217 541.039 228.266 568.37Z" fill="#F3EBE5"/>
<path fill-rule="evenodd" clip-rule="evenodd" d="M294.838 119.44C306.374 158.608 279.81 196.762 254.162 228.532C230.453 257.9 199.681 282.877 161.955 284.04C124.693 285.188 93.1672 261.795 68.025 234.27C41.8781 205.645 17.9627 171.217 23.9066 132.906C30.0031 93.6113 61.0093 62.8986 97.177 46.3716C130.661 31.0708 167.495 38.7485 202.026 51.5133C239.859 65.4988 283.443 80.7482 294.838 119.44Z" fill="#E9DDD5" stroke="#E6D6C8" stroke-opacity="0.65"/>
</svg>
